<svg width="357" height="362" viewBox="0 0 357 362" fill="none" xmlns="http://www.w3.org/2000/svg">
<g filter="url(#filter0_d_321_8220)">
<path d="M13 59H323C335.15 59 345 68.8497 345 81V347H35C22.8497 347 13 337.15 13 325V59Z" fill="#C1CEFD"/>
</g>
<path d="M343.5 170.5V346H129.5" stroke="#284BC8" stroke-width="3" stroke-linecap="round" stroke-dasharray="7 9"/>
<g clip-path="url(#clip0_321_8220)">
<path d="M256.018 83.4397C255.392 102.916 239.06 118.197 219.54 117.571C217.424 117.503 215.357 117.251 213.355 116.831C196.886 113.374 184.77 98.5363 185.328 81.1703C185.952 61.6939 202.284 46.4134 221.804 47.0401C241.325 47.6661 256.643 63.9633 256.018 83.4397Z" fill="#EBEBEB"/>
<path d="M247.627 82.7307L247.61 82.7306L247.627 82.7299C247.627 82.7302 247.627 82.7305 247.627 82.7307ZM247.627 82.7307L247.607 82.7307V83.1693L247.624 82.944C247.625 82.8845 247.626 82.8134 247.627 82.7307ZM247.607 82.1693C247.587 82.1693 247.567 82.1699 247.548 82.1711L247.628 82.1695C247.628 82.1695 247.628 82.1695 247.628 82.1696C247.628 82.3843 247.627 82.5706 247.627 82.7293L247.607 82.7303V82.1693Z" fill="#E0E0E0" stroke="#B2B2B2" stroke-width="2"/>
<path d="M254.238 115.166C241.752 126.572 223.942 130.725 207.69 125.973C194.333 122.067 182.882 112.256 177.571 99.3092C172.167 86.1398 173.639 70.9468 181.299 58.9843C189.004 46.9517 202.341 39.0776 216.521 37.7077C234.34 35.9859 251.957 44.1362 261.712 59.2161C263.163 61.4584 266.769 59.373 265.308 57.1147C255.913 42.5948 239.816 33.6866 222.52 33.323C206.79 32.9919 191.183 39.8528 181.196 52.0887C171.308 64.2046 167.667 80.5712 171.936 95.683C176.138 110.56 187.492 122.528 201.725 128.296C220.478 135.896 242.311 131.695 257.182 118.111C259.165 116.3 256.213 113.362 254.238 115.166Z" fill="#F766A1"/>
<path d="M250.383 57.8422L267.346 46.4189V63.6947L250.383 57.8422Z" fill="#F766A1"/>
<path d="M384.27 326.037C384.27 326.137 284.611 326.217 161.703 326.217C38.7526 326.217 -60.8857 326.136 -60.8857 326.037C-60.8857 325.938 38.7526 325.856 161.703 325.856C284.611 325.856 384.27 325.937 384.27 326.037Z" fill="#263238"/>
<path d="M186.876 141.828C186.876 141.828 212.313 148.527 220.355 175.355L209.542 180.151C209.542 180.151 207.065 161.487 181.863 153.359C168.228 148.962 150.175 155.168 145.174 160.852L133.04 155.618C141.183 146.688 161.209 134.832 186.876 141.828Z" fill="#F766A1"/>
<path d="M227.27 168.59L200.387 177.511L221.018 187.853L227.27 168.59Z" fill="#F766A1"/>
<path d="M155.148 326.036L60.0759 325.977C48.6416 325.971 39.3766 316.225 39.3787 304.209L39.4252 53.7122C39.4272 41.688 48.7061 31.9442 60.1467 31.9512L155.22 32.0102C166.654 32.0171 175.919 41.7629 175.917 53.7796L175.87 304.277C175.868 316.3 166.589 326.043 155.148 326.036Z" fill="#263238"/>
<path d="M155.118 40.8688L136.685 40.8577C134.213 40.8564 132.209 43.057 132.209 45.7727L132.207 49.2871C132.207 52.0027 130.202 54.2034 127.731 54.202L91.8016 54.1798C89.3297 54.1784 87.3263 51.9749 87.3263 49.2593L87.3269 45.7456C87.3269 43.03 85.3235 40.8265 82.8516 40.8251L76.3687 40.821L60.2356 40.8105C52.2231 40.8057 45.7249 47.6298 45.7235 56.0508L45.6777 300.553C45.6763 308.971 52.1648 315.795 60.1731 315.8L155.056 315.859C163.068 315.864 169.566 309.039 169.568 300.618L169.614 56.1146C169.615 47.6985 163.127 40.8737 155.118 40.8688Z" fill="white"/>
<path d="M65.7657 296.518V303.694C65.7657 304.317 65.0808 304.694 64.5561 304.361L58.9157 300.773C58.4285 300.462 58.4285 299.75 58.9157 299.439L64.5561 295.851C65.0808 295.518 65.7657 295.896 65.7657 296.518Z" fill="#E0E0E0"/>
<path d="M112.116 300.04C112.116 302.777 109.901 304.996 107.171 304.996C104.439 304.996 102.226 302.777 102.226 300.04C102.226 297.302 104.44 295.083 107.171 295.083C109.901 295.082 112.116 297.302 112.116 300.04Z" fill="#E0E0E0"/>
<path d="M155.447 304.873H148.918C148.201 304.873 147.62 304.292 147.62 303.575V297.024C147.62 296.307 148.201 295.727 148.918 295.727H155.447C156.164 295.727 156.745 296.307 156.745 297.024V303.575C156.744 304.292 156.163 304.873 155.447 304.873Z" fill="#E0E0E0"/>
<path d="M80.1632 129.167C82.7045 129.167 85.2457 129.167 87.787 129.167C87.2922 128.79 86.7974 128.413 86.3026 128.037C87.4275 131.739 88.5525 135.441 89.6774 139.143C91.4622 145.017 93.2471 150.891 95.0319 156.765C95.4434 158.12 95.8556 159.475 96.2672 160.83C96.4642 161.478 97.0624 161.962 97.7515 161.96C105.029 161.94 112.307 161.92 119.584 161.9C120.626 161.897 121.668 161.894 122.71 161.891C124.691 161.886 124.695 158.807 122.71 158.812C115.433 158.832 108.155 158.852 100.878 158.872C99.8355 158.875 98.7939 158.878 97.7515 158.881C98.2463 159.258 98.7411 159.634 99.2359 160.011C98.111 156.309 96.9861 152.607 95.8612 148.905C94.0763 143.031 92.2915 137.157 90.5066 131.283C90.0951 129.928 89.6829 128.573 89.2714 127.218C89.0736 126.568 88.4761 126.088 87.787 126.088C85.2457 126.088 82.7045 126.088 80.1632 126.088C78.182 126.088 78.1785 129.167 80.1632 129.167Z" fill="#263238"/>
<path d="M127.59 133.085C126.152 139.526 124.715 145.968 123.277 152.409C123.071 153.334 122.864 154.26 122.658 155.187C123.029 154.904 123.4 154.622 123.771 154.339C120.655 154.309 117.54 154.278 114.424 154.248C109.427 154.199 104.432 154.15 99.4351 154.101C98.2928 154.09 97.1499 154.078 96.0076 154.067C96.3789 154.35 96.7495 154.632 97.1208 154.915C95.1166 148.538 93.1125 142.161 91.1083 135.785C90.8259 134.885 90.5427 133.986 90.2603 133.086C89.889 133.573 89.5178 134.06 89.1472 134.547C93.6218 134.547 98.0965 134.547 102.571 134.547C109.645 134.547 116.719 134.547 123.794 134.547C125.43 134.547 127.066 134.547 128.703 134.547C130.189 134.547 130.192 132.238 128.703 132.238C124.229 132.238 119.754 132.238 115.28 132.238C108.205 132.238 101.131 132.238 94.0569 132.238C92.4206 132.238 90.7842 132.238 89.1472 132.238C88.4192 132.238 87.8072 132.979 88.0341 133.7C90.0382 140.076 92.0424 146.453 94.0465 152.83C94.329 153.729 94.6121 154.629 94.8945 155.529C95.0486 156.02 95.4865 156.371 96.0076 156.376C99.1235 156.407 102.239 156.437 105.355 156.468C110.35 156.517 115.347 156.566 120.343 156.615C121.486 156.626 122.629 156.637 123.771 156.648C124.256 156.653 124.775 156.288 124.884 155.801C126.322 149.36 127.759 142.918 129.197 136.477C129.404 135.551 129.61 134.626 129.817 133.7C130.14 132.251 127.914 131.633 127.59 133.085Z" fill="#263238"/>
<path d="M97.0159 134.073C98.2311 141.12 99.7751 148.105 100.99 155.152C101.242 156.613 103.468 155.993 103.216 154.538C102.001 147.491 100.457 140.506 99.2422 133.459C98.991 131.997 96.7647 132.617 97.0159 134.073Z" fill="#263238"/>
<path d="M109.209 133.766C109.326 140.991 109.46 148.217 109.577 155.443C109.6 156.927 111.91 156.932 111.885 155.443C111.769 148.217 111.635 140.991 111.518 133.766C111.495 132.281 109.186 132.276 109.209 133.766Z" fill="#263238"/>
<path d="M120.472 155.704C121.449 149.287 122.426 142.87 123.404 136.453C123.544 135.535 123.683 134.617 123.823 133.699C123.917 133.078 123.666 132.464 123.016 132.278C122.472 132.122 121.69 132.469 121.596 133.085C120.619 139.502 119.642 145.919 118.664 152.336C118.524 153.255 118.384 154.172 118.245 155.09C118.15 155.711 118.402 156.325 119.051 156.511C119.597 156.667 120.378 156.321 120.472 155.704Z" fill="#263238"/>
<path d="M91.6628 141.307C103.305 141.307 114.947 141.307 126.59 141.307C128.075 141.307 128.078 138.998 126.59 138.998C114.947 138.998 103.305 138.998 91.6628 138.998C90.177 138.998 90.1749 141.307 91.6628 141.307Z" fill="#263238"/>
<path d="M94.9376 149.414C105.021 149.414 115.103 149.414 125.186 149.414C126.672 149.414 126.674 147.105 125.186 147.105C115.103 147.105 105.02 147.105 94.9376 147.105C93.4518 147.105 93.449 149.414 94.9376 149.414Z" fill="#263238"/>
<path d="M122.71 172.093C124.979 172.093 126.818 170.254 126.818 167.984C126.818 165.715 124.979 163.876 122.71 163.876C120.441 163.876 118.602 165.715 118.602 167.984C118.602 170.254 120.441 172.093 122.71 172.093Z" fill="#263238"/>
<path d="M100.117 172.093C102.385 172.093 104.225 170.254 104.225 167.984C104.225 165.715 102.385 163.876 100.117 163.876C97.8476 163.876 96.0083 165.715 96.0083 167.984C96.0083 170.254 97.8476 172.093 100.117 172.093Z" fill="#263238"/>
<path d="M92.2429 112.652C92.2429 112.652 75.3402 112.081 65.434 127.119L71.2084 132.07C71.2084 132.07 76.1799 121.032 93.202 120.68C102.411 120.49 108.747 125.86 110.777 130.285L121.223 130.106C117.858 123.1 109.343 113.083 92.2429 112.652Z" fill="#F766A1"/>
<path d="M63.2001 122.222L78.1098 132.68L64.5658 135.424L63.2001 122.222Z" fill="#F766A1"/>
<path d="M161.939 66.6198C161.939 67.5463 161.188 68.2972 160.262 68.2972C159.335 68.2972 158.585 67.5463 158.585 66.6198C158.585 65.6933 159.335 64.9424 160.262 64.9424C161.188 64.9424 161.939 65.6933 161.939 66.6198Z" fill="#263238"/>
<path d="M160.262 72.886C161.188 72.886 161.939 72.135 161.939 71.2086C161.939 70.2822 161.188 69.5312 160.262 69.5312C159.335 69.5312 158.585 70.2822 158.585 71.2086C158.585 72.135 159.335 72.886 160.262 72.886Z" fill="#263238"/>
<path d="M160.262 77.4749C161.188 77.4749 161.939 76.7239 161.939 75.7975C161.939 74.8711 161.188 74.1201 160.262 74.1201C159.335 74.1201 158.585 74.8711 158.585 75.7975C158.585 76.7239 159.335 77.4749 160.262 77.4749Z" fill="#263238"/>
<path d="M60.2599 65.8271L53.4133 70.9607H55.1579V77.0984L58.849 77.1116V72.5187L61.7588 72.5062V77.0984H65.3292V70.8996L67.1071 70.8809L60.2599 65.8271Z" fill="#263238"/>
<path d="M170.055 83.5642C170.055 83.6642 142.111 83.7454 107.649 83.7454C73.175 83.7454 45.2377 83.6642 45.2377 83.5642C45.2377 83.4643 73.175 83.3838 107.649 83.3838C142.111 83.3838 170.055 83.4643 170.055 83.5642Z" fill="#E0E0E0"/>
<path d="M106.33 267.424H105.216C101.461 267.424 98.4178 264.379 98.4178 260.624V205.903C98.4178 202.148 101.462 199.104 105.216 199.104H106.33C110.085 199.104 113.129 202.148 113.129 205.903V260.624C113.128 264.38 110.085 267.424 106.33 267.424Z" fill="#E0E0E0"/>
<path d="M134.418 234.882C134.434 247.949 123.83 258.555 110.734 258.572C109.314 258.574 107.924 258.451 106.572 258.214C95.4581 256.265 87.0057 246.592 86.9918 234.941C86.9751 221.874 97.5788 211.268 110.675 211.252C123.772 211.236 134.402 221.815 134.418 234.882Z" fill="#F766A1"/>
<path d="M129.428 235.134C129.44 245.091 121.36 253.174 111.379 253.186C101.399 253.199 93.2978 245.137 93.286 235.179C93.2742 225.221 101.355 217.138 111.334 217.126C121.315 217.113 129.415 225.176 129.428 235.134Z" fill="#F766A1"/>
<path d="M128.776 234.89C128.769 234.89 128.758 234.791 128.741 234.598C128.726 234.387 128.704 234.103 128.678 233.742C128.665 233.552 128.651 233.342 128.636 233.112C128.61 232.881 128.559 232.631 128.517 232.359C128.428 231.816 128.343 231.186 128.132 230.502C127.807 229.111 127.149 227.469 126.114 225.732C125.071 224.002 123.57 222.197 121.531 220.668C119.498 219.153 116.937 217.866 113.985 217.351C111.052 216.853 107.744 216.948 104.593 218.147C103.792 218.404 103.037 218.8 102.263 219.173C101.885 219.376 101.524 219.616 101.15 219.838C100.77 220.05 100.421 220.313 100.071 220.58C99.3456 221.079 98.7099 221.702 98.0444 222.303C97.4435 222.968 96.8113 223.618 96.2936 224.374C95.2291 225.849 94.3019 227.491 93.7405 229.295C93.1583 231.088 92.846 232.992 92.8224 234.931C92.8502 236.869 93.1666 238.774 93.753 240.566C94.3186 242.37 95.2506 244.009 96.3186 245.482C96.8383 246.237 97.4726 246.886 98.075 247.549C98.7419 248.148 99.3789 248.77 100.107 249.267C100.792 249.821 101.566 250.229 102.302 250.67C103.078 251.041 103.833 251.435 104.635 251.69C107.789 252.881 111.098 252.967 114.03 252.462C116.981 251.94 119.539 250.647 121.567 249.127C123.602 247.593 125.098 245.783 126.137 244.051C127.168 242.311 127.822 240.668 128.143 239.277C128.352 238.592 128.436 237.962 128.523 237.419C128.565 237.147 128.615 236.897 128.64 236.666C128.655 236.435 128.669 236.226 128.681 236.036C128.706 235.674 128.726 235.391 128.742 235.18C128.758 234.989 128.769 234.89 128.776 234.89C128.782 234.89 128.784 234.989 128.78 235.183C128.775 235.394 128.767 235.679 128.757 236.042C128.75 236.233 128.743 236.445 128.735 236.677C128.715 236.909 128.671 237.161 128.635 237.436C128.559 237.984 128.486 238.621 128.286 239.315C127.985 240.722 127.345 242.39 126.32 244.161C125.286 245.924 123.785 247.77 121.731 249.342C119.683 250.898 117.089 252.227 114.088 252.773C111.107 253.3 107.738 253.224 104.517 252.02C103.698 251.761 102.926 251.363 102.135 250.985C101.383 250.537 100.593 250.122 99.8925 249.56C99.1492 249.053 98.4976 248.421 97.8168 247.81C97.1999 247.134 96.5531 246.472 96.0209 245.704C94.9286 244.201 93.9758 242.527 93.3963 240.686C92.796 238.856 92.472 236.91 92.4442 234.931C92.4678 232.952 92.7877 231.006 93.3831 229.175C93.9584 227.333 94.9064 225.657 95.9952 224.153C96.5254 223.383 97.1707 222.72 97.7856 222.042C98.465 221.43 99.1152 220.796 99.857 220.288C100.214 220.016 100.57 219.749 100.959 219.532C101.341 219.307 101.71 219.064 102.096 218.857C102.886 218.478 103.657 218.078 104.475 217.817C107.691 216.604 111.061 216.52 114.042 217.04C117.045 217.578 119.641 218.901 121.693 220.452C123.751 222.018 125.258 223.86 126.296 225.621C127.327 227.389 127.97 229.055 128.275 230.463C128.477 231.156 128.551 231.792 128.629 232.341C128.665 232.615 128.71 232.867 128.731 233.1C128.74 233.332 128.747 233.543 128.754 233.734C128.765 234.098 128.774 234.382 128.78 234.594C128.783 234.79 128.782 234.89 128.776 234.89Z" fill="#263238"/>
<g opacity="0.3">
<path d="M128.635 235.079C128.527 235.084 128.449 234.29 128.159 232.907C127.862 231.531 127.318 229.542 126.088 227.37C125.474 226.289 124.692 225.167 123.715 224.089C122.729 223.02 121.561 221.984 120.189 221.109C119.506 220.669 118.779 220.259 118.005 219.912C117.232 219.56 116.423 219.245 115.574 219.009C114.727 218.771 113.85 218.575 112.947 218.468C112.045 218.359 111.122 218.314 110.189 218.338C109.255 218.376 108.337 218.481 107.443 218.648C106.549 218.816 105.686 219.068 104.856 219.362C104.024 219.653 103.237 220.022 102.489 220.423C101.739 220.821 101.04 221.279 100.387 221.762C99.075 222.726 97.9751 223.837 97.0618 224.967C96.1562 226.107 95.4498 227.277 94.9057 228.398C93.8197 230.645 93.4054 232.666 93.1986 234.058C92.9994 235.458 92.9737 236.254 92.8648 236.256C92.7843 236.261 92.6281 235.467 92.667 234.009C92.7149 232.562 92.9925 230.42 94.023 227.992C94.5393 226.783 95.2381 225.51 96.1631 224.264C97.0958 223.027 98.2402 221.807 99.6267 220.743C100.317 220.21 101.059 219.705 101.861 219.265C102.659 218.82 103.503 218.413 104.397 218.089C105.289 217.763 106.219 217.484 107.183 217.298C108.146 217.112 109.138 216.996 110.144 216.956C111.151 216.929 112.147 216.98 113.12 217.103C114.094 217.224 115.039 217.442 115.951 217.709C116.864 217.972 117.733 218.323 118.558 218.715C119.386 219.101 120.159 219.557 120.883 220.043C122.334 221.013 123.556 222.155 124.568 223.328C125.57 224.51 126.351 225.734 126.944 226.906C128.13 229.261 128.547 231.38 128.688 232.822C128.82 234.276 128.715 235.077 128.635 235.079Z" fill="black"/>
</g>
<path d="M97.882 201.842H70.5096V263.026H97.882V201.842Z" fill="white"/>
<path d="M249.781 229.531C252.829 243.154 244.232 256.674 230.58 259.729C229.1 260.06 227.621 260.255 226.157 260.321C214.115 260.868 203.057 252.742 200.34 240.596C197.291 226.974 205.888 213.454 219.541 210.398C233.193 207.343 246.732 215.909 249.781 229.531Z" fill="#F766A1"/>
<path d="M244.636 230.951C246.959 241.331 240.408 251.634 230.002 253.963C219.599 256.292 209.281 249.764 206.958 239.384C204.636 229.003 211.187 218.699 221.591 216.372C231.995 214.043 242.313 220.57 244.636 230.951Z" fill="#F766A1"/>
<path d="M243.899 230.849C243.892 230.85 243.857 230.75 243.795 230.553C243.73 230.336 243.642 230.045 243.53 229.675C243.473 229.48 243.41 229.264 243.341 229.027C243.26 228.793 243.149 228.543 243.043 228.27C242.824 227.724 242.589 227.087 242.21 226.422C241.549 225.048 240.483 223.488 239 221.917C237.51 220.355 235.526 218.821 233.046 217.699C230.576 216.591 227.607 215.843 224.408 215.991C221.234 216.153 217.807 217.02 214.799 219C214.023 219.455 213.328 220.043 212.607 220.611C212.26 220.911 211.939 221.245 211.601 221.562C211.254 221.872 210.95 222.227 210.649 222.587C210.007 223.277 209.488 224.073 208.935 224.854C208.462 225.687 207.954 226.512 207.589 227.42C206.821 229.205 206.235 231.133 206.068 233.144C205.877 235.148 205.993 237.207 206.418 239.234C206.897 241.249 207.669 243.162 208.696 244.895C209.704 246.644 211.056 248.137 212.512 249.426C213.229 250.091 214.041 250.622 214.823 251.174C215.657 251.644 216.466 252.145 217.34 252.494C218.182 252.913 219.084 253.157 219.954 253.448C220.848 253.654 221.728 253.89 222.624 253.97C226.189 254.48 229.66 253.803 232.599 252.596C235.556 251.366 237.923 249.424 239.686 247.369C241.452 245.297 242.592 243.063 243.274 241.015C243.945 238.962 244.246 237.097 244.258 235.572C244.317 234.81 244.258 234.133 244.223 233.546C244.203 233.252 244.197 232.98 244.17 232.734C244.132 232.49 244.097 232.268 244.066 232.067C244.009 231.684 243.965 231.385 243.931 231.16C243.903 230.956 243.892 230.85 243.899 230.849C243.906 230.847 243.93 230.95 243.972 231.153C244.015 231.375 244.073 231.674 244.147 232.055C244.184 232.256 244.225 232.478 244.271 232.722C244.304 232.969 244.317 233.242 244.343 233.537C244.391 234.127 244.462 234.807 244.415 235.577C244.427 237.115 244.147 239.003 243.488 241.087C242.819 243.166 241.682 245.439 239.904 247.554C238.13 249.652 235.734 251.64 232.731 252.906C229.746 254.147 226.213 254.849 222.576 254.341C221.662 254.261 220.765 254.024 219.853 253.815C218.965 253.523 218.044 253.273 217.184 252.849C216.291 252.493 215.465 251.985 214.613 251.506C213.813 250.944 212.984 250.404 212.252 249.726C210.764 248.412 209.383 246.888 208.351 245.103C207.3 243.334 206.511 241.38 206.023 239.323C205.589 237.254 205.471 235.151 205.667 233.104C205.84 231.049 206.44 229.083 207.226 227.261C207.6 226.335 208.119 225.493 208.604 224.645C209.17 223.848 209.701 223.037 210.356 222.336C210.665 221.969 210.975 221.608 211.33 221.292C211.676 220.969 212.004 220.63 212.359 220.324C213.095 219.746 213.806 219.149 214.598 218.688C217.671 216.677 221.165 215.807 224.395 215.658C227.65 215.523 230.664 216.299 233.164 217.441C235.674 218.596 237.672 220.167 239.163 221.763C240.647 223.368 241.705 224.957 242.35 226.353C242.721 227.029 242.946 227.676 243.154 228.23C243.256 228.507 243.361 228.76 243.436 228.997C243.499 229.237 243.556 229.455 243.608 229.653C243.704 230.029 243.779 230.324 243.834 230.544C243.884 230.743 243.905 230.847 243.899 230.849Z" fill="#263238"/>
<g opacity="0.3">
<path d="M243.796 231.078C243.683 231.108 243.419 230.299 242.796 228.923C242.167 227.557 241.138 225.609 239.351 223.63C238.46 222.646 237.385 221.657 236.115 220.759C234.84 219.874 233.381 219.065 231.748 218.471C230.934 218.171 230.081 217.911 229.193 217.729C228.306 217.541 227.388 217.4 226.449 217.351C225.51 217.299 224.551 217.298 223.584 217.396C222.617 217.491 221.645 217.659 220.677 217.9C219.712 218.155 218.779 218.479 217.887 218.861C216.992 219.242 216.152 219.706 215.354 220.205C214.554 220.702 213.819 221.269 213.132 221.861C212.441 222.45 211.819 223.089 211.25 223.745C210.105 225.054 209.216 226.468 208.526 227.859C207.846 229.258 207.381 230.643 207.073 231.936C206.462 234.532 206.499 236.735 206.606 238.234C206.724 239.74 206.881 240.576 206.769 240.604C206.686 240.627 206.338 239.837 206.041 238.307C205.754 236.787 205.547 234.489 206.059 231.718C206.316 230.337 206.75 228.848 207.426 227.334C208.112 225.828 209.022 224.291 210.221 222.859C210.817 222.142 211.474 221.444 212.207 220.799C212.937 220.15 213.722 219.53 214.579 218.985C215.434 218.438 216.338 217.931 217.302 217.514C218.263 217.096 219.27 216.745 220.31 216.47C221.354 216.209 222.404 216.03 223.447 215.933C224.492 215.834 225.528 215.842 226.54 215.908C227.553 215.972 228.541 216.136 229.492 216.353C230.444 216.565 231.357 216.86 232.224 217.199C233.964 217.874 235.502 218.781 236.829 219.77C238.148 220.77 239.247 221.866 240.138 222.95C241.92 225.13 242.846 227.243 243.328 228.714C243.802 230.198 243.879 231.058 243.796 231.078Z" fill="black"/>
</g>
<path d="M195.082 218.443C188.469 232.476 171.707 238.48 157.642 231.854C156.118 231.135 154.687 230.298 153.357 229.358C142.415 221.627 138.251 206.956 144.147 194.443C150.758 180.409 167.52 174.405 181.586 181.033C195.651 187.66 201.693 204.409 195.082 218.443Z" fill="#F766A1"/>
<path d="M189.598 216.18C184.56 226.874 171.786 231.45 161.067 226.399C150.349 221.349 145.744 208.585 150.782 197.891C155.821 187.196 168.595 182.621 179.313 187.671C190.032 192.722 194.636 205.486 189.598 216.18Z" fill="#F766A1"/>
<path d="M189.021 215.587C189.015 215.584 189.052 215.472 189.133 215.256C189.223 215.022 189.344 214.707 189.499 214.306C189.582 214.095 189.673 213.863 189.774 213.608C189.863 213.347 189.935 213.054 190.028 212.74C190.208 212.112 190.436 211.392 190.557 210.55C190.914 208.894 191.04 206.797 190.811 204.407C190.568 202.021 189.873 199.321 188.461 196.646C187.048 193.989 184.952 191.308 182.044 189.258C179.149 187.236 175.549 185.659 171.559 185.347C170.568 185.217 169.558 185.259 168.538 185.266C168.029 185.292 167.52 185.367 167.006 185.415C166.491 185.45 165.982 185.554 165.472 185.666C164.439 185.833 163.441 186.179 162.423 186.487C161.44 186.896 160.432 187.273 159.493 187.82C157.602 188.864 155.774 190.156 154.256 191.807C152.721 193.436 151.419 195.322 150.411 197.39C149.458 199.485 148.831 201.69 148.551 203.911C148.243 206.134 148.412 208.366 148.81 210.49C148.986 211.563 149.337 212.582 149.646 213.6C150.058 214.581 150.426 215.572 150.955 216.475C151.409 217.417 152.034 218.247 152.599 219.094C153.243 219.886 153.855 220.692 154.586 221.373C157.367 224.252 160.875 226.024 164.278 226.969C167.711 227.906 171.113 227.816 174.06 227.213C177.023 226.598 179.547 225.416 181.541 224.083C183.53 222.739 185.065 221.307 186.115 219.977C186.687 219.347 187.097 218.714 187.466 218.175C187.649 217.904 187.829 217.661 187.974 217.426C188.106 217.187 188.227 216.968 188.337 216.771C188.548 216.396 188.713 216.102 188.836 215.883C188.952 215.685 189.015 215.584 189.021 215.587C189.028 215.591 188.98 215.698 188.879 215.904C188.765 216.129 188.612 216.43 188.417 216.815C188.313 217.017 188.198 217.24 188.071 217.485C187.932 217.724 187.757 217.973 187.579 218.249C187.22 218.799 186.818 219.445 186.252 220.089C185.214 221.446 183.682 222.912 181.682 224.292C179.678 225.661 177.131 226.88 174.128 227.524C171.14 228.156 167.682 228.267 164.184 227.33C160.718 226.384 157.139 224.592 154.293 221.665C153.546 220.972 152.92 220.152 152.261 219.346C151.682 218.484 151.043 217.638 150.578 216.678C150.037 215.758 149.657 214.748 149.237 213.748C148.918 212.709 148.559 211.67 148.378 210.575C147.968 208.408 147.794 206.128 148.106 203.858C148.39 201.589 149.029 199.337 150.004 197.198C151.033 195.086 152.363 193.16 153.932 191.497C155.484 189.812 157.351 188.494 159.283 187.432C160.242 186.874 161.272 186.49 162.276 186.075C163.315 185.762 164.335 185.412 165.389 185.243C165.909 185.131 166.428 185.026 166.954 184.991C167.478 184.942 167.998 184.869 168.517 184.842C169.558 184.837 170.589 184.798 171.599 184.933C175.666 185.264 179.326 186.882 182.262 188.953C185.212 191.054 187.328 193.791 188.743 196.497C190.158 199.222 190.84 201.963 191.061 204.381C191.27 206.801 191.115 208.917 190.729 210.582C190.594 211.428 190.351 212.149 190.156 212.777C190.056 213.09 189.976 213.384 189.881 213.643C189.772 213.897 189.674 214.128 189.584 214.337C189.412 214.732 189.276 215.043 189.176 215.273C189.08 215.485 189.028 215.591 189.021 215.587Z" fill="#263238"/>
<g opacity="0.3">
<path d="M188.774 215.719C188.656 215.668 188.976 214.778 189.366 213.146C189.746 211.519 190.171 209.107 189.952 206.152C189.841 204.68 189.572 203.08 189.069 201.426C188.554 199.78 187.824 198.075 186.797 196.44C186.287 195.621 185.714 194.812 185.059 194.046C184.408 193.277 183.7 192.528 182.908 191.843C182.119 191.158 181.278 190.503 180.363 189.929C179.45 189.354 178.482 188.838 177.468 188.39C176.447 187.956 175.407 187.604 174.364 187.33C173.319 187.055 172.265 186.89 171.225 186.783C170.183 186.674 169.151 186.67 168.145 186.722C167.138 186.767 166.156 186.904 165.209 187.092C163.312 187.461 161.568 188.095 160.014 188.845C158.464 189.609 157.111 190.507 155.959 191.433C153.653 193.295 152.184 195.253 151.256 196.642C150.332 198.044 149.9 198.886 149.782 198.833C149.694 198.797 149.927 197.867 150.71 196.321C151.495 194.791 152.88 192.633 155.218 190.55C156.385 189.514 157.782 188.503 159.406 187.635C161.035 186.781 162.882 186.052 164.91 185.613C165.922 185.391 166.974 185.225 168.058 185.159C169.14 185.087 170.253 185.078 171.376 185.184C172.5 185.286 173.639 185.459 174.768 185.749C175.897 186.037 177.02 186.416 178.12 186.884C179.215 187.366 180.258 187.926 181.239 188.552C182.224 189.176 183.128 189.89 183.971 190.639C184.817 191.385 185.571 192.202 186.258 193.041C186.95 193.877 187.55 194.757 188.08 195.647C189.146 197.425 189.878 199.271 190.368 201.042C190.845 202.82 191.062 204.53 191.104 206.09C191.182 209.219 190.554 211.705 189.975 213.325C189.381 214.951 188.861 215.758 188.774 215.719Z" fill="black"/>
</g>
<g clip-path="url(#clip1_321_8220)">
<path d="M218.068 225.351L228.955 221.444L228.647 224.012L225.098 225.286C225.847 225.73 226.505 226.33 227.022 227.053L230.517 225.799L230.209 228.367L228.032 229.149C228.384 230.554 228.251 232.038 227.654 233.358C227.057 234.679 226.032 235.759 224.744 236.424L224.76 236.467L223.998 236.741L233.264 242.018L230.542 242.994L221.276 237.717L220.495 235.54L223.216 234.563C225.132 233.876 226.214 231.89 225.811 229.945L219.323 232.273L219.63 229.705L224.704 227.885C223.633 226.819 222.006 226.395 220.482 226.942L217.761 227.919L218.068 225.351Z" fill="#E0E0E0"/>
</g>
<path d="M309.492 325.549H201.465C198.447 325.549 196 323.102 196 320.084V246.465C196 243.447 198.447 241 201.465 241H309.492C312.51 241 314.957 243.447 314.957 246.465V320.084C314.957 323.102 312.51 325.549 309.492 325.549Z" fill="#AC768C"/>
<path d="M313.347 296.613H282.555C277.445 296.613 273.303 292.47 273.303 287.36V285.845C273.303 280.735 277.445 276.593 282.555 276.593H313.347C318.456 276.593 322.598 280.735 322.598 285.845V287.36C322.598 292.47 318.456 296.613 313.347 296.613Z" fill="#BA8B9E"/>
<path d="M313.347 296.96H282.556C277.263 296.96 272.957 292.654 272.957 287.36V285.846C272.957 280.552 277.263 276.246 282.556 276.246H313.347C318.639 276.246 322.945 280.552 322.945 285.846V287.36C322.945 292.654 318.639 296.96 313.347 296.96ZM282.556 276.94C277.646 276.94 273.651 280.935 273.651 285.846V287.36C273.651 292.271 277.646 296.266 282.556 296.266H313.347C318.256 296.266 322.251 292.271 322.251 287.36V285.846C322.251 280.935 318.256 276.94 313.347 276.94H282.556Z" fill="#BA8B9E"/>
<path d="M288.728 291.003C290.988 287.79 290.215 283.353 287.002 281.093C283.789 278.833 279.352 279.605 277.092 282.819C274.832 286.032 275.605 290.469 278.818 292.729C282.031 294.989 286.468 294.217 288.728 291.003Z" fill="#AC768C"/>
<path d="M216.283 68.0127H232.476L230.856 71.2514H225.578C226.355 72.1906 226.938 73.2917 227.278 74.49H232.476L230.856 77.7287H227.618C227.417 79.7476 226.54 81.6395 225.13 83.0974C223.719 84.5554 221.857 85.4938 219.846 85.7606V85.8254H218.712L228.428 97.1607H224.38L214.664 85.8254V82.5867H218.712C221.562 82.5867 223.926 80.4816 224.315 77.7287H214.664L216.283 74.49H223.829C222.922 72.5792 220.979 71.2514 218.712 71.2514H214.664L216.283 68.0127Z" fill="#B2B2B2"/>
<path d="M106.407 225.55H117.973L116.816 227.863H113.046C113.601 228.534 114.017 229.321 114.26 230.176H117.973L116.816 232.49H114.503C114.36 233.932 113.733 235.283 112.726 236.325C111.718 237.366 110.388 238.036 108.951 238.227V238.273H108.142L115.081 246.37H112.19L105.25 238.273V235.96H108.142C110.177 235.96 111.866 234.456 112.143 232.49H105.25L106.407 230.176H111.797C111.149 228.812 109.761 227.863 108.142 227.863H105.25L106.407 225.55Z" fill="#E0E0E0"/>
<g clip-path="url(#clip2_321_8220)">
<path d="M170.164 195.451L180.359 200.914L178.247 202.406L174.923 200.625C175.096 201.479 175.091 202.369 174.901 203.238L178.174 204.992L176.062 206.485L174.023 205.392C173.215 206.595 172.025 207.491 170.645 207.932C169.265 208.374 167.776 208.337 166.42 207.826L166.398 207.867L165.684 207.485L167.977 217.899L165.428 216.534L163.136 206.119L164.228 204.08L166.777 205.446C168.571 206.407 170.77 205.88 171.943 204.277L165.867 201.021L167.979 199.529L172.73 202.074C172.803 200.566 172.028 199.074 170.601 198.309L168.052 196.943L170.164 195.451Z" fill="#E0E0E0"/>
</g>
</g>
<defs>
<filter id="filter0_d_321_8220" x="1" y="50" width="356" height="312" filterUnits="userSpaceOnUse" color-interpolation-filters="sRGB">
<feFlood flood-opacity="0" result="BackgroundImageFix"/>
<feColorMatrix in="SourceAlpha" type="matrix" values="0 0 0 0 0 0 0 0 0 0 0 0 0 0 0 0 0 0 127 0" result="hardAlpha"/>
<feOffset dy="3"/>
<feGaussianBlur stdDeviation="6"/>
<feComposite in2="hardAlpha" operator="out"/>
<feColorMatrix type="matrix" values="0 0 0 0 0.698039 0 0 0 0 0.698039 0 0 0 0 0.698039 0 0 0 0.5 0"/>
<feBlend mode="normal" in2="BackgroundImageFix" result="effect1_dropShadow_321_8220"/>
<feBlend mode="normal" in="SourceGraphic" in2="effect1_dropShadow_321_8220" result="shape"/>
</filter>
<clipPath id="clip0_321_8220">
<rect width="356" height="347" fill="white"/>
</clipPath>
<clipPath id="clip1_321_8220">
<rect width="27.7585" height="27.7598" fill="white" transform="matrix(0.941243 -0.337729 0.337692 0.941257 208.187 225.209)"/>
</clipPath>
<clipPath id="clip2_321_8220">
<rect width="27.7587" height="27.7596" fill="white" transform="matrix(0.881418 0.472338 -0.472292 0.881442 163.647 188.021)"/>
</clipPath>
</defs>
</svg>
