<svg width="433" height="523" viewBox="0 0 433 523" fill="none" xmlns="http://www.w3.org/2000/svg">
<ellipse cx="231" cy="250.5" rx="195" ry="243.5" fill="white"/>
<ellipse cx="248.5" cy="252.5" rx="184.5" ry="230.5" fill="#FFD8B3"/>
<g filter="url(#filter0_d_293_5108)">
<circle cx="152" cy="48" r="35" fill="#C1F1B9"/>
<rect width="40.7273" height="40.7273" transform="translate(131.636 27)" fill="#C1F1B9"/>
<path d="M149.029 34.2117C149.367 34.2117 149.691 34.3458 149.929 34.5845C150.168 34.8232 150.302 35.1469 150.302 35.4845V49.0602H163.878C164.186 49.0602 164.483 49.1716 164.714 49.3738C164.946 49.5759 165.097 49.8552 165.139 50.1599L165.151 50.333C165.151 58.7669 158.312 64.7572 149.878 64.7572C145.827 64.7572 141.943 63.1481 139.079 60.2839C136.214 57.4197 134.605 53.535 134.605 49.4845C134.605 41.0505 140.596 34.2117 149.029 34.2117ZM147.757 36.82L147.402 36.8607C141.14 37.6583 137.151 43.0071 137.151 49.4845C137.151 52.8599 138.492 56.0972 140.878 58.484C143.265 60.8708 146.502 62.2117 149.878 62.2117C156.355 62.2117 161.702 58.2205 162.503 51.9603L162.541 51.6057H149.029C148.722 51.6057 148.425 51.4943 148.193 51.2921C147.961 51.09 147.81 50.8107 147.769 50.506L147.757 50.333V36.82ZM154.12 29.9693C158.171 29.9693 162.056 31.5784 164.92 34.4426C167.784 37.3068 169.393 41.1915 169.393 45.242C169.393 45.5796 169.259 45.9033 169.02 46.142C168.782 46.3807 168.458 46.5148 168.12 46.5148H154.12C153.783 46.5148 153.459 46.3807 153.22 46.142C152.982 45.9033 152.848 45.5796 152.848 45.242V31.242C152.848 30.9045 152.982 30.5808 153.22 30.3421C153.459 30.1034 153.783 29.9693 154.12 29.9693ZM155.393 32.5776V43.9693H166.783L166.744 43.6146C166.383 40.8245 165.109 38.2323 163.12 36.2429C161.13 34.2535 158.538 32.979 155.748 32.6183L155.393 32.5776Z" fill="#0F3F07"/>
</g>
<g filter="url(#filter1_d_293_5108)">
<circle cx="59" cy="345" r="45" fill="#FFF4B6"/>
<rect width="59.5636" height="59.5636" transform="translate(29.75 315.75)" fill="#FFF4B6"/>
<path fill-rule="evenodd" clip-rule="evenodd" d="M56.7399 345.532C55.1979 345.532 53.9478 346.782 53.9478 348.324C53.9478 349.866 55.1979 351.116 56.7399 351.116C58.2819 351.116 59.5319 349.866 59.5319 348.324C59.5319 346.782 58.2819 345.532 56.7399 345.532ZM50.2251 348.324C50.2251 344.726 53.1419 341.809 56.7399 341.809C60.3379 341.809 63.2546 344.726 63.2546 348.324C63.2546 351.922 60.3379 354.839 56.7399 354.839C53.1419 354.839 50.2251 351.922 50.2251 348.324Z" fill="#4D4204"/>
<path fill-rule="evenodd" clip-rule="evenodd" d="M54.7752 350.288C55.5021 351.015 55.5021 352.194 54.7752 352.921L38.5115 369.184C37.7846 369.911 36.6061 369.911 35.8792 369.184C35.1523 368.457 35.1523 367.279 35.8792 366.552L52.1428 350.288C52.8697 349.561 54.0483 349.561 54.7752 350.288Z" fill="#4D4204"/>
<path fill-rule="evenodd" clip-rule="evenodd" d="M57.0165 327.037C57.7 326.78 58.4703 326.947 58.9866 327.463L77.6002 346.077C78.1164 346.593 78.2832 347.364 78.0267 348.047L72.8181 361.929C72.595 362.539 72.2151 363.08 71.7166 363.497C71.2148 363.916 70.6108 364.195 69.966 364.305L69.9583 364.306L37.5007 369.704C36.9079 369.803 36.304 369.609 35.8791 369.184C35.4542 368.759 35.2606 368.155 35.3593 367.563L40.7587 335.119C40.8688 334.478 41.1442 333.876 41.5578 333.373C41.9714 332.87 42.5089 332.484 43.1173 332.252L43.126 332.249L57.0165 327.037ZM44.4417 335.731C44.4414 335.731 44.442 335.731 44.4417 335.731C44.4383 335.733 44.4352 335.735 44.4329 335.738C44.4305 335.741 44.4288 335.744 44.4281 335.748C44.428 335.748 44.4281 335.747 44.4281 335.748L39.459 365.605L69.3265 360.638L69.3293 360.63L74.1201 347.862L57.2019 330.943L44.4417 335.731Z" fill="#4D4204"/>
<path fill-rule="evenodd" clip-rule="evenodd" d="M63.6781 320.533C64.1335 320.342 64.6222 320.244 65.1159 320.244C65.6096 320.244 66.0983 320.342 66.5537 320.533C67.0065 320.722 67.4173 320.999 67.7625 321.348L83.7152 337.301C84.0642 337.646 84.3415 338.057 84.5311 338.51C84.7218 338.965 84.82 339.454 84.82 339.948C84.82 340.441 84.7218 340.93 84.5311 341.386C84.3415 341.838 84.0642 342.249 83.7152 342.594L77.6003 348.709C76.8734 349.436 75.6948 349.436 74.9679 348.709C74.241 347.982 74.241 346.804 74.9679 346.077L81.0972 339.948L81.0871 339.938L65.1159 323.966L65.1059 323.977L58.9866 330.096C58.2597 330.823 57.0812 330.823 56.3543 330.096C55.6274 329.369 55.6274 328.19 56.3543 327.463L62.4693 321.348C62.8145 320.999 63.2253 320.722 63.6781 320.533Z" fill="#4D4204"/>
</g>
<g filter="url(#filter2_d_293_5108)">
<circle cx="54.8571" cy="179.857" r="42.8571" fill="#77DAE0"/>
<path fill-rule="evenodd" clip-rule="evenodd" d="M38.4284 160.103C39.0519 159.48 39.8975 159.13 40.7793 159.13H60.7273C61.1682 159.13 61.591 159.305 61.9028 159.616L73.5391 171.253C73.8509 171.565 74.026 171.987 74.026 172.428V199.026C74.026 199.907 73.6758 200.753 73.0522 201.377C72.4287 202 71.5831 202.35 70.7013 202.35H40.7793C39.8975 202.35 39.0519 202 38.4284 201.377C37.8049 200.753 37.4546 199.907 37.4546 199.026V162.454C37.4546 161.572 37.8049 160.727 38.4284 160.103ZM60.0388 162.454L40.7793 162.454L40.7793 199.026H70.7013V173.117L60.0388 162.454Z" fill="#093A3D"/>
<path fill-rule="evenodd" clip-rule="evenodd" d="M60.7273 159.13C61.6454 159.13 62.3896 159.874 62.3896 160.792V170.766H72.3636C73.2817 170.766 74.026 171.51 74.026 172.428C74.026 173.346 73.2817 174.091 72.3636 174.091H60.7273C59.8092 174.091 59.0649 173.346 59.0649 172.428V160.792C59.0649 159.874 59.8092 159.13 60.7273 159.13Z" fill="#093A3D"/>
<path fill-rule="evenodd" clip-rule="evenodd" d="M47.4285 182.402C47.4285 181.484 48.1727 180.74 49.0908 180.74H62.3895C63.3076 180.74 64.0518 181.484 64.0518 182.402C64.0518 183.32 63.3076 184.065 62.3895 184.065H49.0908C48.1727 184.065 47.4285 183.32 47.4285 182.402Z" fill="#093A3D"/>
<path fill-rule="evenodd" clip-rule="evenodd" d="M47.4285 189.052C47.4285 188.134 48.1727 187.389 49.0908 187.389H62.3895C63.3076 187.389 64.0518 188.134 64.0518 189.052C64.0518 189.97 63.3076 190.714 62.3895 190.714H49.0908C48.1727 190.714 47.4285 189.97 47.4285 189.052Z" fill="#093A3D"/>
</g>
<g filter="url(#filter3_d_293_5108)">
<circle cx="157" cy="472" r="40" fill="#BBECEF"/>
<path d="M157.473 452.618C154.671 452.618 152.178 454.383 151.252 457.03H137.618V461.442H141.92L135.412 476.885C134.375 481.297 137.618 483.503 143.133 483.503C148.648 483.503 152.09 481.297 150.855 476.885L144.347 461.442H151.23C151.958 463.318 153.391 464.751 155.267 465.479V490.121H135.412V494.533H179.533V490.121H159.679V465.457C161.554 464.751 162.988 463.318 163.694 461.442H170.599L164.091 476.885C163.054 481.297 166.297 483.503 171.812 483.503C177.327 483.503 180.769 481.297 179.533 476.885L173.025 461.442H177.327V457.03H163.716C162.767 454.383 160.274 452.618 157.473 452.618ZM157.473 457.03C158.058 457.03 158.619 457.263 159.033 457.676C159.446 458.09 159.679 458.651 159.679 459.236C159.679 459.821 159.446 460.383 159.033 460.796C158.619 461.21 158.058 461.442 157.473 461.442C156.888 461.442 156.326 461.21 155.913 460.796C155.499 460.383 155.267 459.821 155.267 459.236C155.267 458.651 155.499 458.09 155.913 457.676C156.326 457.263 156.888 457.03 157.473 457.03ZM143.133 468.612L146.442 476.885H139.824L143.133 468.612ZM171.812 468.612L175.121 476.885H168.503L171.812 468.612Z" fill="#093A3D"/>
</g>
<g filter="url(#filter4_d_293_5108)">
<circle cx="318" cy="464" r="30" fill="#EFF4FE"/>
<path fill-rule="evenodd" clip-rule="evenodd" d="M308.652 452.782C309.002 452.431 309.478 452.234 309.974 452.234H321.195C321.443 452.234 321.681 452.332 321.856 452.508L328.401 459.053C328.577 459.228 328.675 459.466 328.675 459.714V474.675C328.675 475.171 328.478 475.647 328.127 475.998C327.777 476.348 327.301 476.545 326.805 476.545H309.974C309.478 476.545 309.002 476.348 308.652 475.998C308.301 475.647 308.104 475.171 308.104 474.675V454.104C308.104 453.608 308.301 453.132 308.652 452.782ZM320.807 454.104L309.974 454.104L309.974 474.675H326.805V460.102L320.807 454.104Z" fill="#284BC8"/>
<path fill-rule="evenodd" clip-rule="evenodd" d="M321.195 452.234C321.711 452.234 322.13 452.652 322.13 453.169V458.779H327.74C328.256 458.779 328.675 459.198 328.675 459.714C328.675 460.231 328.256 460.649 327.74 460.649H321.195C320.678 460.649 320.26 460.231 320.26 459.714V453.169C320.26 452.652 320.678 452.234 321.195 452.234Z" fill="#284BC8"/>
<path fill-rule="evenodd" clip-rule="evenodd" d="M313.714 465.325C313.714 464.808 314.133 464.39 314.649 464.39H322.13C322.646 464.39 323.065 464.808 323.065 465.325C323.065 465.841 322.646 466.26 322.13 466.26H314.649C314.133 466.26 313.714 465.841 313.714 465.325Z" fill="#284BC8"/>
<path fill-rule="evenodd" clip-rule="evenodd" d="M313.714 469.065C313.714 468.549 314.133 468.13 314.649 468.13H322.13C322.646 468.13 323.065 468.549 323.065 469.065C323.065 469.581 322.646 470 322.13 470H314.649C314.133 470 313.714 469.581 313.714 469.065Z" fill="#284BC8"/>
</g>
<g clip-path="url(#clip0_293_5108)">
<path d="M197.759 337.196H164.189C163.343 337.196 162.654 336.507 162.654 335.66C162.654 334.812 163.343 334.123 164.189 334.123H197.759C198.606 334.123 199.294 334.812 199.294 335.66C199.294 336.507 198.606 337.196 197.759 337.196Z" fill="#6C63FF"/>
<path d="M137.805 345.423C137.805 345.699 138.026 345.92 138.302 345.92H223.647C223.922 345.92 224.144 345.699 224.144 345.423C224.144 345.147 223.922 344.925 223.647 344.925H138.302C138.026 344.925 137.805 345.147 137.805 345.423Z" fill="#3F3D56"/>
<path d="M317.868 245.135C332.865 245.135 345.023 232.963 345.023 217.947C345.023 202.932 332.865 190.76 317.868 190.76C302.871 190.76 290.714 202.932 290.714 217.947C290.714 232.963 302.871 245.135 317.868 245.135Z" fill="#FF6884"/>
<path d="M115 379.778C115 380.054 115.221 380.276 115.497 380.276H333.69C333.966 380.276 334.187 380.054 334.187 379.778C334.187 379.502 333.966 379.28 333.69 379.28H115.497C115.221 379.28 115 379.502 115 379.778Z" fill="#3F3D56"/>
<path d="M118.156 346.165L117.458 345.399L185.58 283.162L210.123 294.178L236.626 248.673L258.401 238.164L278.576 271.83C289.468 243.597 316.784 214.059 349.516 184.091L350.321 184.744C319.622 214.171 293.356 243.731 278.449 273.634L259.788 242.403C258.907 240.928 257.054 240.358 255.497 241.083C243.595 246.628 233.667 255.679 227.041 267.026L210.44 295.456L206.65 293.755C193.976 288.067 179.139 290.451 168.879 299.824L118.156 346.165Z" fill="#3F3D56"/>
<path d="M351.052 189.757L350.018 189.829L348.349 186.208L344.612 185.448L344.467 184.42L350.626 183.544L351.052 189.757Z" fill="#3F3D56"/>
<path d="M244.792 211.914L248.454 197.82L262.719 197.133L266.988 216.562L244.792 211.914Z" fill="#FFB6B6"/>
<path opacity="0.1" d="M244.792 211.914L248.454 197.82L262.719 197.133L266.988 216.562L244.792 211.914Z" fill="black"/>
<path d="M254.179 205.707C263.689 205.707 271.398 197.989 271.398 188.468C271.398 178.947 263.689 171.229 254.179 171.229C244.669 171.229 236.96 178.947 236.96 188.468C236.96 197.989 244.669 205.707 254.179 205.707Z" fill="#FFB6B6"/>
<path d="M263.679 192.117C263.679 192.117 257.138 179.142 249.474 179.891C241.81 180.64 237.773 181.551 237.773 181.551C237.773 181.551 235.498 171.445 246.208 167.558C246.208 167.558 232.59 154.117 248.804 147.524C265.018 140.931 274.09 149.339 274.09 149.339C274.09 149.339 286.092 161.335 270.976 170.301C270.976 170.301 282.2 185.417 268.611 197.875C268.611 197.875 271.651 187.793 268.479 189.653C265.308 191.512 263.679 192.117 263.679 192.117Z" fill="#2F2E41"/>
<path d="M235.181 283.201L232.891 285.399L216.344 320.92L214.533 379.675H242.333L255.374 350.579L264.161 379.395H289.157L294.952 327.086L279.375 290.092L235.181 283.201Z" fill="#2F2E41"/>
<path d="M263.98 210.482H245.414L225.219 221.363L229.929 242.399C229.929 242.399 228.842 255.093 231.378 264.523C233.913 273.952 232.827 286.284 232.827 286.284L279.375 290.092L280.824 247.295L280.1 218.643L263.98 210.482Z" fill="#E6E6E6"/>
<path d="M228.299 221.544C228.299 221.544 217.069 221.907 215.258 229.16C213.447 236.414 211.998 273.771 211.998 273.771C211.998 273.771 213.084 295.937 225.22 285.398C237.355 274.859 236.268 242.942 236.268 242.942L228.299 221.544Z" fill="#E6E6E6"/>
<path d="M337.219 406.581H271.042C268.801 406.581 266.977 404.756 266.977 402.512V334.017C266.977 331.773 268.801 329.947 271.042 329.947H337.219C339.461 329.947 341.284 331.773 341.284 334.017V402.512C341.284 404.756 339.461 406.581 337.219 406.581Z" fill="white"/>
<path d="M337.219 407H271.042C268.57 407 266.559 404.987 266.559 402.512V334.017C266.559 331.543 268.57 329.529 271.042 329.529H337.219C339.691 329.529 341.702 331.543 341.702 334.017V402.512C341.702 404.987 339.691 407 337.219 407ZM271.042 330.366C269.031 330.366 267.395 332.004 267.395 334.017V402.512C267.395 404.526 269.031 406.163 271.042 406.163H337.219C339.23 406.163 340.866 404.526 340.866 402.512V334.017C340.866 332.004 339.23 330.366 337.219 330.366H271.042Z" fill="#3F3D56"/>
<path d="M306.742 388.588H301.288C300.624 388.588 300.083 388.17 300.083 387.657V364.146C300.083 363.632 300.624 363.215 301.288 363.215H306.742C307.406 363.215 307.946 363.632 307.946 364.146V387.657C307.946 388.17 307.406 388.588 306.742 388.588Z" fill="#6C63FF"/>
<path d="M288.71 374.732C288.173 374.732 287.737 375.07 287.737 375.484V387.631C287.737 388.046 288.173 388.383 288.71 388.383H294.164C294.7 388.383 295.137 388.046 295.137 387.631V375.484C295.137 375.07 294.7 374.732 294.164 374.732H288.71Z" fill="#6C63FF"/>
<path d="M319.32 388.588H313.866C313.202 388.588 312.662 388.17 312.662 387.657V349.126C312.662 348.613 313.202 348.195 313.866 348.195H319.32C319.984 348.195 320.525 348.613 320.525 349.126V387.657C320.525 388.17 319.984 388.588 319.32 388.588Z" fill="#6C63FF"/>
<path d="M201.947 219.69H195.716C194.958 219.69 194.341 219.213 194.341 218.627V191.77C194.341 191.184 194.958 190.707 195.716 190.707H201.947C202.705 190.707 203.322 191.184 203.322 191.77V218.627C203.322 219.213 202.705 219.69 201.947 219.69Z" fill="#6C63FF"/>
<path d="M181.348 203.863C180.735 203.863 180.237 204.249 180.237 204.722V218.597C180.237 219.071 180.735 219.456 181.348 219.456H187.579C188.192 219.456 188.69 219.071 188.69 218.597V204.722C188.69 204.249 188.192 203.863 187.579 203.863H181.348Z" fill="#6C63FF"/>
<path d="M216.315 219.691H210.084C209.326 219.691 208.708 219.214 208.708 218.628V174.614C208.708 174.028 209.326 173.551 210.084 173.551H216.315C217.073 173.551 217.69 174.028 217.69 174.614V218.628C217.69 219.214 217.073 219.691 216.315 219.691Z" fill="#6C63FF"/>
<path d="M293.985 339.913C297.212 339.604 299.434 335.238 298.949 330.159C298.783 328.128 298.133 326.166 297.054 324.437L296.432 318.689L296.528 318.661L298.091 291.407C298.454 285.07 295.949 278.844 291.122 274.729C288.251 272.281 285.188 271.042 283.218 274.135C279.949 279.267 284.183 300.421 286.963 312.449L288.041 325.301C287.309 327.204 287.042 329.254 287.264 331.281C287.749 336.358 290.758 340.223 293.985 339.913Z" fill="#FFB6B6"/>
<path d="M276.115 219.368C276.115 219.368 285.534 215.741 289.881 226.622C294.228 237.502 298.937 291.18 298.937 291.18L276.84 287.19L276.115 219.368Z" fill="#E6E6E6"/>
<path d="M146.788 214.046H134.106C133.26 214.046 132.571 213.356 132.571 212.509C132.571 211.662 133.26 210.973 134.106 210.973H146.788C147.635 210.973 148.323 211.662 148.323 212.509C148.323 213.356 147.635 214.046 146.788 214.046Z" fill="#E6E6E6"/>
<path d="M146.788 192.263H134.106C133.26 192.263 132.571 191.573 132.571 190.726C132.571 189.879 133.26 189.189 134.106 189.189H146.788C147.635 189.189 148.323 189.879 148.323 190.726C148.323 191.573 147.635 192.263 146.788 192.263Z" fill="#E6E6E6"/>
<path d="M146.788 176.554H134.106C133.26 176.554 132.571 175.864 132.571 175.017C132.571 174.17 133.26 173.48 134.106 173.48H146.788C147.635 173.48 148.323 174.17 148.323 175.017C148.323 175.864 147.635 176.554 146.788 176.554Z" fill="#E6E6E6"/>
<path d="M132.062 219.766C132.062 220.042 132.284 220.264 132.56 220.264H217.904C218.18 220.264 218.402 220.042 218.402 219.766C218.402 219.49 218.18 219.269 217.904 219.269H132.56C132.284 219.269 132.062 219.49 132.062 219.766Z" fill="#3F3D56"/>
<path d="M296.661 348.593C296.661 348.87 296.882 349.091 297.158 349.091H382.503C382.778 349.091 383 348.87 383 348.593C383 348.317 382.778 348.096 382.503 348.096H297.158C296.882 348.096 296.661 348.317 296.661 348.593Z" fill="#3F3D56"/>
<path d="M271.595 389.166C271.595 389.442 271.817 389.664 272.092 389.664H357.437C357.713 389.664 357.934 389.442 357.934 389.166C357.934 388.89 357.713 388.668 357.437 388.668H272.092C271.817 388.668 271.595 388.89 271.595 389.166Z" fill="#3F3D56"/>
<path d="M214.205 217.251C210.978 217.56 208.756 221.926 209.241 227.005C209.407 229.036 210.057 230.998 211.136 232.727L211.758 238.475L211.662 238.503L210.099 265.757C209.736 272.094 212.241 278.32 217.068 282.435C219.939 284.883 223.002 286.122 224.972 283.029C228.241 277.897 224.007 256.743 221.227 244.715L220.149 231.863C220.881 229.96 221.148 227.91 220.926 225.883C220.441 220.806 217.432 216.941 214.205 217.251Z" fill="#FFB6B6"/>
</g>
<defs>
<filter id="filter0_d_293_5108" x="105" y="0" width="94" height="94" filterUnits="userSpaceOnUse" color-interpolation-filters="sRGB">
<feFlood flood-opacity="0" result="BackgroundImageFix"/>
<feColorMatrix in="SourceAlpha" type="matrix" values="0 0 0 0 0 0 0 0 0 0 0 0 0 0 0 0 0 0 127 0" result="hardAlpha"/>
<feOffset dy="-1"/>
<feGaussianBlur stdDeviation="6"/>
<feComposite in2="hardAlpha" operator="out"/>
<feColorMatrix type="matrix" values="0 0 0 0 0.698039 0 0 0 0 0.698039 0 0 0 0 0.698039 0 0 0 0.5 0"/>
<feBlend mode="normal" in2="BackgroundImageFix" result="effect1_dropShadow_293_5108"/>
<feBlend mode="normal" in="SourceGraphic" in2="effect1_dropShadow_293_5108" result="shape"/>
</filter>
<filter id="filter1_d_293_5108" x="2" y="287" width="114" height="114" filterUnits="userSpaceOnUse" color-interpolation-filters="sRGB">
<feFlood flood-opacity="0" result="BackgroundImageFix"/>
<feColorMatrix in="SourceAlpha" type="matrix" values="0 0 0 0 0 0 0 0 0 0 0 0 0 0 0 0 0 0 127 0" result="hardAlpha"/>
<feOffset dy="-1"/>
<feGaussianBlur stdDeviation="6"/>
<feComposite in2="hardAlpha" operator="out"/>
<feColorMatrix type="matrix" values="0 0 0 0 0.698039 0 0 0 0 0.698039 0 0 0 0 0.698039 0 0 0 0.5 0"/>
<feBlend mode="normal" in2="BackgroundImageFix" result="effect1_dropShadow_293_5108"/>
<feBlend mode="normal" in="SourceGraphic" in2="effect1_dropShadow_293_5108" result="shape"/>
</filter>
<filter id="filter2_d_293_5108" x="0" y="124" width="114" height="110" filterUnits="userSpaceOnUse" color-interpolation-filters="sRGB">
<feFlood flood-opacity="0" result="BackgroundImageFix"/>
<feColorMatrix in="SourceAlpha" type="matrix" values="0 0 0 0 0 0 0 0 0 0 0 0 0 0 0 0 0 0 127 0" result="hardAlpha"/>
<feOffset dy="-1"/>
<feGaussianBlur stdDeviation="6"/>
<feComposite in2="hardAlpha" operator="out"/>
<feColorMatrix type="matrix" values="0 0 0 0 0.698039 0 0 0 0 0.698039 0 0 0 0 0.698039 0 0 0 0.5 0"/>
<feBlend mode="normal" in2="BackgroundImageFix" result="effect1_dropShadow_293_5108"/>
<feBlend mode="normal" in="SourceGraphic" in2="effect1_dropShadow_293_5108" result="shape"/>
</filter>
<filter id="filter3_d_293_5108" x="105" y="419" width="104" height="104" filterUnits="userSpaceOnUse" color-interpolation-filters="sRGB">
<feFlood flood-opacity="0" result="BackgroundImageFix"/>
<feColorMatrix in="SourceAlpha" type="matrix" values="0 0 0 0 0 0 0 0 0 0 0 0 0 0 0 0 0 0 127 0" result="hardAlpha"/>
<feOffset dy="-1"/>
<feGaussianBlur stdDeviation="6"/>
<feComposite in2="hardAlpha" operator="out"/>
<feColorMatrix type="matrix" values="0 0 0 0 0.698039 0 0 0 0 0.698039 0 0 0 0 0.698039 0 0 0 0.5 0"/>
<feBlend mode="normal" in2="BackgroundImageFix" result="effect1_dropShadow_293_5108"/>
<feBlend mode="normal" in="SourceGraphic" in2="effect1_dropShadow_293_5108" result="shape"/>
</filter>
<filter id="filter4_d_293_5108" x="276" y="421" width="84" height="84" filterUnits="userSpaceOnUse" color-interpolation-filters="sRGB">
<feFlood flood-opacity="0" result="BackgroundImageFix"/>
<feColorMatrix in="SourceAlpha" type="matrix" values="0 0 0 0 0 0 0 0 0 0 0 0 0 0 0 0 0 0 127 0" result="hardAlpha"/>
<feOffset dy="-1"/>
<feGaussianBlur stdDeviation="6"/>
<feComposite in2="hardAlpha" operator="out"/>
<feColorMatrix type="matrix" values="0 0 0 0 0.698039 0 0 0 0 0.698039 0 0 0 0 0.698039 0 0 0 0.5 0"/>
<feBlend mode="normal" in2="BackgroundImageFix" result="effect1_dropShadow_293_5108"/>
<feBlend mode="normal" in="SourceGraphic" in2="effect1_dropShadow_293_5108" result="shape"/>
</filter>
<clipPath id="clip0_293_5108">
<rect width="268" height="262" fill="white" transform="translate(115 145)"/>
</clipPath>
</defs>
</svg>
