<svg width="812" height="367" viewBox="0 0 812 367" fill="none" xmlns="http://www.w3.org/2000/svg">
<path d="M0 158C0 146.954 8.95431 138 20 138H785C796.046 138 805 146.954 805 158V366H0V158Z" fill="#FFD8B3"/>
<g clip-path="url(#clip0_293_5154)">
<path d="M148 18C148 5.84973 157.85 -4 170 -4H420C432.15 -4 442 5.84974 442 18V263H148V18Z" fill="#DBE6FC"/>
<path d="M189.072 306.507L186.951 317.147C186.791 317.961 186.624 318.789 186.442 319.61C184.669 319.242 182.831 319.345 181.11 319.907C182.476 321.858 183.699 323.904 184.771 326.03C183.435 330.148 181.474 333.954 178.19 336.707C175.997 338.504 173.378 339.707 170.585 340.198C167.793 340.689 164.921 340.452 162.246 339.51L162.34 339.089C158.81 332.24 160.728 323.604 165.115 317.278C167.353 314.157 170.004 311.355 172.997 308.947C175.96 306.478 179.164 304.263 182.338 302.077C183.051 301.586 183.894 301.32 184.759 301.311C185.624 301.302 186.472 301.551 187.195 302.027C187.918 302.503 188.483 303.183 188.817 303.981C189.151 304.779 189.24 305.658 189.072 306.507Z" fill="#9E9E9E"/>
<path d="M163.001 365.112C162.108 358.61 161.19 352.024 161.816 345.452C162.373 339.615 164.153 333.914 167.779 329.24C169.704 326.763 172.046 324.641 174.7 322.97C175.392 322.534 176.028 323.63 175.34 324.064C170.748 326.966 167.196 331.25 165.197 336.3C162.989 341.916 162.634 348.038 163.018 354.003C163.248 357.611 163.736 361.194 164.227 364.774C164.267 364.936 164.243 365.107 164.161 365.252C164.078 365.398 163.944 365.506 163.784 365.555C163.622 365.598 163.449 365.576 163.303 365.493C163.157 365.41 163.05 365.273 163.004 365.111L163.001 365.112Z" fill="#F2F2F2"/>
<path d="M170.663 38.9552C201.779 38.4142 232.899 38.3365 264.023 38.722C295.142 39.1099 326.25 39.9631 357.348 41.2817C374.799 42.0216 392.242 42.9081 409.678 43.941C411.079 44.0239 411.074 41.8447 409.678 41.7621C378.611 39.924 347.521 38.5486 316.409 37.6359C285.301 36.7257 254.184 36.2809 223.058 36.3015C205.592 36.3131 188.127 36.4714 170.663 36.7763C169.262 36.8006 169.257 38.9796 170.663 38.9552Z" fill="#686565"/>
<path d="M387.517 25.2928L401.124 24.2802C402.514 24.1768 402.525 21.997 401.124 22.1013L387.517 23.1138C386.127 23.2173 386.116 25.397 387.517 25.2928Z" fill="#686565"/>
<path d="M387.517 38.366L401.124 37.3534C402.514 37.25 402.525 35.0702 401.124 35.1745L387.517 36.1871C386.127 36.2905 386.116 38.4703 387.517 38.366Z" fill="#686565"/>
<path d="M386.493 32.3952L405.838 34.1525C407.235 34.2793 407.226 32.0996 405.838 31.9736L386.493 30.2163C385.097 30.0894 385.106 32.2691 386.493 32.3952Z" fill="#686565"/>
<path d="M178.715 22.3614C177.769 22.3556 176.842 22.6283 176.05 23.1457C175.258 23.663 174.635 24.402 174.26 25.2707C173.841 26.1208 173.711 27.085 173.892 28.0157C174.072 28.9464 174.552 29.7924 175.259 30.4244C175.923 30.9895 176.72 31.377 177.575 31.5507C178.43 31.7243 179.314 31.6784 180.147 31.4173C180.998 31.12 181.736 30.5664 182.259 29.8324C182.783 29.0985 183.066 28.2204 183.069 27.319C183.107 26.3189 182.836 25.3314 182.293 24.4907C181.75 23.6501 180.961 22.9971 180.034 22.6205C179.755 22.5448 179.458 22.5823 179.207 22.7249C178.956 22.8674 178.771 23.1034 178.694 23.3814C178.625 23.6597 178.666 23.9538 178.807 24.2031C178.949 24.4524 179.18 24.638 179.455 24.7216C179.645 24.7949 179.281 24.6282 179.458 24.7248C179.531 24.7645 179.606 24.8004 179.677 24.8428C179.738 24.8789 179.796 24.9183 179.856 24.9569C180.059 25.0897 179.756 24.8595 179.886 24.9788C179.999 25.0823 180.111 25.1833 180.213 25.2975C180.252 25.3406 180.404 25.4607 180.286 25.3768C180.196 25.3126 180.251 25.3277 180.286 25.3792C180.312 25.4183 180.34 25.4564 180.366 25.4957C180.451 25.6243 180.528 25.7578 180.597 25.8955C180.613 25.9273 180.628 25.9599 180.644 25.9917C180.675 26.0511 180.719 26.0666 180.647 25.9922C180.579 25.9211 180.622 25.926 180.647 25.9944C180.663 26.0394 180.681 26.0838 180.696 26.1289C180.747 26.2759 180.79 26.4256 180.825 26.5773C180.841 26.6474 180.854 26.7179 180.867 26.7885C180.916 27.0387 180.86 26.633 180.872 26.8188C180.882 26.974 180.893 27.1275 180.891 27.2833C180.889 27.3546 180.886 27.4258 180.881 27.4969C180.879 27.5324 180.875 27.5677 180.873 27.6032C180.861 27.7742 180.861 27.5407 180.885 27.5248C180.835 27.6699 180.802 27.8202 180.786 27.9729C180.767 28.0406 180.744 28.1069 180.722 28.1739C180.646 28.4076 180.793 28.0465 180.712 28.2062C180.646 28.3435 180.571 28.4768 180.49 28.6055C180.454 28.6594 180.32 28.7811 180.43 28.6964C180.549 28.6045 180.367 28.7628 180.329 28.8036C180.279 28.8559 180.228 28.9064 180.174 28.9551C180.14 28.9885 180.104 29.0198 180.066 29.049C180.059 29.0455 180.248 28.9228 180.146 28.9878C180.017 29.0703 179.894 29.1587 179.758 29.2306C179.742 29.2389 179.568 29.3197 179.568 29.3226C179.561 29.2932 179.793 29.241 179.634 29.2924C179.6 29.3032 179.567 29.3162 179.534 29.3274C179.389 29.3762 179.241 29.4156 179.091 29.4453C179.057 29.4522 179.021 29.4556 178.987 29.4644C178.874 29.4935 179.095 29.4473 179.101 29.4511C179.018 29.4475 178.935 29.4549 178.853 29.473C178.699 29.4819 178.544 29.4819 178.389 29.473C178.353 29.471 178.318 29.4674 178.282 29.4653C178.199 29.4605 178.138 29.4007 178.248 29.4656C178.334 29.5157 178.327 29.4792 178.251 29.4652C178.216 29.4587 178.18 29.4532 178.145 29.4465C177.992 29.4179 177.841 29.3809 177.692 29.3355C177.612 29.3111 177.533 29.2827 177.454 29.2551C177.42 29.2451 177.386 29.2322 177.354 29.2165C177.353 29.2075 177.557 29.3141 177.45 29.256C177.314 29.1826 177.173 29.1212 177.04 29.041C176.969 28.9982 176.901 28.9517 176.832 28.9059C176.802 28.8877 176.773 28.867 176.746 28.8442C176.748 28.835 176.915 28.9894 176.827 28.906C176.716 28.8006 176.598 28.7062 176.493 28.594C176.469 28.5683 176.447 28.5414 176.423 28.5157L176.4 28.4893C176.341 28.4171 176.34 28.4174 176.396 28.4903C176.454 28.5073 176.452 28.5707 176.397 28.4884C176.377 28.459 176.356 28.4306 176.337 28.4012C176.248 28.2751 176.173 28.1404 176.112 27.9991C176.117 27.995 176.206 28.2612 176.138 28.0603C176.125 28.0223 176.111 27.985 176.098 27.9469C176.073 27.8714 176.051 27.7951 176.032 27.718C176.013 27.6415 176.003 27.5627 175.984 27.4866C175.952 27.3582 176.003 27.5878 175.997 27.5821C175.979 27.5641 175.987 27.4528 175.986 27.4262C175.977 27.2553 175.996 27.0893 175.999 26.9194C176.002 26.7878 175.989 27.022 175.986 27.0151C175.986 26.9757 175.993 26.9367 176.006 26.8994C176.026 26.8098 176.045 26.7203 176.069 26.6317C176.096 26.5302 176.128 26.43 176.164 26.331C176.178 26.2939 176.194 26.2574 176.207 26.2201C176.252 26.0833 176.116 26.3853 176.191 26.262C176.295 26.0922 176.372 25.9086 176.482 25.7409C176.508 25.7012 176.667 25.4799 176.583 25.5916C176.499 25.7029 176.669 25.4919 176.701 25.4561C176.834 25.3073 176.992 25.1851 177.13 25.0427C177.212 24.9583 177.073 25.0842 177.065 25.0901C177.108 25.0594 177.149 25.0277 177.193 24.9978C177.269 24.9456 177.346 24.8963 177.425 24.8499C177.515 24.7975 177.616 24.7585 177.702 24.7031C177.805 24.6376 177.624 24.7318 177.621 24.7338C177.668 24.7106 177.717 24.6919 177.767 24.6781C177.851 24.6482 178.218 24.4899 178.295 24.5394C178.292 24.5372 178.017 24.5616 178.239 24.5473C178.292 24.5439 178.344 24.5388 178.397 24.5366C178.503 24.5322 178.609 24.5349 178.716 24.5404C179.004 24.5385 179.28 24.4231 179.484 24.2192C179.688 24.0153 179.803 23.7393 179.805 23.4509C179.799 23.1639 179.682 22.8904 179.479 22.6874C179.276 22.4844 179.003 22.3676 178.715 22.3614Z" fill="#686565"/>
<path d="M193.969 22.3624C193.023 22.3566 192.096 22.6293 191.304 23.1466C190.512 23.664 189.889 24.403 189.514 25.2716C189.095 26.1218 188.965 27.0859 189.146 28.0166C189.326 28.9473 189.806 29.7934 190.513 30.4254C191.177 30.9905 191.974 31.378 192.829 31.5517C193.684 31.7253 194.568 31.6794 195.401 31.4182C196.252 31.121 196.99 30.5673 197.513 29.8334C198.036 29.0995 198.319 28.2213 198.323 27.3199C198.361 26.3199 198.09 25.3324 197.547 24.4917C197.004 23.6511 196.215 22.998 195.288 22.6215C195.009 22.5458 194.712 22.5833 194.461 22.7258C194.21 22.8684 194.025 23.1044 193.948 23.3824C193.879 23.6607 193.919 23.9548 194.061 24.2041C194.203 24.4534 194.434 24.6389 194.709 24.7226C194.898 24.7959 194.535 24.6292 194.712 24.7258C194.785 24.7655 194.86 24.8014 194.931 24.8438C194.992 24.8798 195.05 24.9193 195.109 24.9579C195.313 25.0907 195.01 24.8605 195.14 24.9798C195.253 25.0833 195.365 25.1842 195.467 25.2984C195.506 25.3416 195.658 25.4616 195.54 25.3777C195.449 25.3136 195.505 25.3286 195.54 25.3802C195.566 25.4193 195.594 25.4574 195.62 25.4967C195.705 25.6253 195.782 25.7587 195.851 25.8964C195.867 25.9283 195.882 25.9609 195.898 25.9926C195.929 26.052 195.973 26.0676 195.901 25.9932C195.833 25.9221 195.876 25.9269 195.901 25.9954C195.917 26.0404 195.935 26.0848 195.95 26.1299C196.001 26.2769 196.044 26.4265 196.079 26.5783C196.095 26.6484 196.108 26.7189 196.121 26.7895C196.17 27.0397 196.114 26.6339 196.126 26.8198C196.136 26.975 196.147 27.1285 196.145 27.2843C196.143 27.3555 196.14 27.4267 196.135 27.4979C196.133 27.5333 196.129 27.5687 196.126 27.6042C196.115 27.7751 196.115 27.5417 196.139 27.5257C196.089 27.6709 196.056 27.8212 196.04 27.9739C196.021 28.0416 195.998 28.1079 195.976 28.1749C195.9 28.4086 196.047 28.0474 195.966 28.2072C195.9 28.3444 195.825 28.4777 195.744 28.6065C195.708 28.6604 195.574 28.7821 195.684 28.6974C195.802 28.6054 195.621 28.7638 195.583 28.8045C195.533 28.8569 195.482 28.9074 195.428 28.9561C195.394 28.9894 195.358 29.0208 195.32 29.05C195.313 29.0465 195.502 28.9238 195.4 28.9888C195.271 29.0713 195.148 29.1596 195.012 29.2315C194.996 29.2399 194.822 29.3207 194.822 29.3236C194.815 29.2941 195.047 29.242 194.887 29.2934C194.854 29.3041 194.821 29.3172 194.788 29.3284C194.643 29.3772 194.495 29.4165 194.345 29.4463C194.311 29.4531 194.275 29.4566 194.241 29.4653C194.128 29.4945 194.349 29.4483 194.355 29.4521C194.272 29.4485 194.189 29.4559 194.107 29.474C193.953 29.4829 193.798 29.4829 193.643 29.474C193.607 29.4719 193.572 29.4684 193.536 29.4663C193.453 29.4615 193.392 29.4017 193.502 29.4666C193.588 29.5167 193.58 29.4801 193.505 29.4662C193.47 29.4597 193.434 29.4542 193.399 29.4475C193.246 29.4189 193.095 29.3818 192.946 29.3365C192.865 29.3121 192.787 29.2837 192.708 29.2561C192.673 29.2461 192.64 29.2332 192.608 29.2175C192.607 29.2085 192.811 29.3151 192.704 29.257C192.567 29.1836 192.427 29.1221 192.294 29.042C192.223 28.9992 192.155 28.9527 192.086 28.9069C192.055 28.8886 192.027 28.868 192 28.8452C192.002 28.8359 192.168 28.9903 192.081 28.907C191.97 28.8016 191.852 28.7072 191.747 28.5949C191.723 28.5693 191.701 28.5424 191.677 28.5167L191.654 28.4902C191.595 28.4181 191.593 28.4184 191.65 28.4913C191.708 28.5083 191.705 28.5717 191.651 28.4893C191.631 28.46 191.61 28.4315 191.591 28.4022C191.502 28.2761 191.427 28.1414 191.366 28.0001C191.371 27.9959 191.46 28.2622 191.392 28.0613C191.379 28.0233 191.365 27.9859 191.352 27.9479C191.327 27.8724 191.305 27.7961 191.286 27.7189C191.267 27.6425 191.257 27.5636 191.238 27.4875C191.206 27.3592 191.257 27.5888 191.251 27.583C191.233 27.5651 191.241 27.4538 191.24 27.4272C191.231 27.2562 191.25 27.0903 191.253 26.9204C191.256 26.7888 191.242 27.023 191.24 27.0161C191.24 26.9767 191.247 26.9376 191.26 26.9004C191.28 26.8108 191.298 26.7213 191.323 26.6326C191.35 26.5312 191.382 26.4309 191.418 26.332C191.432 26.2949 191.448 26.2584 191.46 26.2211C191.506 26.0843 191.37 26.3863 191.445 26.2629C191.549 26.0932 191.626 25.9095 191.736 25.7419C191.762 25.7022 191.921 25.4808 191.836 25.5926C191.753 25.7039 191.923 25.4929 191.955 25.4571C192.088 25.3083 192.246 25.1861 192.384 25.0436C192.466 24.9593 192.327 25.0852 192.319 25.091C192.361 25.0604 192.403 25.0286 192.447 24.9988C192.522 24.9466 192.6 24.8973 192.679 24.8509C192.769 24.7985 192.87 24.7595 192.956 24.704C193.059 24.6385 192.878 24.7328 192.875 24.7348C192.922 24.7116 192.971 24.6929 193.021 24.6791C193.105 24.6492 193.472 24.4909 193.549 24.5404C193.546 24.5382 193.271 24.5625 193.493 24.5483C193.545 24.5449 193.598 24.5398 193.65 24.5376C193.757 24.5332 193.863 24.5358 193.969 24.5414C194.258 24.5395 194.534 24.4241 194.738 24.2202C194.942 24.0163 195.057 23.7402 195.059 23.4519C195.053 23.1649 194.936 22.8913 194.733 22.6883C194.53 22.4854 194.256 22.3686 193.969 22.3624Z" fill="#686565"/>
<path d="M209.223 22.3614C208.277 22.3556 207.35 22.6283 206.558 23.1457C205.766 23.663 205.143 24.402 204.768 25.2707C204.349 26.1208 204.219 27.085 204.4 28.0157C204.58 28.9464 205.06 29.7924 205.767 30.4244C206.431 30.9895 207.228 31.377 208.083 31.5507C208.937 31.7243 209.822 31.6784 210.654 31.4173C211.506 31.12 212.244 30.5664 212.767 29.8324C213.29 29.0985 213.573 28.2204 213.577 27.319C213.615 26.3189 213.344 25.3314 212.801 24.4907C212.258 23.6501 211.469 22.9971 210.542 22.6205C210.263 22.5448 209.966 22.5823 209.715 22.7249C209.464 22.8674 209.279 23.1034 209.201 23.3814C209.133 23.6597 209.173 23.9538 209.315 24.2031C209.456 24.4524 209.688 24.638 209.962 24.7216C210.152 24.7949 209.789 24.6282 209.966 24.7248C210.039 24.7645 210.113 24.8004 210.185 24.8428C210.246 24.8789 210.304 24.9183 210.363 24.9569C210.567 25.0897 210.264 24.8595 210.394 24.9788C210.507 25.0823 210.619 25.1833 210.721 25.2975C210.76 25.3406 210.912 25.4607 210.794 25.3768C210.703 25.3126 210.759 25.3277 210.794 25.3792C210.82 25.4183 210.848 25.4564 210.874 25.4957C210.959 25.6243 211.036 25.7578 211.105 25.8955C211.121 25.9273 211.136 25.9599 211.152 25.9917C211.183 26.0511 211.227 26.0666 211.155 25.9922C211.087 25.9211 211.13 25.926 211.155 25.9944C211.171 26.0394 211.188 26.0838 211.204 26.1289C211.255 26.2759 211.298 26.4256 211.333 26.5773C211.349 26.6474 211.361 26.7179 211.375 26.7885C211.424 27.0387 211.368 26.633 211.38 26.8188C211.39 26.974 211.401 27.1275 211.398 27.2833C211.397 27.3546 211.394 27.4258 211.389 27.4969C211.387 27.5324 211.383 27.5677 211.38 27.6032C211.369 27.7742 211.369 27.5407 211.393 27.5248C211.343 27.6699 211.31 27.8202 211.294 27.9729C211.275 28.0406 211.251 28.1069 211.23 28.1739C211.154 28.4076 211.301 28.0465 211.22 28.2062C211.154 28.3435 211.079 28.4768 210.997 28.6055C210.962 28.6594 210.828 28.7811 210.938 28.6964C211.056 28.6045 210.875 28.7628 210.837 28.8036C210.787 28.8559 210.736 28.9064 210.682 28.9551C210.648 28.9885 210.612 29.0198 210.574 29.049C210.567 29.0455 210.756 28.9228 210.654 28.9878C210.525 29.0703 210.402 29.1587 210.266 29.2306C210.25 29.2389 210.075 29.3197 210.076 29.3226C210.069 29.2932 210.3 29.241 210.141 29.2924C210.108 29.3032 210.075 29.3162 210.042 29.3274C209.897 29.3762 209.749 29.4156 209.599 29.4453C209.565 29.4522 209.529 29.4556 209.495 29.4644C209.382 29.4935 209.602 29.4473 209.609 29.4511C209.526 29.4475 209.442 29.4549 209.361 29.473C209.207 29.4819 209.052 29.4819 208.897 29.473C208.861 29.471 208.825 29.4674 208.79 29.4653C208.707 29.4605 208.646 29.4007 208.756 29.4656C208.841 29.5157 208.834 29.4792 208.759 29.4652C208.724 29.4587 208.688 29.4532 208.653 29.4465C208.5 29.4179 208.348 29.3809 208.199 29.3355C208.119 29.3111 208.041 29.2827 207.962 29.2551C207.927 29.2451 207.894 29.2322 207.862 29.2165C207.861 29.2075 208.065 29.3141 207.957 29.256C207.821 29.1826 207.681 29.1212 207.548 29.041C207.477 28.9982 207.409 28.9517 207.34 28.9059C207.309 28.8877 207.281 28.867 207.253 28.8442C207.256 28.835 207.422 28.9894 207.335 28.906C207.224 28.8006 207.106 28.7062 207.001 28.594C206.977 28.5683 206.955 28.5414 206.931 28.5157L206.908 28.4893C206.848 28.4171 206.847 28.4174 206.904 28.4903C206.962 28.5073 206.959 28.5707 206.905 28.4884C206.885 28.459 206.864 28.4306 206.845 28.4012C206.756 28.2751 206.681 28.1404 206.62 27.9991C206.625 27.995 206.714 28.2612 206.646 28.0603C206.633 28.0223 206.619 27.985 206.606 27.9469C206.581 27.8714 206.559 27.7951 206.54 27.718C206.521 27.6415 206.511 27.5627 206.492 27.4866C206.46 27.3582 206.511 27.5878 206.505 27.5821C206.487 27.5641 206.495 27.4528 206.493 27.4262C206.485 27.2553 206.504 27.0893 206.507 26.9194C206.51 26.7878 206.496 27.022 206.494 27.0151C206.494 26.9757 206.501 26.9367 206.514 26.8994C206.534 26.8098 206.552 26.7203 206.577 26.6317C206.604 26.5302 206.636 26.43 206.672 26.331C206.685 26.2939 206.702 26.2574 206.714 26.2201C206.76 26.0833 206.624 26.3853 206.699 26.262C206.803 26.0922 206.88 25.9086 206.99 25.7409C207.016 25.7012 207.175 25.4799 207.09 25.5916C207.007 25.7029 207.176 25.4919 207.209 25.4561C207.342 25.3073 207.499 25.1851 207.638 25.0427C207.72 24.9583 207.581 25.0842 207.572 25.0901C207.615 25.0594 207.657 25.0277 207.701 24.9978C207.776 24.9456 207.854 24.8963 207.933 24.8499C208.023 24.7975 208.124 24.7585 208.21 24.7031C208.313 24.6376 208.132 24.7318 208.129 24.7338C208.176 24.7106 208.224 24.6919 208.275 24.6781C208.359 24.6482 208.726 24.4899 208.803 24.5394C208.8 24.5372 208.524 24.5616 208.747 24.5473C208.799 24.5439 208.852 24.5388 208.904 24.5366C209.011 24.5322 209.117 24.5349 209.223 24.5404C209.512 24.5385 209.788 24.4231 209.992 24.2192C210.196 24.0153 210.311 23.7393 210.313 23.4509C210.307 23.1639 210.19 22.8904 209.987 22.6874C209.784 22.4844 209.51 22.3676 209.223 22.3614Z" fill="#686565"/>
<path d="M429.99 263.65H162.746C159.367 263.646 156.127 262.302 153.738 259.913C151.348 257.523 150.004 254.284 150 250.905V12.7448C150.004 9.36581 151.348 6.12633 153.737 3.73704C156.127 1.34775 159.367 0.00378902 162.746 0H429.99C433.37 0.00378903 436.61 1.34775 438.999 3.73704C441.389 6.12633 442.733 9.36581 442.737 12.7448V250.905C442.733 254.284 441.389 257.523 438.999 259.913C436.61 262.302 433.37 263.646 429.99 263.65ZM162.746 1.45261C159.752 1.45602 156.882 2.64682 154.764 4.76378C152.647 6.88073 151.456 9.75095 151.453 12.7448V250.905C151.456 253.899 152.647 256.769 154.764 258.886C156.882 261.003 159.752 262.193 162.746 262.197H429.99C432.984 262.193 435.855 261.003 437.972 258.886C440.089 256.769 441.28 253.899 441.284 250.905V12.7448C441.28 9.75095 440.09 6.88073 437.972 4.76378C435.855 2.64682 432.985 1.45602 429.99 1.45261H162.746Z" fill="#686565"/>
<path d="M161.905 162.043L255.885 161.757L349.386 161.473L402.13 161.313C402.412 161.303 402.68 161.184 402.876 160.981C403.073 160.777 403.183 160.506 403.183 160.223C403.183 159.941 403.073 159.669 402.876 159.466C402.68 159.263 402.412 159.144 402.13 159.134L308.15 159.42L214.649 159.704L161.905 159.864C161.623 159.874 161.355 159.993 161.159 160.197C160.962 160.4 160.853 160.671 160.853 160.954C160.853 161.236 160.962 161.508 161.159 161.711C161.355 161.914 161.623 162.034 161.905 162.043Z" fill="#686565"/>
<path d="M209.317 160.277L209.898 125.968C209.922 124.565 207.743 124.565 207.719 125.968L207.138 160.277C207.114 161.679 209.293 161.68 209.317 160.277Z" fill="#686565"/>
<path d="M254.234 160.648L255.65 117.524L256.054 105.203C256.1 103.8 253.921 103.802 253.875 105.203L252.459 148.327L252.054 160.648C252.008 162.05 254.188 162.049 254.234 160.648Z" fill="#686565"/>
<path d="M299.029 84.761C298.175 100.035 296.595 145.088 295.74 160.362C295.662 161.763 297.841 161.759 297.92 160.362C298.774 145.088 300.354 100.035 301.208 84.761C301.287 83.36 299.107 83.3644 299.029 84.761Z" fill="#686565"/>
<path d="M343.609 145.036L343.342 159.717C343.317 161.119 345.496 161.119 345.521 159.717C345.837 142.377 346.646 142.943 346.735 138.049C346.76 136.646 344.581 136.646 344.556 138.049C344.556 138.049 343.925 127.696 343.609 145.036Z" fill="#686565"/>
<path d="M387.274 106.468L387.521 147.656L387.591 159.45C387.601 159.733 387.72 160 387.924 160.196C388.127 160.393 388.398 160.503 388.681 160.503C388.964 160.503 389.235 160.393 389.438 160.196C389.642 160 389.761 159.733 389.771 159.45L389.524 118.262L389.454 106.468C389.444 106.186 389.325 105.918 389.121 105.722C388.918 105.526 388.647 105.416 388.364 105.416C388.081 105.416 387.81 105.526 387.607 105.722C387.403 105.918 387.284 106.186 387.274 106.468Z" fill="#686565"/>
<path d="M162.08 160.818C160.277 155.862 164.343 151.095 168.521 148.953C173.526 146.387 179.285 145.805 184.343 143.331C191.885 139.643 197.378 133.024 202.266 126.398C207.297 119.579 211.9 112.26 218.293 106.593C221.661 103.541 225.64 101.239 229.965 99.8393C235.414 98.1388 241.194 98.0222 246.825 98.7075C258.461 100.124 269.247 104.929 280.474 107.983C291.059 110.863 302.722 112.482 313.112 108.004C318.39 105.729 322.707 101.913 327.343 98.6117C331.83 95.3827 336.847 92.9628 342.168 91.4615C352.597 88.5616 363.987 89.336 373.697 94.2381C382.623 98.6864 389.69 106.144 393.651 115.296C398.254 126.291 397.655 138.578 396.151 150.151C395.762 153.142 395.3 156.124 394.832 159.104C394.617 160.476 396.717 161.067 396.934 159.683C398.806 147.749 400.673 135.438 398.343 123.429C396.329 112.943 390.562 103.55 382.122 97.0082C373.646 90.4485 363.11 87.1237 352.404 87.6305C346.794 87.8909 341.271 89.119 336.079 91.2609C330.69 93.4898 326.126 96.7935 321.49 100.27C316.724 103.844 311.811 106.8 305.894 107.966C300.154 109.097 294.184 108.673 288.469 107.605C276.678 105.403 265.688 100.353 253.996 97.7658C243.165 95.3687 231.476 95.1292 221.777 101.248C214.316 105.954 209.044 113.261 203.984 120.316C198.969 127.31 193.89 134.788 186.556 139.565C182.083 142.479 177.054 143.555 172.049 145.194C167.032 146.837 162.215 149.609 160.169 154.749C159.288 156.865 159.22 159.234 159.979 161.397C160.455 162.705 162.562 162.14 162.08 160.818Z" fill="#686565"/>
<path d="M208.594 121.225L208.591 121.226L208.598 121.225H208.594Z" fill="#686565"/>
<path d="M212.372 119.22C211.869 118.329 211.065 117.644 210.105 117.289C209.144 116.933 208.088 116.93 207.125 117.279C206.647 117.453 206.208 117.722 205.835 118.07C205.462 118.417 205.163 118.835 204.954 119.3C204.912 119.399 204.888 119.503 204.854 119.604C204.807 119.681 204.75 119.749 204.708 119.829C204.256 120.729 204.132 121.758 204.358 122.74C204.584 123.721 205.144 124.593 205.944 125.205C206.743 125.817 207.731 126.132 208.737 126.094C209.744 126.057 210.705 125.669 211.457 124.999C212.246 124.285 212.768 123.323 212.934 122.271C213.101 121.22 212.903 120.143 212.372 119.22ZM209.643 121.071C209.649 121.176 209.652 121.126 209.643 121.071V121.071ZM209.366 120.44C209.355 120.428 209.356 120.429 209.366 120.44V120.44ZM208.143 120.932C208.125 120.902 208.126 120.907 208.143 120.932V120.932ZM208.433 121.177C208.474 121.196 208.502 121.201 208.433 121.177V121.177ZM208.562 121.239L208.591 121.226C208.584 121.227 208.577 121.225 208.57 121.222L208.571 121.222L208.594 121.225L208.598 121.223L208.585 121.22C208.596 121.219 208.597 121.221 208.598 121.223C208.728 121.163 208.64 121.192 208.565 121.215L208.56 121.214C208.513 121.19 208.463 121.174 208.411 121.166C208.406 121.163 208.4 121.161 208.396 121.158C208.354 121.129 208.143 120.964 208.339 121.137C208.297 121.099 208.254 121.062 208.214 121.022C208.191 120.997 208.169 120.971 208.151 120.943C208.125 120.899 208.1 120.855 208.076 120.81L208.072 120.786C208.069 120.766 208.067 120.757 208.064 120.745C208.065 120.733 208.067 120.719 208.069 120.706C208.084 120.667 208.093 120.626 208.097 120.585L208.105 120.574C208.137 120.53 208.164 120.479 208.194 120.434C208.036 120.674 208.256 120.407 208.272 120.374C208.275 120.368 208.27 120.371 208.271 120.367C208.277 120.364 208.276 120.366 208.283 120.361C208.332 120.333 208.379 120.301 208.428 120.273C208.487 120.24 208.721 120.174 208.479 120.243C208.534 120.227 208.586 120.208 208.642 120.193C208.652 120.191 208.733 120.179 208.777 120.171C208.816 120.17 208.853 120.169 208.857 120.169C208.875 120.169 208.893 120.172 208.911 120.172C208.871 120.178 209.049 120.216 209.102 120.224C209.109 120.23 209.113 120.234 209.124 120.242C209.168 120.274 209.223 120.303 209.27 120.334C209.059 120.198 209.273 120.345 209.313 120.385C209.337 120.409 209.359 120.435 209.382 120.46C209.403 120.484 209.421 120.51 209.438 120.537C209.472 120.6 209.509 120.664 209.545 120.727L209.556 120.743C209.555 120.745 209.555 120.747 209.555 120.749C209.574 120.85 209.602 120.949 209.639 121.045C209.64 121.053 209.642 121.061 209.643 121.069C209.646 121.125 209.651 121.18 209.651 121.236L209.65 121.247C209.483 121.159 209.296 121.113 209.107 121.112C208.918 121.11 208.731 121.154 208.562 121.239Z" fill="#686565"/>
<path d="M208.601 121.223C208.606 121.224 208.601 121.224 208.601 121.224L208.601 121.223Z" fill="#686565"/>
<path d="M208.6 121.225L208.597 121.225C208.601 121.226 208.6 121.225 208.6 121.225Z" fill="#686565"/>
<path d="M208.599 121.222L208.601 121.223L208.599 121.222Z" fill="#686565"/>
<path d="M255.084 100.888L255.08 100.889L255.087 100.888H255.084Z" fill="#686565"/>
<path d="M258.862 98.8834C258.358 97.9916 257.555 97.3072 256.594 96.9517C255.633 96.5962 254.578 96.5927 253.615 96.9418C253.136 97.1164 252.697 97.3854 252.324 97.7326C251.951 98.0798 251.652 98.4982 251.444 98.9632C251.402 99.062 251.377 99.1659 251.343 99.2671C251.296 99.3435 251.239 99.4124 251.197 99.4922C250.746 100.392 250.622 101.421 250.847 102.403C251.073 103.384 251.634 104.256 252.433 104.868C253.232 105.48 254.22 105.795 255.227 105.757C256.233 105.72 257.195 105.332 257.946 104.662C258.736 103.948 259.257 102.986 259.424 101.934C259.59 100.883 259.392 99.8063 258.862 98.8834ZM256.132 100.734C256.138 100.839 256.141 100.789 256.132 100.734V100.734ZM255.855 100.103C255.844 100.091 255.846 100.092 255.855 100.103V100.103ZM254.632 100.595C254.614 100.565 254.616 100.569 254.632 100.595V100.595ZM254.922 100.84C254.964 100.859 254.991 100.864 254.922 100.84V100.84ZM255.051 100.902L255.08 100.889C255.073 100.89 255.066 100.888 255.06 100.885L255.061 100.885L255.083 100.887L255.087 100.886L255.074 100.883C255.086 100.882 255.087 100.884 255.087 100.886C255.217 100.826 255.129 100.855 255.054 100.878L255.049 100.877C255.002 100.853 254.952 100.837 254.9 100.829C254.895 100.826 254.889 100.824 254.885 100.821C254.844 100.792 254.633 100.627 254.828 100.8C254.786 100.762 254.744 100.725 254.704 100.685C254.68 100.66 254.659 100.634 254.64 100.606C254.614 100.562 254.589 100.518 254.565 100.473L254.562 100.449C254.558 100.429 254.556 100.42 254.553 100.408C254.555 100.396 254.557 100.382 254.558 100.369C254.573 100.33 254.582 100.289 254.586 100.248L254.595 100.237C254.626 100.193 254.653 100.142 254.683 100.097C254.525 100.337 254.745 100.07 254.761 100.037C254.764 100.031 254.759 100.034 254.76 100.03C254.767 100.027 254.765 100.029 254.773 100.024C254.822 99.9956 254.868 99.9635 254.918 99.936C254.977 99.9032 255.21 99.837 254.968 99.9061C255.023 99.8904 255.076 99.8706 255.131 99.8561C255.141 99.8535 255.223 99.8421 255.267 99.8342C255.305 99.8332 255.342 99.8321 255.346 99.8321C255.365 99.8323 255.383 99.8345 255.401 99.8353C255.361 99.8407 255.538 99.8791 255.591 99.8873C255.599 99.8932 255.603 99.8971 255.613 99.9047C255.658 99.9373 255.712 99.9663 255.759 99.9967C255.548 99.8606 255.762 100.008 255.802 100.048C255.826 100.072 255.848 100.098 255.871 100.123C255.892 100.147 255.911 100.173 255.927 100.2C255.962 100.263 255.999 100.327 256.035 100.389L256.045 100.405C256.045 100.408 256.045 100.41 256.045 100.412C256.064 100.513 256.091 100.612 256.128 100.708C256.13 100.716 256.131 100.724 256.132 100.732C256.136 100.788 256.14 100.843 256.14 100.899L256.14 100.91C255.972 100.822 255.786 100.776 255.597 100.775C255.407 100.773 255.22 100.817 255.051 100.902Z" fill="#686565"/>
<path d="M255.089 100.888L255.086 100.888C255.09 100.889 255.089 100.888 255.089 100.888Z" fill="#686565"/>
<path d="M255.088 100.886L255.09 100.887L255.088 100.886Z" fill="#686565"/>
<path d="M255.091 100.887C255.095 100.888 255.09 100.888 255.09 100.888L255.091 100.887Z" fill="#686565"/>
<path d="M300.124 111.054L300.126 111.055L300.124 111.054Z" fill="#686565"/>
<path d="M303.898 78.5466C303.394 77.6548 302.591 76.9704 301.63 76.6149C300.669 76.2594 299.614 76.2559 298.651 76.605C298.172 76.7797 297.733 77.0486 297.36 77.3958C296.987 77.743 296.688 78.1614 296.48 78.6264C296.438 78.7252 296.413 78.8291 296.379 78.9303C296.332 79.0067 296.275 79.0756 296.233 79.1555C295.782 80.0553 295.658 81.0845 295.883 82.0658C296.109 83.047 296.67 83.9189 297.469 84.5312C298.269 85.1435 299.256 85.458 300.263 85.4204C301.269 85.3828 302.231 84.9955 302.982 84.3253C303.772 83.6115 304.293 82.6489 304.46 81.5975C304.626 80.5462 304.428 79.4696 303.898 78.5466ZM301.168 80.397C301.174 80.5025 301.177 80.452 301.168 80.397V80.397ZM300.891 79.7662C300.88 79.754 300.882 79.7553 300.891 79.7662V79.7662ZM299.668 80.2579C299.65 80.2285 299.652 80.2327 299.668 80.2579V80.2579ZM299.958 80.5036C300 80.5221 300.027 80.5271 299.958 80.5036V80.5036ZM300.087 80.5652L300.116 80.5521C300.109 80.5527 300.102 80.5514 300.096 80.5481L300.097 80.5479L300.119 80.5507L300.123 80.5488L300.11 80.5458C300.122 80.5454 300.123 80.5471 300.123 80.5488C300.253 80.4894 300.166 80.5179 300.09 80.5412L300.085 80.54C300.038 80.5162 299.988 80.5 299.936 80.4921C299.931 80.4894 299.925 80.4874 299.921 80.4845C299.88 80.4548 299.669 80.2902 299.864 80.4628C299.822 80.4252 299.78 80.3883 299.74 80.3477C299.716 80.3235 299.695 80.2972 299.676 80.2692C299.65 80.2252 299.625 80.1808 299.601 80.136L299.598 80.1118C299.594 80.0917 299.592 80.0834 299.589 80.0713C299.591 80.0589 299.593 80.0455 299.595 80.0325C299.609 79.9933 299.618 79.9524 299.622 79.9107L299.631 79.9001C299.662 79.8564 299.689 79.8055 299.719 79.7601C299.561 79.9999 299.781 79.7336 299.797 79.6999C299.8 79.6941 299.795 79.6973 299.796 79.6933C299.803 79.6897 299.801 79.6922 299.809 79.6877C299.858 79.6588 299.904 79.6267 299.954 79.5992C300.013 79.5664 300.246 79.5002 300.004 79.5693C300.059 79.5536 300.112 79.5338 300.167 79.5193C300.177 79.5167 300.259 79.5053 300.303 79.4974C300.341 79.4964 300.378 79.4953 300.382 79.4953C300.401 79.4955 300.419 79.4978 300.437 79.4986C300.397 79.5039 300.574 79.5423 300.627 79.5505C300.635 79.5564 300.639 79.5603 300.649 79.5679C300.694 79.6005 300.748 79.6295 300.795 79.66C300.584 79.5238 300.798 79.6708 300.838 79.711C300.862 79.7351 300.884 79.7608 300.907 79.7861C300.928 79.8102 300.947 79.8359 300.963 79.8631C300.998 79.9264 301.035 79.9904 301.071 80.0527L301.081 80.0687C301.081 80.0707 301.081 80.0728 301.081 80.0749C301.1 80.1759 301.127 80.275 301.164 80.371C301.166 80.3791 301.167 80.3874 301.168 80.3956C301.172 80.451 301.176 80.5061 301.176 80.5617L301.176 80.573C301.008 80.4855 300.822 80.4392 300.633 80.4378C300.443 80.4365 300.257 80.4802 300.087 80.5652Z" fill="#686565"/>
<path d="M300.121 111.056L300.117 111.057L300.124 111.056H300.121Z" fill="#686565"/>
<path d="M300.127 111.056L300.123 111.056C300.128 111.057 300.127 111.056 300.127 111.056Z" fill="#686565"/>
<path d="M300.127 111.055C300.131 111.056 300.126 111.056 300.126 111.056L300.127 111.055Z" fill="#686565"/>
<path d="M349.661 134.472C349.158 133.581 348.354 132.896 347.394 132.541C346.433 132.185 345.377 132.182 344.414 132.531C343.936 132.705 343.497 132.974 343.124 133.322C342.751 133.669 342.452 134.087 342.243 134.552C342.202 134.651 342.177 134.755 342.143 134.856C342.096 134.932 342.039 135.001 341.997 135.081C341.545 135.981 341.422 137.01 341.647 137.992C341.873 138.973 342.434 139.845 343.233 140.457C344.032 141.069 345.02 141.384 346.026 141.346C347.033 141.309 347.994 140.921 348.746 140.251C349.535 139.537 350.057 138.575 350.223 137.523C350.39 136.472 350.192 135.395 349.661 134.472ZM346.932 136.323C346.938 136.428 346.941 136.378 346.932 136.323V136.323ZM346.655 135.692C346.644 135.68 346.645 135.681 346.655 135.692V135.692ZM345.432 136.184C345.414 136.154 345.416 136.158 345.432 136.184V136.184ZM345.722 136.429C345.763 136.448 345.791 136.453 345.722 136.429V136.429ZM345.851 136.491L345.88 136.478C345.873 136.479 345.866 136.477 345.859 136.474L345.86 136.474L345.883 136.476L345.887 136.475L345.874 136.472C345.885 136.471 345.886 136.473 345.887 136.475C346.017 136.415 345.929 136.444 345.854 136.467L345.849 136.466C345.802 136.442 345.752 136.426 345.7 136.418C345.695 136.415 345.689 136.413 345.685 136.41C345.643 136.381 345.433 136.216 345.628 136.389C345.586 136.351 345.543 136.314 345.503 136.274C345.48 136.249 345.458 136.223 345.44 136.195C345.414 136.151 345.389 136.107 345.365 136.062L345.361 136.038C345.358 136.018 345.356 136.009 345.353 135.997C345.354 135.985 345.356 135.971 345.358 135.958C345.373 135.919 345.382 135.878 345.386 135.837L345.394 135.826C345.426 135.782 345.453 135.731 345.483 135.686C345.325 135.926 345.545 135.659 345.561 135.626C345.564 135.62 345.559 135.623 345.56 135.619C345.567 135.616 345.565 135.618 345.572 135.613C345.621 135.585 345.668 135.552 345.717 135.525C345.776 135.492 346.01 135.426 345.768 135.495C345.823 135.479 345.875 135.46 345.931 135.445C345.941 135.442 346.022 135.431 346.066 135.423C346.105 135.422 346.142 135.421 346.146 135.421C346.164 135.421 346.182 135.424 346.2 135.424C346.16 135.43 346.338 135.468 346.391 135.476C346.399 135.482 346.402 135.486 346.413 135.494C346.457 135.526 346.512 135.555 346.559 135.586C346.348 135.45 346.562 135.597 346.602 135.637C346.626 135.661 346.648 135.687 346.671 135.712C346.692 135.736 346.71 135.762 346.727 135.789C346.761 135.852 346.798 135.916 346.835 135.978L346.845 135.994C346.844 135.997 346.844 135.999 346.844 136.001C346.863 136.102 346.891 136.201 346.928 136.297C346.929 136.305 346.931 136.313 346.932 136.321C346.935 136.377 346.94 136.432 346.94 136.488L346.939 136.499C346.772 136.411 346.585 136.365 346.396 136.364C346.207 136.362 346.02 136.406 345.851 136.491Z" fill="#686565"/>
<path d="M345.883 88.541L345.88 88.5428L345.887 88.541H345.883Z" fill="#686565"/>
<path d="M345.889 88.54L345.886 88.5406C345.89 88.5411 345.889 88.54 345.889 88.54Z" fill="#686565"/>
<path d="M345.889 88.5391C345.894 88.5404 345.889 88.5406 345.889 88.5406L345.889 88.5391Z" fill="#686565"/>
<path d="M345.887 88.5383L345.889 88.5393L345.887 88.5383Z" fill="#686565"/>
<path d="M392.518 101.062C392.014 100.17 391.211 99.486 390.25 99.1305C389.289 98.7751 388.234 98.7715 387.271 99.1206C386.792 99.2953 386.353 99.5642 385.981 99.9114C385.608 100.259 385.308 100.677 385.1 101.142C385.058 101.241 385.034 101.345 385 101.446C384.952 101.522 384.896 101.591 384.853 101.671C384.402 102.571 384.278 103.6 384.504 104.581C384.729 105.563 385.29 106.435 386.089 107.047C386.889 107.659 387.877 107.974 388.883 107.936C389.889 107.898 390.851 107.511 391.602 106.841C392.392 106.127 392.913 105.164 393.08 104.113C393.247 103.062 393.048 101.985 392.518 101.062ZM389.789 102.913C389.794 103.018 389.797 102.968 389.789 102.913V102.913ZM389.511 102.282C389.5 102.27 389.502 102.271 389.511 102.282V102.282ZM388.288 102.773C388.27 102.744 388.272 102.748 388.288 102.773V102.773ZM388.578 103.019C388.62 103.038 388.647 103.043 388.578 103.019V103.019ZM388.708 103.081L388.736 103.068C388.729 103.068 388.722 103.067 388.716 103.064L388.717 103.064L388.739 103.066L388.743 103.064L388.73 103.061C388.742 103.061 388.743 103.063 388.743 103.064C388.873 103.005 388.786 103.034 388.71 103.057L388.705 103.056C388.659 103.032 388.608 103.016 388.556 103.008C388.551 103.005 388.546 103.003 388.542 103C388.5 102.97 388.289 102.806 388.485 102.978C388.442 102.941 388.4 102.904 388.36 102.863C388.336 102.839 388.315 102.813 388.296 102.785C388.27 102.741 388.245 102.696 388.221 102.652L388.218 102.627C388.214 102.607 388.212 102.599 388.209 102.587C388.211 102.575 388.213 102.561 388.215 102.548C388.229 102.509 388.239 102.468 388.242 102.426L388.251 102.416C388.282 102.372 388.309 102.321 388.339 102.276C388.181 102.516 388.401 102.249 388.417 102.216C388.42 102.21 388.415 102.213 388.417 102.209C388.423 102.205 388.421 102.208 388.429 102.203C388.478 102.174 388.524 102.142 388.574 102.115C388.633 102.082 388.866 102.016 388.624 102.085C388.679 102.069 388.732 102.049 388.787 102.035C388.797 102.032 388.879 102.021 388.923 102.013C388.961 102.012 388.999 102.011 389.003 102.011C389.021 102.011 389.039 102.013 389.057 102.014C389.017 102.02 389.195 102.058 389.247 102.066C389.255 102.072 389.259 102.076 389.269 102.084C389.314 102.116 389.368 102.145 389.415 102.176C389.205 102.039 389.418 102.186 389.458 102.227C389.482 102.251 389.505 102.276 389.527 102.302C389.548 102.326 389.567 102.352 389.583 102.379C389.618 102.442 389.655 102.506 389.691 102.568L389.701 102.584C389.701 102.586 389.701 102.588 389.701 102.59C389.72 102.692 389.748 102.791 389.784 102.887C389.786 102.895 389.787 102.903 389.788 102.911C389.792 102.967 389.796 103.022 389.796 103.077L389.796 103.089C389.628 103.001 389.442 102.955 389.253 102.953C389.063 102.952 388.877 102.996 388.708 103.081Z" fill="#686565"/>
<path d="M388.741 103.066L388.737 103.068L388.744 103.066H388.741Z" fill="#686565"/>
<path d="M388.744 103.064L388.746 103.065L388.744 103.064Z" fill="#686565"/>
<path d="M388.747 103.065C388.751 103.067 388.746 103.067 388.746 103.067L388.747 103.065Z" fill="#686565"/>
<path d="M388.746 103.066L388.742 103.067C388.747 103.067 388.746 103.066 388.746 103.066Z" fill="#686565"/>
<path d="M376.996 136.352L343.221 138.229C343.03 138.24 342.843 138.177 342.698 138.053C342.552 137.93 342.459 137.756 342.439 137.566C342.418 137.377 342.471 137.186 342.587 137.035C342.702 136.883 342.871 136.781 343.06 136.751L377.581 131.134L376.996 136.352Z" fill="#3F3D56"/>
<path d="M419.918 211.536L432.646 190.126L442.053 194.568C442.053 194.568 425.843 214.812 425.327 215.394C425.548 216.378 425.465 217.406 425.089 218.342C424.714 219.278 424.062 220.077 423.222 220.635C422.382 221.193 421.392 221.483 420.384 221.466C419.375 221.449 418.396 221.126 417.575 220.541C416.753 219.955 416.13 219.134 415.785 218.186C415.441 217.238 415.393 216.208 415.647 215.232C415.901 214.256 416.445 213.38 417.208 212.72C417.971 212.06 418.916 211.647 419.918 211.536Z" fill="#FFB6B6"/>
<path d="M425.213 161.803L445.834 172.56C447.123 173.488 448.203 174.675 449.007 176.045C449.811 177.414 450.32 178.937 450.502 180.514C450.684 182.092 450.535 183.69 450.063 185.207C449.592 186.723 448.81 188.125 447.766 189.322L433.551 205.627L427.358 197.236L432.131 187.257L422.889 184.82L425.213 161.803Z" fill="#F68219"/>
<path d="M366.45 136.702L364.128 161.5L353.724 161.518C353.724 161.518 359.693 136.281 359.91 135.534C359.288 134.74 358.922 133.775 358.861 132.769C358.799 131.762 359.045 130.761 359.565 129.897C360.085 129.033 360.855 128.347 361.774 127.93C362.692 127.513 363.715 127.385 364.708 127.562C365.701 127.739 366.617 128.214 367.334 128.923C368.051 129.632 368.536 130.542 368.725 131.533C368.914 132.523 368.798 133.548 368.391 134.471C367.985 135.394 367.308 136.172 366.45 136.702Z" fill="#FFB6B6"/>
<path d="M387.159 187.414L363.213 183.023C353.13 181.811 348.992 175.177 350.811 168.706L356.666 147.883L365.858 152.81L365.823 163.872L378.69 162.113L387.159 187.414Z" fill="#F68219"/>
<path d="M377.357 358.79H370.773L367.641 333.396H377.358L377.357 358.79Z" fill="#FFB6B6"/>
<path d="M377.589 365.658L357.342 365.657V365.401C357.342 363.311 358.172 361.307 359.65 359.829C361.128 358.352 363.132 357.521 365.223 357.521L368.921 354.716L375.822 357.522L377.589 357.522L377.589 365.658Z" fill="#2F2E41"/>
<path d="M423.945 358.79H430.529L433.661 333.396H423.943L423.945 358.79Z" fill="#FFB6B6"/>
<path d="M423.712 365.658L443.96 365.657V365.401C443.959 363.311 443.129 361.307 441.651 359.829C440.173 358.352 438.169 357.521 436.079 357.521L432.38 354.716L425.48 357.522L423.712 357.522L423.712 365.658Z" fill="#2F2E41"/>
<path d="M367.352 314.737C367.449 313.288 368.222 305.275 368.222 305.275L370.074 288.281L373.338 243.234L376.247 231.394L390.648 237.003L402.334 231.402L416.223 235.841L427.038 239.896C427.038 239.896 427.057 241.632 427.14 243.729C427.251 246.475 427.446 249.84 427.909 250.715C428.682 252.261 428.487 260.561 428.487 260.561C428.487 260.561 429.256 277.449 430.224 279.3C431.191 281.152 431.386 285.008 431.094 285.781C430.802 286.554 432.062 306.835 432.062 306.835C432.062 306.835 435.294 342.724 433.266 348.135C431.238 353.547 423.575 350.002 423.575 350.002C423.575 350.002 423.946 348.558 421.723 347.877C419.501 347.197 412.732 296.308 412.732 296.308C412.732 296.308 411.473 285.874 410.316 282.883C409.158 279.893 408.093 271.491 408.093 271.491C408.093 271.491 400.945 257.585 400.852 254.492C400.852 254.492 399.917 251.599 399.033 254.784C398.149 257.969 395.542 265.598 395.542 265.598L393 274.967L390.01 288.966L388.074 300.752C388.074 300.752 385.176 316.394 384.713 317.07C384.25 317.746 384.713 332.036 384.713 332.036C384.713 332.036 382.472 344.206 379.306 346.331C376.139 348.456 367.749 346.365 367.749 346.365C367.749 346.365 367.254 316.186 367.352 314.737Z" fill="#2F2E41"/>
<path d="M378.117 193.293L376.277 217.129L373.513 219.99C373.263 220.248 373.069 220.554 372.94 220.889C372.812 221.224 372.752 221.581 372.765 221.94C372.779 222.298 372.864 222.65 373.016 222.975C373.169 223.3 373.385 223.59 373.652 223.83L372.129 226.441L371.59 234.67C371.436 235.311 371.425 235.977 371.559 236.622C371.692 237.267 371.967 237.874 372.362 238.401C372.758 238.927 373.264 239.36 373.847 239.668C374.429 239.976 375.072 240.152 375.729 240.183L423.404 242.423C424.058 242.453 424.711 242.34 425.317 242.091C425.922 241.841 426.466 241.462 426.909 240.98C427.352 240.498 427.683 239.924 427.88 239.299C428.077 238.675 428.135 238.015 428.048 237.366L423.995 206.851V204.569L422.18 200.163L423.112 185.401L425.282 161.971L412.67 158.714L405.832 154.01L393.952 154.199L386.744 160.118L377.132 161.623L369.863 163.068L368.938 165.08L370.789 164.678L377.502 190.855L378.117 193.293Z" fill="#F68219"/>
<path d="M399.626 150.816C407.355 150.816 413.62 144.551 413.62 136.823C413.62 129.095 407.355 122.83 399.626 122.83C391.896 122.83 385.631 129.095 385.631 136.823C385.631 144.551 391.896 150.816 399.626 150.816Z" fill="#FFB6B6"/>
<path d="M396.252 149.913L406.363 149.397C407.659 149.331 409.073 149.217 410.015 148.325C410.522 147.775 410.912 147.127 411.161 146.422C412.096 144.251 413.031 142.079 413.942 139.898C415.202 136.881 416.439 133.696 416.117 130.442C416.042 128.956 415.419 127.551 414.368 126.498C413.832 125.99 413.142 125.674 412.408 125.6C411.673 125.525 410.935 125.696 410.307 126.086C410.152 125.057 409.764 124.077 409.173 123.22C408.583 122.362 407.805 121.651 406.899 121.138C405.069 120.127 402.98 119.684 400.897 119.866C397.876 120.061 394.991 121.198 392.648 123.117C391.99 123.724 391.286 124.282 390.544 124.784C390.171 125.034 389.75 125.205 389.309 125.286C388.867 125.368 388.413 125.359 387.976 125.259C387.542 125.143 387.165 124.874 386.914 124.502C386.663 124.13 386.555 123.679 386.611 123.234C385.899 123.766 385.411 124.544 385.242 125.417C385.072 126.29 385.235 127.195 385.696 127.954C385.171 128.174 384.599 128.255 384.033 128.188C383.468 128.121 382.93 127.909 382.471 127.573C381.979 127.817 381.544 128.161 381.192 128.583C380.841 129.005 380.582 129.496 380.432 130.024C380.281 130.552 380.242 131.105 380.318 131.649C380.394 132.193 380.583 132.714 380.872 133.181C381.161 133.648 381.544 134.049 381.998 134.359C382.451 134.669 382.964 134.881 383.503 134.981C384.043 135.081 384.598 135.068 385.132 134.941C385.667 134.815 386.169 134.578 386.606 134.246C387.22 135.106 386.991 136.274 386.911 137.327C386.831 138.38 387.114 139.688 388.129 139.979C389.501 140.373 390.613 138.525 392.041 138.545C392.393 138.573 392.733 138.688 393.03 138.88C393.327 139.071 393.572 139.333 393.743 139.642C394.08 140.262 394.31 140.935 394.425 141.631L396.252 149.856" fill="#2F2E41"/>
<path d="M790.498 275.733C790.498 273.567 789.77 271.808 788.877 271.804H545.284C544.387 271.808 543.663 273.567 543.659 275.733V364.931C543.659 365.132 543.584 365.326 543.449 365.475C543.314 365.624 543.128 365.717 542.928 365.737C542.274 365.799 541.62 365.858 540.966 365.912C540.95 365.912 540.934 365.916 540.918 365.916C540.562 365.948 540.206 365.973 539.851 366.001H539.846C539.663 365.662 539.483 365.321 539.304 364.977C539.243 364.861 539.212 364.732 539.212 364.601V270.636C539.212 270.037 539.236 269.435 539.276 268.841C539.334 268.025 539.435 267.212 539.58 266.407C540.263 262.651 541.807 260.109 543.562 260.101H790.595C790.851 260.102 791.104 260.156 791.339 260.258C791.684 260.411 791.995 260.629 792.257 260.901C792.611 261.27 792.915 261.684 793.158 262.134C794.165 264.14 794.745 266.333 794.861 268.574C794.861 268.598 794.865 268.622 794.865 268.647C794.921 269.302 794.949 269.969 794.945 270.636L795.002 279.299L795.038 284.465L795.148 300.676L795.188 306.433L795.366 365.536C795.366 365.75 795.281 365.956 795.129 366.108C794.977 366.259 794.772 366.344 794.557 366.344H791.307C791.092 366.344 790.887 366.259 790.735 366.108C790.583 365.956 790.498 365.75 790.498 365.536V275.733Z" fill="#686565"/>
<path d="M724.306 219.563H698.058C697.687 219.563 697.331 219.711 697.069 219.974C696.807 220.237 696.66 220.593 696.66 220.964V262.423H725.708V220.964C725.708 220.78 725.672 220.598 725.601 220.428C725.531 220.258 725.428 220.103 725.298 219.973C725.167 219.843 725.013 219.739 724.843 219.669C724.672 219.599 724.49 219.562 724.306 219.563ZM711.27 243.119C710.45 243.115 709.664 242.787 709.083 242.207C708.503 241.626 708.175 240.84 708.171 240.02V235.238C708.171 234.416 708.498 233.628 709.079 233.046C709.66 232.465 710.448 232.139 711.27 232.139C712.093 232.139 712.881 232.465 713.462 233.046C714.043 233.628 714.37 234.416 714.37 235.238V240.02C714.366 240.84 714.038 241.626 713.458 242.207C712.877 242.787 712.091 243.115 711.27 243.119Z" fill="#DCC0E7"/>
<path d="M696.57 261.097V265.097C696.571 265.304 696.653 265.502 696.8 265.649C696.946 265.796 697.145 265.878 697.352 265.879H725.016C725.223 265.878 725.422 265.795 725.568 265.648C725.715 265.502 725.797 265.304 725.798 265.097V261.097H696.57Z" fill="#3F3D56"/>
<path d="M767.77 154.862H655.572C654.608 154.864 653.684 155.247 653.002 155.929C652.321 156.61 651.937 157.534 651.936 158.498V234.201C651.936 235.165 652.32 236.089 653.002 236.771C653.683 237.452 654.608 237.836 655.572 237.837H767.77C768.734 237.836 769.658 237.452 770.34 236.771C771.022 236.089 771.405 235.165 771.406 234.201V158.498C771.405 157.534 771.021 156.61 770.339 155.929C769.658 155.247 768.734 154.864 767.77 154.862Z" fill="#686565"/>
<path d="M766.833 157.488H656.509C655.993 157.489 655.498 157.695 655.134 158.06C654.769 158.426 654.565 158.921 654.564 159.437V233.263C654.565 233.778 654.771 234.273 655.135 234.637C655.5 235.001 655.994 235.207 656.509 235.207H766.833C767.349 235.207 767.843 235.001 768.207 234.637C768.572 234.273 768.777 233.778 768.778 233.263V159.437C768.778 158.921 768.573 158.426 768.208 158.06C767.844 157.695 767.349 157.489 766.833 157.488Z" fill="white"/>
<path d="M745.344 267.27H679.707C679.528 267.27 679.35 267.23 679.188 267.153C679.026 267.076 678.883 266.963 678.77 266.824C678.656 266.684 678.576 266.521 678.534 266.347C678.491 266.172 678.489 265.99 678.526 265.814L679.544 260.978C679.602 260.707 679.751 260.465 679.966 260.29C680.181 260.116 680.449 260.02 680.725 260.019H744.326C744.602 260.02 744.87 260.116 745.085 260.29C745.3 260.465 745.449 260.707 745.507 260.978L746.525 265.814C746.562 265.99 746.56 266.172 746.518 266.347C746.475 266.521 746.395 266.684 746.281 266.824C746.168 266.963 746.025 267.076 745.863 267.153C745.701 267.23 745.524 267.27 745.344 267.27Z" fill="#DCC0E7"/>
<path d="M682.858 260.891H681.546C681.35 260.891 681.191 261.049 681.191 261.245V261.749C681.191 261.945 681.35 262.103 681.546 262.103H682.858C683.054 262.103 683.213 261.945 683.213 261.749V261.245C683.213 261.049 683.054 260.891 682.858 260.891Z" fill="#686565"/>
<path d="M686.901 260.891H685.589C685.393 260.891 685.234 261.049 685.234 261.245V261.749C685.234 261.945 685.393 262.103 685.589 262.103H686.901C687.097 262.103 687.256 261.945 687.256 261.749V261.245C687.256 261.049 687.097 260.891 686.901 260.891Z" fill="#686565"/>
<path d="M690.944 260.891H689.632C689.436 260.891 689.277 261.049 689.277 261.245V261.749C689.277 261.945 689.436 262.103 689.632 262.103H690.944C691.14 262.103 691.299 261.945 691.299 261.749V261.245C691.299 261.049 691.14 260.891 690.944 260.891Z" fill="#686565"/>
<path d="M694.988 260.891H693.676C693.48 260.891 693.321 261.049 693.321 261.245V261.749C693.321 261.945 693.48 262.103 693.676 262.103H694.988C695.184 262.103 695.343 261.945 695.343 261.749V261.245C695.343 261.049 695.184 260.891 694.988 260.891Z" fill="#686565"/>
<path d="M699.031 260.891H697.719C697.523 260.891 697.364 261.049 697.364 261.245V261.749C697.364 261.945 697.523 262.103 697.719 262.103H699.031C699.227 262.103 699.386 261.945 699.386 261.749V261.245C699.386 261.049 699.227 260.891 699.031 260.891Z" fill="#686565"/>
<path d="M703.074 260.891H701.762C701.566 260.891 701.407 261.049 701.407 261.245V261.749C701.407 261.945 701.566 262.103 701.762 262.103H703.074C703.27 262.103 703.429 261.945 703.429 261.749V261.245C703.429 261.049 703.27 260.891 703.074 260.891Z" fill="#686565"/>
<path d="M707.117 260.891H705.805C705.609 260.891 705.45 261.049 705.45 261.245V261.749C705.45 261.945 705.609 262.103 705.805 262.103H707.117C707.313 262.103 707.472 261.945 707.472 261.749V261.245C707.472 261.049 707.313 260.891 707.117 260.891Z" fill="#686565"/>
<path d="M711.16 260.891H709.848C709.652 260.891 709.493 261.049 709.493 261.245V261.749C709.493 261.945 709.652 262.103 709.848 262.103H711.16C711.356 262.103 711.515 261.945 711.515 261.749V261.245C711.515 261.049 711.356 260.891 711.16 260.891Z" fill="#686565"/>
<path d="M715.203 260.891H713.891C713.695 260.891 713.536 261.049 713.536 261.245V261.749C713.536 261.945 713.695 262.103 713.891 262.103H715.203C715.399 262.103 715.558 261.945 715.558 261.749V261.245C715.558 261.049 715.399 260.891 715.203 260.891Z" fill="#686565"/>
<path d="M719.246 260.891H717.934C717.738 260.891 717.579 261.049 717.579 261.245V261.749C717.579 261.945 717.738 262.103 717.934 262.103H719.246C719.442 262.103 719.601 261.945 719.601 261.749V261.245C719.601 261.049 719.442 260.891 719.246 260.891Z" fill="#686565"/>
<path d="M723.29 260.891H721.978C721.782 260.891 721.623 261.049 721.623 261.245V261.749C721.623 261.945 721.782 262.103 721.978 262.103H723.29C723.486 262.103 723.645 261.945 723.645 261.749V261.245C723.645 261.049 723.486 260.891 723.29 260.891Z" fill="#686565"/>
<path d="M727.333 260.891H726.021C725.825 260.891 725.666 261.049 725.666 261.245V261.749C725.666 261.945 725.825 262.103 726.021 262.103H727.333C727.529 262.103 727.688 261.945 727.688 261.749V261.245C727.688 261.049 727.529 260.891 727.333 260.891Z" fill="#686565"/>
<path d="M731.376 260.891H730.064C729.868 260.891 729.709 261.049 729.709 261.245V261.749C729.709 261.945 729.868 262.103 730.064 262.103H731.376C731.572 262.103 731.731 261.945 731.731 261.749V261.245C731.731 261.049 731.572 260.891 731.376 260.891Z" fill="#686565"/>
<path d="M735.419 260.891H734.107C733.911 260.891 733.752 261.049 733.752 261.245V261.749C733.752 261.945 733.911 262.103 734.107 262.103H735.419C735.615 262.103 735.774 261.945 735.774 261.749V261.245C735.774 261.049 735.615 260.891 735.419 260.891Z" fill="#686565"/>
<path d="M739.462 260.891H738.15C737.954 260.891 737.795 261.049 737.795 261.245V261.749C737.795 261.945 737.954 262.103 738.15 262.103H739.462C739.658 262.103 739.816 261.945 739.816 261.749V261.245C739.816 261.049 739.658 260.891 739.462 260.891Z" fill="#686565"/>
<path d="M743.505 260.891H742.193C741.997 260.891 741.838 261.049 741.838 261.245V261.749C741.838 261.945 741.997 262.103 742.193 262.103H743.505C743.701 262.103 743.859 261.945 743.859 261.749V261.245C743.859 261.049 743.701 260.891 743.505 260.891Z" fill="#686565"/>
<path d="M682.81 262.912H681.498C681.302 262.912 681.144 263.071 681.144 263.267V263.77C681.144 263.966 681.302 264.125 681.498 264.125H682.81C683.006 264.125 683.165 263.966 683.165 263.77V263.267C683.165 263.071 683.006 262.912 682.81 262.912Z" fill="#686565"/>
<path d="M686.853 262.912H685.541C685.345 262.912 685.187 263.071 685.187 263.267V263.77C685.187 263.966 685.345 264.125 685.541 264.125H686.853C687.049 264.125 687.208 263.966 687.208 263.77V263.267C687.208 263.071 687.049 262.912 686.853 262.912Z" fill="#686565"/>
<path d="M690.897 262.912H689.585C689.389 262.912 689.23 263.071 689.23 263.267V263.77C689.23 263.966 689.389 264.125 689.585 264.125H690.897C691.093 264.125 691.252 263.966 691.252 263.77V263.267C691.252 263.071 691.093 262.912 690.897 262.912Z" fill="#686565"/>
<path d="M694.94 262.912H693.628C693.432 262.912 693.273 263.071 693.273 263.267V263.77C693.273 263.966 693.432 264.125 693.628 264.125H694.94C695.136 264.125 695.295 263.966 695.295 263.77V263.267C695.295 263.071 695.136 262.912 694.94 262.912Z" fill="#686565"/>
<path d="M698.983 262.911H697.671C697.475 262.911 697.316 263.07 697.316 263.266V263.769C697.316 263.965 697.475 264.124 697.671 264.124H698.983C699.179 264.124 699.338 263.965 699.338 263.769V263.266C699.338 263.07 699.179 262.911 698.983 262.911Z" fill="#686565"/>
<path d="M703.026 262.911H701.714C701.518 262.911 701.359 263.07 701.359 263.266V263.769C701.359 263.965 701.518 264.124 701.714 264.124H703.026C703.222 264.124 703.381 263.965 703.381 263.769V263.266C703.381 263.07 703.222 262.911 703.026 262.911Z" fill="#686565"/>
<path d="M707.069 262.911H705.757C705.561 262.911 705.402 263.07 705.402 263.266V263.769C705.402 263.965 705.561 264.124 705.757 264.124H707.069C707.265 264.124 707.424 263.965 707.424 263.769V263.266C707.424 263.07 707.265 262.911 707.069 262.911Z" fill="#686565"/>
<path d="M711.112 262.911H709.8C709.604 262.911 709.446 263.07 709.446 263.266V263.769C709.446 263.965 709.604 264.124 709.8 264.124H711.112C711.308 264.124 711.467 263.965 711.467 263.769V263.266C711.467 263.07 711.308 262.911 711.112 262.911Z" fill="#686565"/>
<path d="M715.155 262.912H713.843C713.647 262.912 713.488 263.071 713.488 263.267V263.77C713.488 263.966 713.647 264.125 713.843 264.125H715.155C715.351 264.125 715.51 263.966 715.51 263.77V263.267C715.51 263.071 715.351 262.912 715.155 262.912Z" fill="#686565"/>
<path d="M719.198 262.912H717.886C717.69 262.912 717.531 263.071 717.531 263.267V263.77C717.531 263.966 717.69 264.125 717.886 264.125H719.198C719.394 264.125 719.553 263.966 719.553 263.77V263.267C719.553 263.071 719.394 262.912 719.198 262.912Z" fill="#686565"/>
<path d="M723.242 262.912H721.93C721.734 262.912 721.575 263.071 721.575 263.267V263.77C721.575 263.966 721.734 264.125 721.93 264.125H723.242C723.438 264.125 723.597 263.966 723.597 263.77V263.267C723.597 263.071 723.438 262.912 723.242 262.912Z" fill="#686565"/>
<path d="M727.285 262.912H725.973C725.777 262.912 725.618 263.071 725.618 263.267V263.77C725.618 263.966 725.777 264.125 725.973 264.125H727.285C727.481 264.125 727.64 263.966 727.64 263.77V263.267C727.64 263.071 727.481 262.912 727.285 262.912Z" fill="#686565"/>
<path d="M731.328 262.911H730.016C729.82 262.911 729.661 263.07 729.661 263.266V263.769C729.661 263.965 729.82 264.124 730.016 264.124H731.328C731.524 264.124 731.683 263.965 731.683 263.769V263.266C731.683 263.07 731.524 262.911 731.328 262.911Z" fill="#686565"/>
<path d="M735.371 262.911H734.059C733.863 262.911 733.704 263.07 733.704 263.266V263.769C733.704 263.965 733.863 264.124 734.059 264.124H735.371C735.567 264.124 735.726 263.965 735.726 263.769V263.266C735.726 263.07 735.567 262.911 735.371 262.911Z" fill="#686565"/>
<path d="M739.414 262.911H738.102C737.906 262.911 737.747 263.07 737.747 263.266V263.769C737.747 263.965 737.906 264.124 738.102 264.124H739.414C739.61 264.124 739.769 263.965 739.769 263.769V263.266C739.769 263.07 739.61 262.911 739.414 262.911Z" fill="#686565"/>
<path d="M743.457 262.912H742.145C741.949 262.912 741.79 263.071 741.79 263.267V263.77C741.79 263.966 741.949 264.125 742.145 264.125H743.457C743.653 264.125 743.812 263.966 743.812 263.77V263.267C743.812 263.071 743.653 262.912 743.457 262.912Z" fill="#686565"/>
<path d="M716.369 265.337H700.905C700.71 265.337 700.551 265.496 700.551 265.692V266.195C700.551 266.391 700.71 266.55 700.905 266.55H716.369C716.564 266.55 716.723 266.391 716.723 266.195V265.692C716.723 265.496 716.564 265.337 716.369 265.337Z" fill="#686565"/>
<path d="M761.287 167.66H658.058C657.95 167.658 657.848 167.613 657.773 167.537C657.698 167.46 657.656 167.357 657.656 167.249C657.656 167.142 657.698 167.039 657.773 166.962C657.848 166.886 657.95 166.841 658.058 166.839H761.287C761.395 166.841 761.497 166.886 761.572 166.962C761.647 167.039 761.689 167.142 761.689 167.249C761.689 167.357 761.647 167.46 761.572 167.537C761.497 167.613 761.395 167.658 761.287 167.66Z" fill="#CACACA"/>
<path d="M665.085 164.743C666.413 164.743 667.49 163.642 667.49 162.284C667.49 160.926 666.413 159.825 665.085 159.825C663.756 159.825 662.679 160.926 662.679 162.284C662.679 163.642 663.756 164.743 665.085 164.743Z" fill="#DCC0E7"/>
<path d="M673.396 164.743C674.725 164.743 675.802 163.642 675.802 162.284C675.802 160.926 674.725 159.825 673.396 159.825C672.067 159.825 670.99 160.926 670.99 162.284C670.99 163.642 672.067 164.743 673.396 164.743Z" fill="#DCC0E7"/>
<path d="M681.707 164.743C683.035 164.743 684.112 163.642 684.112 162.284C684.112 160.926 683.035 159.825 681.707 159.825C680.378 159.825 679.301 160.926 679.301 162.284C679.301 163.642 680.378 164.743 681.707 164.743Z" fill="#DCC0E7"/>
<path d="M756.283 160.434H750.38C750.263 160.437 750.151 160.485 750.069 160.568C749.987 160.652 749.941 160.764 749.941 160.881C749.941 160.998 749.987 161.111 750.069 161.194C750.151 161.278 750.263 161.326 750.38 161.328H756.283C756.4 161.326 756.512 161.278 756.594 161.194C756.676 161.111 756.722 160.998 756.722 160.881C756.722 160.764 756.676 160.652 756.594 160.568C756.512 160.485 756.4 160.437 756.283 160.434Z" fill="#DCC0E7"/>
<path d="M756.283 162.112H750.38C750.263 162.115 750.151 162.163 750.069 162.246C749.988 162.33 749.942 162.442 749.942 162.559C749.942 162.676 749.988 162.788 750.069 162.872C750.151 162.956 750.263 163.004 750.38 163.006H756.283C756.4 163.004 756.512 162.956 756.594 162.872C756.676 162.788 756.722 162.676 756.722 162.559C756.722 162.442 756.676 162.33 756.594 162.246C756.512 162.163 756.4 162.115 756.283 162.112Z" fill="#DCC0E7"/>
<path d="M756.283 163.788H750.38C750.263 163.79 750.151 163.839 750.069 163.922C749.987 164.006 749.941 164.118 749.941 164.235C749.941 164.352 749.987 164.464 750.069 164.548C750.151 164.632 750.263 164.68 750.38 164.682H756.283C756.4 164.68 756.512 164.632 756.594 164.548C756.676 164.464 756.722 164.352 756.722 164.235C756.722 164.118 756.676 164.006 756.594 163.922C756.512 163.839 756.4 163.79 756.283 163.788Z" fill="#DCC0E7"/>
<path d="M718.007 190.022H705.108C704.139 190.022 703.354 190.808 703.354 191.777C703.354 192.745 704.139 193.531 705.108 193.531H718.007C718.976 193.531 719.761 192.745 719.761 191.777C719.761 190.808 718.976 190.022 718.007 190.022Z" fill="#F68219"/>
<path d="M726.341 197.039H696.776C695.807 197.039 695.021 197.824 695.021 198.793C695.021 199.762 695.807 200.547 696.776 200.547H726.341C727.309 200.547 728.095 199.762 728.095 198.793C728.095 197.824 727.309 197.039 726.341 197.039Z" fill="#686565"/>
<path d="M726.341 204.056H696.776C695.807 204.056 695.021 204.841 695.021 205.81C695.021 206.778 695.807 207.564 696.776 207.564H726.341C727.309 207.564 728.095 206.778 728.095 205.81C728.095 204.841 727.309 204.056 726.341 204.056Z" fill="#686565"/>
<path d="M527.157 313.363L521.211 310.519L529.379 285.667L538.156 289.864L527.157 313.363Z" fill="#FFB6B6"/>
<path d="M567.024 309.356C566.592 309.627 566.159 309.894 565.723 310.16C564.853 310.693 563.975 311.217 563.097 311.732C562.656 311.99 562.211 312.248 561.77 312.501V312.514L561.743 312.518L561.735 312.523L561.062 312.689L560.097 310.138L559.651 308.963L559.022 307.299L557.869 304.255L551.798 288.227L561.237 285.899L561.591 287.345H561.595L561.77 288.061L565.067 301.434L565.74 304.168L565.762 304.251L566.168 305.884L566.518 307.299L566.906 308.88L567.024 309.356Z" fill="#FFB6B6"/>
<path d="M623.331 253.069C622.732 254.029 622.121 254.986 621.505 255.934C620.36 257.698 619.185 259.436 617.98 261.148C617.98 261.153 617.976 261.153 617.971 261.157C617.268 261.808 616.491 262.376 615.656 262.847C615.621 262.873 615.582 262.891 615.547 262.913C614.932 263.252 614.278 263.515 613.599 263.694C613.354 263.756 613.105 263.817 612.861 263.878C611.979 264.087 611.105 264.266 610.236 264.424C608.689 264.699 607.161 264.895 605.641 265.018C605.518 265.031 605.396 265.039 605.274 265.048C599.023 265.507 592.939 264.769 586.588 263.559C583.452 262.965 580.25 262.253 576.935 261.515C575.852 261.27 574.764 261.03 573.664 260.79C573.581 260.773 573.493 260.751 573.406 260.733C571.833 260.388 570.235 260.048 568.597 259.711C566.535 259.288 564.408 258.877 562.198 258.488L562.355 261.602C562.486 263.998 562.984 266.359 563.831 268.603C564.775 271.363 565.522 273.547 563.945 278.094L563.185 280.295C563.579 281.388 563.714 282.557 563.58 283.711C563.446 284.865 563.046 285.973 562.412 286.946L562.259 287.178L568.597 303.21L569.007 304.25H565.762L561.77 304.254H555.004L545.242 284.671L544.774 283.736V283.688L545.783 246.055C545.797 245.723 545.823 245.386 545.866 245.055C546.044 243.546 546.521 242.087 547.269 240.765C548.016 239.442 549.02 238.281 550.221 237.351C551.372 236.451 552.69 235.79 554.099 235.404C555.508 235.019 556.98 234.917 558.428 235.106L561.77 235.538L568.597 236.42L573.406 237.045L573.502 237.058L587.684 238.892L588.702 234.743L588.89 234.673L594.861 232.485L615.512 224.917L615.564 224.899L616.923 224.401L617.084 224.663C617.132 224.742 617.181 224.821 617.224 224.899C618.567 227.306 619.66 229.843 620.487 232.472C621.878 236.767 623.022 241.137 623.916 245.561C623.955 245.753 623.99 245.928 624.021 246.085L624.034 246.133C624.047 246.208 624.056 246.256 624.06 246.269C624.469 248.559 624.216 250.918 623.331 253.069Z" fill="#2F2E41"/>
<path d="M624.203 239.2C624.137 238.921 624.054 238.637 623.967 238.362C623.273 236.278 622.466 234.234 621.547 232.239C620.516 229.968 619.28 227.535 617.808 224.902C617.096 223.626 616.33 222.3 615.511 220.923C615.1 220.233 614.674 219.53 614.231 218.813C614.214 218.781 614.195 218.748 614.174 218.717L614.047 218.508L593.615 221.242L586.006 222.259L585.552 226.05L585.442 226.989C585.438 226.989 585.438 226.989 585.442 226.994L585.137 229.553V229.557L584.73 232.938L584.695 232.933L573.404 231.47L561.768 229.963L555.518 229.155C554.07 228.967 552.598 229.068 551.189 229.453C549.78 229.839 548.462 230.501 547.311 231.4C546.11 232.331 545.107 233.492 544.359 234.815C543.611 236.137 543.134 237.595 542.956 239.104C542.917 239.41 542.891 239.724 542.877 240.034L536.981 254.006C533.452 262.361 531.205 271.201 530.315 280.227L525.991 294.05L526.607 294.107L535.771 294.958L538.191 295.185L543.519 287.407C544.127 286.521 544.703 285.608 545.24 284.673C546.125 283.147 546.911 281.565 547.595 279.939L559.122 252.512C560.013 252.665 560.895 252.81 561.768 252.949C565.809 253.604 569.687 254.138 573.404 254.552C585.49 255.901 595.956 256.006 605.272 254.862C607.889 254.543 610.418 254.124 612.859 253.604C613.755 253.416 614.639 253.214 615.511 252.997C615.716 252.949 615.917 252.901 616.118 252.848C617.923 252.383 619.583 251.472 620.945 250.199C622.307 248.927 623.328 247.333 623.914 245.564C624.615 243.513 624.715 241.306 624.203 239.2Z" fill="#2F2E41"/>
<path d="M529.058 309.304L522.624 306.221L521.615 305.736L520.003 309.693L508.751 312.169C508.195 312.291 507.692 312.588 507.317 313.016C506.941 313.444 506.712 313.981 506.663 314.548C506.614 315.116 506.748 315.684 507.045 316.17C507.343 316.656 507.787 317.034 508.315 317.249L519.309 321.734L522.799 318.594L521.942 322.808L526.083 324.498L530.621 310.056L529.058 309.304Z" fill="#2F2E41"/>
<path d="M568.597 303.211L569.008 304.25H568.597V303.211Z" fill="#2F2E41"/>
<path d="M566.357 304.472L559.615 306.807L558.557 307.172L560.196 311.118L553.944 320.794C553.634 321.272 553.486 321.836 553.52 322.405C553.554 322.973 553.769 323.516 554.134 323.953C554.498 324.391 554.993 324.7 555.546 324.836C556.099 324.972 556.681 324.928 557.207 324.71L568.176 320.163L568.446 315.476L570.803 319.073L574.935 317.361L567.996 303.905L566.357 304.472Z" fill="#2F2E41"/>
<path d="M525.439 159.969C525.759 160.592 526.211 161.137 526.764 161.566C527.317 161.995 527.958 162.297 528.64 162.452C529.323 162.607 530.031 162.61 530.715 162.461C531.399 162.313 532.042 162.016 532.599 161.592L546.775 171.001L546.802 162.16L533.337 154.58C532.562 153.692 531.489 153.119 530.32 152.969C529.151 152.819 527.968 153.103 526.994 153.767C526.021 154.431 525.325 155.43 525.038 156.573C524.751 157.716 524.894 158.924 525.439 159.969Z" fill="#FFB6B6"/>
<path d="M536.029 164.055L542.643 156.531L569.574 172.517L605.273 169.248C607.038 169.086 608.816 169.315 610.482 169.918C612.148 170.521 613.661 171.484 614.914 172.737C616.166 173.991 617.127 175.504 617.729 177.171C618.33 178.838 618.557 180.616 618.394 182.38C618.096 185.567 616.545 188.504 614.083 190.549C611.621 192.594 608.448 193.578 605.261 193.287L565.055 189.566L536.029 164.055Z" fill="#DCC0E7"/>
<path d="M618.887 164.171L618.825 164.093C613.803 163.597 608.745 164.569 604.264 166.891C599.783 169.212 596.072 172.783 593.581 177.171L590.551 182.508C580.752 194.487 587.873 202.748 588.299 203.976L584.897 219.658L585.66 224.907L586.041 226.466L624.869 246.752C627.08 236.132 624.942 227.082 616.889 220.168L624.681 195.925C626.409 190.565 626.784 184.861 625.773 179.32C624.762 173.78 622.396 168.576 618.887 164.171Z" fill="#DCC0E7"/>
<path d="M588.013 281.947H575.558C574.873 281.946 574.211 281.699 573.694 281.249C573.177 280.8 572.839 280.179 572.743 279.501C571.974 273.843 571.974 268.106 572.743 262.448C572.838 261.778 573.169 261.164 573.676 260.715C574.183 260.267 574.833 260.015 575.51 260.003C579.429 258.246 583.649 258.247 588.056 260.003C588.466 260.008 588.87 260.103 589.24 260.281C589.61 260.46 589.936 260.717 590.196 261.034C590.466 261.365 590.66 261.752 590.763 262.166C590.866 262.581 590.875 263.014 590.789 263.432C589.789 268.411 589.789 273.538 590.789 278.517C590.875 278.935 590.866 279.368 590.763 279.783C590.66 280.197 590.466 280.584 590.196 280.915C589.931 281.238 589.598 281.498 589.221 281.677C588.843 281.855 588.43 281.948 588.013 281.947Z" fill="#F68219"/>
<path d="M586.708 266.504H576.225C576.139 266.504 576.053 266.488 575.973 266.455C575.893 266.423 575.82 266.375 575.758 266.314C575.697 266.253 575.648 266.18 575.615 266.101C575.582 266.021 575.564 265.935 575.564 265.848C575.564 265.762 575.582 265.676 575.615 265.596C575.648 265.517 575.697 265.444 575.758 265.383C575.82 265.322 575.893 265.274 575.973 265.242C576.053 265.209 576.139 265.193 576.225 265.193H586.708C586.795 265.193 586.881 265.209 586.961 265.242C587.041 265.274 587.114 265.322 587.175 265.383C587.237 265.444 587.286 265.517 587.319 265.596C587.352 265.676 587.369 265.762 587.369 265.848C587.369 265.935 587.352 266.021 587.319 266.101C587.286 266.18 587.237 266.253 587.175 266.314C587.114 266.375 587.041 266.423 586.961 266.455C586.881 266.488 586.795 266.504 586.708 266.504Z" fill="white"/>
<path d="M586.708 271.745H576.225C576.139 271.746 576.053 271.729 575.973 271.697C575.893 271.664 575.82 271.616 575.758 271.555C575.697 271.494 575.648 271.422 575.615 271.342C575.582 271.262 575.564 271.176 575.564 271.09C575.564 271.003 575.582 270.918 575.615 270.838C575.648 270.758 575.697 270.685 575.758 270.624C575.82 270.564 575.893 270.515 575.973 270.483C576.053 270.45 576.139 270.434 576.225 270.435H586.708C586.795 270.434 586.881 270.45 586.961 270.483C587.041 270.515 587.114 270.564 587.175 270.624C587.237 270.685 587.286 270.758 587.319 270.838C587.352 270.918 587.369 271.003 587.369 271.09C587.369 271.176 587.352 271.262 587.319 271.342C587.286 271.422 587.237 271.494 587.175 271.555C587.114 271.616 587.041 271.664 586.961 271.697C586.881 271.729 586.795 271.746 586.708 271.745Z" fill="white"/>
<path d="M586.709 276.986H576.226C576.139 276.987 576.053 276.97 575.973 276.938C575.893 276.905 575.82 276.857 575.759 276.796C575.697 276.735 575.648 276.663 575.615 276.583C575.582 276.503 575.564 276.417 575.564 276.331C575.564 276.244 575.582 276.159 575.615 276.079C575.648 275.999 575.697 275.926 575.759 275.865C575.82 275.805 575.893 275.756 575.973 275.724C576.053 275.691 576.139 275.675 576.226 275.676H586.709C586.795 275.675 586.881 275.691 586.961 275.724C587.042 275.756 587.114 275.805 587.176 275.865C587.237 275.926 587.286 275.999 587.32 276.079C587.353 276.159 587.37 276.244 587.37 276.331C587.37 276.417 587.353 276.503 587.32 276.583C587.286 276.663 587.237 276.735 587.176 276.796C587.114 276.857 587.042 276.905 586.961 276.938C586.881 276.97 586.795 276.987 586.709 276.986Z" fill="white"/>
<path d="M527.722 164.285H515.268C514.583 164.284 513.921 164.037 513.403 163.587C512.886 163.138 512.549 162.517 512.453 161.839C511.683 156.181 511.683 150.444 512.453 144.786C512.548 144.116 512.878 143.502 513.386 143.053C513.893 142.605 514.543 142.353 515.22 142.341C519.138 140.584 523.359 140.585 527.765 142.341C528.176 142.346 528.58 142.441 528.95 142.619C529.319 142.798 529.645 143.055 529.905 143.372C530.176 143.703 530.37 144.09 530.473 144.504C530.575 144.919 530.584 145.352 530.499 145.77C529.499 150.749 529.499 155.876 530.499 160.855C530.584 161.273 530.575 161.706 530.473 162.121C530.37 162.535 530.176 162.922 529.905 163.253C529.641 163.576 529.308 163.836 528.93 164.015C528.553 164.193 528.14 164.286 527.722 164.285Z" fill="#F68219"/>
<path d="M526.418 148.842H515.935C515.849 148.843 515.763 148.827 515.683 148.794C515.602 148.762 515.53 148.713 515.468 148.653C515.407 148.592 515.358 148.519 515.325 148.439C515.291 148.359 515.274 148.274 515.274 148.187C515.274 148.101 515.291 148.015 515.325 147.935C515.358 147.855 515.407 147.783 515.468 147.722C515.53 147.661 515.602 147.613 515.683 147.58C515.763 147.548 515.849 147.531 515.935 147.532H526.418C526.505 147.531 526.59 147.548 526.671 147.58C526.751 147.613 526.824 147.661 526.885 147.722C526.946 147.783 526.995 147.855 527.029 147.935C527.062 148.015 527.079 148.101 527.079 148.187C527.079 148.274 527.062 148.359 527.029 148.439C526.995 148.519 526.946 148.592 526.885 148.653C526.824 148.713 526.751 148.762 526.671 148.794C526.59 148.827 526.505 148.843 526.418 148.842Z" fill="white"/>
<path d="M526.418 154.083H515.935C515.849 154.083 515.763 154.067 515.683 154.035C515.602 154.002 515.53 153.954 515.468 153.893C515.407 153.832 515.358 153.759 515.325 153.68C515.291 153.6 515.274 153.514 515.274 153.428C515.274 153.341 515.291 153.255 515.325 153.176C515.358 153.096 515.407 153.023 515.468 152.962C515.53 152.901 515.602 152.853 515.683 152.821C515.763 152.788 515.849 152.772 515.935 152.772H526.418C526.505 152.772 526.59 152.788 526.671 152.821C526.751 152.853 526.824 152.901 526.885 152.962C526.946 153.023 526.995 153.096 527.029 153.176C527.062 153.255 527.079 153.341 527.079 153.428C527.079 153.514 527.062 153.6 527.029 153.68C526.995 153.759 526.946 153.832 526.885 153.893C526.824 153.954 526.751 154.002 526.671 154.035C526.59 154.067 526.505 154.083 526.418 154.083Z" fill="white"/>
<path d="M526.418 159.324H515.935C515.848 159.325 515.762 159.308 515.682 159.276C515.602 159.243 515.529 159.195 515.468 159.134C515.406 159.073 515.357 159.001 515.324 158.921C515.291 158.841 515.273 158.755 515.273 158.669C515.273 158.582 515.291 158.497 515.324 158.417C515.357 158.337 515.406 158.264 515.468 158.203C515.529 158.142 515.602 158.094 515.682 158.062C515.762 158.029 515.848 158.013 515.935 158.014H526.418C526.504 158.013 526.59 158.029 526.67 158.062C526.751 158.094 526.823 158.142 526.885 158.203C526.946 158.264 526.995 158.337 527.029 158.417C527.062 158.497 527.079 158.582 527.079 158.669C527.079 158.755 527.062 158.841 527.029 158.921C526.995 159.001 526.946 159.073 526.885 159.134C526.823 159.195 526.751 159.243 526.67 159.276C526.59 159.308 526.504 159.325 526.418 159.324Z" fill="white"/>
<path d="M309.078 196.243H296.623C295.938 196.242 295.276 195.995 294.759 195.545C294.242 195.096 293.904 194.475 293.808 193.797C293.039 188.139 293.039 182.402 293.808 176.744C293.903 176.074 294.234 175.459 294.741 175.011C295.248 174.563 295.899 174.311 296.575 174.299C300.494 172.542 304.714 172.543 309.121 174.298C309.531 174.304 309.936 174.399 310.305 174.577C310.675 174.756 311.001 175.013 311.261 175.33C311.532 175.661 311.726 176.048 311.828 176.462C311.931 176.877 311.94 177.31 311.855 177.728C310.854 182.707 310.854 187.834 311.855 192.813C311.94 193.231 311.931 193.664 311.828 194.078C311.726 194.493 311.532 194.88 311.261 195.211C310.997 195.534 310.664 195.794 310.286 195.973C309.908 196.151 309.496 196.243 309.078 196.243Z" fill="#F68219"/>
<path d="M307.774 180.799H297.291C297.204 180.8 297.119 180.784 297.038 180.751C296.958 180.719 296.885 180.671 296.824 180.61C296.762 180.549 296.714 180.476 296.68 180.396C296.647 180.317 296.63 180.231 296.63 180.144C296.63 180.058 296.647 179.972 296.68 179.892C296.714 179.812 296.762 179.74 296.824 179.679C296.885 179.618 296.958 179.57 297.038 179.537C297.119 179.505 297.204 179.489 297.291 179.489H307.774C307.86 179.489 307.946 179.505 308.026 179.537C308.106 179.57 308.179 179.618 308.241 179.679C308.302 179.74 308.351 179.812 308.384 179.892C308.418 179.972 308.435 180.058 308.435 180.144C308.435 180.231 308.418 180.317 308.384 180.396C308.351 180.476 308.302 180.549 308.241 180.61C308.179 180.671 308.106 180.719 308.026 180.751C307.946 180.784 307.86 180.8 307.774 180.799Z" fill="white"/>
<path d="M307.773 186.041H297.291C297.204 186.041 297.118 186.025 297.038 185.992C296.958 185.96 296.885 185.912 296.824 185.851C296.762 185.79 296.713 185.717 296.68 185.638C296.647 185.558 296.63 185.472 296.63 185.385C296.63 185.299 296.647 185.213 296.68 185.133C296.713 185.054 296.762 184.981 296.824 184.92C296.885 184.859 296.958 184.811 297.038 184.779C297.118 184.746 297.204 184.73 297.291 184.73H307.773C307.86 184.73 307.946 184.746 308.026 184.779C308.106 184.811 308.179 184.859 308.241 184.92C308.302 184.981 308.351 185.054 308.384 185.133C308.417 185.213 308.434 185.299 308.434 185.385C308.434 185.472 308.417 185.558 308.384 185.638C308.351 185.717 308.302 185.79 308.241 185.851C308.179 185.912 308.106 185.96 308.026 185.992C307.946 186.025 307.86 186.041 307.773 186.041Z" fill="white"/>
<path d="M307.773 191.281H297.29C297.204 191.282 297.118 191.265 297.038 191.233C296.957 191.2 296.884 191.152 296.823 191.091C296.761 191.03 296.713 190.958 296.679 190.878C296.646 190.798 296.629 190.712 296.629 190.626C296.629 190.539 296.646 190.454 296.679 190.374C296.713 190.294 296.761 190.221 296.823 190.16C296.884 190.1 296.957 190.051 297.038 190.019C297.118 189.986 297.204 189.97 297.29 189.971H307.773C307.86 189.97 307.946 189.986 308.026 190.019C308.106 190.051 308.179 190.1 308.24 190.16C308.302 190.221 308.351 190.294 308.384 190.374C308.417 190.454 308.435 190.539 308.435 190.626C308.435 190.712 308.417 190.798 308.384 190.878C308.351 190.958 308.302 191.03 308.24 191.091C308.179 191.152 308.106 191.2 308.026 191.233C307.946 191.265 307.86 191.282 307.773 191.281Z" fill="white"/>
<path d="M591.662 266.027C592.265 265.671 592.782 265.187 593.178 264.61C593.573 264.032 593.837 263.375 593.951 262.684C594.065 261.994 594.026 261.287 593.838 260.613C593.649 259.939 593.314 259.314 592.858 258.784L601.411 244.076L592.583 244.574L585.814 258.464C584.973 259.29 584.464 260.395 584.384 261.571C584.304 262.746 584.658 263.911 585.379 264.843C586.1 265.775 587.137 266.41 588.295 266.629C589.454 266.847 590.652 266.633 591.662 266.027Z" fill="#FFB6B6"/>
<path d="M595.113 255.214L587.21 249.059L601.572 221.23L596.19 185.792C595.924 184.041 596.047 182.252 596.55 180.553C597.054 178.854 597.925 177.287 599.102 175.963C600.279 174.638 601.733 173.589 603.361 172.89C604.989 172.191 606.752 171.858 608.523 171.917C611.721 172.026 614.746 173.399 616.933 175.735C619.121 178.071 620.292 181.179 620.19 184.378L618.86 224.729L595.113 255.214Z" fill="#DCC0E7"/>
<path d="M213.108 247.611C213.606 247.11 213.988 246.507 214.227 245.843C214.467 245.179 214.557 244.471 214.493 243.768C214.429 243.066 214.212 242.385 213.857 241.776C213.501 241.166 213.017 240.641 212.437 240.239L220.123 202.064L211.635 204.79L205.482 241.714C204.871 242.733 204.655 243.941 204.875 245.109C205.095 246.276 205.736 247.322 206.676 248.049C207.616 248.776 208.79 249.133 209.975 249.052C211.161 248.971 212.275 248.458 213.108 247.611Z" fill="#9E616A"/>
<path d="M224.458 166.843L219.191 162.868C219.191 162.868 214.545 162.539 213.722 170.917C212.899 179.294 211.21 195.621 211.21 195.621L203.15 232.943L214.306 235.392L222.938 195.114L228.117 183.153L224.458 166.843Z" fill="#DCC0E7"/>
<path d="M215.775 227.787L245.454 227.292L247.927 207.015H215.775V227.787Z" fill="#9E616A"/>
<path d="M242.486 352.569H249.337L252.596 326.146L242.484 326.146L242.486 352.569Z" fill="#9E616A"/>
<path d="M199.562 353.204L206.414 353.156L209.488 326.71L200.577 328.754L199.562 353.204Z" fill="#9E616A"/>
<path d="M220.992 189.552L219.439 193.588L219.75 197.624L250.132 208.146L248.625 190.483L245.21 186.447L220.992 189.552Z" fill="#FFB6B6"/>
<path d="M234.026 153.233C240.019 153.233 244.878 148.375 244.878 142.382C244.878 136.39 240.019 131.532 234.026 131.532C228.033 131.532 223.175 136.39 223.175 142.382C223.175 148.375 228.033 153.233 234.026 153.233Z" fill="#9E616A"/>
<path d="M240.787 349.189L251.617 348.543V353.183L261.914 360.293C262.423 360.644 262.806 361.149 263.007 361.733C263.209 362.317 263.218 362.951 263.035 363.541C262.851 364.131 262.483 364.647 261.985 365.013C261.487 365.379 260.885 365.576 260.267 365.576H247.373L245.15 360.987L244.283 365.576H239.421L240.787 349.189Z" fill="#2F2E41"/>
<path d="M197.219 349.84L208.045 349.118L208.077 353.758L218.424 360.796C218.935 361.144 219.321 361.646 219.527 362.228C219.732 362.811 219.746 363.444 219.567 364.036C219.387 364.627 219.023 365.145 218.527 365.515C218.032 365.885 217.432 366.086 216.814 366.091L203.92 366.181L201.665 361.607L200.829 366.203L195.968 366.237L197.219 349.84Z" fill="#2F2E41"/>
<path d="M197.431 332.944L202.42 293.072L208.356 251.032C204.009 242.961 213.797 217.896 213.797 217.896L215.178 217.962L246.45 223.861L246.443 223.83C252.839 241.273 254.958 249.891 254.608 268.465L253.347 335.239H253.743C254.399 335.239 255.028 335.499 255.492 335.963C255.955 336.427 256.216 337.056 256.216 337.711C256.216 338.367 255.955 338.996 255.492 339.46C255.028 339.924 254.399 340.184 253.743 340.184H241.377C241.052 340.185 240.73 340.121 240.429 339.997C240.128 339.873 239.855 339.691 239.625 339.462C239.395 339.232 239.213 338.959 239.088 338.659C238.963 338.358 238.899 338.037 238.899 337.711C238.899 337.386 238.963 337.064 239.088 336.764C239.213 336.464 239.395 336.191 239.625 335.961C239.855 335.732 240.128 335.55 240.429 335.426C240.73 335.301 241.052 335.238 241.377 335.239H241.696L230.345 255.732L220.722 289.115L209.84 332.638C213.797 331.649 213.182 333.941 213.182 335.239C213.182 335.894 212.922 336.523 212.458 336.987C211.994 337.451 211.365 337.711 210.709 337.711H198.343C197.768 337.712 197.211 337.512 196.767 337.146C196.324 336.78 196.022 336.27 195.914 335.705C195.806 335.14 195.898 334.556 196.175 334.052C196.452 333.548 196.896 333.156 197.431 332.944Z" fill="#2F2E41"/>
<path d="M211.362 219.193L212.351 209.302C212.454 208.898 212.682 208.538 213.002 208.272C213.322 208.005 213.719 207.848 214.134 207.821C214.546 203.109 216.281 182.781 216.384 181.894L216.388 181.857L217.177 165.012C217.206 164.401 217.459 163.821 217.888 163.384C218.317 162.947 218.892 162.683 219.503 162.643L223.668 162.371C223.725 162.369 223.779 162.345 223.819 162.304C223.859 162.263 223.881 162.208 223.881 162.151C223.881 161.691 223.972 161.235 224.148 160.81C224.324 160.386 224.582 159.999 224.907 159.674C225.232 159.349 225.618 159.091 226.043 158.915C226.468 158.739 226.924 158.648 227.384 158.648H239.716C240.515 158.649 241.286 158.941 241.885 159.469C242.483 159.998 242.869 160.726 242.968 161.519C242.974 161.573 243 161.624 243.041 161.66C243.082 161.697 243.135 161.716 243.19 161.715H243.191C244.593 161.686 245.958 162.16 247.039 163.052C248.121 163.943 248.846 165.193 249.085 166.574C250.771 176.382 254.15 198.642 252.479 211.018C251.898 215.326 253.151 211.914 253.371 215.518C253.393 215.867 253.346 216.216 253.233 216.546C253.119 216.876 252.942 217.181 252.711 217.442C253.184 217.614 253.571 217.966 253.786 218.421C254.002 218.876 254.029 219.398 253.862 219.873L254.079 219.82C254.016 220.072 253.903 220.309 253.748 220.517C253.593 220.725 253.398 220.901 253.175 221.035C252.952 221.168 252.705 221.256 252.448 221.294C252.191 221.331 251.929 221.318 251.677 221.254L219.414 225.626C218.354 225.359 211.095 220.253 211.362 219.193Z" fill="#DCC0E7"/>
<path d="M297.573 178.976C297.371 179.652 297.023 180.276 296.554 180.803C296.085 181.33 295.506 181.748 294.858 182.027C294.209 182.307 293.508 182.44 292.802 182.419C292.097 182.398 291.405 182.222 290.774 181.904L278.302 193.286L276.646 184.527L288.752 175.09C289.356 174.066 290.314 173.3 291.445 172.936C292.576 172.572 293.802 172.636 294.889 173.115C295.976 173.594 296.85 174.455 297.345 175.536C297.84 176.616 297.921 177.84 297.573 178.976Z" fill="#9E616A"/>
<path d="M254.161 170.277C254.161 170.277 249.812 160.45 244.319 162.403C238.826 164.357 241.662 173.892 241.662 173.892L262.299 204.986C262.299 204.986 292.066 185.893 288.447 185.759C284.827 185.624 283.744 179.041 283.744 179.041L268.012 186.901L267.479 184.103L266.626 184.956L264.425 183.223L254.161 170.277Z" fill="#DCC0E7"/>
<path d="M609.935 159.481C618.302 159.481 625.085 152.699 625.085 144.333C625.085 135.967 618.302 129.185 609.935 129.185C601.568 129.185 594.785 135.967 594.785 144.333C594.785 152.699 601.568 159.481 609.935 159.481Z" fill="#FFB6B6"/>
<path d="M658.558 166.623C656.809 169.1 654.258 170.897 651.336 171.707C650.166 172.055 648.959 172.26 647.74 172.318C647.59 170.94 647.229 169.593 646.672 168.324C646.728 169.675 646.54 171.025 646.117 172.308C644.287 172.205 642.498 171.725 640.861 170.9C639.253 170.092 637.856 168.919 636.78 167.477C635.704 166.034 634.98 164.36 634.664 162.589C634.022 158.445 635.901 154.377 636.58 150.239C637.262 146.102 635.982 140.862 631.931 139.775C628.847 138.946 629.192 139.305 626.628 141.208C629.296 145.152 619.444 159.603 615.412 158.342C613.132 157.63 611.673 155.539 611.202 155.539C608.034 160.997 614 170.193 607.987 172.103L608.482 171.608C612.112 167.143 604.525 157.694 608.155 153.23C609.168 151.981 610.246 150.501 609.947 148.922C609.663 147.42 607.28 146.626 606.582 147.859C607.837 144.984 605.984 141.146 602.915 140.407C600.188 139.75 600.238 140.56 597.503 140.912C597.324 139.73 596.99 138.577 596.509 137.482C596.559 138.662 596.421 139.841 596.101 140.978C595.134 140.959 594.201 140.621 593.446 140.018C591.215 138.22 591.667 134.445 593.658 132.385C595.652 130.326 598.615 129.585 601.441 129.105C602.262 123.385 618.046 122.788 620.138 128.504C621.029 124.236 626.373 122.021 630.526 123.345C634.679 124.669 637.561 128.547 639.079 132.635C640.596 136.719 641.02 141.115 641.954 145.37C642.889 149.626 644.469 153.959 647.722 156.86C650.974 159.757 656.274 160.716 659.701 158.025C660.2 159.447 660.356 160.967 660.157 162.46C659.958 163.954 659.411 165.38 658.558 166.623Z" fill="#2F2E41"/>
<path d="M800.696 201.192L798.575 211.833C798.415 212.646 798.248 213.474 798.066 214.295C796.293 213.928 794.455 214.03 792.734 214.593C794.1 216.543 795.323 218.59 796.395 220.716C795.059 224.834 793.098 228.64 789.814 231.392C787.621 233.19 785.002 234.392 782.21 234.883C779.417 235.374 776.545 235.137 773.87 234.196L773.964 233.775C770.434 226.925 772.352 218.29 776.739 211.964C778.977 208.843 781.628 206.04 784.621 203.633C787.584 201.163 790.788 198.948 793.962 196.762C794.675 196.272 795.518 196.005 796.383 195.996C797.248 195.987 798.097 196.237 798.819 196.712C799.542 197.188 800.107 197.868 800.441 198.666C800.775 199.464 800.864 200.344 800.696 201.192Z" fill="#9E9E9E"/>
<path d="M774.625 259.798C773.732 253.295 772.814 246.71 773.44 240.137C773.997 234.301 775.777 228.6 779.403 223.925C781.328 221.449 783.67 219.327 786.324 217.655C787.016 217.219 787.652 218.315 786.964 218.75C782.372 221.651 778.82 225.936 776.821 230.986C774.613 236.602 774.258 242.724 774.642 248.689C774.872 252.296 775.36 255.879 775.851 259.46C775.891 259.622 775.867 259.793 775.785 259.938C775.702 260.083 775.568 260.191 775.408 260.24C775.246 260.284 775.073 260.262 774.927 260.179C774.781 260.096 774.674 259.959 774.628 259.797L774.625 259.798Z" fill="#F2F2F2"/>
<path d="M825.136 366.776L146.865 367C146.636 366.999 146.417 366.908 146.255 366.746C146.094 366.583 146.003 366.364 146.003 366.135C146.003 365.906 146.094 365.686 146.255 365.524C146.417 365.362 146.636 365.271 146.865 365.27L825.136 365.047C825.365 365.048 825.584 365.139 825.746 365.301C825.907 365.463 825.998 365.683 825.998 365.912C825.998 366.141 825.907 366.36 825.746 366.522C825.584 366.684 825.365 366.776 825.136 366.776Z" fill="#CACACA"/>
<path d="M221.254 135.739C219.59 136.538 217.727 135.336 216.29 134.146L216.804 134.59C214.265 137.06 213.077 140.614 212.497 144.113C211.916 147.608 211.852 151.183 211.121 154.653C210.389 158.12 208.871 161.603 206.036 163.726C202.237 166.57 196.999 166.387 192.337 165.515C192.275 165.503 192.217 165.493 192.155 165.481C193.41 161.86 193.919 158.023 193.654 154.2C192.405 158.031 190.278 161.517 187.443 164.38C184.352 163.53 181.336 162.431 178.422 161.094C176.538 160.227 174.508 159.04 173.985 157.032C173.46 155.039 174.678 152.948 176.307 151.689C177.935 150.431 179.934 149.774 181.789 148.877C183.641 147.985 185.474 146.713 186.216 144.792C187.926 140.373 183.053 135.302 184.952 130.959C185.889 128.823 188.183 127.661 190.338 126.765C193.629 125.401 197.009 124.261 200.454 123.353C203.478 122.556 206.636 121.936 209.716 122.459C212.797 122.982 215.815 124.855 216.924 127.78C218.774 128.406 220.738 129.11 221.925 130.667C223.112 132.221 223.016 134.895 221.254 135.739Z" fill="#2F2E41"/>
<path d="M236.063 130.619C231.302 126.86 227.453 127.502 224.483 129.837C223.984 129.281 221.859 130.809 221.14 130.59L218.538 135.473C217.199 137.836 216.65 140.247 216.866 141.604C214.403 148.51 220.243 153.173 227.15 155.636C229.906 156.625 232.913 156.669 235.696 155.759L235.781 154.583L236.304 155.547C236.304 155.547 242.618 168.546 244.11 169.13C243.205 166.782 240.817 155.622 240.15 153.295C239.236 150.13 239.861 145.102 240.398 142.019C240.733 140.118 240.75 138.175 240.45 136.268L240.436 136.185L241.914 139.167L245.228 137.083C243.961 133.394 243.936 128.98 236.063 130.619Z" fill="#2F2E41"/>
</g>
<defs>
<clipPath id="clip0_293_5154">
<rect width="666" height="367" fill="white" transform="translate(146)"/>
</clipPath>
</defs>
</svg>
