<svg width="1268" height="531" viewBox="0 0 1268 531" fill="none" xmlns="http://www.w3.org/2000/svg">
<path d="M51.5 364.496C51.5 364.496 264.215 521.622 393.932 469.349C507.68 423.511 461.994 264.851 572.085 210.823C706.444 144.885 811.799 340.697 948.927 280.725C1071.37 227.175 1151.5 5 1151.5 5" stroke="url(#paint0_linear_293_5040)" stroke-width="10" stroke-linecap="round"/>
<path d="M45 390C45 390 277.215 540.411 406.932 488.138C520.68 442.3 472.977 269.321 588 226.789C724 176.5 817.799 362.697 954.927 302.725C1077.37 249.175 1157.5 27 1157.5 27" stroke="#EBEBEB" stroke-width="3" stroke-linecap="round"/>
<circle cx="138" cy="429" r="24" fill="white"/>
<circle cx="137.5" cy="429.5" r="12.5" fill="#DC6B01"/>
<circle cx="362" cy="477" r="24" fill="white"/>
<circle cx="361.5" cy="477.5" r="12.5" fill="#FF7D04"/>
<circle cx="577" cy="218" r="24" fill="white"/>
<circle cx="576.5" cy="218.5" r="12.5" fill="#FF9736"/>
<circle cx="785" cy="266" r="24" fill="white"/>
<circle cx="784.5" cy="266.5" r="12.5" fill="#FFB168"/>
<circle cx="1084" cy="155" r="24" fill="white"/>
<circle cx="1083.5" cy="155.5" r="12.5" fill="#FFD8B3"/>
<path d="M141.634 459.5C142.019 458.833 142.981 458.833 143.366 459.5L152.315 475H164C166.209 475 168 476.791 168 479V527C168 529.209 166.209 531 164 531H4C1.79083 531 0 529.209 0 527V479C0 476.791 1.79089 475 4 475H132.685L141.634 459.5Z" fill="#FFD8B3"/>
<path d="M19.54 511V496.9H22.1V511H19.54ZM28.565 511V499.04H23.725V496.9H35.965V499.04H31.125V511H28.565ZM37.5869 511V496.9H43.7069C45.2535 496.9 46.4469 497.273 47.2869 498.02C48.1269 498.753 48.5469 499.787 48.5469 501.12C48.5469 502.173 48.2735 503.047 47.7269 503.74C47.1802 504.42 46.3935 504.88 45.3669 505.12C46.0469 505.333 46.6069 505.847 47.0469 506.66L49.4069 511H46.5869L44.1469 506.5C43.9069 506.06 43.6202 505.76 43.2869 505.6C42.9669 505.44 42.5535 505.36 42.0469 505.36H40.1469V511H37.5869ZM40.1469 503.46H43.2669C45.1335 503.46 46.0669 502.7 46.0669 501.18C46.0669 499.673 45.1335 498.92 43.2669 498.92H40.1469V503.46ZM59.6684 511.2C58.9618 511.2 58.3284 511.067 57.7684 510.8C57.2218 510.52 56.7884 510.147 56.4684 509.68C56.1618 509.213 56.0084 508.687 56.0084 508.1C56.0084 507.38 56.1951 506.813 56.5684 506.4C56.9418 505.973 57.5484 505.667 58.3884 505.48C59.2284 505.293 60.3551 505.2 61.7684 505.2H62.4684V504.78C62.4684 504.113 62.3218 503.633 62.0284 503.34C61.7351 503.047 61.2418 502.9 60.5484 502.9C60.0018 502.9 59.4418 502.987 58.8684 503.16C58.2951 503.32 57.7151 503.573 57.1284 503.92L56.4084 502.22C56.7551 501.98 57.1618 501.773 57.6284 501.6C58.1084 501.413 58.6084 501.273 59.1284 501.18C59.6618 501.073 60.1618 501.02 60.6284 501.02C62.0551 501.02 63.1151 501.353 63.8084 502.02C64.5018 502.673 64.8484 503.693 64.8484 505.08V511H62.5084V509.44C62.2818 509.987 61.9218 510.42 61.4284 510.74C60.9351 511.047 60.3484 511.2 59.6684 511.2ZM60.1884 509.48C60.8418 509.48 61.3818 509.253 61.8084 508.8C62.2484 508.347 62.4684 507.773 62.4684 507.08V506.64H61.7884C60.5351 506.64 59.6618 506.74 59.1684 506.94C58.6884 507.127 58.4484 507.473 58.4484 507.98C58.4484 508.42 58.6018 508.78 58.9084 509.06C59.2151 509.34 59.6418 509.48 60.1884 509.48ZM70.9659 511.2C70.1393 511.2 69.3659 511.1 68.6459 510.9C67.9259 510.7 67.3259 510.413 66.8459 510.04L67.4859 508.4C67.9793 508.733 68.5326 508.993 69.1459 509.18C69.7593 509.353 70.3726 509.44 70.9859 509.44C71.6259 509.44 72.0993 509.333 72.4059 509.12C72.7259 508.893 72.8859 508.6 72.8859 508.24C72.8859 507.68 72.4726 507.32 71.6459 507.16L69.6459 506.78C67.9526 506.46 67.1059 505.58 67.1059 504.14C67.1059 503.5 67.2793 502.947 67.6259 502.48C67.9859 502.013 68.4793 501.653 69.1059 501.4C69.7326 501.147 70.4526 501.02 71.2659 501.02C71.9593 501.02 72.6259 501.12 73.2659 501.32C73.9059 501.507 74.4526 501.793 74.9059 502.18L74.2259 503.82C73.8393 503.5 73.3726 503.247 72.8259 503.06C72.2926 502.873 71.7793 502.78 71.2859 502.78C70.6326 502.78 70.1459 502.893 69.8259 503.12C69.5193 503.347 69.3659 503.647 69.3659 504.02C69.3659 504.607 69.7459 504.967 70.5059 505.1L72.5059 505.48C73.3726 505.64 74.0259 505.933 74.4659 506.36C74.9193 506.787 75.1459 507.36 75.1459 508.08C75.1459 509.053 74.7659 509.82 74.0059 510.38C73.2459 510.927 72.2326 511.2 70.9659 511.2ZM80.7316 511.2C79.9049 511.2 79.1316 511.1 78.4116 510.9C77.6916 510.7 77.0916 510.413 76.6116 510.04L77.2516 508.4C77.7449 508.733 78.2982 508.993 78.9116 509.18C79.5249 509.353 80.1382 509.44 80.7516 509.44C81.3916 509.44 81.8649 509.333 82.1716 509.12C82.4916 508.893 82.6516 508.6 82.6516 508.24C82.6516 507.68 82.2382 507.32 81.4116 507.16L79.4116 506.78C77.7182 506.46 76.8716 505.58 76.8716 504.14C76.8716 503.5 77.0449 502.947 77.3916 502.48C77.7516 502.013 78.2449 501.653 78.8716 501.4C79.4982 501.147 80.2182 501.02 81.0316 501.02C81.7249 501.02 82.3916 501.12 83.0316 501.32C83.6716 501.507 84.2182 501.793 84.6716 502.18L83.9916 503.82C83.6049 503.5 83.1382 503.247 82.5916 503.06C82.0582 502.873 81.5449 502.78 81.0516 502.78C80.3982 502.78 79.9116 502.893 79.5916 503.12C79.2849 503.347 79.1316 503.647 79.1316 504.02C79.1316 504.607 79.5116 504.967 80.2716 505.1L82.2716 505.48C83.1382 505.64 83.7916 505.933 84.2316 506.36C84.6849 506.787 84.9116 507.36 84.9116 508.08C84.9116 509.053 84.5316 509.82 83.7716 510.38C83.0116 510.927 81.9982 511.2 80.7316 511.2ZM86.7572 499.12V496.68H89.5572V499.12H86.7572ZM86.9172 511V501.22H89.4172V511H86.9172ZM95.5948 511.2C94.7682 511.2 93.9948 511.1 93.2748 510.9C92.5548 510.7 91.9548 510.413 91.4748 510.04L92.1148 508.4C92.6082 508.733 93.1615 508.993 93.7748 509.18C94.3882 509.353 95.0015 509.44 95.6148 509.44C96.2548 509.44 96.7282 509.333 97.0348 509.12C97.3548 508.893 97.5148 508.6 97.5148 508.24C97.5148 507.68 97.1015 507.32 96.2748 507.16L94.2748 506.78C92.5815 506.46 91.7348 505.58 91.7348 504.14C91.7348 503.5 91.9082 502.947 92.2548 502.48C92.6148 502.013 93.1082 501.653 93.7348 501.4C94.3615 501.147 95.0815 501.02 95.8948 501.02C96.5882 501.02 97.2548 501.12 97.8948 501.32C98.5348 501.507 99.0815 501.793 99.5348 502.18L98.8548 503.82C98.4682 503.5 98.0015 503.247 97.4548 503.06C96.9215 502.873 96.4082 502.78 95.9148 502.78C95.2615 502.78 94.7748 502.893 94.4548 503.12C94.1482 503.347 93.9948 503.647 93.9948 504.02C93.9948 504.607 94.3748 504.967 95.1348 505.1L97.1348 505.48C98.0015 505.64 98.6548 505.933 99.0948 506.36C99.5482 506.787 99.7748 507.36 99.7748 508.08C99.7748 509.053 99.3948 509.82 98.6348 510.38C97.8748 510.927 96.8615 511.2 95.5948 511.2ZM106.163 511.2C103.576 511.2 102.283 509.92 102.283 507.36V503.1H100.403V501.22H102.283V498.3H104.783V501.22H107.743V503.1H104.783V507.22C104.783 507.86 104.923 508.34 105.203 508.66C105.483 508.98 105.936 509.14 106.563 509.14C106.749 509.14 106.943 509.12 107.143 509.08C107.343 509.027 107.549 508.973 107.763 508.92L108.143 510.76C107.903 510.893 107.596 511 107.223 511.08C106.863 511.16 106.509 511.2 106.163 511.2ZM112.579 511.2C111.872 511.2 111.239 511.067 110.679 510.8C110.132 510.52 109.699 510.147 109.379 509.68C109.072 509.213 108.919 508.687 108.919 508.1C108.919 507.38 109.105 506.813 109.479 506.4C109.852 505.973 110.459 505.667 111.299 505.48C112.139 505.293 113.265 505.2 114.679 505.2H115.379V504.78C115.379 504.113 115.232 503.633 114.939 503.34C114.645 503.047 114.152 502.9 113.459 502.9C112.912 502.9 112.352 502.987 111.779 503.16C111.205 503.32 110.625 503.573 110.039 503.92L109.319 502.22C109.665 501.98 110.072 501.773 110.539 501.6C111.019 501.413 111.519 501.273 112.039 501.18C112.572 501.073 113.072 501.02 113.539 501.02C114.965 501.02 116.025 501.353 116.719 502.02C117.412 502.673 117.759 503.693 117.759 505.08V511H115.419V509.44C115.192 509.987 114.832 510.42 114.339 510.74C113.845 511.047 113.259 511.2 112.579 511.2ZM113.099 509.48C113.752 509.48 114.292 509.253 114.719 508.8C115.159 508.347 115.379 507.773 115.379 507.08V506.64H114.699C113.445 506.64 112.572 506.74 112.079 506.94C111.599 507.127 111.359 507.473 111.359 507.98C111.359 508.42 111.512 508.78 111.819 509.06C112.125 509.34 112.552 509.48 113.099 509.48ZM120.296 511V501.22H122.736V502.74C123.069 502.18 123.516 501.753 124.076 501.46C124.649 501.167 125.289 501.02 125.996 501.02C128.303 501.02 129.456 502.36 129.456 505.04V511H126.956V505.16C126.956 504.4 126.809 503.847 126.516 503.5C126.236 503.153 125.796 502.98 125.196 502.98C124.463 502.98 123.876 503.213 123.436 503.68C123.009 504.133 122.796 504.74 122.796 505.5V511H120.296ZM136.515 511.2C135.489 511.2 134.595 510.993 133.835 510.58C133.075 510.153 132.489 509.553 132.075 508.78C131.662 508.007 131.455 507.1 131.455 506.06C131.455 505.02 131.662 504.127 132.075 503.38C132.489 502.62 133.075 502.04 133.835 501.64C134.595 501.227 135.489 501.02 136.515 501.02C137.142 501.02 137.762 501.12 138.375 501.32C138.989 501.52 139.495 501.8 139.895 502.16L139.155 503.9C138.809 503.593 138.415 503.36 137.975 503.2C137.549 503.04 137.135 502.96 136.735 502.96C135.869 502.96 135.195 503.233 134.715 503.78C134.249 504.313 134.015 505.08 134.015 506.08C134.015 507.067 134.249 507.847 134.715 508.42C135.195 508.98 135.869 509.26 136.735 509.26C137.122 509.26 137.535 509.18 137.975 509.02C138.415 508.86 138.809 508.62 139.155 508.3L139.895 510.06C139.495 510.407 138.982 510.687 138.355 510.9C137.742 511.1 137.129 511.2 136.515 511.2ZM146.054 511.2C144.947 511.2 143.994 510.993 143.194 510.58C142.394 510.167 141.774 509.58 141.334 508.82C140.907 508.06 140.694 507.16 140.694 506.12C140.694 505.107 140.9 504.22 141.314 503.46C141.74 502.7 142.32 502.107 143.054 501.68C143.8 501.24 144.647 501.02 145.594 501.02C146.98 501.02 148.074 501.46 148.874 502.34C149.687 503.22 150.094 504.42 150.094 505.94V506.68H143.094C143.28 508.427 144.28 509.3 146.094 509.3C146.64 509.3 147.187 509.22 147.734 509.06C148.28 508.887 148.78 508.62 149.234 508.26L149.934 509.94C149.467 510.327 148.88 510.633 148.174 510.86C147.467 511.087 146.76 511.2 146.054 511.2ZM145.694 502.72C144.96 502.72 144.367 502.947 143.914 503.4C143.46 503.853 143.187 504.467 143.094 505.24H148.014C147.96 504.427 147.734 503.807 147.334 503.38C146.947 502.94 146.4 502.72 145.694 502.72Z" fill="#4A0101"/>
<path d="M587.778 254.5C587.373 253.833 586.359 253.833 585.954 254.5L576.525 270H564.214C561.887 270 560 271.791 560 274V322C560 324.209 561.887 326 564.214 326H732.786C735.113 326 737 324.209 737 322V274C737 271.791 735.113 270 732.786 270H597.207L587.778 254.5Z" fill="#C1CEFD"/>
<path d="M568.54 305V290.9H571.1V305H568.54ZM573.925 305V295.22H576.365V296.74C576.698 296.18 577.145 295.753 577.705 295.46C578.278 295.167 578.918 295.02 579.625 295.02C581.932 295.02 583.085 296.36 583.085 299.04V305H580.585V299.16C580.585 298.4 580.438 297.847 580.145 297.5C579.865 297.153 579.425 296.98 578.825 296.98C578.092 296.98 577.505 297.213 577.065 297.68C576.638 298.133 576.425 298.74 576.425 299.5V305H573.925ZM590.144 305.2C589.118 305.2 588.224 304.993 587.464 304.58C586.704 304.153 586.118 303.553 585.704 302.78C585.291 302.007 585.084 301.1 585.084 300.06C585.084 299.02 585.291 298.127 585.704 297.38C586.118 296.62 586.704 296.04 587.464 295.64C588.224 295.227 589.118 295.02 590.144 295.02C590.771 295.02 591.391 295.12 592.004 295.32C592.618 295.52 593.124 295.8 593.524 296.16L592.784 297.9C592.438 297.593 592.044 297.36 591.604 297.2C591.178 297.04 590.764 296.96 590.364 296.96C589.498 296.96 588.824 297.233 588.344 297.78C587.878 298.313 587.644 299.08 587.644 300.08C587.644 301.067 587.878 301.847 588.344 302.42C588.824 302.98 589.498 303.26 590.364 303.26C590.751 303.26 591.164 303.18 591.604 303.02C592.044 302.86 592.438 302.62 592.784 302.3L593.524 304.06C593.124 304.407 592.611 304.687 591.984 304.9C591.371 305.1 590.758 305.2 590.144 305.2ZM599.323 305.2C598.309 305.2 597.429 304.993 596.683 304.58C595.936 304.167 595.356 303.58 594.943 302.82C594.529 302.047 594.323 301.14 594.323 300.1C594.323 299.06 594.529 298.16 594.943 297.4C595.356 296.64 595.936 296.053 596.683 295.64C597.429 295.227 598.309 295.02 599.323 295.02C600.336 295.02 601.216 295.227 601.963 295.64C602.709 296.053 603.289 296.64 603.703 297.4C604.116 298.16 604.323 299.06 604.323 300.1C604.323 301.14 604.116 302.047 603.703 302.82C603.289 303.58 602.709 304.167 601.963 304.58C601.216 304.993 600.336 305.2 599.323 305.2ZM599.323 303.3C600.069 303.3 600.669 303.033 601.123 302.5C601.576 301.953 601.803 301.153 601.803 300.1C601.803 299.033 601.576 298.24 601.123 297.72C600.669 297.187 600.069 296.92 599.323 296.92C598.576 296.92 597.976 297.187 597.523 297.72C597.069 298.24 596.843 299.033 596.843 300.1C596.843 301.153 597.069 301.953 597.523 302.5C597.976 303.033 598.576 303.3 599.323 303.3ZM606.426 305V295.22H608.866V296.72C609.159 296.187 609.566 295.773 610.086 295.48C610.606 295.173 611.206 295.02 611.886 295.02C613.353 295.02 614.313 295.66 614.766 296.94C615.073 296.34 615.513 295.873 616.086 295.54C616.659 295.193 617.313 295.02 618.046 295.02C620.246 295.02 621.346 296.36 621.346 299.04V305H618.846V299.14C618.846 298.393 618.719 297.847 618.466 297.5C618.226 297.153 617.813 296.98 617.226 296.98C616.573 296.98 616.059 297.213 615.686 297.68C615.313 298.133 615.126 298.767 615.126 299.58V305H612.626V299.14C612.626 298.393 612.499 297.847 612.246 297.5C612.006 297.153 611.599 296.98 611.026 296.98C610.373 296.98 609.859 297.213 609.486 297.68C609.113 298.133 608.926 298.767 608.926 299.58V305H606.426ZM628.745 305.2C627.638 305.2 626.685 304.993 625.885 304.58C625.085 304.167 624.465 303.58 624.025 302.82C623.598 302.06 623.385 301.16 623.385 300.12C623.385 299.107 623.592 298.22 624.005 297.46C624.432 296.7 625.012 296.107 625.745 295.68C626.492 295.24 627.338 295.02 628.285 295.02C629.672 295.02 630.765 295.46 631.565 296.34C632.378 297.22 632.785 298.42 632.785 299.94V300.68H625.785C625.972 302.427 626.972 303.3 628.785 303.3C629.332 303.3 629.878 303.22 630.425 303.06C630.972 302.887 631.472 302.62 631.925 302.26L632.625 303.94C632.158 304.327 631.572 304.633 630.865 304.86C630.158 305.087 629.452 305.2 628.745 305.2ZM628.385 296.72C627.652 296.72 627.058 296.947 626.605 297.4C626.152 297.853 625.878 298.467 625.785 299.24H630.705C630.652 298.427 630.425 297.807 630.025 297.38C629.638 296.94 629.092 296.72 628.385 296.72ZM644.635 305.2C642.049 305.2 640.755 303.92 640.755 301.36V297.1H638.875V295.22H640.755V292.3H643.255V295.22H646.215V297.1H643.255V301.22C643.255 301.86 643.395 302.34 643.675 302.66C643.955 302.98 644.409 303.14 645.035 303.14C645.222 303.14 645.415 303.12 645.615 303.08C645.815 303.027 646.022 302.973 646.235 302.92L646.615 304.76C646.375 304.893 646.069 305 645.695 305.08C645.335 305.16 644.982 305.2 644.635 305.2ZM651.051 305.2C650.345 305.2 649.711 305.067 649.151 304.8C648.605 304.52 648.171 304.147 647.851 303.68C647.545 303.213 647.391 302.687 647.391 302.1C647.391 301.38 647.578 300.813 647.951 300.4C648.325 299.973 648.931 299.667 649.771 299.48C650.611 299.293 651.738 299.2 653.151 299.2H653.851V298.78C653.851 298.113 653.705 297.633 653.411 297.34C653.118 297.047 652.625 296.9 651.931 296.9C651.385 296.9 650.825 296.987 650.251 297.16C649.678 297.32 649.098 297.573 648.511 297.92L647.791 296.22C648.138 295.98 648.545 295.773 649.011 295.6C649.491 295.413 649.991 295.273 650.511 295.18C651.045 295.073 651.545 295.02 652.011 295.02C653.438 295.02 654.498 295.353 655.191 296.02C655.885 296.673 656.231 297.693 656.231 299.08V305H653.891V303.44C653.665 303.987 653.305 304.42 652.811 304.74C652.318 305.047 651.731 305.2 651.051 305.2ZM651.571 303.48C652.225 303.48 652.765 303.253 653.191 302.8C653.631 302.347 653.851 301.773 653.851 301.08V300.64H653.171C651.918 300.64 651.045 300.74 650.551 300.94C650.071 301.127 649.831 301.473 649.831 301.98C649.831 302.42 649.985 302.78 650.291 303.06C650.598 303.34 651.025 303.48 651.571 303.48ZM657.409 305L661.509 299.94L657.669 295.22H660.589L662.949 298.24L665.309 295.22H668.229L664.369 299.96L668.489 305H665.549L662.929 301.7L660.329 305H657.409ZM675.077 305V295.22H677.517V296.74C677.851 296.18 678.297 295.753 678.857 295.46C679.431 295.167 680.071 295.02 680.777 295.02C683.084 295.02 684.237 296.36 684.237 299.04V305H681.737V299.16C681.737 298.4 681.591 297.847 681.297 297.5C681.017 297.153 680.577 296.98 679.977 296.98C679.244 296.98 678.657 297.213 678.217 297.68C677.791 298.133 677.577 298.74 677.577 299.5V305H675.077ZM691.237 305.2C690.223 305.2 689.343 304.993 688.597 304.58C687.85 304.167 687.27 303.58 686.857 302.82C686.443 302.047 686.237 301.14 686.237 300.1C686.237 299.06 686.443 298.16 686.857 297.4C687.27 296.64 687.85 296.053 688.597 295.64C689.343 295.227 690.223 295.02 691.237 295.02C692.25 295.02 693.13 295.227 693.877 295.64C694.623 296.053 695.203 296.64 695.617 297.4C696.03 298.16 696.237 299.06 696.237 300.1C696.237 301.14 696.03 302.047 695.617 302.82C695.203 303.58 694.623 304.167 693.877 304.58C693.13 304.993 692.25 305.2 691.237 305.2ZM691.237 303.3C691.983 303.3 692.583 303.033 693.037 302.5C693.49 301.953 693.717 301.153 693.717 300.1C693.717 299.033 693.49 298.24 693.037 297.72C692.583 297.187 691.983 296.92 691.237 296.92C690.49 296.92 689.89 297.187 689.437 297.72C688.983 298.24 688.757 299.033 688.757 300.1C688.757 301.153 688.983 301.953 689.437 302.5C689.89 303.033 690.49 303.3 691.237 303.3ZM702.682 305.2C700.096 305.2 698.802 303.92 698.802 301.36V297.1H696.922V295.22H698.802V292.3H701.302V295.22H704.262V297.1H701.302V301.22C701.302 301.86 701.442 302.34 701.722 302.66C702.002 302.98 702.456 303.14 703.082 303.14C703.269 303.14 703.462 303.12 703.662 303.08C703.862 303.027 704.069 302.973 704.282 302.92L704.662 304.76C704.422 304.893 704.116 305 703.742 305.08C703.382 305.16 703.029 305.2 702.682 305.2ZM705.718 293.12V290.68H708.518V293.12H705.718ZM705.878 305V295.22H708.378V305H705.878ZM715.496 305.2C714.469 305.2 713.576 304.993 712.816 304.58C712.056 304.153 711.469 303.553 711.056 302.78C710.642 302.007 710.436 301.1 710.436 300.06C710.436 299.02 710.642 298.127 711.056 297.38C711.469 296.62 712.056 296.04 712.816 295.64C713.576 295.227 714.469 295.02 715.496 295.02C716.122 295.02 716.742 295.12 717.356 295.32C717.969 295.52 718.476 295.8 718.876 296.16L718.136 297.9C717.789 297.593 717.396 297.36 716.956 297.2C716.529 297.04 716.116 296.96 715.716 296.96C714.849 296.96 714.176 297.233 713.696 297.78C713.229 298.313 712.996 299.08 712.996 300.08C712.996 301.067 713.229 301.847 713.696 302.42C714.176 302.98 714.849 303.26 715.716 303.26C716.102 303.26 716.516 303.18 716.956 303.02C717.396 302.86 717.789 302.62 718.136 302.3L718.876 304.06C718.476 304.407 717.962 304.687 717.336 304.9C716.722 305.1 716.109 305.2 715.496 305.2ZM725.034 305.2C723.927 305.2 722.974 304.993 722.174 304.58C721.374 304.167 720.754 303.58 720.314 302.82C719.887 302.06 719.674 301.16 719.674 300.12C719.674 299.107 719.881 298.22 720.294 297.46C720.721 296.7 721.301 296.107 722.034 295.68C722.781 295.24 723.627 295.02 724.574 295.02C725.961 295.02 727.054 295.46 727.854 296.34C728.667 297.22 729.074 298.42 729.074 299.94V300.68H722.074C722.261 302.427 723.261 303.3 725.074 303.3C725.621 303.3 726.167 303.22 726.714 303.06C727.261 302.887 727.761 302.62 728.214 302.26L728.914 303.94C728.447 304.327 727.861 304.633 727.154 304.86C726.447 305.087 725.741 305.2 725.034 305.2ZM724.674 296.72C723.941 296.72 723.347 296.947 722.894 297.4C722.441 297.853 722.167 298.467 722.074 299.24H726.994C726.941 298.427 726.714 297.807 726.314 297.38C725.927 296.94 725.381 296.72 724.674 296.72Z" fill="#284BC8"/>
<path d="M371.634 455.5C372.019 456.167 372.981 456.167 373.366 455.5L382.315 440H394C396.209 440 398 438.209 398 436V388C398 385.791 396.209 384 394 384H234C231.791 384 230 385.791 230 388V436C230 438.209 231.791 440 234 440H362.685L371.634 455.5Z" fill="#C1F1B9"/>
<path d="M273.32 420.2C271.76 420.2 270.44 419.907 269.36 419.32C268.293 418.733 267.48 417.9 266.92 416.82C266.36 415.74 266.08 414.46 266.08 412.98C266.08 411.487 266.367 410.2 266.94 409.12C267.513 408.027 268.34 407.187 269.42 406.6C270.5 406 271.793 405.7 273.3 405.7C274.287 405.7 275.213 405.847 276.08 406.14C276.947 406.42 277.667 406.813 278.24 407.32L277.38 409.32C276.753 408.827 276.113 408.473 275.46 408.26C274.807 408.047 274.087 407.94 273.3 407.94C271.807 407.94 270.673 408.373 269.9 409.24C269.14 410.107 268.76 411.353 268.76 412.98C268.76 414.62 269.153 415.867 269.94 416.72C270.727 417.573 271.893 418 273.44 418C273.88 418 274.327 417.967 274.78 417.9C275.247 417.82 275.707 417.707 276.16 417.56V414.28H272.92V412.38H278.3V419.16C277.647 419.48 276.873 419.733 275.98 419.92C275.087 420.107 274.2 420.2 273.32 420.2ZM286.127 420.2C285.02 420.2 283.993 420.06 283.047 419.78C282.1 419.487 281.3 419.093 280.647 418.6L281.427 416.58C282.08 417.047 282.793 417.407 283.567 417.66C284.353 417.913 285.207 418.04 286.127 418.04C287.18 418.04 287.947 417.867 288.427 417.52C288.907 417.16 289.147 416.7 289.147 416.14C289.147 415.673 288.973 415.307 288.627 415.04C288.293 414.773 287.713 414.553 286.887 414.38L284.687 413.92C282.18 413.387 280.927 412.1 280.927 410.06C280.927 409.18 281.16 408.413 281.627 407.76C282.093 407.107 282.74 406.6 283.567 406.24C284.393 405.88 285.347 405.7 286.427 405.7C287.387 405.7 288.287 405.847 289.127 406.14C289.967 406.42 290.667 406.82 291.227 407.34L290.447 409.26C289.34 408.327 287.993 407.86 286.407 407.86C285.487 407.86 284.767 408.053 284.247 408.44C283.727 408.827 283.467 409.333 283.467 409.96C283.467 410.44 283.627 410.827 283.947 411.12C284.267 411.4 284.813 411.62 285.587 411.78L287.767 412.24C289.087 412.52 290.067 412.96 290.707 413.56C291.36 414.16 291.687 414.96 291.687 415.96C291.687 416.8 291.46 417.54 291.007 418.18C290.553 418.82 289.907 419.32 289.067 419.68C288.24 420.027 287.26 420.2 286.127 420.2ZM296.991 420V408.04H292.151V405.9H304.391V408.04H299.551V420H296.991ZM318.143 408.12V405.68H320.923V408.12H318.143ZM311.823 420V412.1H309.943V410.22H311.823V410.2C311.823 408.813 312.183 407.767 312.903 407.06C313.637 406.353 314.77 405.953 316.303 405.86L317.183 405.82L317.303 407.66L316.523 407.7C315.723 407.753 315.157 407.953 314.823 408.3C314.49 408.633 314.323 409.133 314.323 409.8V410.22H320.783V420H318.283V412.1H314.323V420H311.823ZM326.79 420.2C325.63 420.2 324.77 419.887 324.21 419.26C323.663 418.62 323.39 417.687 323.39 416.46V405.9H325.89V416.34C325.89 417.54 326.397 418.14 327.41 418.14C327.557 418.14 327.703 418.133 327.85 418.12C327.997 418.107 328.137 418.08 328.27 418.04L328.23 420.02C327.75 420.14 327.27 420.2 326.79 420.2ZM333.177 420.2C332.017 420.2 331.157 419.887 330.597 419.26C330.05 418.62 329.777 417.687 329.777 416.46V405.9H332.277V416.34C332.277 417.54 332.783 418.14 333.797 418.14C333.943 418.14 334.09 418.133 334.237 418.12C334.383 418.107 334.523 418.08 334.657 418.04L334.617 420.02C334.137 420.14 333.657 420.2 333.177 420.2ZM336.003 408.12V405.68H338.803V408.12H336.003ZM336.163 420V410.22H338.663V420H336.163ZM341.261 420V410.22H343.701V411.74C344.034 411.18 344.481 410.753 345.041 410.46C345.614 410.167 346.254 410.02 346.961 410.02C349.268 410.02 350.421 411.36 350.421 414.04V420H347.921V414.16C347.921 413.4 347.774 412.847 347.481 412.5C347.201 412.153 346.761 411.98 346.161 411.98C345.428 411.98 344.841 412.213 344.401 412.68C343.974 413.133 343.761 413.74 343.761 414.5V420H341.261ZM357.52 423.8C356.613 423.8 355.76 423.693 354.96 423.48C354.173 423.28 353.48 422.967 352.88 422.54L353.6 420.8C354.16 421.173 354.76 421.447 355.4 421.62C356.04 421.807 356.68 421.9 357.32 421.9C359.107 421.9 360 421.04 360 419.32V417.98C359.72 418.527 359.287 418.96 358.7 419.28C358.127 419.6 357.487 419.76 356.78 419.76C355.9 419.76 355.133 419.56 354.48 419.16C353.827 418.747 353.32 418.173 352.96 417.44C352.6 416.707 352.42 415.853 352.42 414.88C352.42 413.907 352.6 413.06 352.96 412.34C353.32 411.607 353.827 411.04 354.48 410.64C355.133 410.227 355.9 410.02 356.78 410.02C357.513 410.02 358.167 410.187 358.74 410.52C359.313 410.84 359.733 411.273 360 411.82V410.22H362.44V419.02C362.44 420.607 362.02 421.8 361.18 422.6C360.34 423.4 359.12 423.8 357.52 423.8ZM357.46 417.86C358.233 417.86 358.847 417.593 359.3 417.06C359.753 416.527 359.98 415.8 359.98 414.88C359.98 413.96 359.753 413.24 359.3 412.72C358.847 412.187 358.233 411.92 357.46 411.92C356.687 411.92 356.073 412.187 355.62 412.72C355.167 413.24 354.94 413.96 354.94 414.88C354.94 415.8 355.167 416.527 355.62 417.06C356.073 417.593 356.687 417.86 357.46 417.86Z" fill="#0F3F07"/>
<path d="M810.366 241.5C809.981 242.167 809.019 242.167 808.634 241.5L799.685 226H788C785.791 226 784 224.209 784 222V174C784 171.791 785.791 170 788 170H948C950.209 170 952 171.791 952 174V222C952 224.209 950.209 226 948 226H819.315L810.366 241.5Z" fill="#BBECEF"/>
<path d="M808.54 206V191.9H811.1V203.82H817.86V206H808.54ZM824.253 206.2C823.146 206.2 822.193 205.993 821.393 205.58C820.593 205.167 819.973 204.58 819.533 203.82C819.106 203.06 818.893 202.16 818.893 201.12C818.893 200.107 819.099 199.22 819.513 198.46C819.939 197.7 820.519 197.107 821.253 196.68C821.999 196.24 822.846 196.02 823.793 196.02C825.179 196.02 826.273 196.46 827.073 197.34C827.886 198.22 828.293 199.42 828.293 200.94V201.68H821.293C821.479 203.427 822.479 204.3 824.293 204.3C824.839 204.3 825.386 204.22 825.933 204.06C826.479 203.887 826.979 203.62 827.433 203.26L828.133 204.94C827.666 205.327 827.079 205.633 826.373 205.86C825.666 206.087 824.959 206.2 824.253 206.2ZM823.893 197.72C823.159 197.72 822.566 197.947 822.113 198.4C821.659 198.853 821.386 199.467 821.293 200.24H826.213C826.159 199.427 825.933 198.807 825.533 198.38C825.146 197.94 824.599 197.72 823.893 197.72ZM834.833 209.8C833.926 209.8 833.073 209.693 832.273 209.48C831.486 209.28 830.793 208.967 830.193 208.54L830.913 206.8C831.473 207.173 832.073 207.447 832.713 207.62C833.353 207.807 833.993 207.9 834.633 207.9C836.419 207.9 837.313 207.04 837.313 205.32V203.98C837.033 204.527 836.599 204.96 836.013 205.28C835.439 205.6 834.799 205.76 834.093 205.76C833.213 205.76 832.446 205.56 831.793 205.16C831.139 204.747 830.633 204.173 830.273 203.44C829.913 202.707 829.733 201.853 829.733 200.88C829.733 199.907 829.913 199.06 830.273 198.34C830.633 197.607 831.139 197.04 831.793 196.64C832.446 196.227 833.213 196.02 834.093 196.02C834.826 196.02 835.479 196.187 836.053 196.52C836.626 196.84 837.046 197.273 837.313 197.82V196.22H839.753V205.02C839.753 206.607 839.333 207.8 838.493 208.6C837.653 209.4 836.433 209.8 834.833 209.8ZM834.773 203.86C835.546 203.86 836.159 203.593 836.613 203.06C837.066 202.527 837.293 201.8 837.293 200.88C837.293 199.96 837.066 199.24 836.613 198.72C836.159 198.187 835.546 197.92 834.773 197.92C833.999 197.92 833.386 198.187 832.933 198.72C832.479 199.24 832.253 199.96 832.253 200.88C832.253 201.8 832.479 202.527 832.933 203.06C833.386 203.593 833.999 203.86 834.773 203.86ZM845.563 206.2C844.856 206.2 844.223 206.067 843.663 205.8C843.116 205.52 842.683 205.147 842.363 204.68C842.056 204.213 841.903 203.687 841.903 203.1C841.903 202.38 842.09 201.813 842.463 201.4C842.836 200.973 843.443 200.667 844.283 200.48C845.123 200.293 846.25 200.2 847.663 200.2H848.363V199.78C848.363 199.113 848.216 198.633 847.923 198.34C847.63 198.047 847.136 197.9 846.443 197.9C845.896 197.9 845.336 197.987 844.763 198.16C844.19 198.32 843.61 198.573 843.023 198.92L842.303 197.22C842.65 196.98 843.056 196.773 843.523 196.6C844.003 196.413 844.503 196.273 845.023 196.18C845.556 196.073 846.056 196.02 846.523 196.02C847.95 196.02 849.01 196.353 849.703 197.02C850.396 197.673 850.743 198.693 850.743 200.08V206H848.403V204.44C848.176 204.987 847.816 205.42 847.323 205.74C846.83 206.047 846.243 206.2 845.563 206.2ZM846.083 204.48C846.736 204.48 847.276 204.253 847.703 203.8C848.143 203.347 848.363 202.773 848.363 202.08V201.64H847.683C846.43 201.64 845.556 201.74 845.063 201.94C844.583 202.127 844.343 202.473 844.343 202.98C844.343 203.42 844.496 203.78 844.803 204.06C845.11 204.34 845.536 204.48 846.083 204.48ZM856.68 206.2C855.52 206.2 854.66 205.887 854.1 205.26C853.554 204.62 853.28 203.687 853.28 202.46V191.9H855.78V202.34C855.78 203.54 856.287 204.14 857.3 204.14C857.447 204.14 857.594 204.133 857.74 204.12C857.887 204.107 858.027 204.08 858.16 204.04L858.12 206.02C857.64 206.14 857.16 206.2 856.68 206.2ZM868.638 206.2C867.811 206.2 867.038 206.1 866.318 205.9C865.598 205.7 864.998 205.413 864.518 205.04L865.158 203.4C865.651 203.733 866.204 203.993 866.818 204.18C867.431 204.353 868.044 204.44 868.658 204.44C869.298 204.44 869.771 204.333 870.078 204.12C870.398 203.893 870.558 203.6 870.558 203.24C870.558 202.68 870.144 202.32 869.318 202.16L867.318 201.78C865.624 201.46 864.778 200.58 864.778 199.14C864.778 198.5 864.951 197.947 865.298 197.48C865.658 197.013 866.151 196.653 866.778 196.4C867.404 196.147 868.124 196.02 868.938 196.02C869.631 196.02 870.298 196.12 870.938 196.32C871.578 196.507 872.124 196.793 872.578 197.18L871.898 198.82C871.511 198.5 871.044 198.247 870.498 198.06C869.964 197.873 869.451 197.78 868.958 197.78C868.304 197.78 867.818 197.893 867.498 198.12C867.191 198.347 867.038 198.647 867.038 199.02C867.038 199.607 867.418 199.967 868.178 200.1L870.178 200.48C871.044 200.64 871.698 200.933 872.138 201.36C872.591 201.787 872.818 202.36 872.818 203.08C872.818 204.053 872.438 204.82 871.678 205.38C870.918 205.927 869.904 206.2 868.638 206.2ZM879.643 206.2C878.537 206.2 877.583 205.993 876.783 205.58C875.983 205.167 875.363 204.58 874.923 203.82C874.497 203.06 874.283 202.16 874.283 201.12C874.283 200.107 874.49 199.22 874.903 198.46C875.33 197.7 875.91 197.107 876.643 196.68C877.39 196.24 878.237 196.02 879.183 196.02C880.57 196.02 881.663 196.46 882.463 197.34C883.277 198.22 883.683 199.42 883.683 200.94V201.68H876.683C876.87 203.427 877.87 204.3 879.683 204.3C880.23 204.3 880.777 204.22 881.323 204.06C881.87 203.887 882.37 203.62 882.823 203.26L883.523 204.94C883.057 205.327 882.47 205.633 881.763 205.86C881.057 206.087 880.35 206.2 879.643 206.2ZM879.283 197.72C878.55 197.72 877.957 197.947 877.503 198.4C877.05 198.853 876.777 199.467 876.683 200.24H881.603C881.55 199.427 881.323 198.807 880.923 198.38C880.537 197.94 879.99 197.72 879.283 197.72ZM885.663 206V196.22H888.103V197.94C888.583 196.78 889.61 196.14 891.183 196.02L891.943 195.96L892.103 198.08L890.663 198.22C889.023 198.38 888.203 199.22 888.203 200.74V206H885.663ZM896.981 206L892.741 196.22H895.401L898.121 203.06L900.941 196.22H903.441L899.141 206H896.981ZM904.488 194.12V191.68H907.288V194.12H904.488ZM904.648 206V196.22H907.148V206H904.648ZM914.265 206.2C913.239 206.2 912.345 205.993 911.585 205.58C910.825 205.153 910.239 204.553 909.825 203.78C909.412 203.007 909.205 202.1 909.205 201.06C909.205 200.02 909.412 199.127 909.825 198.38C910.239 197.62 910.825 197.04 911.585 196.64C912.345 196.227 913.239 196.02 914.265 196.02C914.892 196.02 915.512 196.12 916.125 196.32C916.739 196.52 917.245 196.8 917.645 197.16L916.905 198.9C916.559 198.593 916.165 198.36 915.725 198.2C915.299 198.04 914.885 197.96 914.485 197.96C913.619 197.96 912.945 198.233 912.465 198.78C911.999 199.313 911.765 200.08 911.765 201.08C911.765 202.067 911.999 202.847 912.465 203.42C912.945 203.98 913.619 204.26 914.485 204.26C914.872 204.26 915.285 204.18 915.725 204.02C916.165 203.86 916.559 203.62 916.905 203.3L917.645 205.06C917.245 205.407 916.732 205.687 916.105 205.9C915.492 206.1 914.879 206.2 914.265 206.2ZM923.804 206.2C922.697 206.2 921.744 205.993 920.944 205.58C920.144 205.167 919.524 204.58 919.084 203.82C918.657 203.06 918.444 202.16 918.444 201.12C918.444 200.107 918.65 199.22 919.064 198.46C919.49 197.7 920.07 197.107 920.804 196.68C921.55 196.24 922.397 196.02 923.344 196.02C924.73 196.02 925.824 196.46 926.624 197.34C927.437 198.22 927.844 199.42 927.844 200.94V201.68H920.844C921.03 203.427 922.03 204.3 923.844 204.3C924.39 204.3 924.937 204.22 925.484 204.06C926.03 203.887 926.53 203.62 926.984 203.26L927.684 204.94C927.217 205.327 926.63 205.633 925.924 205.86C925.217 206.087 924.51 206.2 923.804 206.2ZM923.444 197.72C922.71 197.72 922.117 197.947 921.664 198.4C921.21 198.853 920.937 199.467 920.844 200.24H925.764C925.71 199.427 925.484 198.807 925.084 198.38C924.697 197.94 924.15 197.72 923.444 197.72Z" fill="#093A3D"/>
<path d="M1112.88 182.5C1112.46 181.833 1111.4 181.833 1110.98 182.5L1101.18 198H1088.38C1085.96 198 1084 199.791 1084 202V250C1084 252.209 1085.96 254 1088.38 254H1263.62C1266.04 254 1268 252.209 1268 250V202C1268 199.791 1266.04 198 1263.62 198H1122.68L1112.88 182.5Z" fill="#FFF4B6"/>
<path d="M1098.54 232V217.9H1103.78C1106.14 217.9 1107.96 218.507 1109.24 219.72C1110.53 220.933 1111.18 222.673 1111.18 224.94C1111.18 227.193 1110.53 228.933 1109.24 230.16C1107.96 231.387 1106.14 232 1103.78 232H1098.54ZM1101.1 229.88H1103.62C1106.87 229.88 1108.5 228.233 1108.5 224.94C1108.5 221.66 1106.87 220.02 1103.62 220.02H1101.1V229.88ZM1113.37 220.12V217.68H1116.17V220.12H1113.37ZM1113.53 232V222.22H1116.03V232H1113.53ZM1123.19 235.8C1122.29 235.8 1121.43 235.693 1120.63 235.48C1119.85 235.28 1119.15 234.967 1118.55 234.54L1119.27 232.8C1119.83 233.173 1120.43 233.447 1121.07 233.62C1121.71 233.807 1122.35 233.9 1122.99 233.9C1124.78 233.9 1125.67 233.04 1125.67 231.32V229.98C1125.39 230.527 1124.96 230.96 1124.37 231.28C1123.8 231.6 1123.16 231.76 1122.45 231.76C1121.57 231.76 1120.81 231.56 1120.15 231.16C1119.5 230.747 1118.99 230.173 1118.63 229.44C1118.27 228.707 1118.09 227.853 1118.09 226.88C1118.09 225.907 1118.27 225.06 1118.63 224.34C1118.99 223.607 1119.5 223.04 1120.15 222.64C1120.81 222.227 1121.57 222.02 1122.45 222.02C1123.19 222.02 1123.84 222.187 1124.41 222.52C1124.99 222.84 1125.41 223.273 1125.67 223.82V222.22H1128.11V231.02C1128.11 232.607 1127.69 233.8 1126.85 234.6C1126.01 235.4 1124.79 235.8 1123.19 235.8ZM1123.13 229.86C1123.91 229.86 1124.52 229.593 1124.97 229.06C1125.43 228.527 1125.65 227.8 1125.65 226.88C1125.65 225.96 1125.43 225.24 1124.97 224.72C1124.52 224.187 1123.91 223.92 1123.13 223.92C1122.36 223.92 1121.75 224.187 1121.29 224.72C1120.84 225.24 1120.61 225.96 1120.61 226.88C1120.61 227.8 1120.84 228.527 1121.29 229.06C1121.75 229.593 1122.36 229.86 1123.13 229.86ZM1130.54 220.12V217.68H1133.34V220.12H1130.54ZM1130.7 232V222.22H1133.2V232H1130.7ZM1140.28 232.2C1137.69 232.2 1136.4 230.92 1136.4 228.36V224.1H1134.52V222.22H1136.4V219.3H1138.9V222.22H1141.86V224.1H1138.9V228.22C1138.9 228.86 1139.04 229.34 1139.32 229.66C1139.6 229.98 1140.05 230.14 1140.68 230.14C1140.87 230.14 1141.06 230.12 1141.26 230.08C1141.46 230.027 1141.67 229.973 1141.88 229.92L1142.26 231.76C1142.02 231.893 1141.71 232 1141.34 232.08C1140.98 232.16 1140.63 232.2 1140.28 232.2ZM1146.7 232.2C1145.99 232.2 1145.36 232.067 1144.8 231.8C1144.25 231.52 1143.82 231.147 1143.5 230.68C1143.19 230.213 1143.04 229.687 1143.04 229.1C1143.04 228.38 1143.22 227.813 1143.6 227.4C1143.97 226.973 1144.58 226.667 1145.42 226.48C1146.26 226.293 1147.38 226.2 1148.8 226.2H1149.5V225.78C1149.5 225.113 1149.35 224.633 1149.06 224.34C1148.76 224.047 1148.27 223.9 1147.58 223.9C1147.03 223.9 1146.47 223.987 1145.9 224.16C1145.32 224.32 1144.74 224.573 1144.16 224.92L1143.44 223.22C1143.78 222.98 1144.19 222.773 1144.66 222.6C1145.14 222.413 1145.64 222.273 1146.16 222.18C1146.69 222.073 1147.19 222.02 1147.66 222.02C1149.08 222.02 1150.14 222.353 1150.84 223.02C1151.53 223.673 1151.88 224.693 1151.88 226.08V232H1149.54V230.44C1149.31 230.987 1148.95 231.42 1148.46 231.74C1147.96 232.047 1147.38 232.2 1146.7 232.2ZM1147.22 230.48C1147.87 230.48 1148.41 230.253 1148.84 229.8C1149.28 229.347 1149.5 228.773 1149.5 228.08V227.64H1148.82C1147.56 227.64 1146.69 227.74 1146.2 227.94C1145.72 228.127 1145.48 228.473 1145.48 228.98C1145.48 229.42 1145.63 229.78 1145.94 230.06C1146.24 230.34 1146.67 230.48 1147.22 230.48ZM1157.81 232.2C1156.65 232.2 1155.79 231.887 1155.23 231.26C1154.69 230.62 1154.41 229.687 1154.41 228.46V217.9H1156.91V228.34C1156.91 229.54 1157.42 230.14 1158.43 230.14C1158.58 230.14 1158.73 230.133 1158.87 230.12C1159.02 230.107 1159.16 230.08 1159.29 230.04L1159.25 232.02C1158.77 232.14 1158.29 232.2 1157.81 232.2ZM1171.29 232.2C1170.18 232.2 1169.16 232.06 1168.21 231.78C1167.26 231.487 1166.46 231.093 1165.81 230.6L1166.59 228.58C1167.24 229.047 1167.96 229.407 1168.73 229.66C1169.52 229.913 1170.37 230.04 1171.29 230.04C1172.34 230.04 1173.11 229.867 1173.59 229.52C1174.07 229.16 1174.31 228.7 1174.31 228.14C1174.31 227.673 1174.14 227.307 1173.79 227.04C1173.46 226.773 1172.88 226.553 1172.05 226.38L1169.85 225.92C1167.34 225.387 1166.09 224.1 1166.09 222.06C1166.09 221.18 1166.32 220.413 1166.79 219.76C1167.26 219.107 1167.9 218.6 1168.73 218.24C1169.56 217.88 1170.51 217.7 1171.59 217.7C1172.55 217.7 1173.45 217.847 1174.29 218.14C1175.13 218.42 1175.83 218.82 1176.39 219.34L1175.61 221.26C1174.5 220.327 1173.16 219.86 1171.57 219.86C1170.65 219.86 1169.93 220.053 1169.41 220.44C1168.89 220.827 1168.63 221.333 1168.63 221.96C1168.63 222.44 1168.79 222.827 1169.11 223.12C1169.43 223.4 1169.98 223.62 1170.75 223.78L1172.93 224.24C1174.25 224.52 1175.23 224.96 1175.87 225.56C1176.52 226.16 1176.85 226.96 1176.85 227.96C1176.85 228.8 1176.62 229.54 1176.17 230.18C1175.72 230.82 1175.07 231.32 1174.23 231.68C1173.4 232.027 1172.42 232.2 1171.29 232.2ZM1178.65 220.12V217.68H1181.45V220.12H1178.65ZM1178.81 232V222.22H1181.31V232H1178.81ZM1188.47 235.8C1187.56 235.8 1186.71 235.693 1185.91 235.48C1185.12 235.28 1184.43 234.967 1183.83 234.54L1184.55 232.8C1185.11 233.173 1185.71 233.447 1186.35 233.62C1186.99 233.807 1187.63 233.9 1188.27 233.9C1190.05 233.9 1190.95 233.04 1190.95 231.32V229.98C1190.67 230.527 1190.23 230.96 1189.65 231.28C1189.07 231.6 1188.43 231.76 1187.73 231.76C1186.85 231.76 1186.08 231.56 1185.43 231.16C1184.77 230.747 1184.27 230.173 1183.91 229.44C1183.55 228.707 1183.37 227.853 1183.37 226.88C1183.37 225.907 1183.55 225.06 1183.91 224.34C1184.27 223.607 1184.77 223.04 1185.43 222.64C1186.08 222.227 1186.85 222.02 1187.73 222.02C1188.46 222.02 1189.11 222.187 1189.69 222.52C1190.26 222.84 1190.68 223.273 1190.95 223.82V222.22H1193.39V231.02C1193.39 232.607 1192.97 233.8 1192.13 234.6C1191.29 235.4 1190.07 235.8 1188.47 235.8ZM1188.41 229.86C1189.18 229.86 1189.79 229.593 1190.25 229.06C1190.7 228.527 1190.93 227.8 1190.93 226.88C1190.93 225.96 1190.7 225.24 1190.25 224.72C1189.79 224.187 1189.18 223.92 1188.41 223.92C1187.63 223.92 1187.02 224.187 1186.57 224.72C1186.11 225.24 1185.89 225.96 1185.89 226.88C1185.89 227.8 1186.11 228.527 1186.57 229.06C1187.02 229.593 1187.63 229.86 1188.41 229.86ZM1195.98 232V222.22H1198.42V223.74C1198.75 223.18 1199.2 222.753 1199.76 222.46C1200.33 222.167 1200.97 222.02 1201.68 222.02C1203.98 222.02 1205.14 223.36 1205.14 226.04V232H1202.64V226.16C1202.64 225.4 1202.49 224.847 1202.2 224.5C1201.92 224.153 1201.48 223.98 1200.88 223.98C1200.14 223.98 1199.56 224.213 1199.12 224.68C1198.69 225.133 1198.48 225.74 1198.48 226.5V232H1195.98ZM1210.9 232.2C1210.19 232.2 1209.56 232.067 1209 231.8C1208.45 231.52 1208.02 231.147 1207.69 230.68C1207.39 230.213 1207.24 229.687 1207.24 229.1C1207.24 228.38 1207.42 227.813 1207.8 227.4C1208.17 226.973 1208.78 226.667 1209.62 226.48C1210.46 226.293 1211.58 226.2 1213 226.2H1213.7V225.78C1213.7 225.113 1213.55 224.633 1213.26 224.34C1212.96 224.047 1212.47 223.9 1211.78 223.9C1211.23 223.9 1210.67 223.987 1210.1 224.16C1209.52 224.32 1208.94 224.573 1208.36 224.92L1207.64 223.22C1207.98 222.98 1208.39 222.773 1208.86 222.6C1209.34 222.413 1209.84 222.273 1210.36 222.18C1210.89 222.073 1211.39 222.02 1211.86 222.02C1213.28 222.02 1214.34 222.353 1215.04 223.02C1215.73 223.673 1216.08 224.693 1216.08 226.08V232H1213.74V230.44C1213.51 230.987 1213.15 231.42 1212.66 231.74C1212.16 232.047 1211.58 232.2 1210.9 232.2ZM1211.42 230.48C1212.07 230.48 1212.61 230.253 1213.04 229.8C1213.48 229.347 1213.7 228.773 1213.7 228.08V227.64H1213.02C1211.76 227.64 1210.89 227.74 1210.4 227.94C1209.92 228.127 1209.68 228.473 1209.68 228.98C1209.68 229.42 1209.83 229.78 1210.14 230.06C1210.44 230.34 1210.87 230.48 1211.42 230.48ZM1223.09 232.2C1220.51 232.2 1219.21 230.92 1219.21 228.36V224.1H1217.33V222.22H1219.21V219.3H1221.71V222.22H1224.67V224.1H1221.71V228.22C1221.71 228.86 1221.85 229.34 1222.13 229.66C1222.41 229.98 1222.87 230.14 1223.49 230.14C1223.68 230.14 1223.87 230.12 1224.07 230.08C1224.27 230.027 1224.48 229.973 1224.69 229.92L1225.07 231.76C1224.83 231.893 1224.53 232 1224.15 232.08C1223.79 232.16 1223.44 232.2 1223.09 232.2ZM1229.83 232.2C1227.43 232.2 1226.23 230.853 1226.23 228.16V222.22H1228.73V228.2C1228.73 228.893 1228.87 229.407 1229.15 229.74C1229.43 230.073 1229.87 230.24 1230.49 230.24C1231.15 230.24 1231.7 230.013 1232.13 229.56C1232.55 229.093 1232.77 228.48 1232.77 227.72V222.22H1235.27V232H1232.83V230.54C1232.17 231.647 1231.17 232.2 1229.83 232.2ZM1237.87 232V222.22H1240.31V223.94C1240.79 222.78 1241.82 222.14 1243.39 222.02L1244.15 221.96L1244.31 224.08L1242.87 224.22C1241.23 224.38 1240.41 225.22 1240.41 226.74V232H1237.87ZM1250.37 232.2C1249.26 232.2 1248.31 231.993 1247.51 231.58C1246.71 231.167 1246.09 230.58 1245.65 229.82C1245.22 229.06 1245.01 228.16 1245.01 227.12C1245.01 226.107 1245.21 225.22 1245.63 224.46C1246.05 223.7 1246.63 223.107 1247.37 222.68C1248.11 222.24 1248.96 222.02 1249.91 222.02C1251.29 222.02 1252.39 222.46 1253.19 223.34C1254 224.22 1254.41 225.42 1254.41 226.94V227.68H1247.41C1247.59 229.427 1248.59 230.3 1250.41 230.3C1250.95 230.3 1251.5 230.22 1252.05 230.06C1252.59 229.887 1253.09 229.62 1253.55 229.26L1254.25 230.94C1253.78 231.327 1253.19 231.633 1252.49 231.86C1251.78 232.087 1251.07 232.2 1250.37 232.2ZM1250.01 223.72C1249.27 223.72 1248.68 223.947 1248.23 224.4C1247.77 224.853 1247.5 225.467 1247.41 226.24H1252.33C1252.27 225.427 1252.05 224.807 1251.65 224.38C1251.26 223.94 1250.71 223.72 1250.01 223.72Z" fill="#4D4204"/>
<defs>
<linearGradient id="paint0_linear_293_5040" x1="204.5" y1="380" x2="1151.5" y2="200" gradientUnits="userSpaceOnUse">
<stop stop-color="#5B7EFB"/>
<stop offset="1" stop-color="#4ACDD5"/>
</linearGradient>
</defs>
</svg>
