<svg width="56" height="55" viewBox="0 0 56 55" fill="none" xmlns="http://www.w3.org/2000/svg">
<circle cx="28" cy="27.5" r="27.5" fill="#FFD8B3"/>
<path fill-rule="evenodd" clip-rule="evenodd" d="M17.0858 14.5858C17.4609 14.2107 17.9696 14 18.5 14H30.5C30.7652 14 31.0196 14.1054 31.2071 14.2929L38.2071 21.2929C38.3946 21.4804 38.5 21.7348 38.5 22V38C38.5 38.5304 38.2893 39.0391 37.9142 39.4142C37.5391 39.7893 37.0304 40 36.5 40H18.5C17.9696 40 17.4609 39.7893 17.0858 39.4142C16.7107 39.0391 16.5 38.5304 16.5 38V16C16.5 15.4696 16.7107 14.9609 17.0858 14.5858ZM30.0858 16L18.5 16L18.5 38H36.5V22.4142L30.0858 16Z" fill="#4A0101"/>
<path fill-rule="evenodd" clip-rule="evenodd" d="M30.5 14C31.0523 14 31.5 14.4477 31.5 15V21H37.5C38.0523 21 38.5 21.4477 38.5 22C38.5 22.5523 38.0523 23 37.5 23H30.5C29.9477 23 29.5 22.5523 29.5 22V15C29.5 14.4477 29.9477 14 30.5 14Z" fill="#4A0101"/>
<path fill-rule="evenodd" clip-rule="evenodd" d="M22.5 28C22.5 27.4477 22.9477 27 23.5 27H31.5C32.0523 27 32.5 27.4477 32.5 28C32.5 28.5523 32.0523 29 31.5 29H23.5C22.9477 29 22.5 28.5523 22.5 28Z" fill="#4A0101"/>
<path fill-rule="evenodd" clip-rule="evenodd" d="M22.5 32C22.5 31.4477 22.9477 31 23.5 31H31.5C32.0523 31 32.5 31.4477 32.5 32C32.5 32.5523 32.0523 33 31.5 33H23.5C22.9477 33 22.5 32.5523 22.5 32Z" fill="#4A0101"/>
</svg>
