<svg width="158" height="122" viewBox="0 0 158 122" fill="none" xmlns="http://www.w3.org/2000/svg">
<path d="M103.399 99.0577L113.997 98.8165L112.11 15.9108L101.512 16.152L103.399 99.0577Z" fill="#1C00A0"/>
<path d="M109.576 98.9228L110.753 98.896L108.859 15.6649L107.682 15.6917L109.576 98.9228Z" fill="white"/>
<path d="M106.641 98.9805L107.818 98.9537L105.924 15.7227L104.747 15.7495L106.641 98.9805Z" fill="white"/>
<path d="M103.439 100.847L114.289 100.6L114.24 98.4866L103.39 98.7335L103.439 100.847Z" fill="white"/>
<path d="M106.305 104.519L111.603 104.399C113.136 104.364 114.351 103.093 114.316 101.559L114.294 100.597L103.444 100.843L103.467 101.806C103.502 103.339 104.773 104.554 106.305 104.519Z" fill="#F766A1"/>
<path d="M101.515 16.148L112.113 15.9073L108.17 9.73643L106.427 7L104.916 9.81105L101.515 16.148Z" fill="#EBAF84"/>
<path d="M104.916 9.81105L108.17 9.73643L106.427 7L104.916 9.81105Z" fill="#F766A1"/>
<path d="M97.3334 106.517L26.833 121.87C25.1217 122.242 23.4253 121.189 23.0441 119.517L0.164061 19.1969C-0.217187 17.5246 0.86075 15.867 2.57214 15.4945L73.0729 0.141559C74.7843 -0.230983 76.4806 0.822337 76.8618 2.49465L99.7415 102.815C100.123 104.487 99.0448 106.144 97.3334 106.517Z" fill="#E0E0E0"/>
<path d="M97.3333 106.517C97.3333 106.517 97.4117 106.493 97.5672 106.45C97.7219 106.405 97.9484 106.319 98.2278 106.168C98.5014 106.01 98.8234 105.772 99.1186 105.41C99.4083 105.049 99.6701 104.557 99.7631 103.956C99.816 103.657 99.8098 103.331 99.7554 102.997C99.6977 102.663 99.6035 102.314 99.5234 101.946C99.3547 101.212 99.1705 100.409 98.9705 99.5385C98.5716 97.7979 98.1113 95.7901 97.5929 93.53C95.5245 84.4863 92.5319 71.4013 88.8338 55.2333C86.9871 47.1484 84.9639 38.2925 82.7926 28.7857C81.7073 24.0321 80.5845 19.1157 79.4283 14.0517C78.8504 11.5198 78.264 8.95076 77.6691 6.34656C77.3702 5.04571 77.0698 3.73589 76.7669 2.41744C76.6066 1.77331 76.2077 1.19419 75.6761 0.780339C75.1368 0.375823 74.4618 0.134766 73.775 0.137281C73.4309 0.135844 73.0967 0.201947 72.7519 0.281341C72.4088 0.356065 72.0655 0.430789 71.7214 0.505872C71.0335 0.655679 70.3434 0.806205 69.6511 0.95709C68.267 1.25886 66.8747 1.56207 65.474 1.86743C62.6729 2.47779 59.8402 3.09499 56.9769 3.719C51.2505 4.96668 45.4035 6.24058 39.4513 7.53747C27.5466 10.1305 15.2205 12.8152 2.59635 15.5649C1.82356 15.7305 1.12724 16.1947 0.691209 16.8363C0.249667 17.474 0.0739323 18.278 0.211799 19.0331C0.544518 20.5621 0.905178 22.0936 1.24893 23.6161C1.94378 26.6629 2.63385 29.6895 3.31914 32.6939C4.68935 38.7031 6.03934 44.6243 7.36581 50.442C10.018 62.0781 12.5764 73.3021 15.0136 83.9941C17.4496 94.6865 19.7643 104.847 21.9308 114.356C22.2014 115.545 22.4698 116.723 22.7359 117.891C22.8716 118.473 22.9955 119.06 23.1393 119.631C23.2881 120.195 23.6146 120.706 24.0499 121.093C24.4863 121.482 25.0348 121.74 25.6098 121.84C25.8984 121.887 26.1914 121.894 26.4808 121.867C26.7672 121.83 27.0558 121.761 27.344 121.699C28.4958 121.448 29.6363 121.201 30.7657 120.955C35.2826 119.973 39.6175 119.03 43.755 118.131C60.3052 114.537 73.6982 111.629 82.9551 109.619C87.583 108.617 91.1764 107.839 93.6143 107.312C94.8323 107.05 95.7613 106.85 96.387 106.715C97.0124 106.582 97.3333 106.517 97.3333 106.517C97.3333 106.517 97.0146 106.592 96.3911 106.73C95.7661 106.868 94.8381 107.072 93.6216 107.341C91.1852 107.875 87.5937 108.661 82.9683 109.675C73.7144 111.696 60.3247 114.62 43.7788 118.233C39.6421 119.136 35.3079 120.081 30.7918 121.066C29.6627 121.313 28.5223 121.561 27.3708 121.812C27.0833 121.874 26.7966 121.944 26.4951 121.983C26.1944 122.012 25.89 122.005 25.59 121.956C24.9922 121.852 24.4223 121.584 23.9687 121.181C23.5157 120.779 23.1764 120.247 23.0212 119.662C22.8745 119.081 22.7521 118.501 22.6157 117.917C22.3488 116.749 22.0801 115.57 21.8084 114.382C19.6378 104.874 17.3183 94.7148 14.8775 84.0236C12.4378 73.3323 9.87646 62.1086 7.22132 50.4732C5.89412 44.6555 4.54339 38.7344 3.17245 32.7256C2.48716 29.7211 1.79672 26.6945 1.10187 23.6477C0.757385 22.1219 0.398931 20.6009 0.0632708 19.0579C-0.0812137 18.2657 0.103344 17.4215 0.566209 16.7533C1.02319 16.0804 1.75517 15.5929 2.56473 15.4198C15.1893 12.6712 27.5153 9.9872 39.4204 7.39521C45.373 6.09939 51.2204 4.82693 56.9472 3.58033C59.8104 2.95739 62.6438 2.34056 65.4449 1.73091C66.8456 1.42627 68.2379 1.12306 69.6225 0.821653C70.3147 0.671127 71.0048 0.52096 71.6927 0.371153C72.0368 0.296429 72.3802 0.221705 72.7232 0.146981C73.0614 0.0690239 73.4195 -0.00210774 73.7776 4.77612e-05C74.4956 -0.00246699 75.2011 0.249727 75.764 0.672564C76.3199 1.10474 76.736 1.7108 76.9033 2.38331C77.2059 3.7032 77.5062 5.01446 77.8048 6.31674C78.3982 8.9213 78.9834 11.4903 79.5606 14.0226C80.7143 19.0874 81.8345 24.0044 82.9176 28.7584C85.0827 38.2666 87.0996 47.1239 88.9407 55.2099C92.6187 71.3823 95.5951 84.4705 97.6525 93.5167C98.1653 95.7782 98.6212 97.7871 99.0164 99.5284C99.2135 100.399 99.3958 101.203 99.562 101.938C99.6411 102.306 99.7333 102.652 99.7907 102.991C99.8444 103.329 99.8491 103.658 99.7947 103.96C99.6984 104.567 99.4319 105.062 99.1381 105.424C98.8385 105.787 98.5131 106.024 98.2366 106.181C97.9547 106.33 97.7264 106.414 97.5705 106.457C97.4131 106.498 97.3333 106.517 97.3333 106.517Z" fill="#263238"/>
<g opacity="0.3">
<path d="M30.4105 118.318L94.6459 103.969L92.6135 91.6662L88.9731 84.7726L27.5249 108.358L30.4105 118.318Z" fill="black"/>
</g>
<g opacity="0.3">
<path d="M57.2261 3.82056L59.6558 7.74105L60.1297 9.81823L58.4801 10.1775L57.2261 3.82056Z" fill="black"/>
</g>
<path d="M3.82178 19.7781L26.1073 117.495L95.9639 102.282L91.979 84.8092L73.678 4.56567L3.82178 19.7781Z" fill="white"/>
<path d="M3.82178 19.7781C4.31957 19.6692 31.2077 13.7897 73.6648 4.50634L73.7255 4.49304L73.7391 4.55232C79.9365 31.7077 87.6706 65.5957 96.0375 102.258L96.0393 102.266L96.0562 102.339L95.9812 102.356C71.0067 107.792 47.2929 112.954 26.1235 117.562L26.0547 117.577L26.0397 117.51C12.921 59.8053 3.95707 20.3733 3.82178 19.7781C3.95781 20.3726 12.9772 59.7931 26.1761 117.48L26.0922 117.428C47.2609 112.816 70.9736 107.65 95.947 102.208L95.8886 102.298L95.8867 102.29C87.5305 65.6259 79.8067 31.7357 73.6174 4.57854L73.6916 4.62453C31.218 13.8364 4.3192 19.6703 3.82178 19.7781Z" fill="#263238"/>
<path d="M58.8556 10.9713L23.5102 18.6686L21.7315 10.8689C21.4521 9.64391 22.2418 8.42964 23.4955 8.15661L54.3012 1.44798C55.5548 1.17495 56.7975 1.94662 57.0769 3.17166L58.8556 10.9713Z" fill="#263238"/>
<path d="M42.5368 0.0554199L33.5405 2.01441L36.3107 9.32047L43.0868 7.84468L42.5368 0.0554199Z" fill="#263238"/>
<path d="M54.3008 1.4483C54.31 1.48818 47.4211 3.02254 38.916 4.87483C30.4079 6.72748 23.5058 8.19681 23.4966 8.15657C23.4874 8.1167 30.3749 6.5827 38.8829 4.72969C47.388 2.87776 54.2916 1.40843 54.3008 1.4483Z" fill="#455A64"/>
<path d="M23.9334 16.8802C23.8926 16.8892 23.536 15.4795 23.1375 13.7317C22.7386 11.9836 22.4489 10.5596 22.4897 10.5506C22.5305 10.5416 22.8871 11.9513 23.2856 13.6994C23.6841 15.4472 23.9742 16.8712 23.9334 16.8802Z" fill="#455A64"/>
<path d="M57.1699 8.85488C57.1287 8.86387 56.8022 7.58458 56.4404 5.99777C56.0783 4.41061 55.8184 3.11695 55.8592 3.10832C55.9 3.09934 56.2268 4.37827 56.5886 5.9658C56.9504 7.55224 57.2107 8.8459 57.1699 8.85488Z" fill="#455A64"/>
<path d="M55.7694 10.5586C55.7785 10.5989 48.7069 12.1727 39.9764 14.0739C31.243 15.9758 24.1581 17.4846 24.1489 17.4444C24.1397 17.4045 31.2099 15.8306 39.9433 13.9288C48.6738 12.028 55.7602 10.5188 55.7694 10.5586Z" fill="#455A64"/>
<path d="M37.1641 38.9852C37.1733 39.0258 32.4038 40.0989 26.5126 41.3817C20.6193 42.665 15.8359 43.6723 15.8267 43.6317C15.8175 43.5911 20.5858 42.5184 26.4792 41.2348C32.3703 39.9519 37.1549 38.9446 37.1641 38.9852Z" fill="#263238"/>
<path d="M72.722 35.0722C72.7312 35.1128 60.2688 37.8611 44.8902 41.2104C29.5061 44.5607 17.0312 47.2425 17.022 47.2023C17.0128 47.1617 29.4726 44.4138 44.8568 41.0638C60.2357 37.7145 72.7129 35.032 72.722 35.0722Z" fill="#263238"/>
<path d="M73.4847 38.4304C73.4939 38.471 61.0315 41.2196 45.6529 44.5685C30.2688 47.9189 17.7939 50.6007 17.7847 50.5601C17.7755 50.5195 30.2353 47.7716 45.6195 44.4216C60.9981 41.0727 73.4752 38.3898 73.4847 38.4304Z" fill="#263238"/>
<path d="M74.2523 41.7887C74.2615 41.8293 61.7991 44.5775 46.4205 47.9268C31.0364 51.2772 18.5614 53.959 18.5523 53.9184C18.5431 53.8778 31.0029 51.1299 46.387 47.7799C61.7656 44.4309 74.2431 41.7481 74.2523 41.7887Z" fill="#263238"/>
<path d="M75.0179 45.1469C75.0271 45.1875 62.5647 47.9362 47.1861 51.2851C31.802 54.6354 19.3271 57.3172 19.3179 57.2766C19.3087 57.2361 31.7685 54.4882 47.1527 51.1381C62.5313 47.7889 75.0088 45.1063 75.0179 45.1469Z" fill="#263238"/>
<path d="M75.7807 48.5052C75.7898 48.5458 63.3274 51.2944 47.9488 54.6434C32.5647 57.9937 20.0901 60.6755 20.0806 60.6349C20.0714 60.5943 32.5312 57.8464 47.9154 54.4964C63.2943 51.1471 75.7715 48.4646 75.7807 48.5052Z" fill="#263238"/>
<path d="M30.8862 72.1439C30.8832 72.1422 30.8718 72.1034 30.8527 72.0304C30.8318 71.9467 30.8049 71.8415 30.7718 71.7103C30.7012 71.419 30.6031 71.0159 30.4803 70.5097C30.2347 69.4711 29.8898 68.0115 29.4773 66.2655L29.5568 66.3148C27.8013 66.7002 25.7344 67.1536 23.5292 67.6379C23.5156 67.6573 23.6391 67.4687 23.5873 67.5491L23.5877 67.5506L23.5884 67.5538L23.5899 67.5603L23.5928 67.5729L23.5987 67.598L23.6101 67.6483L23.6333 67.7492L23.6792 67.9504C23.7097 68.0841 23.7399 68.2174 23.77 68.3499C23.8303 68.615 23.8902 68.878 23.9491 69.1377C24.0671 69.6576 24.1822 70.1663 24.2947 70.6613C24.5174 71.6507 24.7277 72.5847 24.9211 73.4426L24.8417 73.3934C26.6347 73.0169 28.1336 72.7022 29.2001 72.4784C29.7215 72.3721 30.1365 72.2877 30.4362 72.2266C30.5715 72.2004 30.6806 72.1792 30.767 72.1623C30.8424 72.1483 30.8832 72.1418 30.8862 72.1439C30.8891 72.1457 30.8545 72.1558 30.7843 72.1738C30.702 72.1935 30.5983 72.2187 30.4696 72.2499C30.1751 72.3182 29.7674 72.413 29.2557 72.5316C28.1825 72.7737 26.6748 73.1136 24.8708 73.5206L24.806 73.5353L24.7913 73.4714C24.5935 72.6146 24.3781 71.6816 24.1498 70.6933C24.0362 70.1986 23.9197 69.6899 23.8005 69.1704C23.741 68.9103 23.6811 68.6477 23.6204 68.3826C23.5902 68.25 23.5597 68.1168 23.5292 67.9831L23.4833 67.7819L23.4601 67.681L23.4487 67.6303L23.4428 67.6052L23.4399 67.5926L23.4384 67.5861L23.4377 67.5829L23.4373 67.5815C23.3851 67.6612 23.5079 67.4708 23.4961 67.4906C25.7031 67.0139 27.7715 66.567 29.5281 66.1872L29.5935 66.1732L29.6075 66.2368C29.9965 68.0054 30.3218 69.4837 30.5531 70.5359C30.6604 71.0393 30.7457 71.4402 30.8075 71.7297C30.8332 71.8569 30.8542 71.9593 30.8704 72.0408C30.8836 72.1105 30.8891 72.1457 30.8862 72.1439Z" fill="#263238"/>
<path d="M75.7068 57.6198L33.6421 66.7788L34.424 70.2079L76.4887 61.0489L75.7068 57.6198Z" fill="#E0E0E0"/>
<path d="M33.2156 82.3649C33.2127 82.3631 33.2013 82.3243 33.1822 82.2514C33.1612 82.1677 33.1344 82.0624 33.1013 81.9313C33.0307 81.6399 32.9325 81.2369 32.8098 80.7307C32.5642 79.6917 32.2197 78.2325 31.8068 76.4865L31.8862 76.5357C30.1307 76.9212 28.0638 77.3746 25.8587 77.8588C25.8451 77.8782 25.9686 77.6893 25.9168 77.7701L25.9171 77.7715L25.9179 77.7748L25.9193 77.7812L25.9223 77.7938L25.9282 77.819L25.9396 77.8696L25.9627 77.9706L26.0087 78.1717C26.0392 78.3054 26.0693 78.4387 26.0999 78.5712C26.1602 78.8363 26.2197 79.0993 26.2789 79.3591C26.3969 79.8789 26.512 80.3876 26.6245 80.8826C26.8473 81.872 27.0576 82.8061 27.251 83.664L27.1715 83.6147C28.9646 83.2382 30.4634 82.9235 31.53 82.6997C32.0513 82.5934 32.4664 82.509 32.766 82.4479C32.9013 82.4217 33.0105 82.4005 33.0969 82.3836C33.1719 82.3696 33.2123 82.3631 33.2156 82.3649C33.2186 82.3667 33.184 82.3768 33.1138 82.3947C33.0314 82.4145 32.9278 82.4396 32.7991 82.4709C32.5046 82.5391 32.0969 82.634 31.5851 82.7529C30.512 82.995 29.0039 83.3349 27.1999 83.7419L27.1352 83.7566L27.1204 83.6927C26.9227 82.8359 26.7072 81.9029 26.4789 80.9146C26.3653 80.4199 26.2488 79.9116 26.1296 79.3918C26.0701 79.132 26.0102 78.869 25.9495 78.6039C25.9193 78.4714 25.8888 78.3381 25.8583 78.2044L25.8124 78.0033L25.7892 77.9023L25.7778 77.8516L25.7719 77.8265L25.769 77.8139L25.7675 77.8075L25.7668 77.8042L25.7664 77.8028C25.7142 77.8825 25.837 77.6921 25.8252 77.7119C28.0322 77.2352 30.1006 76.7883 31.8572 76.4089L31.9226 76.3945L31.9366 76.4581C32.3256 78.2267 32.6509 79.705 32.8825 80.7573C32.9899 81.2606 33.0752 81.6615 33.137 81.9511C33.1627 82.0782 33.1833 82.1806 33.1998 82.2622C33.2131 82.3319 33.2186 82.3671 33.2156 82.3649Z" fill="#263238"/>
<path d="M78.0398 67.8416L35.9751 77.0006L36.7571 80.4297L78.8217 71.2707L78.0398 67.8416Z" fill="#E0E0E0"/>
<path d="M35.5483 92.5863C35.5453 92.5846 35.5339 92.5457 35.5148 92.4728C35.4939 92.3891 35.467 92.2839 35.4339 92.1527C35.3634 91.8617 35.2652 91.4583 35.1424 90.9521C34.8968 89.9132 34.5523 88.4539 34.1395 86.7079L34.2189 86.7572C32.4634 87.1426 30.3965 87.596 28.1913 88.0803C28.1777 88.0997 28.3016 87.9111 28.2494 87.9915L28.2498 87.9933L28.2505 87.9966L28.252 88.003L28.2549 88.0156L28.2608 88.0408L28.2722 88.0914L28.2954 88.1924L28.3413 88.3935C28.3718 88.5272 28.402 88.6605 28.4321 88.793C28.4924 89.0581 28.5524 89.3211 28.6112 89.5809C28.7292 90.1007 28.8443 90.6094 28.9564 91.1044C29.1792 92.0938 29.3895 93.0279 29.5829 93.8858L29.5035 93.8365C31.2965 93.46 32.7953 93.1453 33.8619 92.9212C34.3832 92.8148 34.7983 92.7304 35.0983 92.6693C35.2336 92.6431 35.3428 92.6219 35.4292 92.605C35.5049 92.591 35.5453 92.5846 35.5483 92.5863C35.5512 92.5881 35.5167 92.5982 35.4464 92.6162C35.3641 92.6363 35.2604 92.6614 35.1317 92.6927C34.8372 92.7609 34.4295 92.8558 33.9178 92.9743C32.8446 93.2165 31.3369 93.5563 29.5329 93.9633L29.4682 93.9781L29.4535 93.9141C29.2557 93.057 29.0402 92.1243 28.8119 91.136C28.6983 90.6414 28.5818 90.1327 28.4626 89.6132C28.4031 89.3531 28.3432 89.0905 28.2825 88.8254C28.2524 88.6928 28.2218 88.5595 28.1913 88.4259L28.1454 88.2247L28.1222 88.1237L28.1108 88.0731L28.1049 88.0479L28.102 88.0354L28.1005 88.0289L28.0998 88.0257L28.0994 88.0242C28.0472 88.104 28.17 87.9136 28.1582 87.9333C30.3652 87.4566 32.4336 87.0097 34.1902 86.63L34.2556 86.616L34.2696 86.6796C34.6586 88.4481 34.9839 89.9265 35.2152 90.9787C35.3225 91.482 35.4078 91.8829 35.4696 92.1725C35.4953 92.2997 35.5163 92.4024 35.5325 92.4836C35.5461 92.5533 35.5512 92.5885 35.5483 92.5863Z" fill="#263238"/>
<path d="M80.3689 78.0635L38.3042 87.2225L39.0862 90.6517L81.1508 81.4926L80.3689 78.0635Z" fill="#E0E0E0"/>
<path d="M25.0962 70.032L25.7278 69.061L27.6061 70.0809L30.023 66.5178L30.9587 67.1476L27.8392 71.6379L25.0962 70.032Z" fill="#FF725E"/>
<path d="M27.353 79.9114L27.9846 78.9403L29.8626 79.9603L32.2798 76.3972L33.2155 77.027L30.096 81.5172L27.353 79.9114Z" fill="#FF725E"/>
<path d="M29.6577 90.0408L30.2893 89.0697L32.1673 90.0897L34.5842 86.5266L35.5202 87.1564L32.4003 91.6466L29.6577 90.0408Z" fill="#FF725E"/>
<path d="M48.9108 102.752C48.92 102.793 45.3685 103.601 40.9796 104.556C36.5888 105.512 33.0234 106.254 33.0142 106.214C33.005 106.173 36.5553 105.366 40.9461 104.409C45.3351 103.454 48.9012 102.712 48.9108 102.752Z" fill="#263238"/>
<path d="M56.8332 100.902C56.8424 100.942 55.5358 101.261 53.9152 101.614C52.2939 101.967 50.973 102.221 50.9634 102.18C50.9542 102.139 52.2605 101.82 53.8818 101.467C55.5024 101.115 56.8241 100.861 56.8332 100.902Z" fill="#263238"/>
<path d="M83.0584 92.8349C83.0676 92.8755 79.872 93.6058 75.922 94.4659C71.9706 95.3263 68.7607 95.9909 68.7515 95.9503C68.7423 95.9097 71.9371 95.1794 75.8886 94.319C79.8386 93.4589 83.0492 92.7943 83.0584 92.8349Z" fill="#263238"/>
<path d="M79.6422 102.292C79.6334 102.289 79.6734 102.193 79.7124 102.006C79.7551 101.819 79.7573 101.529 79.6679 101.176C79.5756 100.822 79.3863 100.413 79.1595 99.9394C78.9426 99.4677 78.6609 98.9083 78.6562 98.2265C78.6665 97.5572 78.9683 96.8139 79.5881 96.2926C80.2003 95.7613 81.1602 95.5738 82.0311 95.8475C82.4646 95.9855 82.883 96.2251 83.194 96.5937C83.3425 96.7816 83.4616 97.0072 83.4701 97.2662C83.4933 97.5302 83.2863 97.7925 83.0389 97.8733C82.7944 97.9649 82.5558 97.9922 82.3153 98.0486C82.0738 98.0971 81.8304 98.1463 81.5852 98.1956C81.0936 98.2904 80.5922 98.3784 80.0804 98.4438C79.0595 98.5775 78.0337 98.5958 77.0727 98.4607C76.6029 98.4122 76.1065 98.4046 75.7525 98.6709C75.3996 98.9342 75.2205 99.3621 74.9569 99.7209C74.8271 99.902 74.6613 100.075 74.4441 100.169C74.2297 100.266 73.9801 100.263 73.7698 100.196C73.3455 100.056 73.0338 99.7788 72.697 99.592C72.5305 99.4968 72.3569 99.4181 72.1797 99.4009C72.004 99.3843 71.8272 99.4264 71.6871 99.5226C71.4029 99.7199 71.2525 100.047 71.0643 100.32C70.6922 100.901 70.0522 101.176 69.5121 101.195C68.9581 101.222 68.5084 100.992 68.225 100.749C67.9356 100.502 67.7911 100.239 67.7158 100.06C67.6419 99.8783 67.6323 99.7748 67.6323 99.7748C67.6404 99.7727 67.6625 99.8733 67.7441 100.048C67.8272 100.22 67.9768 100.472 68.2636 100.705C68.5452 100.933 68.9805 101.144 69.5073 101.111C70.0239 101.084 70.6264 100.816 70.9731 100.262C71.1562 99.9951 71.2985 99.6577 71.6194 99.4271C71.7794 99.3154 71.9882 99.2625 72.1922 99.2812C72.3977 99.3003 72.5867 99.3865 72.7606 99.4842C73.1099 99.6775 73.426 99.9484 73.8095 100.07C73.9988 100.128 74.2062 100.128 74.3878 100.045C74.5702 99.966 74.7183 99.8147 74.8415 99.6412C75.0944 99.2999 75.2679 98.8595 75.6646 98.5566C75.8617 98.4075 76.1095 98.3306 76.3536 98.3033C76.5992 98.2764 76.8455 98.2911 77.0882 98.3148C78.0481 98.447 79.0455 98.4273 80.0609 98.2954C80.5679 98.2304 81.0661 98.1435 81.5558 98.0494C81.8006 98.0005 82.0433 97.9516 82.2844 97.9035C82.5227 97.8489 82.7738 97.8166 82.9822 97.7375C83.1933 97.6617 83.3337 97.4807 83.3216 97.2691C83.3168 97.06 83.2131 96.852 83.0789 96.6828C82.7962 96.3447 82.3977 96.1108 81.9889 95.9801C81.162 95.7171 80.254 95.8892 79.6716 96.3882C79.079 96.8789 78.7819 97.5892 78.7657 98.2286C78.7624 98.876 79.0282 99.4314 79.2385 99.9052C79.4573 100.381 79.6418 100.799 79.7264 101.163C79.8087 101.526 79.7962 101.824 79.7429 102.012C79.6933 102.201 79.6422 102.292 79.6422 102.292Z" fill="#263238"/>
<path d="M87.2423 97.6928C87.2434 97.6978 87.1772 97.7168 87.0503 97.7485C86.9077 97.7822 86.7231 97.8257 86.4937 97.8796C85.9915 97.9935 85.2956 98.1512 84.4434 98.3441C82.7121 98.7364 80.3235 99.29 77.6956 99.941C75.067 100.593 72.6971 101.219 70.9839 101.68C70.1405 101.907 69.4519 102.093 68.9549 102.227C68.7269 102.286 68.5435 102.334 68.4015 102.371C68.2747 102.402 68.2071 102.416 68.2056 102.411C68.2041 102.406 68.2685 102.382 68.3927 102.341C68.5324 102.298 68.7133 102.241 68.9379 102.17C69.4122 102.024 70.1008 101.822 70.9541 101.578C72.6604 101.09 75.0272 100.447 77.6578 99.7947C80.2875 99.1434 82.6813 98.6056 84.4195 98.2399C85.2886 98.0567 85.993 97.9144 86.4809 97.8217C86.7129 97.779 86.8993 97.7449 87.0434 97.7183C87.1731 97.6967 87.2412 97.6877 87.2423 97.6928Z" fill="#263238"/>
<path d="M57.0923 18.865L28.5376 25.0824L29.733 30.3248L58.2878 24.1074L57.0923 18.865Z" fill="#E0E0E0"/>
</svg>
