<svg width="41" height="40" viewBox="0 0 41 40" fill="none" xmlns="http://www.w3.org/2000/svg">
<circle cx="20.5" cy="20" r="20" fill="#FFF4B6"/>
<path fill-rule="evenodd" clip-rule="evenodd" d="M12.5625 10.6079C12.8353 10.3351 13.2053 10.1818 13.591 10.1818H22.3183C22.5112 10.1818 22.6962 10.2584 22.8326 10.3948L27.9235 15.4857C28.0599 15.6221 28.1365 15.8071 28.1365 16V27.6364C28.1365 28.0221 27.9832 28.3921 27.7104 28.6649C27.4377 28.9377 27.0677 29.0909 26.6819 29.0909H13.591C13.2053 29.0909 12.8353 28.9377 12.5625 28.6649C12.2897 28.3921 12.1365 28.0221 12.1365 27.6364V11.6364C12.1365 11.2506 12.2897 10.8806 12.5625 10.6079ZM22.017 11.6364L13.591 11.6364L13.591 27.6364H26.6819V16.3013L22.017 11.6364Z" fill="#191919"/>
<path fill-rule="evenodd" clip-rule="evenodd" d="M22.3181 10.1818C22.7198 10.1818 23.0454 10.5074 23.0454 10.9091V15.2727H27.409C27.8107 15.2727 28.1363 15.5983 28.1363 16C28.1363 16.4017 27.8107 16.7273 27.409 16.7273H22.3181C21.9164 16.7273 21.5908 16.4017 21.5908 16V10.9091C21.5908 10.5074 21.9164 10.1818 22.3181 10.1818Z" fill="#191919"/>
<path fill-rule="evenodd" clip-rule="evenodd" d="M16.5 20.3636C16.5 19.962 16.8256 19.6364 17.2273 19.6364H23.0455C23.4471 19.6364 23.7727 19.962 23.7727 20.3636C23.7727 20.7653 23.4471 21.0909 23.0455 21.0909H17.2273C16.8256 21.0909 16.5 20.7653 16.5 20.3636Z" fill="#191919"/>
<path fill-rule="evenodd" clip-rule="evenodd" d="M16.5 23.2727C16.5 22.8711 16.8256 22.5455 17.2273 22.5455H23.0455C23.4471 22.5455 23.7727 22.8711 23.7727 23.2727C23.7727 23.6744 23.4471 24 23.0455 24H17.2273C16.8256 24 16.5 23.6744 16.5 23.2727Z" fill="#191919"/>
</svg>
