<svg width="267" height="308" viewBox="0 0 267 308" fill="none" xmlns="http://www.w3.org/2000/svg">
<path d="M162.76 113.398H103.52V167.191H162.76V113.398Z" fill="#407BFF" stroke="#1A2E35" stroke-width="1.33333" stroke-miterlimit="10" stroke-linecap="round" stroke-linejoin="round"/>
<path d="M145.737 113.398H103.52V167.191H145.737V113.398Z" fill="#407BFF" stroke="#1A2E35" stroke-width="1.33333" stroke-miterlimit="10" stroke-linecap="round" stroke-linejoin="round"/>
<path d="M128.905 128.416H119.835V113.397H128.905V128.416Z" fill="white" stroke="#1A2E35" stroke-width="1.33333" stroke-miterlimit="10" stroke-linecap="round" stroke-linejoin="round"/>
<path d="M175.608 100.563L167.814 106.895L175.608 100.563Z" fill="#407BFF"/>
<path d="M175.608 100.563L167.814 106.895" stroke="#1A2E35" stroke-width="1.33333" stroke-miterlimit="10" stroke-linecap="round" stroke-linejoin="round"/>
<path d="M86.9565 178.985L94.7504 172.652L86.9565 178.985Z" fill="#407BFF"/>
<path d="M86.9565 178.985L94.7504 172.652" stroke="#1A2E35" stroke-width="1.33333" stroke-miterlimit="10" stroke-linecap="round" stroke-linejoin="round"/>
<path d="M175.608 178.985L167.814 172.652L175.608 178.985Z" fill="#407BFF"/>
<path d="M175.608 178.985L167.814 172.652" stroke="#1A2E35" stroke-width="1.33333" stroke-miterlimit="10" stroke-linecap="round" stroke-linejoin="round"/>
<path d="M134.205 86.4366V101.05" stroke="#1A2E35" stroke-width="1.33333" stroke-miterlimit="10" stroke-linecap="round" stroke-linejoin="round"/>
<path d="M134.205 176.062V190.675" stroke="#1A2E35" stroke-width="1.33333" stroke-miterlimit="10" stroke-linecap="round" stroke-linejoin="round"/>
<path d="M184.314 41.0539L168.632 20.3649L165.593 27.5808C160.293 25.9576 154.84 24.6998 149.335 23.8451C121.958 19.594 93.9533 25.3214 70.4806 39.9728C47.2536 54.4711 29.8939 76.7434 21.5995 102.686C20.7237 105.426 22.2345 108.356 24.9735 109.232C25.2373 109.316 25.5017 109.378 25.7665 109.419C28.2569 109.806 30.7275 108.333 31.5193 105.858C39.0629 82.2618 54.8576 62.0011 75.9948 48.8076C97.3491 35.4784 122.827 30.2679 147.737 34.1358C152.401 34.86 157.023 35.8995 161.53 37.2302L158.556 44.2945L184.314 41.0539Z" fill="#407BFF"/>
<path d="M222.38 66.5414C220.601 64.2803 217.327 63.8921 215.068 65.6694C212.808 67.4474 212.417 70.7212 214.196 72.9815C232.177 95.8317 239.932 125.408 235.473 154.127C231.45 180.035 218.004 203.358 197.612 219.802C178.448 235.254 154.679 243.447 130.269 243.107L131.212 235.489L107.305 245.608L128.021 261.256L128.982 253.497C156.218 254.148 182.789 245.131 204.15 227.909C226.563 209.834 241.342 184.199 245.764 155.725C250.665 124.161 242.142 91.655 222.38 66.5414Z" fill="#407BFF"/>
<path d="M193.721 219.967C189.945 231.591 184.588 235.255 184.588 235.255C181.447 238.043 178.094 239.259 175.187 238.283C169.025 236.219 167.194 225.094 171.097 213.438C175.002 201.782 183.164 194.004 189.327 196.069C192.295 197.063 194.257 200.156 195.056 204.4C196.516 211.363 193.721 219.967 193.721 219.967Z" fill="#407BFF"/>
<path d="M193.721 219.967C189.945 231.591 184.588 235.255 184.588 235.255C181.447 238.043 178.094 239.259 175.187 238.283C169.025 236.219 167.194 225.094 171.097 213.438C175.002 201.782 183.164 194.004 189.327 196.069C192.295 197.063 194.257 200.156 195.056 204.4C196.516 211.363 193.721 219.967 193.721 219.967Z" stroke="#1A2E35" stroke-width="1.33333" stroke-miterlimit="10" stroke-linecap="round" stroke-linejoin="round"/>
<path d="M191.542 220.286C187.906 231.142 180.554 238.467 175.12 236.647C169.687 234.828 168.229 224.552 171.865 213.696C175.501 202.839 182.853 195.514 188.287 197.334C193.72 199.154 195.178 209.429 191.542 220.286Z" fill="#D0D0D0"/>
<path d="M191.542 220.286C187.906 231.142 180.554 238.467 175.12 236.647C169.687 234.828 168.229 224.552 171.865 213.696C175.501 202.839 182.853 195.514 188.287 197.334C193.72 199.154 195.178 209.429 191.542 220.286Z" stroke="#1A2E35" stroke-width="1.33333" stroke-miterlimit="10" stroke-linecap="round" stroke-linejoin="round"/>
<path d="M184.393 217.891C183.399 220.859 181.388 222.862 179.903 222.364C178.418 221.867 178.019 219.058 179.013 216.09C180.008 213.122 182.017 211.119 183.502 211.617C184.988 212.114 185.387 214.923 184.393 217.891Z" fill="#407BFF"/>
<path d="M184.393 217.891C183.399 220.859 181.388 222.862 179.903 222.364C178.418 221.867 178.019 219.058 179.013 216.09C180.008 213.122 182.017 211.119 183.502 211.617C184.988 212.114 185.387 214.923 184.393 217.891Z" stroke="#1A2E35" stroke-width="1.33333" stroke-miterlimit="10" stroke-linecap="round" stroke-linejoin="round"/>
<path d="M183.502 211.618C184.987 212.115 185.386 214.924 184.392 217.892C183.398 220.86 181.388 222.862 179.903 222.364L188.914 226.41C189.91 224.545 190.803 222.49 191.541 220.286C192.354 217.86 192.91 215.464 193.227 213.184L183.502 211.618Z" fill="#407BFF"/>
<path d="M183.502 211.618C184.987 212.115 185.386 214.924 184.392 217.892C183.398 220.86 181.388 222.862 179.903 222.364L188.914 226.41C189.91 224.545 190.803 222.49 191.541 220.286C192.354 217.86 192.91 215.464 193.227 213.184L183.502 211.618Z" stroke="#1A2E35" stroke-width="1.33333" stroke-miterlimit="10" stroke-linecap="round" stroke-linejoin="round"/>
<path d="M194.69 216.225C194.819 215.609 194.93 215 195.026 214.397C194.933 214.999 194.819 215.609 194.69 216.225Z" stroke="#1A2E35" stroke-width="1.33333" stroke-miterlimit="10" stroke-linecap="round" stroke-linejoin="round"/>
<path d="M229.716 223.071C230.913 224.783 231.143 227.083 230.808 229.13C230.139 233.214 227.172 238.87 222.469 239.167C222.036 239.195 221.6 239.168 221.173 239.086C215.636 238.545 209.225 236.115 199.908 235.083C193.88 234.141 185.07 234.996 184.588 235.255C192.702 227.524 196.502 215.185 195.056 204.4C201.276 212.321 211.864 215.943 222.396 219.343C223.876 219.822 226.817 220.476 228.602 221.886C229.04 222.234 229.41 222.633 229.716 223.071Z" fill="white"/>
<path d="M229.716 223.071C230.913 224.783 231.143 227.083 230.808 229.13C230.139 233.214 227.172 238.87 222.469 239.167C222.036 239.195 221.6 239.168 221.173 239.086C215.636 238.545 209.225 236.115 199.908 235.083C193.88 234.141 185.07 234.996 184.588 235.255C192.702 227.524 196.502 215.185 195.056 204.4C201.276 212.321 211.864 215.943 222.396 219.343C223.876 219.822 226.817 220.476 228.602 221.886C229.04 222.234 229.41 222.633 229.716 223.071Z" stroke="#1A2E35" stroke-width="1.33333" stroke-miterlimit="10" stroke-linecap="round" stroke-linejoin="round"/>
<path d="M221.173 239.087C221.6 239.168 222.036 239.195 222.469 239.168C227.172 238.87 230.139 233.214 230.808 229.13C231.143 227.083 230.912 224.783 229.716 223.071C229.41 222.633 229.041 222.234 228.602 221.887C226.818 220.477 223.876 219.821 222.396 219.344C220.834 218.84 219.272 218.33 217.722 217.802C218.691 220.525 218.482 225.033 217.506 228.008C215.717 233.465 213.018 235.528 210.452 236.923C214.562 237.852 218.011 238.777 221.173 239.087Z" fill="#407BFF"/>
<path d="M221.173 239.087C221.6 239.168 222.036 239.195 222.469 239.168C227.172 238.87 230.139 233.214 230.808 229.13C231.143 227.083 230.912 224.783 229.716 223.071C229.41 222.633 229.041 222.234 228.602 221.887C226.818 220.477 223.876 219.821 222.396 219.344C220.834 218.84 219.272 218.33 217.722 217.802C218.691 220.525 218.482 225.033 217.506 228.008C215.717 233.465 213.018 235.528 210.452 236.923C214.562 237.852 218.011 238.777 221.173 239.087Z" stroke="#1A2E35" stroke-width="1.33333" stroke-miterlimit="10" stroke-linecap="round" stroke-linejoin="round"/>
<path d="M210.277 243.293L209.698 244.13L210.791 245.224C210.791 245.224 209.505 247.734 208.668 250.694C207.831 253.654 207.123 255.199 207.123 255.199C207.123 255.199 204.871 256.679 205 257.451C205.128 258.224 208.411 260.348 209.118 260.927C209.826 261.506 211.049 262.15 212.078 261.635C213.109 261.12 213.044 260.476 213.044 259.768C213.044 259.061 213.109 258.224 213.109 258.224C213.109 258.224 216.648 251.788 217.227 249.793C217.806 247.798 218.064 244.387 218.965 244.001C219.866 243.615 222.376 243.679 222.762 242.65C223.148 241.62 224.956 237.482 224.956 237.482L215.361 235.699C215.361 235.699 213.109 237.501 209.633 236.729L212.594 239.367L210.277 243.293Z" fill="white"/>
<path d="M210.277 243.293L209.698 244.13L210.791 245.224C210.791 245.224 209.505 247.734 208.668 250.694C207.831 253.654 207.123 255.199 207.123 255.199C207.123 255.199 204.871 256.679 205 257.451C205.128 258.224 208.411 260.348 209.118 260.927C209.826 261.506 211.049 262.15 212.078 261.635C213.109 261.12 213.044 260.476 213.044 259.768C213.044 259.061 213.109 258.224 213.109 258.224C213.109 258.224 216.648 251.788 217.227 249.793C217.806 247.798 218.064 244.387 218.965 244.001C219.866 243.615 222.376 243.679 222.762 242.65C223.148 241.62 224.956 237.482 224.956 237.482L215.361 235.699C215.361 235.699 213.109 237.501 209.633 236.729L212.594 239.367L210.277 243.293Z" stroke="#1A2E35" stroke-width="1.33333" stroke-miterlimit="10" stroke-linecap="round" stroke-linejoin="round"/>
<path d="M209.634 236.729L212.594 239.368L210.277 243.294L209.698 244.13L210.104 244.536L211.435 244.452C211.435 244.452 214.861 240.139 215.247 239.203C215.633 238.266 215.361 235.7 215.361 235.7C215.361 235.7 213.109 237.501 209.634 236.729Z" fill="#EEEEEE"/>
<path d="M209.634 236.729L212.594 239.368L210.277 243.294L209.698 244.13L210.104 244.536L211.435 244.452C211.435 244.452 214.861 240.139 215.247 239.203C215.633 238.266 215.361 235.7 215.361 235.7C215.361 235.7 213.109 237.501 209.634 236.729Z" stroke="#1A2E35" stroke-width="1.33333" stroke-miterlimit="10" stroke-linecap="round" stroke-linejoin="round"/>
<path d="M212.4 238.016C212.4 238.016 212.529 238.981 211.692 239.754C210.856 240.526 209.44 242.456 209.633 242.585C209.826 242.714 210.277 243.293 210.277 243.293L211.113 243.551C211.113 243.551 213.237 240.461 213.302 239.689C213.365 238.917 212.4 238.016 212.4 238.016Z" fill="#EEEEEE"/>
<path d="M212.4 238.016C212.4 238.016 212.529 238.981 211.692 239.754C210.856 240.526 209.44 242.456 209.633 242.585C209.826 242.714 210.277 243.293 210.277 243.293L211.113 243.551C211.113 243.551 213.237 240.461 213.302 239.689C213.365 238.917 212.4 238.016 212.4 238.016Z" stroke="#1A2E35" stroke-width="1.33333" stroke-miterlimit="10" stroke-linecap="round" stroke-linejoin="round"/>
<path d="M209.698 244.13L211.435 244.453L212.98 245.739L210.792 245.225L209.698 244.13Z" fill="#1A2E35"/>
<path d="M209.698 244.13L211.435 244.453L212.98 245.739L210.792 245.225L209.698 244.13Z" stroke="#1A2E35" stroke-width="1.33333" stroke-miterlimit="10" stroke-linecap="round" stroke-linejoin="round"/>
<path d="M208.475 256.229C209.183 255.65 209.311 254.363 210.276 252.11C211.242 249.858 212.98 245.738 212.98 245.738L210.791 245.224C210.791 245.224 209.504 247.734 208.668 250.694C207.831 253.654 207.123 255.199 207.123 255.199C207.123 255.199 204.871 256.679 204.999 257.451C205.128 258.224 208.41 260.348 209.118 260.927C209.506 261.244 210.049 261.58 210.628 261.734C209.779 261.085 206.906 258.625 206.737 257.837C206.544 256.937 207.767 256.808 208.475 256.229Z" fill="#EEEEEE"/>
<path d="M208.475 256.229C209.183 255.65 209.311 254.363 210.276 252.11C211.242 249.858 212.98 245.738 212.98 245.738L210.791 245.224C210.791 245.224 209.504 247.734 208.668 250.694C207.831 253.654 207.123 255.199 207.123 255.199C207.123 255.199 204.871 256.679 204.999 257.451C205.128 258.224 208.41 260.348 209.118 260.927C209.506 261.244 210.049 261.58 210.628 261.734C209.779 261.085 206.906 258.625 206.737 257.837C206.544 256.937 207.767 256.808 208.475 256.229Z" stroke="#1A2E35" stroke-width="1.33333" stroke-miterlimit="10" stroke-linecap="round" stroke-linejoin="round"/>
<path d="M212.4 238.017L211.95 237.566H211.306L212.336 238.789C212.336 238.789 212.336 238.467 212.4 238.017Z" fill="#1A2E35"/>
<path d="M212.4 238.017L211.95 237.566H211.306L212.336 238.789C212.336 238.789 212.336 238.467 212.4 238.017Z" stroke="#1A2E35" stroke-width="1.33333" stroke-miterlimit="10" stroke-linecap="round" stroke-linejoin="round"/>
<path d="M206.779 257.957L205.001 257.376C205.001 257.401 204.996 257.428 204.999 257.451C205.128 258.223 208.41 260.347 209.118 260.927C209.506 261.244 210.049 261.579 210.628 261.734C209.818 261.114 207.166 258.848 206.779 257.957Z" fill="#1A2E35"/>
<path d="M206.779 257.957L205.001 257.376C205.001 257.401 204.996 257.428 204.999 257.451C205.128 258.223 208.41 260.347 209.118 260.927C209.506 261.244 210.049 261.579 210.628 261.734C209.818 261.114 207.166 258.848 206.779 257.957Z" stroke="#1A2E35" stroke-width="1.33333" stroke-miterlimit="10" stroke-linecap="round" stroke-linejoin="round"/>
<path d="M209.634 242.586L210.895 242.868L211.114 243.551L210.277 243.294L209.634 242.586Z" fill="#1A2E35"/>
<path d="M209.634 242.586L210.895 242.868L211.114 243.551L210.277 243.294L209.634 242.586Z" stroke="#1A2E35" stroke-width="1.33333" stroke-miterlimit="10" stroke-linecap="round" stroke-linejoin="round"/>
<path d="M210.895 242.869C210.895 242.869 212.793 240.599 212.834 239.692L210.895 242.869Z" fill="#1A2E35"/>
<path d="M210.895 242.869C210.895 242.869 212.793 240.599 212.834 239.692" stroke="#1A2E35" stroke-width="1.33333" stroke-miterlimit="10" stroke-linecap="round" stroke-linejoin="round"/>
<path d="M80.6415 134.311C80.6415 134.311 82.5368 134.849 82.0355 136.503C81.535 138.156 76.7605 138.66 76.7605 138.66L80.6415 134.311Z" fill="#9A9A9A"/>
<path d="M80.6415 134.311C80.6415 134.311 82.5368 134.849 82.0355 136.503C81.535 138.156 76.7605 138.66 76.7605 138.66L80.6415 134.311Z" stroke="#1A2E35" stroke-width="1.33333" stroke-miterlimit="10" stroke-linecap="round" stroke-linejoin="round"/>
<path d="M78.1642 137.2C78.1642 137.2 80.0595 137.738 79.5582 139.392C79.0577 141.045 74.2832 141.549 74.2832 141.549L78.1642 137.2Z" fill="#9A9A9A"/>
<path d="M78.1642 137.2C78.1642 137.2 80.0595 137.738 79.5582 139.392C79.0577 141.045 74.2832 141.549 74.2832 141.549L78.1642 137.2Z" stroke="#1A2E35" stroke-width="1.33333" stroke-miterlimit="10" stroke-linecap="round" stroke-linejoin="round"/>
<path d="M74.9889 139.909C74.9889 139.909 76.8842 140.447 76.383 142.1C75.8824 143.754 71.1079 144.258 71.1079 144.258L74.9889 139.909Z" fill="#9A9A9A"/>
<path d="M74.9889 139.909C74.9889 139.909 76.8842 140.447 76.383 142.1C75.8824 143.754 71.1079 144.258 71.1079 144.258L74.9889 139.909Z" stroke="#1A2E35" stroke-width="1.33333" stroke-miterlimit="10" stroke-linecap="round" stroke-linejoin="round"/>
<path d="M63.3028 136.162L43.8613 145.26L43.6516 158.636L60.9146 143.674L68.5328 143.287L71.7069 135.475L63.3028 136.162Z" fill="#FFB6B6"/>
<path d="M63.3028 136.162L43.8613 145.26L43.6516 158.636L60.9146 143.674L68.5328 143.287L71.7069 135.475L63.3028 136.162Z" stroke="#FFB6B6" stroke-width="1.33333" stroke-miterlimit="10" stroke-linecap="round" stroke-linejoin="round"/>
<path d="M83.0949 118.563L61.4719 144.868L63.2361 156.489L88.8851 126.817L83.0949 118.563Z" fill="#1A2E35"/>
<path d="M83.0949 118.563L61.4719 144.868L63.2361 156.489L88.8851 126.817L83.0949 118.563Z" stroke="#1A2E35" stroke-width="1.33333" stroke-miterlimit="10" stroke-linecap="round" stroke-linejoin="round"/>
<path d="M82.4667 119.92L62.4336 144.289L64.1345 153.698L87.1523 126.641L82.4667 119.92Z" fill="white"/>
<path d="M82.4667 119.92L62.4336 144.289L64.1345 153.698L87.1523 126.641L82.4667 119.92Z" stroke="#1A2E35" stroke-width="1.33333" stroke-miterlimit="10" stroke-linecap="round" stroke-linejoin="round"/>
<path d="M85.4195 120.691L83.0444 122.982L85.0127 125.813L87.7398 123.703L85.4195 120.691Z" fill="#1A2E35"/>
<path d="M85.4195 120.691L83.0444 122.982L85.0127 125.813L87.7398 123.703L85.4195 120.691Z" stroke="#1A2E35" stroke-width="1.33333" stroke-miterlimit="10" stroke-linecap="round" stroke-linejoin="round"/>
<path d="M63.0079 140.661C63.0079 140.661 64.2701 141.448 65.5767 140.66C66.8833 139.872 70.104 135.624 70.104 135.624L71.7071 135.475C73.3108 135.326 74.7063 133.959 75.3589 132.281C76.0115 130.603 73.8288 130.663 72.9679 131.124C72.107 131.584 69.5083 131.779 68.2906 131.987C67.0728 132.195 63.303 136.162 63.303 136.162C63.303 136.162 61.4035 138.242 61.6409 139.266" fill="#FFB6B6"/>
<path d="M63.0079 140.661C63.0079 140.661 64.2701 141.448 65.5767 140.66C66.8833 139.872 70.104 135.624 70.104 135.624L71.7071 135.475C73.3108 135.326 74.7063 133.959 75.3589 132.281C76.0115 130.603 73.8288 130.663 72.9679 131.124C72.107 131.584 69.5083 131.779 68.2906 131.987C67.0728 132.195 63.303 136.162 63.303 136.162C63.303 136.162 61.4035 138.242 61.6409 139.266" stroke="#1A2E35" stroke-width="1.33333" stroke-miterlimit="10" stroke-linecap="round" stroke-linejoin="round"/>
<path d="M5.58603 299.979C5.58603 299.979 5.37012 302.79 5.37012 304.087C5.37012 305.384 5.80195 307.113 5.80195 307.113H35.1993H42.8716C42.8716 307.113 43.0883 304.735 40.7104 302.357C38.3325 299.979 34.119 298.034 32.1737 298.034C30.2277 298.034 23.9591 292.847 22.8788 292.198C21.7979 291.549 5.58603 299.979 5.58603 299.979Z" fill="#407BFF"/>
<path d="M5.58603 299.979C5.58603 299.979 5.37012 302.79 5.37012 304.087C5.37012 305.384 5.80195 307.113 5.80195 307.113H35.1993H42.8716C42.8716 307.113 43.0883 304.735 40.7104 302.357C38.3325 299.979 34.119 298.034 32.1737 298.034C30.2277 298.034 23.9591 292.847 22.8788 292.198C21.7979 291.549 5.58603 299.979 5.58603 299.979Z" stroke="#1A2E35" stroke-width="1.33333" stroke-miterlimit="10" stroke-linecap="round" stroke-linejoin="round"/>
<path d="M5.80288 307.113H35.2002H42.8726C42.8726 307.113 42.9489 306.234 42.4796 305.014H5.42798C5.54531 306.081 5.80288 307.113 5.80288 307.113Z" fill="#9A9A9A"/>
<path d="M5.80288 307.113H35.2002H42.8726C42.8726 307.113 42.9489 306.234 42.4796 305.014H5.42798C5.54531 306.081 5.80288 307.113 5.80288 307.113Z" stroke="#1A2E35" stroke-width="1.33333" stroke-miterlimit="10" stroke-linecap="round" stroke-linejoin="round"/>
<path d="M19.6365 196.007C19.6365 196.007 14.8808 225.405 13.368 229.945C11.8552 234.484 6.45101 243.779 5.37003 249.831C4.28906 255.883 3.64061 259.558 4.72159 262.368C5.80256 265.178 5.15411 287.875 5.15411 287.875C5.15411 287.875 4.28906 294.359 4.50567 296.305C4.72159 298.25 5.15411 300.844 5.15411 300.844C5.15411 300.844 6.88353 301.925 9.04479 301.492C11.2067 301.06 15.0974 298.25 15.0974 298.25C15.0974 298.25 21.3659 295.008 22.4469 293.495C23.5272 291.982 22.2303 280.741 22.2303 275.554C22.2303 270.366 24.3923 247.237 25.9051 243.995C27.4186 240.752 31.9577 228.431 34.984 213.516C38.0103 198.601 40.2257 191.738 35.6324 182.605C31.0392 173.473 20.285 185.2 19.6365 196.007Z" fill="#1A2E35"/>
<path d="M19.6365 196.007C19.6365 196.007 14.8808 225.405 13.368 229.945C11.8552 234.484 6.45101 243.779 5.37003 249.831C4.28906 255.883 3.64061 259.558 4.72159 262.368C5.80256 265.178 5.15411 287.875 5.15411 287.875C5.15411 287.875 4.28906 294.359 4.50567 296.305C4.72159 298.25 5.15411 300.844 5.15411 300.844C5.15411 300.844 6.88353 301.925 9.04479 301.492C11.2067 301.06 15.0974 298.25 15.0974 298.25C15.0974 298.25 21.3659 295.008 22.4469 293.495C23.5272 291.982 22.2303 280.741 22.2303 275.554C22.2303 270.366 24.3923 247.237 25.9051 243.995C27.4186 240.752 31.9577 228.431 34.984 213.516C38.0103 198.601 40.2257 191.738 35.6324 182.605C31.0392 173.473 20.285 185.2 19.6365 196.007Z" stroke="#1A2E35" stroke-width="1.33333" stroke-miterlimit="10" stroke-linecap="round" stroke-linejoin="round"/>
<path d="M30.0122 293.494C30.0122 293.494 35.5226 297.818 38.1164 298.682C40.7108 299.547 45.8984 300.411 47.4112 302.357C48.9247 304.302 48.2763 307.328 48.2763 307.328H13.5844C13.5844 307.328 12.2868 304.519 12.936 300.411C13.5844 296.305 30.0122 293.494 30.0122 293.494Z" fill="#407BFF"/>
<path d="M30.0122 293.494C30.0122 293.494 35.5226 297.818 38.1164 298.682C40.7108 299.547 45.8984 300.411 47.4112 302.357C48.9247 304.302 48.2763 307.328 48.2763 307.328H13.5844C13.5844 307.328 12.2868 304.519 12.936 300.411C13.5844 296.305 30.0122 293.494 30.0122 293.494Z" stroke="#1A2E35" stroke-width="1.33333" stroke-miterlimit="10" stroke-linecap="round" stroke-linejoin="round"/>
<path d="M13.5839 307.329H48.2757C48.2757 307.329 48.4944 306.296 48.3771 305.05H12.9514C13.1972 306.484 13.5839 307.329 13.5839 307.329Z" fill="#9A9A9A"/>
<path d="M13.5839 307.329H48.2757C48.2757 307.329 48.4944 306.296 48.3771 305.05H12.9514C13.1972 306.484 13.5839 307.329 13.5839 307.329Z" stroke="#1A2E35" stroke-width="1.33333" stroke-miterlimit="10" stroke-linecap="round" stroke-linejoin="round"/>
<path d="M12.8812 168.447C12.8812 168.447 10.7734 177.364 12.071 182.227C13.3679 187.091 15.9617 192.927 17.0961 194.548C18.2312 196.17 18.0688 215.299 17.907 221.622C17.7445 227.945 13.0437 238.645 10.4492 245.616C7.8554 252.587 10.4492 263.449 10.4492 269.772C10.4492 276.094 10.2874 279.985 10.4492 283.714C10.6116 287.443 10.9359 291.333 10.9359 291.333C10.9359 291.333 10.6116 292.63 10.4492 294.413C10.2874 296.197 12.071 297.008 12.071 297.008C12.071 297.008 12.2328 297.98 12.2328 299.601C12.2328 301.223 13.2054 302.358 13.2054 302.358C13.2054 302.358 22.9328 298.466 25.5266 297.008C28.1204 295.548 31.2008 293.927 31.2008 293.927C31.2008 293.927 31.0384 290.361 31.3626 288.901C31.6868 287.443 29.2555 284.686 29.2555 284.686C29.2555 284.686 29.4172 275.932 29.5797 272.528C29.7415 269.123 36.2266 246.426 38.172 233.457C40.1173 220.488 44.1697 204.113 45.1431 194.387C46.1158 184.659 45.6291 170.069 45.6291 169.583C45.6291 169.096 22.4461 168.934 20.3383 168.61C18.2312 168.285 13.5296 167.312 13.5296 167.312L12.8812 168.447Z" fill="#1A2E35"/>
<path d="M12.8812 168.447C12.8812 168.447 10.7734 177.364 12.071 182.227C13.3679 187.091 15.9617 192.927 17.0961 194.548C18.2312 196.17 18.0688 215.299 17.907 221.622C17.7445 227.945 13.0437 238.645 10.4492 245.616C7.8554 252.587 10.4492 263.449 10.4492 269.772C10.4492 276.094 10.2874 279.985 10.4492 283.714C10.6116 287.443 10.9359 291.333 10.9359 291.333C10.9359 291.333 10.6116 292.63 10.4492 294.413C10.2874 296.197 12.071 297.008 12.071 297.008C12.071 297.008 12.2328 297.98 12.2328 299.601C12.2328 301.223 13.2054 302.358 13.2054 302.358C13.2054 302.358 22.9328 298.466 25.5266 297.008C28.1204 295.548 31.2008 293.927 31.2008 293.927C31.2008 293.927 31.0384 290.361 31.3626 288.901C31.6868 287.443 29.2555 284.686 29.2555 284.686C29.2555 284.686 29.4172 275.932 29.5797 272.528C29.7415 269.123 36.2266 246.426 38.172 233.457C40.1173 220.488 44.1697 204.113 45.1431 194.387C46.1158 184.659 45.6291 170.069 45.6291 169.583C45.6291 169.096 22.4461 168.934 20.3383 168.61C18.2312 168.285 13.5296 167.312 13.5296 167.312L12.8812 168.447Z" stroke="#1A2E35" stroke-width="1.33333" stroke-miterlimit="10" stroke-linecap="round" stroke-linejoin="round"/>
<path d="M24.5543 97.7636C24.5543 97.7636 21.6363 99.223 21.1497 101.33C20.6637 103.438 13.0441 111.543 11.423 117.218C9.80186 122.892 10.4503 134.078 11.2605 138.942C12.0714 143.805 13.3683 153.532 13.0441 157.423C12.7199 161.314 11.0988 166.988 12.0714 168.934C13.0441 170.879 23.7434 172.176 31.363 172.014C38.9826 171.852 45.9537 173.149 47.4131 170.393C48.8724 167.637 48.0615 160.503 47.5756 154.991C47.0889 149.48 43.0357 126.783 41.9013 120.784C40.7662 114.786 38.1724 110.571 35.9028 107.004C33.6333 103.438 27.4724 98.0878 24.5543 97.7636Z" fill="#407BFF"/>
<path d="M24.5543 97.7636C24.5543 97.7636 21.6363 99.223 21.1497 101.33C20.6637 103.438 13.0441 111.543 11.423 117.218C9.80186 122.892 10.4503 134.078 11.2605 138.942C12.0714 143.805 13.3683 153.532 13.0441 157.423C12.7199 161.314 11.0988 166.988 12.0714 168.934C13.0441 170.879 23.7434 172.176 31.363 172.014C38.9826 171.852 45.9537 173.149 47.4131 170.393C48.8724 167.637 48.0615 160.503 47.5756 154.991C47.0889 149.48 43.0357 126.783 41.9013 120.784C40.7662 114.786 38.1724 110.571 35.9028 107.004C33.6333 103.438 27.4724 98.0878 24.5543 97.7636Z" stroke="#1A2E35" stroke-width="1.33333" stroke-miterlimit="10" stroke-linecap="round" stroke-linejoin="round"/>
<path d="M24.5542 97.7637C24.5542 97.7637 21.6362 99.223 21.1495 101.33C21.0849 101.612 20.8884 102.004 20.5996 102.481C20.7982 102.623 21.012 102.769 21.2619 102.922C24.457 104.888 39.2039 117.915 39.2039 117.915L39.1095 112.54C38.0903 110.479 36.9621 108.669 35.9026 107.004C33.6331 103.438 27.4722 98.0879 24.5542 97.7637Z" fill="#407BFF"/>
<path d="M24.5542 97.7637C24.5542 97.7637 21.6362 99.223 21.1495 101.33C21.0849 101.612 20.8884 102.004 20.5996 102.481C20.7982 102.623 21.012 102.769 21.2619 102.922C24.457 104.888 39.2039 117.915 39.2039 117.915L39.1095 112.54C38.0903 110.479 36.9621 108.669 35.9026 107.004C33.6331 103.438 27.4722 98.0879 24.5542 97.7637Z" stroke="#1A2E35" stroke-width="1.33333" stroke-miterlimit="10" stroke-linecap="round" stroke-linejoin="round"/>
<path d="M44.6516 62.7362C44.6516 62.7362 48.293 65.9222 49.5066 69.2603C50.7202 72.5983 49.6587 75.6329 50.7202 77.1499C51.7824 78.6669 53.6035 79.7291 53.9069 81.3981C54.2103 83.0672 51.7824 83.8253 51.7824 83.8253V85.7977C51.7824 85.7977 52.1217 86.201 52.1217 86.8085C52.1217 87.4152 51.9345 88.2256 51.9345 88.2256C51.9345 88.2256 52.0858 88.8711 51.7824 89.9327C51.479 90.9949 50.8722 91.4116 50.8722 91.4116C50.8722 91.4116 50.7202 93.536 49.81 94.9009C48.8998 96.2666 46.1686 97.0254 44.0448 97.0254C41.9204 97.0254 38.431 95.6598 38.431 95.6598C38.431 95.6598 36.4586 100.06 36.4586 102.791C36.4586 105.522 36.6106 110.984 36.6106 110.984C36.6106 110.984 29.7825 105.066 28.1142 103.246C26.4451 101.426 24.3207 99.908 24.3207 99.908C24.3207 99.908 25.6863 94.9009 24.9275 91.1082C24.1693 87.3154 18.2521 84.7362 16.2797 78.8189C14.3073 72.9017 15.8243 64.7087 21.8935 60.6118C27.9621 56.5156 35.6997 55.9088 39.4932 56.3643C43.286 56.819 48.4444 60.6118 44.6516 62.7362Z" fill="#FFB6B6"/>
<path d="M49.5066 69.2603C48.293 65.9222 44.6516 62.7362 44.6516 62.7362C48.4444 60.6118 43.286 56.819 39.4932 56.3643C35.6997 55.9088 27.9621 56.5156 21.8935 60.6118C15.8243 64.7087 14.3073 72.9017 16.2797 78.8189C18.2521 84.7362 24.1693 87.3154 24.9275 91.1082C25.6863 94.9009 24.3207 99.908 24.3207 99.908C24.3207 99.908 26.4451 101.426 28.1142 103.246C29.7825 105.066 36.6106 110.984 36.6106 110.984C36.6106 110.984 36.4586 105.522 36.4586 102.791C36.4586 100.06 38.431 95.6598 38.431 95.6598C38.431 95.6598 41.9204 97.0254 44.0448 97.0254C46.1686 97.0254 48.8998 96.2666 49.81 94.9009C51.7861 91.1222 52.1683 88.6746 51.7824 83.8253C51.7824 83.8253 54.2103 83.0672 53.9069 81.3981C53.6035 79.7291 51.7824 78.6669 50.7202 77.1499C49.6587 75.6329 50.7202 72.5983 49.5066 69.2603Z" stroke="#1A2E35" stroke-width="1.33333" stroke-miterlimit="10" stroke-linecap="round" stroke-linejoin="round"/>
<path d="M47.6076 76.9599C47.6076 77.7243 47.3667 78.3442 47.0688 78.3442C46.7717 78.3442 46.5308 77.7243 46.5308 76.9599C46.5308 76.1955 46.7717 75.5755 47.0688 75.5755C47.3667 75.5755 47.6076 76.1955 47.6076 76.9599Z" fill="#1A2E35"/>
<path d="M47.6076 76.9599C47.6076 77.7243 47.3667 78.3442 47.0688 78.3442C46.7717 78.3442 46.5308 77.7243 46.5308 76.9599C46.5308 76.1955 46.7717 75.5755 47.0688 75.5755C47.3667 75.5755 47.6076 76.1955 47.6076 76.9599Z" stroke="#1A2E35" stroke-width="1.33333" stroke-miterlimit="10" stroke-linecap="round" stroke-linejoin="round"/>
<path d="M44.6516 62.7365C48.4444 60.612 43.286 56.8192 39.4932 56.3645C35.6997 55.909 27.9621 56.5158 21.8935 60.612C15.8243 64.7089 14.3073 72.9019 16.2797 78.8192C18.0188 84.0359 22.8197 86.6588 24.4519 89.8066C26.9159 89.3151 27.0311 87.4614 26.7485 85.3432C26.4451 83.0674 27.8108 80.6395 29.3277 80.3361C30.8447 80.0327 32.6658 78.9705 32.3624 77.6056C32.059 76.24 31.4515 74.4189 32.9692 73.0533C34.4862 71.6884 36.1552 70.1707 35.6997 67.5915C35.245 65.0123 32.9692 64.5568 36.0038 63.1919C39.0378 61.8263 44.6516 62.7365 44.6516 62.7365Z" fill="#1A2E35"/>
<path d="M44.6516 62.7365C48.4444 60.612 43.286 56.8192 39.4932 56.3645C35.6997 55.909 27.9621 56.5158 21.8935 60.612C15.8243 64.7089 14.3073 72.9019 16.2797 78.8192C18.0188 84.0359 22.8197 86.6588 24.4519 89.8066C26.9159 89.3151 27.0311 87.4614 26.7485 85.3432C26.4451 83.0674 27.8108 80.6395 29.3277 80.3361C30.8447 80.0327 32.6658 78.9705 32.3624 77.6056C32.059 76.24 31.4515 74.4189 32.9692 73.0533C34.4862 71.6884 36.1552 70.1707 35.6997 67.5915C35.245 65.0123 32.9692 64.5568 36.0038 63.1919C39.0378 61.8263 44.6516 62.7365 44.6516 62.7365Z" stroke="#1A2E35" stroke-width="1.33333" stroke-miterlimit="10" stroke-linecap="round" stroke-linejoin="round"/>
<path d="M30.5416 81.7019C30.5416 81.7019 29.7828 78.5159 26.2934 78.5159C22.804 78.5159 23.7142 83.2188 24.6244 85.1912C25.5345 87.1637 27.9624 89.4395 30.3903 87.6191" fill="#FFB6B6"/>
<path d="M30.5416 81.7019C30.5416 81.7019 29.7828 78.5159 26.2934 78.5159C22.804 78.5159 23.7142 83.2188 24.6244 85.1912C25.5345 87.1637 27.9624 89.4395 30.3903 87.6191" stroke="#1A2E35" stroke-width="1.33333" stroke-miterlimit="10" stroke-linecap="round" stroke-linejoin="round"/>
<path d="M42.5496 73.2842C42.5496 73.2842 44.6574 71.6631 47.0887 71.9873" stroke="#1A2E35" stroke-width="1.33333" stroke-miterlimit="10" stroke-linecap="round" stroke-linejoin="round"/>
<path d="M74.2828 135.129L58.8846 130.245L58.4507 131.546L74.1633 136.747L76.0059 136.421L74.2828 135.129Z" fill="white"/>
<path d="M74.2828 135.129L58.8846 130.245L58.4507 131.546L74.1633 136.747L76.0059 136.421L74.2828 135.129Z" stroke="#1A2E35" stroke-width="1.33333" stroke-miterlimit="10" stroke-linecap="round" stroke-linejoin="round"/>
<path d="M73.9298 134.156C74.1964 133.268 73.5577 132.878 72.853 132.711C72.0831 132.528 71.2735 132.648 70.5591 132.988C69.8128 133.343 68.7672 133.834 68.3826 133.991C67.0628 133.535 64.746 133.946 63.8921 134.159C62.5917 134.484 61.5989 136.768 61.5989 136.768C61.1886 136.946 59.2898 140.853 59.2898 140.853C59.2898 140.853 58.0464 142.629 57.1584 142.807C56.2704 142.985 27.4958 148.491 27.4958 148.491C27.4958 148.491 26.0747 155.24 27.6729 158.082C29.2718 160.924 31.5809 161.812 35.4882 160.924C39.3963 160.036 60.5332 148.313 60.5332 148.313C60.5332 148.313 62.8424 147.603 64.9738 146.715C65.7812 146.378 66.4859 145.939 67.0892 145.428C67.226 145.356 67.3773 145.278 67.553 145.196C68.3611 144.819 70.2453 143.689 70.8376 142.558C71.4298 141.427 71.4298 140.243 71.4839 139.973C71.5374 139.705 72.022 139.22 72.2913 138.951C72.56 138.681 72.8294 138.143 72.7759 137.551C72.7391 137.148 72.3816 136.873 72.1546 136.736C72.8558 136.033 73.6521 135.08 73.9298 134.156Z" fill="#FFB6B6"/>
<path d="M73.9298 134.156C74.1964 133.268 73.5577 132.878 72.853 132.711C72.0831 132.528 71.2735 132.648 70.5591 132.988C69.8128 133.343 68.7672 133.834 68.3826 133.991C67.0628 133.535 64.746 133.946 63.8921 134.159C62.5917 134.484 61.5989 136.768 61.5989 136.768C61.1886 136.946 59.2898 140.853 59.2898 140.853C59.2898 140.853 58.0464 142.629 57.1584 142.807C56.2704 142.985 27.4958 148.491 27.4958 148.491C27.4958 148.491 26.0747 155.24 27.6729 158.082C29.2718 160.924 31.5809 161.812 35.4882 160.924C39.3963 160.036 60.5332 148.313 60.5332 148.313C60.5332 148.313 62.8424 147.603 64.9738 146.715C65.7812 146.378 66.4859 145.939 67.0892 145.428C67.226 145.356 67.3773 145.278 67.553 145.196C68.3611 144.819 70.2453 143.689 70.8375 142.558C71.4298 141.427 71.4298 140.243 71.4839 139.973C71.5374 139.705 72.022 139.22 72.2913 138.951C72.56 138.681 72.8294 138.143 72.7759 137.551C72.7391 137.148 72.3816 136.873 72.1546 136.736C72.8558 136.033 73.6521 135.08 73.9298 134.156Z" stroke="#1A2E35" stroke-width="1.33333" stroke-miterlimit="10" stroke-linecap="round" stroke-linejoin="round"/>
<path d="M35.5811 146.543L38.713 146.445C38.713 146.445 39.8877 149.675 39.594 153.395C39.3003 157.114 38.6151 159.757 38.6151 159.757L33.8191 161.616L35.5811 146.543Z" fill="#407BFF"/>
<path d="M35.5811 146.543L38.713 146.445C38.713 146.445 39.8877 149.675 39.594 153.395C39.3003 157.114 38.6151 159.757 38.6151 159.757L33.8191 161.616L35.5811 146.543Z" stroke="#1A2E35" stroke-width="1.33333" stroke-miterlimit="10" stroke-linecap="round" stroke-linejoin="round"/>
<path d="M18.4887 114.092C18.4887 114.092 15.1937 118.302 14.8278 124.343C14.4613 130.384 17.9396 140.635 17.9396 142.649C17.9396 144.663 16.2921 149.971 17.0245 151.801C17.7563 153.632 19.4038 155.279 19.4038 155.279C19.4038 155.279 19.4038 161.138 24.3462 162.968C29.2887 164.799 34.1826 161.626 35.4885 160.925C36.7945 160.222 37.3436 148.324 36.4279 146.127C35.5128 143.93 34.2312 143.564 34.2312 143.564C34.2312 143.564 35.5128 141.55 34.5978 139.537L33.6821 137.523C33.6821 137.523 36.4279 130.201 34.5978 123.428" fill="#407BFF"/>
<path d="M18.4887 114.092C18.4887 114.092 15.1937 118.302 14.8278 124.343C14.4613 130.384 17.9396 140.635 17.9396 142.649C17.9396 144.663 16.2921 149.971 17.0245 151.801C17.7563 153.632 19.4038 155.279 19.4038 155.279C19.4038 155.279 19.4038 161.138 24.3462 162.968C29.2887 164.799 34.1826 161.626 35.4885 160.925C36.7945 160.222 37.3436 148.324 36.4279 146.127C35.5128 143.93 34.2312 143.564 34.2312 143.564C34.2312 143.564 35.5128 141.55 34.5978 139.537L33.6821 137.523C33.6821 137.523 36.4279 130.201 34.5978 123.428" stroke="#1A2E35" stroke-width="1.33333" stroke-miterlimit="10" stroke-linecap="round" stroke-linejoin="round"/>
<path d="M32.95 145.578C32.95 145.578 28.9225 151.253 24.1633 153.266" stroke="#1A2E35" stroke-width="1.33333" stroke-miterlimit="10" stroke-linecap="round" stroke-linejoin="round"/>
<path d="M32.0346 143.748C32.0346 143.748 28.3737 145.761 24.5295 146.128" stroke="#1A2E35" stroke-width="1.33333" stroke-miterlimit="10" stroke-linecap="round" stroke-linejoin="round"/>
<path d="M135.472 72.1042H85.3948V5.20814H135.472V72.1042Z" fill="white" stroke="#1A2E35" stroke-width="1.33333" stroke-miterlimit="10" stroke-linecap="round" stroke-linejoin="round"/>
<path d="M132.761 30.8875H95.5247V23.8656H132.761V30.8875Z" fill="#407BFF" stroke="#1A2E35" stroke-width="1.33333" stroke-miterlimit="10"/>
<path d="M120.469 42.9192H95.2742V35.8974H120.469V42.9192Z" fill="#797979" stroke="#1A2E35" stroke-width="1.33333" stroke-miterlimit="10"/>
<path d="M125.82 54.897H95.2732V47.8751H125.82V54.897Z" fill="#407BFF" stroke="#1A2E35" stroke-width="1.33333" stroke-miterlimit="10"/>
<path d="M109.383 66.8755H95.2732V59.8537H109.383V66.8755Z" fill="#797979" stroke="#1A2E35" stroke-width="1.33333" stroke-miterlimit="10"/>
<path d="M91.7019 20.8799V68.8545" stroke="#1A2E35" stroke-width="1.33333" stroke-miterlimit="10" stroke-linecap="round" stroke-linejoin="round"/>
<path d="M92.0837 33.877H100.876" stroke="#1A2E35" stroke-width="1.33333" stroke-miterlimit="10" stroke-linecap="round" stroke-linejoin="round"/>
<path d="M92.335 45.4832H101.127" stroke="#1A2E35" stroke-width="1.33333" stroke-miterlimit="10" stroke-linecap="round" stroke-linejoin="round"/>
<path d="M92.0837 57.1956H100.876" stroke="#1A2E35" stroke-width="1.33333" stroke-miterlimit="10" stroke-linecap="round" stroke-linejoin="round"/>
<path d="M127.121 13.9458H92.1436V9.74064H127.121V13.9458Z" fill="#1A2E35" stroke="#1A2E35" stroke-width="1.33333" stroke-miterlimit="10" stroke-linecap="round" stroke-linejoin="round"/>
<path d="M215.239 59.3607C210.892 68.5841 199.876 72.5301 190.632 68.175C189.63 67.7029 188.69 67.1523 187.815 66.5347C180.624 61.4535 177.887 51.8109 181.762 43.5869C186.107 34.3631 197.124 30.4171 206.368 34.7731C215.613 39.1287 219.584 50.1369 215.239 59.3607Z" fill="#DBE6FC"/>
<g clip-path="url(#clip0_321_8671)">
<path d="M198.861 44.2494L205.562 47.84L204.174 48.8211L201.989 47.6506C202.103 48.2116 202.1 48.7965 201.975 49.3678L204.126 50.5203L202.738 51.5014L201.397 50.7833C200.867 51.5742 200.084 52.1627 199.177 52.4531C198.27 52.7435 197.292 52.719 196.4 52.3834L196.386 52.4102L195.917 52.1589L197.424 59.0038L195.749 58.1061L194.242 51.2612L194.96 49.9211L196.635 50.8187C197.814 51.4507 199.259 51.1038 200.031 50.0508L196.037 47.9108L197.425 46.9297L200.548 48.603C200.596 47.6112 200.086 46.6309 199.148 46.1282L197.473 45.2305L198.861 44.2494Z" fill="#5B7EFB"/>
</g>
<path d="M245.25 86.5317C245.756 92.1632 241.591 97.1394 235.947 97.6469C235.335 97.702 234.731 97.702 234.14 97.6516C229.275 97.2362 225.262 93.3898 224.811 88.3686C224.304 82.7371 228.469 77.7609 234.114 77.2537C239.758 76.7464 244.744 80.9003 245.25 86.5317Z" fill="#DBE6FC"/>
<rect width="10.1172" height="10.1175" transform="matrix(0.999277 -0.0380073 0.0380588 0.999276 229.76 82.7566)" fill="#DBE6FC"/>
<path d="M233.178 83.8922L237.391 83.732L237.001 84.5905L235.628 84.6427C235.84 84.8794 236.002 85.1601 236.103 85.4684L237.455 85.417L237.066 86.2755L236.223 86.3076C236.191 86.8348 235.981 87.3356 235.629 87.7288C235.276 88.1221 234.801 88.3846 234.281 88.4739L234.281 88.4908L233.986 88.502L236.626 91.3547L235.573 91.3947L232.933 88.5421L232.901 87.6995L233.954 87.6595C234.696 87.6313 235.29 87.0603 235.364 86.3403L232.853 86.4358L233.242 85.5772L235.205 85.5026C234.95 85.0144 234.432 84.6882 233.842 84.7107L232.789 84.7507L233.178 83.8922Z" fill="#5B7EFB"/>
<path d="M218.134 102.051C218.905 110.628 212.561 118.207 203.965 118.98C203.033 119.064 202.113 119.064 201.212 118.988C193.802 118.355 187.69 112.496 187.003 104.849C186.232 96.2717 192.575 88.6925 201.172 87.92C209.769 87.1473 217.363 93.4741 218.134 102.051Z" fill="#DBE6FC"/>
<rect width="15.4093" height="15.4098" transform="matrix(0.999277 -0.0380073 0.0380588 0.999276 194.542 96.3013)" fill="#DBE6FC"/>
<path d="M199.642 98.2439L206.057 97.9999L205.465 99.3075L203.373 99.3871C203.695 99.7475 203.943 100.175 204.096 100.645L206.155 100.566L205.563 101.874L204.279 101.923C204.23 102.726 203.911 103.489 203.374 104.087C202.837 104.686 202.114 105.086 201.321 105.222L201.322 105.248L200.873 105.265L204.893 109.61L203.289 109.671L199.269 105.326L199.22 104.043L200.824 103.982C201.953 103.939 202.858 103.069 202.97 101.973L199.147 102.118L199.739 100.81L202.729 100.697C202.341 99.9532 201.551 99.4564 200.653 99.4905L199.049 99.5515L199.642 98.2439Z" fill="#5B7EFB"/>
<defs>
<clipPath id="clip0_321_8671">
<rect width="18.2443" height="18.2449" fill="white" transform="matrix(0.881418 0.472338 -0.472292 0.881442 194.578 39.3667)"/>
</clipPath>
</defs>
</svg>
