<svg width="56" height="55" viewBox="0 0 56 55" fill="none" xmlns="http://www.w3.org/2000/svg">
<circle cx="28" cy="27.5" r="27.5" fill="#C1F1B9"/>
<rect width="32" height="32" transform="translate(12 11)" fill="#C1F1B9"/>
<path d="M25.6663 16.6663C25.9316 16.6663 26.1859 16.7717 26.3734 16.9592C26.561 17.1468 26.6663 17.4011 26.6663 17.6663V28.333H37.333C37.5747 28.333 37.8081 28.4205 37.9902 28.5794C38.1724 28.7382 38.2908 28.9576 38.3237 29.197L38.333 29.333C38.333 35.9597 32.9597 40.6663 26.333 40.6663C23.1504 40.6663 20.0982 39.4021 17.8477 37.1516C15.5973 34.9012 14.333 31.8489 14.333 28.6663C14.333 22.0397 19.0397 16.6663 25.6663 16.6663ZM24.6663 18.7157L24.3877 18.7477C19.4677 19.3743 16.333 23.577 16.333 28.6663C16.333 31.3185 17.3866 33.862 19.2619 35.7374C21.1373 37.6128 23.6808 38.6663 26.333 38.6663C31.4223 38.6663 35.6237 35.5303 36.253 30.6117L36.2823 30.333H25.6663C25.4247 30.333 25.1912 30.2455 25.0091 30.0867C24.827 29.9278 24.7085 29.7084 24.6757 29.469L24.6663 29.333V18.7157ZM29.6663 13.333C32.8489 13.333 35.9012 14.5973 38.1516 16.8477C40.4021 19.0982 41.6663 22.1504 41.6663 25.333C41.6663 25.5982 41.561 25.8526 41.3734 26.0401C41.1859 26.2277 40.9316 26.333 40.6663 26.333H29.6663C29.4011 26.333 29.1468 26.2277 28.9592 26.0401C28.7717 25.8526 28.6663 25.5982 28.6663 25.333V14.333C28.6663 14.0678 28.7717 13.8134 28.9592 13.6259C29.1468 13.4384 29.4011 13.333 29.6663 13.333ZM30.6663 15.3823V24.333H39.6157L39.585 24.0543C39.3016 21.8621 38.3002 19.8253 36.7371 18.2623C35.174 16.6992 33.1373 15.6977 30.945 15.4143L30.6663 15.3823Z" fill="#0F3F07"/>
</svg>
