<svg width="433" height="388" viewBox="0 0 433 388" fill="none" xmlns="http://www.w3.org/2000/svg">
<path d="M162.019 386V387H155.064V386H149.103V387H142.147V386H136.186V387H129.231V386H123.269V387H116.314V386H110.353V387H103.397V386H97.4359V387H90.4808V386H84.5192V387H77.5641V386H71.6026V387H64.6474V386H58.6859V387H51.7308V386H45.7692V387H38.8141V386H32.8526V387H25.8974V386H19.9359V387H12.9808V386H11V384.044H10V377.147H11V371.234H10V364.337H11V358.425H10V351.527H11V345.615H10V338.718H11V332.806H10V325.908H11V319.996H10V313.099H11V307.187H10V300.289H11V294.377H10V287.48H11V281.568H10V274.67H11V268.758H10V261.861H11V255.949H10V249.051H11V243.139H10V236.242H11V230.33H10V223.432H11V217.52H10V210.623H11V204.711H10V197.813H11V191.901H10V185.004H11V179.092H10V172.194H11V166.282H10V159.385H11V153.473H10V146.575H11V140.663H10V133.766H11V127.853H10V120.956H11V118C11 117.049 11.0341 116.105 11.101 115.171L10.1035 115.1C10.2672 112.816 10.6225 110.585 11.1536 108.424L12.1247 108.662C12.5783 106.816 13.1634 105.022 13.8695 103.289L12.9434 102.912C13.8001 100.81 14.8304 98.7974 16.0164 96.8919L16.8654 97.4203C17.8641 95.8158 18.9762 94.289 20.1905 92.8512L19.4265 92.206C20.8826 90.4819 22.4819 88.8826 24.206 87.4265L24.8512 88.1905C26.289 86.9762 27.8158 85.8641 29.4203 84.8654L28.8919 84.0164C30.7974 82.8304 32.8099 81.8001 34.9117 80.9434L35.2892 81.8695C37.0215 81.1634 38.816 80.5783 40.6622 80.1247L40.4236 79.1536C42.5852 78.6225 44.8159 78.2672 47.0996 78.1035L47.1711 79.101C48.1052 79.0341 49.0485 79 50 79H53.042V78H60.1399V79H66.2238V78H73.3217V79H79.4056V78H86.5035V79H92.5874V78H99.6853V79H105.769V78H112.867V79H118.951V78H126.049V79H132.133V78H139.231V79H145.315V78H152.413V79H158.497V78H165.594V79H171.678V78H178.776V79H184.86V78H191.958V79H194V81.066H195V88.2199H194V94.3517H195V101.506H194V107.637H195V114.791H194V120.923H195V128.077H194V134.209H195V141.363H194V147.495H195V154.648H194V160.78H195V167.934H194V174.066H195V181.22H194V187.352H195V194.506H194V200.637H195V207.791H194V213.923H195V221.077H194V227.209H195V234.363H194V240.495H195V247.648H194V253.78H195V260.934H194V267.066H195V274.22H194V280.352H195V287.505H194V293.637H195V300.791H194V306.923H195V314.077H194V320.209H195V327.363H194V333.495H195V340.648H194V346.78H195V353.934H194V357C194 357.886 193.96 358.762 193.883 359.627L194.879 359.717C194.686 361.86 194.268 363.938 193.649 365.928L192.694 365.63C192.169 367.318 191.494 368.939 190.684 370.479L191.569 370.944C190.58 372.825 189.397 374.588 188.047 376.207L187.279 375.566C186.156 376.912 184.912 378.156 183.566 379.279L184.207 380.047C182.588 381.397 180.825 382.58 178.944 383.569L178.479 382.684C176.939 383.494 175.318 384.169 173.63 384.694L173.928 385.649C171.938 386.268 169.86 386.686 167.717 386.879L167.627 385.883C166.762 385.96 165.886 386 165 386H162.019Z" fill="#F1E3C8" stroke="#FF7D04" stroke-width="2" stroke-dasharray="6 7"/>
<path d="M135.129 256.401C154.242 260.752 161.757 300.772 164.666 310.495C167.845 321.123 172.395 331.341 178.167 340.815C181.072 345.581 184.358 351.527 181.527 356.337C179.74 359.375 175.992 360.73 172.472 360.894C165.463 361.219 158.7 357.694 153.698 352.775C148.696 347.855 145.204 341.632 141.975 335.403C132.412 316.962 126.802 303.007 122.436 282.699C122.195 281.587 120.385 253.046 135.129 256.401Z" fill="#D8702A"/>
<path d="M176.702 365.068C179.146 367.558 189.563 368.829 190.42 368.233C189.516 362.807 184.182 365.889 183.523 361.705C185.145 360.571 187.069 360.914 188.659 360.914C190.046 360.913 191.341 362.145 191.928 363.635C192.816 365.889 192.486 366.59 192.833 368.987C193.174 371.352 195.575 373.081 195.576 371.573C195.579 368.804 195.583 364.529 195.586 361.76C196.269 364.222 196.752 372.002 200.069 371.268C200.878 367.545 199.156 364.265 199.14 360.455C200.081 363.688 200.069 371.268 203.385 370.193C203.521 366.719 202.234 363.207 202.369 359.733C203.113 362.798 204.29 369.439 206.124 368.369C206.678 365.025 205.765 361.487 205.044 358.176C204.605 356.162 204.714 354.212 203.25 352.76C202.351 351.869 189.653 349.406 184.386 349.716C181.063 349.911 176.838 349.402 174.745 351.065C166.603 357.531 173.966 362.278 176.702 365.068Z" fill="#FFBB8E"/>
<path d="M48.4187 295.273C52.7669 316.418 67.1208 319.123 69.7942 340.544C71.5785 354.839 65.6009 372.548 61.5343 386.368C94.568 387.53 128.013 386.927 152.426 385.872C151.532 365.855 143.537 339.268 145.39 319.317C146.452 307.877 148.979 297.26 147.358 285.887C145.737 274.513 140.827 258.04 135.129 256.402C124.054 253.219 114.747 250.352 101.988 248.965C96.4147 248.359 80.0575 246.655 65.9407 248.643C57.0732 249.892 49.5612 251.552 46.3786 252.843C25.3223 261.384 44.6568 276.98 48.4187 295.273Z" fill="#ED7C2A"/>
<path d="M103.038 272.36C105.125 272.206 114.076 256.207 113.394 254.228C110.992 248.728 106.547 254.279 105.111 250.202C103.964 246.944 109.62 232.113 106.442 228.31C104.545 226.04 85.5938 219.014 82.2306 225.425C80.6449 228.446 74.6973 242.001 74.6973 245.527C74.6973 247.58 97.1938 272.791 103.038 272.36Z" fill="#EAA27A"/>
<path d="M120.022 351.066C121.237 352.492 123.42 357.363 124.778 361.48C125.227 362.843 125.871 367.179 125.871 367.179C122.435 368.838 121.209 360.485 120.022 358.135C119.674 360.717 120.173 370.345 119.267 370.263C115.952 369.44 116.311 362.205 116.555 358.738C116.255 361.041 115.617 363.125 114.939 365.346C114.248 367.611 113.432 369.742 112.351 370.847C110.224 370.495 111.649 363.837 112.034 360.865C110.819 365.976 107.698 371.269 107.698 371.269C105.552 371.269 105.742 368.179 106.429 366.425C107.119 364.663 108.818 362.519 107.813 360.914C108.023 362.455 104.893 364.675 103.395 365.093C101.897 365.51 97.7019 364.056 96.206 363.63C89.062 361.597 72.5165 362.322 74.727 354.366C76.2408 348.915 83.2 344.407 88.2165 345.17C92.6237 345.841 98.7742 351.067 103.744 351.067C112.636 351.066 116.461 349.705 120.022 351.066Z" fill="#FFBB8E"/>
<path d="M96.8079 346.932C87.8514 341.862 50.5526 325.491 50.2274 324.669C48.9814 321.517 66.7198 291.77 67.8358 282.994C68.9517 274.217 68.7831 266.533 62.5043 260.301C54.1528 252.01 46.3781 252.843 46.3781 252.843C40.5794 254.874 39.0467 256.786 36.0806 259.662C31.8788 263.734 29.4544 269.254 27.1318 274.624C20.2754 290.474 13.3872 306.419 9.33345 323.206C8.22522 327.796 7.35234 332.737 9.04334 337.146C10.1798 340.111 12.3886 342.551 14.8344 344.576C24.7117 352.752 38.1679 354.717 50.8829 356.372C64.0678 358.087 77.7456 361.914 90.9305 363.63C93.6424 363.983 99.6482 348.54 96.8079 346.932Z" fill="#D8702A"/>
<path d="M65.8828 249.605C65.8726 253.11 68.6581 256.44 70.1206 259.624C72.5947 265.011 75.0696 270.398 77.5445 275.784C80.7125 271.64 83.8797 267.494 87.0478 263.35C91.5338 268.306 97.1639 272.22 103.372 274.7C106.317 270.892 109.262 267.084 112.208 263.275C113.407 266.861 114.998 270.318 116.942 273.562C118.66 265.152 120.137 255.563 114.986 248.697C112.544 245.441 108.748 243.235 104.709 242.725C103.165 247.857 106.648 253.161 106.609 258.521C106.578 262.876 104.241 266.838 101.977 270.558C99.026 268.693 96.1832 266.655 93.4687 264.459C92.1123 263.362 90.7439 262.168 90.0464 260.569C89.4491 259.2 89.3823 257.615 88.5916 256.349C87.7769 255.046 86.3375 254.299 85.1642 253.308C80.3394 249.231 77.2646 241.304 77.2646 236.825C73.5257 236.827 65.9017 242.885 65.8828 249.605Z" fill="#D8702A"/>
<path d="M103.364 278.737C108.111 301.007 112.544 323.643 111.214 346.527C111.15 347.627 112.863 347.624 112.926 346.527C114.264 323.498 109.791 300.692 105.014 278.281C104.785 277.205 103.134 277.66 103.364 278.737Z" fill="#D8702A"/>
<path d="M112.352 213.291C111.782 216.829 111.969 220.68 113.936 223.676C115.904 226.673 120.031 228.423 123.25 226.846C127.388 224.82 127.788 219.137 127.283 214.557C126.965 211.666 126.464 208.655 124.713 206.333C118.87 198.584 113.292 207.444 112.352 213.291Z" fill="#4B4DF6"/>
<path d="M84.6179 228.661C88.1898 235.954 95.143 241.767 103.18 242.93C106.364 243.39 109.805 243.076 112.46 241.257C114.235 240.04 115.528 238.249 116.678 236.429C121.801 228.315 124.772 218.856 125.208 209.27C125.552 201.705 123.797 193.19 117.515 188.962C112.741 185.749 106.563 185.807 100.812 185.98C97.8498 186.07 94.775 186.188 92.1375 187.54C89.3956 188.946 87.4676 191.512 85.6508 194.003C79.0622 203.041 79.7186 218.66 84.6179 228.661Z" fill="#FFBB8E"/>
<path d="M102.402 231.751C104.865 234.064 108.399 234.798 111.549 233.516C112.555 233.106 112.115 231.45 111.093 231.865C108.5 232.921 105.672 232.475 103.612 230.54C102.81 229.787 101.598 230.994 102.402 231.751Z" fill="#E28E60"/>
<path d="M98.6002 197.922C99.0855 198.859 99.1017 199.962 99.3901 200.976C100.012 203.159 102.027 204.876 104.281 205.143C106.535 205.41 108.895 204.211 110.009 202.233C110.4 201.539 110.667 200.739 111.276 200.226C112.644 199.07 114.788 200.051 115.975 201.393C117.161 202.736 117.92 204.837 119.67 205.223C124.714 206.334 125.871 202.808 126.655 199.55C127.417 201.841 132.716 200.993 134.329 199.198C135.942 197.402 135.686 194.466 134.297 192.493C132.907 190.519 130.652 189.342 128.39 188.501C127.56 188.192 126.691 187.903 126.037 187.307C123.685 185.162 125.681 181.222 124.97 178.119C124.174 174.65 119.538 172.965 116.415 174.673C114.085 175.948 112.596 178.582 110.071 179.408C109.997 178.826 101.876 175.671 101.782 177.844C101.782 177.844 98.3153 175.432 92.8589 176.806C90.2051 177.474 87.7465 179.893 87.7276 182.63C85.2519 182.109 84.7581 182.156 82.3329 182.876C79.9076 183.595 77.71 185.592 77.4541 188.109C77.3625 189.012 77.5166 189.938 77.3061 190.822C76.7643 193.102 73.9557 193.901 73.2788 195.918C72.2929 198.854 73.5843 201.534 73.9951 204.641C74.6677 209.727 73.6151 214.163 80.131 213.761C84.45 213.495 87.8868 215.618 89.3451 212.077C90.0374 210.395 94.0655 189.174 98.6002 197.922Z" fill="#241F3F"/>
<path d="M71.3801 210.855C70.8102 214.394 71.2791 219.096 73.2457 222.092C75.2131 225.088 79.3405 226.839 82.5591 225.262C86.6976 223.236 87.0972 217.553 86.5923 212.972C86.274 210.082 85.7742 207.071 84.0233 204.749C78.1801 197 72.3206 205.009 71.3801 210.855Z" fill="#4B4DF6"/>
<path d="M80.8812 204.77C81.0036 197.478 82.6758 189.204 88.9306 184.641C93.3361 181.428 101.932 178.295 110.071 179.407C110.071 179.407 107.842 177.345 105.546 176.971C98.8909 175.888 92.1158 177.805 86.7167 181.777C79.5642 187.039 77.4042 196.339 77.263 204.771C77.2245 207.099 80.8427 207.099 80.8812 204.77Z" fill="#4B4DF6"/>
<path d="M78.9481 219.072C80.3867 228.089 88.0432 236.047 97.2685 236.888C98.3647 236.988 98.3579 235.276 97.2685 235.176C88.7655 234.402 81.9082 226.826 80.5989 218.618C80.426 217.533 78.7761 217.993 78.9481 219.072Z" fill="#4B4DF6"/>
<path d="M104.179 235.38C104.179 237.602 102.377 239.403 100.156 239.403C97.9334 239.403 96.1328 237.602 96.1328 235.38C96.1328 233.158 97.9342 231.357 100.156 231.357C102.377 231.357 104.179 233.158 104.179 235.38Z" fill="#4B4DF6"/>
<path d="M73.0237 216.543C73.0545 218.369 73.2496 220.4 74.6111 221.617C76.1695 223.012 78.9867 222.532 79.9957 220.702C80.4817 219.82 80.563 218.778 80.6255 217.772C80.7872 215.152 80.8822 212.492 80.3149 209.928C79.8408 207.789 78.5477 205.472 76.3749 205.195C72.9201 204.755 72.9886 214.503 73.0237 216.543Z" fill="#737AFF"/>
<path d="M105.174 214.669C105.174 216.101 104.466 217.262 103.591 217.262C102.716 217.262 102.008 216.1 102.008 214.669C102.008 213.236 102.716 212.075 103.591 212.075C104.466 212.075 105.174 213.237 105.174 214.669Z" fill="#241F3F"/>
<path d="M118.542 217.962C119.417 217.962 120.125 216.802 120.125 215.369C120.125 213.937 119.417 212.776 118.542 212.776C117.668 212.776 116.959 213.937 116.959 215.369C116.959 216.802 117.668 217.962 118.542 217.962Z" fill="#241F3F"/>
<path d="M99.3827 209.442C100.693 208.103 102.522 207.719 104.274 208.35C105.312 208.724 105.76 207.07 104.73 206.699C102.428 205.87 99.8765 206.491 98.1735 208.232C97.4016 209.02 98.6108 210.231 99.3827 209.442Z" fill="#241F3F"/>
<path d="M117.616 209.01C118.931 209.139 120.123 209.625 121.198 210.384C122.1 211.02 122.957 209.536 122.062 208.906C120.731 207.968 119.23 207.456 117.616 207.299C116.52 207.192 116.528 208.904 117.616 209.01Z" fill="#241F3F"/>
<path d="M1.06502 317.306C-0.539555 308.305 -0.935779 298.301 4.27588 290.788C8.60694 284.544 16.1429 281.179 23.6497 279.996C29.3774 279.093 98.4126 273.486 100.94 275.999C103.28 278.326 110.526 282.61 113.428 294.67C116.911 309.144 127.46 370.881 124.487 383.809C116.249 385.86 37.4978 386.259 25.2457 386.368C24.7442 381.784 3.68026 331.974 1.06502 317.306Z" fill="#363C89"/>
<path d="M260.981 312V313H267.936V312H273.897V313H280.853V312H286.814V313H293.769V312H299.731V313H306.686V312H312.647V313H319.603V312H325.564V313H332.519V312H338.481V313H345.436V312H351.397V313H358.353V312H364.314V313H371.269V312H377.231V313H384.186V312H390.147V313H397.103V312H403.064V313H410.019V312H412V309.954H413V302.846H412V296.754H413V289.646H412V283.554H413V276.446H412V270.354H413V263.246H412V257.154H413V250.046H412V243.954H413V236.846H412V230.754H413V223.646H412V217.554H413V210.446H412V204.354H413V197.246H412V191.154H413V184.046H412V177.954H413V170.846H412V164.754H413V157.646H412V151.554H413V144.446H412V138.354H413V131.246H412V125.154H413V118.046H412V111.954H413V104.846H412V98.7538H413V91.6461H412V85.5538H413V78.4461H412V72.3538H413V65.2461H412V59.1538H413V52.0461H412V49C412 48.0485 411.966 47.1052 411.899 46.1711L412.896 46.0996C412.733 43.8159 412.377 41.5852 411.846 39.4236L410.875 39.6622C410.422 37.816 409.837 36.0215 409.131 34.2892L410.057 33.9117C409.2 31.8099 408.17 29.7974 406.984 27.8919L406.135 28.4203C405.136 26.8158 404.024 25.289 402.809 23.8512L403.573 23.206C402.117 21.4819 400.518 19.8826 398.794 18.4265L398.149 19.1905C396.711 17.9762 395.184 16.8641 393.58 15.8654L394.108 15.0164C392.203 13.8304 390.19 12.8001 388.088 11.9434L387.711 12.8695C385.978 12.1634 384.184 11.5783 382.338 11.1247L382.576 10.1536C380.415 9.62255 378.184 9.26719 375.9 9.10354L375.829 10.101C374.895 10.0341 373.951 10 373 10H369.958V9H362.86V10H356.776V9H349.678V10H343.594V9H336.496V10H330.413V9H323.315V10H317.231V9H310.133V10H304.049V9H296.951V10H290.867V9H283.769V10H277.685V9H270.587V10H264.503V9H257.406V10H251.322V9H244.224V10H238.14V9H231.042V10H229V12.0111H228V19.0367H229V25.0587H228V32.0843H229V38.1063H228V45.1319H229V51.1539H228V58.1796H229V64.2015H228V71.2271H229V77.2491H228V84.2748H229V90.2967H228V97.3224H229V103.344H228V110.37H229V116.392H228V123.418H229V129.44H228V136.465H229V142.487H228V149.513H229V155.535H228V162.56H229V168.582H228V175.608H229V181.63H228V188.656H229V194.678H228V201.703H229V207.725H228V214.751H229V220.773H228V227.799H229V233.821H228V240.846H229V246.868H228V253.894H229V259.916H228V266.941H229V272.963H228V279.989H229V283C229 283.886 229.04 284.762 229.117 285.627L228.121 285.717C228.314 287.86 228.732 289.938 229.351 291.928L230.306 291.63C230.831 293.318 231.506 294.939 232.316 296.479L231.431 296.944C232.42 298.825 233.603 300.588 234.953 302.207L235.721 301.566C236.844 302.912 238.088 304.156 239.434 305.279L238.793 306.047C240.412 307.397 242.175 308.58 244.056 309.569L244.521 308.684C246.061 309.494 247.682 310.169 249.37 310.694L249.072 311.649C251.062 312.268 253.14 312.686 255.283 312.879L255.373 311.883C256.238 311.96 257.114 312 258 312H260.981Z" fill="#F1E3C8" stroke="#FF7D04" stroke-width="2" stroke-dasharray="6 7"/>
<path d="M268.821 352.114H140.208C135.204 352.114 131.304 347.775 131.835 342.799L139.74 268.753C140.197 264.473 143.809 261.226 148.114 261.226H276.726C281.731 261.226 285.631 265.564 285.1 270.541L277.195 344.586C276.737 348.867 273.126 352.114 268.821 352.114Z" fill="#4B4DF6"/>
<path d="M273.673 352.114H145.061C140.056 352.114 136.156 347.775 136.687 342.799L144.592 268.753C145.049 264.473 148.661 261.226 152.966 261.226H281.578C286.583 261.226 290.483 265.564 289.952 270.541L282.046 344.586C281.59 348.867 277.978 352.114 273.673 352.114Z" fill="#363C89"/>
<path d="M215.296 314.343H206.813C203.618 314.343 201.027 316.933 201.027 320.129V381.871H221.081V320.129C221.082 316.933 218.491 314.343 215.296 314.343Z" fill="#4B4DF6"/>
<path d="M242.43 381.871H177.74V387.046H242.43V381.871Z" fill="#363C89"/>
<path d="M186.15 381.871H110.008V387.046H186.15V381.871Z" fill="#4B4DF6"/>
<path d="M79.0528 375.402H71.8531C66.9634 375.402 63 379.365 63 384.255C63 385.796 64.2495 387.046 65.791 387.046H85.1158C86.6573 387.046 87.9068 385.796 87.9068 384.255C87.9059 379.365 83.9425 375.402 79.0528 375.402Z" fill="#4B4DF6"/>
<path d="M64.0423 63.8852C43.9593 78.5072 19.3693 63.7822 6.16127 92.1322C0.71227 103.827 2.87227 115.214 8.35227 127.718C14.7213 142.25 23.7663 147.973 36.8443 148.632C44.3993 149.012 50.7433 145.732 58.0853 141.229C63.4253 144.49 70.6393 147.941 77.3173 147.975C77.3173 147.975 71.4773 143.746 69.6143 134.159C72.3943 132.545 75.3743 130.927 78.6333 129.379C99.0413 119.687 106.325 128.426 118.639 113.515C138.775 89.1322 105.891 33.4162 64.0423 63.8852Z" fill="#C1F1B9"/>
<path d="M85.9208 77.5631L93.7558 105.407C94.0968 106.621 93.8368 107.848 93.1648 108.812C92.6498 109.534 91.8939 110.099 90.9799 110.356L40.6278 124.524C39.7148 124.781 38.7778 124.706 37.9588 124.346C36.8858 123.887 36.0208 122.962 35.6788 121.749L27.8439 93.9051C27.5029 92.6921 27.7589 91.4511 28.4349 90.5001C28.9499 89.7781 29.7098 89.2261 30.6228 88.9691L80.9748 74.8011C81.8878 74.5441 82.8278 74.6321 83.6408 74.9661C84.7168 75.4371 85.5798 76.3491 85.9208 77.5631Z" fill="white"/>
<path d="M69.2875 97.2672L93.1646 108.812C92.6496 109.534 91.8936 110.099 90.9795 110.356L88.4615 111.065L67.0635 100.724L63.8895 105.658C63.6025 106.091 63.1935 106.389 62.7245 106.521C62.2675 106.65 61.7505 106.612 61.2935 106.389L55.9995 103.837L43.1465 123.816L37.9595 124.346L52.3125 102.044L28.4355 90.4992C28.9505 89.7772 29.7105 89.2252 30.6235 88.9682L33.1415 88.2602L61.4355 101.941L78.4565 75.5092L80.9745 74.8002C81.8875 74.5432 82.8275 74.6312 83.6405 74.9652L69.2875 97.2672Z" fill="#508AFF"/>
<path d="M425.746 180.107C420.1 174.099 411.424 172.324 403.987 168.764C393.112 163.558 384.725 154.374 377.008 145.111C368.603 135.022 358.016 122.202 343.759 122.003C328.867 121.795 313.818 130.981 304.407 141.926C293.771 154.296 288.072 170.326 285.875 186.491C284.251 198.444 284.531 211.089 289.812 221.934C291.154 224.691 292.88 227.298 294.902 229.648C292.568 233.816 289.092 238.869 285.001 241.151C285.001 241.151 295.937 240.845 302.945 236.548C307.579 239.406 312.853 241.037 318.315 240.775C327.363 240.341 336.35 235.022 345.021 237.643C349.352 238.952 352.846 242.073 356.489 244.756C370.274 254.906 389.268 259.318 404.898 252.336C423.223 244.15 432.387 222.602 432.53 202.532C432.587 194.527 431.23 185.942 425.746 180.107Z" fill="#BBECEF"/>
<path d="M392.056 171.31H316.67V226.093H392.056V171.31Z" fill="white"/>
<path d="M322.952 177.093C322.124 177.093 321.452 176.422 321.452 175.593V168.316C321.452 167.487 322.124 166.816 322.952 166.816C323.78 166.816 324.452 167.487 324.452 168.316V175.593C324.452 176.422 323.78 177.093 322.952 177.093Z" fill="#4B4DF6"/>
<path d="M331.926 177.093C331.098 177.093 330.426 176.422 330.426 175.593V168.316C330.426 167.487 331.098 166.816 331.926 166.816C332.754 166.816 333.426 167.487 333.426 168.316V175.593C333.426 176.422 332.755 177.093 331.926 177.093Z" fill="#4B4DF6"/>
<path d="M340.901 177.093C340.073 177.093 339.401 176.422 339.401 175.593V168.316C339.401 167.487 340.073 166.816 340.901 166.816C341.729 166.816 342.401 167.487 342.401 168.316V175.593C342.401 176.422 341.729 177.093 340.901 177.093Z" fill="#4B4DF6"/>
<path d="M349.876 177.093C349.048 177.093 348.376 176.422 348.376 175.593V168.316C348.376 167.487 349.048 166.816 349.876 166.816C350.704 166.816 351.376 167.487 351.376 168.316V175.593C351.376 176.422 350.704 177.093 349.876 177.093Z" fill="#4B4DF6"/>
<path d="M358.851 177.093C358.023 177.093 357.351 176.422 357.351 175.593V168.316C357.351 167.487 358.023 166.816 358.851 166.816C359.679 166.816 360.351 167.487 360.351 168.316V175.593C360.351 176.422 359.679 177.093 358.851 177.093Z" fill="#4B4DF6"/>
<path d="M367.824 177.093C366.996 177.093 366.324 176.422 366.324 175.593V168.316C366.324 167.487 366.996 166.816 367.824 166.816C368.652 166.816 369.324 167.487 369.324 168.316V175.593C369.324 176.422 368.652 177.093 367.824 177.093Z" fill="#4B4DF6"/>
<path d="M376.798 177.093C375.97 177.093 375.298 176.422 375.298 175.593V168.316C375.298 167.487 375.97 166.816 376.798 166.816C377.626 166.816 378.298 167.487 378.298 168.316V175.593C378.298 176.422 377.627 177.093 376.798 177.093Z" fill="#4B4DF6"/>
<path d="M385.773 177.093C384.945 177.093 384.273 176.422 384.273 175.593V168.316C384.273 167.487 384.945 166.816 385.773 166.816C386.601 166.816 387.273 167.487 387.273 168.316V175.593C387.273 176.422 386.601 177.093 385.773 177.093Z" fill="#4B4DF6"/>
<path d="M345.803 183.831H338.145V191.489H345.803V183.831Z" fill="#DBE6FC"/>
<path d="M357.808 183.831H350.15V191.489H357.808V183.831Z" fill="#DBE6FC"/>
<path d="M369.814 183.831H362.156V191.489H369.814V183.831Z" fill="#DBE6FC"/>
<path d="M381.821 183.831H374.163V191.489H381.821V183.831Z" fill="#FFC278"/>
<path d="M333.797 194.872H326.139V202.53H333.797V194.872Z" fill="#FFC278"/>
<path d="M345.803 194.872H338.145V202.53H345.803V194.872Z" fill="#DBE6FC"/>
<path d="M357.808 194.872H350.15V202.53H357.808V194.872Z" fill="#DBE6FC"/>
<path d="M369.814 194.872H362.156V202.53H369.814V194.872Z" fill="#DBE6FC"/>
<path d="M381.822 194.872H374.164V202.53H381.822V194.872Z" fill="#FFC278"/>
<path d="M333.797 205.914H326.139V213.572H333.797V205.914Z" fill="#FFC278"/>
<path d="M345.803 205.914H338.145V213.572H345.803V205.914Z" fill="#DBE6FC"/>
<path d="M357.808 205.914H350.15V213.572H357.808V205.914Z" fill="#DBE6FC"/>
<path d="M369.814 205.914H362.156V213.572H369.814V205.914Z" fill="#DBE6FC"/>
<path d="M256.499 139.821C255.671 134.308 252.243 129.51 250.961 124.085C248.442 113.422 254.551 102.385 253.224 91.509C251.398 76.536 234.263 66.261 219.563 69.648C213.453 71.056 209.63 72.366 203.783 71.103C186.578 67.389 173.938 75.532 170.501 84.867C162.228 107.335 174.768 110.916 178.001 129.737C179.365 137.676 167.004 150.682 182.692 169.207C187.982 175.454 196.178 179.112 204.346 180.543C202.597 184.482 200.138 189.007 197.327 191.229C197.327 191.229 208.519 188.121 215.356 181.486C234.967 181.776 261.79 175.049 256.499 139.821Z" fill="#D2BFFF"/>
<path d="M232.105 144.193L226.823 137.631C225.324 135.769 222.599 135.474 220.736 136.973L219.145 138.254C218.212 139.005 216.847 138.858 216.096 137.924L209.544 129.784L208.763 128.814L202.211 120.674C201.46 119.741 201.607 118.376 202.541 117.625L204.132 116.344C205.995 114.845 206.289 112.12 204.79 110.257L199.508 103.695C198.009 101.832 195.284 101.538 193.421 103.037L191.686 104.434C187.158 108.079 186.442 114.704 190.086 119.233L194.197 124.341L202.109 134.171L202.89 135.142L210.802 144.972L214.913 150.08C218.558 154.608 225.183 155.324 229.712 151.68L231.447 150.283C233.31 148.78 233.604 146.055 232.105 144.193Z" fill="#4B4DF6"/>
<path d="M225.972 129.229C225.914 129.229 225.855 129.224 225.796 129.213C225.252 129.117 224.89 128.597 224.986 128.054C225.721 123.914 225.097 120.581 223.13 118.148C219.772 113.994 213.523 113.729 213.461 113.727C212.909 113.708 212.477 113.246 212.495 112.694C212.514 112.142 213.026 111.702 213.526 111.728C213.818 111.737 220.73 112.014 224.674 116.878C227.031 119.783 227.797 123.661 226.954 128.403C226.87 128.889 226.448 129.229 225.972 129.229Z" fill="white"/>
<path d="M232.262 128.897C232.231 128.897 232.199 128.896 232.167 128.893C231.617 128.841 231.213 128.353 231.266 127.804C232.95 109.946 215.78 107.734 215.047 107.649C214.499 107.585 214.106 107.089 214.169 106.541C214.234 105.993 214.737 105.603 215.276 105.662C215.475 105.685 235.127 108.165 233.256 127.992C233.208 128.509 232.772 128.897 232.262 128.897Z" fill="white"/>
<path d="M238.489 127.827C237.939 127.827 237.493 127.384 237.489 126.833C237.355 106.417 218.142 101.955 217.325 101.775C216.786 101.656 216.444 101.123 216.562 100.584C216.68 100.045 217.217 99.705 217.751 99.821C217.967 99.868 239.344 104.784 239.488 126.821C239.492 127.373 239.047 127.824 238.495 127.827C238.493 127.827 238.491 127.827 238.489 127.827Z" fill="white"/>
<path d="M295.692 2.76909C313.33 11.7691 347.086 2.76909 347.086 2.76909C355.447 2.76909 365.054 9.26904 362.225 16.5441C359.396 23.8191 362.225 26.0031 362.225 33.6111C362.225 41.2191 355.447 47.3861 347.086 47.3861H317.842L286.54 62.7201L295.692 47.3861C287.331 47.3861 277.554 40.769 280.554 33.6111C283.554 26.4531 280.554 16.5441 280.554 16.5441C280.554 8.93709 278.054 -6.23095 295.692 2.76909Z" fill="#FCB3B3"/>
<path d="M348.639 16.3961H293.469" stroke="#F40303" stroke-width="1.172" stroke-miterlimit="10"/>
<path d="M348.639 22.9891H293.469" stroke="#F40303" stroke-width="1.172" stroke-miterlimit="10"/>
<path d="M348.639 28.5661H293.469" stroke="#F40303" stroke-width="1.172" stroke-miterlimit="10"/>
<path d="M348.639 35.1581H293.469" stroke="#F40303" stroke-width="1.172" stroke-miterlimit="10"/>
</svg>
