<svg width="31" height="32" viewBox="0 0 31 32" fill="none" xmlns="http://www.w3.org/2000/svg">
<path d="M7.78531 29.168V6.02516C7.78531 5.34318 8.05623 4.68913 8.53846 4.20689C9.0207 3.72465 9.67475 3.45374 10.3567 3.45374H20.6425C21.3244 3.45374 21.9785 3.72465 22.4607 4.20689C22.943 4.68913 23.2139 5.34318 23.2139 6.02516V29.168H7.78531Z" stroke="#508AFF" stroke-width="2" stroke-linecap="round" stroke-linejoin="round"/>
<path d="M7.78559 16.3112H5.21416C4.53217 16.3112 3.87812 16.5821 3.39588 17.0643C2.91365 17.5465 2.64273 18.2006 2.64273 18.8826V26.5969C2.64273 27.2789 2.91365 27.9329 3.39588 28.4151C3.87812 28.8974 4.53217 29.1683 5.21416 29.1683H7.78559" stroke="#508AFF" stroke-width="2" stroke-linecap="round" stroke-linejoin="round"/>
<path d="M23.214 12.4537H25.7854C26.4674 12.4537 27.1215 12.7247 27.6037 13.2069C28.086 13.6891 28.3569 14.3432 28.3569 15.0252V26.5966C28.3569 27.2786 28.086 27.9326 27.6037 28.4149C27.1215 28.8971 26.4674 29.168 25.7854 29.168H23.214" stroke="#508AFF" stroke-width="2" stroke-linecap="round" stroke-linejoin="round"/>
<path d="M12.9279 8.59631H18.0707" stroke="#508AFF" stroke-width="2" stroke-linecap="round" stroke-linejoin="round"/>
<path d="M12.9279 13.7389H18.0707" stroke="#508AFF" stroke-width="2" stroke-linecap="round" stroke-linejoin="round"/>
<path d="M12.9279 18.8824H18.0707" stroke="#508AFF" stroke-width="2" stroke-linecap="round" stroke-linejoin="round"/>
<path d="M12.9279 24.025H18.0707" stroke="#508AFF" stroke-width="2" stroke-linecap="round" stroke-linejoin="round"/>
</svg>
