<svg width="589" height="526" viewBox="0 0 589 526" fill="none" xmlns="http://www.w3.org/2000/svg">
<g filter="url(#filter0_d_313_8987)">
<rect x="12" y="55" width="168" height="123" rx="8" fill="white" shape-rendering="crispEdges"/>
<rect x="13" y="56" width="166" height="121" rx="7" stroke="#325EFA" stroke-width="2" shape-rendering="crispEdges"/>
<circle cx="96" cy="98.5" r="27.5" fill="#C1CEFD"/>
<rect width="32" height="32" transform="translate(79.5 82)" fill="#C1CEFD"/>
<path fill-rule="evenodd" clip-rule="evenodd" d="M85.0858 85.5858C85.4609 85.2107 85.9696 85 86.5 85H98.5C98.7652 85 99.0196 85.1054 99.2071 85.2929L106.207 92.2929C106.395 92.4804 106.5 92.7348 106.5 93V109C106.5 109.53 106.289 110.039 105.914 110.414C105.539 110.789 105.03 111 104.5 111H86.5C85.9696 111 85.4609 110.789 85.0858 110.414C84.7107 110.039 84.5 109.53 84.5 109V87C84.5 86.4696 84.7107 85.9609 85.0858 85.5858ZM98.0858 87L86.5 87L86.5 109H104.5V93.4142L98.0858 87Z" fill="#284BC8"/>
<path fill-rule="evenodd" clip-rule="evenodd" d="M98.5 85C99.0523 85 99.5 85.4477 99.5 86V92H105.5C106.052 92 106.5 92.4477 106.5 93C106.5 93.5523 106.052 94 105.5 94H98.5C97.9477 94 97.5 93.5523 97.5 93V86C97.5 85.4477 97.9477 85 98.5 85Z" fill="#284BC8"/>
<path fill-rule="evenodd" clip-rule="evenodd" d="M90.5 99C90.5 98.4477 90.9477 98 91.5 98H99.5C100.052 98 100.5 98.4477 100.5 99C100.5 99.5523 100.052 100 99.5 100H91.5C90.9477 100 90.5 99.5523 90.5 99Z" fill="#284BC8"/>
<path fill-rule="evenodd" clip-rule="evenodd" d="M90.5 103C90.5 102.448 90.9477 102 91.5 102H99.5C100.052 102 100.5 102.448 100.5 103C100.5 103.552 100.052 104 99.5 104H91.5C90.9477 104 90.5 103.552 90.5 103Z" fill="#284BC8"/>
<path d="M34.392 155V143.72H35.704V155H34.392ZM38.3098 155V147.224H39.5738V148.552C39.8298 148.061 40.1924 147.693 40.6618 147.448C41.1311 147.203 41.6591 147.08 42.2458 147.08C44.0911 147.08 45.0138 148.104 45.0138 150.152V155H43.7178V150.232C43.7178 149.507 43.5738 148.979 43.2858 148.648C43.0084 148.307 42.5604 148.136 41.9418 148.136C41.2271 148.136 40.6564 148.36 40.2298 148.808C39.8138 149.245 39.6058 149.832 39.6058 150.568V155H38.3098ZM50.6995 155.144C49.9208 155.144 49.2488 154.979 48.6835 154.648C48.1182 154.307 47.6808 153.832 47.3715 153.224C47.0728 152.605 46.9235 151.885 46.9235 151.064C46.9235 149.827 47.2595 148.856 47.9315 148.152C48.6035 147.437 49.5262 147.08 50.6995 147.08C51.1795 147.08 51.6542 147.165 52.1235 147.336C52.5928 147.507 52.9822 147.747 53.2915 148.056L52.8435 149C52.5342 148.701 52.1928 148.483 51.8195 148.344C51.4568 148.205 51.1102 148.136 50.7795 148.136C49.9688 148.136 49.3448 148.392 48.9075 148.904C48.4702 149.405 48.2515 150.131 48.2515 151.08C48.2515 152.008 48.4702 152.744 48.9075 153.288C49.3448 153.821 49.9688 154.088 50.7795 154.088C51.1102 154.088 51.4568 154.019 51.8195 153.88C52.1928 153.741 52.5342 153.517 52.8435 153.208L53.2915 154.152C52.9822 154.461 52.5875 154.707 52.1075 154.888C51.6382 155.059 51.1688 155.144 50.6995 155.144ZM57.8855 155.144C57.1282 155.144 56.4722 154.979 55.9175 154.648C55.3628 154.317 54.9308 153.853 54.6215 153.256C54.3228 152.648 54.1735 151.933 54.1735 151.112C54.1735 150.291 54.3228 149.581 54.6215 148.984C54.9308 148.376 55.3628 147.907 55.9175 147.576C56.4722 147.245 57.1282 147.08 57.8855 147.08C58.6322 147.08 59.2828 147.245 59.8375 147.576C60.4028 147.907 60.8348 148.376 61.1335 148.984C61.4428 149.581 61.5975 150.291 61.5975 151.112C61.5975 151.933 61.4428 152.648 61.1335 153.256C60.8348 153.853 60.4028 154.317 59.8375 154.648C59.2828 154.979 58.6322 155.144 57.8855 155.144ZM57.8855 154.104C58.6108 154.104 59.1922 153.848 59.6295 153.336C60.0668 152.813 60.2855 152.072 60.2855 151.112C60.2855 150.141 60.0668 149.4 59.6295 148.888C59.1922 148.376 58.6108 148.12 57.8855 148.12C57.1495 148.12 56.5628 148.376 56.1255 148.888C55.6988 149.4 55.4855 150.141 55.4855 151.112C55.4855 152.072 55.6988 152.813 56.1255 153.336C56.5628 153.848 57.1495 154.104 57.8855 154.104ZM63.5761 155V147.224H64.8401V148.536C65.0748 148.067 65.4001 147.709 65.8161 147.464C66.2321 147.208 66.7175 147.08 67.2721 147.08C68.4881 147.08 69.2668 147.608 69.6081 148.664C69.8428 148.173 70.1895 147.789 70.6481 147.512C71.1068 147.224 71.6348 147.08 72.2321 147.08C73.9601 147.08 74.8241 148.104 74.8241 150.152V155H73.5281V150.216C73.5281 149.501 73.4001 148.979 73.1441 148.648C72.8988 148.307 72.4881 148.136 71.9121 148.136C71.2828 148.136 70.7815 148.36 70.4081 148.808C70.0348 149.256 69.8481 149.853 69.8481 150.6V155H68.5521V150.216C68.5521 149.501 68.4241 148.979 68.1681 148.648C67.9228 148.307 67.5121 148.136 66.9361 148.136C66.2961 148.136 65.7895 148.36 65.4161 148.808C65.0535 149.256 64.8721 149.853 64.8721 150.6V155H63.5761ZM80.7513 155.144C79.5246 155.144 78.5539 154.787 77.8393 154.072C77.1246 153.347 76.7673 152.365 76.7673 151.128C76.7673 150.328 76.9273 149.624 77.2473 149.016C77.5673 148.397 78.0046 147.923 78.5593 147.592C79.1246 147.251 79.7753 147.08 80.5113 147.08C81.5673 147.08 82.3939 147.421 82.9913 148.104C83.5886 148.776 83.8873 149.704 83.8873 150.888V151.384H78.0312C78.0739 152.269 78.3299 152.947 78.7993 153.416C79.2686 153.875 79.9193 154.104 80.7513 154.104C81.2206 154.104 81.6686 154.035 82.0953 153.896C82.5219 153.747 82.9273 153.507 83.3113 153.176L83.7593 154.088C83.4073 154.419 82.9593 154.68 82.4153 154.872C81.8713 155.053 81.3166 155.144 80.7513 155.144ZM80.5433 148.04C79.8073 148.04 79.2259 148.269 78.7993 148.728C78.3726 149.187 78.1219 149.789 78.0473 150.536H82.7673C82.7353 149.747 82.5273 149.133 82.1433 148.696C81.7699 148.259 81.2366 148.04 80.5433 148.04ZM92.9923 155.144C92.0749 155.144 91.3869 154.904 90.9283 154.424C90.4696 153.933 90.2403 153.229 90.2403 152.312V148.232H88.7203V147.224H90.2403V144.84H91.5363V147.224H94.0003V148.232H91.5363V152.184C91.5363 152.792 91.6643 153.256 91.9203 153.576C92.1763 153.885 92.5923 154.04 93.1683 154.04C93.3389 154.04 93.5096 154.019 93.6803 153.976C93.8509 153.933 94.0056 153.891 94.1443 153.848L94.3683 154.84C94.2296 154.915 94.0269 154.984 93.7603 155.048C93.4936 155.112 93.2376 155.144 92.9923 155.144ZM97.914 155.144C97.3807 155.144 96.9007 155.043 96.474 154.84C96.058 154.627 95.7273 154.339 95.482 153.976C95.2367 153.613 95.114 153.208 95.114 152.76C95.114 152.195 95.258 151.747 95.546 151.416C95.8447 151.085 96.33 150.851 97.002 150.712C97.6847 150.563 98.6127 150.488 99.786 150.488H100.298V149.992C100.298 149.331 100.159 148.856 99.882 148.568C99.6153 148.269 99.1833 148.12 98.586 148.12C98.1167 148.12 97.6633 148.189 97.226 148.328C96.7887 148.456 96.3407 148.669 95.882 148.968L95.434 148.024C95.8393 147.736 96.33 147.507 96.906 147.336C97.4927 147.165 98.0527 147.08 98.586 147.08C99.5887 147.08 100.33 147.325 100.81 147.816C101.301 148.307 101.546 149.069 101.546 150.104V155H100.33V153.656C100.127 154.115 99.8127 154.477 99.386 154.744C98.97 155.011 98.4793 155.144 97.914 155.144ZM98.122 154.168C98.762 154.168 99.2847 153.949 99.69 153.512C100.095 153.064 100.298 152.499 100.298 151.816V151.336H99.802C98.938 151.336 98.2553 151.379 97.754 151.464C97.2633 151.539 96.9167 151.677 96.714 151.88C96.522 152.072 96.426 152.339 96.426 152.68C96.426 153.117 96.5753 153.475 96.874 153.752C97.1833 154.029 97.5993 154.168 98.122 154.168ZM102.958 155L106.19 150.984L103.15 147.224H104.686L106.942 150.088L109.214 147.224H110.734L107.694 150.984L110.926 155H109.39L106.926 151.912L104.494 155H102.958ZM116.466 155V147.224H117.73V148.552C117.986 148.061 118.349 147.693 118.818 147.448C119.287 147.203 119.815 147.08 120.402 147.08C122.247 147.08 123.17 148.104 123.17 150.152V155H121.874V150.232C121.874 149.507 121.73 148.979 121.442 148.648C121.165 148.307 120.717 148.136 120.098 148.136C119.383 148.136 118.813 148.36 118.386 148.808C117.97 149.245 117.762 149.832 117.762 150.568V155H116.466ZM128.792 155.144C128.034 155.144 127.378 154.979 126.824 154.648C126.269 154.317 125.837 153.853 125.528 153.256C125.229 152.648 125.08 151.933 125.08 151.112C125.08 150.291 125.229 149.581 125.528 148.984C125.837 148.376 126.269 147.907 126.824 147.576C127.378 147.245 128.034 147.08 128.792 147.08C129.538 147.08 130.189 147.245 130.744 147.576C131.309 147.907 131.741 148.376 132.04 148.984C132.349 149.581 132.504 150.291 132.504 151.112C132.504 151.933 132.349 152.648 132.04 153.256C131.741 153.853 131.309 154.317 130.744 154.648C130.189 154.979 129.538 155.144 128.792 155.144ZM128.792 154.104C129.517 154.104 130.098 153.848 130.536 153.336C130.973 152.813 131.192 152.072 131.192 151.112C131.192 150.141 130.973 149.4 130.536 148.888C130.098 148.376 129.517 148.12 128.792 148.12C128.056 148.12 127.469 148.376 127.032 148.888C126.605 149.4 126.392 150.141 126.392 151.112C126.392 152.072 126.605 152.813 127.032 153.336C127.469 153.848 128.056 154.104 128.792 154.104ZM137.492 155.144C136.575 155.144 135.887 154.904 135.428 154.424C134.97 153.933 134.74 153.229 134.74 152.312V148.232H133.22V147.224H134.74V144.84H136.036V147.224H138.5V148.232H136.036V152.184C136.036 152.792 136.164 153.256 136.42 153.576C136.676 153.885 137.092 154.04 137.668 154.04C137.839 154.04 138.01 154.019 138.18 153.976C138.351 153.933 138.506 153.891 138.644 153.848L138.868 154.84C138.73 154.915 138.527 154.984 138.26 155.048C137.994 155.112 137.738 155.144 137.492 155.144ZM139.806 145.288V143.832H141.406V145.288H139.806ZM139.966 155V147.224H141.262V155H139.966ZM146.981 155.144C146.202 155.144 145.53 154.979 144.965 154.648C144.399 154.307 143.962 153.832 143.653 153.224C143.354 152.605 143.205 151.885 143.205 151.064C143.205 149.827 143.541 148.856 144.213 148.152C144.885 147.437 145.807 147.08 146.981 147.08C147.461 147.08 147.935 147.165 148.405 147.336C148.874 147.507 149.263 147.747 149.573 148.056L149.125 149C148.815 148.701 148.474 148.483 148.101 148.344C147.738 148.205 147.391 148.136 147.061 148.136C146.25 148.136 145.626 148.392 145.189 148.904C144.751 149.405 144.533 150.131 144.533 151.08C144.533 152.008 144.751 152.744 145.189 153.288C145.626 153.821 146.25 154.088 147.061 154.088C147.391 154.088 147.738 154.019 148.101 153.88C148.474 153.741 148.815 153.517 149.125 153.208L149.573 154.152C149.263 154.461 148.869 154.707 148.389 154.888C147.919 155.059 147.45 155.144 146.981 155.144ZM154.439 155.144C153.212 155.144 152.241 154.787 151.527 154.072C150.812 153.347 150.455 152.365 150.455 151.128C150.455 150.328 150.615 149.624 150.935 149.016C151.255 148.397 151.692 147.923 152.247 147.592C152.812 147.251 153.463 147.08 154.199 147.08C155.255 147.08 156.081 147.421 156.679 148.104C157.276 148.776 157.575 149.704 157.575 150.888V151.384H151.719C151.761 152.269 152.017 152.947 152.487 153.416C152.956 153.875 153.607 154.104 154.439 154.104C154.908 154.104 155.356 154.035 155.783 153.896C156.209 153.747 156.615 153.507 156.999 153.176L157.447 154.088C157.095 154.419 156.647 154.68 156.103 154.872C155.559 155.053 155.004 155.144 154.439 155.144ZM154.231 148.04C153.495 148.04 152.913 148.269 152.487 148.728C152.06 149.187 151.809 149.789 151.735 150.536H156.455C156.423 149.747 156.215 149.133 155.831 148.696C155.457 148.259 154.924 148.04 154.231 148.04Z" fill="#191919"/>
</g>
<g filter="url(#filter1_d_313_8987)">
<rect x="287" y="10" width="168" height="123" rx="8" fill="white" shape-rendering="crispEdges"/>
<rect x="288" y="11" width="166" height="121" rx="7" stroke="#31D017" stroke-width="2" shape-rendering="crispEdges"/>
<circle cx="371" cy="53.5" r="27.5" fill="#C1F1B9"/>
<rect width="32" height="32" transform="translate(355 37)" fill="#C1F1B9"/>
<path d="M368.666 42.6663C368.932 42.6663 369.186 42.7717 369.373 42.9592C369.561 43.1468 369.666 43.4011 369.666 43.6663V54.333H380.333C380.575 54.333 380.808 54.4205 380.99 54.5794C381.172 54.7382 381.291 54.9576 381.324 55.197L381.333 55.333C381.333 61.9597 375.96 66.6663 369.333 66.6663C366.15 66.6663 363.098 65.4021 360.848 63.1516C358.597 60.9012 357.333 57.8489 357.333 54.6663C357.333 48.0397 362.04 42.6663 368.666 42.6663ZM367.666 44.7157L367.388 44.7477C362.468 45.3743 359.333 49.577 359.333 54.6663C359.333 57.3185 360.387 59.862 362.262 61.7374C364.137 63.6128 366.681 64.6663 369.333 64.6663C374.422 64.6663 378.624 61.5303 379.253 56.6117L379.282 56.333H368.666C368.425 56.333 368.191 56.2455 368.009 56.0867C367.827 55.9278 367.709 55.7084 367.676 55.469L367.666 55.333V44.7157ZM372.666 39.333C375.849 39.333 378.901 40.5973 381.152 42.8477C383.402 45.0982 384.666 48.1504 384.666 51.333C384.666 51.5982 384.561 51.8526 384.373 52.0401C384.186 52.2277 383.932 52.333 383.666 52.333H372.666C372.401 52.333 372.147 52.2277 371.959 52.0401C371.772 51.8526 371.666 51.5982 371.666 51.333V40.333C371.666 40.0678 371.772 39.8134 371.959 39.6259C372.147 39.4384 372.401 39.333 372.666 39.333ZM373.666 41.3823V50.333H382.616L382.585 50.0543C382.302 47.8621 381.3 45.8253 379.737 44.2623C378.174 42.6992 376.137 41.6977 373.945 41.4143L373.666 41.3823Z" fill="#0F3F07"/>
<path d="M339.544 110.144C337.731 110.144 336.349 109.632 335.4 108.608C334.451 107.584 333.976 106.171 333.976 104.368C333.976 103.173 334.189 102.144 334.616 101.28C335.043 100.416 335.656 99.7493 336.456 99.28C337.256 98.8107 338.221 98.576 339.352 98.576C340.152 98.576 340.888 98.6987 341.56 98.944C342.232 99.1787 342.803 99.5253 343.272 99.984L342.76 101.04C342.248 100.592 341.72 100.267 341.176 100.064C340.632 99.8613 340.019 99.76 339.336 99.76C338.056 99.76 337.075 100.165 336.392 100.976C335.709 101.776 335.368 102.907 335.368 104.368C335.368 105.861 335.72 107.003 336.424 107.792C337.128 108.581 338.179 108.976 339.576 108.976C340.483 108.976 341.352 108.821 342.184 108.512V105.168H339.32V104.128H343.32V109.344C343.021 109.504 342.659 109.643 342.232 109.76C341.816 109.877 341.373 109.968 340.904 110.032C340.435 110.107 339.981 110.144 339.544 110.144ZM349.649 110.144C348.764 110.144 347.964 110.032 347.249 109.808C346.535 109.573 345.916 109.237 345.393 108.8L345.857 107.744C346.401 108.16 346.972 108.469 347.569 108.672C348.167 108.875 348.86 108.976 349.649 108.976C350.609 108.976 351.319 108.8 351.777 108.448C352.247 108.085 352.481 107.611 352.481 107.024C352.481 106.555 352.311 106.181 351.969 105.904C351.639 105.627 351.079 105.408 350.289 105.248L348.625 104.912C347.623 104.699 346.871 104.352 346.369 103.872C345.879 103.381 345.633 102.731 345.633 101.92C345.633 101.248 345.804 100.661 346.145 100.16C346.497 99.6587 346.983 99.2693 347.601 98.992C348.22 98.7147 348.935 98.576 349.745 98.576C350.503 98.576 351.207 98.6987 351.857 98.944C352.508 99.1787 353.057 99.52 353.505 99.968L353.041 100.992C352.561 100.555 352.055 100.24 351.521 100.048C350.988 99.8453 350.391 99.744 349.729 99.744C348.887 99.744 348.215 99.9413 347.713 100.336C347.212 100.72 346.961 101.232 346.961 101.872C346.961 102.384 347.116 102.789 347.425 103.088C347.745 103.387 348.263 103.605 348.977 103.744L350.641 104.096C351.719 104.32 352.513 104.661 353.025 105.12C353.548 105.568 353.809 106.181 353.809 106.96C353.809 107.589 353.639 108.144 353.297 108.624C352.967 109.104 352.487 109.477 351.857 109.744C351.239 110.011 350.503 110.144 349.649 110.144ZM358.379 110V99.856H354.283V98.72H363.803V99.856H359.707V110H358.379ZM369.585 110V103.232H368.049V102.224H369.585V101.952C369.585 100.917 369.841 100.133 370.353 99.6C370.876 99.0667 371.676 98.768 372.753 98.704L373.345 98.672L373.425 99.68L372.753 99.712C372.092 99.7547 371.612 99.952 371.313 100.304C371.025 100.645 370.881 101.141 370.881 101.792V102.224H375.681V110H374.385V103.232H370.881V110H369.585ZM374.241 100.288V98.832H375.825V100.288H374.241ZM380.491 110.144C379.701 110.144 379.104 109.915 378.699 109.456C378.304 108.987 378.107 108.309 378.107 107.424V98.72H379.403V107.328C379.403 108.469 379.856 109.04 380.763 109.04C381.029 109.04 381.269 109.008 381.483 108.944L381.451 110.032C381.12 110.107 380.8 110.144 380.491 110.144ZM385.225 110.144C384.436 110.144 383.838 109.915 383.433 109.456C383.038 108.987 382.841 108.309 382.841 107.424V98.72H384.137V107.328C384.137 108.469 384.59 109.04 385.497 109.04C385.764 109.04 386.004 109.008 386.217 108.944L386.185 110.032C385.854 110.107 385.534 110.144 385.225 110.144ZM387.415 100.288V98.832H389.015V100.288H387.415ZM387.575 110V102.224H388.871V110H387.575ZM391.294 110V102.224H392.558V103.552C392.814 103.061 393.177 102.693 393.646 102.448C394.115 102.203 394.643 102.08 395.23 102.08C397.075 102.08 397.998 103.104 397.998 105.152V110H396.702V105.232C396.702 104.507 396.558 103.979 396.27 103.648C395.993 103.307 395.545 103.136 394.926 103.136C394.211 103.136 393.641 103.36 393.214 103.808C392.798 104.245 392.59 104.832 392.59 105.568V110H391.294ZM403.828 113.024C403.156 113.024 402.521 112.933 401.924 112.752C401.337 112.581 400.815 112.32 400.356 111.968L400.788 111.024C401.268 111.365 401.743 111.611 402.212 111.76C402.692 111.909 403.209 111.984 403.764 111.984C405.3 111.984 406.068 111.195 406.068 109.616V108.24C405.844 108.731 405.492 109.12 405.012 109.408C404.543 109.685 404.004 109.824 403.396 109.824C402.681 109.824 402.063 109.659 401.54 109.328C401.017 108.997 400.612 108.544 400.324 107.968C400.047 107.381 399.908 106.704 399.908 105.936C399.908 105.168 400.047 104.496 400.324 103.92C400.612 103.333 401.017 102.88 401.54 102.56C402.063 102.24 402.681 102.08 403.396 102.08C404.004 102.08 404.543 102.219 405.012 102.496C405.492 102.773 405.844 103.152 406.068 103.632V102.224H407.332V109.44C407.332 110.635 407.033 111.531 406.436 112.128C405.849 112.725 404.98 113.024 403.828 113.024ZM403.636 108.768C404.383 108.768 404.975 108.512 405.412 108C405.849 107.488 406.068 106.8 406.068 105.936C406.068 105.072 405.849 104.389 405.412 103.888C404.975 103.376 404.383 103.12 403.636 103.12C402.9 103.12 402.313 103.376 401.876 103.888C401.439 104.389 401.22 105.072 401.22 105.936C401.22 106.8 401.439 107.488 401.876 108C402.313 108.512 402.9 108.768 403.636 108.768Z" fill="#191919"/>
</g>
<g filter="url(#filter2_d_313_8987)">
<rect x="45" y="289" width="168" height="123" rx="8" fill="white" shape-rendering="crispEdges"/>
<rect x="46" y="290" width="166" height="121" rx="7" stroke="#FFD90E" stroke-width="2" shape-rendering="crispEdges"/>
<circle cx="129" cy="332.5" r="27.5" fill="#FFF4B6"/>
<rect width="32" height="32" transform="translate(113 316)" fill="#FFF4B6"/>
<path fill-rule="evenodd" clip-rule="evenodd" d="M127.5 332C126.672 332 126 332.672 126 333.5C126 334.328 126.672 335 127.5 335C128.328 335 129 334.328 129 333.5C129 332.672 128.328 332 127.5 332ZM124 333.5C124 331.567 125.567 330 127.5 330C129.433 330 131 331.567 131 333.5C131 335.433 129.433 337 127.5 337C125.567 337 124 335.433 124 333.5Z" fill="#4D4204"/>
<path fill-rule="evenodd" clip-rule="evenodd" d="M126.445 334.555C126.835 334.946 126.835 335.579 126.445 335.97L117.707 344.707C117.317 345.098 116.683 345.098 116.293 344.707C115.902 344.317 115.902 343.683 116.293 343.293L125.03 334.555C125.421 334.165 126.054 334.165 126.445 334.555Z" fill="#4D4204"/>
<path fill-rule="evenodd" clip-rule="evenodd" d="M127.649 322.064C128.016 321.926 128.43 322.016 128.707 322.293L138.707 332.293C138.984 332.57 139.074 332.984 138.936 333.351L136.138 340.809C136.018 341.137 135.814 341.427 135.546 341.651C135.277 341.877 134.952 342.027 134.606 342.086L134.602 342.086L117.164 344.986C116.846 345.039 116.521 344.935 116.293 344.707C116.065 344.479 115.961 344.154 116.014 343.836L118.914 326.406C118.974 326.061 119.122 325.738 119.344 325.468C119.566 325.198 119.855 324.99 120.182 324.866L120.186 324.864L127.649 322.064ZM120.893 326.735C120.893 326.735 120.893 326.735 120.893 326.735C120.891 326.735 120.89 326.737 120.888 326.738C120.887 326.74 120.886 326.742 120.886 326.744C120.886 326.744 120.886 326.743 120.886 326.744L118.216 342.784L134.262 340.115L134.264 340.111L136.837 333.252L127.748 324.163L120.893 326.735Z" fill="#4D4204"/>
<path fill-rule="evenodd" clip-rule="evenodd" d="M131.228 318.569C131.472 318.467 131.735 318.414 132 318.414C132.265 318.414 132.528 318.467 132.772 318.569C133.016 318.671 133.236 318.82 133.422 319.008L141.992 327.578C142.18 327.764 142.329 327.984 142.431 328.228C142.533 328.472 142.586 328.735 142.586 329C142.586 329.265 142.533 329.528 142.431 329.772C142.329 330.016 142.18 330.236 141.992 330.422L138.707 333.707C138.317 334.098 137.683 334.098 137.293 333.707C136.902 333.317 136.902 332.683 137.293 332.293L140.586 329L140.58 328.995L132 320.414L131.995 320.42L128.707 323.707C128.317 324.098 127.683 324.098 127.293 323.707C126.902 323.317 126.902 322.683 127.293 322.293L130.578 319.008C130.764 318.82 130.984 318.671 131.228 318.569Z" fill="#4D4204"/>
<path d="M70.892 389V377.72H74.7C76.524 377.72 77.932 378.205 78.924 379.176C79.916 380.136 80.412 381.528 80.412 383.352C80.412 385.176 79.916 386.573 78.924 387.544C77.932 388.515 76.524 389 74.7 389H70.892ZM72.204 387.88H74.604C77.548 387.88 79.02 386.371 79.02 383.352C79.02 380.344 77.548 378.84 74.604 378.84H72.204V387.88ZM82.431 379.288V377.832H84.031V379.288H82.431ZM82.591 389V381.224H83.887V389H82.591ZM89.7498 392.024C89.0778 392.024 88.4431 391.933 87.8458 391.752C87.2591 391.581 86.7364 391.32 86.2778 390.968L86.7098 390.024C87.1898 390.365 87.6644 390.611 88.1338 390.76C88.6138 390.909 89.1311 390.984 89.6858 390.984C91.2218 390.984 91.9898 390.195 91.9898 388.616V387.24C91.7658 387.731 91.4138 388.12 90.9338 388.408C90.4644 388.685 89.9258 388.824 89.3177 388.824C88.6031 388.824 87.9844 388.659 87.4618 388.328C86.9391 387.997 86.5338 387.544 86.2458 386.968C85.9684 386.381 85.8298 385.704 85.8298 384.936C85.8298 384.168 85.9684 383.496 86.2458 382.92C86.5338 382.333 86.9391 381.88 87.4618 381.56C87.9844 381.24 88.6031 381.08 89.3177 381.08C89.9258 381.08 90.4644 381.219 90.9338 381.496C91.4138 381.773 91.7658 382.152 91.9898 382.632V381.224H93.2538V388.44C93.2538 389.635 92.9551 390.531 92.3578 391.128C91.7711 391.725 90.9018 392.024 89.7498 392.024ZM89.5578 387.768C90.3044 387.768 90.8964 387.512 91.3338 387C91.7711 386.488 91.9898 385.8 91.9898 384.936C91.9898 384.072 91.7711 383.389 91.3338 382.888C90.8964 382.376 90.3044 382.12 89.5578 382.12C88.8218 382.12 88.2351 382.376 87.7978 382.888C87.3604 383.389 87.1418 384.072 87.1418 384.936C87.1418 385.8 87.3604 386.488 87.7978 387C88.2351 387.512 88.8218 387.768 89.5578 387.768ZM95.5247 379.288V377.832H97.1248V379.288H95.5247ZM95.6848 389V381.224H96.9808V389H95.6848ZM102.524 389.144C101.606 389.144 100.918 388.904 100.46 388.424C100.001 387.933 99.7715 387.229 99.7715 386.312V382.232H98.2515V381.224H99.7715V378.84H101.068V381.224H103.532V382.232H101.068V386.184C101.068 386.792 101.196 387.256 101.452 387.576C101.708 387.885 102.124 388.04 102.7 388.04C102.87 388.04 103.041 388.019 103.212 387.976C103.382 387.933 103.537 387.891 103.676 387.848L103.9 388.84C103.761 388.915 103.558 388.984 103.292 389.048C103.025 389.112 102.769 389.144 102.524 389.144ZM107.445 389.144C106.912 389.144 106.432 389.043 106.005 388.84C105.589 388.627 105.259 388.339 105.013 387.976C104.768 387.613 104.645 387.208 104.645 386.76C104.645 386.195 104.789 385.747 105.077 385.416C105.376 385.085 105.861 384.851 106.533 384.712C107.216 384.563 108.144 384.488 109.317 384.488H109.829V383.992C109.829 383.331 109.691 382.856 109.413 382.568C109.147 382.269 108.715 382.12 108.117 382.12C107.648 382.12 107.195 382.189 106.757 382.328C106.32 382.456 105.872 382.669 105.413 382.968L104.965 382.024C105.371 381.736 105.861 381.507 106.437 381.336C107.024 381.165 107.584 381.08 108.117 381.08C109.12 381.08 109.861 381.325 110.341 381.816C110.832 382.307 111.077 383.069 111.077 384.104V389H109.861V387.656C109.659 388.115 109.344 388.477 108.917 388.744C108.501 389.011 108.011 389.144 107.445 389.144ZM107.653 388.168C108.293 388.168 108.816 387.949 109.221 387.512C109.627 387.064 109.829 386.499 109.829 385.816V385.336H109.333C108.469 385.336 107.787 385.379 107.285 385.464C106.795 385.539 106.448 385.677 106.245 385.88C106.053 386.072 105.957 386.339 105.957 386.68C105.957 387.117 106.107 387.475 106.405 387.752C106.715 388.029 107.131 388.168 107.653 388.168ZM115.866 389.144C115.076 389.144 114.479 388.915 114.074 388.456C113.679 387.987 113.482 387.309 113.482 386.424V377.72H114.778V386.328C114.778 387.469 115.231 388.04 116.138 388.04C116.404 388.04 116.644 388.008 116.858 387.944L116.826 389.032C116.495 389.107 116.175 389.144 115.866 389.144ZM124.949 389.144C124.341 389.144 123.765 389.059 123.221 388.888C122.677 388.717 122.229 388.477 121.877 388.168L122.293 387.256C122.677 387.565 123.099 387.795 123.557 387.944C124.027 388.083 124.501 388.152 124.981 388.152C125.589 388.152 126.048 388.04 126.357 387.816C126.667 387.592 126.821 387.288 126.821 386.904C126.821 386.605 126.72 386.371 126.517 386.2C126.315 386.019 125.995 385.88 125.557 385.784L124.101 385.464C122.779 385.176 122.117 384.493 122.117 383.416C122.117 382.712 122.395 382.147 122.949 381.72C123.515 381.293 124.251 381.08 125.157 381.08C125.691 381.08 126.197 381.165 126.677 381.336C127.168 381.496 127.573 381.736 127.893 382.056L127.461 382.968C127.152 382.68 126.789 382.461 126.373 382.312C125.968 382.152 125.563 382.072 125.157 382.072C124.56 382.072 124.107 382.189 123.797 382.424C123.488 382.659 123.333 382.968 123.333 383.352C123.333 383.949 123.728 384.333 124.517 384.504L125.973 384.808C126.656 384.957 127.173 385.197 127.525 385.528C127.877 385.848 128.053 386.285 128.053 386.84C128.053 387.555 127.771 388.12 127.205 388.536C126.64 388.941 125.888 389.144 124.949 389.144ZM129.868 379.288V377.832H131.469V379.288H129.868ZM130.029 389V381.224H131.325V389H130.029ZM137.187 392.024C136.515 392.024 135.881 391.933 135.283 391.752C134.697 391.581 134.174 391.32 133.715 390.968L134.147 390.024C134.627 390.365 135.102 390.611 135.571 390.76C136.051 390.909 136.569 390.984 137.123 390.984C138.659 390.984 139.427 390.195 139.427 388.616V387.24C139.203 387.731 138.851 388.12 138.371 388.408C137.902 388.685 137.363 388.824 136.755 388.824C136.041 388.824 135.422 388.659 134.899 388.328C134.377 387.997 133.971 387.544 133.683 386.968C133.406 386.381 133.267 385.704 133.267 384.936C133.267 384.168 133.406 383.496 133.683 382.92C133.971 382.333 134.377 381.88 134.899 381.56C135.422 381.24 136.041 381.08 136.755 381.08C137.363 381.08 137.902 381.219 138.371 381.496C138.851 381.773 139.203 382.152 139.427 382.632V381.224H140.691V388.44C140.691 389.635 140.393 390.531 139.795 391.128C139.209 391.725 138.339 392.024 137.187 392.024ZM136.995 387.768C137.742 387.768 138.334 387.512 138.771 387C139.209 386.488 139.427 385.8 139.427 384.936C139.427 384.072 139.209 383.389 138.771 382.888C138.334 382.376 137.742 382.12 136.995 382.12C136.259 382.12 135.673 382.376 135.235 382.888C134.798 383.389 134.579 384.072 134.579 384.936C134.579 385.8 134.798 386.488 135.235 387C135.673 387.512 136.259 387.768 136.995 387.768ZM143.122 389V381.224H144.386V382.552C144.642 382.061 145.005 381.693 145.474 381.448C145.944 381.203 146.472 381.08 147.058 381.08C148.904 381.08 149.826 382.104 149.826 384.152V389H148.53V384.232C148.53 383.507 148.386 382.979 148.098 382.648C147.821 382.307 147.373 382.136 146.754 382.136C146.04 382.136 145.469 382.36 145.042 382.808C144.626 383.245 144.418 383.832 144.418 384.568V389H143.122ZM154.664 389.144C154.131 389.144 153.651 389.043 153.224 388.84C152.808 388.627 152.477 388.339 152.232 387.976C151.987 387.613 151.864 387.208 151.864 386.76C151.864 386.195 152.008 385.747 152.296 385.416C152.595 385.085 153.08 384.851 153.752 384.712C154.435 384.563 155.363 384.488 156.536 384.488H157.048V383.992C157.048 383.331 156.909 382.856 156.632 382.568C156.365 382.269 155.933 382.12 155.336 382.12C154.867 382.12 154.413 382.189 153.976 382.328C153.539 382.456 153.091 382.669 152.632 382.968L152.184 382.024C152.589 381.736 153.08 381.507 153.656 381.336C154.243 381.165 154.803 381.08 155.336 381.08C156.339 381.08 157.08 381.325 157.56 381.816C158.051 382.307 158.296 383.069 158.296 384.104V389H157.08V387.656C156.877 388.115 156.563 388.477 156.136 388.744C155.72 389.011 155.229 389.144 154.664 389.144ZM154.872 388.168C155.512 388.168 156.035 387.949 156.44 387.512C156.845 387.064 157.048 386.499 157.048 385.816V385.336H156.552C155.688 385.336 155.005 385.379 154.504 385.464C154.013 385.539 153.667 385.677 153.464 385.88C153.272 386.072 153.176 386.339 153.176 386.68C153.176 387.117 153.325 387.475 153.624 387.752C153.933 388.029 154.349 388.168 154.872 388.168ZM163.82 389.144C162.903 389.144 162.215 388.904 161.756 388.424C161.298 387.933 161.068 387.229 161.068 386.312V382.232H159.548V381.224H161.068V378.84H162.364V381.224H164.828V382.232H162.364V386.184C162.364 386.792 162.492 387.256 162.748 387.576C163.004 387.885 163.42 388.04 163.996 388.04C164.167 388.04 164.338 388.019 164.508 387.976C164.679 387.933 164.834 387.891 164.972 387.848L165.196 388.84C165.058 388.915 164.855 388.984 164.588 389.048C164.322 389.112 164.066 389.144 163.82 389.144ZM169.046 389.144C167.179 389.144 166.246 388.115 166.246 386.056V381.224H167.542V386.04C167.542 386.733 167.681 387.245 167.958 387.576C168.246 387.907 168.694 388.072 169.302 388.072C169.963 388.072 170.502 387.853 170.918 387.416C171.334 386.968 171.542 386.376 171.542 385.64V381.224H172.838V389H171.574V387.688C171.329 388.157 170.982 388.52 170.534 388.776C170.097 389.021 169.601 389.144 169.046 389.144ZM175.263 389V381.224H176.527V382.616C176.943 381.677 177.796 381.16 179.087 381.064L179.551 381.016L179.647 382.136L178.831 382.232C178.095 382.296 177.535 382.531 177.151 382.936C176.767 383.331 176.575 383.875 176.575 384.568V389H175.263ZM184.408 389.144C183.181 389.144 182.21 388.787 181.496 388.072C180.781 387.347 180.424 386.365 180.424 385.128C180.424 384.328 180.584 383.624 180.904 383.016C181.224 382.397 181.661 381.923 182.216 381.592C182.781 381.251 183.432 381.08 184.168 381.08C185.224 381.08 186.05 381.421 186.648 382.104C187.245 382.776 187.544 383.704 187.544 384.888V385.384H181.688C181.73 386.269 181.986 386.947 182.456 387.416C182.925 387.875 183.576 388.104 184.408 388.104C184.877 388.104 185.325 388.035 185.752 387.896C186.178 387.747 186.584 387.507 186.968 387.176L187.416 388.088C187.064 388.419 186.616 388.68 186.072 388.872C185.528 389.053 184.973 389.144 184.408 389.144ZM184.2 382.04C183.464 382.04 182.882 382.269 182.456 382.728C182.029 383.187 181.778 383.789 181.704 384.536H186.424C186.392 383.747 186.184 383.133 185.8 382.696C185.426 382.259 184.893 382.04 184.2 382.04Z" fill="#191919"/>
</g>
<g filter="url(#filter3_d_313_8987)">
<rect x="409" y="188" width="168" height="123" rx="8" fill="white" shape-rendering="crispEdges"/>
<rect x="410" y="189" width="166" height="121" rx="7" stroke="#1DC1CB" stroke-width="2" shape-rendering="crispEdges"/>
<circle cx="493" cy="231.5" r="27.5" fill="#BBECEF"/>
<path d="M493 220C491.307 220 489.8 221.067 489.24 222.667H481V225.333H483.6L479.667 234.667C479.04 237.333 481 238.667 484.333 238.667C487.667 238.667 489.747 237.333 489 234.667L485.067 225.333H489.227C489.667 226.467 490.533 227.333 491.667 227.773V242.667H479.667V245.333H506.333V242.667H494.333V227.76C495.467 227.333 496.333 226.467 496.76 225.333H500.933L497 234.667C496.373 237.333 498.333 238.667 501.667 238.667C505 238.667 507.08 237.333 506.333 234.667L502.4 225.333H505V222.667H496.773C496.2 221.067 494.693 220 493 220ZM493 222.667C493.354 222.667 493.693 222.807 493.943 223.057C494.193 223.307 494.333 223.646 494.333 224C494.333 224.354 494.193 224.693 493.943 224.943C493.693 225.193 493.354 225.333 493 225.333C492.646 225.333 492.307 225.193 492.057 224.943C491.807 224.693 491.667 224.354 491.667 224C491.667 223.646 491.807 223.307 492.057 223.057C492.307 222.807 492.646 222.667 493 222.667ZM484.333 229.667L486.333 234.667H482.333L484.333 229.667ZM501.667 229.667L503.667 234.667H499.667L501.667 229.667Z" fill="#093A3D"/>
<path d="M447.392 288V276.72H448.704V286.848H454.448V288H447.392ZM459.329 288.144C458.103 288.144 457.132 287.787 456.417 287.072C455.703 286.347 455.345 285.365 455.345 284.128C455.345 283.328 455.505 282.624 455.825 282.016C456.145 281.397 456.583 280.923 457.137 280.592C457.703 280.251 458.353 280.08 459.089 280.08C460.145 280.08 460.972 280.421 461.569 281.104C462.167 281.776 462.465 282.704 462.465 283.888V284.384H456.609C456.652 285.269 456.908 285.947 457.377 286.416C457.847 286.875 458.497 287.104 459.329 287.104C459.799 287.104 460.247 287.035 460.673 286.896C461.1 286.747 461.505 286.507 461.889 286.176L462.337 287.088C461.985 287.419 461.537 287.68 460.993 287.872C460.449 288.053 459.895 288.144 459.329 288.144ZM459.121 281.04C458.385 281.04 457.804 281.269 457.377 281.728C456.951 282.187 456.7 282.789 456.625 283.536H461.345C461.313 282.747 461.105 282.133 460.721 281.696C460.348 281.259 459.815 281.04 459.121 281.04ZM467.781 291.024C467.109 291.024 466.474 290.933 465.877 290.752C465.29 290.581 464.768 290.32 464.309 289.968L464.741 289.024C465.221 289.365 465.696 289.611 466.165 289.76C466.645 289.909 467.162 289.984 467.717 289.984C469.253 289.984 470.021 289.195 470.021 287.616V286.24C469.797 286.731 469.445 287.12 468.965 287.408C468.496 287.685 467.957 287.824 467.349 287.824C466.634 287.824 466.016 287.659 465.493 287.328C464.97 286.997 464.565 286.544 464.277 285.968C464 285.381 463.861 284.704 463.861 283.936C463.861 283.168 464 282.496 464.277 281.92C464.565 281.333 464.97 280.88 465.493 280.56C466.016 280.24 466.634 280.08 467.349 280.08C467.957 280.08 468.496 280.219 468.965 280.496C469.445 280.773 469.797 281.152 470.021 281.632V280.224H471.285V287.44C471.285 288.635 470.986 289.531 470.389 290.128C469.802 290.725 468.933 291.024 467.781 291.024ZM467.589 286.768C468.336 286.768 468.928 286.512 469.365 286C469.802 285.488 470.021 284.8 470.021 283.936C470.021 283.072 469.802 282.389 469.365 281.888C468.928 281.376 468.336 281.12 467.589 281.12C466.853 281.12 466.266 281.376 465.829 281.888C465.392 282.389 465.173 283.072 465.173 283.936C465.173 284.8 465.392 285.488 465.829 286C466.266 286.512 466.853 286.768 467.589 286.768ZM476.164 288.144C475.631 288.144 475.151 288.043 474.724 287.84C474.308 287.627 473.977 287.339 473.732 286.976C473.487 286.613 473.364 286.208 473.364 285.76C473.364 285.195 473.508 284.747 473.796 284.416C474.095 284.085 474.58 283.851 475.252 283.712C475.935 283.563 476.863 283.488 478.036 283.488H478.548V282.992C478.548 282.331 478.409 281.856 478.132 281.568C477.865 281.269 477.433 281.12 476.836 281.12C476.367 281.12 475.913 281.189 475.476 281.328C475.039 281.456 474.591 281.669 474.132 281.968L473.684 281.024C474.089 280.736 474.58 280.507 475.156 280.336C475.743 280.165 476.303 280.08 476.836 280.08C477.839 280.08 478.58 280.325 479.06 280.816C479.551 281.307 479.796 282.069 479.796 283.104V288H478.58V286.656C478.377 287.115 478.063 287.477 477.636 287.744C477.22 288.011 476.729 288.144 476.164 288.144ZM476.372 287.168C477.012 287.168 477.535 286.949 477.94 286.512C478.345 286.064 478.548 285.499 478.548 284.816V284.336H478.052C477.188 284.336 476.505 284.379 476.004 284.464C475.513 284.539 475.167 284.677 474.964 284.88C474.772 285.072 474.676 285.339 474.676 285.68C474.676 286.117 474.825 286.475 475.124 286.752C475.433 287.029 475.849 287.168 476.372 287.168ZM484.584 288.144C483.795 288.144 483.198 287.915 482.792 287.456C482.398 286.987 482.2 286.309 482.2 285.424V276.72H483.496V285.328C483.496 286.469 483.95 287.04 484.856 287.04C485.123 287.04 485.363 287.008 485.576 286.944L485.544 288.032C485.214 288.107 484.894 288.144 484.584 288.144ZM493.668 288.144C493.06 288.144 492.484 288.059 491.94 287.888C491.396 287.717 490.948 287.477 490.596 287.168L491.012 286.256C491.396 286.565 491.817 286.795 492.276 286.944C492.745 287.083 493.22 287.152 493.7 287.152C494.308 287.152 494.767 287.04 495.076 286.816C495.385 286.592 495.54 286.288 495.54 285.904C495.54 285.605 495.439 285.371 495.236 285.2C495.033 285.019 494.713 284.88 494.276 284.784L492.82 284.464C491.497 284.176 490.836 283.493 490.836 282.416C490.836 281.712 491.113 281.147 491.668 280.72C492.233 280.293 492.969 280.08 493.876 280.08C494.409 280.08 494.916 280.165 495.396 280.336C495.887 280.496 496.292 280.736 496.612 281.056L496.18 281.968C495.871 281.68 495.508 281.461 495.092 281.312C494.687 281.152 494.281 281.072 493.876 281.072C493.279 281.072 492.825 281.189 492.516 281.424C492.207 281.659 492.052 281.968 492.052 282.352C492.052 282.949 492.447 283.333 493.236 283.504L494.692 283.808C495.375 283.957 495.892 284.197 496.244 284.528C496.596 284.848 496.772 285.285 496.772 285.84C496.772 286.555 496.489 287.12 495.924 287.536C495.359 287.941 494.607 288.144 493.668 288.144ZM502.251 288.144C501.025 288.144 500.054 287.787 499.339 287.072C498.625 286.347 498.267 285.365 498.267 284.128C498.267 283.328 498.427 282.624 498.747 282.016C499.067 281.397 499.505 280.923 500.059 280.592C500.625 280.251 501.275 280.08 502.011 280.08C503.067 280.08 503.894 280.421 504.491 281.104C505.089 281.776 505.387 282.704 505.387 283.888V284.384H499.531C499.574 285.269 499.83 285.947 500.299 286.416C500.769 286.875 501.419 287.104 502.251 287.104C502.721 287.104 503.169 287.035 503.595 286.896C504.022 286.747 504.427 286.507 504.811 286.176L505.259 287.088C504.907 287.419 504.459 287.68 503.915 287.872C503.371 288.053 502.817 288.144 502.251 288.144ZM502.043 281.04C501.307 281.04 500.726 281.269 500.299 281.728C499.873 282.187 499.622 282.789 499.547 283.536H504.267C504.235 282.747 504.027 282.133 503.643 281.696C503.27 281.259 502.737 281.04 502.043 281.04ZM507.263 288V280.224H508.527V281.616C508.943 280.677 509.796 280.16 511.087 280.064L511.551 280.016L511.647 281.136L510.831 281.232C510.095 281.296 509.535 281.531 509.151 281.936C508.767 282.331 508.575 282.875 508.575 283.568V288H507.263ZM515.77 288L512.426 280.224H513.834L516.41 286.528L519.018 280.224H520.346L516.986 288H515.77ZM521.556 278.288V276.832H523.156V278.288H521.556ZM521.716 288V280.224H523.012V288H521.716ZM528.731 288.144C527.952 288.144 527.28 287.979 526.715 287.648C526.149 287.307 525.712 286.832 525.403 286.224C525.104 285.605 524.955 284.885 524.955 284.064C524.955 282.827 525.291 281.856 525.963 281.152C526.635 280.437 527.557 280.08 528.731 280.08C529.211 280.08 529.685 280.165 530.155 280.336C530.624 280.507 531.013 280.747 531.323 281.056L530.875 282C530.565 281.701 530.224 281.483 529.851 281.344C529.488 281.205 529.141 281.136 528.811 281.136C528 281.136 527.376 281.392 526.939 281.904C526.501 282.405 526.283 283.131 526.283 284.08C526.283 285.008 526.501 285.744 526.939 286.288C527.376 286.821 528 287.088 528.811 287.088C529.141 287.088 529.488 287.019 529.851 286.88C530.224 286.741 530.565 286.517 530.875 286.208L531.323 287.152C531.013 287.461 530.619 287.707 530.139 287.888C529.669 288.059 529.2 288.144 528.731 288.144ZM536.189 288.144C534.962 288.144 533.991 287.787 533.277 287.072C532.562 286.347 532.205 285.365 532.205 284.128C532.205 283.328 532.365 282.624 532.685 282.016C533.005 281.397 533.442 280.923 533.997 280.592C534.562 280.251 535.213 280.08 535.949 280.08C537.005 280.08 537.831 280.421 538.429 281.104C539.026 281.776 539.325 282.704 539.325 283.888V284.384H533.469C533.511 285.269 533.767 285.947 534.237 286.416C534.706 286.875 535.357 287.104 536.189 287.104C536.658 287.104 537.106 287.035 537.533 286.896C537.959 286.747 538.365 286.507 538.749 286.176L539.197 287.088C538.845 287.419 538.397 287.68 537.853 287.872C537.309 288.053 536.754 288.144 536.189 288.144ZM535.981 281.04C535.245 281.04 534.663 281.269 534.237 281.728C533.81 282.187 533.559 282.789 533.485 283.536H538.205C538.173 282.747 537.965 282.133 537.581 281.696C537.207 281.259 536.674 281.04 535.981 281.04Z" fill="#191919"/>
</g>
<g filter="url(#filter4_d_313_8987)">
<rect x="307" y="389" width="168" height="123" rx="8" fill="white" shape-rendering="crispEdges"/>
<rect x="308" y="390" width="166" height="121" rx="7" stroke="#F63535" stroke-width="2" shape-rendering="crispEdges"/>
<circle cx="391" cy="432.5" r="27.5" fill="#FFD8B3"/>
<path fill-rule="evenodd" clip-rule="evenodd" d="M380.086 419.586C380.461 419.211 380.97 419 381.5 419H393.5C393.765 419 394.02 419.105 394.207 419.293L401.207 426.293C401.395 426.48 401.5 426.735 401.5 427V443C401.5 443.53 401.289 444.039 400.914 444.414C400.539 444.789 400.03 445 399.5 445H381.5C380.97 445 380.461 444.789 380.086 444.414C379.711 444.039 379.5 443.53 379.5 443V421C379.5 420.47 379.711 419.961 380.086 419.586ZM393.086 421L381.5 421L381.5 443H399.5V427.414L393.086 421Z" fill="#4A0101"/>
<path fill-rule="evenodd" clip-rule="evenodd" d="M393.5 419C394.052 419 394.5 419.448 394.5 420V426H400.5C401.052 426 401.5 426.448 401.5 427C401.5 427.552 401.052 428 400.5 428H393.5C392.948 428 392.5 427.552 392.5 427V420C392.5 419.448 392.948 419 393.5 419Z" fill="#4A0101"/>
<path fill-rule="evenodd" clip-rule="evenodd" d="M385.5 433C385.5 432.448 385.948 432 386.5 432H394.5C395.052 432 395.5 432.448 395.5 433C395.5 433.552 395.052 434 394.5 434H386.5C385.948 434 385.5 433.552 385.5 433Z" fill="#4A0101"/>
<path fill-rule="evenodd" clip-rule="evenodd" d="M385.5 437C385.5 436.448 385.948 436 386.5 436H394.5C395.052 436 395.5 436.448 395.5 437C395.5 437.552 395.052 438 394.5 438H386.5C385.948 438 385.5 437.552 385.5 437Z" fill="#4A0101"/>
<path d="M340.892 489V477.72H342.204V489H340.892ZM347.754 489V478.856H343.658V477.72H353.178V478.856H349.082V489H347.754ZM354.611 489V477.72H359.075C360.291 477.72 361.219 478.003 361.859 478.568C362.509 479.133 362.835 479.939 362.835 480.984C362.835 481.816 362.605 482.499 362.147 483.032C361.699 483.565 361.059 483.912 360.227 484.072C360.717 484.243 361.139 484.659 361.491 485.32L363.475 489H362.035L360.083 485.384C359.837 484.936 359.555 484.632 359.235 484.472C358.915 484.312 358.493 484.232 357.971 484.232H355.923V489H354.611ZM355.923 483.192H358.883C360.653 483.192 361.539 482.456 361.539 480.984C361.539 479.533 360.653 478.808 358.883 478.808H355.923V483.192ZM371.695 489.144C371.162 489.144 370.682 489.043 370.255 488.84C369.839 488.627 369.509 488.339 369.263 487.976C369.018 487.613 368.895 487.208 368.895 486.76C368.895 486.195 369.039 485.747 369.327 485.416C369.626 485.085 370.111 484.851 370.783 484.712C371.466 484.563 372.394 484.488 373.567 484.488H374.079V483.992C374.079 483.331 373.941 482.856 373.663 482.568C373.397 482.269 372.965 482.12 372.367 482.12C371.898 482.12 371.445 482.189 371.007 482.328C370.57 482.456 370.122 482.669 369.663 482.968L369.215 482.024C369.621 481.736 370.111 481.507 370.687 481.336C371.274 481.165 371.834 481.08 372.367 481.08C373.37 481.08 374.111 481.325 374.591 481.816C375.082 482.307 375.327 483.069 375.327 484.104V489H374.111V487.656C373.909 488.115 373.594 488.477 373.167 488.744C372.751 489.011 372.261 489.144 371.695 489.144ZM371.903 488.168C372.543 488.168 373.066 487.949 373.471 487.512C373.877 487.064 374.079 486.499 374.079 485.816V485.336H373.583C372.719 485.336 372.037 485.379 371.535 485.464C371.045 485.539 370.698 485.677 370.495 485.88C370.303 486.072 370.207 486.339 370.207 486.68C370.207 487.117 370.357 487.475 370.655 487.752C370.965 488.029 371.381 488.168 371.903 488.168ZM380.356 489.144C379.748 489.144 379.172 489.059 378.628 488.888C378.084 488.717 377.636 488.477 377.284 488.168L377.7 487.256C378.084 487.565 378.505 487.795 378.964 487.944C379.433 488.083 379.908 488.152 380.388 488.152C380.996 488.152 381.454 488.04 381.764 487.816C382.073 487.592 382.228 487.288 382.228 486.904C382.228 486.605 382.126 486.371 381.924 486.2C381.721 486.019 381.401 485.88 380.964 485.784L379.508 485.464C378.185 485.176 377.524 484.493 377.524 483.416C377.524 482.712 377.801 482.147 378.356 481.72C378.921 481.293 379.657 481.08 380.564 481.08C381.097 481.08 381.604 481.165 382.084 481.336C382.574 481.496 382.98 481.736 383.3 482.056L382.868 482.968C382.558 482.68 382.196 482.461 381.78 482.312C381.374 482.152 380.969 482.072 380.564 482.072C379.966 482.072 379.513 482.189 379.204 482.424C378.894 482.659 378.74 482.968 378.74 483.352C378.74 483.949 379.134 484.333 379.924 484.504L381.38 484.808C382.062 484.957 382.58 485.197 382.932 485.528C383.284 485.848 383.46 486.285 383.46 486.84C383.46 487.555 383.177 488.12 382.612 488.536C382.046 488.941 381.294 489.144 380.356 489.144ZM388.059 489.144C387.451 489.144 386.875 489.059 386.331 488.888C385.787 488.717 385.339 488.477 384.987 488.168L385.403 487.256C385.787 487.565 386.208 487.795 386.667 487.944C387.136 488.083 387.611 488.152 388.091 488.152C388.699 488.152 389.157 488.04 389.467 487.816C389.776 487.592 389.931 487.288 389.931 486.904C389.931 486.605 389.829 486.371 389.627 486.2C389.424 486.019 389.104 485.88 388.667 485.784L387.211 485.464C385.888 485.176 385.227 484.493 385.227 483.416C385.227 482.712 385.504 482.147 386.059 481.72C386.624 481.293 387.36 481.08 388.267 481.08C388.8 481.08 389.307 481.165 389.787 481.336C390.277 481.496 390.683 481.736 391.003 482.056L390.571 482.968C390.261 482.68 389.899 482.461 389.483 482.312C389.077 482.152 388.672 482.072 388.267 482.072C387.669 482.072 387.216 482.189 386.907 482.424C386.597 482.659 386.443 482.968 386.443 483.352C386.443 483.949 386.837 484.333 387.627 484.504L389.083 484.808C389.765 484.957 390.283 485.197 390.635 485.528C390.987 485.848 391.163 486.285 391.163 486.84C391.163 487.555 390.88 488.12 390.315 488.536C389.749 488.941 388.997 489.144 388.059 489.144ZM392.978 479.288V477.832H394.578V479.288H392.978ZM393.138 489V481.224H394.434V489H393.138ZM399.481 489.144C398.873 489.144 398.297 489.059 397.753 488.888C397.209 488.717 396.761 488.477 396.409 488.168L396.825 487.256C397.209 487.565 397.63 487.795 398.089 487.944C398.558 488.083 399.033 488.152 399.513 488.152C400.121 488.152 400.579 488.04 400.889 487.816C401.198 487.592 401.353 487.288 401.353 486.904C401.353 486.605 401.251 486.371 401.049 486.2C400.846 486.019 400.526 485.88 400.089 485.784L398.633 485.464C397.31 485.176 396.649 484.493 396.649 483.416C396.649 482.712 396.926 482.147 397.481 481.72C398.046 481.293 398.782 481.08 399.689 481.08C400.222 481.08 400.729 481.165 401.209 481.336C401.699 481.496 402.105 481.736 402.425 482.056L401.993 482.968C401.683 482.68 401.321 482.461 400.905 482.312C400.499 482.152 400.094 482.072 399.689 482.072C399.091 482.072 398.638 482.189 398.329 482.424C398.019 482.659 397.865 482.968 397.865 483.352C397.865 483.949 398.259 484.333 399.049 484.504L400.505 484.808C401.187 484.957 401.705 485.197 402.057 485.528C402.409 485.848 402.585 486.285 402.585 486.84C402.585 487.555 402.302 488.12 401.737 488.536C401.171 488.941 400.419 489.144 399.481 489.144ZM407.602 489.144C406.684 489.144 405.996 488.904 405.538 488.424C405.079 487.933 404.85 487.229 404.85 486.312V482.232H403.33V481.224H404.85V478.84H406.146V481.224H408.61V482.232H406.146V486.184C406.146 486.792 406.274 487.256 406.53 487.576C406.786 487.885 407.202 488.04 407.778 488.04C407.948 488.04 408.119 488.019 408.29 487.976C408.46 487.933 408.615 487.891 408.754 487.848L408.978 488.84C408.839 488.915 408.636 488.984 408.37 489.048C408.103 489.112 407.847 489.144 407.602 489.144ZM412.523 489.144C411.99 489.144 411.51 489.043 411.083 488.84C410.667 488.627 410.337 488.339 410.091 487.976C409.846 487.613 409.723 487.208 409.723 486.76C409.723 486.195 409.867 485.747 410.155 485.416C410.454 485.085 410.939 484.851 411.611 484.712C412.294 484.563 413.222 484.488 414.395 484.488H414.907V483.992C414.907 483.331 414.769 482.856 414.491 482.568C414.225 482.269 413.793 482.12 413.195 482.12C412.726 482.12 412.273 482.189 411.835 482.328C411.398 482.456 410.95 482.669 410.491 482.968L410.043 482.024C410.449 481.736 410.939 481.507 411.515 481.336C412.102 481.165 412.662 481.08 413.195 481.08C414.198 481.08 414.939 481.325 415.419 481.816C415.91 482.307 416.155 483.069 416.155 484.104V489H414.939V487.656C414.737 488.115 414.422 488.477 413.995 488.744C413.579 489.011 413.089 489.144 412.523 489.144ZM412.731 488.168C413.371 488.168 413.894 487.949 414.299 487.512C414.705 487.064 414.907 486.499 414.907 485.816V485.336H414.411C413.547 485.336 412.865 485.379 412.363 485.464C411.873 485.539 411.526 485.677 411.323 485.88C411.131 486.072 411.035 486.339 411.035 486.68C411.035 487.117 411.185 487.475 411.483 487.752C411.793 488.029 412.209 488.168 412.731 488.168ZM418.56 489V481.224H419.824V482.552C420.08 482.061 420.442 481.693 420.912 481.448C421.381 481.203 421.909 481.08 422.496 481.08C424.341 481.08 425.264 482.104 425.264 484.152V489H423.968V484.232C423.968 483.507 423.824 482.979 423.536 482.648C423.258 482.307 422.81 482.136 422.192 482.136C421.477 482.136 420.906 482.36 420.48 482.808C420.064 483.245 419.856 483.832 419.856 484.568V489H418.56ZM430.95 489.144C430.171 489.144 429.499 488.979 428.934 488.648C428.368 488.307 427.931 487.832 427.622 487.224C427.323 486.605 427.174 485.885 427.174 485.064C427.174 483.827 427.51 482.856 428.182 482.152C428.854 481.437 429.776 481.08 430.95 481.08C431.43 481.08 431.904 481.165 432.374 481.336C432.843 481.507 433.232 481.747 433.542 482.056L433.094 483C432.784 482.701 432.443 482.483 432.07 482.344C431.707 482.205 431.36 482.136 431.03 482.136C430.219 482.136 429.595 482.392 429.158 482.904C428.72 483.405 428.502 484.131 428.502 485.08C428.502 486.008 428.72 486.744 429.158 487.288C429.595 487.821 430.219 488.088 431.03 488.088C431.36 488.088 431.707 488.019 432.07 487.88C432.443 487.741 432.784 487.517 433.094 487.208L433.542 488.152C433.232 488.461 432.838 488.707 432.358 488.888C431.888 489.059 431.419 489.144 430.95 489.144ZM438.408 489.144C437.181 489.144 436.21 488.787 435.496 488.072C434.781 487.347 434.424 486.365 434.424 485.128C434.424 484.328 434.584 483.624 434.904 483.016C435.224 482.397 435.661 481.923 436.216 481.592C436.781 481.251 437.432 481.08 438.168 481.08C439.224 481.08 440.05 481.421 440.648 482.104C441.245 482.776 441.544 483.704 441.544 484.888V485.384H435.688C435.73 486.269 435.986 486.947 436.456 487.416C436.925 487.875 437.576 488.104 438.408 488.104C438.877 488.104 439.325 488.035 439.752 487.896C440.178 487.747 440.584 487.507 440.968 487.176L441.416 488.088C441.064 488.419 440.616 488.68 440.072 488.872C439.528 489.053 438.973 489.144 438.408 489.144ZM438.2 482.04C437.464 482.04 436.882 482.269 436.456 482.728C436.029 483.187 435.778 483.789 435.704 484.536H440.424C440.392 483.747 440.184 483.133 439.8 482.696C439.426 482.259 438.893 482.04 438.2 482.04Z" fill="#191919"/>
</g>
<defs>
<filter id="filter0_d_313_8987" x="0" y="45" width="192" height="147" filterUnits="userSpaceOnUse" color-interpolation-filters="sRGB">
<feFlood flood-opacity="0" result="BackgroundImageFix"/>
<feColorMatrix in="SourceAlpha" type="matrix" values="0 0 0 0 0 0 0 0 0 0 0 0 0 0 0 0 0 0 127 0" result="hardAlpha"/>
<feOffset dy="2"/>
<feGaussianBlur stdDeviation="6"/>
<feComposite in2="hardAlpha" operator="out"/>
<feColorMatrix type="matrix" values="0 0 0 0 0.698039 0 0 0 0 0.698039 0 0 0 0 0.698039 0 0 0 0.45 0"/>
<feBlend mode="normal" in2="BackgroundImageFix" result="effect1_dropShadow_313_8987"/>
<feBlend mode="normal" in="SourceGraphic" in2="effect1_dropShadow_313_8987" result="shape"/>
</filter>
<filter id="filter1_d_313_8987" x="275" y="0" width="192" height="147" filterUnits="userSpaceOnUse" color-interpolation-filters="sRGB">
<feFlood flood-opacity="0" result="BackgroundImageFix"/>
<feColorMatrix in="SourceAlpha" type="matrix" values="0 0 0 0 0 0 0 0 0 0 0 0 0 0 0 0 0 0 127 0" result="hardAlpha"/>
<feOffset dy="2"/>
<feGaussianBlur stdDeviation="6"/>
<feComposite in2="hardAlpha" operator="out"/>
<feColorMatrix type="matrix" values="0 0 0 0 0.698039 0 0 0 0 0.698039 0 0 0 0 0.698039 0 0 0 0.45 0"/>
<feBlend mode="normal" in2="BackgroundImageFix" result="effect1_dropShadow_313_8987"/>
<feBlend mode="normal" in="SourceGraphic" in2="effect1_dropShadow_313_8987" result="shape"/>
</filter>
<filter id="filter2_d_313_8987" x="33" y="279" width="192" height="147" filterUnits="userSpaceOnUse" color-interpolation-filters="sRGB">
<feFlood flood-opacity="0" result="BackgroundImageFix"/>
<feColorMatrix in="SourceAlpha" type="matrix" values="0 0 0 0 0 0 0 0 0 0 0 0 0 0 0 0 0 0 127 0" result="hardAlpha"/>
<feOffset dy="2"/>
<feGaussianBlur stdDeviation="6"/>
<feComposite in2="hardAlpha" operator="out"/>
<feColorMatrix type="matrix" values="0 0 0 0 0.698039 0 0 0 0 0.698039 0 0 0 0 0.698039 0 0 0 0.45 0"/>
<feBlend mode="normal" in2="BackgroundImageFix" result="effect1_dropShadow_313_8987"/>
<feBlend mode="normal" in="SourceGraphic" in2="effect1_dropShadow_313_8987" result="shape"/>
</filter>
<filter id="filter3_d_313_8987" x="397" y="178" width="192" height="147" filterUnits="userSpaceOnUse" color-interpolation-filters="sRGB">
<feFlood flood-opacity="0" result="BackgroundImageFix"/>
<feColorMatrix in="SourceAlpha" type="matrix" values="0 0 0 0 0 0 0 0 0 0 0 0 0 0 0 0 0 0 127 0" result="hardAlpha"/>
<feOffset dy="2"/>
<feGaussianBlur stdDeviation="6"/>
<feComposite in2="hardAlpha" operator="out"/>
<feColorMatrix type="matrix" values="0 0 0 0 0.698039 0 0 0 0 0.698039 0 0 0 0 0.698039 0 0 0 0.45 0"/>
<feBlend mode="normal" in2="BackgroundImageFix" result="effect1_dropShadow_313_8987"/>
<feBlend mode="normal" in="SourceGraphic" in2="effect1_dropShadow_313_8987" result="shape"/>
</filter>
<filter id="filter4_d_313_8987" x="295" y="379" width="192" height="147" filterUnits="userSpaceOnUse" color-interpolation-filters="sRGB">
<feFlood flood-opacity="0" result="BackgroundImageFix"/>
<feColorMatrix in="SourceAlpha" type="matrix" values="0 0 0 0 0 0 0 0 0 0 0 0 0 0 0 0 0 0 127 0" result="hardAlpha"/>
<feOffset dy="2"/>
<feGaussianBlur stdDeviation="6"/>
<feComposite in2="hardAlpha" operator="out"/>
<feColorMatrix type="matrix" values="0 0 0 0 0.698039 0 0 0 0 0.698039 0 0 0 0 0.698039 0 0 0 0.45 0"/>
<feBlend mode="normal" in2="BackgroundImageFix" result="effect1_dropShadow_313_8987"/>
<feBlend mode="normal" in="SourceGraphic" in2="effect1_dropShadow_313_8987" result="shape"/>
</filter>
</defs>
</svg>
