<svg width="367" height="328" viewBox="0 0 367 328" fill="none" xmlns="http://www.w3.org/2000/svg">
<g filter="url(#filter0_d_321_7994)">
<path d="M12 24.3506L321.981 20.8799C334.13 20.7438 344.089 30.4827 344.225 42.6322L347.204 308.616L37.223 312.086C25.0735 312.222 15.1141 302.483 14.9781 290.334L12 24.3506Z" fill="#FFD8B3"/>
</g>
<path opacity="0.3" d="M366.805 8.76074H97.3987V222.667H366.805V8.76074Z" fill="black"/>
<path d="M358.711 0.666992H104.336V215.73H358.711V0.666992Z" fill="white" stroke="#263238" stroke-miterlimit="10"/>
<path d="M152.703 0.666992H104.561V215.353H152.703V0.666992Z" fill="#C1F1B9" stroke="#263238" stroke-miterlimit="10"/>
<path d="M358.711 0.666992H104.336V18.0107H358.711V0.666992Z" fill="#263238" stroke="#263238" stroke-miterlimit="10" stroke-linecap="round" stroke-linejoin="round"/>
<path d="M118.054 42.3994C118.054 39.7197 115.882 37.5469 113.201 37.5469C110.521 37.5469 108.349 39.7188 108.349 42.3994C108.349 45.08 110.522 47.2519 113.201 47.2519C115.881 47.2519 118.054 45.0791 118.054 42.3994Z" fill="white" stroke="#263238" stroke-miterlimit="10" stroke-linecap="round" stroke-linejoin="round"/>
<path d="M122.097 42.8035H145.954" stroke="#263238" stroke-miterlimit="10" stroke-linecap="round" stroke-linejoin="round"/>
<path d="M118.054 64.6377C118.054 61.9579 115.882 59.7852 113.201 59.7852C110.521 59.7852 108.349 61.9579 108.349 64.6377C108.349 67.3174 110.522 69.4902 113.201 69.4902C115.881 69.4902 118.054 67.3174 118.054 64.6377Z" fill="white" stroke="#263238" stroke-miterlimit="10" stroke-linecap="round" stroke-linejoin="round"/>
<path d="M122.097 65.0421H145.954" stroke="#263238" stroke-miterlimit="10" stroke-linecap="round" stroke-linejoin="round"/>
<path d="M118.054 86.8779C118.054 84.1982 115.882 82.0254 113.201 82.0254C110.521 82.0254 108.349 84.1982 108.349 86.8779C108.349 89.5577 110.522 91.7304 113.201 91.7304C115.881 91.7304 118.054 89.5577 118.054 86.8779Z" fill="white" stroke="#263238" stroke-miterlimit="10" stroke-linecap="round" stroke-linejoin="round"/>
<path d="M122.097 87.2803H145.954" stroke="#263238" stroke-miterlimit="10" stroke-linecap="round" stroke-linejoin="round"/>
<path d="M118.054 109.117C118.054 106.437 115.882 104.265 113.201 104.265C110.521 104.265 108.349 106.437 108.349 109.117C108.349 111.797 110.522 113.97 113.201 113.97C115.881 113.97 118.054 111.797 118.054 109.117Z" fill="white" stroke="#263238" stroke-miterlimit="10" stroke-linecap="round" stroke-linejoin="round"/>
<path d="M122.097 109.522H145.954" stroke="#263238" stroke-miterlimit="10" stroke-linecap="round" stroke-linejoin="round"/>
<path d="M118.054 131.355C118.054 128.676 115.882 126.503 113.201 126.503C110.521 126.503 108.349 128.676 108.349 131.355C108.349 134.035 110.521 136.208 113.201 136.208C115.881 136.208 118.054 134.035 118.054 131.355Z" fill="white" stroke="#263238" stroke-miterlimit="10" stroke-linecap="round" stroke-linejoin="round"/>
<path d="M122.097 131.76H145.954" stroke="#263238" stroke-miterlimit="10" stroke-linecap="round" stroke-linejoin="round"/>
<g opacity="0.05">
<path d="M350.037 147.218H158.757V154.078H350.037V147.218Z" fill="black"/>
<path d="M350.037 159.324H158.757V166.185H350.037V159.324Z" fill="black"/>
<path d="M350.037 171.43H158.757V178.29H350.037V171.43Z" fill="black"/>
<path d="M350.037 183.536H158.757V190.397H350.037V183.536Z" fill="black"/>
</g>
<path d="M249.34 164.818H238.373V196.852H249.34V164.818Z" fill="#83E374"/>
<path d="M237.153 151.598H226.186V196.851H237.153V151.598Z" fill="#263238"/>
<path d="M224.967 167.869H214V196.852H224.967V167.869Z" fill="#83E374"/>
<path d="M212.781 185.157H201.814V196.852H212.781V185.157Z" fill="#263238"/>
<path d="M200.595 162.277H189.627V196.853H200.595V162.277Z" fill="#83E374"/>
<path d="M188.409 169.396H177.441V196.853H188.409V169.396Z" fill="#263238"/>
<path d="M176.223 186.684H165.255V196.853H176.223V186.684Z" fill="#83E374"/>
<path d="M274.902 164.818H263.934V196.852H274.902V164.818Z" fill="#263238"/>
<path d="M287.088 151.598H276.12V196.851H287.088V151.598Z" fill="#83E374"/>
<path d="M299.274 167.869H288.306V196.852H299.274V167.869Z" fill="#263238"/>
<path d="M311.46 185.157H300.493V196.852H311.46V185.157Z" fill="#83E374"/>
<path d="M323.646 162.277H312.679V196.853H323.646V162.277Z" fill="#263238"/>
<path d="M335.832 169.396H324.865V196.853H335.832V169.396Z" fill="#83E374"/>
<path d="M348.019 186.684H337.052V196.853H348.019V186.684Z" fill="#263238"/>
<path d="M110.993 162.866H146.572" stroke="#263238" stroke-miterlimit="10" stroke-linecap="round" stroke-linejoin="round"/>
<path d="M110.993 169.251H146.572" stroke="#263238" stroke-miterlimit="10" stroke-linecap="round" stroke-linejoin="round"/>
<path d="M110.993 175.638H146.572" stroke="#263238" stroke-miterlimit="10" stroke-linecap="round" stroke-linejoin="round"/>
<path d="M110.993 182.024H146.572" stroke="#263238" stroke-miterlimit="10" stroke-linecap="round" stroke-linejoin="round"/>
<path d="M110.993 188.41H146.572" stroke="#263238" stroke-miterlimit="10" stroke-linecap="round" stroke-linejoin="round"/>
<path d="M110.993 194.796H146.572" stroke="#263238" stroke-miterlimit="10" stroke-linecap="round" stroke-linejoin="round"/>
<path d="M117.449 6.29199H133.064" stroke="white" stroke-miterlimit="10" stroke-linecap="round" stroke-linejoin="round"/>
<path d="M117.449 10.5331H133.064" stroke="white" stroke-miterlimit="10" stroke-linecap="round" stroke-linejoin="round"/>
<path d="M117.449 14.7753H133.064" stroke="white" stroke-miterlimit="10" stroke-linecap="round" stroke-linejoin="round"/>
<path opacity="0.05" d="M350.465 100.835H259.239V137.776H350.465V100.835Z" fill="black"/>
<path d="M350.465 131.392V137.776H259.239V117.252L273.832 113.151H294.356L302.572 123.636H317.164L328.569 131.392H350.465Z" fill="#83E374"/>
<path d="M323.097 107.673H344.991" stroke="#263238" stroke-miterlimit="10" stroke-linecap="round" stroke-linejoin="round"/>
<path d="M328.762 122.071V123.942H327.754V122.071H324.757V121.13L327.636 114.657H328.763V121.13H329.506V122.071H328.762ZM325.712 121.13H327.754V116.594L325.712 121.13Z" fill="#263238"/>
<path d="M331.335 118.437C331.627 117.933 332.091 117.668 332.714 117.668C333.907 117.668 334.439 118.543 334.439 119.87V121.686C334.439 123.106 333.762 124.034 332.343 124.034C330.923 124.034 330.261 123.106 330.261 121.686V121.063H331.228V121.753C331.228 122.589 331.574 123.093 332.316 123.093C333.058 123.093 333.404 122.589 333.404 121.753V119.949C333.404 119.114 333.058 118.61 332.316 118.61C331.745 118.61 331.361 118.928 331.269 119.604V119.816H330.301L330.553 114.657H334.214V115.586H331.482L331.335 118.437Z" fill="#263238"/>
<path d="M338.032 116.103V119.035C338.032 119.937 337.608 120.533 336.706 120.533C335.804 120.533 335.38 119.937 335.38 119.035V116.103C335.38 115.214 335.804 114.605 336.706 114.605C337.608 114.605 338.032 115.215 338.032 116.103ZM336.042 116.063V119.088C336.042 119.592 336.228 119.924 336.706 119.924C337.17 119.924 337.368 119.592 337.368 119.088V116.063C337.368 115.56 337.169 115.214 336.706 115.214C336.228 115.215 336.042 115.56 336.042 116.063ZM341.096 114.658L337.434 123.942H336.811L340.472 114.658H341.096ZM342.594 119.565V122.483C342.594 123.385 342.183 123.982 341.268 123.982C340.366 123.982 339.943 123.385 339.943 122.483V119.565C339.943 118.676 340.367 118.08 341.268 118.08C342.183 118.08 342.594 118.676 342.594 119.565ZM340.605 119.525V122.536C340.605 123.04 340.804 123.385 341.267 123.385C341.731 123.385 341.931 123.041 341.931 122.536V119.525C341.931 119.022 341.731 118.689 341.267 118.689C340.804 118.69 340.605 119.022 340.605 119.525Z" fill="#263238"/>
<path d="M159.32 34.9227V28.8343H158.072V28.1467H161.315V28.8343H160.066V34.9227H159.32Z" fill="#263238"/>
<path d="M163.339 28.1467C164.404 28.1467 164.849 28.6893 164.849 29.6958V30.2474C164.849 30.993 164.588 31.4577 164.007 31.6416C164.626 31.8255 164.859 32.3291 164.859 33.0548V34.1101C164.859 34.4099 164.868 34.6908 164.994 34.9227H164.23C164.143 34.7297 164.104 34.5549 164.104 34.1001V33.0357C164.104 32.2711 163.746 32.0292 163.116 32.0292H162.584V34.9235H161.829V28.1476H163.339V28.1467ZM163.145 31.3409C163.746 31.3409 164.104 31.147 164.104 30.4115V29.7629C164.104 29.1532 163.881 28.8334 163.319 28.8334H162.584V31.3409H163.145Z" fill="#263238"/>
<path d="M168.056 31.147V31.8246H166.4V34.2352H168.433V34.9227H165.646V28.1467H168.433V28.8343H166.4V31.1479L168.056 31.147Z" fill="#263238"/>
<path d="M169.8 34.9227H169.122V28.1467H170.08L171.649 33.0448V28.1467H172.316V34.9227H171.532L169.799 29.4439V34.9227H169.8Z" fill="#263238"/>
<path d="M174.68 28.1465C175.735 28.1465 176.219 28.7851 176.219 29.8305V33.2475C176.219 34.2829 175.736 34.9216 174.68 34.9216H173.092V28.1456L174.68 28.1465ZM174.67 34.2349C175.213 34.2349 175.474 33.8961 175.474 33.2765V29.7924C175.474 29.1728 175.213 28.834 174.661 28.834H173.848V34.2357L174.67 34.2349Z" fill="#263238"/>
<g opacity="0.3">
<path d="M157.891 85.1311V81.8632" stroke="black" stroke-width="0.5" stroke-miterlimit="10" stroke-linecap="round" stroke-linejoin="round"/>
<path opacity="0.3" d="M157.18 74.1025H358.711" stroke="black" stroke-width="0.5" stroke-miterlimit="10" stroke-linecap="round" stroke-linejoin="round"/>
<path opacity="0.3" d="M157.18 81.6592H358.711" stroke="black" stroke-width="0.5" stroke-miterlimit="10" stroke-linecap="round" stroke-linejoin="round"/>
<path opacity="0.3" d="M157.18 66.955H358.711" stroke="black" stroke-width="0.5" stroke-miterlimit="10" stroke-linecap="round" stroke-linejoin="round"/>
<path opacity="0.3" d="M157.18 59.8076H358.711" stroke="black" stroke-width="0.5" stroke-miterlimit="10" stroke-linecap="round" stroke-linejoin="round"/>
<path opacity="0.3" d="M157.18 52.6601H358.711" stroke="black" stroke-width="0.5" stroke-miterlimit="10" stroke-linecap="round" stroke-linejoin="round"/>
<path opacity="0.3" d="M157.18 45.5117H358.711" stroke="black" stroke-width="0.5" stroke-miterlimit="10" stroke-linecap="round" stroke-linejoin="round"/>
<path opacity="0.3" d="M157.18 38.3642H358.711" stroke="black" stroke-width="0.5" stroke-miterlimit="10" stroke-linecap="round" stroke-linejoin="round"/>
<path opacity="0.3" d="M174.493 85.1303V81.8624" stroke="black" stroke-width="0.5" stroke-miterlimit="10" stroke-linecap="round" stroke-linejoin="round"/>
<path d="M191.094 85.1311V81.8632" stroke="black" stroke-width="0.5" stroke-miterlimit="10" stroke-linecap="round" stroke-linejoin="round"/>
<path d="M207.696 85.1311V81.8632" stroke="black" stroke-width="0.5" stroke-miterlimit="10" stroke-linecap="round" stroke-linejoin="round"/>
<path d="M224.298 85.1311V81.8632" stroke="black" stroke-width="0.5" stroke-miterlimit="10" stroke-linecap="round" stroke-linejoin="round"/>
<path d="M240.899 85.1311V81.8632" stroke="black" stroke-width="0.5" stroke-miterlimit="10" stroke-linecap="round" stroke-linejoin="round"/>
<path d="M257.501 85.1311V81.8632" stroke="black" stroke-width="0.5" stroke-miterlimit="10" stroke-linecap="round" stroke-linejoin="round"/>
<path d="M274.103 85.1311V81.8632" stroke="black" stroke-width="0.5" stroke-miterlimit="10" stroke-linecap="round" stroke-linejoin="round"/>
<path d="M290.704 85.1311V81.8632" stroke="black" stroke-width="0.5" stroke-miterlimit="10" stroke-linecap="round" stroke-linejoin="round"/>
<path d="M307.305 85.1311V81.8632" stroke="black" stroke-width="0.5" stroke-miterlimit="10" stroke-linecap="round" stroke-linejoin="round"/>
<path d="M323.907 85.1311V81.8632" stroke="black" stroke-width="0.5" stroke-miterlimit="10" stroke-linecap="round" stroke-linejoin="round"/>
<path d="M340.509 85.1311V81.8632" stroke="black" stroke-width="0.5" stroke-miterlimit="10" stroke-linecap="round" stroke-linejoin="round"/>
<path d="M357.11 85.1311V81.8632" stroke="black" stroke-width="0.5" stroke-miterlimit="10" stroke-linecap="round" stroke-linejoin="round"/>
</g>
<path d="M356.088 80.4746V39.7409L356.179 36.0878L345.548 38.5696L332.208 43.471L316.022 45.5129L299.123 51.231L283.115 48.9845L264.971 43.0626L247.54 52.2259L233.843 46.3296L215.522 48.9845L200.225 41.6329L182.616 70.019L166.073 47.351L157.851 56.6899V80.4746H356.088Z" fill="#18680B"/>
<path opacity="0.5" d="M356.088 80.4746V39.7409L356.179 36.0878L345.548 38.5696L332.208 43.471L316.022 45.5129L299.123 51.231L283.115 48.9845L264.971 43.0626L247.54 52.2259L233.843 46.3296L215.522 48.9845L200.225 41.6329L182.616 70.019L166.073 47.351L157.851 56.6899V80.4746H356.088Z" fill="white"/>
<path opacity="0.15" d="M356.23 80.4738V66.7752L356.273 65.0994L345.548 60.121L332.208 56.6494L316.022 58.6921L299.124 62.1637L283.115 59.5088L264.972 57.4661L247.54 57.8745L233.843 62.3675L215.522 66.0438L200.225 62.3675L182.616 64.2056L166.074 66.2475L158.069 67.4727H157.691V80.4738H356.23Z" fill="black"/>
<path d="M166.074 67.4725C166.663 67.4725 167.141 66.924 167.141 66.2474C167.141 65.5707 166.663 65.0222 166.074 65.0222C165.484 65.0222 165.007 65.5707 165.007 66.2474C165.007 66.924 165.484 67.4725 166.074 67.4725Z" fill="#263238"/>
<path d="M183.683 64.2062C183.683 63.5294 183.206 62.981 182.616 62.981C182.027 62.981 181.549 63.5294 181.549 64.2062C181.549 64.8829 182.027 65.4313 182.616 65.4313C183.205 65.4313 183.683 64.8829 183.683 64.2062Z" fill="#263238"/>
<path d="M200.225 63.5946C200.814 63.5946 201.292 63.0461 201.292 62.3694C201.292 61.6928 200.814 61.1443 200.225 61.1443C199.636 61.1443 199.158 61.6928 199.158 62.3694C199.158 63.0461 199.636 63.5946 200.225 63.5946Z" fill="#263238"/>
<path d="M215.522 67.2696C216.112 67.2696 216.589 66.721 216.589 66.0444C216.589 65.3678 216.112 64.8193 215.522 64.8193C214.933 64.8193 214.455 65.3678 214.455 66.0444C214.455 66.721 214.933 67.2696 215.522 67.2696Z" fill="#263238"/>
<path d="M233.843 63.5946C234.433 63.5946 234.91 63.0461 234.91 62.3694C234.91 61.6928 234.433 61.1443 233.843 61.1443C233.254 61.1443 232.776 61.6928 232.776 62.3694C232.776 63.0461 233.254 63.5946 233.843 63.5946Z" fill="#263238"/>
<path d="M247.54 59.1004C248.129 59.1004 248.607 58.5519 248.607 57.8753C248.607 57.1987 248.129 56.6501 247.54 56.6501C246.951 56.6501 246.473 57.1987 246.473 57.8753C246.473 58.5519 246.951 59.1004 247.54 59.1004Z" fill="#263238"/>
<path d="M264.971 58.6914C265.561 58.6914 266.038 58.1429 266.038 57.4662C266.038 56.7896 265.561 56.2411 264.971 56.2411C264.382 56.2411 263.904 56.7896 263.904 57.4662C263.904 58.1429 264.382 58.6914 264.971 58.6914Z" fill="#263238"/>
<path d="M284.182 59.5101C284.182 58.8333 283.704 58.2849 283.115 58.2849C282.525 58.2849 282.048 58.8333 282.048 59.5101C282.048 60.1868 282.525 60.7352 283.115 60.7352C283.704 60.7352 284.182 60.1868 284.182 59.5101Z" fill="#263238"/>
<path d="M299.123 63.3895C299.713 63.3895 300.191 62.841 300.191 62.1643C300.191 61.4877 299.713 60.9392 299.123 60.9392C298.534 60.9392 298.056 61.4877 298.056 62.1643C298.056 62.841 298.534 63.3895 299.123 63.3895Z" fill="#263238"/>
<path d="M316.022 59.9188C316.611 59.9188 317.089 59.3703 317.089 58.6937C317.089 58.017 316.611 57.4685 316.022 57.4685C315.432 57.4685 314.955 58.017 314.955 58.6937C314.955 59.3703 315.432 59.9188 316.022 59.9188Z" fill="#263238"/>
<path d="M332.208 57.875C332.797 57.875 333.275 57.3265 333.275 56.6499C333.275 55.9733 332.797 55.4247 332.208 55.4247C331.619 55.4247 331.141 55.9733 331.141 56.6499C331.141 57.3265 331.619 57.875 332.208 57.875Z" fill="#263238"/>
<path d="M346.616 60.1214C346.616 59.4446 346.139 58.8962 345.549 58.8962C344.96 58.8962 344.482 59.4446 344.482 60.1214C344.482 60.7982 344.96 61.3465 345.549 61.3465C346.138 61.3474 346.616 60.7982 346.616 60.1214Z" fill="#263238"/>
<g opacity="0.3">
<path d="M166.074 48.5765C166.663 48.5765 167.141 48.028 167.141 47.3514C167.141 46.6747 166.663 46.1262 166.074 46.1262C165.484 46.1262 165.007 46.6747 165.007 47.3514C165.007 48.028 165.484 48.5765 166.074 48.5765Z" fill="black"/>
<path d="M182.616 71.2453C183.206 71.2453 183.683 70.6968 183.683 70.0202C183.683 69.3436 183.206 68.795 182.616 68.795C182.027 68.795 181.549 69.3436 181.549 70.0202C181.549 70.6968 182.027 71.2453 182.616 71.2453Z" fill="black"/>
<path d="M201.293 41.6325C201.293 40.9557 200.815 40.4073 200.226 40.4073C199.636 40.4073 199.158 40.9557 199.158 41.6325C199.158 42.3093 199.636 42.8576 200.226 42.8576C200.814 42.8576 201.293 42.3093 201.293 41.6325Z" fill="black"/>
<path d="M215.522 50.2093C216.112 50.2093 216.589 49.6608 216.589 48.9842C216.589 48.3076 216.112 47.759 215.522 47.759C214.933 47.759 214.455 48.3076 214.455 48.9842C214.455 49.6608 214.933 50.2093 215.522 50.2093Z" fill="black"/>
<path d="M234.911 46.3306C234.911 45.6538 234.433 45.1055 233.844 45.1055C233.254 45.1055 232.777 45.6538 232.777 46.3306C232.777 47.0074 233.254 47.5558 233.844 47.5558C234.433 47.5566 234.911 47.0074 234.911 46.3306Z" fill="black"/>
<path d="M247.54 52.966C248.129 52.966 248.607 52.4175 248.607 51.7409C248.607 51.0643 248.129 50.5157 247.54 50.5157C246.951 50.5157 246.473 51.0643 246.473 51.7409C246.473 52.4175 246.951 52.966 247.54 52.966Z" fill="black"/>
<path d="M264.972 44.2883C265.561 44.2883 266.039 43.7398 266.039 43.0632C266.039 42.3865 265.561 41.838 264.972 41.838C264.382 41.838 263.905 42.3865 263.905 43.0632C263.905 43.7398 264.382 44.2883 264.972 44.2883Z" fill="black"/>
<path d="M283.115 50.2093C283.704 50.2093 284.182 49.6608 284.182 48.9842C284.182 48.3076 283.704 47.759 283.115 47.759C282.526 47.759 282.048 48.3076 282.048 48.9842C282.048 49.6608 282.526 50.2093 283.115 50.2093Z" fill="black"/>
<path d="M299.123 52.4563C299.713 52.4563 300.191 51.9078 300.191 51.2311C300.191 50.5545 299.713 50.006 299.123 50.006C298.534 50.006 298.056 50.5545 298.056 51.2311C298.056 51.9078 298.534 52.4563 299.123 52.4563Z" fill="black"/>
<path d="M316.022 46.7382C316.611 46.7382 317.089 46.1897 317.089 45.5131C317.089 44.8365 316.611 44.288 316.022 44.288C315.432 44.288 314.955 44.8365 314.955 45.5131C314.955 46.1897 315.432 46.7382 316.022 46.7382Z" fill="black"/>
<path d="M332.208 44.6965C332.797 44.6965 333.275 44.148 333.275 43.4714C333.275 42.7947 332.797 42.2462 332.208 42.2462C331.619 42.2462 331.141 42.7947 331.141 43.4714C331.141 44.148 331.619 44.6965 332.208 44.6965Z" fill="black"/>
<path d="M345.548 39.7951C346.138 39.7951 346.615 39.2466 346.615 38.57C346.615 37.8934 346.138 37.3448 345.548 37.3448C344.959 37.3448 344.481 37.8934 344.481 38.57C344.481 39.2466 344.959 39.7951 345.548 39.7951Z" fill="black"/>
</g>
<path d="M343.179 33.124V34.9944H342.301V33.124H339.69V32.183L342.198 25.7102H343.18V32.183H343.827V33.124H343.179ZM340.522 32.183H342.301V27.6461L340.522 32.183Z" fill="#263238"/>
<path d="M345.42 29.49C345.674 28.9855 346.078 28.7205 346.621 28.7205C347.661 28.7205 348.123 29.596 348.123 30.9222V32.7388C348.123 34.1586 347.534 35.0864 346.298 35.0864C345.061 35.0864 344.484 34.1578 344.484 32.7388V32.1159H345.327V32.8059C345.327 33.6417 345.627 34.1454 346.274 34.1454C346.92 34.1454 347.221 33.6417 347.221 32.8059V31.0018C347.221 30.1659 346.92 29.6623 346.274 29.6623C345.777 29.6623 345.442 29.9804 345.362 30.6572V30.8692H344.519L344.739 25.7102H347.927V26.6388H345.547L345.42 29.49Z" fill="#263238"/>
<path d="M351.252 27.1561V30.0877C351.252 30.9897 350.883 31.5862 350.098 31.5862C349.312 31.5862 348.943 30.9897 348.943 30.0877V27.1561C348.943 26.2673 349.312 25.6576 350.098 25.6576C350.883 25.6576 351.252 26.2673 351.252 27.1561ZM349.519 27.1163V30.1407C349.519 30.6443 349.682 30.9765 350.097 30.9765C350.501 30.9765 350.674 30.6451 350.674 30.1407V27.1163C350.674 26.6127 350.501 26.2673 350.097 26.2673C349.682 26.2673 349.519 26.6127 349.519 27.1163ZM353.921 25.7106L350.732 34.9948H350.189L353.378 25.7106H353.921ZM355.226 30.6178V33.5361C355.226 34.4382 354.869 35.0346 354.071 35.0346C353.286 35.0346 352.917 34.4374 352.917 33.5361V30.6178C352.917 29.729 353.286 29.1326 354.071 29.1326C354.869 29.1326 355.226 29.729 355.226 30.6178ZM353.493 30.578V33.5891C353.493 34.0928 353.667 34.4382 354.071 34.4382C354.475 34.4382 354.648 34.0936 354.648 33.5891V30.578C354.648 30.0744 354.475 29.7422 354.071 29.7422C353.667 29.7422 353.493 30.0744 353.493 30.578Z" fill="#263238"/>
<path d="M343.537 68.3501C343.537 71.1491 340.799 72.1572 340.788 74.2919V74.4377H343.444V75.3795H339.898V74.5835C339.898 71.5856 342.636 71.0016 342.636 68.389C342.636 67.4339 342.36 66.9303 341.689 66.9303C341.03 66.9303 340.742 67.4745 340.742 68.2962V69.118H339.899V68.3617C339.899 66.9427 340.465 66.0009 341.713 66.0009C342.971 66.0025 343.537 66.9311 343.537 68.3501Z" fill="#263238"/>
<path d="M344.299 68.3361C344.299 66.9163 344.911 66.0018 346.147 66.0018C347.395 66.0018 348.007 66.9171 348.007 68.3361V73.124C348.007 74.5438 347.395 75.4716 346.147 75.4716C344.91 75.4716 344.299 74.543 344.299 73.124V68.3361ZM345.188 73.1903C345.188 74.0252 345.5 74.5297 346.147 74.5297C346.805 74.5297 347.105 74.0252 347.105 73.1903V68.2831C347.105 67.434 346.805 66.9304 346.147 66.9304C345.5 66.9304 345.188 67.4348 345.188 68.2831V73.1903Z" fill="#263238"/>
<path d="M351.125 67.5414V70.4729C351.125 71.375 350.756 71.9714 349.971 71.9714C349.184 71.9714 348.816 71.375 348.816 70.4729V67.5414C348.816 66.6525 349.185 66.0428 349.971 66.0428C350.756 66.0428 351.125 66.6525 351.125 67.5414ZM349.392 67.5016V70.5259C349.392 71.0296 349.554 71.3609 349.97 71.3609C350.374 71.3609 350.547 71.0296 350.547 70.5259V67.5016C350.547 66.9979 350.374 66.6525 349.97 66.6525C349.554 66.6525 349.392 66.9979 349.392 67.5016ZM353.794 66.0959L350.605 75.3801H350.062L353.251 66.0959H353.794ZM355.099 71.0031V73.9214C355.099 74.8235 354.741 75.4199 353.945 75.4199C353.159 75.4199 352.79 74.8226 352.79 73.9214V71.0031C352.79 70.1142 353.159 69.5178 353.945 69.5178C354.741 69.5178 355.099 70.1142 355.099 71.0031ZM353.366 70.9633V73.9744C353.366 74.478 353.54 74.8234 353.944 74.8234C354.348 74.8234 354.521 74.4789 354.521 73.9744V70.9633C354.521 70.4597 354.347 70.1283 353.944 70.1283C353.54 70.1283 353.366 70.4597 353.366 70.9633Z" fill="#263238"/>
<path d="M222.651 106.161H216.648V112.163H222.651V106.161Z" fill="#263238"/>
<path d="M226.402 109.163H250.786" stroke="#263238" stroke-miterlimit="10" stroke-linejoin="round"/>
<path d="M222.65 117.04H216.648V123.042H222.65V117.04Z" fill="#31D017"/>
<path d="M226.402 120.041H250.786" stroke="#263238" stroke-miterlimit="10" stroke-linejoin="round"/>
<path d="M222.651 127.92H216.648V133.922H222.651V127.92Z" fill="#7D7D7D"/>
<path d="M226.402 130.921H250.786" stroke="#263238" stroke-miterlimit="10" stroke-linejoin="round"/>
<path d="M191.467 137.877C199.142 134.631 204.527 127.031 204.527 118.174C204.527 113.075 202.743 108.393 199.764 104.719" stroke="#31D017" stroke-width="7" stroke-miterlimit="10" stroke-linejoin="round"/>
<path d="M165.238 129.868C169.056 135.703 175.65 139.558 183.144 139.558C186.096 139.558 188.909 138.96 191.467 137.878" stroke="#7D7D7D" stroke-width="7" stroke-miterlimit="10" stroke-linejoin="round"/>
<path d="M199.764 104.719C195.843 99.8824 189.854 96.791 183.144 96.791C171.334 96.791 161.76 106.364 161.76 118.174C161.76 122.49 163.039 126.507 165.238 129.867" stroke="#263238" stroke-width="7" stroke-miterlimit="10" stroke-linejoin="round"/>
<path d="M174.109 115.84H192.826" stroke="#263238" stroke-miterlimit="10" stroke-linejoin="round"/>
<path d="M174.109 121.371H192.826" stroke="#263238" stroke-miterlimit="10" stroke-linejoin="round"/>
<path d="M297.635 4.68973C298.711 4.84132 299.205 5.67713 299.205 6.86748V7.10853H298.28V6.80453C298.28 6.01924 297.964 5.53879 297.255 5.53879C296.559 5.53879 296.242 6.02007 296.242 6.80453C296.242 8.79176 299.217 8.80418 299.217 11.2984C299.217 12.4887 298.71 13.337 297.634 13.4885V14.1595H296.824V13.4885C295.723 13.3361 295.229 12.5011 295.229 11.2984V10.7541H296.153V11.3622C296.153 12.1599 296.482 12.6155 297.191 12.6155C297.913 12.6155 298.229 12.1599 298.229 11.3622C298.229 9.38735 295.266 9.36167 295.266 6.86748C295.266 5.65228 295.76 4.85457 296.823 4.68973V3.98065H297.633V4.68973H297.635Z" fill="white"/>
<path d="M304.119 6.79195V7.01974C304.119 7.93094 303.752 8.57706 303.043 8.84296C303.79 9.12129 304.119 9.79226 304.119 10.6786V11.362C304.119 12.7164 303.487 13.6027 302.119 13.6027C300.764 13.6027 300.131 12.7164 300.131 11.362V10.754H301.055V11.425C301.055 12.2227 301.384 12.7039 302.093 12.7039C302.815 12.7039 303.131 12.2351 303.131 11.3371V10.6538C303.131 9.77983 302.764 9.36234 302.018 9.33666H301.486V8.45032H302.068C302.726 8.42464 303.132 8.00715 303.132 7.23512V6.83005C303.132 5.91885 302.815 5.45 302.094 5.45C301.385 5.45 301.056 5.94371 301.056 6.74141V7.19701H300.132V6.79195C300.132 5.43675 300.765 4.56366 302.12 4.56366C303.487 4.56449 304.119 5.43758 304.119 6.79195Z" fill="white"/>
<path d="M309.071 6.80437C309.071 9.47582 306.071 10.4375 306.057 12.4761V12.6153H308.97V13.5141H305.083V12.7545C305.083 9.89331 308.083 9.33583 308.083 6.84164C308.083 5.93045 307.78 5.44917 307.045 5.44917C306.323 5.44917 306.007 5.96855 306.007 6.75301V7.53829H305.083V6.81679C305.083 5.46243 305.704 4.56366 307.071 4.56366C308.451 4.56366 309.071 5.44917 309.071 6.80437Z" fill="white"/>
<path d="M310.417 13.514H310.05V12.2855H310.999V13.4245L310.505 14.6273H310.1L310.417 13.514Z" fill="white"/>
<path d="M312.999 8.25969C313.279 7.77842 313.721 7.52577 314.316 7.52577C315.456 7.52577 315.962 8.36158 315.962 9.62732V11.3619C315.962 12.7163 315.317 13.6026 313.962 13.6026C312.607 13.6026 311.974 12.7163 311.974 11.3619V10.7671H312.898V11.4249C312.898 12.2226 313.227 12.7038 313.936 12.7038C314.645 12.7038 314.974 12.2226 314.974 11.4249V9.7027C314.974 8.90581 314.645 8.42454 313.936 8.42454C313.391 8.42454 313.025 8.72855 312.936 9.37384V9.57596H312.012L312.253 4.65137H315.747V5.53688H313.139L312.999 8.25969Z" fill="white"/>
<path d="M320.888 6.77869V6.94353H319.965V6.71573C319.965 5.91802 319.635 5.44917 318.914 5.44917C318.167 5.44917 317.838 5.93045 317.838 6.88057V8.86781C318.078 8.25979 318.56 7.91851 319.268 7.91851C320.408 7.91851 320.914 8.74107 320.914 10.0201V11.362C320.914 12.7164 320.243 13.6027 318.889 13.6027C317.521 13.6027 316.85 12.7164 316.85 11.362V6.84247C316.85 5.43758 317.483 4.56366 318.889 4.56366C320.255 4.56366 320.888 5.42432 320.888 6.77869ZM317.838 10.0954V11.4249C317.838 12.2227 318.167 12.7039 318.888 12.7039C319.597 12.7039 319.938 12.2227 319.938 11.4249V10.0954C319.938 9.29772 319.597 8.81728 318.888 8.81728C318.167 8.81728 317.838 9.29772 317.838 10.0954Z" fill="white"/>
<path d="M325.816 6.79082V11.3103C325.816 12.7152 325.183 13.6016 323.765 13.6016C322.41 13.6016 321.764 12.7277 321.764 11.3733V11.2085H322.689V11.4363C322.689 12.234 323.03 12.7028 323.739 12.7028C324.499 12.7028 324.827 12.2215 324.827 11.2847V9.2966C324.587 9.90462 324.106 10.2335 323.397 10.2335C322.258 10.2335 321.751 9.42334 321.751 8.14436V6.78999C321.751 5.4348 322.409 4.56171 323.776 4.56171C325.145 4.56336 325.816 5.43645 325.816 6.79082ZM322.727 6.74029V8.0698C322.727 8.86751 323.069 9.34879 323.777 9.34879C324.499 9.34879 324.827 8.86751 324.827 8.0698V6.74029C324.827 5.93016 324.499 5.46213 323.777 5.46213C323.069 5.46213 322.727 5.93016 322.727 6.74029Z" fill="white"/>
<path d="M327.198 13.514H326.831V12.2855H327.781V13.4245L327.287 14.6273H326.882L327.198 13.514Z" fill="white"/>
<path d="M332.857 6.75384V7.03217C332.857 7.93094 332.54 8.58948 331.844 8.85538C332.578 9.14697 332.857 9.84279 332.857 10.7291V11.3877C332.857 12.7553 332.148 13.6035 330.768 13.6035C329.388 13.6035 328.679 12.7553 328.679 11.3877V10.7291C328.679 9.83036 328.958 9.15939 329.705 8.85538C328.983 8.57705 328.679 7.93094 328.679 7.03217V6.75384C328.679 5.38705 329.402 4.56366 330.768 4.56366C332.136 4.56449 332.857 5.38705 332.857 6.75384ZM329.654 6.77952V7.21026C329.654 8.07093 330.072 8.45114 330.768 8.45114C331.465 8.45114 331.882 8.07093 331.882 7.21026V6.77952C331.882 5.86833 331.465 5.45 330.768 5.45C330.073 5.45 329.654 5.86833 329.654 6.77952ZM329.654 10.6156V11.3628C329.654 12.274 330.059 12.7048 330.768 12.7048C331.477 12.7048 331.87 12.274 331.882 11.3628V10.6156C331.882 9.75498 331.502 9.33749 330.768 9.33749C330.034 9.33666 329.654 9.75498 329.654 10.6156Z" fill="white"/>
<path d="M337.733 6.79082V11.3103C337.733 12.7152 337.1 13.6016 335.682 13.6016C334.327 13.6016 333.682 12.7277 333.682 11.3733V11.2085H334.606V11.4363C334.606 12.234 334.947 12.7028 335.657 12.7028C336.416 12.7028 336.745 12.2215 336.745 11.2847V9.2966C336.505 9.90462 336.023 10.2335 335.314 10.2335C334.175 10.2335 333.668 9.42334 333.668 8.14436V6.78999C333.668 5.4348 334.326 4.56171 335.694 4.56171C337.063 4.56336 337.733 5.43645 337.733 6.79082ZM334.644 6.74029V8.0698C334.644 8.86751 334.986 9.34879 335.695 9.34879C336.417 9.34879 336.745 8.86751 336.745 8.0698V6.74029C336.745 5.93016 336.416 5.46213 335.695 5.46213C334.986 5.46213 334.644 5.93016 334.644 6.74029Z" fill="white"/>
<path d="M342.622 6.79195V7.01974C342.622 7.93094 342.255 8.57706 341.546 8.84296C342.293 9.12129 342.622 9.79226 342.622 10.6786V11.362C342.622 12.7164 341.989 13.6027 340.622 13.6027C339.267 13.6027 338.634 12.7164 338.634 11.362V10.754H339.558V11.425C339.558 12.2227 339.887 12.7039 340.596 12.7039C341.319 12.7039 341.634 12.2351 341.634 11.3371V10.6538C341.634 9.77983 341.267 9.36234 340.521 9.33666H339.989V8.45032H340.571C341.229 8.42464 341.635 8.00715 341.635 7.23512V6.83005C341.635 5.91885 341.319 5.45 340.597 5.45C339.888 5.45 339.559 5.94371 339.559 6.74141V7.19701H338.635V6.79195C338.635 5.43675 339.267 4.56366 340.623 4.56366C341.989 4.56449 342.622 5.43758 342.622 6.79195Z" fill="white"/>
<path d="M344.536 12.2855V13.514H343.587V12.2855H344.536Z" fill="white"/>
<path d="M345.474 6.79195C345.474 5.43675 346.145 4.56366 347.499 4.56366C348.867 4.56366 349.538 5.43675 349.538 6.79195V11.362C349.538 12.7164 348.867 13.6027 347.499 13.6027C346.144 13.6027 345.474 12.7164 345.474 11.362V6.79195ZM346.449 11.4258C346.449 12.2235 346.791 12.7048 347.499 12.7048C348.222 12.7048 348.55 12.2235 348.55 11.4258V6.74141C348.55 5.93128 348.221 5.45 347.499 5.45C346.791 5.45 346.449 5.93128 346.449 6.74141V11.4258Z" fill="white"/>
<path d="M354.414 6.79195V7.01974C354.414 7.93094 354.047 8.57706 353.338 8.84296C354.084 9.12129 354.414 9.79226 354.414 10.6786V11.362C354.414 12.7164 353.781 13.6027 352.413 13.6027C351.058 13.6027 350.425 12.7164 350.425 11.362V10.754H351.35V11.425C351.35 12.2227 351.679 12.7039 352.388 12.7039C353.109 12.7039 353.426 12.2351 353.426 11.3371V10.6538C353.426 9.77983 353.059 9.36234 352.312 9.33666H351.78V8.45032H352.363C353.021 8.42464 353.426 8.00715 353.426 7.23512V6.83005C353.426 5.91885 353.109 5.45 352.388 5.45C351.679 5.45 351.351 5.94371 351.351 6.74141V7.19701H350.426V6.79195C350.426 5.43675 351.059 4.56366 352.414 4.56366C353.781 4.56449 354.414 5.43758 354.414 6.79195Z" fill="white"/>
<path d="M167.278 183.421C164.717 185.656 160.811 185.312 158.68 182.665L114.056 127.247L118.845 123.069L167.696 174.799C170.029 177.271 169.84 181.187 167.278 183.421Z" fill="#263238" stroke="#263238" stroke-miterlimit="10" stroke-linecap="round"/>
<path d="M124.458 127.73L118.232 133.161C117.395 133.892 116.124 133.805 115.393 132.967C114.662 132.13 114.749 130.859 115.586 130.128L121.812 124.697C122.649 123.966 123.92 124.053 124.651 124.891C125.382 125.728 125.295 126.999 124.458 127.73Z" fill="#5B7EFB" stroke="#263238" stroke-miterlimit="10" stroke-linecap="round"/>
<path d="M79.3273 83.8926C67.5142 94.1983 66.2919 112.129 76.5976 123.943C86.9032 135.756 104.834 136.978 116.648 126.673C128.461 116.367 129.683 98.436 119.378 86.6224C109.072 74.8088 91.141 73.5865 79.3273 83.8926ZM114.195 123.861C103.935 132.813 88.3599 131.751 79.4083 121.49C70.4566 111.23 71.5185 95.6549 81.7793 86.7033C92.04 77.7517 107.615 78.8136 116.566 89.0743C125.518 99.3351 124.456 114.91 114.195 123.861Z" fill="#31D017" stroke="#263238" stroke-miterlimit="10" stroke-linecap="round"/>
<path d="M127.132 139.562L125.647 143.484" stroke="#263238" stroke-miterlimit="10" stroke-linecap="round"/>
<path d="M16.1018 135.983V289.483C16.1018 301.634 25.9515 311.483 38.1018 311.483H230.102" stroke="#FF7D04" stroke-width="3" stroke-linecap="round" stroke-dasharray="7 9"/>
<path d="M117.164 166.805C117.164 166.805 118.916 166.67 118.376 168.153C117.837 169.636 116.894 170.579 116.22 170.714C115.546 170.849 115.142 170.849 115.142 170.849L117.164 166.805Z" stroke="#263238" stroke-miterlimit="10"/>
<path d="M102.608 166.131C102.608 166.131 100.991 166.4 101.26 167.613C101.53 168.826 102.473 170.847 103.012 170.982C103.552 171.117 104.36 170.309 104.36 170.309L102.608 166.131Z" fill="white" stroke="#263238" stroke-miterlimit="10"/>
<path d="M79.7987 202.93C79.7987 202.93 81.6908 198.201 82.6369 197.254C83.5829 196.308 85.0695 192.93 85.0695 192.93L86.4211 197.254L80.2048 204.147C80.2048 204.147 79.6631 204.282 79.7987 202.93Z" fill="white" stroke="#263238" stroke-miterlimit="10"/>
<path d="M81.3804 184.038L84.7411 197.71C84.9377 198.51 85.7693 198.979 86.5555 198.732L94.7342 196.168C95.4538 195.942 95.8743 195.196 95.6939 194.463L92.4104 181.129C92.2188 180.351 91.4251 179.883 90.6514 180.092L82.3949 182.317C81.646 182.52 81.1945 183.285 81.3804 184.038Z" fill="#263238" stroke="#263238" stroke-miterlimit="10"/>
<path d="M104.765 171.388L104.63 178.261L114.198 179.204L113.929 172.466L104.765 171.388Z" fill="white" stroke="#263238" stroke-miterlimit="10"/>
<path d="M105.842 153.463C105.842 153.463 102.069 156.158 101.26 158.988C100.452 161.819 101.799 165.592 102.338 166.671C102.877 167.749 104.63 172.466 105.303 173.275C105.977 174.083 109.077 175.431 110.155 175.161C111.233 174.892 114.602 174.487 115.006 173.14C115.411 171.792 117.567 166.67 117.836 165.862C118.106 165.053 118.915 159.258 118.106 158.045C117.297 156.832 114.736 154.271 114.736 154.271C114.736 154.271 113.524 152.384 110.963 151.845C108.403 151.306 105.842 153.463 105.842 153.463Z" fill="#263238" stroke="#263238" stroke-miterlimit="10"/>
<path d="M100.722 179.608C100.722 179.608 102.339 176.778 106.112 176.778C109.886 176.778 113.525 176.913 114.468 177.182C115.412 177.452 117.164 180.821 117.164 180.821C117.164 180.821 107.46 180.148 104.765 180.148C102.069 180.148 99.5081 180.552 99.5081 180.552L100.722 179.608Z" fill="white" stroke="#263238" stroke-miterlimit="10"/>
<path d="M120.937 172.331C120.937 172.331 119.051 170.174 118.646 169.366C118.242 168.557 118.511 167.479 118.915 167.209C119.319 166.94 119.993 166.805 119.993 166.805C119.993 166.805 120.397 163.031 120.262 162.492C120.127 161.953 120.667 161.819 121.34 161.953C122.014 162.088 122.284 165.187 122.284 165.187C122.284 165.187 123.228 165.457 124.036 166.265C124.845 167.074 124.98 168.826 124.98 169.365C124.98 169.904 124.98 171.522 124.98 171.522L125.249 173.408L121.475 174.352L120.937 172.331Z" fill="white" stroke="#263238" stroke-miterlimit="10"/>
<path d="M122.016 183.787C122.016 183.787 121.207 174.218 121.207 173.679C121.207 173.139 122.285 172.196 123.363 172.196C124.442 172.196 125.52 173.274 125.52 173.274C125.52 173.274 129.429 184.73 130.237 185.808C131.046 186.886 132.663 191.334 132.663 192.682C132.663 194.03 127.811 192.547 126.464 191.334C125.116 190.121 122.421 185.135 122.421 185.135L122.016 183.787Z" fill="white" stroke="#263238" stroke-miterlimit="10"/>
<path d="M94.5287 220.769L93.3127 234.148C93.3127 234.148 92.0967 265.366 92.0967 267.528C92.0967 269.69 92.5023 285.232 93.0428 289.286C93.5833 293.34 93.4483 300.638 93.4483 300.638C93.4483 300.638 91.8268 301.449 91.8268 302.26C91.8268 303.071 91.8268 303.746 91.8268 303.746C91.8268 303.746 89.7997 304.963 89.1242 305.638C88.4487 306.314 87.6376 307.8 88.5837 308.611C89.5297 309.423 96.2865 312.125 97.2326 312.125C98.1786 312.125 100.611 311.72 101.152 310.774C101.692 309.827 101.287 305.503 101.287 305.503C101.287 305.503 102.503 303.611 102.503 302.935C102.503 302.26 102.368 301.314 102.368 300.233C102.368 299.151 102.909 286.583 102.909 286.583C102.909 286.583 104.801 260.23 105.071 259.826C105.341 259.42 106.558 241.04 106.558 241.04L108.855 241.31L111.963 263.879C111.963 263.879 116.153 284.961 116.288 285.637C116.423 286.312 118.45 297.529 118.45 297.529C118.45 297.529 118.45 299.962 118.45 301.043C118.45 302.124 119.802 304.287 119.802 304.287C119.802 304.287 119.531 307.665 120.207 308.881C120.883 310.097 123.586 310.233 125.613 309.557C127.64 308.881 127.235 306.178 127.235 304.827C127.235 303.476 127.1 302.125 127.1 302.125C127.1 302.125 126.965 300.098 127.1 298.746C127.235 297.394 126.019 293.475 126.019 292.8C126.019 292.124 126.424 275.772 126.154 272.258C125.883 268.744 123.586 257.663 123.586 257.663C123.586 257.663 122.234 236.851 122.234 236.31C122.234 235.77 122.287 221.388 122.287 221.388C122.287 221.388 116.829 222.796 107.639 221.85C98.4498 220.904 94.3956 220.093 94.3956 220.093L94.5287 220.769Z" fill="#263238" stroke="#263238" stroke-miterlimit="10"/>
<path d="M99.508 180.552C99.508 180.552 89.8042 184.461 90.2085 185C90.6128 185.539 85.6263 194.973 85.222 195.512C84.8177 196.051 79.9654 202.251 79.4268 203.464C78.8881 204.677 77.8096 206.294 79.5618 208.181C81.3139 210.068 82.1225 210.742 84.5483 210.337C86.9741 209.933 93.1736 202.925 93.1736 202.925C93.1736 202.925 93.4429 211.685 93.5779 213.977C93.7129 216.268 93.7129 216.942 93.7129 218.155C93.7129 219.368 93.0393 220.042 94.6565 221.524C96.2737 223.007 103.147 224.893 107.999 224.624C112.851 224.355 116.759 224.355 118.646 223.816C120.534 223.276 122.016 223.007 122.285 221.39C122.554 219.773 122.689 215.325 122.689 213.977C122.689 212.63 123.498 198.613 123.498 198.613C123.498 198.613 127.811 199.018 129.832 198.613C131.854 198.209 133.202 194.435 132.663 192.683C132.123 190.931 129.967 189.583 128.889 188.505C127.811 187.427 127.137 185.944 125.654 184.327C124.172 182.71 123.498 182.71 122.285 182.441C121.072 182.171 117.164 180.824 117.164 180.824C117.164 180.824 107.46 179.609 99.508 180.552Z" fill="white" stroke="#263238" stroke-miterlimit="10"/>
<path d="M108.422 220.267C110.485 218.587 113.108 216.352 114.405 214.84" stroke="#263238" stroke-miterlimit="10"/>
<path d="M105.51 222.573C105.51 222.573 105.926 222.256 106.586 221.736" stroke="#263238" stroke-miterlimit="10"/>
<path d="M112.084 220.641L115.178 217.934" stroke="#263238" stroke-miterlimit="10"/>
<path d="M93.174 202.925L90.8826 189.447" stroke="#263238" stroke-miterlimit="10"/>
<path d="M88.7263 191.469L92.0957 196.186" stroke="#263238" stroke-miterlimit="10"/>
<path d="M100.856 182.17C100.856 182.17 105.842 187.426 108.268 194.435" stroke="#263238" stroke-miterlimit="10"/>
<path d="M105.978 186.483C105.978 186.483 108.943 191.739 109.751 193.626" stroke="#263238" stroke-miterlimit="10"/>
<path d="M124.576 184.057C124.576 184.057 125.52 188.37 125.654 188.909" stroke="#263238" stroke-miterlimit="10"/>
<path d="M125.925 192.682C125.655 194.03 123.499 198.612 123.499 198.612C123.499 198.612 126.868 194.703 127.137 194.299" stroke="#263238" stroke-miterlimit="10"/>
<defs>
<filter id="filter0_d_321_7994" x="0" y="11.8785" width="359.204" height="315.209" filterUnits="userSpaceOnUse" color-interpolation-filters="sRGB">
<feFlood flood-opacity="0" result="BackgroundImageFix"/>
<feColorMatrix in="SourceAlpha" type="matrix" values="0 0 0 0 0 0 0 0 0 0 0 0 0 0 0 0 0 0 127 0" result="hardAlpha"/>
<feOffset dy="3"/>
<feGaussianBlur stdDeviation="6"/>
<feComposite in2="hardAlpha" operator="out"/>
<feColorMatrix type="matrix" values="0 0 0 0 0.698039 0 0 0 0 0.698039 0 0 0 0 0.698039 0 0 0 0.5 0"/>
<feBlend mode="normal" in2="BackgroundImageFix" result="effect1_dropShadow_321_7994"/>
<feBlend mode="normal" in="SourceGraphic" in2="effect1_dropShadow_321_7994" result="shape"/>
</filter>
</defs>
</svg>
