<svg width="50" height="50" viewBox="0 0 50 50" fill="none" xmlns="http://www.w3.org/2000/svg">
<circle cx="25" cy="25" r="25" fill="#DBE6FC"/>
<path d="M25 24.5C24.337 24.5 23.7011 24.2366 23.2322 23.7678C22.7634 23.2989 22.5 22.663 22.5 22C22.5 21.337 22.7634 20.7011 23.2322 20.2322C23.7011 19.7634 24.337 19.5 25 19.5C25.663 19.5 26.2989 19.7634 26.7678 20.2322C27.2366 20.7011 27.5 21.337 27.5 22C27.5 22.3283 27.4353 22.6534 27.3097 22.9567C27.1841 23.26 26.9999 23.5356 26.7678 23.7678C26.5356 23.9999 26.26 24.1841 25.9567 24.3097C25.6534 24.4353 25.3283 24.5 25 24.5ZM25 15C23.1435 15 21.363 15.7375 20.0503 17.0503C18.7375 18.363 18 20.1435 18 22C18 27.25 25 35 25 35C25 35 32 27.25 32 22C32 20.1435 31.2625 18.363 29.9497 17.0503C28.637 15.7375 26.8565 15 25 15Z" fill="#192F7D"/>
</svg>
