<svg width="666" height="367" viewBox="0 0 666 367" fill="none" xmlns="http://www.w3.org/2000/svg">
<g clip-path="url(#clip0_293_5156)">
<path d="M2 18C2 5.84973 11.8497 -4 24 -4H274C286.15 -4 296 5.84974 296 18V263H2V18Z" fill="#DBE6FC"/>
<path d="M43.0716 306.507L40.9506 317.147C40.7907 317.961 40.6237 318.789 40.4421 319.61C38.6693 319.242 36.8312 319.345 35.1103 319.907C36.4756 321.858 37.6991 323.904 38.7714 326.03C37.4348 330.148 35.4735 333.954 32.1902 336.707C29.9974 338.504 27.3783 339.707 24.5855 340.198C21.7927 340.689 18.9205 340.452 16.2459 339.51L16.3403 339.089C12.8101 332.24 14.7277 323.604 19.1152 317.278C21.3529 314.157 24.0043 311.355 26.9965 308.947C29.9602 306.478 33.1636 304.263 36.338 302.077C37.0509 301.586 37.8938 301.32 38.7591 301.311C39.6243 301.302 40.4725 301.551 41.1953 302.027C41.9181 302.503 42.4827 303.183 42.8169 303.981C43.1511 304.779 43.2398 305.658 43.0716 306.507Z" fill="#9E9E9E"/>
<path d="M17.0012 365.112C16.1084 358.61 15.1903 352.024 15.8164 345.452C16.3728 339.615 18.1532 333.914 21.7794 329.24C23.704 326.763 26.0459 324.641 28.6997 322.97C29.392 322.534 30.0283 323.63 29.3397 324.064C24.748 326.966 21.1964 331.25 19.1971 336.3C16.9888 341.916 16.6343 348.038 17.0179 354.003C17.2481 357.611 17.7355 361.194 18.2273 364.774C18.2669 364.936 18.2431 365.107 18.1607 365.252C18.0783 365.398 17.9437 365.506 17.7842 365.555C17.622 365.598 17.4491 365.576 17.3031 365.493C17.157 365.41 17.0495 365.273 17.0041 365.111L17.0012 365.112Z" fill="#F2F2F2"/>
<path d="M24.6626 38.9552C55.7793 38.4142 86.8994 38.3365 118.023 38.722C149.142 39.1099 180.25 39.9631 211.348 41.2817C228.799 42.0216 246.242 42.9081 263.678 43.941C265.079 44.0239 265.074 41.8447 263.678 41.7621C232.611 39.924 201.521 38.5486 170.409 37.6359C139.301 36.7257 108.184 36.2809 77.058 36.3015C59.5919 36.3131 42.1267 36.4714 24.6626 36.7763C23.2618 36.8006 23.2574 38.9796 24.6626 38.9552Z" fill="#686565"/>
<path d="M241.517 25.2928L255.124 24.2802C256.514 24.1768 256.525 21.997 255.124 22.1013L241.517 23.1138C240.127 23.2173 240.116 25.397 241.517 25.2928Z" fill="#686565"/>
<path d="M241.517 38.366L255.124 37.3534C256.514 37.25 256.525 35.0702 255.124 35.1745L241.517 36.1871C240.127 36.2905 240.116 38.4703 241.517 38.366Z" fill="#686565"/>
<path d="M240.493 32.3952L259.838 34.1525C261.235 34.2793 261.226 32.0996 259.838 31.9736L240.493 30.2163C239.097 30.0894 239.106 32.2691 240.493 32.3952Z" fill="#686565"/>
<path d="M32.7155 22.3614C31.7693 22.3556 30.8423 22.6283 30.0501 23.1457C29.2578 23.663 28.6354 24.402 28.2604 25.2707C27.8409 26.1208 27.7114 27.085 27.8917 28.0157C28.072 28.9464 28.5523 29.7924 29.2589 30.4244C29.9233 30.9895 30.7201 31.377 31.5748 31.5507C32.4296 31.7243 33.3145 31.6784 34.1467 31.4173C34.9978 31.12 35.7358 30.5664 36.2592 29.8324C36.7826 29.0985 37.0656 28.2204 37.0692 27.319C37.1072 26.3189 36.8363 25.3314 36.2932 24.4907C35.7501 23.6501 34.9613 22.9971 34.034 22.6205C33.7553 22.5448 33.4581 22.5823 33.207 22.7249C32.9559 22.8674 32.7714 23.1034 32.6936 23.3814C32.6249 23.6597 32.6655 23.9538 32.8071 24.2031C32.9486 24.4524 33.1804 24.638 33.4546 24.7216C33.6445 24.7949 33.2812 24.6282 33.4585 24.7248C33.5314 24.7645 33.6057 24.8004 33.6772 24.8428C33.7381 24.8789 33.7964 24.9183 33.8556 24.9569C34.059 25.0897 33.7563 24.8595 33.8863 24.9788C33.999 25.0823 34.1107 25.1833 34.2132 25.2975C34.252 25.3406 34.4038 25.4607 34.2858 25.3768C34.1955 25.3126 34.251 25.3277 34.2858 25.3792C34.3122 25.4183 34.3401 25.4564 34.3661 25.4957C34.4511 25.6243 34.5283 25.7578 34.5974 25.8955C34.6134 25.9273 34.628 25.9599 34.6443 25.9917C34.6748 26.0511 34.7191 26.0666 34.6473 25.9922C34.5788 25.9211 34.6224 25.926 34.647 25.9944C34.6631 26.0394 34.6807 26.0838 34.6964 26.1289C34.7475 26.2759 34.7903 26.4256 34.8248 26.5773C34.8408 26.6474 34.8536 26.7179 34.8674 26.7885C34.916 27.0387 34.8603 26.633 34.872 26.8188C34.8819 26.974 34.8933 27.1275 34.8906 27.2833C34.8894 27.3546 34.8863 27.4258 34.8813 27.4969C34.8788 27.5324 34.8748 27.5677 34.8725 27.6032C34.8612 27.7742 34.8608 27.5407 34.8848 27.5248C34.835 27.6699 34.8019 27.8202 34.7863 27.9729C34.7668 28.0406 34.7436 28.1069 34.7219 28.1739C34.6461 28.4076 34.7931 28.0465 34.7123 28.2062C34.6458 28.3435 34.5715 28.4768 34.4897 28.6055C34.4542 28.6594 34.3203 28.7811 34.4298 28.6964C34.5486 28.6045 34.3675 28.7628 34.3289 28.8036C34.2792 28.8559 34.2277 28.9064 34.1743 28.9551C34.1402 28.9885 34.1041 29.0198 34.0663 29.049C34.0593 29.0455 34.2483 28.9228 34.1465 28.9878C34.017 29.0703 33.8944 29.1587 33.758 29.2306C33.7421 29.2389 33.5676 29.3197 33.5684 29.3226C33.5608 29.2932 33.7926 29.241 33.6335 29.2924C33.6001 29.3032 33.5673 29.3162 33.534 29.3274C33.3892 29.3762 33.2413 29.4156 33.0914 29.4453C33.0571 29.4522 33.0208 29.4556 32.987 29.4644C32.8744 29.4935 33.0946 29.4473 33.1012 29.4511C33.018 29.4475 32.9346 29.4549 32.8533 29.473C32.6987 29.4819 32.5437 29.4819 32.3891 29.473C32.3533 29.471 32.3177 29.4674 32.2819 29.4653C32.1989 29.4605 32.1379 29.4007 32.2484 29.4656C32.3337 29.5157 32.3266 29.4792 32.2511 29.4652C32.2157 29.4587 32.1803 29.4532 32.1449 29.4465C31.9919 29.4179 31.8406 29.3809 31.6917 29.3355C31.6115 29.3111 31.533 29.2827 31.454 29.2551C31.4195 29.2451 31.386 29.2322 31.3537 29.2165C31.3532 29.2075 31.5575 29.3141 31.4496 29.256C31.3135 29.1826 31.1728 29.1212 31.0399 29.041C30.969 28.9982 30.9009 28.9517 30.8319 28.9059C30.8016 28.8877 30.7727 28.867 30.7457 28.8442C30.7479 28.835 30.9146 28.9894 30.8271 28.906C30.7165 28.8006 30.5981 28.7062 30.4934 28.594C30.4694 28.5683 30.4467 28.5414 30.4228 28.5157L30.3997 28.4893C30.3407 28.4171 30.3396 28.4174 30.3964 28.4903C30.4542 28.5073 30.4515 28.5707 30.3968 28.4884C30.3772 28.459 30.3565 28.4306 30.337 28.4012C30.2485 28.2751 30.173 28.1404 30.1118 27.9991C30.1171 27.995 30.2062 28.2612 30.138 28.0603C30.1252 28.0223 30.1107 27.985 30.0981 27.9469C30.0731 27.8714 30.051 27.7951 30.032 27.718C30.0131 27.6415 30.0035 27.5627 29.9845 27.4866C29.9525 27.3582 30.0032 27.5878 29.9974 27.5821C29.9793 27.5641 29.987 27.4528 29.9856 27.4262C29.9769 27.2553 29.9964 27.0893 29.9994 26.9194C30.0018 26.7878 29.9885 27.022 29.9858 27.0151C29.9865 26.9757 29.9934 26.9367 30.0065 26.8994C30.0262 26.8098 30.0445 26.7203 30.0687 26.6317C30.0963 26.5302 30.1282 26.43 30.1642 26.331C30.1776 26.2939 30.194 26.2574 30.2066 26.2201C30.2524 26.0833 30.1158 26.3853 30.1911 26.262C30.2948 26.0922 30.372 25.9086 30.482 25.7409C30.5081 25.7012 30.6667 25.4799 30.5825 25.5916C30.4987 25.7029 30.6687 25.4919 30.7008 25.4561C30.8345 25.3073 30.9917 25.1851 31.13 25.0427C31.212 24.9583 31.0729 25.0842 31.0647 25.0901C31.1075 25.0594 31.1495 25.0277 31.1929 24.9978C31.2685 24.9456 31.346 24.8963 31.4254 24.8499C31.5148 24.7975 31.6158 24.7585 31.7025 24.7031C31.8048 24.6376 31.6242 24.7318 31.621 24.7338C31.6677 24.7106 31.7166 24.6919 31.7669 24.6781C31.8513 24.6482 32.2182 24.4899 32.2952 24.5394C32.2917 24.5372 32.0166 24.5616 32.239 24.5473C32.2916 24.5439 32.3439 24.5388 32.3966 24.5366C32.5031 24.5322 32.6092 24.5349 32.7155 24.5404C33.0039 24.5385 33.28 24.4231 33.4839 24.2192C33.6878 24.0153 33.8032 23.7393 33.8051 23.4509C33.7989 23.1639 33.6822 22.8904 33.4792 22.6874C33.2761 22.4844 33.0025 22.3676 32.7155 22.3614Z" fill="#686565"/>
<path d="M47.9694 22.3624C47.0232 22.3566 46.0962 22.6293 45.304 23.1466C44.5118 23.664 43.8893 24.403 43.5143 25.2716C43.0948 26.1218 42.9653 27.0859 43.1456 28.0166C43.3259 28.9473 43.8062 29.7934 44.5128 30.4254C45.1772 30.9905 45.974 31.378 46.8287 31.5517C47.6835 31.7253 48.5684 31.6794 49.4006 31.4182C50.2517 31.121 50.9897 30.5673 51.5131 29.8334C52.0365 29.0995 52.3195 28.2213 52.3231 27.3199C52.3611 26.3199 52.0902 25.3324 51.5471 24.4917C51.004 23.6511 50.2152 22.998 49.2879 22.6215C49.0092 22.5458 48.712 22.5833 48.4609 22.7258C48.2099 22.8684 48.0253 23.1044 47.9475 23.3824C47.8788 23.6607 47.9194 23.9548 48.061 24.2041C48.2025 24.4534 48.4343 24.6389 48.7086 24.7226C48.8984 24.7959 48.5351 24.6292 48.7124 24.7258C48.7853 24.7655 48.8596 24.8014 48.9311 24.8438C48.992 24.8798 49.0503 24.9193 49.1095 24.9579C49.3129 25.0907 49.0102 24.8605 49.1402 24.9798C49.2529 25.0833 49.3646 25.1842 49.4671 25.2984C49.5059 25.3416 49.6577 25.4616 49.5397 25.3777C49.4494 25.3136 49.5049 25.3286 49.5397 25.3802C49.5661 25.4193 49.594 25.4574 49.62 25.4967C49.705 25.6253 49.7822 25.7587 49.8513 25.8964C49.8673 25.9283 49.882 25.9609 49.8982 25.9926C49.9287 26.052 49.973 26.0676 49.9012 25.9932C49.8327 25.9221 49.8763 25.9269 49.9009 25.9954C49.917 26.0404 49.9346 26.0848 49.9503 26.1299C50.0014 26.2769 50.0442 26.4265 50.0787 26.5783C50.0947 26.6484 50.1075 26.7189 50.1213 26.7895C50.1699 27.0397 50.1142 26.6339 50.1259 26.8198C50.1358 26.975 50.1472 27.1285 50.1445 27.2843C50.1433 27.3555 50.1402 27.4267 50.1352 27.4979C50.1327 27.5333 50.1288 27.5687 50.1264 27.6042C50.1151 27.7751 50.1148 27.5417 50.1387 27.5257C50.0889 27.6709 50.0558 27.8212 50.0402 27.9739C50.0207 28.0416 49.9975 28.1079 49.9758 28.1749C49.9 28.4086 50.047 28.0474 49.9662 28.2072C49.8997 28.3444 49.8254 28.4777 49.7436 28.6065C49.7081 28.6604 49.5742 28.7821 49.6837 28.6974C49.8025 28.6054 49.6214 28.7638 49.5828 28.8045C49.5331 28.8569 49.4816 28.9074 49.4282 28.9561C49.3941 28.9894 49.358 29.0208 49.3202 29.05C49.3132 29.0465 49.5022 28.9238 49.4004 28.9888C49.2709 29.0713 49.1483 29.1596 49.0119 29.2315C48.996 29.2399 48.8215 29.3207 48.8223 29.3236C48.8147 29.2941 49.0465 29.242 48.8874 29.2934C48.854 29.3041 48.8212 29.3172 48.7879 29.3284C48.6431 29.3772 48.4952 29.4165 48.3453 29.4463C48.311 29.4531 48.2747 29.4566 48.2409 29.4653C48.1283 29.4945 48.3485 29.4483 48.3552 29.4521C48.2719 29.4485 48.1885 29.4559 48.1072 29.474C47.9526 29.4829 47.7976 29.4829 47.643 29.474C47.6072 29.4719 47.5716 29.4684 47.5358 29.4663C47.4528 29.4615 47.3919 29.4017 47.5023 29.4666C47.5876 29.5167 47.5805 29.4801 47.505 29.4662C47.4697 29.4597 47.4342 29.4542 47.3989 29.4475C47.2458 29.4189 47.0945 29.3818 46.9456 29.3365C46.8654 29.3121 46.7869 29.2837 46.7079 29.2561C46.6734 29.2461 46.6399 29.2332 46.6076 29.2175C46.6071 29.2085 46.8114 29.3151 46.7036 29.257C46.5674 29.1836 46.4267 29.1221 46.2938 29.042C46.2229 28.9992 46.1548 28.9527 46.0858 28.9069C46.0555 28.8886 46.0266 28.868 45.9996 28.8452C46.0019 28.8359 46.1685 28.9903 46.081 28.907C45.9704 28.8016 45.852 28.7072 45.7473 28.5949C45.7233 28.5693 45.7006 28.5424 45.6767 28.5167L45.6536 28.4902C45.5946 28.4181 45.5935 28.4184 45.6503 28.4913C45.7081 28.5083 45.7055 28.5717 45.6507 28.4893C45.6311 28.46 45.6104 28.4315 45.5909 28.4022C45.5024 28.2761 45.4269 28.1414 45.3657 28.0001C45.371 27.9959 45.4601 28.2622 45.392 28.0613C45.3791 28.0233 45.3646 27.9859 45.352 27.9479C45.327 27.8724 45.3049 27.7961 45.2859 27.7189C45.2671 27.6425 45.2574 27.5636 45.2384 27.4875C45.2064 27.3592 45.2571 27.5888 45.2513 27.583C45.2332 27.5651 45.2409 27.4538 45.2395 27.4272C45.2308 27.2562 45.2503 27.0903 45.2533 26.9204C45.2557 26.7888 45.2424 27.023 45.2397 27.0161C45.2404 26.9767 45.2473 26.9376 45.2604 26.9004C45.2801 26.8108 45.2985 26.7213 45.3226 26.6326C45.3502 26.5312 45.3821 26.4309 45.4181 26.332C45.4315 26.2949 45.4479 26.2584 45.4605 26.2211C45.5063 26.0843 45.3697 26.3863 45.445 26.2629C45.5487 26.0932 45.6259 25.9095 45.736 25.7419C45.762 25.7022 45.9206 25.4808 45.8364 25.5926C45.7526 25.7039 45.9226 25.4929 45.9547 25.4571C46.0884 25.3083 46.2456 25.1861 46.3839 25.0436C46.4659 24.9593 46.3268 25.0852 46.3186 25.091C46.3614 25.0604 46.4034 25.0286 46.4468 24.9988C46.5224 24.9466 46.5999 24.8973 46.6793 24.8509C46.7687 24.7985 46.8698 24.7595 46.9564 24.704C47.0587 24.6385 46.8781 24.7328 46.8749 24.7348C46.9216 24.7116 46.9705 24.6929 47.0208 24.6791C47.1052 24.6492 47.4722 24.4909 47.5491 24.5404C47.5456 24.5382 47.2705 24.5625 47.4929 24.5483C47.5455 24.5449 47.5978 24.5398 47.6505 24.5376C47.757 24.5332 47.8631 24.5358 47.9694 24.5414C48.2578 24.5395 48.5339 24.4241 48.7378 24.2202C48.9417 24.0163 49.0571 23.7402 49.059 23.4519C49.0529 23.1649 48.9361 22.8913 48.7331 22.6883C48.53 22.4854 48.2564 22.3686 47.9694 22.3624Z" fill="#686565"/>
<path d="M63.2233 22.3614C62.2771 22.3556 61.3501 22.6283 60.5579 23.1457C59.7657 23.663 59.1432 24.402 58.7682 25.2707C58.3487 26.1208 58.2192 27.085 58.3995 28.0157C58.5798 28.9464 59.0601 29.7924 59.7668 30.4244C60.4311 30.9895 61.2279 31.377 62.0827 31.5507C62.9374 31.7243 63.8223 31.6784 64.6545 31.4173C65.5056 31.12 66.2436 30.5664 66.767 29.8324C67.2904 29.0985 67.5734 28.2204 67.577 27.319C67.615 26.3189 67.3441 25.3314 66.801 24.4907C66.2579 23.6501 65.4691 22.9971 64.5418 22.6205C64.2631 22.5448 63.9659 22.5823 63.7148 22.7249C63.4638 22.8674 63.2792 23.1034 63.2014 23.3814C63.1327 23.6597 63.1733 23.9538 63.3149 24.2031C63.4564 24.4524 63.6882 24.638 63.9625 24.7216C64.1524 24.7949 63.789 24.6282 63.9663 24.7248C64.0392 24.7645 64.1135 24.8004 64.1851 24.8428C64.2459 24.8789 64.3042 24.9183 64.3634 24.9569C64.5668 25.0897 64.2641 24.8595 64.3941 24.9788C64.5068 25.0823 64.6186 25.1833 64.721 25.2975C64.7598 25.3406 64.9116 25.4607 64.7936 25.3768C64.7033 25.3126 64.7588 25.3277 64.7936 25.3792C64.82 25.4183 64.8479 25.4564 64.874 25.4957C64.9589 25.6243 65.0361 25.7578 65.1052 25.8955C65.1212 25.9273 65.1359 25.9599 65.1521 25.9917C65.1827 26.0511 65.2269 26.0666 65.1552 25.9922C65.0866 25.9211 65.1303 25.926 65.1548 25.9944C65.1709 26.0394 65.1885 26.0838 65.2042 26.1289C65.2553 26.2759 65.2982 26.4256 65.3326 26.5773C65.3486 26.6474 65.3615 26.7179 65.3752 26.7885C65.4238 27.0387 65.3681 26.633 65.3799 26.8188C65.3897 26.974 65.4011 27.1275 65.3984 27.2833C65.3972 27.3546 65.3941 27.4258 65.3891 27.4969C65.3866 27.5324 65.3827 27.5677 65.3803 27.6032C65.369 27.7742 65.3687 27.5407 65.3926 27.5248C65.3428 27.6699 65.3097 27.8202 65.2941 27.9729C65.2746 28.0406 65.2514 28.1069 65.2297 28.1739C65.1539 28.4076 65.3009 28.0465 65.2201 28.2062C65.1536 28.3435 65.0793 28.4768 64.9975 28.6055C64.962 28.6594 64.8281 28.7811 64.9376 28.6964C65.0564 28.6045 64.8753 28.7628 64.8367 28.8036C64.787 28.8559 64.7355 28.9064 64.6821 28.9551C64.648 28.9885 64.6119 29.0198 64.5741 29.049C64.5671 29.0455 64.7561 28.9228 64.6543 28.9878C64.5248 29.0703 64.4022 29.1587 64.2658 29.2306C64.2499 29.2389 64.0755 29.3197 64.0762 29.3226C64.0687 29.2932 64.3004 29.241 64.1413 29.2924C64.1079 29.3032 64.0751 29.3162 64.0419 29.3274C63.897 29.3762 63.7492 29.4156 63.5992 29.4453C63.5649 29.4522 63.5286 29.4556 63.4948 29.4644C63.3822 29.4935 63.6024 29.4473 63.6091 29.4511C63.5258 29.4475 63.4424 29.4549 63.3611 29.473C63.2065 29.4819 63.0515 29.4819 62.8969 29.473C62.8612 29.471 62.8255 29.4674 62.7897 29.4653C62.7067 29.4605 62.6458 29.4007 62.7562 29.4656C62.8415 29.5157 62.8344 29.4792 62.7589 29.4652C62.7236 29.4587 62.6881 29.4532 62.6528 29.4465C62.4997 29.4179 62.3484 29.3809 62.1995 29.3355C62.1194 29.3111 62.0408 29.2827 61.9618 29.2551C61.9273 29.2451 61.8938 29.2322 61.8615 29.2165C61.861 29.2075 62.0653 29.3141 61.9575 29.256C61.8214 29.1826 61.6806 29.1212 61.5477 29.041C61.4768 28.9982 61.4087 28.9517 61.3397 28.9059C61.3094 28.8877 61.2805 28.867 61.2535 28.8442C61.2558 28.835 61.4224 28.9894 61.3349 28.906C61.2243 28.8006 61.1059 28.7062 61.0012 28.594C60.9772 28.5683 60.9545 28.5414 60.9306 28.5157L60.9075 28.4893C60.8485 28.4171 60.8474 28.4174 60.9042 28.4903C60.962 28.5073 60.9594 28.5707 60.9046 28.4884C60.885 28.459 60.8643 28.4306 60.8448 28.4012C60.7563 28.2751 60.6809 28.1404 60.6196 27.9991C60.6249 27.995 60.714 28.2612 60.6459 28.0603C60.633 28.0223 60.6185 27.985 60.6059 27.9469C60.5809 27.8714 60.5588 27.7951 60.5398 27.718C60.521 27.6415 60.5113 27.5627 60.4923 27.4866C60.4603 27.3582 60.511 27.5878 60.5052 27.5821C60.4871 27.5641 60.4948 27.4528 60.4934 27.4262C60.4847 27.2553 60.5042 27.0893 60.5072 26.9194C60.5096 26.7878 60.4963 27.022 60.4936 27.0151C60.4943 26.9757 60.5012 26.9367 60.5143 26.8994C60.534 26.8098 60.5524 26.7203 60.5765 26.6317C60.6042 26.5302 60.636 26.43 60.672 26.331C60.6854 26.2939 60.7019 26.2574 60.7144 26.2201C60.7602 26.0833 60.6236 26.3853 60.6989 26.262C60.8026 26.0922 60.8798 25.9086 60.9899 25.7409C61.0159 25.7012 61.1745 25.4799 61.0903 25.5916C61.0065 25.7029 61.1765 25.4919 61.2087 25.4561C61.3423 25.3073 61.4995 25.1851 61.6379 25.0427C61.7198 24.9583 61.5807 25.0842 61.5725 25.0901C61.6153 25.0594 61.6573 25.0277 61.7007 24.9978C61.7763 24.9456 61.8538 24.8963 61.9332 24.8499C62.0226 24.7975 62.1237 24.7585 62.2103 24.7031C62.3126 24.6376 62.132 24.7318 62.1288 24.7338C62.1755 24.7106 62.2244 24.6919 62.2747 24.6781C62.3591 24.6482 62.7261 24.4899 62.803 24.5394C62.7996 24.5372 62.5244 24.5616 62.7468 24.5473C62.7994 24.5439 62.8517 24.5388 62.9044 24.5366C63.0109 24.5322 63.117 24.5349 63.2233 24.5404C63.5117 24.5385 63.7878 24.4231 63.9917 24.2192C64.1956 24.0153 64.311 23.7393 64.3129 23.4509C64.3068 23.1639 64.19 22.8904 63.987 22.6874C63.7839 22.4844 63.5103 22.3676 63.2233 22.3614Z" fill="#686565"/>
<path d="M283.99 263.65H16.7463C13.367 263.646 10.1271 262.302 7.73753 259.913C5.34795 257.523 4.0038 254.284 4 250.905V12.7448C4.00379 9.36581 5.34791 6.12633 7.73749 3.73704C10.1271 1.34775 13.3669 0.00378902 16.7463 0H283.99C287.37 0.00378903 290.61 1.34775 292.999 3.73704C295.389 6.12633 296.733 9.36581 296.737 12.7448V250.905C296.733 254.284 295.389 257.523 292.999 259.913C290.61 262.302 287.37 263.646 283.99 263.65ZM16.7463 1.45261C13.7521 1.45602 10.8815 2.64682 8.76434 4.76378C6.64714 6.88073 5.45619 9.75095 5.45279 12.7448V250.905C5.45627 253.899 6.64725 256.769 8.76445 258.886C10.8817 261.003 13.7522 262.193 16.7463 262.197H283.99C286.984 262.193 289.855 261.003 291.972 258.886C294.089 256.769 295.28 253.899 295.284 250.905V12.7448C295.28 9.75095 294.09 6.88073 291.972 4.76378C289.855 2.64682 286.985 1.45602 283.99 1.45261H16.7463Z" fill="#686565"/>
<path d="M15.905 162.043L109.885 161.757L203.386 161.473L256.13 161.313C256.412 161.303 256.68 161.184 256.876 160.981C257.073 160.777 257.183 160.506 257.183 160.223C257.183 159.941 257.073 159.669 256.876 159.466C256.68 159.263 256.412 159.144 256.13 159.134L162.15 159.42L68.649 159.704L15.905 159.864C15.6226 159.874 15.355 159.993 15.1586 160.197C14.9623 160.4 14.8525 160.671 14.8525 160.954C14.8525 161.236 14.9623 161.508 15.1586 161.711C15.355 161.914 15.6226 162.034 15.905 162.043Z" fill="#686565"/>
<path d="M63.3171 160.277L63.8982 125.968C63.9219 124.565 61.7428 124.565 61.719 125.968L61.1379 160.277C61.1141 161.679 63.2933 161.68 63.3171 160.277Z" fill="#686565"/>
<path d="M108.234 160.648L109.65 117.524L110.054 105.203C110.1 103.8 107.921 103.802 107.875 105.203L106.459 148.327L106.054 160.648C106.008 162.05 108.188 162.049 108.234 160.648Z" fill="#686565"/>
<path d="M153.029 84.761C152.175 100.035 150.595 145.088 149.74 160.362C149.662 161.763 151.841 161.759 151.92 160.362C152.774 145.088 154.354 100.035 155.208 84.761C155.287 83.36 153.107 83.3644 153.029 84.761Z" fill="#686565"/>
<path d="M197.609 145.036L197.342 159.717C197.317 161.119 199.496 161.119 199.521 159.717C199.837 142.377 200.646 142.943 200.735 138.049C200.76 136.646 198.581 136.646 198.556 138.049C198.556 138.049 197.925 127.696 197.609 145.036Z" fill="#686565"/>
<path d="M241.274 106.468L241.521 147.656L241.591 159.45C241.601 159.733 241.72 160 241.924 160.196C242.127 160.393 242.398 160.503 242.681 160.503C242.964 160.503 243.235 160.393 243.438 160.196C243.642 160 243.761 159.733 243.771 159.45L243.524 118.262L243.454 106.468C243.444 106.186 243.325 105.918 243.121 105.722C242.918 105.526 242.647 105.416 242.364 105.416C242.081 105.416 241.81 105.526 241.607 105.722C241.403 105.918 241.284 106.186 241.274 106.468Z" fill="#686565"/>
<path d="M16.0805 160.818C14.2767 155.862 18.3428 151.095 22.5209 148.953C27.5265 146.387 33.2848 145.805 38.3434 143.331C45.8851 139.643 51.3781 133.024 56.2659 126.398C61.2968 119.579 65.9 112.26 72.2925 106.593C75.6611 103.541 79.6396 101.239 83.9647 99.8393C89.4143 98.1388 95.1939 98.0222 100.825 98.7075C112.461 100.124 123.247 104.929 134.474 107.983C145.059 110.863 156.722 112.482 167.112 108.004C172.39 105.729 176.707 101.913 181.343 98.6117C185.83 95.3827 190.847 92.9628 196.168 91.4615C206.597 88.5616 217.987 89.336 227.697 94.2381C236.623 98.6864 243.69 106.144 247.651 115.296C252.254 126.291 251.655 138.578 250.151 150.151C249.762 153.142 249.3 156.124 248.832 159.104C248.617 160.476 250.717 161.067 250.934 159.683C252.806 147.749 254.673 135.438 252.343 123.429C250.329 112.943 244.562 103.55 236.122 97.0082C227.646 90.4485 217.11 87.1237 206.404 87.6305C200.794 87.8909 195.271 89.119 190.079 91.2609C184.69 93.4898 180.126 96.7935 175.49 100.27C170.724 103.844 165.811 106.8 159.894 107.966C154.154 109.097 148.184 108.673 142.469 107.605C130.678 105.403 119.688 100.353 107.996 97.7658C97.1648 95.3687 85.4764 95.1292 75.777 101.248C68.3159 105.954 63.0438 113.261 57.9841 120.316C52.9688 127.31 47.8901 134.788 40.5564 139.565C36.0827 142.479 31.0538 143.555 26.0493 145.194C21.0319 146.837 16.2152 149.609 14.1693 154.749C13.2876 156.865 13.2199 159.234 13.9791 161.397C14.4549 162.705 16.5617 162.14 16.0805 160.818Z" fill="#686565"/>
<path d="M62.5943 121.225L62.5908 121.226L62.5978 121.225H62.5943Z" fill="#686565"/>
<path d="M66.3723 119.22C65.8686 118.329 65.0651 117.644 64.1045 117.289C63.1439 116.933 62.0884 116.93 61.1254 117.279C60.6468 117.453 60.208 117.722 59.835 118.07C59.4621 118.417 59.1626 118.835 58.9542 119.3C58.9125 119.399 58.8881 119.503 58.854 119.604C58.8068 119.681 58.7501 119.749 58.7078 119.829C58.2561 120.729 58.1325 121.758 58.3581 122.74C58.5837 123.721 59.1445 124.593 59.9438 125.205C60.7431 125.817 61.731 126.132 62.7373 126.094C63.7435 126.057 64.7052 125.669 65.4566 124.999C66.2463 124.285 66.7678 123.323 66.9344 122.271C67.101 121.22 66.9026 120.143 66.3723 119.22ZM63.643 121.071C63.6487 121.176 63.652 121.126 63.643 121.071V121.071ZM63.3656 120.44C63.3549 120.428 63.3563 120.429 63.3656 120.44V120.44ZM62.1428 120.932C62.1249 120.902 62.1265 120.907 62.1428 120.932V120.932ZM62.4327 121.177C62.4744 121.196 62.5017 121.201 62.4327 121.177V121.177ZM62.5621 121.239L62.5908 121.226C62.5838 121.227 62.5767 121.225 62.5705 121.222L62.5713 121.222L62.5938 121.225L62.598 121.223L62.585 121.22C62.5963 121.219 62.5973 121.221 62.598 121.223C62.7276 121.163 62.6402 121.192 62.565 121.215L62.56 121.214C62.5131 121.19 62.4626 121.174 62.4106 121.166C62.4058 121.163 62.4001 121.161 62.3961 121.158C62.3544 121.129 62.1435 120.964 62.3391 121.137C62.2965 121.099 62.2545 121.062 62.2144 121.022C62.1908 120.997 62.1694 120.971 62.1505 120.943C62.1248 120.899 62.1 120.855 62.0758 120.81L62.0722 120.786C62.069 120.766 62.0666 120.757 62.064 120.745C62.0652 120.733 62.0672 120.719 62.0691 120.706C62.0838 120.667 62.0931 120.626 62.0968 120.585L62.1052 120.574C62.1365 120.53 62.1639 120.479 62.1938 120.434C62.0359 120.674 62.2556 120.407 62.272 120.374C62.2748 120.368 62.2699 120.371 62.2711 120.367C62.2775 120.364 62.2755 120.366 62.2833 120.361C62.3322 120.333 62.3786 120.301 62.4283 120.273C62.4875 120.24 62.7206 120.174 62.4788 120.243C62.5338 120.227 62.5865 120.208 62.642 120.193C62.652 120.191 62.7334 120.179 62.7773 120.171C62.8158 120.17 62.8531 120.169 62.8571 120.169C62.8752 120.169 62.8933 120.172 62.9114 120.172C62.8712 120.178 63.0491 120.216 63.1019 120.224C63.1095 120.23 63.1134 120.234 63.1238 120.242C63.1684 120.274 63.2227 120.303 63.2699 120.334C63.0591 120.198 63.2726 120.345 63.3129 120.385C63.3369 120.409 63.3591 120.435 63.3818 120.46C63.4025 120.484 63.4213 120.51 63.4379 120.537C63.4724 120.6 63.5092 120.664 63.5455 120.727L63.5556 120.743C63.5553 120.745 63.5552 120.747 63.5552 120.749C63.5742 120.85 63.6021 120.949 63.6387 121.045C63.6405 121.053 63.6419 121.061 63.6428 121.069C63.6462 121.125 63.6508 121.18 63.6509 121.236L63.6504 121.247C63.4826 121.159 63.2964 121.113 63.1072 121.112C62.918 121.11 62.7311 121.154 62.5621 121.239Z" fill="#686565"/>
<path d="M62.6014 121.223C62.6057 121.224 62.6006 121.224 62.6006 121.224L62.6014 121.223Z" fill="#686565"/>
<path d="M62.6002 121.225L62.5967 121.225C62.6011 121.226 62.6002 121.225 62.6002 121.225Z" fill="#686565"/>
<path d="M62.5986 121.222L62.6006 121.223L62.5986 121.222Z" fill="#686565"/>
<path d="M109.084 100.888L109.08 100.889L109.087 100.888H109.084Z" fill="#686565"/>
<path d="M112.862 98.8834C112.358 97.9916 111.555 97.3072 110.594 96.9517C109.633 96.5962 108.578 96.5927 107.615 96.9418C107.136 97.1164 106.697 97.3854 106.324 97.7326C105.951 98.0798 105.652 98.4982 105.444 98.9632C105.402 99.062 105.377 99.1659 105.343 99.2671C105.296 99.3435 105.239 99.4124 105.197 99.4922C104.746 100.392 104.622 101.421 104.847 102.403C105.073 103.384 105.634 104.256 106.433 104.868C107.232 105.48 108.22 105.795 109.227 105.757C110.233 105.72 111.195 105.332 111.946 104.662C112.736 103.948 113.257 102.986 113.424 101.934C113.59 100.883 113.392 99.8063 112.862 98.8834ZM110.132 100.734C110.138 100.839 110.141 100.789 110.132 100.734V100.734ZM109.855 100.103C109.844 100.091 109.846 100.092 109.855 100.103V100.103ZM108.632 100.595C108.614 100.565 108.616 100.569 108.632 100.595V100.595ZM108.922 100.84C108.964 100.859 108.991 100.864 108.922 100.84V100.84ZM109.051 100.902L109.08 100.889C109.073 100.89 109.066 100.888 109.06 100.885L109.061 100.885L109.083 100.887L109.087 100.886L109.074 100.883C109.086 100.882 109.087 100.884 109.087 100.886C109.217 100.826 109.129 100.855 109.054 100.878L109.049 100.877C109.002 100.853 108.952 100.837 108.9 100.829C108.895 100.826 108.889 100.824 108.885 100.821C108.844 100.792 108.633 100.627 108.828 100.8C108.786 100.762 108.744 100.725 108.704 100.685C108.68 100.66 108.659 100.634 108.64 100.606C108.614 100.562 108.589 100.518 108.565 100.473L108.562 100.449C108.558 100.429 108.556 100.42 108.553 100.408C108.555 100.396 108.557 100.382 108.558 100.369C108.573 100.33 108.582 100.289 108.586 100.248L108.595 100.237C108.626 100.193 108.653 100.142 108.683 100.097C108.525 100.337 108.745 100.07 108.761 100.037C108.764 100.031 108.759 100.034 108.76 100.03C108.767 100.027 108.765 100.029 108.773 100.024C108.822 99.9956 108.868 99.9635 108.918 99.936C108.977 99.9032 109.21 99.837 108.968 99.9061C109.023 99.8904 109.076 99.8706 109.131 99.8561C109.141 99.8535 109.223 99.8421 109.267 99.8342C109.305 99.8332 109.342 99.8321 109.346 99.8321C109.365 99.8323 109.383 99.8345 109.401 99.8353C109.361 99.8407 109.538 99.8791 109.591 99.8873C109.599 99.8932 109.603 99.8971 109.613 99.9047C109.658 99.9373 109.712 99.9663 109.759 99.9967C109.548 99.8606 109.762 100.008 109.802 100.048C109.826 100.072 109.848 100.098 109.871 100.123C109.892 100.147 109.911 100.173 109.927 100.2C109.962 100.263 109.999 100.327 110.035 100.389L110.045 100.405C110.045 100.408 110.045 100.41 110.045 100.412C110.064 100.513 110.091 100.612 110.128 100.708C110.13 100.716 110.131 100.724 110.132 100.732C110.136 100.788 110.14 100.843 110.14 100.899L110.14 100.91C109.972 100.822 109.786 100.776 109.597 100.775C109.407 100.773 109.22 100.817 109.051 100.902Z" fill="#686565"/>
<path d="M109.089 100.888L109.086 100.888C109.09 100.889 109.089 100.888 109.089 100.888Z" fill="#686565"/>
<path d="M109.088 100.886L109.09 100.887L109.088 100.886Z" fill="#686565"/>
<path d="M109.091 100.887C109.095 100.888 109.09 100.888 109.09 100.888L109.091 100.887Z" fill="#686565"/>
<path d="M154.124 111.054L154.126 111.055L154.124 111.054Z" fill="#686565"/>
<path d="M157.898 78.5466C157.394 77.6548 156.591 76.9704 155.63 76.6149C154.669 76.2594 153.614 76.2559 152.651 76.605C152.172 76.7797 151.733 77.0486 151.36 77.3958C150.987 77.743 150.688 78.1614 150.48 78.6264C150.438 78.7252 150.413 78.8291 150.379 78.9303C150.332 79.0067 150.275 79.0756 150.233 79.1555C149.782 80.0553 149.658 81.0845 149.883 82.0658C150.109 83.047 150.67 83.9189 151.469 84.5312C152.269 85.1435 153.256 85.458 154.263 85.4204C155.269 85.3828 156.231 84.9955 156.982 84.3253C157.772 83.6115 158.293 82.6489 158.46 81.5975C158.626 80.5462 158.428 79.4696 157.898 78.5466ZM155.168 80.397C155.174 80.5025 155.177 80.452 155.168 80.397V80.397ZM154.891 79.7662C154.88 79.754 154.882 79.7553 154.891 79.7662V79.7662ZM153.668 80.2579C153.65 80.2285 153.652 80.2327 153.668 80.2579V80.2579ZM153.958 80.5036C154 80.5221 154.027 80.5271 153.958 80.5036V80.5036ZM154.087 80.5652L154.116 80.5521C154.109 80.5527 154.102 80.5514 154.096 80.5481L154.097 80.5479L154.119 80.5507L154.123 80.5488L154.11 80.5458C154.122 80.5454 154.123 80.5471 154.123 80.5488C154.253 80.4894 154.166 80.5179 154.09 80.5412L154.085 80.54C154.038 80.5162 153.988 80.5 153.936 80.4921C153.931 80.4894 153.925 80.4874 153.921 80.4845C153.88 80.4548 153.669 80.2902 153.864 80.4628C153.822 80.4252 153.78 80.3883 153.74 80.3477C153.716 80.3235 153.695 80.2972 153.676 80.2692C153.65 80.2252 153.625 80.1808 153.601 80.136L153.598 80.1118C153.594 80.0917 153.592 80.0834 153.589 80.0713C153.591 80.0589 153.593 80.0455 153.595 80.0325C153.609 79.9933 153.618 79.9524 153.622 79.9107L153.631 79.9001C153.662 79.8564 153.689 79.8055 153.719 79.7601C153.561 79.9999 153.781 79.7336 153.797 79.6999C153.8 79.6941 153.795 79.6973 153.796 79.6933C153.803 79.6897 153.801 79.6922 153.809 79.6877C153.858 79.6588 153.904 79.6267 153.954 79.5992C154.013 79.5664 154.246 79.5002 154.004 79.5693C154.059 79.5536 154.112 79.5338 154.167 79.5193C154.177 79.5167 154.259 79.5053 154.303 79.4974C154.341 79.4964 154.378 79.4953 154.382 79.4953C154.401 79.4955 154.419 79.4978 154.437 79.4986C154.397 79.5039 154.574 79.5423 154.627 79.5505C154.635 79.5564 154.639 79.5603 154.649 79.5679C154.694 79.6005 154.748 79.6295 154.795 79.66C154.584 79.5238 154.798 79.6708 154.838 79.711C154.862 79.7351 154.884 79.7608 154.907 79.7861C154.928 79.8102 154.947 79.8359 154.963 79.8631C154.998 79.9264 155.035 79.9904 155.071 80.0527L155.081 80.0687C155.081 80.0707 155.081 80.0728 155.081 80.0749C155.1 80.1759 155.127 80.275 155.164 80.371C155.166 80.3791 155.167 80.3874 155.168 80.3956C155.172 80.451 155.176 80.5061 155.176 80.5617L155.176 80.573C155.008 80.4855 154.822 80.4392 154.633 80.4378C154.443 80.4365 154.257 80.4802 154.087 80.5652Z" fill="#686565"/>
<path d="M154.121 111.056L154.117 111.057L154.124 111.056H154.121Z" fill="#686565"/>
<path d="M154.127 111.056L154.123 111.056C154.128 111.057 154.127 111.056 154.127 111.056Z" fill="#686565"/>
<path d="M154.127 111.055C154.131 111.056 154.126 111.056 154.126 111.056L154.127 111.055Z" fill="#686565"/>
<path d="M203.661 134.472C203.158 133.581 202.354 132.896 201.394 132.541C200.433 132.185 199.377 132.182 198.414 132.531C197.936 132.705 197.497 132.974 197.124 133.322C196.751 133.669 196.452 134.087 196.243 134.552C196.202 134.651 196.177 134.755 196.143 134.856C196.096 134.932 196.039 135.001 195.997 135.081C195.545 135.981 195.422 137.01 195.647 137.992C195.873 138.973 196.434 139.845 197.233 140.457C198.032 141.069 199.02 141.384 200.026 141.346C201.033 141.309 201.994 140.921 202.746 140.251C203.535 139.537 204.057 138.575 204.223 137.523C204.39 136.472 204.192 135.395 203.661 134.472ZM200.932 136.323C200.938 136.428 200.941 136.378 200.932 136.323V136.323ZM200.655 135.692C200.644 135.68 200.645 135.681 200.655 135.692V135.692ZM199.432 136.184C199.414 136.154 199.416 136.158 199.432 136.184V136.184ZM199.722 136.429C199.763 136.448 199.791 136.453 199.722 136.429V136.429ZM199.851 136.491L199.88 136.478C199.873 136.479 199.866 136.477 199.859 136.474L199.86 136.474L199.883 136.476L199.887 136.475L199.874 136.472C199.885 136.471 199.886 136.473 199.887 136.475C200.017 136.415 199.929 136.444 199.854 136.467L199.849 136.466C199.802 136.442 199.752 136.426 199.7 136.418C199.695 136.415 199.689 136.413 199.685 136.41C199.643 136.381 199.433 136.216 199.628 136.389C199.586 136.351 199.543 136.314 199.503 136.274C199.48 136.249 199.458 136.223 199.44 136.195C199.414 136.151 199.389 136.107 199.365 136.062L199.361 136.038C199.358 136.018 199.356 136.009 199.353 135.997C199.354 135.985 199.356 135.971 199.358 135.958C199.373 135.919 199.382 135.878 199.386 135.837L199.394 135.826C199.426 135.782 199.453 135.731 199.483 135.686C199.325 135.926 199.545 135.659 199.561 135.626C199.564 135.62 199.559 135.623 199.56 135.619C199.567 135.616 199.565 135.618 199.572 135.613C199.621 135.585 199.668 135.552 199.717 135.525C199.776 135.492 200.01 135.426 199.768 135.495C199.823 135.479 199.875 135.46 199.931 135.445C199.941 135.442 200.022 135.431 200.066 135.423C200.105 135.422 200.142 135.421 200.146 135.421C200.164 135.421 200.182 135.424 200.2 135.424C200.16 135.43 200.338 135.468 200.391 135.476C200.399 135.482 200.402 135.486 200.413 135.494C200.457 135.526 200.512 135.555 200.559 135.586C200.348 135.45 200.562 135.597 200.602 135.637C200.626 135.661 200.648 135.687 200.671 135.712C200.692 135.736 200.71 135.762 200.727 135.789C200.761 135.852 200.798 135.916 200.835 135.978L200.845 135.994C200.844 135.997 200.844 135.999 200.844 136.001C200.863 136.102 200.891 136.201 200.928 136.297C200.929 136.305 200.931 136.313 200.932 136.321C200.935 136.377 200.94 136.432 200.94 136.488L200.939 136.499C200.772 136.411 200.585 136.365 200.396 136.364C200.207 136.362 200.02 136.406 199.851 136.491Z" fill="#686565"/>
<path d="M199.883 88.541L199.88 88.5428L199.887 88.541H199.883Z" fill="#686565"/>
<path d="M199.889 88.54L199.886 88.5406C199.89 88.5411 199.889 88.54 199.889 88.54Z" fill="#686565"/>
<path d="M199.889 88.5391C199.894 88.5404 199.889 88.5406 199.889 88.5406L199.889 88.5391Z" fill="#686565"/>
<path d="M199.887 88.5383L199.889 88.5393L199.887 88.5383Z" fill="#686565"/>
<path d="M246.518 101.062C246.014 100.17 245.211 99.486 244.25 99.1305C243.289 98.7751 242.234 98.7715 241.271 99.1206C240.792 99.2953 240.353 99.5642 239.981 99.9114C239.608 100.259 239.308 100.677 239.1 101.142C239.058 101.241 239.034 101.345 239 101.446C238.952 101.522 238.896 101.591 238.853 101.671C238.402 102.571 238.278 103.6 238.504 104.581C238.729 105.563 239.29 106.435 240.089 107.047C240.889 107.659 241.877 107.974 242.883 107.936C243.889 107.898 244.851 107.511 245.602 106.841C246.392 106.127 246.913 105.164 247.08 104.113C247.247 103.062 247.048 101.985 246.518 101.062ZM243.789 102.913C243.794 103.018 243.797 102.968 243.789 102.913V102.913ZM243.511 102.282C243.5 102.27 243.502 102.271 243.511 102.282V102.282ZM242.288 102.773C242.27 102.744 242.272 102.748 242.288 102.773V102.773ZM242.578 103.019C242.62 103.038 242.647 103.043 242.578 103.019V103.019ZM242.708 103.081L242.736 103.068C242.729 103.068 242.722 103.067 242.716 103.064L242.717 103.064L242.739 103.066L242.743 103.064L242.73 103.061C242.742 103.061 242.743 103.063 242.743 103.064C242.873 103.005 242.786 103.034 242.71 103.057L242.705 103.056C242.659 103.032 242.608 103.016 242.556 103.008C242.551 103.005 242.546 103.003 242.542 103C242.5 102.97 242.289 102.806 242.485 102.978C242.442 102.941 242.4 102.904 242.36 102.863C242.336 102.839 242.315 102.813 242.296 102.785C242.27 102.741 242.245 102.696 242.221 102.652L242.218 102.627C242.214 102.607 242.212 102.599 242.209 102.587C242.211 102.575 242.213 102.561 242.215 102.548C242.229 102.509 242.239 102.468 242.242 102.426L242.251 102.416C242.282 102.372 242.309 102.321 242.339 102.276C242.181 102.516 242.401 102.249 242.417 102.216C242.42 102.21 242.415 102.213 242.417 102.209C242.423 102.205 242.421 102.208 242.429 102.203C242.478 102.174 242.524 102.142 242.574 102.115C242.633 102.082 242.866 102.016 242.624 102.085C242.679 102.069 242.732 102.049 242.787 102.035C242.797 102.032 242.879 102.021 242.923 102.013C242.961 102.012 242.999 102.011 243.003 102.011C243.021 102.011 243.039 102.013 243.057 102.014C243.017 102.02 243.195 102.058 243.247 102.066C243.255 102.072 243.259 102.076 243.269 102.084C243.314 102.116 243.368 102.145 243.415 102.176C243.205 102.039 243.418 102.186 243.458 102.227C243.482 102.251 243.505 102.276 243.527 102.302C243.548 102.326 243.567 102.352 243.583 102.379C243.618 102.442 243.655 102.506 243.691 102.568L243.701 102.584C243.701 102.586 243.701 102.588 243.701 102.59C243.72 102.692 243.748 102.791 243.784 102.887C243.786 102.895 243.787 102.903 243.788 102.911C243.792 102.967 243.796 103.022 243.796 103.077L243.796 103.089C243.628 103.001 243.442 102.955 243.253 102.953C243.063 102.952 242.877 102.996 242.708 103.081Z" fill="#686565"/>
<path d="M242.741 103.066L242.737 103.068L242.744 103.066H242.741Z" fill="#686565"/>
<path d="M242.744 103.064L242.746 103.065L242.744 103.064Z" fill="#686565"/>
<path d="M242.747 103.065C242.751 103.067 242.746 103.067 242.746 103.067L242.747 103.065Z" fill="#686565"/>
<path d="M242.746 103.066L242.742 103.067C242.747 103.067 242.746 103.066 242.746 103.066Z" fill="#686565"/>
<path d="M230.996 136.352L197.221 138.229C197.03 138.24 196.843 138.177 196.698 138.053C196.552 137.93 196.459 137.756 196.439 137.566C196.418 137.377 196.471 137.186 196.587 137.035C196.702 136.883 196.871 136.781 197.06 136.751L231.581 131.134L230.996 136.352Z" fill="#3F3D56"/>
<path d="M273.918 211.536L286.646 190.126L296.053 194.568C296.053 194.568 279.843 214.812 279.327 215.394C279.548 216.378 279.465 217.406 279.089 218.342C278.714 219.278 278.062 220.077 277.222 220.635C276.382 221.193 275.392 221.483 274.384 221.466C273.375 221.449 272.396 221.126 271.575 220.541C270.753 219.955 270.13 219.134 269.785 218.186C269.441 217.238 269.393 216.208 269.647 215.232C269.901 214.256 270.445 213.38 271.208 212.72C271.971 212.06 272.916 211.647 273.918 211.536Z" fill="#FFB6B6"/>
<path d="M279.213 161.803L299.834 172.56C301.123 173.488 302.203 174.675 303.007 176.045C303.811 177.414 304.32 178.937 304.502 180.514C304.684 182.092 304.535 183.69 304.063 185.207C303.592 186.723 302.81 188.125 301.766 189.322L287.551 205.627L281.358 197.236L286.131 187.257L276.889 184.82L279.213 161.803Z" fill="#F68219"/>
<path d="M220.45 136.702L218.128 161.5L207.724 161.518C207.724 161.518 213.693 136.281 213.91 135.534C213.288 134.74 212.922 133.775 212.861 132.769C212.799 131.762 213.045 130.761 213.565 129.897C214.085 129.033 214.855 128.347 215.774 127.93C216.692 127.513 217.715 127.385 218.708 127.562C219.701 127.739 220.617 128.214 221.334 128.923C222.051 129.632 222.536 130.542 222.725 131.533C222.914 132.523 222.798 133.548 222.391 134.471C221.985 135.394 221.308 136.172 220.45 136.702Z" fill="#FFB6B6"/>
<path d="M241.159 187.414L217.213 183.023C207.13 181.811 202.992 175.177 204.811 168.706L210.666 147.883L219.858 152.81L219.823 163.872L232.69 162.113L241.159 187.414Z" fill="#F68219"/>
<path d="M231.357 358.79H224.773L221.641 333.396H231.358L231.357 358.79Z" fill="#FFB6B6"/>
<path d="M231.589 365.658L211.342 365.657V365.401C211.342 363.311 212.172 361.307 213.65 359.829C215.128 358.352 217.132 357.521 219.223 357.521L222.921 354.716L229.822 357.522L231.589 357.522L231.589 365.658Z" fill="#2F2E41"/>
<path d="M277.945 358.79H284.529L287.661 333.396H277.943L277.945 358.79Z" fill="#FFB6B6"/>
<path d="M277.712 365.658L297.96 365.657V365.401C297.959 363.311 297.129 361.307 295.651 359.829C294.173 358.352 292.169 357.521 290.079 357.521L286.38 354.716L279.48 357.522L277.712 357.522L277.712 365.658Z" fill="#2F2E41"/>
<path d="M221.352 314.737C221.449 313.288 222.222 305.275 222.222 305.275L224.074 288.281L227.338 243.234L230.247 231.394L244.648 237.003L256.334 231.402L270.223 235.841L281.038 239.896C281.038 239.896 281.057 241.632 281.14 243.729C281.251 246.475 281.446 249.84 281.909 250.715C282.682 252.261 282.487 260.561 282.487 260.561C282.487 260.561 283.256 277.449 284.224 279.3C285.191 281.152 285.386 285.008 285.094 285.781C284.802 286.554 286.062 306.835 286.062 306.835C286.062 306.835 289.294 342.724 287.266 348.135C285.238 353.547 277.575 350.002 277.575 350.002C277.575 350.002 277.946 348.558 275.723 347.877C273.501 347.197 266.732 296.308 266.732 296.308C266.732 296.308 265.473 285.874 264.316 282.883C263.158 279.893 262.093 271.491 262.093 271.491C262.093 271.491 254.945 257.585 254.852 254.492C254.852 254.492 253.917 251.599 253.033 254.784C252.149 257.969 249.542 265.598 249.542 265.598L247 274.967L244.01 288.966L242.074 300.752C242.074 300.752 239.176 316.394 238.713 317.07C238.25 317.746 238.713 332.036 238.713 332.036C238.713 332.036 236.472 344.206 233.306 346.331C230.139 348.456 221.749 346.365 221.749 346.365C221.749 346.365 221.254 316.186 221.352 314.737Z" fill="#2F2E41"/>
<path d="M232.117 193.293L230.277 217.129L227.513 219.99C227.263 220.248 227.069 220.554 226.94 220.889C226.812 221.224 226.752 221.581 226.765 221.94C226.779 222.298 226.864 222.65 227.016 222.975C227.169 223.3 227.385 223.59 227.652 223.83L226.129 226.441L225.59 234.67C225.436 235.311 225.425 235.977 225.559 236.622C225.692 237.267 225.967 237.874 226.362 238.401C226.758 238.927 227.264 239.36 227.847 239.668C228.429 239.976 229.072 240.152 229.729 240.183L277.404 242.423C278.058 242.453 278.711 242.34 279.317 242.091C279.922 241.841 280.466 241.462 280.909 240.98C281.352 240.498 281.683 239.924 281.88 239.299C282.077 238.675 282.135 238.015 282.048 237.366L277.995 206.851V204.569L276.18 200.163L277.112 185.401L279.282 161.971L266.67 158.714L259.832 154.01L247.952 154.199L240.744 160.118L231.132 161.623L223.863 163.068L222.938 165.08L224.789 164.678L231.502 190.855L232.117 193.293Z" fill="#F68219"/>
<path d="M253.626 150.816C261.355 150.816 267.62 144.551 267.62 136.823C267.62 129.095 261.355 122.83 253.626 122.83C245.896 122.83 239.631 129.095 239.631 136.823C239.631 144.551 245.896 150.816 253.626 150.816Z" fill="#FFB6B6"/>
<path d="M250.252 149.913L260.363 149.397C261.659 149.331 263.073 149.217 264.015 148.325C264.522 147.775 264.912 147.127 265.161 146.422C266.096 144.251 267.031 142.079 267.942 139.898C269.202 136.881 270.439 133.696 270.117 130.442C270.042 128.956 269.419 127.551 268.368 126.498C267.832 125.99 267.142 125.674 266.408 125.6C265.673 125.525 264.935 125.696 264.307 126.086C264.152 125.057 263.764 124.077 263.173 123.22C262.583 122.362 261.805 121.651 260.899 121.138C259.069 120.127 256.98 119.684 254.897 119.866C251.876 120.061 248.991 121.198 246.648 123.117C245.99 123.724 245.286 124.282 244.544 124.784C244.171 125.034 243.75 125.205 243.309 125.286C242.867 125.368 242.413 125.359 241.976 125.259C241.542 125.143 241.165 124.874 240.914 124.502C240.663 124.13 240.555 123.679 240.611 123.234C239.899 123.766 239.411 124.544 239.242 125.417C239.072 126.29 239.235 127.195 239.696 127.954C239.171 128.174 238.599 128.255 238.033 128.188C237.468 128.121 236.93 127.909 236.471 127.573C235.979 127.817 235.544 128.161 235.192 128.583C234.841 129.005 234.582 129.496 234.432 130.024C234.281 130.552 234.242 131.105 234.318 131.649C234.394 132.193 234.583 132.714 234.872 133.181C235.161 133.648 235.544 134.049 235.998 134.359C236.451 134.669 236.964 134.881 237.503 134.981C238.043 135.081 238.598 135.068 239.132 134.941C239.667 134.815 240.169 134.578 240.606 134.246C241.22 135.106 240.991 136.274 240.911 137.327C240.831 138.38 241.114 139.688 242.129 139.979C243.501 140.373 244.613 138.525 246.041 138.545C246.393 138.573 246.733 138.688 247.03 138.88C247.327 139.071 247.572 139.333 247.743 139.642C248.08 140.262 248.31 140.935 248.425 141.631L250.252 149.856" fill="#2F2E41"/>
<path d="M644.498 275.733C644.498 273.567 643.77 271.808 642.877 271.804H399.284C398.387 271.808 397.663 273.567 397.659 275.733V364.931C397.659 365.132 397.584 365.326 397.449 365.475C397.314 365.624 397.128 365.717 396.928 365.737C396.274 365.799 395.62 365.858 394.966 365.912C394.95 365.912 394.934 365.916 394.918 365.916C394.562 365.948 394.206 365.973 393.851 366.001H393.846C393.663 365.662 393.483 365.321 393.304 364.977C393.243 364.861 393.212 364.732 393.212 364.601V270.636C393.212 270.037 393.236 269.435 393.276 268.841C393.334 268.025 393.435 267.212 393.58 266.407C394.263 262.651 395.807 260.109 397.562 260.101H644.595C644.851 260.102 645.104 260.156 645.339 260.258C645.684 260.411 645.995 260.629 646.257 260.901C646.611 261.27 646.915 261.684 647.158 262.134C648.165 264.14 648.745 266.333 648.861 268.574C648.861 268.598 648.865 268.622 648.865 268.647C648.921 269.302 648.949 269.969 648.945 270.636L649.002 279.299L649.038 284.465L649.148 300.676L649.188 306.433L649.366 365.536C649.366 365.75 649.281 365.956 649.129 366.108C648.977 366.259 648.772 366.344 648.557 366.344H645.307C645.092 366.344 644.887 366.259 644.735 366.108C644.583 365.956 644.498 365.75 644.498 365.536V275.733Z" fill="#686565"/>
<path d="M578.306 219.563H552.058C551.687 219.563 551.331 219.711 551.069 219.974C550.807 220.237 550.66 220.593 550.66 220.964V262.423H579.708V220.964C579.708 220.78 579.672 220.598 579.601 220.428C579.531 220.258 579.428 220.103 579.298 219.973C579.167 219.843 579.013 219.739 578.843 219.669C578.672 219.599 578.49 219.562 578.306 219.563ZM565.27 243.119C564.45 243.115 563.664 242.787 563.083 242.207C562.503 241.626 562.175 240.84 562.171 240.02V235.238C562.171 234.416 562.498 233.628 563.079 233.046C563.66 232.465 564.448 232.139 565.27 232.139C566.093 232.139 566.881 232.465 567.462 233.046C568.043 233.628 568.37 234.416 568.37 235.238V240.02C568.366 240.84 568.038 241.626 567.458 242.207C566.877 242.787 566.091 243.115 565.27 243.119Z" fill="#DCC0E7"/>
<path d="M550.57 261.097V265.097C550.571 265.304 550.653 265.502 550.8 265.649C550.946 265.796 551.145 265.878 551.352 265.879H579.016C579.223 265.878 579.422 265.795 579.568 265.648C579.715 265.502 579.797 265.304 579.798 265.097V261.097H550.57Z" fill="#3F3D56"/>
<path d="M621.77 154.862H509.572C508.608 154.864 507.684 155.247 507.002 155.929C506.321 156.61 505.937 157.534 505.936 158.498V234.201C505.936 235.165 506.32 236.089 507.002 236.771C507.683 237.452 508.608 237.836 509.572 237.837H621.77C622.734 237.836 623.658 237.452 624.34 236.771C625.022 236.089 625.405 235.165 625.406 234.201V158.498C625.405 157.534 625.021 156.61 624.339 155.929C623.658 155.247 622.734 154.864 621.77 154.862Z" fill="#686565"/>
<path d="M620.833 157.488H510.509C509.993 157.489 509.498 157.695 509.134 158.06C508.769 158.426 508.565 158.921 508.564 159.437V233.263C508.565 233.778 508.771 234.273 509.135 234.637C509.5 235.001 509.994 235.207 510.509 235.207H620.833C621.349 235.207 621.843 235.001 622.207 234.637C622.572 234.273 622.777 233.778 622.778 233.263V159.437C622.778 158.921 622.573 158.426 622.208 158.06C621.844 157.695 621.349 157.489 620.833 157.488Z" fill="white"/>
<path d="M599.344 267.27H533.707C533.528 267.27 533.35 267.23 533.188 267.153C533.026 267.076 532.883 266.963 532.77 266.824C532.656 266.684 532.576 266.521 532.534 266.347C532.491 266.172 532.489 265.99 532.526 265.814L533.544 260.978C533.602 260.707 533.751 260.465 533.966 260.29C534.181 260.116 534.449 260.02 534.725 260.019H598.326C598.602 260.02 598.87 260.116 599.085 260.29C599.3 260.465 599.449 260.707 599.507 260.978L600.525 265.814C600.562 265.99 600.56 266.172 600.518 266.347C600.475 266.521 600.395 266.684 600.281 266.824C600.168 266.963 600.025 267.076 599.863 267.153C599.701 267.23 599.524 267.27 599.344 267.27Z" fill="#DCC0E7"/>
<path d="M536.858 260.891H535.546C535.35 260.891 535.191 261.049 535.191 261.245V261.749C535.191 261.945 535.35 262.103 535.546 262.103H536.858C537.054 262.103 537.213 261.945 537.213 261.749V261.245C537.213 261.049 537.054 260.891 536.858 260.891Z" fill="#686565"/>
<path d="M540.901 260.891H539.589C539.393 260.891 539.234 261.049 539.234 261.245V261.749C539.234 261.945 539.393 262.103 539.589 262.103H540.901C541.097 262.103 541.256 261.945 541.256 261.749V261.245C541.256 261.049 541.097 260.891 540.901 260.891Z" fill="#686565"/>
<path d="M544.944 260.891H543.632C543.436 260.891 543.277 261.049 543.277 261.245V261.749C543.277 261.945 543.436 262.103 543.632 262.103H544.944C545.14 262.103 545.299 261.945 545.299 261.749V261.245C545.299 261.049 545.14 260.891 544.944 260.891Z" fill="#686565"/>
<path d="M548.988 260.891H547.676C547.48 260.891 547.321 261.049 547.321 261.245V261.749C547.321 261.945 547.48 262.103 547.676 262.103H548.988C549.184 262.103 549.343 261.945 549.343 261.749V261.245C549.343 261.049 549.184 260.891 548.988 260.891Z" fill="#686565"/>
<path d="M553.031 260.891H551.719C551.523 260.891 551.364 261.049 551.364 261.245V261.749C551.364 261.945 551.523 262.103 551.719 262.103H553.031C553.227 262.103 553.386 261.945 553.386 261.749V261.245C553.386 261.049 553.227 260.891 553.031 260.891Z" fill="#686565"/>
<path d="M557.074 260.891H555.762C555.566 260.891 555.407 261.049 555.407 261.245V261.749C555.407 261.945 555.566 262.103 555.762 262.103H557.074C557.27 262.103 557.429 261.945 557.429 261.749V261.245C557.429 261.049 557.27 260.891 557.074 260.891Z" fill="#686565"/>
<path d="M561.117 260.891H559.805C559.609 260.891 559.45 261.049 559.45 261.245V261.749C559.45 261.945 559.609 262.103 559.805 262.103H561.117C561.313 262.103 561.472 261.945 561.472 261.749V261.245C561.472 261.049 561.313 260.891 561.117 260.891Z" fill="#686565"/>
<path d="M565.16 260.891H563.848C563.652 260.891 563.493 261.049 563.493 261.245V261.749C563.493 261.945 563.652 262.103 563.848 262.103H565.16C565.356 262.103 565.515 261.945 565.515 261.749V261.245C565.515 261.049 565.356 260.891 565.16 260.891Z" fill="#686565"/>
<path d="M569.203 260.891H567.891C567.695 260.891 567.536 261.049 567.536 261.245V261.749C567.536 261.945 567.695 262.103 567.891 262.103H569.203C569.399 262.103 569.558 261.945 569.558 261.749V261.245C569.558 261.049 569.399 260.891 569.203 260.891Z" fill="#686565"/>
<path d="M573.246 260.891H571.934C571.738 260.891 571.579 261.049 571.579 261.245V261.749C571.579 261.945 571.738 262.103 571.934 262.103H573.246C573.442 262.103 573.601 261.945 573.601 261.749V261.245C573.601 261.049 573.442 260.891 573.246 260.891Z" fill="#686565"/>
<path d="M577.29 260.891H575.978C575.782 260.891 575.623 261.049 575.623 261.245V261.749C575.623 261.945 575.782 262.103 575.978 262.103H577.29C577.486 262.103 577.645 261.945 577.645 261.749V261.245C577.645 261.049 577.486 260.891 577.29 260.891Z" fill="#686565"/>
<path d="M581.333 260.891H580.021C579.825 260.891 579.666 261.049 579.666 261.245V261.749C579.666 261.945 579.825 262.103 580.021 262.103H581.333C581.529 262.103 581.688 261.945 581.688 261.749V261.245C581.688 261.049 581.529 260.891 581.333 260.891Z" fill="#686565"/>
<path d="M585.376 260.891H584.064C583.868 260.891 583.709 261.049 583.709 261.245V261.749C583.709 261.945 583.868 262.103 584.064 262.103H585.376C585.572 262.103 585.731 261.945 585.731 261.749V261.245C585.731 261.049 585.572 260.891 585.376 260.891Z" fill="#686565"/>
<path d="M589.419 260.891H588.107C587.911 260.891 587.752 261.049 587.752 261.245V261.749C587.752 261.945 587.911 262.103 588.107 262.103H589.419C589.615 262.103 589.774 261.945 589.774 261.749V261.245C589.774 261.049 589.615 260.891 589.419 260.891Z" fill="#686565"/>
<path d="M593.462 260.891H592.15C591.954 260.891 591.795 261.049 591.795 261.245V261.749C591.795 261.945 591.954 262.103 592.15 262.103H593.462C593.658 262.103 593.816 261.945 593.816 261.749V261.245C593.816 261.049 593.658 260.891 593.462 260.891Z" fill="#686565"/>
<path d="M597.505 260.891H596.193C595.997 260.891 595.838 261.049 595.838 261.245V261.749C595.838 261.945 595.997 262.103 596.193 262.103H597.505C597.701 262.103 597.859 261.945 597.859 261.749V261.245C597.859 261.049 597.701 260.891 597.505 260.891Z" fill="#686565"/>
<path d="M536.81 262.912H535.498C535.302 262.912 535.144 263.071 535.144 263.267V263.77C535.144 263.966 535.302 264.125 535.498 264.125H536.81C537.006 264.125 537.165 263.966 537.165 263.77V263.267C537.165 263.071 537.006 262.912 536.81 262.912Z" fill="#686565"/>
<path d="M540.853 262.912H539.541C539.345 262.912 539.187 263.071 539.187 263.267V263.77C539.187 263.966 539.345 264.125 539.541 264.125H540.853C541.049 264.125 541.208 263.966 541.208 263.77V263.267C541.208 263.071 541.049 262.912 540.853 262.912Z" fill="#686565"/>
<path d="M544.897 262.912H543.585C543.389 262.912 543.23 263.071 543.23 263.267V263.77C543.23 263.966 543.389 264.125 543.585 264.125H544.897C545.093 264.125 545.252 263.966 545.252 263.77V263.267C545.252 263.071 545.093 262.912 544.897 262.912Z" fill="#686565"/>
<path d="M548.94 262.912H547.628C547.432 262.912 547.273 263.071 547.273 263.267V263.77C547.273 263.966 547.432 264.125 547.628 264.125H548.94C549.136 264.125 549.295 263.966 549.295 263.77V263.267C549.295 263.071 549.136 262.912 548.94 262.912Z" fill="#686565"/>
<path d="M552.983 262.911H551.671C551.475 262.911 551.316 263.07 551.316 263.266V263.769C551.316 263.965 551.475 264.124 551.671 264.124H552.983C553.179 264.124 553.338 263.965 553.338 263.769V263.266C553.338 263.07 553.179 262.911 552.983 262.911Z" fill="#686565"/>
<path d="M557.026 262.911H555.714C555.518 262.911 555.359 263.07 555.359 263.266V263.769C555.359 263.965 555.518 264.124 555.714 264.124H557.026C557.222 264.124 557.381 263.965 557.381 263.769V263.266C557.381 263.07 557.222 262.911 557.026 262.911Z" fill="#686565"/>
<path d="M561.069 262.911H559.757C559.561 262.911 559.402 263.07 559.402 263.266V263.769C559.402 263.965 559.561 264.124 559.757 264.124H561.069C561.265 264.124 561.424 263.965 561.424 263.769V263.266C561.424 263.07 561.265 262.911 561.069 262.911Z" fill="#686565"/>
<path d="M565.112 262.911H563.8C563.604 262.911 563.446 263.07 563.446 263.266V263.769C563.446 263.965 563.604 264.124 563.8 264.124H565.112C565.308 264.124 565.467 263.965 565.467 263.769V263.266C565.467 263.07 565.308 262.911 565.112 262.911Z" fill="#686565"/>
<path d="M569.155 262.912H567.843C567.647 262.912 567.488 263.071 567.488 263.267V263.77C567.488 263.966 567.647 264.125 567.843 264.125H569.155C569.351 264.125 569.51 263.966 569.51 263.77V263.267C569.51 263.071 569.351 262.912 569.155 262.912Z" fill="#686565"/>
<path d="M573.198 262.912H571.886C571.69 262.912 571.531 263.071 571.531 263.267V263.77C571.531 263.966 571.69 264.125 571.886 264.125H573.198C573.394 264.125 573.553 263.966 573.553 263.77V263.267C573.553 263.071 573.394 262.912 573.198 262.912Z" fill="#686565"/>
<path d="M577.242 262.912H575.93C575.734 262.912 575.575 263.071 575.575 263.267V263.77C575.575 263.966 575.734 264.125 575.93 264.125H577.242C577.438 264.125 577.597 263.966 577.597 263.77V263.267C577.597 263.071 577.438 262.912 577.242 262.912Z" fill="#686565"/>
<path d="M581.285 262.912H579.973C579.777 262.912 579.618 263.071 579.618 263.267V263.77C579.618 263.966 579.777 264.125 579.973 264.125H581.285C581.481 264.125 581.64 263.966 581.64 263.77V263.267C581.64 263.071 581.481 262.912 581.285 262.912Z" fill="#686565"/>
<path d="M585.328 262.911H584.016C583.82 262.911 583.661 263.07 583.661 263.266V263.769C583.661 263.965 583.82 264.124 584.016 264.124H585.328C585.524 264.124 585.683 263.965 585.683 263.769V263.266C585.683 263.07 585.524 262.911 585.328 262.911Z" fill="#686565"/>
<path d="M589.371 262.911H588.059C587.863 262.911 587.704 263.07 587.704 263.266V263.769C587.704 263.965 587.863 264.124 588.059 264.124H589.371C589.567 264.124 589.726 263.965 589.726 263.769V263.266C589.726 263.07 589.567 262.911 589.371 262.911Z" fill="#686565"/>
<path d="M593.414 262.911H592.102C591.906 262.911 591.747 263.07 591.747 263.266V263.769C591.747 263.965 591.906 264.124 592.102 264.124H593.414C593.61 264.124 593.769 263.965 593.769 263.769V263.266C593.769 263.07 593.61 262.911 593.414 262.911Z" fill="#686565"/>
<path d="M597.457 262.912H596.145C595.949 262.912 595.79 263.071 595.79 263.267V263.77C595.79 263.966 595.949 264.125 596.145 264.125H597.457C597.653 264.125 597.812 263.966 597.812 263.77V263.267C597.812 263.071 597.653 262.912 597.457 262.912Z" fill="#686565"/>
<path d="M570.369 265.337H554.905C554.71 265.337 554.551 265.496 554.551 265.692V266.195C554.551 266.391 554.71 266.55 554.905 266.55H570.369C570.564 266.55 570.723 266.391 570.723 266.195V265.692C570.723 265.496 570.564 265.337 570.369 265.337Z" fill="#686565"/>
<path d="M615.287 167.66H512.058C511.95 167.658 511.848 167.613 511.773 167.537C511.698 167.46 511.656 167.357 511.656 167.249C511.656 167.142 511.698 167.039 511.773 166.962C511.848 166.886 511.95 166.841 512.058 166.839H615.287C615.395 166.841 615.497 166.886 615.572 166.962C615.647 167.039 615.689 167.142 615.689 167.249C615.689 167.357 615.647 167.46 615.572 167.537C615.497 167.613 615.395 167.658 615.287 167.66Z" fill="#CACACA"/>
<path d="M519.085 164.743C520.413 164.743 521.49 163.642 521.49 162.284C521.49 160.926 520.413 159.825 519.085 159.825C517.756 159.825 516.679 160.926 516.679 162.284C516.679 163.642 517.756 164.743 519.085 164.743Z" fill="#DCC0E7"/>
<path d="M527.396 164.743C528.725 164.743 529.802 163.642 529.802 162.284C529.802 160.926 528.725 159.825 527.396 159.825C526.067 159.825 524.99 160.926 524.99 162.284C524.99 163.642 526.067 164.743 527.396 164.743Z" fill="#DCC0E7"/>
<path d="M535.707 164.743C537.035 164.743 538.112 163.642 538.112 162.284C538.112 160.926 537.035 159.825 535.707 159.825C534.378 159.825 533.301 160.926 533.301 162.284C533.301 163.642 534.378 164.743 535.707 164.743Z" fill="#DCC0E7"/>
<path d="M610.283 160.434H604.38C604.263 160.437 604.151 160.485 604.069 160.568C603.987 160.652 603.941 160.764 603.941 160.881C603.941 160.998 603.987 161.111 604.069 161.194C604.151 161.278 604.263 161.326 604.38 161.328H610.283C610.4 161.326 610.512 161.278 610.594 161.194C610.676 161.111 610.722 160.998 610.722 160.881C610.722 160.764 610.676 160.652 610.594 160.568C610.512 160.485 610.4 160.437 610.283 160.434Z" fill="#DCC0E7"/>
<path d="M610.283 162.112H604.38C604.263 162.115 604.151 162.163 604.069 162.246C603.988 162.33 603.942 162.442 603.942 162.559C603.942 162.676 603.988 162.788 604.069 162.872C604.151 162.956 604.263 163.004 604.38 163.006H610.283C610.4 163.004 610.512 162.956 610.594 162.872C610.676 162.788 610.722 162.676 610.722 162.559C610.722 162.442 610.676 162.33 610.594 162.246C610.512 162.163 610.4 162.115 610.283 162.112Z" fill="#DCC0E7"/>
<path d="M610.283 163.788H604.38C604.263 163.79 604.151 163.839 604.069 163.922C603.987 164.006 603.941 164.118 603.941 164.235C603.941 164.352 603.987 164.464 604.069 164.548C604.151 164.632 604.263 164.68 604.38 164.682H610.283C610.4 164.68 610.512 164.632 610.594 164.548C610.676 164.464 610.722 164.352 610.722 164.235C610.722 164.118 610.676 164.006 610.594 163.922C610.512 163.839 610.4 163.79 610.283 163.788Z" fill="#DCC0E7"/>
<path d="M572.007 190.022H559.108C558.139 190.022 557.354 190.808 557.354 191.777C557.354 192.745 558.139 193.531 559.108 193.531H572.007C572.976 193.531 573.761 192.745 573.761 191.777C573.761 190.808 572.976 190.022 572.007 190.022Z" fill="#F68219"/>
<path d="M580.341 197.039H550.776C549.807 197.039 549.021 197.824 549.021 198.793C549.021 199.762 549.807 200.547 550.776 200.547H580.341C581.309 200.547 582.095 199.762 582.095 198.793C582.095 197.824 581.309 197.039 580.341 197.039Z" fill="#686565"/>
<path d="M580.341 204.056H550.776C549.807 204.056 549.021 204.841 549.021 205.81C549.021 206.778 549.807 207.564 550.776 207.564H580.341C581.309 207.564 582.095 206.778 582.095 205.81C582.095 204.841 581.309 204.056 580.341 204.056Z" fill="#686565"/>
<path d="M381.157 313.363L375.211 310.519L383.379 285.667L392.156 289.864L381.157 313.363Z" fill="#FFB6B6"/>
<path d="M421.024 309.356C420.592 309.627 420.159 309.894 419.723 310.16C418.853 310.693 417.975 311.217 417.097 311.732C416.656 311.99 416.211 312.248 415.77 312.501V312.514L415.743 312.518L415.735 312.523L415.062 312.689L414.097 310.138L413.651 308.963L413.022 307.299L411.869 304.255L405.798 288.227L415.237 285.899L415.591 287.345H415.595L415.77 288.061L419.067 301.434L419.74 304.168L419.762 304.251L420.168 305.884L420.518 307.299L420.906 308.88L421.024 309.356Z" fill="#FFB6B6"/>
<path d="M477.331 253.069C476.732 254.029 476.121 254.986 475.505 255.934C474.36 257.698 473.185 259.436 471.98 261.148C471.98 261.153 471.976 261.153 471.971 261.157C471.268 261.808 470.491 262.376 469.656 262.847C469.621 262.873 469.582 262.891 469.547 262.913C468.932 263.252 468.278 263.515 467.599 263.694C467.354 263.756 467.105 263.817 466.861 263.878C465.979 264.087 465.105 264.266 464.236 264.424C462.689 264.699 461.161 264.895 459.641 265.018C459.518 265.031 459.396 265.039 459.274 265.048C453.023 265.507 446.939 264.769 440.588 263.559C437.452 262.965 434.25 262.253 430.935 261.515C429.852 261.27 428.764 261.03 427.664 260.79C427.581 260.773 427.493 260.751 427.406 260.733C425.833 260.388 424.235 260.048 422.597 259.711C420.535 259.288 418.408 258.877 416.198 258.488L416.355 261.602C416.486 263.998 416.984 266.359 417.831 268.603C418.775 271.363 419.522 273.547 417.945 278.094L417.185 280.295C417.579 281.388 417.714 282.557 417.58 283.711C417.446 284.865 417.046 285.973 416.412 286.946L416.259 287.178L422.597 303.21L423.007 304.25H419.762L415.77 304.254H409.004L399.242 284.671L398.774 283.736V283.688L399.783 246.055C399.797 245.723 399.823 245.386 399.866 245.055C400.044 243.546 400.521 242.087 401.269 240.765C402.016 239.442 403.02 238.281 404.221 237.351C405.372 236.451 406.69 235.79 408.099 235.404C409.508 235.019 410.98 234.917 412.428 235.106L415.77 235.538L422.597 236.42L427.406 237.045L427.502 237.058L441.684 238.892L442.702 234.743L442.89 234.673L448.861 232.485L469.512 224.917L469.564 224.899L470.923 224.401L471.084 224.663C471.132 224.742 471.181 224.821 471.224 224.899C472.567 227.306 473.66 229.843 474.487 232.472C475.878 236.767 477.022 241.137 477.916 245.561C477.955 245.753 477.99 245.928 478.021 246.085L478.034 246.133C478.047 246.208 478.056 246.256 478.06 246.269C478.469 248.559 478.216 250.918 477.331 253.069Z" fill="#2F2E41"/>
<path d="M478.203 239.2C478.137 238.921 478.054 238.637 477.967 238.362C477.273 236.278 476.466 234.234 475.547 232.239C474.516 229.968 473.28 227.535 471.808 224.902C471.096 223.626 470.33 222.3 469.511 220.923C469.1 220.233 468.674 219.53 468.231 218.813C468.214 218.781 468.195 218.748 468.174 218.717L468.047 218.508L447.615 221.242L440.006 222.259L439.552 226.05L439.442 226.989C439.438 226.989 439.438 226.989 439.442 226.994L439.137 229.553V229.557L438.73 232.938L438.695 232.933L427.404 231.47L415.768 229.963L409.518 229.155C408.07 228.967 406.598 229.068 405.189 229.453C403.78 229.839 402.462 230.501 401.311 231.4C400.11 232.331 399.107 233.492 398.359 234.815C397.611 236.137 397.134 237.595 396.956 239.104C396.917 239.41 396.891 239.724 396.877 240.034L390.981 254.006C387.452 262.361 385.205 271.201 384.315 280.227L379.991 294.05L380.607 294.107L389.771 294.958L392.191 295.185L397.519 287.407C398.127 286.521 398.703 285.608 399.24 284.673C400.125 283.147 400.911 281.565 401.595 279.939L413.122 252.512C414.013 252.665 414.895 252.81 415.768 252.949C419.809 253.604 423.687 254.138 427.404 254.552C439.49 255.901 449.956 256.006 459.272 254.862C461.889 254.543 464.418 254.124 466.859 253.604C467.755 253.416 468.639 253.214 469.511 252.997C469.716 252.949 469.917 252.901 470.118 252.848C471.923 252.383 473.583 251.472 474.945 250.199C476.307 248.927 477.328 247.333 477.914 245.564C478.615 243.513 478.715 241.306 478.203 239.2Z" fill="#2F2E41"/>
<path d="M383.058 309.304L376.624 306.221L375.615 305.736L374.003 309.693L362.751 312.169C362.195 312.291 361.692 312.588 361.317 313.016C360.941 313.444 360.712 313.981 360.663 314.548C360.614 315.116 360.748 315.684 361.045 316.17C361.343 316.656 361.787 317.034 362.315 317.249L373.309 321.734L376.799 318.594L375.942 322.808L380.083 324.498L384.621 310.056L383.058 309.304Z" fill="#2F2E41"/>
<path d="M422.597 303.211L423.008 304.25H422.597V303.211Z" fill="#2F2E41"/>
<path d="M420.357 304.472L413.615 306.807L412.557 307.172L414.196 311.118L407.944 320.794C407.634 321.272 407.486 321.836 407.52 322.405C407.554 322.973 407.769 323.516 408.134 323.953C408.498 324.391 408.993 324.7 409.546 324.836C410.099 324.972 410.681 324.928 411.207 324.71L422.176 320.163L422.446 315.476L424.803 319.073L428.935 317.361L421.996 303.905L420.357 304.472Z" fill="#2F2E41"/>
<path d="M379.439 159.969C379.759 160.592 380.211 161.137 380.764 161.566C381.317 161.995 381.958 162.297 382.64 162.452C383.323 162.607 384.031 162.61 384.715 162.461C385.399 162.313 386.042 162.016 386.599 161.592L400.775 171.001L400.802 162.16L387.337 154.58C386.562 153.692 385.489 153.119 384.32 152.969C383.151 152.819 381.968 153.103 380.994 153.767C380.021 154.431 379.325 155.43 379.038 156.573C378.751 157.716 378.894 158.924 379.439 159.969Z" fill="#FFB6B6"/>
<path d="M390.029 164.055L396.643 156.531L423.574 172.517L459.273 169.248C461.038 169.086 462.816 169.315 464.482 169.918C466.148 170.521 467.661 171.484 468.914 172.737C470.166 173.991 471.127 175.504 471.729 177.171C472.33 178.838 472.557 180.616 472.394 182.38C472.096 185.567 470.545 188.504 468.083 190.549C465.621 192.594 462.448 193.578 459.261 193.287L419.055 189.566L390.029 164.055Z" fill="#DCC0E7"/>
<path d="M472.887 164.171L472.825 164.093C467.803 163.597 462.745 164.569 458.264 166.891C453.783 169.212 450.072 172.783 447.581 177.171L444.551 182.508C434.752 194.487 441.873 202.748 442.299 203.976L438.897 219.658L439.66 224.907L440.041 226.466L478.869 246.752C481.08 236.132 478.942 227.082 470.889 220.168L478.681 195.925C480.409 190.565 480.784 184.861 479.773 179.32C478.762 173.78 476.396 168.576 472.887 164.171Z" fill="#DCC0E7"/>
<path d="M442.013 281.947H429.558C428.873 281.946 428.211 281.699 427.694 281.249C427.177 280.8 426.839 280.179 426.743 279.501C425.974 273.843 425.974 268.106 426.743 262.448C426.838 261.778 427.169 261.164 427.676 260.715C428.183 260.267 428.833 260.015 429.51 260.003C433.429 258.246 437.649 258.247 442.056 260.003C442.466 260.008 442.87 260.103 443.24 260.281C443.61 260.46 443.936 260.717 444.196 261.034C444.466 261.365 444.66 261.752 444.763 262.166C444.866 262.581 444.875 263.014 444.789 263.432C443.789 268.411 443.789 273.538 444.789 278.517C444.875 278.935 444.866 279.368 444.763 279.783C444.66 280.197 444.466 280.584 444.196 280.915C443.931 281.238 443.598 281.498 443.221 281.677C442.843 281.855 442.43 281.948 442.013 281.947Z" fill="#F68219"/>
<path d="M440.708 266.504H430.225C430.139 266.504 430.053 266.488 429.973 266.455C429.893 266.423 429.82 266.375 429.758 266.314C429.697 266.253 429.648 266.18 429.615 266.101C429.582 266.021 429.564 265.935 429.564 265.848C429.564 265.762 429.582 265.676 429.615 265.596C429.648 265.517 429.697 265.444 429.758 265.383C429.82 265.322 429.893 265.274 429.973 265.242C430.053 265.209 430.139 265.193 430.225 265.193H440.708C440.795 265.193 440.881 265.209 440.961 265.242C441.041 265.274 441.114 265.322 441.175 265.383C441.237 265.444 441.286 265.517 441.319 265.596C441.352 265.676 441.369 265.762 441.369 265.848C441.369 265.935 441.352 266.021 441.319 266.101C441.286 266.18 441.237 266.253 441.175 266.314C441.114 266.375 441.041 266.423 440.961 266.455C440.881 266.488 440.795 266.504 440.708 266.504Z" fill="white"/>
<path d="M440.708 271.745H430.225C430.139 271.746 430.053 271.729 429.973 271.697C429.893 271.664 429.82 271.616 429.758 271.555C429.697 271.494 429.648 271.422 429.615 271.342C429.582 271.262 429.564 271.176 429.564 271.09C429.564 271.003 429.582 270.918 429.615 270.838C429.648 270.758 429.697 270.685 429.758 270.624C429.82 270.564 429.893 270.515 429.973 270.483C430.053 270.45 430.139 270.434 430.225 270.435H440.708C440.795 270.434 440.881 270.45 440.961 270.483C441.041 270.515 441.114 270.564 441.175 270.624C441.237 270.685 441.286 270.758 441.319 270.838C441.352 270.918 441.369 271.003 441.369 271.09C441.369 271.176 441.352 271.262 441.319 271.342C441.286 271.422 441.237 271.494 441.175 271.555C441.114 271.616 441.041 271.664 440.961 271.697C440.881 271.729 440.795 271.746 440.708 271.745Z" fill="white"/>
<path d="M440.709 276.986H430.226C430.139 276.987 430.053 276.97 429.973 276.938C429.893 276.905 429.82 276.857 429.759 276.796C429.697 276.735 429.648 276.663 429.615 276.583C429.582 276.503 429.564 276.417 429.564 276.331C429.564 276.244 429.582 276.159 429.615 276.079C429.648 275.999 429.697 275.926 429.759 275.865C429.82 275.805 429.893 275.756 429.973 275.724C430.053 275.691 430.139 275.675 430.226 275.676H440.709C440.795 275.675 440.881 275.691 440.961 275.724C441.042 275.756 441.114 275.805 441.176 275.865C441.237 275.926 441.286 275.999 441.32 276.079C441.353 276.159 441.37 276.244 441.37 276.331C441.37 276.417 441.353 276.503 441.32 276.583C441.286 276.663 441.237 276.735 441.176 276.796C441.114 276.857 441.042 276.905 440.961 276.938C440.881 276.97 440.795 276.987 440.709 276.986Z" fill="white"/>
<path d="M381.722 164.285H369.268C368.583 164.284 367.921 164.037 367.403 163.587C366.886 163.138 366.549 162.517 366.453 161.839C365.683 156.181 365.683 150.444 366.453 144.786C366.548 144.116 366.878 143.502 367.386 143.053C367.893 142.605 368.543 142.353 369.22 142.341C373.138 140.584 377.359 140.585 381.765 142.341C382.176 142.346 382.58 142.441 382.95 142.619C383.319 142.798 383.645 143.055 383.905 143.372C384.176 143.703 384.37 144.09 384.473 144.504C384.575 144.919 384.584 145.352 384.499 145.77C383.499 150.749 383.499 155.876 384.499 160.855C384.584 161.273 384.575 161.706 384.473 162.121C384.37 162.535 384.176 162.922 383.905 163.253C383.641 163.576 383.308 163.836 382.93 164.015C382.553 164.193 382.14 164.286 381.722 164.285Z" fill="#F68219"/>
<path d="M380.418 148.842H369.935C369.849 148.843 369.763 148.827 369.683 148.794C369.602 148.762 369.53 148.713 369.468 148.653C369.407 148.592 369.358 148.519 369.325 148.439C369.291 148.359 369.274 148.274 369.274 148.187C369.274 148.101 369.291 148.015 369.325 147.935C369.358 147.855 369.407 147.783 369.468 147.722C369.53 147.661 369.602 147.613 369.683 147.58C369.763 147.548 369.849 147.531 369.935 147.532H380.418C380.505 147.531 380.59 147.548 380.671 147.58C380.751 147.613 380.824 147.661 380.885 147.722C380.946 147.783 380.995 147.855 381.029 147.935C381.062 148.015 381.079 148.101 381.079 148.187C381.079 148.274 381.062 148.359 381.029 148.439C380.995 148.519 380.946 148.592 380.885 148.653C380.824 148.713 380.751 148.762 380.671 148.794C380.59 148.827 380.505 148.843 380.418 148.842Z" fill="white"/>
<path d="M380.418 154.083H369.935C369.849 154.083 369.763 154.067 369.683 154.035C369.602 154.002 369.53 153.954 369.468 153.893C369.407 153.832 369.358 153.759 369.325 153.68C369.291 153.6 369.274 153.514 369.274 153.428C369.274 153.341 369.291 153.255 369.325 153.176C369.358 153.096 369.407 153.023 369.468 152.962C369.53 152.901 369.602 152.853 369.683 152.821C369.763 152.788 369.849 152.772 369.935 152.772H380.418C380.505 152.772 380.59 152.788 380.671 152.821C380.751 152.853 380.824 152.901 380.885 152.962C380.946 153.023 380.995 153.096 381.029 153.176C381.062 153.255 381.079 153.341 381.079 153.428C381.079 153.514 381.062 153.6 381.029 153.68C380.995 153.759 380.946 153.832 380.885 153.893C380.824 153.954 380.751 154.002 380.671 154.035C380.59 154.067 380.505 154.083 380.418 154.083Z" fill="white"/>
<path d="M380.418 159.324H369.935C369.848 159.325 369.762 159.308 369.682 159.276C369.602 159.243 369.529 159.195 369.468 159.134C369.406 159.073 369.357 159.001 369.324 158.921C369.291 158.841 369.273 158.755 369.273 158.669C369.273 158.582 369.291 158.497 369.324 158.417C369.357 158.337 369.406 158.264 369.468 158.203C369.529 158.142 369.602 158.094 369.682 158.062C369.762 158.029 369.848 158.013 369.935 158.014H380.418C380.504 158.013 380.59 158.029 380.67 158.062C380.751 158.094 380.823 158.142 380.885 158.203C380.946 158.264 380.995 158.337 381.029 158.417C381.062 158.497 381.079 158.582 381.079 158.669C381.079 158.755 381.062 158.841 381.029 158.921C380.995 159.001 380.946 159.073 380.885 159.134C380.823 159.195 380.751 159.243 380.67 159.276C380.59 159.308 380.504 159.325 380.418 159.324Z" fill="white"/>
<path d="M163.078 196.243H150.623C149.938 196.242 149.276 195.995 148.759 195.545C148.242 195.096 147.904 194.475 147.808 193.797C147.039 188.139 147.039 182.402 147.808 176.744C147.903 176.074 148.234 175.459 148.741 175.011C149.248 174.563 149.899 174.311 150.575 174.299C154.494 172.542 158.714 172.543 163.121 174.298C163.531 174.304 163.936 174.399 164.305 174.577C164.675 174.756 165.001 175.013 165.261 175.33C165.532 175.661 165.726 176.048 165.828 176.462C165.931 176.877 165.94 177.31 165.855 177.728C164.854 182.707 164.854 187.834 165.855 192.813C165.94 193.231 165.931 193.664 165.828 194.078C165.726 194.493 165.532 194.88 165.261 195.211C164.997 195.534 164.664 195.794 164.286 195.973C163.908 196.151 163.496 196.243 163.078 196.243Z" fill="#F68219"/>
<path d="M161.774 180.799H151.291C151.204 180.8 151.119 180.784 151.038 180.751C150.958 180.719 150.885 180.671 150.824 180.61C150.762 180.549 150.714 180.476 150.68 180.396C150.647 180.317 150.63 180.231 150.63 180.144C150.63 180.058 150.647 179.972 150.68 179.892C150.714 179.812 150.762 179.74 150.824 179.679C150.885 179.618 150.958 179.57 151.038 179.537C151.119 179.505 151.204 179.489 151.291 179.489H161.774C161.86 179.489 161.946 179.505 162.026 179.537C162.106 179.57 162.179 179.618 162.241 179.679C162.302 179.74 162.351 179.812 162.384 179.892C162.418 179.972 162.435 180.058 162.435 180.144C162.435 180.231 162.418 180.317 162.384 180.396C162.351 180.476 162.302 180.549 162.241 180.61C162.179 180.671 162.106 180.719 162.026 180.751C161.946 180.784 161.86 180.8 161.774 180.799Z" fill="white"/>
<path d="M161.773 186.041H151.291C151.204 186.041 151.118 186.025 151.038 185.992C150.958 185.96 150.885 185.912 150.824 185.851C150.762 185.79 150.713 185.717 150.68 185.638C150.647 185.558 150.63 185.472 150.63 185.385C150.63 185.299 150.647 185.213 150.68 185.133C150.713 185.054 150.762 184.981 150.824 184.92C150.885 184.859 150.958 184.811 151.038 184.779C151.118 184.746 151.204 184.73 151.291 184.73H161.773C161.86 184.73 161.946 184.746 162.026 184.779C162.106 184.811 162.179 184.859 162.241 184.92C162.302 184.981 162.351 185.054 162.384 185.133C162.417 185.213 162.434 185.299 162.434 185.385C162.434 185.472 162.417 185.558 162.384 185.638C162.351 185.717 162.302 185.79 162.241 185.851C162.179 185.912 162.106 185.96 162.026 185.992C161.946 186.025 161.86 186.041 161.773 186.041Z" fill="white"/>
<path d="M161.773 191.281H151.29C151.204 191.282 151.118 191.265 151.038 191.233C150.957 191.2 150.884 191.152 150.823 191.091C150.761 191.03 150.713 190.958 150.679 190.878C150.646 190.798 150.629 190.712 150.629 190.626C150.629 190.539 150.646 190.454 150.679 190.374C150.713 190.294 150.761 190.221 150.823 190.16C150.884 190.1 150.957 190.051 151.038 190.019C151.118 189.986 151.204 189.97 151.29 189.971H161.773C161.86 189.97 161.946 189.986 162.026 190.019C162.106 190.051 162.179 190.1 162.24 190.16C162.302 190.221 162.351 190.294 162.384 190.374C162.417 190.454 162.435 190.539 162.435 190.626C162.435 190.712 162.417 190.798 162.384 190.878C162.351 190.958 162.302 191.03 162.24 191.091C162.179 191.152 162.106 191.2 162.026 191.233C161.946 191.265 161.86 191.282 161.773 191.281Z" fill="white"/>
<path d="M445.662 266.027C446.265 265.671 446.782 265.187 447.178 264.61C447.573 264.032 447.837 263.375 447.951 262.684C448.065 261.994 448.026 261.287 447.838 260.613C447.649 259.939 447.314 259.314 446.858 258.784L455.411 244.076L446.583 244.574L439.814 258.464C438.973 259.29 438.464 260.395 438.384 261.571C438.304 262.746 438.658 263.911 439.379 264.843C440.1 265.775 441.137 266.41 442.295 266.629C443.454 266.847 444.652 266.633 445.662 266.027Z" fill="#FFB6B6"/>
<path d="M449.113 255.214L441.21 249.059L455.572 221.23L450.19 185.792C449.924 184.041 450.047 182.252 450.55 180.553C451.054 178.854 451.925 177.287 453.102 175.963C454.279 174.638 455.733 173.589 457.361 172.89C458.989 172.191 460.752 171.858 462.523 171.917C465.721 172.026 468.746 173.399 470.933 175.735C473.121 178.071 474.292 181.179 474.19 184.378L472.86 224.729L449.113 255.214Z" fill="#DCC0E7"/>
<path d="M67.108 247.611C67.6058 247.11 67.9878 246.507 68.2272 245.843C68.4666 245.179 68.5575 244.471 68.4935 243.768C68.4295 243.066 68.2121 242.385 67.8567 241.776C67.5014 241.166 67.0166 240.641 66.4366 240.239L74.1233 202.064L65.6348 204.79L59.482 241.714C58.8709 242.733 58.6549 243.941 58.8749 245.109C59.095 246.276 59.7357 247.322 60.6756 248.049C61.6156 248.776 62.7896 249.133 63.9751 249.052C65.1606 248.971 66.2754 248.458 67.108 247.611Z" fill="#9E616A"/>
<path d="M78.4577 166.843L73.191 162.868C73.191 162.868 68.5449 162.539 67.722 170.917C66.8991 179.294 65.2095 195.621 65.2095 195.621L57.1504 232.943L68.3064 235.392L76.9384 195.114L82.1167 183.153L78.4577 166.843Z" fill="#DCC0E7"/>
<path d="M69.7754 227.787L99.4537 227.292L101.927 207.015H69.7754V227.787Z" fill="#9E616A"/>
<path d="M96.4858 352.569H103.337L106.596 326.146L96.4844 326.146L96.4858 352.569Z" fill="#9E616A"/>
<path d="M53.5625 353.204L60.4138 353.156L63.4879 326.71L54.5773 328.754L53.5625 353.204Z" fill="#9E616A"/>
<path d="M74.9918 189.552L73.4395 193.588L73.7496 197.624L104.132 208.146L102.625 190.483L99.2097 186.447L74.9918 189.552Z" fill="#FFB6B6"/>
<path d="M88.0264 153.233C94.0195 153.233 98.8779 148.375 98.8779 142.382C98.8779 136.39 94.0195 131.532 88.0264 131.532C82.0332 131.532 77.1748 136.39 77.1748 142.382C77.1748 148.375 82.0332 153.233 88.0264 153.233Z" fill="#9E616A"/>
<path d="M94.7866 349.189L105.617 348.543V353.183L115.914 360.293C116.423 360.644 116.806 361.149 117.007 361.733C117.209 362.317 117.218 362.951 117.035 363.541C116.851 364.131 116.483 364.647 115.985 365.013C115.487 365.379 114.885 365.576 114.267 365.576H101.373L99.1504 360.987L98.2826 365.576H93.4209L94.7866 349.189Z" fill="#2F2E41"/>
<path d="M51.2187 349.84L62.0445 349.118L62.077 353.758L72.4235 360.796C72.9346 361.144 73.3211 361.646 73.5268 362.228C73.7324 362.811 73.7464 363.444 73.5666 364.036C73.3867 364.627 73.0226 365.145 72.5273 365.515C72.0321 365.885 71.4316 366.086 70.8135 366.091L57.9196 366.181L55.6649 361.607L54.8293 366.203L49.9678 366.237L51.2187 349.84Z" fill="#2F2E41"/>
<path d="M51.4312 332.944L56.4202 293.072L62.3558 251.032C58.009 242.961 67.7968 217.896 67.7968 217.896L69.1784 217.962L100.45 223.861L100.443 223.83C106.839 241.273 108.958 249.891 108.608 268.465L107.347 335.239H107.743C108.399 335.239 109.028 335.499 109.492 335.963C109.955 336.427 110.216 337.056 110.216 337.711C110.216 338.367 109.955 338.996 109.492 339.46C109.028 339.924 108.399 340.184 107.743 340.184H95.3768C95.0517 340.185 94.7296 340.121 94.429 339.997C94.1285 339.873 93.8553 339.691 93.6252 339.462C93.3951 339.232 93.2126 338.959 93.088 338.659C92.9635 338.358 92.8994 338.037 92.8994 337.711C92.8994 337.386 92.9635 337.064 93.088 336.764C93.2126 336.464 93.3951 336.191 93.6252 335.961C93.8553 335.732 94.1285 335.55 94.429 335.426C94.7296 335.301 95.0517 335.238 95.3768 335.239H95.6956L84.3452 255.732L74.7218 289.115L63.8397 332.638C67.7968 331.649 67.1824 333.941 67.1824 335.239C67.1824 335.894 66.9219 336.523 66.458 336.987C65.9942 337.451 65.3652 337.711 64.7092 337.711H52.3433C51.7682 337.712 51.2108 337.512 50.7674 337.146C50.3239 336.78 50.0222 336.27 49.9141 335.705C49.8061 335.14 49.8985 334.556 50.1754 334.052C50.4524 333.548 50.8965 333.156 51.4312 332.944Z" fill="#2F2E41"/>
<path d="M65.3617 219.193L66.351 209.302C66.4537 208.898 66.6816 208.538 67.0019 208.272C67.3223 208.005 67.7186 207.848 68.1342 207.821C68.5464 203.109 70.2806 182.781 70.3842 181.894L70.3883 181.857L71.1769 165.012C71.2055 164.401 71.4585 163.821 71.8876 163.384C72.3167 162.947 72.8917 162.683 73.5029 162.643L77.6682 162.371C77.7253 162.369 77.7795 162.345 77.8192 162.304C77.8589 162.263 77.8811 162.208 77.8812 162.151C77.8812 161.691 77.9718 161.235 78.1478 160.81C78.3238 160.386 78.5818 159.999 78.9071 159.674C79.2323 159.349 79.6185 159.091 80.0434 158.915C80.4684 158.739 80.9239 158.648 81.3839 158.648H93.7158C94.5145 158.649 95.2857 158.941 95.8846 159.469C96.4834 159.998 96.8688 160.726 96.9683 161.519C96.9738 161.573 96.9996 161.624 97.0407 161.66C97.0818 161.697 97.1351 161.716 97.1899 161.715H97.1914C98.5926 161.686 99.9578 162.16 101.039 163.052C102.121 163.943 102.846 165.193 103.085 166.574C104.771 176.382 108.15 198.642 106.479 211.018C105.898 215.326 107.151 211.914 107.371 215.518C107.393 215.867 107.346 216.216 107.233 216.546C107.119 216.876 106.942 217.181 106.711 217.442C107.184 217.614 107.571 217.966 107.786 218.421C108.002 218.876 108.029 219.398 107.862 219.873L108.079 219.82C108.016 220.072 107.903 220.309 107.748 220.517C107.593 220.725 107.398 220.901 107.175 221.035C106.952 221.168 106.705 221.256 106.448 221.294C106.191 221.331 105.929 221.318 105.677 221.254L73.4135 225.626C72.354 225.359 65.0946 220.253 65.3617 219.193Z" fill="#DCC0E7"/>
<path d="M151.573 178.976C151.371 179.652 151.023 180.276 150.554 180.803C150.085 181.33 149.506 181.748 148.858 182.027C148.209 182.307 147.508 182.44 146.802 182.419C146.097 182.398 145.405 182.222 144.774 181.904L132.302 193.286L130.646 184.527L142.752 175.09C143.356 174.066 144.314 173.3 145.445 172.936C146.576 172.572 147.802 172.636 148.889 173.115C149.976 173.594 150.85 174.455 151.345 175.536C151.84 176.616 151.921 177.84 151.573 178.976Z" fill="#9E616A"/>
<path d="M108.161 170.277C108.161 170.277 103.812 160.45 98.3186 162.403C92.8255 164.357 95.6617 173.892 95.6617 173.892L116.299 204.986C116.299 204.986 146.066 185.893 142.447 185.759C138.827 185.624 137.744 179.041 137.744 179.041L122.012 186.901L121.479 184.103L120.626 184.956L118.425 183.223L108.161 170.277Z" fill="#DCC0E7"/>
<path d="M463.935 159.481C472.302 159.481 479.085 152.699 479.085 144.333C479.085 135.967 472.302 129.185 463.935 129.185C455.568 129.185 448.785 135.967 448.785 144.333C448.785 152.699 455.568 159.481 463.935 159.481Z" fill="#FFB6B6"/>
<path d="M512.558 166.623C510.809 169.1 508.258 170.897 505.336 171.707C504.166 172.055 502.959 172.26 501.74 172.318C501.59 170.94 501.229 169.593 500.672 168.324C500.728 169.675 500.54 171.025 500.117 172.308C498.287 172.205 496.498 171.725 494.861 170.9C493.253 170.092 491.856 168.919 490.78 167.477C489.704 166.034 488.98 164.36 488.664 162.589C488.022 158.445 489.901 154.377 490.58 150.239C491.262 146.102 489.982 140.862 485.931 139.775C482.847 138.946 483.192 139.305 480.628 141.208C483.296 145.152 473.444 159.603 469.412 158.342C467.132 157.63 465.673 155.539 465.202 155.539C462.034 160.997 468 170.193 461.987 172.103L462.482 171.608C466.112 167.143 458.525 157.694 462.155 153.23C463.168 151.981 464.246 150.501 463.947 148.922C463.663 147.42 461.28 146.626 460.582 147.859C461.837 144.984 459.984 141.146 456.915 140.407C454.188 139.75 454.238 140.56 451.503 140.912C451.324 139.73 450.99 138.577 450.509 137.482C450.559 138.662 450.421 139.841 450.101 140.978C449.134 140.959 448.201 140.621 447.446 140.018C445.215 138.22 445.667 134.445 447.658 132.385C449.652 130.326 452.615 129.585 455.441 129.105C456.262 123.385 472.046 122.788 474.138 128.504C475.029 124.236 480.373 122.021 484.526 123.345C488.679 124.669 491.561 128.547 493.079 132.635C494.596 136.719 495.02 141.115 495.954 145.37C496.889 149.626 498.469 153.959 501.722 156.86C504.974 159.757 510.274 160.716 513.701 158.025C514.2 159.447 514.356 160.967 514.157 162.46C513.958 163.954 513.411 165.38 512.558 166.623Z" fill="#2F2E41"/>
<path d="M654.696 201.192L652.575 211.833C652.415 212.646 652.248 213.474 652.066 214.295C650.293 213.928 648.455 214.03 646.734 214.593C648.1 216.543 649.323 218.59 650.395 220.716C649.059 224.834 647.098 228.64 643.814 231.392C641.621 233.19 639.002 234.392 636.21 234.883C633.417 235.374 630.545 235.137 627.87 234.196L627.964 233.775C624.434 226.925 626.352 218.29 630.739 211.964C632.977 208.843 635.628 206.04 638.621 203.633C641.584 201.163 644.788 198.948 647.962 196.762C648.675 196.272 649.518 196.005 650.383 195.996C651.248 195.987 652.097 196.237 652.819 196.712C653.542 197.188 654.107 197.868 654.441 198.666C654.775 199.464 654.864 200.344 654.696 201.192Z" fill="#9E9E9E"/>
<path d="M628.625 259.798C627.732 253.295 626.814 246.71 627.44 240.137C627.997 234.301 629.777 228.6 633.403 223.925C635.328 221.449 637.67 219.327 640.324 217.655C641.016 217.219 641.652 218.315 640.964 218.75C636.372 221.651 632.82 225.936 630.821 230.986C628.613 236.602 628.258 242.724 628.642 248.689C628.872 252.296 629.36 255.879 629.851 259.46C629.891 259.622 629.867 259.793 629.785 259.938C629.702 260.083 629.568 260.191 629.408 260.24C629.246 260.284 629.073 260.262 628.927 260.179C628.781 260.096 628.674 259.959 628.628 259.797L628.625 259.798Z" fill="#F2F2F2"/>
<path d="M679.136 366.776L0.865334 367C0.636381 366.999 0.417037 366.908 0.255376 366.746C0.0937161 366.583 0.00292969 366.364 0.00292969 366.135C0.00292969 365.906 0.0937161 365.686 0.255376 365.524C0.417037 365.362 0.636381 365.271 0.865334 365.27L679.136 365.047C679.365 365.048 679.584 365.139 679.746 365.301C679.907 365.463 679.998 365.683 679.998 365.912C679.998 366.141 679.907 366.36 679.746 366.522C679.584 366.684 679.365 366.776 679.136 366.776Z" fill="#CACACA"/>
<path d="M75.2542 135.739C73.59 136.538 71.727 135.336 70.2901 134.146L70.8041 134.59C68.2646 137.06 67.0773 140.614 66.4972 144.113C65.9165 147.608 65.8517 151.183 65.1205 154.653C64.3888 158.12 62.8709 161.603 60.0357 163.726C56.2373 166.57 50.9987 166.387 46.3374 165.515C46.2753 165.503 46.2174 165.493 46.1553 165.481C47.4095 161.86 47.9193 158.023 47.6542 154.2C46.4048 158.031 44.2778 161.517 41.4426 164.38C38.3521 163.53 35.3356 162.431 32.4224 161.094C30.5375 160.227 28.508 159.04 27.9848 157.032C27.4604 155.039 28.6782 152.948 30.3067 151.689C31.9352 150.431 33.9338 149.774 35.789 148.877C37.6412 147.985 39.474 146.713 40.2156 144.792C41.9261 140.373 37.0535 135.302 38.9524 130.959C39.8889 128.823 42.1825 127.661 44.3384 126.765C47.6295 125.401 51.009 124.261 54.4539 123.353C57.478 122.556 60.6356 121.936 63.7163 122.459C66.797 122.982 69.8151 124.855 70.9239 127.78C72.7739 128.406 74.738 129.11 75.9253 130.667C77.112 132.221 77.0163 134.895 75.2542 135.739Z" fill="#2F2E41"/>
<path d="M90.0632 130.619C85.3021 126.86 81.4525 127.502 78.4828 129.837C77.9836 129.281 75.859 130.809 75.1397 130.59L72.5378 135.473C71.199 137.836 70.6497 140.247 70.8661 141.604C68.4033 148.51 74.2435 153.173 81.15 155.636C83.9059 156.625 86.9128 156.669 89.6961 155.759L89.781 154.583L90.304 155.547C90.304 155.547 96.6179 168.546 98.1098 169.13C97.2046 166.782 94.8168 155.622 94.1504 153.295C93.2365 150.13 93.8607 145.102 94.3979 142.019C94.7326 140.118 94.7502 138.175 94.4497 136.268L94.4364 136.185L95.9136 139.167L99.2282 137.083C97.9614 133.394 97.9361 128.98 90.0632 130.619Z" fill="#2F2E41"/>
</g>
<defs>
<clipPath id="clip0_293_5156">
<rect width="666" height="367" fill="white"/>
</clipPath>
</defs>
</svg>
