<svg width="450" height="450" viewBox="0 0 450 450" fill="none" xmlns="http://www.w3.org/2000/svg">
<path d="M0 242C0 229.85 9.84974 220 22 220H422C434.15 220 444 229.85 444 242V450H0V242Z" fill="#FFB168"/>
<path d="M98.5471 81.4276L88.3816 85.2286L88.1086 99.4066L54.9316 75.9016L98.5471 81.4276Z" fill="#BAC8E5"/>
<path d="M81.3001 89.3821L65.6701 96.9106L54.9316 75.9016L81.3001 89.3821Z" fill="#E1E6F4"/>
<path d="M88.3816 85.2286L88.1266 98.4826L88.1086 99.4066L81.3001 89.3821L54.9316 75.9016L88.3816 85.2286ZM196.635 151.208C195.909 153.354 195.387 154.613 195.365 154.665L194.109 154.142C194.114 154.13 194.637 152.87 195.347 150.771L196.635 151.208ZM193.212 105.758L192.263 106.733C191.438 105.929 190.526 105.179 189.558 104.502L190.335 103.388C191.366 104.105 192.333 104.903 193.212 105.758ZM180.159 99.0646L179.858 100.391C178.74 100.136 177.563 99.9226 176.354 99.7591L176.538 98.4121C177.785 98.5816 179.003 98.8006 180.159 99.0646ZM187.133 101.498L186.53 102.716C185.507 102.21 184.409 101.753 183.269 101.36L183.713 100.074C184.907 100.485 186.059 100.965 187.133 101.498ZM197.378 143.856L198.696 144.188C198.378 145.451 198.054 146.634 197.736 147.716L196.431 147.333C196.745 146.267 197.066 145.101 197.378 143.856ZM198.819 136.809L200.162 137.019C199.971 138.255 199.748 139.46 199.509 140.622L198.179 140.348C198.413 139.206 198.629 138.023 198.819 136.809ZM172.799 99.4156C171.651 99.3466 170.459 99.3106 169.221 99.3121L169.22 97.9516C170.487 97.9516 171.708 97.9861 172.881 98.0581L172.799 99.4156ZM199.317 122.532L200.67 122.379C200.804 123.56 200.891 124.796 200.93 126.054L199.571 126.095C199.533 124.874 199.448 123.675 199.317 122.532ZM194.562 109.379L195.657 108.573C196.377 109.554 197.037 110.622 197.615 111.746L196.404 112.368C195.861 111.308 195.24 110.303 194.562 109.379ZM199.542 129.674L200.903 129.728C200.856 130.899 200.766 132.131 200.636 133.386L199.283 133.245C199.409 132.02 199.497 130.817 199.542 129.674ZM197.789 115.608L199.073 115.164C199.466 116.301 199.802 117.501 200.069 118.731L198.741 119.021C198.486 117.843 198.165 116.694 197.789 115.608ZM116.123 109.851C114.84 110.015 113.628 110.135 112.482 110.219L112.385 108.863C113.505 108.782 114.692 108.663 115.95 108.501L116.123 109.851ZM108.809 109.007L108.816 110.366C107.543 110.372 106.304 110.327 105.137 110.229L105.248 108.875C106.377 108.969 107.577 109.013 108.809 109.007ZM101.75 108.378L101.474 109.709C100.169 109.439 98.9626 109.08 97.8901 108.645L98.4001 107.385C99.3976 107.79 100.526 108.123 101.75 108.378ZM123.321 108.618C122.076 108.881 120.882 109.11 119.738 109.307L119.507 107.967C120.633 107.772 121.814 107.546 123.041 107.288L123.321 108.618ZM165.635 99.4111C164.478 99.4726 163.284 99.5641 162.051 99.6841L161.919 98.3296C163.173 98.2081 164.385 98.1151 165.563 98.0521L165.635 99.4111ZM94.3636 104.577C94.3666 104.582 94.6486 105.063 95.4346 105.701L94.5766 106.757C93.6361 105.992 93.2536 105.374 93.1861 105.258L94.3636 104.577ZM151.377 101.318C150.199 101.556 149.024 101.81 147.852 102.078L147.549 100.754C148.761 100.475 149.949 100.22 151.109 99.9856L151.377 101.318ZM158.483 100.107C157.326 100.265 156.135 100.448 154.922 100.658L154.691 99.3181C155.889 99.1117 157.092 98.9262 158.297 98.7616L158.483 100.107ZM144.342 102.926C143.199 103.215 142.037 103.523 140.852 103.85L140.49 102.54C141.686 102.21 142.859 101.901 144.008 101.609L144.342 102.926ZM136.989 103.539L137.375 104.843C136.655 105.057 135.927 105.276 135.192 105.503L133.904 105.893L133.518 104.589L134.792 104.204C135.531 103.976 136.265 103.754 136.989 103.539ZM130.404 106.895C129.189 107.226 128.015 107.531 126.876 107.808L126.552 106.488C127.68 106.211 128.844 105.911 130.046 105.584L130.404 106.895Z" fill="#D3DAEA"/>
<path d="M238.162 416.884C321.276 416.884 388.653 411.049 388.653 403.849C388.653 396.65 321.276 390.814 238.162 390.814C155.049 390.814 87.6719 396.65 87.6719 403.849C87.6719 411.049 155.049 416.884 238.162 416.884Z" fill="#D3DAEA"/>
<path d="M284.562 391.251C284.562 391.251 281.212 379.565 282.84 378.686C284.466 377.807 288.364 377.325 289.299 378.078C290.233 378.831 290.442 391.402 288.994 393.096C287.545 394.791 285.564 394.332 284.562 391.251Z" fill="#EFD9D3"/>
<path d="M272.942 399.643C272.942 399.643 272.849 401.376 274.385 402.147C278.199 404.058 290.828 401.947 291.444 400.78C292.061 399.613 291.837 398.136 291.837 398.136L272.942 399.643Z" fill="#3E4268"/>
<path d="M285.306 387.07C285.306 387.07 288.57 387.137 290.047 386.591C291.391 386.095 292.606 398.101 291.486 399.541C290.367 400.981 282.328 399.848 282.328 399.848C282.328 399.848 283.365 396.973 283.972 393.632C284.581 390.293 282.28 387.703 285.306 387.07Z" fill="#3E4268"/>
<path d="M282.136 391.727C282.136 391.727 279.366 386.387 281.653 385.911C283.941 385.436 284.604 385.821 285.888 386.592C287.172 387.363 285.049 391.487 284.818 392.108C284.589 392.73 282.136 391.727 282.136 391.727Z" fill="#575E84"/>
<path d="M278.771 395.262C278.771 395.262 281.642 395.48 282.725 397.008C283.808 398.537 286.722 393.569 285.867 391.842C285.012 390.117 281.43 391.338 281.43 391.338C281.43 391.338 282.128 394.694 278.771 395.262Z" fill="#575E84"/>
<path d="M273.259 400.717C275.353 402.4 282.535 402.72 284.002 400.966C285.471 399.214 283.746 392.824 277.224 394.318C274.534 394.935 271.792 399.538 273.259 400.717Z" fill="#575E84"/>
<path opacity="0.2" d="M278.43 394.651C277.536 394.711 276.822 394.93 276.258 395.255C276.469 395.572 276.696 395.875 276.939 396.166C277.597 395.764 278.485 395.443 279.576 395.564C282.085 395.845 282.153 395.935 282.153 395.935C282.153 395.935 280.534 394.508 278.43 394.651ZM275.461 396.203C275.295 396.485 275.418 396.85 275.727 396.959C275.922 397.028 276.139 396.976 276.277 396.82C276.391 396.692 276.553 396.527 276.756 396.353C276.516 396.062 276.289 395.761 276.078 395.449C275.832 395.678 275.625 395.93 275.461 396.203Z" fill="white"/>
<path d="M307.98 189.011L264.49 192.719C264.49 192.719 279.895 333.816 281.704 382.385L291.57 381.318C291.57 381.318 331.926 202.616 307.98 189.011Z" fill="#3E4268"/>
<path opacity="0.2" d="M303.839 307.975C301.236 304.326 299.352 300.19 298.076 295.903C296.756 291.468 296.046 286.866 295.677 282.261C295.476 279.745 295.314 277.2 295.406 274.677C295.518 271.572 295.88 268.483 296.133 265.39C296.612 259.57 296.693 253.671 293.945 248.356C291.423 243.478 287.597 239.421 284.774 234.726C283.338 232.338 282.17 229.783 281.655 227.032C281.171 224.44 281.205 221.731 281.646 219.135C282.345 215.028 284.351 209.652 281.6 205.887C279.141 202.521 274.956 201.297 271.071 202.726C269.054 203.469 267.3 204.808 265.968 206.482C265.05 197.853 264.489 192.72 264.489 192.72L307.979 189.012C321.683 196.798 314.325 258.652 305.526 310.143C304.941 309.441 304.371 308.724 303.839 307.975Z" fill="#3E4268"/>
<path d="M330.141 392.464C330.573 394.055 330.95 395.179 330.95 395.179C330.95 395.179 336.678 404.954 339.813 393.73V393.725C340.022 392.978 340.194 392.122 340.406 391.181C342.5 381.832 334.374 385.106 334.374 385.106C334.374 385.106 331.71 383.609 329.712 385.921C328.367 387.478 329.261 389.212 330.141 392.464Z" fill="#3E4268"/>
<path d="M337.497 375.389C337.419 379.988 338.187 389.237 338.187 389.237C336.955 393.257 334.395 393.896 332.476 391.728C331.044 390.11 329.352 380.628 327.823 375.515L337.497 375.389Z" fill="#EFD9D3"/>
<path d="M343.306 399.295C343.306 399.295 343.731 401.566 343.096 402.185C340.536 404.684 330.397 404.918 328.297 402.791C327.252 401.732 328.534 398.828 328.534 398.828L343.306 399.295Z" fill="#3E4268"/>
<path d="M337.851 382.017C337.851 382.017 338.237 390.801 337.293 392.482C336.348 394.164 333.837 395.454 332.898 393.417C331.959 391.38 330.602 382.996 331.703 382.182C332.804 381.369 337.605 380.775 337.851 382.017Z" fill="#575E84"/>
<path d="M337.079 393.316C337.079 393.316 340.614 385.147 338.151 386.403C335.012 388.002 333.513 387.336 331.149 386.868C329.283 386.499 332.34 393.027 332.649 393.586C332.958 394.146 337.079 393.316 337.079 393.316Z" fill="#575E84"/>
<path opacity="0.2" d="M330.141 392.464C330.573 394.056 330.949 395.179 330.949 395.179C330.949 395.179 336.678 404.955 339.813 393.73V393.726C339.705 393.274 339.601 392.808 339.502 392.332C338.74 391.717 337.915 391.266 337.098 391.09C333.927 390.42 331.651 391.162 330.141 392.464Z" fill="#231F20"/>
<path d="M342.898 400.707C340.218 402.936 330.906 403.51 328.962 401.268C327.018 399.027 329.115 390.697 337.612 392.491C341.115 393.231 344.776 399.145 342.898 400.707Z" fill="#575E84"/>
<path opacity="0.2" d="M336.054 392.947C337.216 393.006 338.148 393.274 338.886 393.684C338.619 394.099 338.331 394.497 338.023 394.881C337.161 394.374 336 393.976 334.587 394.159C331.336 394.579 331.251 394.696 331.251 394.696C331.251 394.696 333.319 392.809 336.054 392.947ZM339.939 394.897C340.161 395.259 340.009 395.734 339.612 395.883C339.36 395.977 339.078 395.913 338.895 395.715C338.698 395.503 338.487 395.305 338.263 395.121C338.569 394.738 338.856 394.342 339.123 393.933C339.448 394.222 339.723 394.545 339.939 394.897Z" fill="white"/>
<path d="M338.88 184.471C338.454 181.967 284.097 187.088 284.097 187.088L326.86 379.735L338.949 379.577C338.949 379.579 343.129 209.411 338.88 184.471Z" fill="#575E84"/>
<path opacity="0.2" d="M330.481 205.941C325.312 209.964 319.005 212.21 313.861 216.279C311.461 218.177 309.337 220.502 308.124 223.341C306.739 226.584 306.679 230.232 307.318 233.654C307.938 236.976 309.024 240.227 308.437 243.642C308.077 245.739 307.086 247.592 306.219 249.509C305.379 251.364 304.561 253.23 303.816 255.123C302.691 257.979 301.767 260.913 301.152 263.921L284.097 187.088C284.097 187.088 338.454 181.965 338.88 184.47C339.264 186.722 339.577 190.167 339.832 194.553C337.59 198.95 334.449 202.854 330.481 205.941Z" fill="#3E4268"/>
<path d="M137.961 381.155L137.862 385.28L137.497 405.371L125.124 405.341C118.738 405.26 113.505 399.851 113.716 393.197C113.82 389.605 115.39 386.399 117.9 384.116C120.012 382.235 122.664 381.151 125.59 381.127L137.961 381.155Z" fill="#575E84"/>
<path d="M303.209 383.306C302.069 382.74 300.815 382.442 299.543 382.436L137.988 381.593L137.561 405.039L299.138 405.882C300.396 405.888 301.64 405.611 302.775 405.069L325.349 394.296L303.209 383.306Z" fill="#EBC0B8"/>
<path d="M319.773 396.955L325.347 394.294L319.755 391.518C319.638 393.337 319.638 395.151 319.773 396.955Z" fill="#575E84"/>
<path d="M137.995 381.217L298.98 382.057C299.347 385.612 299.515 389.482 299.442 393.529C299.359 398.057 298.984 402.361 298.378 406.252L137.553 405.412L137.995 381.217Z" fill="#5B7EFB"/>
<path opacity="0.5" d="M236.185 386.175C236.185 386.175 278.11 397.566 287.193 388.228C296.274 378.889 236.185 386.175 236.185 386.175ZM137.961 381.156L137.862 385.281C132.55 386.389 124.293 385.26 117.898 384.115C120.01 382.234 122.662 381.15 125.589 381.126L137.961 381.156Z" fill="white"/>
<path opacity="0.1" d="M298.98 382.057L292.947 382.025C294.049 385.508 293.236 389.024 288.496 392.086C281.815 396.401 271.161 395.873 263.539 395.723C253.435 395.524 243.652 392.404 233.592 392.302C227.799 392.242 222.679 394.379 217.075 395.41C212.503 396.25 207.823 396.568 203.176 396.587C192.789 396.631 183.246 393.46 173.079 392.087C164.554 390.938 156.094 393.652 147.607 392.39C143.181 391.733 140.16 389.671 137.892 386.822L137.553 405.413L298.377 406.252C298.983 402.361 299.358 398.057 299.44 393.529C299.515 389.482 299.347 385.613 298.98 382.057Z" fill="#231F20"/>
<path d="M370.416 57.0032C351.021 53.8682 363.699 44.0492 352.915 39.3917C342.132 34.7462 323.631 47.7062 318.343 44.4902C313.054 41.2757 309.987 28.5257 293.073 34.8542C287.526 36.9302 277.707 46.2932 282.24 55.9262C284.868 61.5107 284.38 65.5277 284.325 68.5322C284.236 73.8272 283.143 76.9547 287.961 85.8722C295.516 99.8522 308.847 86.6162 324.097 97.3007C340.878 109.071 355.596 112.646 367.168 110.919C380.773 108.894 390.052 99.5222 393.288 87.4787C399.268 65.1647 389.823 60.1382 370.416 57.0032Z" fill="#3E4268"/>
<path opacity="0.2" d="M354.609 104.562C352.152 103.164 349.601 101.783 347.594 99.753C345.375 97.509 344.618 94.5915 343.788 91.635C343.325 89.982 342.798 88.353 341.927 86.8635C340.956 85.206 339.599 83.7705 338.213 82.4535C335.499 79.878 332.351 77.832 329.232 75.7905C326.514 74.0115 323.777 72.162 322.122 69.2775C321.327 67.89 320.829 66.2805 320.718 64.683C320.588 62.802 321.111 60.954 321.048 59.0745C320.993 57.4155 320.402 55.9245 319.188 54.7845C318.048 53.715 316.611 52.9665 315.284 52.164C313.457 51.0585 311.816 49.7055 310.314 48.207C311.318 51.9015 312.101 55.6545 312.666 59.442C313.803 67.053 314.178 74.778 313.994 82.467C313.91 85.9815 313.748 89.5155 313.362 93.018C316.79 93.522 320.387 94.6995 324.098 97.3005C338.711 107.552 351.758 111.582 362.529 111.312C362.474 111.213 362.429 111.111 362.37 111.014C360.557 108.003 357.579 106.253 354.609 104.562Z" fill="#3E4268"/>
<path d="M340.849 191.649C340.357 173.572 338.856 144.714 334.276 129.276C341.992 128.377 351.912 126.598 354.493 126.448C347.544 83.1642 313.312 73.8897 308.746 74.1702C278.334 76.0392 275.041 110.182 263.796 121.413C252.552 132.645 266.494 145.054 268.552 157.714C270.61 170.376 263.547 190.945 264.399 191.647C279.139 203.817 340.849 191.649 340.849 191.649Z" fill="#337CCC"/>
<path opacity="0.15" d="M330.261 180.645C332.697 183.98 337.216 188.01 326.659 194.018L340.849 191.651C340.357 173.574 338.854 144.716 334.276 129.278C334.431 129.26 334.591 129.239 334.749 129.221C333.871 126.839 332.644 124.542 331.464 122.37C330.543 120.677 329.491 119.058 328.363 117.497C327.627 116.478 326.898 115.454 326.077 114.506C327.276 116.739 328.452 118.983 329.47 121.308C331.357 125.615 332.986 130.436 332.4 135.204C332.266 136.295 332.056 137.447 331.581 138.443C331.047 139.56 330.225 140.493 329.446 141.444C328.764 142.277 327.801 143.315 327.741 144.449C327.688 145.412 328.53 146.153 328.705 147.08C329.083 149.087 327.96 150.747 326.491 151.997C324.861 153.383 322.942 154.419 321.205 155.663C316.885 158.756 312.628 162.059 307.629 163.946C311.776 166.61 316.12 168.954 320.239 171.665C323.994 174.134 327.591 176.988 330.261 180.645Z" fill="#3E4268"/>
<path d="M334.239 129.138L336.882 151.109C316.122 163.106 298.477 163.134 298.477 163.134L296.382 169.821C296.382 169.821 322.315 176.126 344.721 164.748C357.729 158.142 352.56 135.657 353.22 126.614C347.071 127.139 338.862 127.946 334.239 129.138Z" fill="#EBC0B8"/>
<path d="M317.883 171.263C316.296 170.198 314.303 170.472 312.612 169.694C311.771 169.307 311.019 168.675 310.562 167.862C310.098 167.042 310.242 166.194 310.076 165.309C309.809 163.89 308.393 162.891 307.092 162.171C301.737 163.127 298.479 163.134 298.479 163.134L296.384 169.821C296.384 169.821 305.757 172.095 318.098 171.441C318.023 171.383 317.964 171.317 317.883 171.263ZM335.418 151.908C337.541 152.52 339.53 153.536 341.373 154.742C342.305 155.351 343.251 155.978 344.117 156.678C344.693 157.145 345.3 157.739 345.987 158.111C345.635 156.866 344.642 155.805 343.758 154.904C342.488 153.608 341.043 152.453 339.921 151.017C337.94 148.482 337.074 144.923 336.788 141.777C336.494 138.546 336.873 135.05 339.719 133.037C342.347 131.177 345.707 130.953 348.704 130.029C351.249 129.245 351.233 128.798 352.914 126.641C346.716 127.191 338.789 127.965 334.239 129.138L336.882 151.109C336.389 151.394 335.909 151.637 335.418 151.908Z" fill="#E0AFA9"/>
<path d="M298.64 67.1999C298.64 67.1999 299.208 69.4769 298.986 73.4264C298.922 74.5469 297.393 82.3903 300.86 83.1613C306.764 84.4768 310.848 78.4753 310.848 78.4753L310.776 57.9854L298.64 67.1999Z" fill="#EBC0B8"/>
<path d="M298.54 71.3692L298.707 75.8857C298.707 75.8857 305.167 75.4522 304.674 68.2207L298.54 71.3692Z" fill="#E0AFA9"/>
<path d="M288.664 51.015C288.664 51.015 291.646 73.056 297.663 71.874C303.978 70.6335 309.556 65.058 310.347 61.3995C311.137 57.7395 310.776 57.987 310.776 57.987C310.776 57.987 312.925 57.4095 312.636 53.7375C312.346 50.064 309.961 52.9245 309.961 52.9245C309.961 52.9245 301.074 43.467 295.716 44.5815C290.362 45.696 288.664 51.015 288.664 51.015Z" fill="#EBC0B8"/>
<path d="M303.258 61.899C303.39 62.4555 302.814 63.0705 301.972 63.27C301.129 63.471 300.339 63.1815 300.207 62.6235C300.075 62.067 300.649 61.4535 301.492 61.2525C302.334 61.053 303.124 61.3425 303.258 61.899ZM291.547 64.0095C291.792 64.0395 292.047 64.029 292.314 63.9645C293.169 63.768 293.736 63.15 293.604 62.5905C293.473 62.043 292.68 61.7535 291.838 61.95C291.531 62.016 291.253 62.1495 291.031 62.3205L291.547 64.0095Z" fill="#E0AFA9"/>
<path d="M293.663 57.2711C293.58 57.2771 293.498 57.2395 293.448 57.166C293.405 57.1015 292.382 55.6406 290.189 56.7926C290.07 56.8541 289.928 56.8091 289.866 56.6921C289.852 56.6643 289.843 56.6339 289.84 56.6027C289.837 56.5714 289.84 56.5399 289.85 56.5099C289.859 56.48 289.874 56.4522 289.894 56.4281C289.914 56.404 289.939 56.3841 289.967 56.3695C292.553 55.0105 293.834 56.8826 293.846 56.9006C293.919 57.0101 293.889 57.1586 293.778 57.232C293.744 57.256 293.703 57.2681 293.663 57.2711ZM298.287 57.0056C298.257 57.0071 298.227 57.0041 298.199 56.9936C298.169 56.984 298.141 56.9687 298.117 56.9484C298.093 56.9282 298.074 56.9034 298.059 56.8756C298.045 56.8477 298.036 56.8173 298.034 56.7861C298.031 56.7548 298.035 56.7234 298.044 56.6936C298.052 56.6711 298.779 54.5351 301.956 54.9971C302.087 55.0166 302.177 55.1381 302.157 55.2686C302.138 55.3991 302.019 55.4891 301.887 55.4711C299.103 55.0646 298.503 56.8226 298.499 56.8406C298.469 56.9366 298.382 56.9996 298.287 57.0056ZM295.971 63.1496C295.889 63.1556 295.808 63.1481 295.725 63.1316C295.211 63.0176 294.959 62.4641 294.948 62.4401C294.917 62.3711 294.921 62.2916 294.959 62.2256C295.727 60.8561 295.382 59.0996 295.377 59.0831C295.35 58.9541 295.434 58.8266 295.563 58.8011C295.697 58.7741 295.818 58.8581 295.845 58.9871C295.862 59.0636 296.21 60.8425 295.439 62.3411C295.515 62.4611 295.655 62.6261 295.83 62.6651C295.994 62.6996 296.186 62.6246 296.4 62.4371C296.499 62.3501 296.651 62.3606 296.736 62.4596C296.823 62.5586 296.814 62.7101 296.714 62.7971C296.463 63.0146 296.216 63.1331 295.971 63.1496ZM293.067 59.2406C293.117 59.9831 292.745 60.6116 292.238 60.6461C291.731 60.6806 291.278 60.1061 291.228 59.3636C291.179 58.6211 291.551 57.9926 292.059 57.9581C292.566 57.9236 293.018 58.4981 293.067 59.2406ZM301.202 58.6976C301.251 59.4401 300.879 60.0686 300.372 60.1031C299.865 60.1376 299.412 59.5631 299.363 58.8206C299.313 58.0796 299.685 57.4496 300.192 57.4151C300.701 57.3821 301.152 57.9566 301.202 58.6976Z" fill="#3E4268"/>
<path d="M294.045 66.6417C294.045 66.6417 296.844 67.6917 299.794 66.0732C300.57 67.2912 297.181 70.8252 294.045 66.6417Z" fill="#FCFAF7"/>
<path d="M310.346 53.6459L310.895 57.0509C310.895 57.0509 311.616 55.3289 311.621 54.0794C311.627 52.8284 310.346 53.6459 310.346 53.6459Z" fill="#E0AFA9"/>
<path d="M289.761 52.5374C289.682 50.3159 291.455 47.6969 291.677 47.3774C290.252 49.5764 290.864 53.0534 291 53.7179C293.081 55.4234 296.253 56.6459 299.651 52.9799C306.413 45.6779 309.927 55.0079 309.927 55.0079C309.927 55.0079 310.944 45.8024 304.491 43.5689C298.037 41.3339 291.9 43.6064 288.515 50.9309C288.515 50.9309 288.968 51.6644 289.761 52.5374Z" fill="#3E4268"/>
<path d="M306.583 162.015L302.997 154.704L302.5 161.568L306.583 162.015ZM221.197 109.981L229.26 117.123L222.442 116.631L221.197 109.981Z" fill="#E0AFA9"/>
<path fill-rule="evenodd" clip-rule="evenodd" d="M303.969 141.25L289.201 345.645L122.229 333.588L138.358 110.43L279.346 120.624L303.969 141.25Z" fill="#F1F2FF"/>
<path fill-rule="evenodd" clip-rule="evenodd" d="M155.494 127.924L214.479 132.186L213.7 142.97L154.715 138.708L155.494 127.924Z" fill="#D3DAEA"/>
<path d="M167.222 149.895L166.206 163.953L162.782 163.706L157.68 154.622L157.053 163.292L153.629 163.044L154.644 148.986L158.069 149.234L163.167 158.358L163.797 149.648L167.222 149.895ZM178.622 153.476L173.435 153.101L173.229 155.945L177.815 156.276L177.624 158.919L173.039 158.588L172.815 161.672L178.002 162.047L177.804 164.79L169.194 164.168L170.21 150.11L178.82 150.732L178.622 153.476ZM180.804 150.876L184.469 151.14L185.751 161.519L188.994 151.467L192.759 151.739L194.423 162.146L197.205 152.061L200.889 152.328L196.209 166.121L192.065 165.821L190.49 156.407L187.499 165.491L183.354 165.191L180.804 150.876ZM207.176 167.054C204.152 166.835 201.897 165.162 202.002 162.312L205.647 162.576C205.67 163.665 206.313 164.234 207.273 164.304C208.274 164.376 208.952 163.922 209.01 163.101C209.198 160.497 202.068 161.391 202.469 156.408C202.661 153.744 204.951 152.421 207.894 152.633C210.959 152.855 212.91 154.524 212.858 157.218L209.153 156.951C209.157 156.045 208.556 155.459 207.636 155.372C206.817 155.292 206.166 155.669 206.102 156.549C205.925 158.993 212.954 158.393 212.613 163.098C212.444 165.461 210.459 167.291 207.176 167.054ZM219.357 153.662L218.532 165.077L223.017 165.401L222.827 168.044L214.917 167.472L215.933 153.414L219.357 153.662ZM234.401 157.506L229.214 157.131L229.008 159.975L233.594 160.307L233.403 162.95L228.818 162.618L228.594 165.702L233.78 166.077L233.582 168.821L224.97 168.198L225.986 154.14L234.597 154.763L234.401 157.506ZM236.562 154.905L247.436 155.691L247.238 158.435L243.513 158.166L242.696 169.481L239.271 169.233L240.089 157.919L236.364 157.65L236.562 154.905ZM248.9 155.796L259.773 156.582L259.575 159.326L255.851 159.057L255.033 170.372L251.609 170.124L252.426 158.81L248.702 158.541L248.9 155.796ZM270.41 160.107L265.224 159.732L265.019 162.576L269.604 162.908L269.414 165.551L264.828 165.219L264.605 168.303L269.792 168.678L269.594 171.422L260.982 170.799L261.998 156.741L270.609 157.364L270.41 160.107ZM279.081 157.977C282.527 158.226 284.105 160.332 283.928 162.776C283.8 164.538 282.719 166.13 280.511 166.616L283.352 172.418L279.486 172.139L276.947 166.62L276.126 166.56L275.742 171.867L272.318 171.62L273.333 157.562L279.081 157.977ZM278.675 160.806L276.552 160.653L276.3 164.138L278.423 164.291C279.704 164.384 280.353 163.766 280.433 162.665C280.508 161.622 279.957 160.899 278.675 160.806Z" fill="#D3DAEA"/>
<path fill-rule="evenodd" clip-rule="evenodd" d="M152.366 175.397L211.351 179.659L210.572 190.443L151.587 186.181L152.366 175.397Z" fill="#D3DAEA"/>
<path fill-rule="evenodd" clip-rule="evenodd" d="M210.147 196.305L281.51 201.461L278.207 247.176L206.844 242.019L210.147 196.305Z" fill="#D3DAEA"/>
<path fill-rule="evenodd" clip-rule="evenodd" d="M151.162 192.041L201.296 195.664L197.993 241.379L147.859 237.756L151.162 192.041Z" fill="#D3DAEA"/>
<path fill-rule="evenodd" clip-rule="evenodd" d="M147.434 243.619L277.781 253.038L274.478 298.753L144.13 289.334L147.434 243.619Z" fill="#D3DAEA"/>
<path fill-rule="evenodd" clip-rule="evenodd" d="M303.969 141.251L280.332 144.393L279.347 120.624L303.969 141.251Z" fill="#BAC8E5"/>
<path d="M306.955 160.235C306.955 160.235 292.54 157.848 291.792 160.481C291.442 161.712 294.874 162.732 298.657 163.511C293.997 162.728 288.79 162.464 289.048 163.925C289.246 165.048 294.804 166.136 298.537 167.06C295.92 166.661 290.025 165.965 289.717 167.078C289.327 168.497 294.771 169.935 298.393 170.466C296.215 170.298 292.336 170.132 292.213 171.18C292.104 172.109 293.077 173.061 297.634 173.711C300.294 174.09 300.136 174.587 301.38 174.522C302.338 174.473 303.339 174.527 304.092 174.105C307.719 172.079 308.824 161.544 306.955 160.235Z" fill="#EBC0B8"/>
<path opacity="0.2" d="M292.558 171.384C292.699 170.907 294.264 170.775 294.406 170.88C294.406 170.88 294.28 172.149 294.16 172.356C294.04 172.563 292.417 171.861 292.558 171.384ZM289.876 167.2C290.017 166.725 291.582 166.591 291.724 166.696C291.724 166.696 291.597 167.965 291.477 168.172C291.357 168.379 289.735 167.677 289.876 167.2ZM289.464 163.74C289.605 163.263 291.169 163.129 291.312 163.236C291.312 163.236 291.186 164.505 291.064 164.71C290.946 164.917 289.324 164.215 289.464 163.74ZM292.311 160.384C292.452 159.909 294.016 159.775 294.157 159.88C294.157 159.88 294.031 161.149 293.911 161.356C293.793 161.563 292.17 160.86 292.311 160.384Z" fill="white"/>
<path d="M304.677 172.265C304.647 172.262 304.618 172.25 304.594 172.23C304.565 172.204 304.548 172.169 304.545 172.13C304.543 172.092 304.556 172.054 304.581 172.025C306.729 169.58 305.803 167.148 305.793 167.123C305.778 167.085 305.779 167.043 305.797 167.006C306.867 164.802 305.763 162.765 305.751 162.746C305.732 162.712 305.728 162.672 305.738 162.635C305.748 162.598 305.773 162.567 305.806 162.548C305.823 162.538 305.841 162.532 305.86 162.53C305.879 162.528 305.899 162.53 305.917 162.535C305.935 162.54 305.953 162.549 305.968 162.561C305.983 162.573 305.995 162.588 306.004 162.605C306.054 162.692 307.174 164.762 306.084 167.078C306.219 167.489 306.867 169.86 304.798 172.215C304.768 172.253 304.722 172.269 304.677 172.265ZM301.507 164.081C299.632 163.908 297.273 163.359 297.156 163.332C297.137 163.328 297.12 163.32 297.104 163.309C297.089 163.298 297.076 163.284 297.066 163.267C297.056 163.251 297.049 163.233 297.046 163.215C297.043 163.196 297.043 163.177 297.048 163.158C297.066 163.08 297.144 163.031 297.222 163.05C297.255 163.058 300.624 163.841 302.488 163.844C302.527 163.844 302.564 163.859 302.591 163.886C302.618 163.913 302.634 163.95 302.634 163.989C302.634 164.028 302.618 164.065 302.591 164.092C302.564 164.119 302.527 164.135 302.488 164.135C302.19 164.132 301.857 164.112 301.507 164.081ZM300.61 167.472C298.944 167.319 297.198 166.971 297.175 166.967C297.138 166.959 297.105 166.936 297.083 166.904C297.062 166.872 297.054 166.833 297.061 166.796C297.076 166.716 297.151 166.664 297.232 166.682C297.261 166.688 300.097 167.252 301.965 167.253C302.003 167.253 302.04 167.268 302.068 167.296C302.095 167.323 302.11 167.36 302.11 167.399C302.11 167.437 302.095 167.474 302.068 167.501C302.04 167.529 302.003 167.544 301.965 167.544C301.548 167.544 301.081 167.516 300.61 167.472ZM300.114 170.888C298.5 170.739 296.878 170.403 296.859 170.399C296.84 170.395 296.822 170.387 296.807 170.377C296.791 170.366 296.777 170.352 296.767 170.337C296.756 170.321 296.749 170.303 296.746 170.284C296.742 170.265 296.742 170.246 296.746 170.228C296.763 170.15 296.839 170.097 296.917 170.115C296.943 170.12 299.575 170.666 301.443 170.667C301.481 170.667 301.518 170.682 301.546 170.71C301.573 170.737 301.588 170.774 301.588 170.813C301.588 170.851 301.573 170.888 301.546 170.915C301.518 170.943 301.481 170.958 301.443 170.958C301.024 170.957 300.57 170.93 300.114 170.888Z" fill="#E0AFA9"/>
<path d="M221.655 109.842C221.655 109.842 226.041 122.322 223.812 123.402C222.769 123.907 221.32 121.006 220.035 117.754C221.463 121.788 222.514 126.39 221.172 126.388C220.138 126.387 218.298 121.602 216.889 118.417C217.656 120.688 219.201 125.838 218.254 126.285C217.051 126.855 214.914 122.226 213.874 119.079C214.366 120.994 215.122 124.428 214.206 124.702C213.394 124.945 212.394 124.227 211.101 120.264C210.346 117.951 209.926 118.17 209.79 117.051C209.685 116.187 209.479 115.305 209.736 114.567C210.973 111.016 220.195 108.381 221.655 109.842Z" fill="#EBC0B8"/>
<path opacity="0.2" d="M213.968 124.429C214.37 124.228 214.244 122.812 214.127 122.702C214.127 122.702 213.015 123.014 212.85 123.154C212.685 123.292 213.566 124.628 213.968 124.429ZM218.118 126.166C218.52 125.966 218.394 124.55 218.277 124.439C218.277 124.439 217.166 124.751 217.001 124.891C216.836 125.029 217.716 126.365 218.118 126.166ZM221.27 125.99C221.673 125.789 221.546 124.373 221.43 124.264C221.43 124.264 220.319 124.576 220.154 124.715C219.987 124.855 220.868 126.19 221.27 125.99ZM223.815 122.926C224.217 122.726 224.091 121.31 223.974 121.199C223.974 121.199 222.863 121.511 222.698 121.651C222.533 121.79 223.415 123.127 223.815 122.926Z" fill="white"/>
<path d="M211.284 113.759C211.29 113.782 211.303 113.803 211.321 113.82C211.339 113.836 211.36 113.847 211.384 113.852C211.408 113.857 211.432 113.856 211.455 113.848C211.478 113.84 211.498 113.825 211.513 113.807C213.358 111.509 215.671 111.953 215.694 111.957C215.73 111.965 215.767 111.957 215.797 111.935C217.596 110.636 219.583 111.302 219.604 111.308C219.673 111.332 219.748 111.296 219.771 111.227C219.777 111.211 219.779 111.193 219.778 111.176C219.777 111.159 219.773 111.142 219.765 111.126C219.758 111.111 219.747 111.097 219.734 111.086C219.721 111.074 219.706 111.066 219.69 111.06C219.604 111.03 217.582 110.355 215.688 111.69C215.301 111.635 213.084 111.428 211.308 113.642C211.281 113.676 211.273 113.72 211.284 113.759ZM219.079 115.304C219.528 116.949 220.386 118.967 220.429 119.067C220.458 119.133 220.534 119.165 220.602 119.136C220.668 119.108 220.699 119.031 220.671 118.964C220.659 118.935 219.433 116.054 219.138 114.392C219.135 114.375 219.129 114.358 219.119 114.344C219.11 114.329 219.098 114.317 219.084 114.307C219.069 114.297 219.053 114.29 219.036 114.286C219.019 114.282 219.002 114.282 218.985 114.285C218.951 114.292 218.92 114.311 218.901 114.339C218.881 114.368 218.873 114.403 218.878 114.437C218.926 114.702 218.995 114.996 219.079 115.304ZM216.195 116.634C216.594 118.097 217.176 119.598 217.183 119.618C217.21 119.685 217.287 119.718 217.353 119.693C217.42 119.666 217.456 119.592 217.428 119.523C217.417 119.499 216.471 117.057 216.177 115.392C216.174 115.375 216.168 115.359 216.158 115.344C216.149 115.329 216.137 115.317 216.123 115.307C216.109 115.297 216.092 115.29 216.075 115.286C216.058 115.283 216.041 115.283 216.024 115.286C215.952 115.299 215.904 115.367 215.917 115.439C215.985 115.811 216.082 116.22 216.195 116.634ZM213.228 117.612C213.613 119.028 214.167 120.422 214.174 120.438C214.201 120.506 214.278 120.539 214.345 120.512C214.361 120.506 214.376 120.496 214.389 120.484C214.401 120.472 214.411 120.458 214.418 120.442C214.425 120.426 214.428 120.409 214.429 120.391C214.429 120.374 214.425 120.357 214.419 120.341C214.41 120.318 213.513 118.056 213.217 116.391C213.215 116.374 213.209 116.357 213.2 116.341C213.191 116.326 213.179 116.313 213.165 116.302C213.15 116.292 213.134 116.284 213.117 116.28C213.099 116.276 213.081 116.276 213.064 116.279C213.046 116.282 213.03 116.289 213.015 116.298C213 116.308 212.987 116.321 212.977 116.336C212.968 116.351 212.961 116.367 212.958 116.385C212.955 116.402 212.955 116.42 212.959 116.438C213.022 116.811 213.118 117.213 213.228 117.612Z" fill="#E0AFA9"/>
<path d="M317.796 334.783C317.796 334.783 302.983 343.191 315.61 362.898C315.61 362.898 332.832 348.33 317.796 334.783Z" fill="#E1E6F4"/>
<g opacity="0.52">
<path d="M315.781 362.233L316.81 355.366C317.142 353.079 317.469 350.791 317.739 348.499C317.88 347.355 318.007 346.207 318.111 345.06C318.223 343.912 318.307 342.763 318.366 341.614C318.417 340.465 318.445 339.313 318.391 338.166C318.343 337.02 318.216 335.866 317.797 334.783C318.067 335.295 318.283 335.845 318.406 336.417C318.55 336.984 318.643 337.561 318.718 338.139C318.853 339.298 318.894 340.465 318.888 341.629C318.876 343.959 318.672 346.276 318.403 348.582C318.118 350.886 317.763 353.178 317.325 355.455C316.893 357.732 316.384 359.995 315.781 362.233Z" fill="white"/>
</g>
<path d="M364.539 365.919C364.539 365.919 349.876 360.418 343.408 380.941C343.408 380.943 363.837 384.513 364.539 365.919Z" fill="#F1F2FF"/>
<g opacity="0.52">
<path d="M343.979 380.671L349.431 377.352C351.242 376.237 353.048 375.121 354.825 373.96C355.716 373.386 356.601 372.799 357.471 372.196C358.347 371.599 359.208 370.983 360.054 370.345C360.896 369.703 361.725 369.046 362.502 368.331C363.282 367.621 364.02 366.852 364.541 365.919C364.338 366.411 364.077 366.888 363.747 367.311C363.432 367.746 363.08 368.152 362.715 368.545C361.976 369.324 361.178 370.041 360.353 370.722C358.701 372.085 356.946 373.308 355.161 374.476C353.367 375.633 351.539 376.732 349.674 377.764C347.811 378.804 345.914 379.777 343.979 380.671Z" fill="white"/>
</g>
<path d="M284.199 361.972L261.499 335.709L254.643 344.775L284.199 361.972ZM339.153 355.801L353.983 342.586L348.736 338.742L339.153 355.801Z" fill="#D3DAEA"/>
<path d="M290.202 339.341C290.202 341.346 288.576 342.971 286.572 342.971C284.568 342.971 282.942 341.345 282.942 339.341C282.942 337.335 284.568 335.711 286.572 335.711C288.576 335.711 290.202 337.335 290.202 339.341Z" fill="#F1F2FF"/>
<path d="M373.772 267.916C370.802 274.714 368.016 281.089 365.402 287.08C365.268 287.384 364.872 287.555 364.515 287.465C353.553 284.711 342.833 281.068 332.462 276.574C332.126 276.428 331.916 276.05 331.995 275.728C333.57 269.383 335.247 262.631 337.034 255.431C337.058 255.332 337.102 255.24 337.164 255.159C337.227 255.079 337.305 255.013 337.395 254.965L337.398 254.963C337.553 254.879 337.734 254.849 337.919 254.893C350.057 257.819 361.994 261.875 373.401 266.95C373.559 267.02 373.685 267.145 373.758 267.301C373.775 267.332 373.788 267.364 373.797 267.395C373.799 267.403 373.8 267.404 373.8 267.404C373.852 267.573 373.841 267.754 373.772 267.916Z" fill="#D3DAEA"/>
<path d="M360.517 276.382C359.62 274.866 358.618 273.384 357.445 272.137C359.343 272.17 361.29 271.98 363.274 271.542C366.988 270.745 370.569 269.361 373.813 267.418L373.825 267.411L373.818 267.399C373.768 267.27 373.689 267.144 373.57 267.058C373.669 267.139 373.743 267.255 373.78 267.39C370.458 269.157 366.883 270.427 363.19 271.129C360.981 271.566 358.903 271.728 356.95 271.633C355.815 270.525 354.525 269.626 353.034 269.094C351.393 268.578 349.585 268.536 347.71 268.84C343.105 265.999 339.678 261.145 337.414 254.962C337.57 254.88 337.744 254.85 337.912 254.887C337.737 254.838 337.545 254.863 337.377 254.953L337.384 254.965C338.295 257.644 339.382 260.323 340.942 262.687C342.576 265.342 344.608 267.438 346.936 268.962C342.042 269.944 336.804 273.069 332.944 275.962C337.066 273.304 342.724 270.186 347.77 269.493C348.064 269.451 348.378 269.413 348.667 269.389C350.128 269.266 351.517 269.38 352.8 269.787C353.899 270.181 354.892 270.787 355.822 271.545C356.029 271.719 356.242 271.905 356.445 272.097C357.858 273.415 359.059 275.059 360.124 276.742C362.007 279.816 363.54 283.224 364.782 286.782C363.759 283.071 362.349 279.553 360.517 276.382Z" fill="#BAC8E5"/>
<path d="M208.931 51.9495C210.908 60.852 212.76 69.201 214.505 77.0445C214.593 77.442 214.323 77.901 213.903 78.0705C200.999 83.286 187.763 87.42 174.182 90.4785C173.742 90.576 173.261 90.354 173.106 89.976C170.073 82.5345 166.847 74.6145 163.404 66.171C163.305 65.9265 163.319 65.6655 163.424 65.4465L163.425 65.4435C163.519 65.242 163.685 65.0827 163.89 64.9965C178.064 59.1075 192.855 54.4875 207.86 51.261C208.076 51.2145 208.29 51.2535 208.469 51.351C208.508 51.3705 208.544 51.393 208.575 51.417C208.755 51.5449 208.881 51.7344 208.931 51.9495Z" fill="#F1F2FF"/>
<path d="M201.905 69.9601C199.916 69.1036 197.846 68.3581 195.779 67.9711C197.687 66.6301 199.482 65.0281 201.135 63.1561C204.246 59.6746 206.798 55.7056 208.613 51.4261L208.619 51.4111L208.604 51.4051C208.461 51.3136 208.29 51.2461 208.112 51.2461C208.269 51.2551 208.424 51.3166 208.56 51.4231C206.541 55.5856 203.912 59.4361 200.754 62.8081C198.878 64.8421 196.931 66.5086 194.922 67.8301C192.992 67.5511 191.058 67.5946 189.194 68.1466C187.19 68.8231 185.364 70.0906 183.723 71.7526C177.092 72.2686 170.172 69.9316 163.443 65.4316C163.538 65.2366 163.689 65.0806 163.884 64.9966C163.674 65.0746 163.502 65.2396 163.401 65.4511L163.416 65.4571C166.262 67.4581 169.283 69.3301 172.544 70.5466C176.088 72.0001 179.627 72.6076 183.042 72.4351C178.895 76.9561 175.956 83.8546 174.219 89.5246C176.387 83.8981 179.745 76.7026 184.254 72.3586C184.515 72.1036 184.799 71.8396 185.07 71.6071C186.432 70.4251 187.893 69.5341 189.462 69.0076C190.839 68.6026 192.264 68.4841 193.737 68.5651C194.069 68.5891 194.415 68.6176 194.756 68.6626C197.114 68.9491 199.499 69.7111 201.776 70.6096C205.872 72.2986 209.862 74.5711 213.675 77.2051C209.967 74.2531 206.019 71.7811 201.905 69.9601Z" fill="#BAC8E5"/>
</svg>
