<svg width="56" height="55" viewBox="0 0 56 55" fill="none" xmlns="http://www.w3.org/2000/svg">
<circle cx="28" cy="27.5" r="27.5" fill="#FFF4B6"/>
<rect width="32" height="32" transform="translate(12 11)" fill="#FFF4B6"/>
<path fill-rule="evenodd" clip-rule="evenodd" d="M26.5 27C25.6716 27 25 27.6716 25 28.5C25 29.3284 25.6716 30 26.5 30C27.3284 30 28 29.3284 28 28.5C28 27.6716 27.3284 27 26.5 27ZM23 28.5C23 26.567 24.567 25 26.5 25C28.433 25 30 26.567 30 28.5C30 30.433 28.433 32 26.5 32C24.567 32 23 30.433 23 28.5Z" fill="#4D4204"/>
<path fill-rule="evenodd" clip-rule="evenodd" d="M25.4446 29.5554C25.8351 29.9459 25.8351 30.5791 25.4446 30.9696L16.7071 39.7071C16.3166 40.0976 15.6834 40.0976 15.2929 39.7071C14.9024 39.3166 14.9024 38.6834 15.2929 38.2929L24.0304 29.5554C24.4209 29.1649 25.0541 29.1649 25.4446 29.5554Z" fill="#4D4204"/>
<path fill-rule="evenodd" clip-rule="evenodd" d="M26.6487 17.0638C27.0159 16.926 27.4298 17.0156 27.7071 17.2929L37.7071 27.2929C37.9845 27.5703 38.0741 27.9841 37.9363 28.3513L35.138 35.8093C35.0181 36.137 34.814 36.4275 34.5462 36.6514C34.2766 36.8768 33.9521 37.0267 33.6057 37.0858L33.6016 37.0865L16.1641 39.9865C15.8456 40.0394 15.5211 39.9354 15.2929 39.7071C15.0646 39.4788 14.9606 39.1543 15.0136 38.8359L17.9144 21.406C17.9735 21.0612 18.1215 20.7379 18.3437 20.4677C18.5659 20.1976 18.8547 19.99 19.1815 19.8655L19.1862 19.8638L26.6487 17.0638ZM19.893 21.7347C19.8929 21.7348 19.8932 21.7346 19.893 21.7347C19.8912 21.7355 19.8896 21.7367 19.8883 21.7383C19.887 21.7398 19.8861 21.7416 19.8857 21.7436C19.8857 21.7438 19.8857 21.7434 19.8857 21.7436L17.2161 37.784L33.2621 35.1155L33.2637 35.1112L35.8375 28.2517L26.7483 19.1625L19.893 21.7347Z" fill="#4D4204"/>
<path fill-rule="evenodd" clip-rule="evenodd" d="M30.2276 13.5694C30.4722 13.4669 30.7348 13.4142 31 13.4142C31.2652 13.4142 31.5278 13.4669 31.7724 13.5694C32.0157 13.6712 32.2364 13.8202 32.4219 14.0077L40.9923 22.5781C41.1798 22.7636 41.3288 22.9843 41.4306 23.2276C41.5331 23.4722 41.5858 23.7348 41.5858 24C41.5858 24.2652 41.5331 24.5278 41.4306 24.7724C41.3288 25.0157 41.1798 25.2364 40.9923 25.4219L37.7071 28.7071C37.3166 29.0976 36.6834 29.0976 36.2929 28.7071C35.9024 28.3166 35.9024 27.6834 36.2929 27.2929L39.5858 24L39.5804 23.9946L31 15.4142L30.9946 15.4196L27.7071 18.7071C27.3166 19.0976 26.6834 19.0976 26.2929 18.7071C25.9024 18.3166 25.9024 17.6834 26.2929 17.2929L29.5782 14.0076C29.7636 13.8202 29.9843 13.6712 30.2276 13.5694Z" fill="#4D4204"/>
</svg>
