<svg width="260" height="142" viewBox="0 0 260 142" fill="none" xmlns="http://www.w3.org/2000/svg">
<path d="M42.9137 21.5377C42.9175 33.3845 33.2856 43.0244 21.5256 43C9.58068 42.9751 1.28693 33.8392 0.16792 24.2014C-0.573029 17.8195 1.13605 12.1427 5.33603 7.32987C9.57099 2.47704 15.0404 -0.0117595 21.4877 4.17726e-05C33.1844 0.0211154 42.9832 9.50088 42.9137 21.5377Z" fill="#5B7EFB"/>
<path d="M24.4669 29.5673C22.574 29.5673 20.6812 29.5698 18.7888 29.566C18.1081 29.5643 17.8586 29.346 17.8641 28.6653C17.8877 25.7133 17.7288 22.7567 17.9467 19.8102C18.0866 17.9157 18.8356 16.218 20.0068 14.7154C20.7992 13.6984 21.6278 12.7126 22.5534 11.8131C22.8522 11.5223 23.0031 11.1932 22.9963 10.7713C22.9883 10.2659 23.0376 9.75973 23.0254 9.25481C23.0107 8.62344 23.2176 8.09955 23.8102 7.861C24.4277 7.61233 25.032 7.73961 25.5328 8.20745C26.0204 8.66306 26.2101 9.27377 26.361 9.89334C26.7487 11.4852 26.4482 12.9966 25.7932 14.4617C25.5741 14.9523 25.3743 15.4526 25.129 15.9297C24.9684 16.242 25.0927 16.3516 25.3705 16.3958C25.5142 16.4186 25.6634 16.4085 25.8101 16.408C27.5069 16.4047 29.2038 16.3992 30.9011 16.3971C31.8237 16.3958 32.455 16.8375 32.6742 17.6299C32.9195 18.5171 32.565 19.5341 31.819 19.9324C31.4835 20.1115 31.4937 20.1874 31.7866 20.3931C32.4066 20.828 32.82 21.3797 32.6932 22.2041C32.5975 22.8258 32.2894 23.2557 31.677 23.4517C31.5611 23.4888 31.3832 23.4778 31.3609 23.6304C31.3373 23.7885 31.5227 23.8142 31.6193 23.8862C32.434 24.494 32.5431 26.1141 31.347 26.6094C31.1169 26.7046 31.0149 26.7611 31.2581 26.9942C31.784 27.4987 31.7891 28.1435 31.5434 28.7618C31.3048 29.362 30.7666 29.5458 30.1449 29.5437C28.2521 29.5369 26.3597 29.5411 24.4669 29.5411C24.4669 29.55 24.4669 29.5588 24.4669 29.5673Z" fill="#FDFDFE"/>
<path d="M15.576 31.2554C14.011 31.2601 12.4461 31.2626 10.8812 31.2714C10.415 31.274 10.1988 31.0135 10.1495 30.5882C10.1234 30.3627 10.1377 30.1322 10.1377 29.9042C10.1385 26.6268 10.1385 23.3499 10.1432 20.0729C10.1445 19.2641 10.3472 19.0677 11.1619 19.066C12.5641 19.0635 13.9664 19.0614 15.3682 19.0673C15.9304 19.0698 16.2187 19.3147 16.2191 19.8504C16.2229 23.29 16.2116 26.7297 16.2044 30.1693C16.2044 30.1849 16.1951 30.2005 16.1905 30.2161C16.1024 30.2439 16.1129 30.2751 16.1867 30.3092C16.2141 30.6797 16.2031 31.0325 15.7762 31.1918C15.7635 31.0889 15.7281 30.9752 15.6076 31.011C15.4693 31.0514 15.5949 31.1728 15.576 31.2554Z" fill="#FDFDFE"/>
<path d="M245.359 31H78.6403C71.1065 31 65 37.1071 65 44.6403V115.572C65 123.105 71.1071 129.213 78.6403 129.213H142.775L154.262 140.7L165.749 129.213H245.359C252.893 129.213 259 123.106 259 115.572V44.6403C259 37.1071 252.893 31 245.359 31Z" fill="white" stroke="#5B7EFB" stroke-width="1.0481" stroke-miterlimit="10"/>
<path d="M101.707 72.6861C108.958 69.6325 112.361 61.2786 109.308 54.0272C106.254 46.7759 97.9002 43.3729 90.6488 46.4266C83.3974 49.4803 79.9945 57.8342 83.0482 65.0855C86.1019 72.3369 94.4557 75.7398 101.707 72.6861Z" fill="#DAE0FF"/>
<path d="M125.876 46.607L128.491 54.4483L136.756 54.3848L130.107 59.2945L132.722 67.1358L125.998 62.329L119.348 67.2388L121.842 59.3586L115.118 54.5518L123.383 54.4877L125.876 46.607Z" fill="#FAAF3B"/>
<path d="M152.203 46.607L154.818 54.4483L163.083 54.3848L156.434 59.2945L159.049 67.1358L152.325 62.329L145.675 67.2388L148.168 59.3586L141.444 54.5518L149.71 54.4877L152.203 46.607Z" fill="#FAAF3B"/>
<path d="M178.53 46.607L181.145 54.4483L189.41 54.3848L182.76 59.2945L185.375 67.1358L178.651 62.329L172.002 67.2388L174.495 59.3586L167.771 54.5518L176.036 54.4877L178.53 46.607Z" fill="#FAAF3B"/>
<path d="M204.856 46.607L207.471 54.4483L215.737 54.3848L209.087 59.2945L211.702 67.1358L204.977 62.329L198.328 67.2388L200.822 59.3586L194.097 54.5518L202.363 54.4877L204.856 46.607Z" fill="#E8ECFF"/>
<path d="M231.183 46.607L233.797 54.4483L242.063 54.3848L235.414 59.2945L238.029 67.1358L231.304 62.329L224.654 67.2388L227.148 59.3586L220.424 54.5518L228.689 54.4877L231.183 46.607Z" fill="#E8ECFF"/>
<path d="M93.7655 80.1531H81.1821V83.5155H93.7655V80.1531Z" fill="#5B7EFB"/>
<path d="M115.738 80.1531H96.8721V83.5154H115.738V80.1531Z" fill="#5B7EFB"/>
<path d="M108.322 90.1421H81.1821V93.5044H108.322V90.1421Z" fill="#C1CEFD"/>
<path d="M182.883 90.1421H119.382V93.5044H182.883V90.1421Z" fill="#C1CEFD"/>
<path d="M242.817 90.1421H193.942V93.5044H242.817V90.1421Z" fill="#C1CEFD"/>
<path d="M141.857 100.845H81.1821V104.207H141.857V100.845Z" fill="#C1CEFD"/>
<path d="M242.817 100.845H212.494V104.207H242.817V100.845Z" fill="#C1CEFD"/>
<path d="M205.358 100.845H152.203V104.207H205.358V100.845Z" fill="#C1CEFD"/>
<path d="M158.624 111.547H81.1821V114.91H158.624V111.547Z" fill="#C1CEFD"/>
</svg>
