<svg width="56" height="55" viewBox="0 0 56 55" fill="none" xmlns="http://www.w3.org/2000/svg">
<circle cx="28" cy="27.5" r="27.5" fill="#E2A18D"/>
<path fill-rule="evenodd" clip-rule="evenodd" d="M19.75 24.0625C19.75 23.493 20.2117 23.0312 20.7812 23.0312H37.2812C37.8508 23.0312 38.3125 23.493 38.3125 24.0625C38.3125 24.632 37.8508 25.0938 37.2812 25.0938H20.7812C20.2117 25.0938 19.75 24.632 19.75 24.0625Z" fill="#093A3D"/>
<path fill-rule="evenodd" clip-rule="evenodd" d="M19.75 18.9062C19.75 18.3367 20.2117 17.875 20.7812 17.875H37.2812C37.8508 17.875 38.3125 18.3367 38.3125 18.9062C38.3125 19.4758 37.8508 19.9375 37.2812 19.9375H20.7812C20.2117 19.9375 19.75 19.4758 19.75 18.9062Z" fill="#093A3D"/>
<path fill-rule="evenodd" clip-rule="evenodd" d="M24.3907 18.9062C24.3907 18.3367 24.8524 17.875 25.4219 17.875C27.4732 17.875 29.4405 18.6899 30.8909 20.1403C32.3414 21.5908 33.1563 23.5581 33.1563 25.6094C33.1563 27.6607 32.3414 29.6279 30.8909 31.0784C29.4405 32.5289 27.4732 33.3438 25.4219 33.3438H23.4487L32.8187 41.8619C33.2402 42.2451 33.2712 42.8973 32.8881 43.3187C32.505 43.7401 31.8528 43.7712 31.4313 43.3881L20.0876 33.0756C19.7723 32.789 19.6658 32.338 19.8194 31.9406C19.9731 31.5432 20.3552 31.2812 20.7813 31.2812H25.4219C26.9262 31.2812 28.3689 30.6837 29.4325 29.62C30.4962 28.5563 31.0938 27.1136 31.0938 25.6094C31.0938 24.1051 30.4962 22.6624 29.4325 21.5988C28.3689 20.5351 26.9262 19.9375 25.4219 19.9375C24.8524 19.9375 24.3907 19.4758 24.3907 18.9062Z" fill="#093A3D"/>
</svg>
