<svg width="246" height="122" viewBox="0 0 246 122" fill="none" xmlns="http://www.w3.org/2000/svg">
<path d="M245.167 0.133301H0.133789V121.875H245.167V0.133301Z" fill="white"/>
<path d="M245.167 0.133301H0.133789V15.2374H245.167V0.133301Z" fill="#E0E0E0"/>
<path d="M245.166 121.875C245.166 121.092 245.128 75.2068 245.068 0.133326L245.166 0.231916C180.975 0.241111 94.7413 0.252861 0.150697 0.266142H0.133326L0.266142 0.133326C0.263588 43.0447 0.261034 84.2321 0.25848 121.875L0.133326 121.75C143.151 121.823 244.008 121.874 245.166 121.875C244.009 121.875 143.151 121.927 0.133326 122H0.00766597V121.874C0.00511184 84.2316 0.00255413 43.0442 0 0.132816V0H0.132816H0.150186C94.7408 0.0132815 180.974 0.025542 245.166 0.034226H245.264V0.132816C245.204 75.2068 245.167 121.092 245.166 121.875Z" fill="#191919"/>
<path d="M218.98 75.3938H22.3308C20.7758 75.3938 19.5156 74.1336 19.5156 72.5787V48.6429C19.5156 47.088 20.7758 45.8278 22.3308 45.8278H218.98C220.535 45.8278 221.795 47.088 221.795 48.6429V72.5787C221.795 74.1331 220.535 75.3938 218.98 75.3938Z" fill="#FAFAFA"/>
<path d="M218.982 75.3938C218.974 75.3693 219.402 75.4444 220.126 75.1343C220.475 74.9703 220.899 74.698 221.235 74.2265C221.58 73.7658 221.816 73.1027 221.77 72.338C221.764 69.2787 221.756 64.7722 221.745 58.9692C221.741 56.0667 221.738 52.8398 221.733 49.308C221.725 48.8651 221.766 48.4171 221.651 47.9916C221.546 47.5645 221.34 47.1548 221.037 46.8218C220.739 46.4851 220.355 46.2175 219.922 46.0642C219.708 45.9804 219.48 45.9391 219.251 45.9094C219.022 45.8931 218.783 45.8956 218.543 45.8967C216.627 45.8982 214.637 45.9002 212.576 45.9023C204.329 45.9079 194.939 45.9145 184.561 45.9222C143.041 45.9324 85.6876 45.9457 22.3437 45.961C21.3977 45.9559 20.4674 46.481 20.0077 47.3096C19.7697 47.7162 19.6542 48.1867 19.6501 48.6567V50.134C19.6501 52.1022 19.6501 54.0643 19.6501 56.0197C19.6501 59.9306 19.6496 63.8159 19.6496 67.6732C19.6496 68.6376 19.6496 69.6 19.6496 70.5603V71.9999C19.6501 72.4862 19.6292 72.9485 19.7727 73.3842C20.0465 74.2541 20.7862 74.9672 21.675 75.1777C22.1092 75.2993 22.5833 75.2533 23.064 75.2625H24.4897C28.2877 75.263 32.055 75.2635 35.7892 75.2635C50.7262 75.2661 65.1341 75.2686 78.8594 75.2712C106.31 75.2819 131.029 75.2916 151.788 75.2998C172.545 75.3177 189.343 75.332 200.954 75.3422C206.756 75.3529 211.262 75.3616 214.321 75.3672C215.847 75.3728 217.011 75.3774 217.797 75.3805C218.581 75.3846 218.982 75.3938 218.982 75.3938C218.982 75.3938 218.581 75.403 217.797 75.4076C217.011 75.4106 215.847 75.4152 214.321 75.4209C211.262 75.4265 206.756 75.4352 200.954 75.4459C189.342 75.4561 172.545 75.4704 151.788 75.4883C131.029 75.4965 106.309 75.5062 78.8594 75.5169C65.1341 75.5194 50.7262 75.522 35.7892 75.5246C32.055 75.5251 28.2877 75.5256 24.4897 75.5256H23.064H22.3498C22.1026 75.5189 21.8513 75.4995 21.6107 75.4331C20.634 75.2012 19.8223 74.4207 19.5214 73.4634C19.3625 72.9806 19.3865 72.4683 19.3855 71.9999V70.5603C19.3855 69.5995 19.3855 68.6371 19.3855 67.6732C19.3855 63.8164 19.385 59.9311 19.385 56.0197C19.385 54.0643 19.385 52.1022 19.385 50.134V48.6567C19.3886 48.1433 19.5163 47.6232 19.7778 47.1768C20.2825 46.267 21.3062 45.6882 22.3442 45.6949C85.6887 45.7102 143.041 45.724 184.561 45.7337C194.94 45.7409 204.33 45.7475 212.576 45.7531C214.638 45.7552 216.628 45.7567 218.544 45.7587C218.783 45.7587 219.02 45.7562 219.265 45.7736C219.506 45.8042 219.745 45.8486 219.969 45.937C220.423 46.0989 220.825 46.3799 221.137 46.7334C221.453 47.0828 221.668 47.5129 221.778 47.9604C221.897 48.4135 221.853 48.8712 221.861 49.3074C221.857 52.8393 221.853 56.0662 221.849 58.9687C221.839 64.7722 221.83 69.2787 221.824 72.3375C221.867 73.1083 221.621 73.7872 221.268 74.25C220.923 74.7256 220.492 74.9974 220.137 75.1583C219.776 75.3182 219.476 75.358 219.281 75.3836C219.082 75.3943 218.982 75.3938 218.982 75.3938Z" fill="#263238"/>
<path d="M21.044 38V29.54H24.392C25.304 29.54 26 29.752 26.48 30.176C26.968 30.6 27.212 31.204 27.212 31.988C27.212 32.612 27.04 33.124 26.696 33.524C26.36 33.924 25.88 34.184 25.256 34.304C25.624 34.432 25.94 34.744 26.204 35.24L27.692 38H26.612L25.148 35.288C24.964 34.952 24.752 34.724 24.512 34.604C24.272 34.484 23.956 34.424 23.564 34.424H22.028V38H21.044ZM22.028 33.644H24.248C25.576 33.644 26.24 33.092 26.24 31.988C26.24 30.9 25.576 30.356 24.248 30.356H22.028V33.644ZM31.4384 38.108C30.5184 38.108 29.7904 37.84 29.2544 37.304C28.7184 36.76 28.4504 36.024 28.4504 35.096C28.4504 34.496 28.5704 33.968 28.8104 33.512C29.0504 33.048 29.3784 32.692 29.7944 32.444C30.2184 32.188 30.7064 32.06 31.2584 32.06C32.0504 32.06 32.6704 32.316 33.1184 32.828C33.5664 33.332 33.7904 34.028 33.7904 34.916V35.288H29.3984C29.4304 35.952 29.6224 36.46 29.9744 36.812C30.3264 37.156 30.8144 37.328 31.4384 37.328C31.7904 37.328 32.1264 37.276 32.4464 37.172C32.7664 37.06 33.0704 36.88 33.3584 36.632L33.6944 37.316C33.4304 37.564 33.0944 37.76 32.6864 37.904C32.2784 38.04 31.8624 38.108 31.4384 38.108ZM31.2824 32.78C30.7304 32.78 30.2944 32.952 29.9744 33.296C29.6544 33.64 29.4664 34.092 29.4104 34.652H32.9504C32.9264 34.06 32.7704 33.6 32.4824 33.272C32.2024 32.944 31.8024 32.78 31.2824 32.78ZM37.7772 40.268C37.2732 40.268 36.7972 40.2 36.3492 40.064C35.9092 39.936 35.5172 39.74 35.1732 39.476L35.4972 38.768C35.8572 39.024 36.2132 39.208 36.5652 39.32C36.9252 39.432 37.3132 39.488 37.7292 39.488C38.8812 39.488 39.4572 38.896 39.4572 37.712V36.68C39.2892 37.048 39.0252 37.34 38.6652 37.556C38.3132 37.764 37.9092 37.868 37.4532 37.868C36.9172 37.868 36.4532 37.744 36.0612 37.496C35.6692 37.248 35.3652 36.908 35.1492 36.476C34.9412 36.036 34.8372 35.528 34.8372 34.952C34.8372 34.376 34.9412 33.872 35.1492 33.44C35.3652 33 35.6692 32.66 36.0612 32.42C36.4532 32.18 36.9172 32.06 37.4532 32.06C37.9092 32.06 38.3132 32.164 38.6652 32.372C39.0252 32.58 39.2892 32.864 39.4572 33.224V32.168H40.4052V37.58C40.4052 38.476 40.1812 39.148 39.7332 39.596C39.2932 40.044 38.6412 40.268 37.7772 40.268ZM37.6332 37.076C38.1932 37.076 38.6372 36.884 38.9652 36.5C39.2932 36.116 39.4572 35.6 39.4572 34.952C39.4572 34.304 39.2932 33.792 38.9652 33.416C38.6372 33.032 38.1932 32.84 37.6332 32.84C37.0812 32.84 36.6412 33.032 36.3132 33.416C35.9852 33.792 35.8212 34.304 35.8212 34.952C35.8212 35.6 35.9852 36.116 36.3132 36.5C36.6412 36.884 37.0812 37.076 37.6332 37.076ZM42.1084 30.716V29.624H43.3084V30.716H42.1084ZM42.2284 38V32.168H43.2004V38H42.2284ZM46.9855 38.108C46.5295 38.108 46.0975 38.044 45.6895 37.916C45.2815 37.788 44.9455 37.608 44.6815 37.376L44.9935 36.692C45.2815 36.924 45.5975 37.096 45.9415 37.208C46.2935 37.312 46.6495 37.364 47.0095 37.364C47.4655 37.364 47.8095 37.28 48.0415 37.112C48.2735 36.944 48.3895 36.716 48.3895 36.428C48.3895 36.204 48.3135 36.028 48.1615 35.9C48.0095 35.764 47.7695 35.66 47.4415 35.588L46.3495 35.348C45.3575 35.132 44.8615 34.62 44.8615 33.812C44.8615 33.284 45.0695 32.86 45.4855 32.54C45.9095 32.22 46.4615 32.06 47.1415 32.06C47.5415 32.06 47.9215 32.124 48.2815 32.252C48.6495 32.372 48.9535 32.552 49.1935 32.792L48.8695 33.476C48.6375 33.26 48.3655 33.096 48.0535 32.984C47.7495 32.864 47.4455 32.804 47.1415 32.804C46.6935 32.804 46.3535 32.892 46.1215 33.068C45.8895 33.244 45.7735 33.476 45.7735 33.764C45.7735 34.212 46.0695 34.5 46.6615 34.628L47.7535 34.856C48.2655 34.968 48.6535 35.148 48.9175 35.396C49.1815 35.636 49.3135 35.964 49.3135 36.38C49.3135 36.916 49.1015 37.34 48.6775 37.652C48.2535 37.956 47.6895 38.108 46.9855 38.108ZM53.0762 38.108C52.3882 38.108 51.8722 37.928 51.5282 37.568C51.1842 37.2 51.0122 36.672 51.0122 35.984V32.924H49.8722V32.168H51.0122V30.38H51.9842V32.168H53.8322V32.924H51.9842V35.888C51.9842 36.344 52.0802 36.692 52.2722 36.932C52.4642 37.164 52.7762 37.28 53.2082 37.28C53.3362 37.28 53.4642 37.264 53.5922 37.232C53.7202 37.2 53.8362 37.168 53.9402 37.136L54.1082 37.88C54.0042 37.936 53.8522 37.988 53.6522 38.036C53.4522 38.084 53.2602 38.108 53.0762 38.108ZM54.9315 38V32.168H55.8795V33.212C56.1915 32.508 56.8315 32.12 57.7995 32.048L58.1475 32.012L58.2195 32.852L57.6075 32.924C57.0555 32.972 56.6355 33.148 56.3475 33.452C56.0595 33.748 55.9155 34.156 55.9155 34.676V38H54.9315ZM61.0097 38.108C60.6097 38.108 60.2497 38.032 59.9297 37.88C59.6177 37.72 59.3697 37.504 59.1857 37.232C59.0017 36.96 58.9097 36.656 58.9097 36.32C58.9097 35.896 59.0177 35.56 59.2337 35.312C59.4577 35.064 59.8217 34.888 60.3257 34.784C60.8377 34.672 61.5337 34.616 62.4137 34.616H62.7977V34.244C62.7977 33.748 62.6937 33.392 62.4857 33.176C62.2857 32.952 61.9617 32.84 61.5137 32.84C61.1617 32.84 60.8217 32.892 60.4937 32.996C60.1657 33.092 59.8297 33.252 59.4857 33.476L59.1497 32.768C59.4537 32.552 59.8217 32.38 60.2537 32.252C60.6937 32.124 61.1137 32.06 61.5137 32.06C62.2657 32.06 62.8217 32.244 63.1817 32.612C63.5497 32.98 63.7337 33.552 63.7337 34.328V38H62.8217V36.992C62.6697 37.336 62.4337 37.608 62.1137 37.808C61.8017 38.008 61.4337 38.108 61.0097 38.108ZM61.1657 37.376C61.6457 37.376 62.0377 37.212 62.3417 36.884C62.6457 36.548 62.7977 36.124 62.7977 35.612V35.252H62.4257C61.7777 35.252 61.2657 35.284 60.8897 35.348C60.5217 35.404 60.2617 35.508 60.1097 35.66C59.9657 35.804 59.8937 36.004 59.8937 36.26C59.8937 36.588 60.0057 36.856 60.2297 37.064C60.4617 37.272 60.7737 37.376 61.1657 37.376ZM67.877 38.108C67.189 38.108 66.673 37.928 66.329 37.568C65.985 37.2 65.813 36.672 65.813 35.984V32.924H64.673V32.168H65.813V30.38H66.785V32.168H68.633V32.924H66.785V35.888C66.785 36.344 66.881 36.692 67.073 36.932C67.265 37.164 67.577 37.28 68.009 37.28C68.137 37.28 68.265 37.264 68.393 37.232C68.521 37.2 68.637 37.168 68.741 37.136L68.909 37.88C68.805 37.936 68.653 37.988 68.453 38.036C68.253 38.084 68.061 38.108 67.877 38.108ZM69.6123 30.716V29.624H70.8123V30.716H69.6123ZM69.7323 38V32.168H70.7043V38H69.7323ZM74.9454 38.108C74.3774 38.108 73.8854 37.984 73.4694 37.736C73.0534 37.488 72.7294 37.14 72.4974 36.692C72.2734 36.236 72.1614 35.7 72.1614 35.084C72.1614 34.468 72.2734 33.936 72.4974 33.488C72.7294 33.032 73.0534 32.68 73.4694 32.432C73.8854 32.184 74.3774 32.06 74.9454 32.06C75.5054 32.06 75.9934 32.184 76.4094 32.432C76.8334 32.68 77.1574 33.032 77.3814 33.488C77.6134 33.936 77.7294 34.468 77.7294 35.084C77.7294 35.7 77.6134 36.236 77.3814 36.692C77.1574 37.14 76.8334 37.488 76.4094 37.736C75.9934 37.984 75.5054 38.108 74.9454 38.108ZM74.9454 37.328C75.4894 37.328 75.9254 37.136 76.2534 36.752C76.5814 36.36 76.7454 35.804 76.7454 35.084C76.7454 34.356 76.5814 33.8 76.2534 33.416C75.9254 33.032 75.4894 32.84 74.9454 32.84C74.3934 32.84 73.9534 33.032 73.6254 33.416C73.3054 33.8 73.1454 34.356 73.1454 35.084C73.1454 35.804 73.3054 36.36 73.6254 36.752C73.9534 37.136 74.3934 37.328 74.9454 37.328ZM79.1893 38V32.168H80.1373V33.164C80.3293 32.796 80.6013 32.52 80.9533 32.336C81.3053 32.152 81.7013 32.06 82.1413 32.06C83.5253 32.06 84.2173 32.828 84.2173 34.364V38H83.2453V34.424C83.2453 33.88 83.1373 33.484 82.9213 33.236C82.7133 32.98 82.3773 32.852 81.9133 32.852C81.3773 32.852 80.9493 33.02 80.6293 33.356C80.3173 33.684 80.1613 34.124 80.1613 34.676V38H79.1893Z" fill="#263238"/>
<path d="M38.3995 62.4348V63.2301H34.5693V58.1234H38.2973V58.9188H35.5179V60.2469H37.9837V61.0275H35.5179V62.4353H38.3995V62.4348Z" fill="#E0E0E0"/>
<path d="M43.206 60.9972V63.23H42.2942V61.1142C42.2942 60.4215 41.9514 60.0854 41.3675 60.0854C40.7183 60.0854 40.2805 60.4792 40.2805 61.2603V63.23H39.3682V59.3345H40.2366V59.8376C40.5354 59.48 41.01 59.2905 41.579 59.2905C42.5128 59.29 43.206 59.8228 43.206 60.9972Z" fill="#E0E0E0"/>
<path d="M46.7068 63.0187C46.4876 63.1939 46.1597 63.2813 45.8312 63.2813C44.9776 63.2813 44.4888 62.8287 44.4888 61.9679V60.0932H43.8467V59.3632H44.4888V58.4734H45.4006V59.3632H46.4437V60.0932H45.4006V61.9465C45.4006 62.326 45.5901 62.5304 45.9406 62.5304C46.1306 62.5304 46.3129 62.4793 46.4514 62.37L46.7068 63.0187Z" fill="#E0E0E0"/>
<path d="M50.9725 61.574H47.9157C48.025 62.1431 48.4996 62.5078 49.178 62.5078C49.6158 62.5078 49.9585 62.3694 50.2359 62.0848L50.7248 62.6468C50.3743 63.0626 49.8272 63.2817 49.156 63.2817C47.8503 63.2817 47.0039 62.4424 47.0039 61.2828C47.0039 60.1233 47.8575 59.2911 49.0176 59.2911C50.1557 59.2911 50.9873 60.0865 50.9873 61.3048C50.9873 61.3768 50.9802 61.4862 50.9725 61.574ZM47.9086 60.9687H50.1189C50.0459 60.4068 49.6158 60.0201 49.0176 60.0201C48.4266 60.0201 47.9959 60.3991 47.9086 60.9687Z" fill="#E0E0E0"/>
<path d="M54.1156 59.2902V60.1586C54.0354 60.1438 53.9695 60.1366 53.9041 60.1366C53.2109 60.1366 52.7732 60.5453 52.7732 61.3401V63.2297H51.8613V59.3341H52.7292V59.9032C52.9918 59.4945 53.4658 59.2902 54.1156 59.2902Z" fill="#E0E0E0"/>
<path d="M60.5859 59.334L58.7618 63.5437C58.4042 64.4264 57.9082 64.6961 57.2589 64.6961C56.8722 64.6961 56.4636 64.5649 56.2158 64.3386L56.5806 63.6673C56.7558 63.8354 57.004 63.9371 57.2518 63.9371C57.5726 63.9371 57.7626 63.7838 57.9378 63.3971L58.0032 63.2439L56.3032 59.3335H57.2513L58.4767 62.2151L59.7099 59.3335H60.5859V59.334Z" fill="#E0E0E0"/>
<path d="M60.7207 61.2819C60.7207 60.1146 61.5963 59.2902 62.7931 59.2902C64.0043 59.2902 64.8722 60.1146 64.8722 61.2819C64.8722 62.4491 64.0038 63.2807 62.7931 63.2807C61.5963 63.2812 60.7207 62.4491 60.7207 61.2819ZM63.9532 61.2819C63.9532 60.5376 63.4572 60.0636 62.7931 60.0636C62.1362 60.0636 61.6402 60.5381 61.6402 61.2819C61.6402 62.0261 62.1362 62.5002 62.7931 62.5002C63.4567 62.5002 63.9532 62.0261 63.9532 61.2819Z" fill="#E0E0E0"/>
<path d="M69.5179 59.334V63.2296H68.6494V62.7336C68.3578 63.0911 67.898 63.2806 67.3949 63.2806C66.3952 63.2806 65.7168 62.7336 65.7168 61.5587V59.3335H66.6286V61.4345C66.6286 62.142 66.9642 62.4776 67.5404 62.4776C68.1754 62.4776 68.6055 62.0838 68.6055 61.3032V59.3335H69.5179V59.334Z" fill="#E0E0E0"/>
<path d="M72.9672 59.2902V60.1586C72.887 60.1438 72.8211 60.1366 72.7557 60.1366C72.0625 60.1366 71.6247 60.5453 71.6247 61.3401V63.2297H70.7129V59.3341H71.5808V59.9032C71.8433 59.4945 72.3179 59.2902 72.9672 59.2902Z" fill="#E0E0E0"/>
<path d="M79.6259 60.9973V63.2301H78.7141V61.1143C78.7141 60.4216 78.3713 60.0855 77.7875 60.0855C77.1382 60.0855 76.7004 60.4793 76.7004 61.2604V63.2301H75.7881V59.3346H76.6565V59.8377C76.9553 59.4802 77.4299 59.2906 77.9989 59.2906C78.9327 59.2901 79.6259 59.8229 79.6259 60.9973Z" fill="#E0E0E0"/>
<path d="M84.0448 60.9467V63.2301H83.1841V62.7561C82.9649 63.0917 82.542 63.2812 81.9586 63.2812C81.0682 63.2812 80.5068 62.7924 80.5068 62.114C80.5068 61.4647 80.9446 60.9539 82.1261 60.9539H83.133V60.8957C83.133 60.3634 82.8122 60.0492 82.1629 60.0492C81.7252 60.0492 81.2726 60.1953 80.9809 60.4359L80.6233 59.7718C81.0391 59.451 81.645 59.2906 82.2722 59.2906C83.3956 59.2901 84.0448 59.8229 84.0448 60.9467ZM83.133 62.0118V61.5597H82.192C81.5719 61.5597 81.4044 61.7932 81.4044 62.0777C81.4044 62.4062 81.6812 62.6177 82.1486 62.6177C82.593 62.6171 82.9797 62.4128 83.133 62.0118Z" fill="#E0E0E0"/>
<path d="M91.7251 60.9973V63.2301H90.8127V61.1143C90.8127 60.4216 90.492 60.0855 89.9372 60.0855C89.339 60.0855 88.9232 60.4793 88.9232 61.2527V63.2301H88.0109V61.1143C88.0109 60.4216 87.6901 60.0855 87.1353 60.0855C86.53 60.0855 86.1213 60.4793 86.1213 61.2527V63.2301H85.209V59.3346H86.0774V59.8306C86.3691 59.4802 86.8217 59.2906 87.3539 59.2906C87.923 59.2906 88.3976 59.5021 88.6673 59.9399C88.9809 59.5384 89.5066 59.2906 90.1262 59.2906C91.0687 59.2901 91.7251 59.8229 91.7251 60.9973Z" fill="#E0E0E0"/>
<path d="M96.575 61.574H93.5183C93.6276 62.1431 94.1021 62.5078 94.7805 62.5078C95.2183 62.5078 95.5611 62.3694 95.8384 62.0848L96.3273 62.6468C95.9774 63.0626 95.4298 63.2817 94.7585 63.2817C93.4524 63.2817 92.6064 62.4424 92.6064 61.2828C92.6064 60.1233 93.46 59.2911 94.6196 59.2911C95.7582 59.2911 96.5899 60.0865 96.5899 61.3048C96.5894 61.3768 96.5822 61.4862 96.575 61.574ZM93.5106 60.9687H95.7215C95.6484 60.4068 95.2183 60.0201 94.6196 60.0201C94.0286 60.0201 93.5985 60.3991 93.5106 60.9687Z" fill="#E0E0E0"/>
<path d="M103.312 60.9973V63.2301H102.4V61.1143C102.4 60.4216 102.057 60.0855 101.473 60.0855C100.824 60.0855 100.386 60.4793 100.386 61.2604V63.2301H99.4746V57.8169H100.386V59.7866C100.686 59.4658 101.145 59.2906 101.685 59.2906C102.619 59.2901 103.312 59.8229 103.312 60.9973Z" fill="#E0E0E0"/>
<path d="M108.156 61.574H105.099C105.209 62.1431 105.683 62.5078 106.362 62.5078C106.799 62.5078 107.142 62.3694 107.419 62.0848L107.908 62.6468C107.558 63.0626 107.011 63.2817 106.34 63.2817C105.034 63.2817 104.188 62.4424 104.188 61.2828C104.188 60.1233 105.041 59.2911 106.201 59.2911C107.339 59.2911 108.171 60.0865 108.171 61.3048C108.171 61.3768 108.163 61.4862 108.156 61.574ZM105.092 60.9687H107.303C107.229 60.4068 106.799 60.0201 106.201 60.0201C105.61 60.0201 105.18 60.3991 105.092 60.9687Z" fill="#E0E0E0"/>
<path d="M111.298 59.2902V60.1586C111.218 60.1438 111.152 60.1366 111.087 60.1366C110.394 60.1366 109.956 60.5453 109.956 61.3401V63.2297H109.044V59.3341H109.912V59.9032C110.174 59.4945 110.649 59.2902 111.298 59.2902Z" fill="#E0E0E0"/>
<path d="M115.682 61.574H112.625C112.734 62.1431 113.209 62.5078 113.887 62.5078C114.325 62.5078 114.668 62.3694 114.945 62.0848L115.434 62.6468C115.083 63.0626 114.536 63.2817 113.865 63.2817C112.559 63.2817 111.713 62.4424 111.713 61.2828C111.713 60.1233 112.566 59.2911 113.727 59.2911C114.865 59.2911 115.696 60.0865 115.696 61.3048C115.696 61.3768 115.689 61.4862 115.682 61.574ZM112.618 60.9687H114.828C114.755 60.4068 114.325 60.0201 113.727 60.0201C113.136 60.0201 112.705 60.3991 112.618 60.9687Z" fill="#E0E0E0"/>
<path d="M72.4111 104.902H28.8724C22.8993 104.902 18.0566 100.06 18.0566 94.0865C18.0566 88.1129 22.8988 83.2708 28.8724 83.2708H72.4111C78.3841 83.2708 83.2268 88.1129 83.2268 94.0865C83.2268 100.06 78.3847 104.902 72.4111 104.902Z" fill="#F766A1"/>
<path d="M32.8601 53.981H32.0244V67.7733H32.8601V53.981Z" fill="#F766A1"/>
<path d="M31.9834 93.8138C31.9834 92.2159 33.2068 91.0609 34.8507 91.0609C35.7226 91.0609 36.4715 91.3741 36.9685 91.9554L36.3264 92.5597C35.9362 92.1393 35.4545 91.9324 34.8966 91.9324C33.7876 91.9324 32.9851 92.7124 32.9851 93.8138C32.9851 94.9146 33.7881 95.6951 34.8966 95.6951C35.455 95.6951 35.9367 95.4887 36.3264 95.0607L36.9685 95.6721C36.4715 96.2535 35.7221 96.5666 34.8425 96.5666C33.2068 96.5666 31.9834 95.4121 31.9834 93.8138Z" fill="#FAFAFA"/>
<path d="M34.8431 96.5792C34.0457 96.5792 33.3167 96.3018 32.7906 95.7986C32.2619 95.2924 31.9707 94.5875 31.9707 93.8136C31.9707 93.0392 32.2624 92.3342 32.7916 91.8285C33.3188 91.3253 34.0498 91.048 34.8507 91.048C35.7268 91.048 36.4828 91.3672 36.9788 91.947L36.987 91.9567L36.9778 91.9654L36.3265 92.5779L36.3173 92.5682C35.9337 92.1549 35.4561 91.9455 34.8967 91.9455C34.3624 91.9455 33.8786 92.1314 33.5343 92.4691C33.1885 92.8083 32.998 93.2859 32.998 93.8136C32.998 94.3413 33.1885 94.8189 33.5343 95.1581C33.8792 95.4957 34.3629 95.6817 34.8967 95.6817C35.4581 95.6817 35.9362 95.4697 36.3173 95.0518L36.326 95.0416L36.3357 95.0508L36.9865 95.6709L36.9788 95.6807C36.4828 96.2599 35.7243 96.5792 34.8431 96.5792ZM34.8507 91.074C34.0564 91.074 33.3315 91.3483 32.8095 91.8474C32.2849 92.349 31.9962 93.0468 31.9962 93.8141C31.9962 94.5808 32.2849 95.2791 32.8085 95.7808C33.33 96.2798 34.0523 96.5542 34.8431 96.5542C35.712 96.5542 36.4604 96.242 36.9513 95.6735L36.327 95.0794C35.9424 95.4962 35.4612 95.7082 34.8967 95.7082C33.7816 95.7082 32.9724 94.9119 32.9724 93.8141C32.9724 92.7168 33.7816 91.92 34.8967 91.92C35.4586 91.92 35.9403 92.1294 36.327 92.5421L36.9513 91.9552C36.4604 91.3861 35.7151 91.074 34.8507 91.074Z" fill="#263238"/>
<path d="M37.3467 94.4487C37.3467 93.2253 38.2641 92.3615 39.5182 92.3615C40.7876 92.3615 41.6974 93.2253 41.6974 94.4487C41.6974 95.6726 40.7876 96.5441 39.5182 96.5441C38.2641 96.5436 37.3467 95.6721 37.3467 94.4487ZM40.734 94.4487C40.734 93.6692 40.2139 93.1721 39.5182 93.1721C38.8301 93.1721 38.3101 93.6692 38.3101 94.4487C38.3101 95.2287 38.8301 95.7257 39.5182 95.7257C40.2139 95.7257 40.734 95.2287 40.734 94.4487Z" fill="#FAFAFA"/>
<path d="M39.5183 96.5568C38.2524 96.5568 37.334 95.67 37.334 94.4486C37.334 93.2318 38.2524 92.3486 39.5183 92.3486C40.1364 92.3486 40.6957 92.5576 41.0926 92.9371C41.4911 93.3177 41.7102 93.8545 41.7102 94.4486C41.7102 95.0437 41.4911 95.5822 41.0926 95.9643C40.6947 96.3458 40.1359 96.5568 39.5183 96.5568ZM39.5183 92.3742C38.2673 92.3742 37.3595 93.2462 37.3595 94.4481C37.3595 95.6547 38.2673 96.5303 39.5183 96.5303C40.1292 96.5303 40.6819 96.3229 41.0748 95.9449C41.4681 95.5679 41.6847 95.0361 41.6847 94.4476C41.6847 93.8607 41.4681 93.3299 41.0753 92.9545C40.6824 92.58 40.1297 92.3742 39.5183 92.3742ZM39.5183 95.7385C38.7995 95.7385 38.2974 95.2077 38.2974 94.4486C38.2974 93.6895 38.799 93.1593 39.5183 93.1593C40.2416 93.1593 40.7468 93.6895 40.7468 94.4486C40.7468 95.2077 40.2416 95.7385 39.5183 95.7385ZM39.5183 93.1849C38.8149 93.1849 38.3229 93.7044 38.3229 94.4486C38.3229 95.1929 38.8144 95.7129 39.5183 95.7129C40.2268 95.7129 40.7213 95.1929 40.7213 94.4486C40.7213 93.7044 40.2263 93.1849 39.5183 93.1849Z" fill="#263238"/>
<path d="M46.6389 94.1505V96.4901H45.6832V94.2726C45.6832 93.5462 45.3235 93.1947 44.7121 93.1947C44.0312 93.1947 43.5729 93.6075 43.5729 94.4253V96.4901H42.6172V92.4071H43.527V92.9342C43.8406 92.5598 44.3371 92.3611 44.9338 92.3611C45.9125 92.3616 46.6389 92.9194 46.6389 94.1505Z" fill="#FAFAFA"/>
<path d="M46.6513 96.5032H45.67V94.2729C45.67 93.5762 45.3385 93.2079 44.7117 93.2079C43.996 93.2079 43.5848 93.6513 43.5848 94.4257V96.5032H42.6035V92.3941H43.5388V92.8998C43.852 92.5438 44.3459 92.3481 44.9329 92.3481C45.4406 92.3481 45.8656 92.4994 46.1614 92.7849C46.4863 93.098 46.6508 93.5578 46.6508 94.1503V96.5032H46.6513ZM45.6955 96.4772H46.6258V94.1503C46.6258 93.0214 46.0087 92.3742 44.9334 92.3742C44.3393 92.3742 43.8433 92.5755 43.5363 92.9422L43.5138 92.9693V92.4202H42.6296V96.4772H43.5598V94.4252C43.5598 93.6467 43.9904 93.1813 44.7117 93.1813C45.3553 93.1813 45.6955 93.5588 45.6955 94.2724V96.4772Z" fill="#263238"/>
<path d="M50.3115 96.2685C50.0821 96.4518 49.7378 96.5438 49.394 96.5438C48.4991 96.5438 47.9872 96.0698 47.9872 95.1676V93.2025H47.3145V92.4378H47.9872V91.505H48.943V92.4378H50.0366V93.2025H48.943V95.1446C48.943 95.5421 49.1417 95.7561 49.509 95.7561C49.7077 95.7561 49.8987 95.703 50.0438 95.588L50.3115 96.2685Z" fill="#FAFAFA"/>
<path d="M49.3941 96.5568C48.4782 96.5568 47.9745 96.0633 47.9745 95.1673V93.2155H47.3018V92.4247H47.9745V91.4919H48.9558V92.4247H50.0495V93.2155H48.9558V95.1443C48.9558 95.5361 49.1469 95.743 49.509 95.743C49.7169 95.743 49.8993 95.6863 50.0362 95.578L50.0495 95.5673L50.0561 95.5831L50.3269 96.2723L50.3197 96.2784C50.099 96.4546 49.7614 96.5568 49.3941 96.5568ZM47.3268 93.1894H47.9995V95.1673C47.9995 96.047 48.4945 96.5307 49.3941 96.5307C49.7517 96.5307 50.0796 96.4337 50.2962 96.2641L50.0383 95.6082C49.8988 95.7134 49.7159 95.7686 49.509 95.7686C49.1361 95.7686 48.9303 95.5464 48.9303 95.1438V93.1889H50.024V92.4503H48.9303V91.5175H48.0001V92.4503H47.3273L47.3268 93.1894Z" fill="#263238"/>
<path d="M50.9707 91.1606C50.9707 90.8398 51.2307 90.5874 51.5822 90.5874C51.9336 90.5874 52.1941 90.8244 52.1941 91.1376C52.1941 91.4742 51.9418 91.7342 51.5822 91.7342C51.2307 91.7342 50.9707 91.4819 50.9707 91.1606ZM51.101 92.407H52.0567V96.49H51.101V92.407Z" fill="#FAFAFA"/>
<path d="M52.0696 96.5031H51.0883V92.394H52.0696V96.5031ZM51.1133 96.4771H52.0435V92.4201H51.1133V96.4771ZM51.5822 91.7468C51.2262 91.7468 50.958 91.4945 50.958 91.1604C50.958 90.8263 51.2262 90.574 51.5822 90.574C51.9383 90.574 52.207 90.8166 52.207 91.1374C52.207 91.4904 51.9444 91.7468 51.5822 91.7468ZM51.5822 90.6C51.241 90.6 50.9836 90.8411 50.9836 91.1604C50.9836 91.4802 51.241 91.7213 51.5822 91.7213C51.9296 91.7213 52.1814 91.4761 52.1814 91.1374C52.1814 90.8314 51.924 90.6 51.5822 90.6Z" fill="#263238"/>
<path d="M57.3328 94.1505V96.4901H56.377V94.2726C56.377 93.5462 56.0174 93.1947 55.4059 93.1947C54.725 93.1947 54.2663 93.6075 54.2663 94.4253V96.4901H53.3105V92.4071H54.2203V92.9342C54.534 92.5598 55.0305 92.3611 55.6271 92.3611C56.6064 92.3616 57.3328 92.9194 57.3328 94.1505Z" fill="#FAFAFA"/>
<path d="M57.3456 96.5032H56.3643V94.2729C56.3643 93.5762 56.0328 93.2079 55.406 93.2079C54.6904 93.2079 54.2792 93.6513 54.2792 94.4257V96.5032H53.2979V92.3941H54.2332V92.8998C54.5463 92.5438 55.0403 92.3481 55.6277 92.3481C56.1355 92.3481 56.5605 92.4994 56.8563 92.7849C57.1812 93.098 57.3456 93.5578 57.3456 94.1503V96.5032ZM56.3894 96.4772H57.3196V94.1503C57.3196 93.0214 56.7025 92.3742 55.6272 92.3742C55.0331 92.3742 54.5371 92.5755 54.2301 92.9422L54.2076 92.9693V92.4202H53.3229V96.4772H54.2531V94.4252C54.2531 93.6467 54.6837 93.1813 55.405 93.1813C56.0486 93.1813 56.3889 93.5588 56.3889 94.2724L56.3894 96.4772Z" fill="#263238"/>
<path d="M62.5044 92.407V96.49H61.5947V95.97C61.2887 96.3444 60.807 96.5431 60.2793 96.5431C59.2316 96.5431 58.5205 95.97 58.5205 94.7389V92.407H59.4763V94.6092C59.4763 95.3509 59.8277 95.7028 60.432 95.7028C61.0971 95.7028 61.5487 95.2896 61.5487 94.4717V92.4075L62.5044 92.407Z" fill="#FAFAFA"/>
<path d="M60.2794 96.5568C59.7353 96.5568 59.3042 96.4071 58.9982 96.1124C58.6728 95.7992 58.5078 95.3369 58.5078 94.7392V92.394H59.4891V94.609C59.4891 95.316 59.8155 95.6894 60.4321 95.6894C61.1335 95.6894 61.536 95.2455 61.536 94.4711V92.394H62.5173V96.5031H61.582V96.0051C61.2806 96.356 60.8081 96.5568 60.2794 96.5568ZM58.5334 92.4201V94.7392C58.5334 95.3298 58.6958 95.7859 59.0161 96.094C59.317 96.3836 59.7425 96.5302 60.2794 96.5302C60.8142 96.5302 61.2898 96.3233 61.5845 95.9622L61.607 95.9341V96.4771H62.4912V92.4201H61.561V94.4716C61.561 95.2501 61.1391 95.716 60.4321 95.716C59.7987 95.716 59.4636 95.3333 59.4636 94.6095V92.4206L58.5334 92.4201Z" fill="#263238"/>
<path d="M67.5835 94.7547H64.3796C64.4945 95.3508 64.991 95.7334 65.7026 95.7334C66.1614 95.7334 66.521 95.5878 66.8111 95.2895L67.3235 95.8785C66.9562 96.3142 66.383 96.5436 65.6796 96.5436C64.3106 96.5436 63.4238 95.6645 63.4238 94.4482C63.4238 93.2324 64.3188 92.361 65.5341 92.361C66.7268 92.361 67.5988 93.1946 67.5988 94.4712C67.5983 94.5483 67.5911 94.6627 67.5835 94.7547ZM64.3714 94.1197H66.6885C66.6124 93.5313 66.1608 93.1262 65.5341 93.1262C64.9144 93.1262 64.4634 93.5236 64.3714 94.1197Z" fill="#FAFAFA"/>
<path d="M65.6787 96.5568C65.0106 96.5568 64.44 96.351 64.0288 95.9617C63.6298 95.5842 63.4102 95.0468 63.4102 94.4486C63.4102 93.2318 64.3031 92.3486 65.5331 92.3486C66.7566 92.3486 67.6102 93.2216 67.6102 94.4716C67.6102 94.5651 67.5994 94.7015 67.5948 94.7562L67.5938 94.7679H64.3935C64.514 95.3559 65.0136 95.7206 65.7007 95.7206C66.1523 95.7206 66.5119 95.577 66.8 95.2808L66.8097 95.2706L66.8189 95.2813L67.3384 95.879L67.3313 95.8876C66.9635 96.3249 66.3913 96.5568 65.6787 96.5568ZM65.5337 92.3742C64.3184 92.3742 63.4362 93.2462 63.4362 94.4481C63.4362 95.0392 63.6533 95.5699 64.0466 95.9428C64.4533 96.3275 65.0177 96.5303 65.6792 96.5303C66.3796 96.5303 66.942 96.305 67.3067 95.8784L66.8107 95.3084C66.5185 95.6026 66.1564 95.7461 65.7027 95.7461C64.9963 95.7461 64.4844 95.3671 64.3674 94.7572L64.3644 94.7419H67.5718C67.577 94.6821 67.5862 94.558 67.5862 94.4716C67.5851 93.2365 66.7418 92.3742 65.5337 92.3742ZM66.7024 94.1324H64.3562L64.3582 94.1176C64.4522 93.5077 64.9135 93.1128 65.5331 93.1128C66.1533 93.1128 66.6222 93.5169 66.7004 94.1181L66.7024 94.1324ZM64.3863 94.1069H66.6738C66.5921 93.5271 66.1359 93.1389 65.5337 93.1389C64.9324 93.1389 64.4834 93.5179 64.3863 94.1069Z" fill="#263238"/>
<path d="M9.09946 9.52032C10.4418 9.52032 11.53 8.43214 11.53 7.08981C11.53 5.74748 10.4418 4.6593 9.09946 4.6593C7.75712 4.6593 6.66895 5.74748 6.66895 7.08981C6.66895 8.43214 7.75712 9.52032 9.09946 9.52032Z" fill="white"/>
<path d="M18.0565 9.52032C19.3988 9.52032 20.487 8.43214 20.487 7.08981C20.487 5.74748 19.3988 4.6593 18.0565 4.6593C16.7142 4.6593 15.626 5.74748 15.626 7.08981C15.626 8.43214 16.7142 9.52032 18.0565 9.52032Z" fill="white"/>
<path d="M27.0125 9.5202C28.3549 9.5202 29.443 8.43202 29.443 7.08969C29.443 5.74735 28.3549 4.65918 27.0125 4.65918C25.6702 4.65918 24.582 5.74735 24.582 7.08969C24.582 8.43202 25.6702 9.5202 27.0125 9.5202Z" fill="white"/>
</svg>
