<svg width="176" height="178" viewBox="0 0 176 178" fill="none" xmlns="http://www.w3.org/2000/svg">
<path d="M175.54 61.1076V172.189C175.54 175.204 173.096 177.648 170.081 177.648H5.91889C2.90417 177.648 0.459961 175.204 0.459961 172.189V61.1071C0.459961 58.0924 2.90417 55.6482 5.91889 55.6482H170.081C173.096 55.6482 175.54 58.0924 175.54 61.1076Z" fill="#263238"/>
<path d="M12.4385 59.4955L12.4385 173.801H158.651V59.4955L12.4385 59.4955Z" fill="white"/>
<path d="M171.308 117.716C171.899 115.199 170.339 112.679 167.822 112.088C165.305 111.496 162.786 113.057 162.194 115.574C161.603 118.09 163.163 120.61 165.68 121.202C168.197 121.793 170.716 120.232 171.308 117.716Z" fill="#455A64"/>
<path d="M7.43762 98.8503V134.446C7.43762 134.763 7.18048 135.02 6.86332 135.02H6.07821C5.76104 135.02 5.50391 134.763 5.50391 134.446V98.8503C5.50391 98.5331 5.76104 98.276 6.07821 98.276H6.86332C7.18001 98.276 7.43762 98.5331 7.43762 98.8503Z" fill="#455A64"/>
<path d="M55.8556 119.84C55.9898 126.362 50.8117 131.758 44.2892 131.893C37.7667 132.027 32.3702 126.849 32.236 120.327C32.1013 113.804 37.2799 108.408 43.8023 108.274C50.3243 108.139 55.7209 113.317 55.8556 119.84Z" fill="#F766A1"/>
<path opacity="0.3" d="M55.8556 119.84C55.9898 126.362 50.8117 131.758 44.2892 131.893C37.7667 132.027 32.3702 126.849 32.236 120.327C32.1013 113.804 37.2799 108.408 43.8023 108.274C50.3243 108.139 55.7209 113.317 55.8556 119.84Z" fill="white"/>
<path d="M39.971 117.107C40.4186 117.07 40.8247 117.564 40.8781 118.211C40.931 118.857 40.6115 119.41 40.1639 119.447C39.7158 119.484 39.3097 118.99 39.2568 118.344C39.2034 117.698 39.5234 117.144 39.971 117.107Z" fill="#263238"/>
<path d="M47.4794 116.952C47.0308 116.934 46.6456 117.444 46.6186 118.092C46.5922 118.739 46.9344 119.28 47.3834 119.298C47.832 119.317 48.2177 118.806 48.2442 118.159C48.2706 117.511 47.9279 116.971 47.4794 116.952Z" fill="#263238"/>
<path d="M48.7695 122.423C48.7695 122.562 46.5678 122.675 43.8523 122.675C41.1358 122.675 38.9346 122.562 38.9346 122.423C38.9346 122.284 41.1358 122.171 43.8523 122.171C46.5678 122.171 48.7695 122.284 48.7695 122.423Z" fill="#263238"/>
<path d="M40.8734 115.75C40.8446 115.891 40.2845 115.885 39.6275 115.993C38.9686 116.091 38.4368 116.267 38.3664 116.142C38.2941 116.028 38.788 115.612 39.5495 115.494C40.31 115.374 40.9075 115.62 40.8734 115.75Z" fill="#263238"/>
<path d="M49.611 116.323C49.5216 116.435 49.0116 116.168 48.3556 115.972C47.7023 115.766 47.1304 115.701 47.1195 115.558C47.1015 115.425 47.7458 115.255 48.503 115.49C49.2621 115.721 49.7008 116.223 49.611 116.323Z" fill="#263238"/>
<path d="M141.802 118.851C141.941 125.612 136.574 131.205 129.813 131.344C123.052 131.484 117.459 126.116 117.319 119.356C117.18 112.595 122.547 107.001 129.308 106.862C136.069 106.723 141.662 112.091 141.802 118.851Z" fill="#F766A1"/>
<path opacity="0.3" d="M141.802 118.851C141.941 125.612 136.574 131.205 129.813 131.344C123.052 131.484 117.459 126.116 117.319 119.356C117.18 112.595 122.547 107.001 129.308 106.862C136.069 106.723 141.662 112.091 141.802 118.851Z" fill="black"/>
<path d="M125.337 116.019C125.801 115.981 126.222 116.492 126.277 117.162C126.333 117.832 126.001 118.406 125.537 118.444C125.073 118.482 124.652 117.97 124.597 117.301C124.542 116.631 124.873 116.057 125.337 116.019Z" fill="#263238"/>
<path d="M133.121 115.859C132.656 115.84 132.257 116.368 132.229 117.04C132.202 117.712 132.557 118.271 133.022 118.29C133.487 118.309 133.886 117.78 133.914 117.109C133.942 116.437 133.587 115.877 133.121 115.859Z" fill="#263238"/>
<path d="M134.458 121.528C134.407 121.595 133.899 121.234 133.024 120.785C132.151 120.346 130.86 119.86 129.378 119.884C127.897 119.912 126.611 120.417 125.724 120.833C124.836 121.265 124.309 121.595 124.263 121.528C124.228 121.482 124.684 121.046 125.556 120.519C126.425 120.009 127.771 119.412 129.37 119.381C130.97 119.355 132.34 119.938 133.197 120.474C134.062 121.023 134.493 121.486 134.458 121.528Z" fill="#263238"/>
<path d="M126.273 114.612C126.314 114.664 126.234 114.817 126.031 114.996C125.83 115.171 125.494 115.369 125.073 115.444C124.652 115.52 124.258 115.442 124.011 115.326C123.761 115.21 123.646 115.077 123.674 115.018C123.738 114.885 124.314 115.077 124.985 114.948C125.658 114.828 126.18 114.495 126.273 114.612Z" fill="#263238"/>
<path d="M135.331 115.206C135.351 115.268 135.217 115.387 134.947 115.473C134.68 115.555 134.262 115.582 133.846 115.433C133.43 115.289 133.124 115.037 132.946 114.832C132.766 114.624 132.701 114.461 132.749 114.413C132.855 114.303 133.347 114.725 134.01 114.957C134.67 115.197 135.283 115.064 135.331 115.206Z" fill="#263238"/>
<path d="M106.095 153.088L108.932 151.682L111.698 153.222L111.238 150.09L113.557 147.934L110.435 147.405L109.102 144.533L107.634 147.338L104.491 147.718L106.705 149.981L106.095 153.088Z" fill="#E0E0E0"/>
<path d="M94.5247 153.088L97.3607 151.682L100.127 153.222L99.6664 150.09L101.985 147.934L98.8643 147.405L97.5313 144.533L96.0627 147.338L92.9199 147.718L95.1339 149.981L94.5247 153.088Z" fill="#F766A1"/>
<path d="M82.9519 153.089L85.7884 151.682L88.555 153.222L88.0942 150.09L90.4131 147.934L87.292 147.405L85.9591 144.534L84.4905 147.338L81.3477 147.718L83.5612 149.982L82.9519 153.089Z" fill="#F766A1"/>
<path d="M71.3816 153.089L74.2181 151.682L76.9842 153.222L76.5239 150.09L78.8428 147.934L75.7217 147.405L74.3883 144.534L72.9202 147.338L69.7773 147.718L71.9909 149.982L71.3816 153.089Z" fill="#F766A1"/>
<path d="M59.8108 153.089L62.6473 151.682L65.4134 153.222L64.9526 150.09L67.272 147.934L64.1504 147.405L62.8175 144.534L61.3493 147.338L58.2061 147.718L60.4201 149.982L59.8108 153.089Z" fill="#F766A1"/>
<path d="M113.685 83.4397C113.685 83.5092 100.99 83.5659 85.3344 83.5659C69.6733 83.5659 56.9814 83.5096 56.9814 83.4397C56.9814 83.3702 69.6733 83.3135 85.3344 83.3135C100.99 83.3135 113.685 83.3697 113.685 83.4397Z" fill="#263238"/>
<path d="M99.7467 80.0339C99.7467 80.1034 93.4767 80.1601 85.7437 80.1601C78.0084 80.1601 71.7393 80.1039 71.7393 80.0339C71.7393 79.9645 78.0079 79.9082 85.7437 79.9082C93.4767 79.9077 99.7467 79.9645 99.7467 80.0339Z" fill="#263238"/>
<path d="M103.88 115.951C104.063 124.857 96.9923 132.225 88.0866 132.409C79.1809 132.592 71.8119 125.521 71.6285 116.616C71.4446 107.71 78.5159 100.341 87.4215 100.158C96.3277 99.9743 103.696 107.045 103.88 115.951Z" fill="#F766A1"/>
<path d="M82.189 112.22C82.8002 112.169 83.3546 112.844 83.4274 113.726C83.4997 114.609 83.0635 115.364 82.4523 115.415C81.8407 115.465 81.2862 114.791 81.2139 113.909C81.1416 113.026 81.5778 112.27 82.189 112.22Z" fill="#263238"/>
<path d="M92.4432 112.009C91.8306 111.984 91.3045 112.68 91.2676 113.564C91.2312 114.449 91.6987 115.186 92.3117 115.211C92.9243 115.236 93.4509 114.54 93.4873 113.655C93.5237 112.771 93.0562 112.034 92.4432 112.009Z" fill="#263238"/>
<path d="M94.204 117.302C94.2286 117.327 94.0981 117.493 93.8381 117.775C93.5876 118.068 93.1707 118.436 92.629 118.864C92.0651 119.257 91.3731 119.729 90.4959 120.033C89.6313 120.352 88.6094 120.548 87.5393 120.496C86.4663 120.456 85.4779 120.165 84.6309 119.826C83.7749 119.494 83.0706 119.066 82.4887 118.703C81.3467 117.939 80.7408 117.345 80.7748 117.302C80.8254 117.235 81.5089 117.728 82.6735 118.398C83.2653 118.714 83.9682 119.098 84.7977 119.392C85.6197 119.694 86.5585 119.955 87.5629 119.992C88.5654 120.039 89.5169 119.872 90.3403 119.594C91.1746 119.333 91.8543 118.913 92.4248 118.571C92.9746 118.193 93.4175 117.875 93.7049 117.63C94.0022 117.397 94.1794 117.278 94.204 117.302Z" fill="#263238"/>
<path d="M82.9196 108.591C82.8918 108.733 82.1199 108.682 81.2038 108.832C80.2854 108.969 79.5665 109.253 79.4965 109.126C79.4237 109.015 80.1053 108.49 81.1263 108.334C82.1459 108.171 82.9551 108.463 82.9196 108.591Z" fill="#263238"/>
<path d="M95.9027 109.345C95.8138 109.46 95.1303 109.052 94.2157 108.778C93.3049 108.492 92.5103 108.446 92.5013 108.301C92.4819 108.169 93.3483 107.981 94.3636 108.297C95.3813 108.605 95.9925 109.247 95.9027 109.345Z" fill="#263238"/>
<path d="M81.0367 116.142C81.0996 116.131 81.2022 116.298 81.2187 116.603C81.2371 116.904 81.1388 117.335 80.8685 117.717C80.5971 118.099 80.2223 118.334 79.9316 118.416C79.6381 118.501 79.4471 118.459 79.4372 118.396C79.4135 118.256 80.0328 118.049 80.4577 117.425C80.9058 116.819 80.8973 116.166 81.0367 116.142Z" fill="#263238"/>
<path d="M95.5664 117.624C95.5787 117.688 95.4463 117.786 95.1939 117.807C94.9453 117.831 94.5861 117.75 94.2755 117.52C93.965 117.29 93.7839 116.969 93.7348 116.724C93.6823 116.477 93.7376 116.322 93.8019 116.315C93.9427 116.304 94.1025 116.781 94.5761 117.116C95.0332 117.471 95.5361 117.486 95.5664 117.624Z" fill="#263238"/>
<path d="M107.477 116.142C107.477 116.142 107.463 116.032 107.448 115.818C107.434 115.595 107.413 115.279 107.387 114.867C107.375 114.657 107.361 114.423 107.346 114.166C107.319 113.91 107.264 113.632 107.219 113.329C107.171 113.027 107.119 112.702 107.064 112.354C107.023 112.003 106.893 111.648 106.803 111.262C106.45 109.714 105.727 107.885 104.585 105.946C103.433 104.016 101.772 101.998 99.5096 100.286C99.2255 100.074 98.9382 99.8603 98.647 99.6438C98.344 99.4453 98.0249 99.2633 97.7092 99.0691C97.3873 98.8861 97.0819 98.663 96.7364 98.5066C96.3947 98.3426 96.0496 98.1771 95.7013 98.0103C95.5268 97.9275 95.351 97.8444 95.1747 97.7607C94.9913 97.6941 94.807 97.6269 94.6217 97.5593C94.2511 97.4241 93.8772 97.288 93.4995 97.1505C93.1186 97.0247 92.7196 96.9434 92.3249 96.8361C91.9265 96.7459 91.5342 96.6055 91.1187 96.5629C90.2948 96.4462 89.4619 96.276 88.5988 96.2713C88.1692 96.2566 87.7362 96.2146 87.2999 96.2212C86.8636 96.2439 86.4241 96.2666 85.9812 96.2893C85.7604 96.3049 85.5368 96.303 85.3156 96.3323L84.651 96.4344C84.2077 96.5081 83.7567 96.5596 83.311 96.6523C82.4318 96.8914 81.5205 97.0701 80.6546 97.4317C79.7607 97.7177 78.9203 98.1592 78.0568 98.5732C77.6361 98.8015 77.2329 99.0672 76.8165 99.3139C76.6127 99.4444 76.3948 99.5554 76.201 99.7029L75.6144 100.142C74.8047 100.698 74.0967 101.393 73.3555 102.062C73.0199 102.432 72.6824 102.804 72.3435 103.177L72.0887 103.457L71.86 103.76L71.4043 104.371L70.9463 104.983L70.5454 105.638L70.1451 106.298L69.9442 106.629L69.774 106.977C69.5495 107.443 69.3241 107.911 69.0981 108.381C68.9185 108.871 68.7384 109.363 68.5579 109.856C67.9084 111.854 67.5591 113.978 67.5303 116.138C67.5586 118.299 67.9075 120.423 68.5564 122.422C68.737 122.916 68.9171 123.408 69.0967 123.897C69.3231 124.368 69.5486 124.836 69.7731 125.302L69.9433 125.65L70.1441 125.981L70.5445 126.641L70.9453 127.297L71.4034 127.91L71.8595 128.52L72.0883 128.823L72.343 129.103C72.6819 129.477 73.0194 129.849 73.3555 130.218C74.0971 130.888 74.8052 131.583 75.6149 132.139L76.2015 132.578C76.3958 132.725 76.6132 132.837 76.8169 132.967C77.2333 133.214 77.6365 133.48 78.0572 133.708C78.9213 134.122 79.7617 134.564 80.6555 134.85C81.5215 135.212 82.4328 135.39 83.312 135.63C83.7577 135.722 84.2091 135.774 84.6525 135.848L85.317 135.95C85.5383 135.979 85.7618 135.978 85.9826 135.993C86.4255 136.016 86.8651 136.038 87.3013 136.061C87.7376 136.068 88.1706 136.026 88.6003 136.011C89.4634 136.006 90.2962 135.836 91.1206 135.719C91.5365 135.677 91.9284 135.536 92.3268 135.446C92.7215 135.339 93.1205 135.258 93.5014 135.132C93.8791 134.994 94.253 134.858 94.6236 134.723C94.8088 134.655 94.9932 134.588 95.1766 134.522C95.3529 134.438 95.5283 134.355 95.7032 134.272C96.052 134.105 96.397 133.939 96.7383 133.776C97.0838 133.619 97.3887 133.396 97.7111 133.213C98.0268 133.019 98.3459 132.837 98.6489 132.639C98.9396 132.422 99.227 132.208 99.5115 131.996C101.774 130.284 103.435 128.267 104.586 126.336C105.728 124.397 106.452 122.569 106.804 121.021C106.894 120.635 107.024 120.279 107.065 119.929C107.121 119.581 107.172 119.256 107.22 118.954C107.265 118.651 107.32 118.373 107.347 118.117C107.362 117.86 107.375 117.626 107.388 117.416C107.414 117.005 107.435 116.689 107.449 116.465C107.463 116.252 107.477 116.142 107.477 116.142C107.477 116.142 107.48 116.252 107.474 116.467C107.465 116.69 107.453 117.007 107.438 117.421C107.429 117.631 107.42 117.866 107.409 118.124C107.386 118.382 107.335 118.661 107.294 118.965C107.25 119.269 107.201 119.596 107.15 119.946C107.113 120.298 106.986 120.657 106.899 121.046C106.56 122.605 105.845 124.45 104.707 126.409C103.559 128.36 101.895 130.402 99.6193 132.139C99.3333 132.353 99.044 132.571 98.7514 132.79C98.4466 132.992 98.1252 133.177 97.8075 133.374C97.4833 133.56 97.1755 133.786 96.8277 133.945C96.4836 134.111 96.1357 134.28 95.784 134.45C95.6082 134.534 95.4309 134.619 95.2532 134.704C95.0683 134.772 94.8821 134.84 94.6954 134.909C94.3215 135.046 93.9443 135.185 93.5634 135.325C93.1786 135.454 92.7764 135.537 92.3779 135.647C91.9756 135.739 91.5795 135.882 91.1598 135.926C90.3274 136.046 89.486 136.22 88.6135 136.227C88.1791 136.243 87.7414 136.286 87.3004 136.28C86.8594 136.259 86.4146 136.237 85.967 136.215C85.7434 136.2 85.5175 136.202 85.2939 136.172L84.6217 136.071C84.1732 135.997 83.717 135.945 83.2656 135.853C82.3756 135.613 81.4539 135.433 80.5766 135.069C79.6719 134.781 78.8206 134.336 77.9461 133.918C77.5203 133.687 77.1114 133.419 76.6898 133.17C76.4832 133.038 76.2629 132.925 76.0663 132.777L75.4722 132.333C74.6521 131.771 73.9341 131.069 73.1835 130.391C72.8431 130.017 72.5009 129.641 72.1573 129.264L71.8992 128.98L71.6671 128.674L71.2048 128.056L70.7407 127.436L70.3342 126.773L69.9281 126.105L69.7244 125.77L69.5519 125.417C69.3245 124.945 69.0958 124.471 68.8665 123.995C68.6845 123.499 68.5021 123.001 68.3187 122.501C67.6602 120.477 67.3067 118.326 67.2783 116.138C67.3072 113.951 67.6617 111.801 68.3201 109.777C68.5035 109.277 68.686 108.78 68.8679 108.284C69.0972 107.808 69.3259 107.334 69.5533 106.862L69.7258 106.509L69.9296 106.175L70.3351 105.507L70.7416 104.845L71.2058 104.225L71.6681 103.607L71.9002 103.301L72.1582 103.017C72.5019 102.64 72.8436 102.264 73.1839 101.89C73.935 101.213 74.6525 100.511 75.4726 99.9492L76.0668 99.5058C76.2634 99.3574 76.4837 99.2444 76.6902 99.113C77.1119 98.8634 77.5207 98.5954 77.9466 98.3652C78.8211 97.9469 79.6724 97.5021 80.5771 97.2138C81.4539 96.8498 82.3756 96.6698 83.2656 96.4301C83.717 96.3375 84.1732 96.2855 84.6217 96.2122L85.2939 96.1106C85.5175 96.0818 85.7434 96.0832 85.967 96.068C86.4146 96.0458 86.8589 96.0241 87.3004 96.0023C87.7414 95.9967 88.1791 96.0397 88.6135 96.0557C89.4856 96.0633 90.3274 96.2363 91.1593 96.3568C91.5791 96.4013 91.9752 96.5436 92.3774 96.6362C92.7759 96.7454 93.1781 96.8291 93.5629 96.9576C93.9439 97.0975 94.321 97.2365 94.6949 97.374C94.8816 97.443 95.0679 97.5111 95.2527 97.5792C95.4304 97.6643 95.6077 97.7489 95.7835 97.833C96.1347 98.0032 96.4826 98.1714 96.8272 98.3378C97.1751 98.4971 97.4828 98.7231 97.807 98.9088C98.1247 99.1064 98.4461 99.2912 98.751 99.4926C99.0436 99.7124 99.3328 99.9293 99.6188 100.144C101.895 101.881 103.559 103.922 104.707 105.873C105.845 107.832 106.56 109.678 106.899 111.237C106.986 111.626 107.113 111.984 107.151 112.337C107.202 112.687 107.25 113.014 107.295 113.318C107.336 113.622 107.387 113.902 107.41 114.16C107.421 114.418 107.431 114.652 107.439 114.863C107.455 115.276 107.467 115.593 107.475 115.817C107.48 116.032 107.477 116.142 107.477 116.142Z" fill="#F766A1"/>
<path d="M158.652 59.4952H12.4395V66.79H158.652V59.4952Z" fill="#E0E0E0"/>
<path d="M17.1564 62.9416C17.1564 63.4871 16.714 63.9295 16.1686 63.9295C15.6231 63.9295 15.1807 63.4871 15.1807 62.9416C15.1807 62.3962 15.6231 61.9537 16.1686 61.9537C16.714 61.9537 17.1564 62.3962 17.1564 62.9416Z" fill="white"/>
<path d="M20.4367 62.9416C20.4367 63.4871 19.9943 63.9295 19.4488 63.9295C18.9034 63.9295 18.4609 63.4871 18.4609 62.9416C18.4609 62.3962 18.9034 61.9537 19.4488 61.9537C19.9948 61.9537 20.4367 62.3962 20.4367 62.9416Z" fill="white"/>
<path d="M23.7199 62.9416C23.7199 63.4871 23.2775 63.9295 22.732 63.9295C22.1866 63.9295 21.7441 63.4871 21.7441 62.9416C21.7441 62.3962 22.1866 61.9537 22.732 61.9537C23.278 61.9537 23.7199 62.3962 23.7199 62.9416Z" fill="white"/>
<path d="M142.542 89.1916C142.542 89.2611 117.172 89.3179 85.8841 89.3179C54.5854 89.3179 29.2207 89.2616 29.2207 89.1916C29.2207 89.1222 54.585 89.0654 85.8841 89.0654C117.172 89.0659 142.542 89.1222 142.542 89.1916Z" fill="#E0E0E0"/>
<path d="M142.542 92.0007C142.542 92.0702 117.172 92.1269 85.8841 92.1269C54.5854 92.1269 29.2207 92.0707 29.2207 92.0007C29.2207 91.9312 54.585 91.8745 85.8841 91.8745C117.172 91.8745 142.542 91.9308 142.542 92.0007Z" fill="#E0E0E0"/>
<path d="M116.2 0.00804368C116.2 0.0154894 116.326 0.0314457 116.57 0.0537827C116.834 0.075588 117.193 0.106433 117.654 0.144725C118.132 0.158553 118.713 0.269175 119.399 0.39788C119.74 0.470741 120.117 0.50265 120.501 0.621249C120.887 0.733466 121.298 0.852067 121.732 0.97758C123.445 1.53973 125.506 2.42523 127.573 3.95851C129.636 5.48009 131.691 7.64626 133.281 10.4586C134.118 11.8419 134.718 13.4353 135.255 15.1084C135.687 16.8108 136.067 18.618 136.075 20.5183C136.149 21.4665 136.042 22.4281 135.991 23.4056C135.96 23.8943 135.849 24.3778 135.781 24.8697C135.708 25.3617 135.631 25.8568 135.485 26.3418C135.059 28.3176 134.23 30.2498 133.189 32.099C131.106 35.8106 127.64 38.9894 123.385 40.8062C121.256 41.7172 118.908 42.1942 116.525 42.265C114.139 42.3889 111.701 41.9783 109.394 41.1556L108.696 40.8907L108.604 40.8556L108.52 40.8971C105.072 42.5984 101.691 44.2668 98.414 45.8836L98.7097 46.1421C99.8207 42.8245 100.897 39.6074 101.931 36.5212L101.97 36.402L101.883 36.3122C99.3793 33.7477 97.6498 30.6465 96.7074 27.4816C95.7628 24.3065 95.6315 21.0836 96.0484 18.1356C96.4643 15.1813 97.4626 12.5019 98.7778 10.2522C100.093 7.9962 101.716 6.16988 103.378 4.74882C105.058 3.33786 106.795 2.38854 108.349 1.66418C109.94 1.01959 111.357 0.611145 112.534 0.39788C113.121 0.304808 113.644 0.221843 114.099 0.149513C114.551 0.122921 114.935 0.100583 115.253 0.0819687C115.55 0.0622908 115.783 0.0474005 115.96 0.0357001C116.119 0.0234679 116.2 0.0144257 116.2 0.00804368C116.2 0.0021935 116.119 -0.000465349 115.96 6.64858e-05C115.783 0.00325749 115.549 0.00697971 115.25 0.0122981C114.93 0.0213392 114.544 0.0325094 114.089 0.0463371C113.629 0.109625 113.102 0.181953 112.509 0.263324C111.321 0.456912 109.886 0.848343 108.271 1.48123C106.693 2.19389 104.926 3.13789 103.213 4.55257C101.519 5.97683 99.8606 7.81698 98.513 10.097C97.1653 12.3711 96.1373 15.0866 95.7017 18.0862C95.2656 21.0788 95.3863 24.356 96.3377 27.5906C97.2871 30.8151 99.0405 33.9801 101.589 36.5993L101.541 36.3903C100.503 39.475 99.4213 42.6899 98.3061 46.0064L98.1428 46.4915L98.6018 46.2654C101.879 44.6503 105.261 42.984 108.71 41.2848L108.534 41.2912L109.247 41.5624C111.605 42.4033 114.098 42.8218 116.537 42.6947C118.972 42.6208 121.372 42.1294 123.546 41.1971C127.894 39.3362 131.419 36.0845 133.532 32.2989C134.589 30.4125 135.425 28.4426 135.853 26.4307C135.999 25.9371 136.076 25.4335 136.149 24.9325C136.216 24.432 136.327 23.9395 136.357 23.4428C136.406 22.4488 136.51 21.4708 136.432 20.5082C136.415 18.5776 136.022 16.7422 135.573 15.0164C135.02 13.3193 134.402 11.7068 133.545 10.3081C131.915 7.4649 129.816 5.28597 127.715 3.76492C125.609 2.23164 123.516 1.3605 121.78 0.81803C121.341 0.698367 120.925 0.584554 120.534 0.478187C120.146 0.365438 119.764 0.338846 119.42 0.272366C118.728 0.155363 118.142 0.0580368 117.66 0.0585686C117.197 0.0378271 116.835 0.0218723 116.57 0.0101719C116.326 0.00113069 116.2 0.000597996 116.2 0.00804368Z" fill="#263238"/>
<path d="M111.447 18.5573L112.919 18.5744L116.183 14.133L116.216 11.1941C116.216 11.1941 118.494 11.0797 118.182 14.9254C117.87 18.7706 118.171 17.7942 118.171 17.7942C118.171 17.7942 123.003 17.8675 123.4 18.292C123.689 18.6004 123.766 23.4018 123.787 26.0052C123.798 27.3161 122.98 28.5255 121.758 28.8212C121.584 28.8632 121.409 28.8872 121.237 28.885C120.032 28.8712 113.885 27.8214 113.885 27.8214L111.342 27.7926L111.447 18.5573Z" fill="#F766A1"/>
<path d="M107.24 17.7028L108.03 27.7832L110.552 27.8119L110.664 17.9447L107.24 17.7028Z" fill="#F766A1"/>
</svg>
