<svg width="357" height="362" viewBox="0 0 357 362" fill="none" xmlns="http://www.w3.org/2000/svg">
<g filter="url(#filter0_d_321_8220)">
<path d="M13 59H323C335.15 59 345 68.8497 345 81V347H35C22.8497 347 13 337.15 13 325V59Z" fill="#C1CEFD"/>
</g>
<path d="M343.5 170.5V346H129.5" stroke="#284BC8" stroke-width="3" stroke-linecap="round" stroke-dasharray="7 9"/>
<g clip-path="url(#clip0_321_8220)">
<path d="M256.018 83.4399C255.392 102.916 239.06 118.197 219.54 117.572C217.424 117.504 215.357 117.252 213.355 116.831C196.886 113.374 184.77 98.5365 185.328 81.1706C185.952 61.6941 202.284 46.4137 221.804 47.0403C241.325 47.6663 256.643 63.9635 256.018 83.4399Z" fill="#EBEBEB"/>
<path d="M247.627 82.7313L247.61 82.7312L247.627 82.7305C247.627 82.7308 247.627 82.7311 247.627 82.7313ZM247.627 82.7313L247.608 82.7313V83.17L247.624 82.9446C247.625 82.8851 247.626 82.814 247.627 82.7313ZM247.608 82.17C247.587 82.17 247.568 82.1705 247.548 82.1717L247.629 82.1701C247.629 82.1701 247.629 82.1702 247.629 82.1702C247.628 82.385 247.627 82.5712 247.627 82.7299L247.608 82.7309V82.17Z" fill="#E0E0E0" stroke="#B2B2B2" stroke-width="2"/>
<path d="M254.238 115.167C241.752 126.572 223.942 130.726 207.69 125.973C194.333 122.067 182.882 112.257 177.571 99.3097C172.168 86.1403 173.639 70.9473 181.299 58.9848C189.004 46.9522 202.341 39.0781 216.521 37.7082C234.341 35.9863 251.957 44.1367 261.712 59.2166C263.163 61.4589 266.769 59.3734 265.308 57.1152C255.914 42.5953 239.817 33.6871 222.52 33.3235C206.79 32.9924 191.183 39.8533 181.196 52.0892C171.308 64.2051 167.667 80.5717 171.936 95.6835C176.138 110.56 187.492 122.528 201.725 128.297C220.478 135.897 242.311 131.695 257.182 118.112C259.165 116.3 256.213 113.362 254.238 115.167Z" fill="#F766A1"/>
<path d="M250.383 57.8424L267.346 46.4192V63.6949L250.383 57.8424Z" fill="#F766A1"/>
<path d="M384.27 326.036C384.27 326.136 284.611 326.217 161.703 326.217C38.7526 326.217 -60.8857 326.136 -60.8857 326.036C-60.8857 325.937 38.7526 325.856 161.703 325.856C284.611 325.856 384.27 325.936 384.27 326.036Z" fill="#263238"/>
<path d="M186.877 141.828C186.877 141.828 212.313 148.527 220.355 175.355L209.542 180.15C209.542 180.15 207.065 161.487 181.863 153.359C168.229 148.961 150.175 155.167 145.174 160.852L133.04 155.618C141.184 146.687 161.209 134.832 186.877 141.828Z" fill="#F766A1"/>
<path d="M227.27 168.59L200.387 177.511L221.018 187.853L227.27 168.59Z" fill="#F766A1"/>
<path d="M155.148 326.036L60.0762 325.977C48.6419 325.971 39.3768 316.225 39.3789 304.209L39.4254 53.7121C39.4275 41.6879 48.7064 31.9441 60.147 31.9511L155.22 32.01C166.654 32.017 175.919 41.7628 175.917 53.7794L175.871 304.277C175.868 316.299 166.589 326.043 155.148 326.036Z" fill="#263238"/>
<path d="M155.118 40.869L136.685 40.8579C134.213 40.8565 132.209 43.0572 132.209 45.7728L132.207 49.2872C132.207 52.0028 130.202 54.2035 127.731 54.2021L91.8016 54.1799C89.3297 54.1785 87.3263 51.975 87.3263 49.2594L87.3269 45.7457C87.3269 43.0301 85.3235 40.8266 82.8516 40.8252L76.3687 40.8211L60.2356 40.8107C52.2231 40.8058 45.7249 47.6299 45.7235 56.0509L45.6777 300.553C45.6763 308.971 52.1648 315.795 60.1731 315.801L155.056 315.859C163.068 315.864 169.566 309.04 169.568 300.619L169.614 56.1148C169.615 47.6986 163.127 40.8738 155.118 40.869Z" fill="white"/>
<path d="M65.7657 296.518V303.694C65.7657 304.317 65.0808 304.694 64.5561 304.361L58.9157 300.773C58.4285 300.462 58.4285 299.75 58.9157 299.439L64.5561 295.851C65.0808 295.518 65.7657 295.896 65.7657 296.518Z" fill="#E0E0E0"/>
<path d="M112.116 300.04C112.116 302.778 109.901 304.996 107.171 304.996C104.439 304.996 102.226 302.777 102.226 300.04C102.226 297.302 104.44 295.083 107.171 295.083C109.901 295.083 112.116 297.302 112.116 300.04Z" fill="#E0E0E0"/>
<path d="M155.447 304.874H148.918C148.201 304.874 147.62 304.293 147.62 303.576V297.025C147.62 296.308 148.201 295.727 148.918 295.727H155.447C156.164 295.727 156.745 296.308 156.745 297.025V303.576C156.744 304.293 156.163 304.874 155.447 304.874Z" fill="#E0E0E0"/>
<path d="M80.1635 129.167C82.7048 129.167 85.2461 129.167 87.7873 129.167C87.2925 128.79 86.7977 128.414 86.3029 128.037C87.4278 131.739 88.5528 135.441 89.6777 139.144C91.4625 145.018 93.2474 150.891 95.0322 156.765C95.4437 158.12 95.8559 159.475 96.2675 160.83C96.4645 161.479 97.0627 161.962 97.7518 161.96C105.029 161.94 112.307 161.92 119.584 161.9C120.627 161.897 121.668 161.894 122.711 161.891C124.691 161.886 124.695 158.807 122.711 158.812C115.433 158.832 108.156 158.852 100.878 158.873C99.8358 158.875 98.7942 158.878 97.7518 158.881C98.2466 159.258 98.7414 159.635 99.2362 160.011C98.1113 156.309 96.9864 152.607 95.8615 148.905C94.0766 143.031 92.2918 137.157 90.5069 131.283C90.0954 129.928 89.6832 128.573 89.2717 127.218C89.0739 126.568 88.4764 126.088 87.7873 126.088C85.2461 126.088 82.7048 126.088 80.1635 126.088C78.1823 126.088 78.1788 129.167 80.1635 129.167Z" fill="#263238"/>
<path d="M127.591 133.085C126.153 139.526 124.716 145.968 123.278 152.409C123.071 153.334 122.864 154.26 122.658 155.187C123.029 154.904 123.4 154.622 123.771 154.339C120.655 154.309 117.54 154.278 114.424 154.248C109.428 154.199 104.432 154.15 99.4353 154.101C98.2931 154.09 97.1501 154.078 96.0079 154.067C96.3792 154.35 96.7497 154.632 97.121 154.915C95.1168 148.538 93.1127 142.161 91.1086 135.785C90.8261 134.885 90.543 133.986 90.2605 133.086C89.8893 133.573 89.518 134.06 89.1474 134.547C93.6221 134.547 98.0967 134.547 102.571 134.547C109.646 134.547 116.72 134.547 123.794 134.547C125.43 134.547 127.067 134.547 128.704 134.547C130.189 134.547 130.192 132.238 128.704 132.238C124.229 132.238 119.754 132.238 115.28 132.238C108.206 132.238 101.131 132.238 94.0572 132.238C92.4208 132.238 90.7845 132.238 89.1474 132.238C88.4195 132.238 87.8074 132.979 88.0343 133.7C90.0385 140.076 92.0426 146.453 94.0468 152.83C94.3292 153.729 94.6123 154.629 94.8948 155.529C95.0488 156.02 95.4867 156.371 96.0079 156.376C99.1238 156.407 102.239 156.437 105.355 156.468C110.351 156.517 115.347 156.566 120.344 156.615C121.486 156.626 122.629 156.637 123.771 156.648C124.256 156.653 124.775 156.288 124.884 155.801C126.322 149.36 127.759 142.918 129.197 136.477C129.404 135.551 129.611 134.626 129.817 133.7C130.14 132.251 127.915 131.633 127.591 133.085Z" fill="#263238"/>
<path d="M97.0163 134.073C98.2314 141.119 99.7755 148.104 100.991 155.151C101.243 156.613 103.468 155.993 103.217 154.538C102.002 147.491 100.458 140.506 99.2425 133.458C98.9913 131.997 96.7651 132.617 97.0163 134.073Z" fill="#263238"/>
<path d="M109.21 133.766C109.326 140.992 109.46 148.217 109.577 155.443C109.6 156.927 111.91 156.932 111.886 155.443C111.769 148.217 111.635 140.992 111.518 133.766C111.495 132.281 109.186 132.276 109.21 133.766Z" fill="#263238"/>
<path d="M120.472 155.704C121.449 149.287 122.426 142.87 123.404 136.453C123.544 135.535 123.684 134.617 123.823 133.699C123.918 133.078 123.666 132.464 123.017 132.278C122.472 132.122 121.691 132.469 121.596 133.085C120.619 139.502 119.642 145.919 118.664 152.336C118.525 153.255 118.385 154.172 118.245 155.09C118.151 155.711 118.402 156.325 119.052 156.511C119.597 156.667 120.379 156.321 120.472 155.704Z" fill="#263238"/>
<path d="M91.663 141.307C103.305 141.307 114.947 141.307 126.59 141.307C128.076 141.307 128.078 138.998 126.59 138.998C114.947 138.998 103.305 138.998 91.663 138.998C90.1772 138.998 90.1751 141.307 91.663 141.307Z" fill="#263238"/>
<path d="M94.9376 149.414C105.021 149.414 115.103 149.414 125.186 149.414C126.672 149.414 126.674 147.105 125.186 147.105C115.103 147.105 105.02 147.105 94.9376 147.105C93.4519 147.105 93.4491 149.414 94.9376 149.414Z" fill="#263238"/>
<path d="M122.71 172.093C124.979 172.093 126.818 170.253 126.818 167.984C126.818 165.715 124.979 163.876 122.71 163.876C120.441 163.876 118.602 165.715 118.602 167.984C118.602 170.253 120.441 172.093 122.71 172.093Z" fill="#263238"/>
<path d="M100.117 172.093C102.386 172.093 104.225 170.253 104.225 167.984C104.225 165.715 102.386 163.876 100.117 163.876C97.8481 163.876 96.0088 165.715 96.0088 167.984C96.0088 170.253 97.8481 172.093 100.117 172.093Z" fill="#263238"/>
<path d="M92.243 112.652C92.243 112.652 75.3403 112.081 65.4341 127.119L71.2085 132.07C71.2085 132.07 76.18 121.032 93.2021 120.68C102.411 120.489 108.747 125.86 110.777 130.285L121.223 130.106C117.858 123.1 109.343 113.082 92.243 112.652Z" fill="#F766A1"/>
<path d="M63.2002 122.222L78.1099 132.68L64.5659 135.424L63.2002 122.222Z" fill="#F766A1"/>
<path d="M161.94 66.6198C161.94 67.5463 161.189 68.2972 160.262 68.2972C159.336 68.2972 158.585 67.5463 158.585 66.6198C158.585 65.6933 159.336 64.9424 160.262 64.9424C161.189 64.9424 161.94 65.6933 161.94 66.6198Z" fill="#263238"/>
<path d="M160.262 72.8859C161.189 72.8859 161.94 72.1349 161.94 71.2085C161.94 70.2821 161.189 69.5311 160.262 69.5311C159.336 69.5311 158.585 70.2821 158.585 71.2085C158.585 72.1349 159.336 72.8859 160.262 72.8859Z" fill="#263238"/>
<path d="M160.262 77.4747C161.189 77.4747 161.94 76.7237 161.94 75.7973C161.94 74.8709 161.189 74.1199 160.262 74.1199C159.336 74.1199 158.585 74.8709 158.585 75.7973C158.585 76.7237 159.336 77.4747 160.262 77.4747Z" fill="#263238"/>
<path d="M60.2602 65.8265L53.4136 70.9601H55.1582V77.0978L58.8493 77.111V72.5181L61.7591 72.5056V77.0978H65.3295V70.899L67.1074 70.8802L60.2602 65.8265Z" fill="#263238"/>
<path d="M170.055 83.5639C170.055 83.6638 142.111 83.745 107.65 83.745C73.1751 83.745 45.2378 83.6638 45.2378 83.5639C45.2378 83.4639 73.1751 83.3834 107.65 83.3834C142.111 83.3834 170.055 83.4639 170.055 83.5639Z" fill="#E0E0E0"/>
<path d="M106.33 267.424H105.217C101.462 267.424 98.418 264.379 98.418 260.624V205.904C98.418 202.148 101.462 199.104 105.217 199.104H106.33C110.085 199.104 113.129 202.148 113.129 205.904V260.624C113.128 264.38 110.085 267.424 106.33 267.424Z" fill="#E0E0E0"/>
<path d="M134.418 234.882C134.434 247.95 123.83 258.555 110.734 258.572C109.314 258.574 107.924 258.451 106.572 258.214C95.458 256.265 87.0056 246.592 86.9917 234.941C86.9751 221.874 97.5787 211.268 110.675 211.252C123.771 211.236 134.401 221.816 134.418 234.882Z" fill="#F766A1"/>
<path d="M129.428 235.134C129.441 245.092 121.36 253.174 111.379 253.186C101.399 253.199 93.2979 245.137 93.2861 235.179C93.2743 225.221 101.355 217.139 111.335 217.126C121.315 217.114 129.416 225.176 129.428 235.134Z" fill="#F766A1"/>
<path d="M128.776 234.89C128.77 234.89 128.758 234.791 128.741 234.598C128.726 234.387 128.704 234.104 128.678 233.742C128.665 233.552 128.652 233.342 128.636 233.112C128.61 232.881 128.559 232.631 128.517 232.36C128.428 231.816 128.343 231.186 128.132 230.502C127.807 229.112 127.149 227.47 126.114 225.733C125.071 224.002 123.57 222.197 121.531 220.668C119.498 219.153 116.938 217.866 113.985 217.351C111.052 216.853 107.744 216.949 104.593 218.147C103.792 218.405 103.038 218.8 102.263 219.173C101.885 219.376 101.524 219.616 101.15 219.838C100.77 220.05 100.421 220.313 100.072 220.58C99.3457 221.079 98.7101 221.702 98.0446 222.303C97.4436 222.968 96.8114 223.619 96.2937 224.374C95.2292 225.849 94.302 227.491 93.7406 229.295C93.1584 231.088 92.8461 232.992 92.8225 234.931C92.8503 236.869 93.1667 238.774 93.7531 240.566C94.3187 242.37 95.2507 244.009 96.3187 245.482C96.8385 246.237 97.4727 246.886 98.0751 247.549C98.742 248.148 99.379 248.77 100.107 249.267C100.792 249.821 101.566 250.229 102.302 250.67C103.078 251.041 103.833 251.435 104.635 251.69C107.789 252.881 111.098 252.967 114.03 252.463C116.981 251.94 119.539 250.647 121.568 249.127C123.602 247.593 125.098 245.784 126.137 244.051C127.168 242.311 127.822 240.668 128.143 239.277C128.352 238.592 128.436 237.962 128.523 237.419C128.565 237.147 128.615 236.897 128.64 236.666C128.655 236.435 128.669 236.226 128.681 236.036C128.706 235.674 128.726 235.391 128.742 235.18C128.758 234.989 128.769 234.89 128.776 234.89C128.782 234.89 128.784 234.989 128.781 235.183C128.775 235.394 128.767 235.68 128.757 236.043C128.75 236.233 128.743 236.445 128.735 236.677C128.715 236.909 128.671 237.161 128.635 237.436C128.559 237.984 128.486 238.621 128.287 239.315C127.985 240.722 127.346 242.391 126.32 244.161C125.287 245.924 123.786 247.77 121.731 249.342C119.683 250.898 117.09 252.227 114.088 252.773C111.108 253.3 107.738 253.224 104.517 252.02C103.698 251.761 102.927 251.363 102.135 250.985C101.383 250.537 100.593 250.122 99.8926 249.56C99.1494 249.053 98.4977 248.421 97.8169 247.81C97.2 247.134 96.5533 246.472 96.021 245.704C94.9287 244.201 93.9759 242.527 93.3964 240.686C92.7962 238.856 92.4721 236.91 92.4443 234.931C92.4679 232.952 92.7878 231.006 93.3833 229.175C93.9585 227.334 94.9065 225.658 95.9953 224.153C96.5255 223.383 97.1709 222.72 97.7857 222.043C98.4651 221.43 99.1153 220.796 99.8572 220.288C100.214 220.016 100.571 219.749 100.959 219.532C101.341 219.307 101.71 219.064 102.096 218.857C102.886 218.478 103.657 218.078 104.475 217.817C107.691 216.604 111.061 216.52 114.042 217.04C117.045 217.578 119.641 218.901 121.693 220.452C123.752 222.018 125.258 223.86 126.296 225.621C127.327 227.389 127.97 229.055 128.275 230.463C128.477 231.156 128.552 231.793 128.629 232.341C128.665 232.616 128.71 232.868 128.731 233.1C128.74 233.332 128.747 233.543 128.754 233.734C128.765 234.098 128.774 234.383 128.78 234.594C128.783 234.791 128.782 234.89 128.776 234.89Z" fill="#263238"/>
<g opacity="0.3">
<path d="M128.635 235.079C128.526 235.083 128.449 234.29 128.159 232.906C127.862 231.531 127.318 229.542 126.088 227.37C125.474 226.288 124.692 225.167 123.714 224.088C122.729 223.02 121.56 221.984 120.189 221.109C119.506 220.669 118.779 220.259 118.005 219.912C117.232 219.56 116.423 219.245 115.574 219.009C114.727 218.771 113.85 218.575 112.947 218.468C112.045 218.359 111.122 218.314 110.188 218.338C109.254 218.375 108.336 218.481 107.443 218.648C106.549 218.815 105.686 219.068 104.856 219.362C104.024 219.653 103.236 220.022 102.489 220.423C101.739 220.82 101.04 221.278 100.386 221.761C99.0747 222.725 97.9748 223.837 97.0616 224.967C96.156 226.107 95.4495 227.277 94.9055 228.397C93.8194 230.645 93.4051 232.666 93.1983 234.058C92.9992 235.458 92.9735 236.254 92.8645 236.256C92.784 236.26 92.6279 235.467 92.6668 234.009C92.7146 232.561 92.9922 230.42 94.0228 227.991C94.5391 226.783 95.2379 225.51 96.1629 224.264C97.0956 223.027 98.2399 221.807 99.6264 220.743C100.317 220.21 101.059 219.705 101.86 219.264C102.658 218.82 103.503 218.413 104.397 218.089C105.289 217.763 106.218 217.484 107.183 217.298C108.146 217.112 109.138 216.996 110.144 216.956C111.151 216.929 112.147 216.98 113.12 217.103C114.094 217.224 115.039 217.442 115.951 217.708C116.864 217.972 117.732 218.323 118.558 218.715C119.385 219.101 120.159 219.557 120.882 220.043C122.334 221.013 123.555 222.155 124.567 223.328C125.569 224.51 126.351 225.734 126.944 226.906C128.13 229.261 128.546 231.38 128.688 232.822C128.82 234.276 128.714 235.077 128.635 235.079Z" fill="black"/>
</g>
<path d="M97.8822 201.842H70.5098V263.027H97.8822V201.842Z" fill="white"/>
<path d="M249.781 229.532C252.829 243.154 244.232 256.674 230.58 259.73C229.1 260.061 227.622 260.256 226.158 260.322C214.115 260.868 203.058 252.742 200.34 240.596C197.292 226.974 205.888 213.454 219.541 210.399C233.194 207.344 246.733 215.91 249.781 229.532Z" fill="#F766A1"/>
<path d="M244.636 230.952C246.959 241.332 240.408 251.635 230.003 253.964C219.599 256.292 209.281 249.764 206.959 239.384C204.636 229.003 211.188 218.7 221.591 216.372C231.995 214.044 242.313 220.571 244.636 230.952Z" fill="#F766A1"/>
<path d="M243.899 230.849C243.892 230.85 243.857 230.749 243.795 230.552C243.73 230.336 243.642 230.045 243.531 229.674C243.474 229.479 243.411 229.264 243.341 229.027C243.26 228.792 243.15 228.543 243.043 228.27C242.824 227.724 242.589 227.087 242.211 226.422C241.549 225.048 240.483 223.488 239 221.917C237.511 220.355 235.527 218.821 233.046 217.699C230.576 216.59 227.607 215.843 224.408 215.991C221.234 216.153 217.807 217.019 214.799 219C214.024 219.455 213.328 220.042 212.607 220.611C212.26 220.911 211.94 221.244 211.601 221.562C211.254 221.872 210.95 222.227 210.649 222.587C210.008 223.276 209.489 224.073 208.935 224.854C208.462 225.687 207.954 226.512 207.589 227.42C206.822 229.205 206.235 231.133 206.068 233.144C205.877 235.148 205.993 237.207 206.418 239.234C206.897 241.249 207.669 243.162 208.696 244.895C209.704 246.644 211.056 248.137 212.512 249.426C213.229 250.091 214.041 250.621 214.823 251.174C215.657 251.644 216.466 252.145 217.34 252.494C218.182 252.913 219.085 253.157 219.954 253.447C220.849 253.654 221.728 253.89 222.624 253.97C226.189 254.48 229.66 253.803 232.599 252.596C235.556 251.366 237.923 249.424 239.686 247.369C241.452 245.296 242.592 243.063 243.274 241.015C243.945 238.962 244.246 237.097 244.258 235.572C244.317 234.809 244.259 234.133 244.223 233.546C244.203 233.252 244.198 232.98 244.17 232.734C244.132 232.49 244.098 232.268 244.066 232.067C244.009 231.684 243.965 231.384 243.932 231.16C243.903 230.956 243.892 230.85 243.899 230.849C243.906 230.847 243.93 230.95 243.972 231.153C244.015 231.375 244.073 231.674 244.147 232.055C244.184 232.255 244.225 232.478 244.271 232.722C244.304 232.969 244.317 233.242 244.343 233.537C244.391 234.126 244.463 234.807 244.415 235.577C244.427 237.115 244.148 239.003 243.488 241.087C242.819 243.166 241.683 245.439 239.905 247.554C238.13 249.652 235.735 251.64 232.731 252.905C229.746 254.147 226.214 254.849 222.577 254.341C221.663 254.261 220.765 254.024 219.853 253.815C218.965 253.522 218.044 253.273 217.184 252.849C216.291 252.493 215.465 251.985 214.613 251.506C213.813 250.944 212.985 250.404 212.252 249.726C210.764 248.412 209.383 246.888 208.351 245.103C207.301 243.334 206.511 241.38 206.024 239.322C205.589 237.254 205.471 235.151 205.668 233.104C205.84 231.049 206.44 229.082 207.226 227.261C207.6 226.335 208.119 225.493 208.604 224.645C209.17 223.848 209.702 223.037 210.357 222.335C210.665 221.969 210.976 221.607 211.33 221.292C211.676 220.969 212.004 220.63 212.359 220.324C213.095 219.745 213.806 219.149 214.598 218.688C217.671 216.677 221.165 215.807 224.395 215.658C227.65 215.522 230.665 216.299 233.164 217.441C235.674 218.596 237.672 220.167 239.163 221.763C240.647 223.368 241.705 224.957 242.35 226.353C242.721 227.029 242.946 227.676 243.155 228.23C243.257 228.507 243.361 228.76 243.436 228.997C243.499 229.237 243.556 229.455 243.608 229.653C243.704 230.029 243.779 230.324 243.835 230.544C243.884 230.743 243.905 230.847 243.899 230.849Z" fill="#263238"/>
<g opacity="0.3">
<path d="M243.796 231.078C243.684 231.108 243.419 230.299 242.796 228.923C242.168 227.557 241.139 225.609 239.352 223.63C238.46 222.646 237.385 221.657 236.116 220.759C234.841 219.874 233.382 219.065 231.749 218.471C230.934 218.171 230.081 217.911 229.193 217.729C228.306 217.541 227.389 217.4 226.449 217.351C225.511 217.299 224.551 217.298 223.585 217.396C222.618 217.491 221.646 217.659 220.678 217.9C219.712 218.155 218.78 218.479 217.887 218.861C216.993 219.242 216.152 219.706 215.355 220.205C214.555 220.702 213.819 221.269 213.132 221.861C212.442 222.45 211.819 223.089 211.25 223.745C210.106 225.054 209.217 226.468 208.526 227.859C207.847 229.258 207.381 230.643 207.074 231.936C206.463 234.532 206.499 236.735 206.607 238.234C206.724 239.74 206.882 240.576 206.769 240.604C206.687 240.627 206.339 239.837 206.041 238.307C205.755 236.787 205.548 234.489 206.059 231.718C206.317 230.337 206.751 228.848 207.427 227.334C208.112 225.828 209.023 224.291 210.222 222.859C210.818 222.142 211.475 221.444 212.208 220.799C212.937 220.15 213.723 219.53 214.58 218.985C215.435 218.438 216.339 217.931 217.302 217.514C218.263 217.096 219.27 216.745 220.311 216.47C221.354 216.209 222.404 216.03 223.448 215.933C224.492 215.834 225.528 215.842 226.541 215.908C227.554 215.972 228.542 216.136 229.492 216.353C230.445 216.565 231.358 216.86 232.225 217.199C233.964 217.874 235.503 218.781 236.829 219.77C238.149 220.77 239.248 221.866 240.138 222.95C241.921 225.13 242.847 227.243 243.329 228.714C243.803 230.198 243.879 231.058 243.796 231.078Z" fill="black"/>
</g>
<path d="M195.082 218.443C188.469 232.476 171.707 238.48 157.642 231.854C156.118 231.135 154.687 230.298 153.357 229.358C142.416 221.627 138.251 206.956 144.147 194.443C150.758 180.409 167.52 174.405 181.586 181.033C195.651 187.66 201.693 204.409 195.082 218.443Z" fill="#F766A1"/>
<path d="M189.598 216.18C184.56 226.874 171.786 231.45 161.067 226.4C150.349 221.349 145.744 208.585 150.782 197.891C155.821 187.196 168.595 182.621 179.313 187.671C190.032 192.723 194.636 205.486 189.598 216.18Z" fill="#F766A1"/>
<path d="M189.022 215.588C189.015 215.584 189.052 215.472 189.133 215.257C189.223 215.022 189.344 214.708 189.499 214.306C189.582 214.096 189.673 213.863 189.774 213.608C189.863 213.347 189.936 213.054 190.028 212.74C190.208 212.112 190.437 211.392 190.557 210.551C190.914 208.894 191.04 206.797 190.811 204.407C190.568 202.021 189.873 199.322 188.461 196.646C187.048 193.989 184.952 191.309 182.044 189.258C179.149 187.236 175.549 185.66 171.56 185.347C170.569 185.217 169.558 185.259 168.538 185.266C168.029 185.293 167.52 185.367 167.006 185.415C166.491 185.451 165.982 185.555 165.472 185.666C164.44 185.833 163.441 186.179 162.423 186.487C161.44 186.896 160.432 187.273 159.493 187.821C157.602 188.865 155.774 190.156 154.256 191.807C152.721 193.437 151.419 195.322 150.411 197.39C149.458 199.486 148.831 201.69 148.551 203.911C148.243 206.134 148.412 208.366 148.81 210.49C148.986 211.563 149.337 212.582 149.646 213.6C150.058 214.581 150.426 215.572 150.955 216.475C151.409 217.418 152.034 218.248 152.599 219.094C153.243 219.886 153.855 220.692 154.586 221.374C157.367 224.252 160.875 226.024 164.278 226.969C167.712 227.906 171.113 227.816 174.061 227.214C177.023 226.599 179.547 225.417 181.541 224.084C183.53 222.739 185.065 221.308 186.115 219.977C186.687 219.348 187.097 218.714 187.466 218.175C187.649 217.904 187.829 217.661 187.974 217.427C188.106 217.187 188.227 216.969 188.337 216.771C188.548 216.396 188.713 216.102 188.836 215.883C188.952 215.685 189.015 215.584 189.022 215.588C189.028 215.591 188.98 215.698 188.879 215.904C188.765 216.129 188.612 216.43 188.417 216.815C188.313 217.017 188.198 217.24 188.072 217.485C187.932 217.725 187.757 217.973 187.58 218.249C187.22 218.8 186.818 219.446 186.252 220.089C185.214 221.446 183.682 222.913 181.682 224.293C179.678 225.661 177.131 226.88 174.128 227.525C171.14 228.156 167.682 228.267 164.184 227.33C160.718 226.384 157.139 224.592 154.293 221.666C153.546 220.972 152.92 220.153 152.261 219.346C151.682 218.484 151.043 217.638 150.578 216.679C150.037 215.758 149.658 214.749 149.237 213.748C148.918 212.71 148.559 211.671 148.378 210.576C147.968 208.408 147.794 206.128 148.106 203.858C148.39 201.59 149.03 199.337 150.004 197.198C151.033 195.086 152.363 193.16 153.932 191.498C155.484 189.813 157.351 188.495 159.283 187.432C160.242 186.875 161.272 186.49 162.276 186.075C163.315 185.762 164.335 185.413 165.389 185.243C165.909 185.132 166.428 185.027 166.954 184.991C167.478 184.943 167.998 184.869 168.517 184.843C169.558 184.837 170.589 184.798 171.599 184.933C175.666 185.264 179.326 186.882 182.262 188.953C185.212 191.054 187.328 193.791 188.743 196.497C190.158 199.222 190.84 201.964 191.061 204.381C191.27 206.802 191.115 208.917 190.729 210.583C190.594 211.429 190.351 212.15 190.156 212.778C190.056 213.091 189.976 213.384 189.881 213.644C189.772 213.897 189.674 214.128 189.584 214.337C189.412 214.733 189.276 215.043 189.176 215.273C189.081 215.485 189.028 215.591 189.022 215.588Z" fill="#263238"/>
<g opacity="0.3">
<path d="M188.774 215.719C188.656 215.669 188.976 214.778 189.366 213.146C189.746 211.519 190.171 209.108 189.952 206.153C189.841 204.681 189.572 203.08 189.069 201.426C188.554 199.78 187.824 198.075 186.797 196.44C186.287 195.621 185.714 194.812 185.059 194.046C184.408 193.278 183.7 192.528 182.908 191.844C182.119 191.158 181.278 190.503 180.363 189.93C179.45 189.354 178.482 188.839 177.468 188.39C176.447 187.957 175.407 187.604 174.364 187.331C173.319 187.056 172.265 186.89 171.225 186.784C170.183 186.674 169.151 186.67 168.145 186.722C167.138 186.768 166.156 186.905 165.209 187.092C163.312 187.461 161.568 188.095 160.014 188.846C158.464 189.61 157.111 190.508 155.959 191.434C153.653 193.295 152.184 195.253 151.256 196.643C150.332 198.044 149.9 198.886 149.782 198.834C149.694 198.798 149.927 197.867 150.71 196.321C151.495 194.792 152.88 192.634 155.218 190.551C156.385 189.515 157.782 188.504 159.406 187.635C161.035 186.781 162.882 186.052 164.91 185.614C165.922 185.391 166.974 185.226 168.058 185.159C169.14 185.087 170.253 185.079 171.376 185.184C172.5 185.287 173.639 185.459 174.768 185.749C175.897 186.037 177.02 186.416 178.12 186.884C179.215 187.367 180.258 187.926 181.239 188.552C182.224 189.177 183.128 189.891 183.971 190.639C184.817 191.386 185.571 192.203 186.258 193.042C186.95 193.877 187.55 194.758 188.08 195.648C189.146 197.426 189.878 199.271 190.368 201.043C190.845 202.82 191.062 204.531 191.104 206.09C191.182 209.219 190.554 211.705 189.975 213.325C189.381 214.951 188.861 215.758 188.774 215.719Z" fill="black"/>
</g>
<g clip-path="url(#clip1_321_8220)">
<path d="M218.069 225.35L228.955 221.444L228.648 224.012L225.099 225.285C225.848 225.729 226.505 226.329 227.023 227.053L230.517 225.799L230.21 228.367L228.033 229.148C228.385 230.554 228.252 232.037 227.655 233.358C227.058 234.678 226.032 235.758 224.745 236.423L224.76 236.466L223.998 236.74L233.264 242.017L230.543 242.994L221.277 237.716L220.495 235.539L223.217 234.562C225.133 233.875 226.215 231.889 225.812 229.945L219.324 232.273L219.631 229.705L224.704 227.885C223.634 226.819 222.007 226.395 220.483 226.941L217.761 227.918L218.069 225.35Z" fill="#E0E0E0"/>
</g>
<path d="M309.492 325.549H201.465C198.447 325.549 196 323.102 196 320.084V246.465C196 243.447 198.447 241 201.465 241H309.492C312.51 241 314.957 243.447 314.957 246.465V320.084C314.957 323.102 312.51 325.549 309.492 325.549Z" fill="#AC768C"/>
<path d="M313.347 296.613H282.555C277.445 296.613 273.303 292.47 273.303 287.361V285.846C273.303 280.736 277.445 276.593 282.555 276.593H313.347C318.456 276.593 322.598 280.736 322.598 285.846V287.361C322.598 292.47 318.456 296.613 313.347 296.613Z" fill="#BA8B9E"/>
<path d="M313.347 296.96H282.556C277.263 296.96 272.957 292.654 272.957 287.36V285.846C272.957 280.552 277.263 276.246 282.556 276.246H313.347C318.64 276.246 322.946 280.552 322.946 285.846V287.36C322.946 292.654 318.64 296.96 313.347 296.96ZM282.556 276.94C277.646 276.94 273.651 280.935 273.651 285.846V287.36C273.651 292.271 277.646 296.266 282.556 296.266H313.347C318.256 296.266 322.252 292.271 322.252 287.36V285.846C322.252 280.935 318.256 276.94 313.347 276.94H282.556Z" fill="#BA8B9E"/>
<path d="M288.728 291.003C290.988 287.79 290.215 283.353 287.002 281.093C283.789 278.832 279.352 279.605 277.092 282.818C274.832 286.032 275.605 290.469 278.818 292.729C282.031 294.989 286.468 294.216 288.728 291.003Z" fill="#AC768C"/>
<path d="M216.283 68.0121H232.476L230.856 71.2508H225.578C226.355 72.19 226.938 73.2911 227.278 74.4894H232.476L230.856 77.7281H227.618C227.417 79.747 226.54 81.6389 225.13 83.0968C223.719 84.5548 221.857 85.4932 219.846 85.76V85.8248H218.712L228.428 97.1601H224.379L214.664 85.8248V82.5861H218.712C221.562 82.5861 223.926 80.481 224.315 77.7281H214.664L216.283 74.4894H223.829C222.922 72.5786 220.979 71.2508 218.712 71.2508H214.664L216.283 68.0121Z" fill="#B2B2B2"/>
<path d="M106.407 225.55H117.973L116.816 227.863H113.045C113.601 228.534 114.017 229.321 114.26 230.177H117.973L116.816 232.49H114.503C114.359 233.932 113.733 235.283 112.725 236.325C111.718 237.366 110.388 238.036 108.951 238.227V238.273H108.141L115.081 246.37H112.19L105.25 238.273V235.96H108.141C110.177 235.96 111.866 234.456 112.143 232.49H105.25L106.407 230.177H111.796C111.149 228.812 109.761 227.863 108.141 227.863H105.25L106.407 225.55Z" fill="#E0E0E0"/>
<g clip-path="url(#clip2_321_8220)">
<path d="M170.164 195.451L180.359 200.914L178.247 202.407L174.924 200.626C175.096 201.479 175.092 202.369 174.901 203.239L178.174 204.992L176.062 206.485L174.023 205.392C173.216 206.596 172.025 207.491 170.645 207.933C169.265 208.375 167.776 208.337 166.42 207.827L166.398 207.868L165.685 207.485L167.977 217.9L165.429 216.534L163.136 206.119L164.229 204.08L166.777 205.446C168.571 206.408 170.77 205.88 171.943 204.278L165.867 201.022L167.979 199.529L172.73 202.075C172.804 200.566 172.028 199.074 170.601 198.309L168.052 196.944L170.164 195.451Z" fill="#E0E0E0"/>
</g>
</g>
<defs>
<filter id="filter0_d_321_8220" x="1" y="50" width="356" height="312" filterUnits="userSpaceOnUse" color-interpolation-filters="sRGB">
<feFlood flood-opacity="0" result="BackgroundImageFix"/>
<feColorMatrix in="SourceAlpha" type="matrix" values="0 0 0 0 0 0 0 0 0 0 0 0 0 0 0 0 0 0 127 0" result="hardAlpha"/>
<feOffset dy="3"/>
<feGaussianBlur stdDeviation="6"/>
<feComposite in2="hardAlpha" operator="out"/>
<feColorMatrix type="matrix" values="0 0 0 0 0.698039 0 0 0 0 0.698039 0 0 0 0 0.698039 0 0 0 0.5 0"/>
<feBlend mode="normal" in2="BackgroundImageFix" result="effect1_dropShadow_321_8220"/>
<feBlend mode="normal" in="SourceGraphic" in2="effect1_dropShadow_321_8220" result="shape"/>
</filter>
<clipPath id="clip0_321_8220">
<rect width="356" height="347" fill="white"/>
</clipPath>
<clipPath id="clip1_321_8220">
<rect width="27.7585" height="27.7598" fill="white" transform="matrix(0.941243 -0.337729 0.337692 0.941257 208.188 225.209)"/>
</clipPath>
<clipPath id="clip2_321_8220">
<rect width="27.7587" height="27.7596" fill="white" transform="matrix(0.881418 0.472338 -0.472292 0.881442 163.647 188.022)"/>
</clipPath>
</defs>
</svg>
