<svg width="360" height="336" viewBox="0 0 360 336" fill="none" xmlns="http://www.w3.org/2000/svg">
<g filter="url(#filter0_d_321_8665)">
<path d="M12 32.3511L321.981 28.8804C334.13 28.7443 344.089 38.4832 344.225 50.6327L347.204 316.616L37.223 320.087C25.0735 320.223 15.1141 310.484 14.9781 298.334L12 32.3511Z" fill="#FFD8B3"/>
</g>
<path d="M16.1018 143.983V297.483C16.1018 309.634 25.9515 319.483 38.1018 319.483H230.102" stroke="#FF7D04" stroke-width="3" stroke-linecap="round" stroke-dasharray="7 9"/>
<path d="M216.76 113.398H157.52V167.191H216.76V113.398Z" fill="#407BFF" stroke="#1A2E35" stroke-width="1.33333" stroke-miterlimit="10" stroke-linecap="round" stroke-linejoin="round"/>
<path d="M199.737 113.398H157.52V167.191H199.737V113.398Z" fill="#407BFF" stroke="#1A2E35" stroke-width="1.33333" stroke-miterlimit="10" stroke-linecap="round" stroke-linejoin="round"/>
<path d="M182.905 128.416H173.835V113.397H182.905V128.416Z" fill="white" stroke="#1A2E35" stroke-width="1.33333" stroke-miterlimit="10" stroke-linecap="round" stroke-linejoin="round"/>
<path d="M229.608 100.563L221.814 106.895L229.608 100.563Z" fill="#407BFF"/>
<path d="M229.608 100.563L221.814 106.895" stroke="#1A2E35" stroke-width="1.33333" stroke-miterlimit="10" stroke-linecap="round" stroke-linejoin="round"/>
<path d="M140.957 178.985L148.75 172.652L140.957 178.985Z" fill="#407BFF"/>
<path d="M140.957 178.985L148.75 172.652" stroke="#1A2E35" stroke-width="1.33333" stroke-miterlimit="10" stroke-linecap="round" stroke-linejoin="round"/>
<path d="M229.608 178.985L221.814 172.652L229.608 178.985Z" fill="#407BFF"/>
<path d="M229.608 178.985L221.814 172.652" stroke="#1A2E35" stroke-width="1.33333" stroke-miterlimit="10" stroke-linecap="round" stroke-linejoin="round"/>
<path d="M188.205 86.4366V101.05" stroke="#1A2E35" stroke-width="1.33333" stroke-miterlimit="10" stroke-linecap="round" stroke-linejoin="round"/>
<path d="M188.205 176.062V190.675" stroke="#1A2E35" stroke-width="1.33333" stroke-miterlimit="10" stroke-linecap="round" stroke-linejoin="round"/>
<path d="M238.314 41.0539L222.632 20.3649L219.593 27.5808C214.293 25.9576 208.84 24.6998 203.335 23.8451C175.958 19.594 147.953 25.3214 124.481 39.9728C101.254 54.4711 83.8939 76.7434 75.5995 102.686C74.7237 105.426 76.2345 108.356 78.9735 109.232C79.2373 109.316 79.5017 109.378 79.7665 109.419C82.2569 109.806 84.7275 108.333 85.5193 105.858C93.0629 82.2618 108.858 62.0011 129.995 48.8076C151.349 35.4784 176.827 30.2679 201.737 34.1358C206.401 34.86 211.023 35.8995 215.53 37.2302L212.556 44.2945L238.314 41.0539Z" fill="#407BFF"/>
<path d="M276.38 66.5414C274.601 64.2803 271.327 63.8921 269.068 65.6694C266.808 67.4474 266.417 70.7212 268.196 72.9815C286.177 95.8317 293.932 125.408 289.473 154.127C285.45 180.035 272.004 203.358 251.612 219.802C232.448 235.254 208.679 243.447 184.269 243.107L185.212 235.489L161.305 245.608L182.021 261.256L182.982 253.497C210.218 254.148 236.789 245.131 258.15 227.909C280.563 209.834 295.342 184.199 299.764 155.725C304.665 124.161 296.142 91.655 276.38 66.5414Z" fill="#407BFF"/>
<path d="M247.721 219.967C243.945 231.591 238.588 235.255 238.588 235.255C235.447 238.043 232.094 239.259 229.187 238.283C223.025 236.219 221.194 225.094 225.097 213.438C229.002 201.782 237.164 194.004 243.327 196.069C246.295 197.063 248.257 200.156 249.056 204.4C250.516 211.363 247.721 219.967 247.721 219.967Z" fill="#407BFF"/>
<path d="M247.721 219.967C243.945 231.591 238.588 235.255 238.588 235.255C235.447 238.043 232.094 239.259 229.187 238.283C223.025 236.219 221.194 225.094 225.097 213.438C229.002 201.782 237.164 194.004 243.327 196.069C246.295 197.063 248.257 200.156 249.056 204.4C250.516 211.363 247.721 219.967 247.721 219.967Z" stroke="#1A2E35" stroke-width="1.33333" stroke-miterlimit="10" stroke-linecap="round" stroke-linejoin="round"/>
<path d="M245.542 220.286C241.906 231.142 234.554 238.467 229.12 236.647C223.687 234.828 222.229 224.552 225.865 213.696C229.501 202.839 236.853 195.514 242.287 197.334C247.72 199.154 249.178 209.429 245.542 220.286Z" fill="#D0D0D0"/>
<path d="M245.542 220.286C241.906 231.142 234.554 238.467 229.12 236.647C223.687 234.828 222.229 224.552 225.865 213.696C229.501 202.839 236.853 195.514 242.287 197.334C247.72 199.154 249.178 209.429 245.542 220.286Z" stroke="#1A2E35" stroke-width="1.33333" stroke-miterlimit="10" stroke-linecap="round" stroke-linejoin="round"/>
<path d="M238.393 217.891C237.399 220.859 235.388 222.862 233.903 222.364C232.418 221.867 232.019 219.058 233.013 216.09C234.008 213.122 236.017 211.119 237.502 211.617C238.988 212.114 239.387 214.923 238.393 217.891Z" fill="#407BFF"/>
<path d="M238.393 217.891C237.399 220.859 235.388 222.862 233.903 222.364C232.418 221.867 232.019 219.058 233.013 216.09C234.008 213.122 236.017 211.119 237.502 211.617C238.988 212.114 239.387 214.923 238.393 217.891Z" stroke="#1A2E35" stroke-width="1.33333" stroke-miterlimit="10" stroke-linecap="round" stroke-linejoin="round"/>
<path d="M237.502 211.618C238.987 212.115 239.386 214.924 238.392 217.892C237.398 220.86 235.388 222.862 233.903 222.364L242.914 226.41C243.91 224.545 244.803 222.49 245.541 220.286C246.354 217.86 246.91 215.464 247.227 213.184L237.502 211.618Z" fill="#407BFF"/>
<path d="M237.502 211.618C238.987 212.115 239.386 214.924 238.392 217.892C237.398 220.86 235.388 222.862 233.903 222.364L242.914 226.41C243.91 224.545 244.803 222.49 245.541 220.286C246.354 217.86 246.91 215.464 247.227 213.184L237.502 211.618Z" stroke="#1A2E35" stroke-width="1.33333" stroke-miterlimit="10" stroke-linecap="round" stroke-linejoin="round"/>
<path d="M248.69 216.225C248.819 215.609 248.93 215 249.026 214.397C248.933 214.999 248.819 215.609 248.69 216.225Z" stroke="#1A2E35" stroke-width="1.33333" stroke-miterlimit="10" stroke-linecap="round" stroke-linejoin="round"/>
<path d="M283.716 223.071C284.913 224.783 285.143 227.083 284.808 229.13C284.139 233.214 281.172 238.87 276.469 239.167C276.036 239.195 275.6 239.168 275.173 239.086C269.636 238.545 263.225 236.115 253.908 235.083C247.88 234.141 239.07 234.996 238.588 235.255C246.702 227.524 250.502 215.185 249.056 204.4C255.276 212.321 265.864 215.943 276.396 219.343C277.876 219.822 280.817 220.476 282.602 221.886C283.04 222.234 283.41 222.633 283.716 223.071Z" fill="white"/>
<path d="M283.716 223.071C284.913 224.783 285.143 227.083 284.808 229.13C284.139 233.214 281.172 238.87 276.469 239.167C276.036 239.195 275.6 239.168 275.173 239.086C269.636 238.545 263.225 236.115 253.908 235.083C247.88 234.141 239.07 234.996 238.588 235.255C246.702 227.524 250.502 215.185 249.056 204.4C255.276 212.321 265.864 215.943 276.396 219.343C277.876 219.822 280.817 220.476 282.602 221.886C283.04 222.234 283.41 222.633 283.716 223.071Z" stroke="#1A2E35" stroke-width="1.33333" stroke-miterlimit="10" stroke-linecap="round" stroke-linejoin="round"/>
<path d="M275.173 239.087C275.6 239.168 276.036 239.195 276.469 239.168C281.172 238.87 284.139 233.214 284.808 229.13C285.143 227.083 284.912 224.783 283.716 223.071C283.41 222.633 283.041 222.234 282.602 221.887C280.818 220.477 277.876 219.821 276.396 219.344C274.834 218.84 273.272 218.33 271.722 217.802C272.691 220.525 272.482 225.033 271.506 228.008C269.717 233.465 267.018 235.528 264.452 236.923C268.562 237.852 272.011 238.777 275.173 239.087Z" fill="#407BFF"/>
<path d="M275.173 239.087C275.6 239.168 276.036 239.195 276.469 239.168C281.172 238.87 284.139 233.214 284.808 229.13C285.143 227.083 284.912 224.783 283.716 223.071C283.41 222.633 283.041 222.234 282.602 221.887C280.818 220.477 277.876 219.821 276.396 219.344C274.834 218.84 273.272 218.33 271.722 217.802C272.691 220.525 272.482 225.033 271.506 228.008C269.717 233.465 267.018 235.528 264.452 236.923C268.562 237.852 272.011 238.777 275.173 239.087Z" stroke="#1A2E35" stroke-width="1.33333" stroke-miterlimit="10" stroke-linecap="round" stroke-linejoin="round"/>
<path d="M264.277 243.293L263.698 244.13L264.791 245.224C264.791 245.224 263.505 247.734 262.668 250.694C261.831 253.654 261.123 255.199 261.123 255.199C261.123 255.199 258.871 256.679 259 257.451C259.128 258.224 262.411 260.348 263.118 260.927C263.826 261.506 265.049 262.15 266.078 261.635C267.109 261.12 267.044 260.476 267.044 259.768C267.044 259.061 267.109 258.224 267.109 258.224C267.109 258.224 270.648 251.788 271.227 249.793C271.806 247.798 272.064 244.387 272.965 244.001C273.866 243.615 276.376 243.679 276.762 242.65C277.148 241.62 278.956 237.482 278.956 237.482L269.361 235.699C269.361 235.699 267.109 237.501 263.633 236.729L266.594 239.367L264.277 243.293Z" fill="white"/>
<path d="M264.277 243.293L263.698 244.13L264.791 245.224C264.791 245.224 263.505 247.734 262.668 250.694C261.831 253.654 261.123 255.199 261.123 255.199C261.123 255.199 258.871 256.679 259 257.451C259.128 258.224 262.411 260.348 263.118 260.927C263.826 261.506 265.049 262.15 266.078 261.635C267.109 261.12 267.044 260.476 267.044 259.768C267.044 259.061 267.109 258.224 267.109 258.224C267.109 258.224 270.648 251.788 271.227 249.793C271.806 247.798 272.064 244.387 272.965 244.001C273.866 243.615 276.376 243.679 276.762 242.65C277.148 241.62 278.956 237.482 278.956 237.482L269.361 235.699C269.361 235.699 267.109 237.501 263.633 236.729L266.594 239.367L264.277 243.293Z" stroke="#1A2E35" stroke-width="1.33333" stroke-miterlimit="10" stroke-linecap="round" stroke-linejoin="round"/>
<path d="M263.634 236.729L266.594 239.368L264.277 243.294L263.698 244.13L264.104 244.536L265.435 244.452C265.435 244.452 268.861 240.139 269.247 239.203C269.633 238.266 269.361 235.7 269.361 235.7C269.361 235.7 267.109 237.501 263.634 236.729Z" fill="#EEEEEE"/>
<path d="M263.634 236.729L266.594 239.368L264.277 243.294L263.698 244.13L264.104 244.536L265.435 244.452C265.435 244.452 268.861 240.139 269.247 239.203C269.633 238.266 269.361 235.7 269.361 235.7C269.361 235.7 267.109 237.501 263.634 236.729Z" stroke="#1A2E35" stroke-width="1.33333" stroke-miterlimit="10" stroke-linecap="round" stroke-linejoin="round"/>
<path d="M266.4 238.016C266.4 238.016 266.529 238.981 265.692 239.754C264.856 240.526 263.44 242.456 263.633 242.585C263.826 242.714 264.277 243.293 264.277 243.293L265.113 243.551C265.113 243.551 267.237 240.461 267.302 239.689C267.365 238.917 266.4 238.016 266.4 238.016Z" fill="#EEEEEE"/>
<path d="M266.4 238.016C266.4 238.016 266.529 238.981 265.692 239.754C264.856 240.526 263.44 242.456 263.633 242.585C263.826 242.714 264.277 243.293 264.277 243.293L265.113 243.551C265.113 243.551 267.237 240.461 267.302 239.689C267.365 238.917 266.4 238.016 266.4 238.016Z" stroke="#1A2E35" stroke-width="1.33333" stroke-miterlimit="10" stroke-linecap="round" stroke-linejoin="round"/>
<path d="M263.698 244.13L265.435 244.453L266.98 245.739L264.792 245.225L263.698 244.13Z" fill="#1A2E35"/>
<path d="M263.698 244.13L265.435 244.453L266.98 245.739L264.792 245.225L263.698 244.13Z" stroke="#1A2E35" stroke-width="1.33333" stroke-miterlimit="10" stroke-linecap="round" stroke-linejoin="round"/>
<path d="M262.475 256.229C263.183 255.65 263.311 254.363 264.276 252.11C265.242 249.858 266.98 245.738 266.98 245.738L264.791 245.224C264.791 245.224 263.504 247.734 262.668 250.694C261.831 253.654 261.123 255.199 261.123 255.199C261.123 255.199 258.871 256.679 258.999 257.451C259.128 258.224 262.41 260.348 263.118 260.927C263.506 261.244 264.049 261.58 264.628 261.734C263.779 261.085 260.906 258.625 260.737 257.837C260.544 256.937 261.767 256.808 262.475 256.229Z" fill="#EEEEEE"/>
<path d="M262.475 256.229C263.183 255.65 263.311 254.363 264.276 252.11C265.242 249.858 266.98 245.738 266.98 245.738L264.791 245.224C264.791 245.224 263.504 247.734 262.668 250.694C261.831 253.654 261.123 255.199 261.123 255.199C261.123 255.199 258.871 256.679 258.999 257.451C259.128 258.224 262.41 260.348 263.118 260.927C263.506 261.244 264.049 261.58 264.628 261.734C263.779 261.085 260.906 258.625 260.737 257.837C260.544 256.937 261.767 256.808 262.475 256.229Z" stroke="#1A2E35" stroke-width="1.33333" stroke-miterlimit="10" stroke-linecap="round" stroke-linejoin="round"/>
<path d="M266.4 238.017L265.95 237.566H265.306L266.336 238.789C266.336 238.789 266.336 238.467 266.4 238.017Z" fill="#1A2E35"/>
<path d="M266.4 238.017L265.95 237.566H265.306L266.336 238.789C266.336 238.789 266.336 238.467 266.4 238.017Z" stroke="#1A2E35" stroke-width="1.33333" stroke-miterlimit="10" stroke-linecap="round" stroke-linejoin="round"/>
<path d="M260.779 257.957L259.001 257.376C259.001 257.401 258.996 257.428 258.999 257.451C259.128 258.223 262.41 260.347 263.118 260.927C263.506 261.244 264.049 261.579 264.628 261.734C263.818 261.114 261.166 258.848 260.779 257.957Z" fill="#1A2E35"/>
<path d="M260.779 257.957L259.001 257.376C259.001 257.401 258.996 257.428 258.999 257.451C259.128 258.223 262.41 260.347 263.118 260.927C263.506 261.244 264.049 261.579 264.628 261.734C263.818 261.114 261.166 258.848 260.779 257.957Z" stroke="#1A2E35" stroke-width="1.33333" stroke-miterlimit="10" stroke-linecap="round" stroke-linejoin="round"/>
<path d="M263.634 242.586L264.895 242.868L265.114 243.551L264.277 243.294L263.634 242.586Z" fill="#1A2E35"/>
<path d="M263.634 242.586L264.895 242.868L265.114 243.551L264.277 243.294L263.634 242.586Z" stroke="#1A2E35" stroke-width="1.33333" stroke-miterlimit="10" stroke-linecap="round" stroke-linejoin="round"/>
<path d="M264.895 242.869C264.895 242.869 266.793 240.599 266.834 239.692L264.895 242.869Z" fill="#1A2E35"/>
<path d="M264.895 242.869C264.895 242.869 266.793 240.599 266.834 239.692" stroke="#1A2E35" stroke-width="1.33333" stroke-miterlimit="10" stroke-linecap="round" stroke-linejoin="round"/>
<path d="M134.641 134.311C134.641 134.311 136.537 134.849 136.036 136.503C135.535 138.156 130.76 138.66 130.76 138.66L134.641 134.311Z" fill="#9A9A9A"/>
<path d="M134.641 134.311C134.641 134.311 136.537 134.849 136.036 136.503C135.535 138.156 130.76 138.66 130.76 138.66L134.641 134.311Z" stroke="#1A2E35" stroke-width="1.33333" stroke-miterlimit="10" stroke-linecap="round" stroke-linejoin="round"/>
<path d="M132.164 137.2C132.164 137.2 134.06 137.738 133.558 139.392C133.058 141.045 128.283 141.549 128.283 141.549L132.164 137.2Z" fill="#9A9A9A"/>
<path d="M132.164 137.2C132.164 137.2 134.06 137.738 133.558 139.392C133.058 141.045 128.283 141.549 128.283 141.549L132.164 137.2Z" stroke="#1A2E35" stroke-width="1.33333" stroke-miterlimit="10" stroke-linecap="round" stroke-linejoin="round"/>
<path d="M128.989 139.909C128.989 139.909 130.884 140.447 130.383 142.1C129.882 143.754 125.108 144.258 125.108 144.258L128.989 139.909Z" fill="#9A9A9A"/>
<path d="M128.989 139.909C128.989 139.909 130.884 140.447 130.383 142.1C129.882 143.754 125.108 144.258 125.108 144.258L128.989 139.909Z" stroke="#1A2E35" stroke-width="1.33333" stroke-miterlimit="10" stroke-linecap="round" stroke-linejoin="round"/>
<path d="M117.303 136.162L97.8613 145.26L97.6516 158.636L114.915 143.674L122.533 143.287L125.707 135.475L117.303 136.162Z" fill="#FFB6B6"/>
<path d="M117.303 136.162L97.8613 145.26L97.6516 158.636L114.915 143.674L122.533 143.287L125.707 135.475L117.303 136.162Z" stroke="#FFB6B6" stroke-width="1.33333" stroke-miterlimit="10" stroke-linecap="round" stroke-linejoin="round"/>
<path d="M137.095 118.563L115.472 144.868L117.236 156.489L142.885 126.817L137.095 118.563Z" fill="#1A2E35"/>
<path d="M137.095 118.563L115.472 144.868L117.236 156.489L142.885 126.817L137.095 118.563Z" stroke="#1A2E35" stroke-width="1.33333" stroke-miterlimit="10" stroke-linecap="round" stroke-linejoin="round"/>
<path d="M136.467 119.92L116.434 144.289L118.135 153.698L141.152 126.641L136.467 119.92Z" fill="white"/>
<path d="M136.467 119.92L116.434 144.289L118.135 153.698L141.152 126.641L136.467 119.92Z" stroke="#1A2E35" stroke-width="1.33333" stroke-miterlimit="10" stroke-linecap="round" stroke-linejoin="round"/>
<path d="M139.42 120.691L137.044 122.982L139.013 125.813L141.74 123.703L139.42 120.691Z" fill="#1A2E35"/>
<path d="M139.42 120.691L137.044 122.982L139.013 125.813L141.74 123.703L139.42 120.691Z" stroke="#1A2E35" stroke-width="1.33333" stroke-miterlimit="10" stroke-linecap="round" stroke-linejoin="round"/>
<path d="M117.008 140.661C117.008 140.661 118.27 141.448 119.577 140.66C120.883 139.872 124.104 135.624 124.104 135.624L125.707 135.475C127.311 135.326 128.706 133.959 129.359 132.281C130.012 130.603 127.829 130.663 126.968 131.124C126.107 131.584 123.508 131.779 122.291 131.987C121.073 132.195 117.303 136.162 117.303 136.162C117.303 136.162 115.403 138.242 115.641 139.266" fill="#FFB6B6"/>
<path d="M117.008 140.661C117.008 140.661 118.27 141.448 119.577 140.66C120.883 139.872 124.104 135.624 124.104 135.624L125.707 135.475C127.311 135.326 128.706 133.959 129.359 132.281C130.012 130.603 127.829 130.663 126.968 131.124C126.107 131.584 123.508 131.779 122.291 131.987C121.073 132.195 117.303 136.162 117.303 136.162C117.303 136.162 115.403 138.242 115.641 139.266" stroke="#1A2E35" stroke-width="1.33333" stroke-miterlimit="10" stroke-linecap="round" stroke-linejoin="round"/>
<path d="M59.586 299.979C59.586 299.979 59.3701 302.79 59.3701 304.087C59.3701 305.384 59.802 307.113 59.802 307.113H89.1993H96.8716C96.8716 307.113 97.0883 304.735 94.7104 302.357C92.3325 299.979 88.119 298.034 86.1737 298.034C84.2277 298.034 77.9591 292.847 76.8788 292.198C75.7979 291.549 59.586 299.979 59.586 299.979Z" fill="#407BFF"/>
<path d="M59.586 299.979C59.586 299.979 59.3701 302.79 59.3701 304.087C59.3701 305.384 59.802 307.113 59.802 307.113H89.1993H96.8716C96.8716 307.113 97.0883 304.735 94.7104 302.357C92.3325 299.979 88.119 298.034 86.1737 298.034C84.2277 298.034 77.9591 292.847 76.8788 292.198C75.7979 291.549 59.586 299.979 59.586 299.979Z" stroke="#1A2E35" stroke-width="1.33333" stroke-miterlimit="10" stroke-linecap="round" stroke-linejoin="round"/>
<path d="M59.8029 307.113H89.2002H96.8726C96.8726 307.113 96.9489 306.234 96.4796 305.014H59.428C59.5453 306.081 59.8029 307.113 59.8029 307.113Z" fill="#9A9A9A"/>
<path d="M59.8029 307.113H89.2002H96.8726C96.8726 307.113 96.9489 306.234 96.4796 305.014H59.428C59.5453 306.081 59.8029 307.113 59.8029 307.113Z" stroke="#1A2E35" stroke-width="1.33333" stroke-miterlimit="10" stroke-linecap="round" stroke-linejoin="round"/>
<path d="M73.6365 196.007C73.6365 196.007 68.8808 225.405 67.368 229.945C65.8552 234.484 60.451 243.779 59.37 249.831C58.2891 255.883 57.6406 259.558 58.7216 262.368C59.8026 265.178 59.1541 287.875 59.1541 287.875C59.1541 287.875 58.2891 294.359 58.5057 296.305C58.7216 298.25 59.1541 300.844 59.1541 300.844C59.1541 300.844 60.8835 301.925 63.0448 301.492C65.2067 301.06 69.0974 298.25 69.0974 298.25C69.0974 298.25 75.3659 295.008 76.4469 293.495C77.5272 291.982 76.2303 280.741 76.2303 275.554C76.2303 270.366 78.3923 247.237 79.9051 243.995C81.4186 240.752 85.9577 228.431 88.984 213.516C92.0103 198.601 94.2257 191.738 89.6324 182.605C85.0392 173.473 74.285 185.2 73.6365 196.007Z" fill="#1A2E35"/>
<path d="M73.6365 196.007C73.6365 196.007 68.8808 225.405 67.368 229.945C65.8552 234.484 60.451 243.779 59.37 249.831C58.2891 255.883 57.6406 259.558 58.7216 262.368C59.8026 265.178 59.1541 287.875 59.1541 287.875C59.1541 287.875 58.2891 294.359 58.5057 296.305C58.7216 298.25 59.1541 300.844 59.1541 300.844C59.1541 300.844 60.8835 301.925 63.0448 301.492C65.2067 301.06 69.0974 298.25 69.0974 298.25C69.0974 298.25 75.3659 295.008 76.4469 293.495C77.5272 291.982 76.2303 280.741 76.2303 275.554C76.2303 270.366 78.3923 247.237 79.9051 243.995C81.4186 240.752 85.9577 228.431 88.984 213.516C92.0103 198.601 94.2257 191.738 89.6324 182.605C85.0392 173.473 74.285 185.2 73.6365 196.007Z" stroke="#1A2E35" stroke-width="1.33333" stroke-miterlimit="10" stroke-linecap="round" stroke-linejoin="round"/>
<path d="M84.0122 293.494C84.0122 293.494 89.5226 297.818 92.1164 298.682C94.7108 299.547 99.8984 300.411 101.411 302.357C102.925 304.302 102.276 307.328 102.276 307.328H67.5844C67.5844 307.328 66.2868 304.519 66.936 300.411C67.5844 296.305 84.0122 293.494 84.0122 293.494Z" fill="#407BFF"/>
<path d="M84.0122 293.494C84.0122 293.494 89.5226 297.818 92.1164 298.682C94.7108 299.547 99.8984 300.411 101.411 302.357C102.925 304.302 102.276 307.328 102.276 307.328H67.5844C67.5844 307.328 66.2868 304.519 66.936 300.411C67.5844 296.305 84.0122 293.494 84.0122 293.494Z" stroke="#1A2E35" stroke-width="1.33333" stroke-miterlimit="10" stroke-linecap="round" stroke-linejoin="round"/>
<path d="M67.5839 307.329H102.276C102.276 307.329 102.494 306.296 102.377 305.05H66.9514C67.1972 306.484 67.5839 307.329 67.5839 307.329Z" fill="#9A9A9A"/>
<path d="M67.5839 307.329H102.276C102.276 307.329 102.494 306.296 102.377 305.05H66.9514C67.1972 306.484 67.5839 307.329 67.5839 307.329Z" stroke="#1A2E35" stroke-width="1.33333" stroke-miterlimit="10" stroke-linecap="round" stroke-linejoin="round"/>
<path d="M66.8812 168.447C66.8812 168.447 64.7734 177.364 66.071 182.227C67.3679 187.091 69.9617 192.927 71.0961 194.548C72.2312 196.17 72.0688 215.299 71.907 221.622C71.7445 227.945 67.0437 238.645 64.4492 245.616C61.8554 252.587 64.4492 263.449 64.4492 269.772C64.4492 276.094 64.2874 279.985 64.4492 283.714C64.6116 287.443 64.9359 291.333 64.9359 291.333C64.9359 291.333 64.6116 292.63 64.4492 294.413C64.2874 296.197 66.071 297.008 66.071 297.008C66.071 297.008 66.2328 297.98 66.2328 299.601C66.2328 301.223 67.2054 302.358 67.2054 302.358C67.2054 302.358 76.9328 298.466 79.5266 297.008C82.1204 295.548 85.2008 293.927 85.2008 293.927C85.2008 293.927 85.0384 290.361 85.3626 288.901C85.6868 287.443 83.2555 284.686 83.2555 284.686C83.2555 284.686 83.4172 275.932 83.5797 272.528C83.7415 269.123 90.2266 246.426 92.172 233.457C94.1173 220.488 98.1697 204.113 99.1431 194.387C100.116 184.659 99.6291 170.069 99.6291 169.583C99.6291 169.096 76.4461 168.934 74.3383 168.61C72.2312 168.285 67.5296 167.312 67.5296 167.312L66.8812 168.447Z" fill="#1A2E35"/>
<path d="M66.8812 168.447C66.8812 168.447 64.7734 177.364 66.071 182.227C67.3679 187.091 69.9617 192.927 71.0961 194.548C72.2312 196.17 72.0688 215.299 71.907 221.622C71.7445 227.945 67.0437 238.645 64.4492 245.616C61.8554 252.587 64.4492 263.449 64.4492 269.772C64.4492 276.094 64.2874 279.985 64.4492 283.714C64.6116 287.443 64.9359 291.333 64.9359 291.333C64.9359 291.333 64.6116 292.63 64.4492 294.413C64.2874 296.197 66.071 297.008 66.071 297.008C66.071 297.008 66.2328 297.98 66.2328 299.601C66.2328 301.223 67.2054 302.358 67.2054 302.358C67.2054 302.358 76.9328 298.466 79.5266 297.008C82.1204 295.548 85.2008 293.927 85.2008 293.927C85.2008 293.927 85.0384 290.361 85.3626 288.901C85.6868 287.443 83.2555 284.686 83.2555 284.686C83.2555 284.686 83.4172 275.932 83.5797 272.528C83.7415 269.123 90.2266 246.426 92.172 233.457C94.1173 220.488 98.1697 204.113 99.1431 194.387C100.116 184.659 99.6291 170.069 99.6291 169.583C99.6291 169.096 76.4461 168.934 74.3383 168.61C72.2312 168.285 67.5296 167.312 67.5296 167.312L66.8812 168.447Z" stroke="#1A2E35" stroke-width="1.33333" stroke-miterlimit="10" stroke-linecap="round" stroke-linejoin="round"/>
<path d="M78.5543 97.7636C78.5543 97.7636 75.6363 99.223 75.1497 101.33C74.6637 103.438 67.0441 111.543 65.423 117.218C63.8019 122.892 64.4503 134.078 65.2605 138.942C66.0714 143.805 67.3683 153.532 67.0441 157.423C66.7199 161.314 65.0988 166.988 66.0714 168.934C67.0441 170.879 77.7434 172.176 85.363 172.014C92.9826 171.852 99.9537 173.149 101.413 170.393C102.872 167.637 102.062 160.503 101.576 154.991C101.089 149.48 97.0357 126.783 95.9013 120.784C94.7662 114.786 92.1724 110.571 89.9028 107.004C87.6333 103.438 81.4724 98.0878 78.5543 97.7636Z" fill="#407BFF"/>
<path d="M78.5543 97.7636C78.5543 97.7636 75.6363 99.223 75.1497 101.33C74.6637 103.438 67.0441 111.543 65.423 117.218C63.8019 122.892 64.4503 134.078 65.2605 138.942C66.0714 143.805 67.3683 153.532 67.0441 157.423C66.7199 161.314 65.0988 166.988 66.0714 168.934C67.0441 170.879 77.7434 172.176 85.363 172.014C92.9826 171.852 99.9537 173.149 101.413 170.393C102.872 167.637 102.062 160.503 101.576 154.991C101.089 149.48 97.0357 126.783 95.9013 120.784C94.7662 114.786 92.1724 110.571 89.9028 107.004C87.6333 103.438 81.4724 98.0878 78.5543 97.7636Z" stroke="#1A2E35" stroke-width="1.33333" stroke-miterlimit="10" stroke-linecap="round" stroke-linejoin="round"/>
<path d="M78.5542 97.7637C78.5542 97.7637 75.6362 99.223 75.1495 101.33C75.0849 101.612 74.8884 102.004 74.5996 102.481C74.7982 102.623 75.012 102.769 75.2619 102.922C78.457 104.888 93.2039 117.915 93.2039 117.915L93.1095 112.54C92.0903 110.479 90.9621 108.669 89.9026 107.004C87.6331 103.438 81.4722 98.0879 78.5542 97.7637Z" fill="#407BFF"/>
<path d="M78.5542 97.7637C78.5542 97.7637 75.6362 99.223 75.1495 101.33C75.0849 101.612 74.8884 102.004 74.5996 102.481C74.7982 102.623 75.012 102.769 75.2619 102.922C78.457 104.888 93.2039 117.915 93.2039 117.915L93.1095 112.54C92.0903 110.479 90.9621 108.669 89.9026 107.004C87.6331 103.438 81.4722 98.0879 78.5542 97.7637Z" stroke="#1A2E35" stroke-width="1.33333" stroke-miterlimit="10" stroke-linecap="round" stroke-linejoin="round"/>
<path d="M98.6516 62.7362C98.6516 62.7362 102.293 65.9222 103.507 69.2603C104.72 72.5983 103.659 75.6329 104.72 77.1499C105.782 78.6669 107.603 79.7291 107.907 81.3981C108.21 83.0672 105.782 83.8253 105.782 83.8253V85.7977C105.782 85.7977 106.122 86.201 106.122 86.8085C106.122 87.4152 105.934 88.2256 105.934 88.2256C105.934 88.2256 106.086 88.8711 105.782 89.9327C105.479 90.9949 104.872 91.4116 104.872 91.4116C104.872 91.4116 104.72 93.536 103.81 94.9009C102.9 96.2666 100.169 97.0254 98.0448 97.0254C95.9204 97.0254 92.431 95.6598 92.431 95.6598C92.431 95.6598 90.4586 100.06 90.4586 102.791C90.4586 105.522 90.6106 110.984 90.6106 110.984C90.6106 110.984 83.7825 105.066 82.1142 103.246C80.4451 101.426 78.3207 99.908 78.3207 99.908C78.3207 99.908 79.6863 94.9009 78.9275 91.1082C78.1693 87.3154 72.2521 84.7362 70.2797 78.8189C68.3073 72.9017 69.8243 64.7087 75.8935 60.6118C81.9621 56.5156 89.6997 55.9088 93.4932 56.3643C97.286 56.819 102.444 60.6118 98.6516 62.7362Z" fill="#FFB6B6"/>
<path d="M103.507 69.2603C102.293 65.9222 98.6516 62.7362 98.6516 62.7362C102.444 60.6118 97.286 56.819 93.4932 56.3643C89.6997 55.9088 81.9621 56.5156 75.8935 60.6118C69.8243 64.7087 68.3073 72.9017 70.2797 78.8189C72.2521 84.7362 78.1693 87.3154 78.9275 91.1082C79.6863 94.9009 78.3207 99.908 78.3207 99.908C78.3207 99.908 80.4451 101.426 82.1142 103.246C83.7825 105.066 90.6106 110.984 90.6106 110.984C90.6106 110.984 90.4586 105.522 90.4586 102.791C90.4586 100.06 92.431 95.6598 92.431 95.6598C92.431 95.6598 95.9204 97.0254 98.0448 97.0254C100.169 97.0254 102.9 96.2666 103.81 94.9009C105.786 91.1222 106.168 88.6746 105.782 83.8253C105.782 83.8253 108.21 83.0672 107.907 81.3981C107.603 79.7291 105.782 78.6669 104.72 77.1499C103.659 75.6329 104.72 72.5983 103.507 69.2603Z" stroke="#1A2E35" stroke-width="1.33333" stroke-miterlimit="10" stroke-linecap="round" stroke-linejoin="round"/>
<path d="M101.608 76.9599C101.608 77.7243 101.367 78.3442 101.069 78.3442C100.772 78.3442 100.531 77.7243 100.531 76.9599C100.531 76.1955 100.772 75.5755 101.069 75.5755C101.367 75.5755 101.608 76.1955 101.608 76.9599Z" fill="#1A2E35"/>
<path d="M101.608 76.9599C101.608 77.7243 101.367 78.3442 101.069 78.3442C100.772 78.3442 100.531 77.7243 100.531 76.9599C100.531 76.1955 100.772 75.5755 101.069 75.5755C101.367 75.5755 101.608 76.1955 101.608 76.9599Z" stroke="#1A2E35" stroke-width="1.33333" stroke-miterlimit="10" stroke-linecap="round" stroke-linejoin="round"/>
<path d="M98.6516 62.7365C102.444 60.612 97.286 56.8192 93.4932 56.3645C89.6997 55.909 81.9621 56.5158 75.8935 60.612C69.8243 64.7089 68.3073 72.9019 70.2797 78.8192C72.0188 84.0359 76.8197 86.6588 78.4519 89.8066C80.9159 89.3151 81.0311 87.4614 80.7485 85.3432C80.4451 83.0674 81.8108 80.6395 83.3277 80.3361C84.8447 80.0327 86.6658 78.9705 86.3624 77.6056C86.059 76.24 85.4515 74.4189 86.9692 73.0533C88.4862 71.6884 90.1552 70.1707 89.6997 67.5915C89.245 65.0123 86.9692 64.5568 90.0038 63.1919C93.0378 61.8263 98.6516 62.7365 98.6516 62.7365Z" fill="#1A2E35"/>
<path d="M98.6516 62.7365C102.444 60.612 97.286 56.8192 93.4932 56.3645C89.6997 55.909 81.9621 56.5158 75.8935 60.612C69.8243 64.7089 68.3073 72.9019 70.2797 78.8192C72.0188 84.0359 76.8197 86.6588 78.4519 89.8066C80.9159 89.3151 81.0311 87.4614 80.7485 85.3432C80.4451 83.0674 81.8108 80.6395 83.3277 80.3361C84.8447 80.0327 86.6658 78.9705 86.3624 77.6056C86.059 76.24 85.4515 74.4189 86.9692 73.0533C88.4862 71.6884 90.1552 70.1707 89.6997 67.5915C89.245 65.0123 86.9692 64.5568 90.0038 63.1919C93.0378 61.8263 98.6516 62.7365 98.6516 62.7365Z" stroke="#1A2E35" stroke-width="1.33333" stroke-miterlimit="10" stroke-linecap="round" stroke-linejoin="round"/>
<path d="M84.5416 81.7019C84.5416 81.7019 83.7828 78.5159 80.2934 78.5159C76.804 78.5159 77.7142 83.2188 78.6244 85.1912C79.5345 87.1637 81.9624 89.4395 84.3903 87.6191" fill="#FFB6B6"/>
<path d="M84.5416 81.7019C84.5416 81.7019 83.7828 78.5159 80.2934 78.5159C76.804 78.5159 77.7142 83.2188 78.6244 85.1912C79.5345 87.1637 81.9624 89.4395 84.3903 87.6191" stroke="#1A2E35" stroke-width="1.33333" stroke-miterlimit="10" stroke-linecap="round" stroke-linejoin="round"/>
<path d="M96.5496 73.2842C96.5496 73.2842 98.6574 71.6631 101.089 71.9873" stroke="#1A2E35" stroke-width="1.33333" stroke-miterlimit="10" stroke-linecap="round" stroke-linejoin="round"/>
<path d="M128.283 135.129L112.885 130.245L112.451 131.546L128.163 136.747L130.006 136.421L128.283 135.129Z" fill="white"/>
<path d="M128.283 135.129L112.885 130.245L112.451 131.546L128.163 136.747L130.006 136.421L128.283 135.129Z" stroke="#1A2E35" stroke-width="1.33333" stroke-miterlimit="10" stroke-linecap="round" stroke-linejoin="round"/>
<path d="M127.93 134.156C128.196 133.268 127.558 132.878 126.853 132.711C126.083 132.528 125.274 132.648 124.559 132.988C123.813 133.343 122.767 133.834 122.383 133.991C121.063 133.535 118.746 133.946 117.892 134.159C116.592 134.484 115.599 136.768 115.599 136.768C115.189 136.946 113.29 140.853 113.29 140.853C113.29 140.853 112.046 142.629 111.158 142.807C110.27 142.985 81.4958 148.491 81.4958 148.491C81.4958 148.491 80.0747 155.24 81.6729 158.082C83.2718 160.924 85.5809 161.812 89.4882 160.924C93.3963 160.036 114.533 148.313 114.533 148.313C114.533 148.313 116.842 147.603 118.974 146.715C119.781 146.378 120.486 145.939 121.089 145.428C121.226 145.356 121.377 145.278 121.553 145.196C122.361 144.819 124.245 143.689 124.838 142.558C125.43 141.427 125.43 140.243 125.484 139.973C125.537 139.705 126.022 139.22 126.291 138.951C126.56 138.681 126.829 138.143 126.776 137.551C126.739 137.148 126.382 136.873 126.155 136.736C126.856 136.033 127.652 135.08 127.93 134.156Z" fill="#FFB6B6"/>
<path d="M127.93 134.156C128.196 133.268 127.558 132.878 126.853 132.711C126.083 132.528 125.274 132.648 124.559 132.988C123.813 133.343 122.767 133.834 122.383 133.991C121.063 133.535 118.746 133.946 117.892 134.159C116.592 134.484 115.599 136.768 115.599 136.768C115.189 136.946 113.29 140.853 113.29 140.853C113.29 140.853 112.046 142.629 111.158 142.807C110.27 142.985 81.4958 148.491 81.4958 148.491C81.4958 148.491 80.0747 155.24 81.6729 158.082C83.2718 160.924 85.5809 161.812 89.4882 160.924C93.3963 160.036 114.533 148.313 114.533 148.313C114.533 148.313 116.842 147.603 118.974 146.715C119.781 146.378 120.486 145.939 121.089 145.428C121.226 145.356 121.377 145.278 121.553 145.196C122.361 144.819 124.245 143.689 124.838 142.558C125.43 141.427 125.43 140.243 125.484 139.973C125.537 139.705 126.022 139.22 126.291 138.951C126.56 138.681 126.829 138.143 126.776 137.551C126.739 137.148 126.382 136.873 126.155 136.736C126.856 136.033 127.652 135.08 127.93 134.156Z" stroke="#1A2E35" stroke-width="1.33333" stroke-miterlimit="10" stroke-linecap="round" stroke-linejoin="round"/>
<path d="M89.5811 146.543L92.713 146.445C92.713 146.445 93.8877 149.675 93.594 153.395C93.3003 157.114 92.6151 159.757 92.6151 159.757L87.8191 161.616L89.5811 146.543Z" fill="#407BFF"/>
<path d="M89.5811 146.543L92.713 146.445C92.713 146.445 93.8877 149.675 93.594 153.395C93.3003 157.114 92.6151 159.757 92.6151 159.757L87.8191 161.616L89.5811 146.543Z" stroke="#1A2E35" stroke-width="1.33333" stroke-miterlimit="10" stroke-linecap="round" stroke-linejoin="round"/>
<path d="M72.4887 114.092C72.4887 114.092 69.1937 118.302 68.8278 124.343C68.4613 130.384 71.9396 140.635 71.9396 142.649C71.9396 144.663 70.2921 149.971 71.0245 151.801C71.7563 153.632 73.4038 155.279 73.4038 155.279C73.4038 155.279 73.4038 161.138 78.3462 162.968C83.2887 164.799 88.1826 161.626 89.4885 160.925C90.7945 160.222 91.3436 148.324 90.4279 146.127C89.5128 143.93 88.2312 143.564 88.2312 143.564C88.2312 143.564 89.5128 141.55 88.5978 139.537L87.6821 137.523C87.6821 137.523 90.4279 130.201 88.5978 123.428" fill="#407BFF"/>
<path d="M72.4887 114.092C72.4887 114.092 69.1937 118.302 68.8278 124.343C68.4613 130.384 71.9396 140.635 71.9396 142.649C71.9396 144.663 70.2921 149.971 71.0245 151.801C71.7563 153.632 73.4038 155.279 73.4038 155.279C73.4038 155.279 73.4038 161.138 78.3462 162.968C83.2887 164.799 88.1826 161.626 89.4885 160.925C90.7945 160.222 91.3436 148.324 90.4279 146.127C89.5128 143.93 88.2312 143.564 88.2312 143.564C88.2312 143.564 89.5128 141.55 88.5978 139.537L87.6821 137.523C87.6821 137.523 90.4279 130.201 88.5978 123.428" stroke="#1A2E35" stroke-width="1.33333" stroke-miterlimit="10" stroke-linecap="round" stroke-linejoin="round"/>
<path d="M86.95 145.578C86.95 145.578 82.9225 151.253 78.1633 153.266" stroke="#1A2E35" stroke-width="1.33333" stroke-miterlimit="10" stroke-linecap="round" stroke-linejoin="round"/>
<path d="M86.0346 143.748C86.0346 143.748 82.3737 145.761 78.5295 146.128" stroke="#1A2E35" stroke-width="1.33333" stroke-miterlimit="10" stroke-linecap="round" stroke-linejoin="round"/>
<path d="M189.472 72.1042H139.395V5.20814H189.472V72.1042Z" fill="white" stroke="#1A2E35" stroke-width="1.33333" stroke-miterlimit="10" stroke-linecap="round" stroke-linejoin="round"/>
<path d="M186.761 30.8875H149.525V23.8656H186.761V30.8875Z" fill="#407BFF" stroke="#1A2E35" stroke-width="1.33333" stroke-miterlimit="10"/>
<path d="M174.469 42.9192H149.274V35.8974H174.469V42.9192Z" fill="#797979" stroke="#1A2E35" stroke-width="1.33333" stroke-miterlimit="10"/>
<path d="M179.82 54.897H149.273V47.8751H179.82V54.897Z" fill="#407BFF" stroke="#1A2E35" stroke-width="1.33333" stroke-miterlimit="10"/>
<path d="M163.383 66.8755H149.273V59.8537H163.383V66.8755Z" fill="#797979" stroke="#1A2E35" stroke-width="1.33333" stroke-miterlimit="10"/>
<path d="M145.702 20.8799V68.8545" stroke="#1A2E35" stroke-width="1.33333" stroke-miterlimit="10" stroke-linecap="round" stroke-linejoin="round"/>
<path d="M146.084 33.877H154.876" stroke="#1A2E35" stroke-width="1.33333" stroke-miterlimit="10" stroke-linecap="round" stroke-linejoin="round"/>
<path d="M146.335 45.4832H155.127" stroke="#1A2E35" stroke-width="1.33333" stroke-miterlimit="10" stroke-linecap="round" stroke-linejoin="round"/>
<path d="M146.084 57.1956H154.876" stroke="#1A2E35" stroke-width="1.33333" stroke-miterlimit="10" stroke-linecap="round" stroke-linejoin="round"/>
<path d="M181.121 13.9458H146.144V9.74064H181.121V13.9458Z" fill="#1A2E35" stroke="#1A2E35" stroke-width="1.33333" stroke-miterlimit="10" stroke-linecap="round" stroke-linejoin="round"/>
<path d="M269.239 59.3607C264.892 68.5841 253.876 72.5301 244.632 68.175C243.63 67.7029 242.69 67.1523 241.815 66.5347C234.624 61.4535 231.887 51.8109 235.762 43.5869C240.107 34.3631 251.124 30.4171 260.368 34.7731C269.613 39.1287 273.584 50.1369 269.239 59.3607Z" fill="#DBE6FC"/>
<g clip-path="url(#clip0_321_8665)">
<path d="M252.861 44.2494L259.562 47.84L258.174 48.8211L255.989 47.6506C256.103 48.2116 256.1 48.7965 255.975 49.3678L258.126 50.5203L256.738 51.5014L255.397 50.7833C254.867 51.5742 254.084 52.1627 253.177 52.4531C252.27 52.7435 251.292 52.719 250.4 52.3834L250.386 52.4102L249.917 52.1589L251.424 59.0038L249.749 58.1061L248.242 51.2612L248.96 49.9211L250.635 50.8187C251.814 51.4507 253.259 51.1038 254.031 50.0508L250.037 47.9108L251.425 46.9297L254.548 48.603C254.596 47.6112 254.086 46.6309 253.148 46.1282L251.473 45.2305L252.861 44.2494Z" fill="#5B7EFB"/>
</g>
<path d="M299.25 86.5317C299.756 92.1632 295.591 97.1394 289.947 97.6469C289.335 97.702 288.731 97.702 288.14 97.6516C283.275 97.2362 279.262 93.3898 278.811 88.3686C278.304 82.7371 282.469 77.7609 288.114 77.2537C293.758 76.7464 298.744 80.9003 299.25 86.5317Z" fill="#DBE6FC"/>
<rect width="10.1172" height="10.1175" transform="matrix(0.999277 -0.0380073 0.0380588 0.999276 283.76 82.7566)" fill="#DBE6FC"/>
<path d="M287.178 83.8922L291.391 83.732L291.001 84.5905L289.628 84.6427C289.84 84.8794 290.002 85.1601 290.103 85.4684L291.455 85.417L291.066 86.2755L290.223 86.3076C290.191 86.8348 289.981 87.3356 289.629 87.7288C289.276 88.1221 288.801 88.3846 288.281 88.4739L288.281 88.4908L287.986 88.502L290.626 91.3547L289.573 91.3947L286.933 88.5421L286.901 87.6995L287.954 87.6595C288.696 87.6313 289.29 87.0603 289.364 86.3403L286.853 86.4358L287.242 85.5772L289.205 85.5026C288.95 85.0144 288.432 84.6882 287.842 84.7107L286.789 84.7507L287.178 83.8922Z" fill="#5B7EFB"/>
<path d="M272.134 102.051C272.905 110.628 266.561 118.207 257.965 118.98C257.033 119.064 256.113 119.064 255.212 118.988C247.802 118.355 241.69 112.496 241.003 104.849C240.232 96.2717 246.575 88.6925 255.172 87.92C263.769 87.1473 271.363 93.4741 272.134 102.051Z" fill="#DBE6FC"/>
<rect width="15.4093" height="15.4098" transform="matrix(0.999277 -0.0380073 0.0380588 0.999276 248.542 96.3013)" fill="#DBE6FC"/>
<path d="M253.642 98.2439L260.057 97.9999L259.465 99.3075L257.373 99.3871C257.695 99.7475 257.943 100.175 258.096 100.645L260.155 100.566L259.563 101.874L258.279 101.923C258.23 102.726 257.911 103.489 257.374 104.087C256.837 104.686 256.114 105.086 255.321 105.222L255.322 105.248L254.873 105.265L258.893 109.61L257.289 109.671L253.269 105.326L253.22 104.043L254.824 103.982C255.953 103.939 256.858 103.069 256.97 101.973L253.147 102.118L253.739 100.81L256.729 100.697C256.341 99.9532 255.551 99.4564 254.653 99.4905L253.049 99.5515L253.642 98.2439Z" fill="#5B7EFB"/>
<defs>
<filter id="filter0_d_321_8665" x="0" y="19.8789" width="359.204" height="315.209" filterUnits="userSpaceOnUse" color-interpolation-filters="sRGB">
<feFlood flood-opacity="0" result="BackgroundImageFix"/>
<feColorMatrix in="SourceAlpha" type="matrix" values="0 0 0 0 0 0 0 0 0 0 0 0 0 0 0 0 0 0 127 0" result="hardAlpha"/>
<feOffset dy="3"/>
<feGaussianBlur stdDeviation="6"/>
<feComposite in2="hardAlpha" operator="out"/>
<feColorMatrix type="matrix" values="0 0 0 0 0.698039 0 0 0 0 0.698039 0 0 0 0 0.698039 0 0 0 0.5 0"/>
<feBlend mode="normal" in2="BackgroundImageFix" result="effect1_dropShadow_321_8665"/>
<feBlend mode="normal" in="SourceGraphic" in2="effect1_dropShadow_321_8665" result="shape"/>
</filter>
<clipPath id="clip0_321_8665">
<rect width="18.2443" height="18.2449" fill="white" transform="matrix(0.881418 0.472338 -0.472292 0.881442 248.578 39.3667)"/>
</clipPath>
</defs>
</svg>
