<svg width="316" height="300" viewBox="0 0 316 300" fill="none" xmlns="http://www.w3.org/2000/svg">
<rect x="14.1436" y="176.945" width="286.722" height="100.958" rx="12" fill="#C1CEFD"/>
<path d="M43.7441 252.459H304.6" stroke="#263238" stroke-miterlimit="10" stroke-linecap="round"/>
<path d="M143.284 16.1534H71.644V150.291H143.284V16.1534Z" fill="white" stroke="#263238" stroke-miterlimit="10" stroke-linecap="round"/>
<path d="M80.2846 30.1433C80.1017 30.1433 79.9218 30.1337 79.7437 30.1157V134.906C79.9218 134.888 80.1017 134.878 80.2846 134.878C83.1853 134.878 85.5373 137.23 85.5373 140.131C85.5373 140.625 85.4641 141.101 85.3364 141.554H130.132C130.004 141.101 129.931 140.625 129.931 140.131C129.931 137.23 132.283 134.878 135.184 134.878V30.1433C132.283 30.1433 129.931 27.7919 129.931 24.8906H85.5367C85.5373 27.7913 83.1853 30.1433 80.2846 30.1433ZM107.464 63.8749C118.149 63.8749 126.811 72.5368 126.811 83.2222C126.811 93.9075 118.149 102.569 107.464 102.569C96.7785 102.569 88.1166 93.9075 88.1166 83.2222C88.1166 72.5368 96.7791 63.8749 107.464 63.8749Z" fill="#FFB168" stroke="#263238" stroke-miterlimit="10" stroke-linecap="round"/>
<path d="M107.394 19.8955L38.4478 39.3673L74.9064 168.461L143.853 148.99L107.394 19.8955Z" fill="white" stroke="#263238" stroke-miterlimit="10" stroke-linecap="round"/>
<path d="M50.5634 50.4798C50.3877 50.5296 50.2114 50.5692 50.0356 50.6003L78.5187 151.445C78.6848 151.379 78.8557 151.321 79.0314 151.271C81.823 150.482 84.7255 152.106 85.5141 154.898C85.6484 155.373 85.7072 155.851 85.7078 156.322L128.817 144.146C128.571 143.744 128.371 143.306 128.237 142.83C127.448 140.039 129.072 137.136 131.864 136.347L103.396 35.5576C100.605 36.3462 97.7023 34.7223 96.9137 31.9307L54.1903 43.9971C54.9789 46.7893 53.3549 49.6918 50.5634 50.4798ZM85.8883 75.5542C96.1712 72.6499 106.861 78.6312 109.766 88.9141C112.67 99.1971 106.689 109.887 96.4057 112.792C86.1228 115.696 75.4327 109.715 72.5283 99.4316C69.624 89.1486 75.6054 78.4585 85.8883 75.5542Z" fill="#FFB168" stroke="#263238" stroke-miterlimit="10" stroke-linecap="round"/>
<path d="M84.855 27.6715L20.5581 59.2647L79.7128 179.653L144.01 148.06L84.855 27.6715Z" fill="white" stroke="#263238" stroke-miterlimit="10" stroke-linecap="round"/>
<path d="M34.4841 68.0087C34.3204 68.089 34.1542 68.1604 33.9863 68.2222L80.2023 162.27C80.354 162.175 80.5117 162.087 80.6755 162.006C83.2793 160.727 86.4265 161.801 87.7063 164.404C87.9239 164.848 88.0685 165.307 88.1542 165.77L128.358 146.014C128.043 145.663 127.768 145.268 127.55 144.825C126.271 142.221 127.344 139.074 129.947 137.794L83.7561 43.796C81.1528 45.0752 78.005 44.0017 76.7253 41.3985L36.8816 60.9779C38.1614 63.5811 37.0879 66.7289 34.4841 68.0087ZM73.7544 86.2957C83.3441 81.5833 94.9386 85.5371 99.6509 95.1268C104.363 104.716 100.41 116.311 90.8199 121.023C81.2302 125.736 69.6357 121.782 64.9233 112.192C60.2109 102.603 64.1647 91.0081 73.7544 86.2957Z" fill="#FFB168" stroke="#263238" stroke-miterlimit="10" stroke-linecap="round"/>
<path d="M58.034 43.8298L3.02881 89.7295L88.9708 192.72L143.976 146.821L58.034 43.8298Z" fill="white" stroke="#263238" stroke-miterlimit="10" stroke-linecap="round"/>
<path d="M18.6263 94.9327C18.486 95.0497 18.3415 95.1582 18.1934 95.2578L85.3332 175.714C85.458 175.586 85.5905 175.463 85.7308 175.346C87.9581 173.488 91.2702 173.786 93.1292 176.014C93.4459 176.393 93.6947 176.805 93.8872 177.235L128.281 148.535C127.892 148.268 127.531 147.949 127.215 147.57C125.356 145.343 125.655 142.03 127.882 140.172L60.777 59.7583C58.5497 61.6168 55.2376 61.3181 53.3786 59.0909L19.2932 87.5349C21.1522 89.7622 20.8536 93.0743 18.6263 94.9327ZM61.1062 103.418C69.31 96.5717 81.5108 97.6721 88.3563 105.877C95.2024 114.08 94.1019 126.281 85.8975 133.127C77.6937 139.973 65.493 138.872 58.6469 130.668C51.8014 122.464 52.9024 110.264 61.1062 103.418Z" fill="#FFB168" stroke="#263238" stroke-miterlimit="10" stroke-linecap="round"/>
<path d="M77.8383 113.726L53.9243 134.568L50.3238 137.706L26.4098 158.547C24.7301 160.011 23.8569 162.042 23.8029 164.098C23.5901 166.231 24.2629 168.444 25.8677 170.124L47.5808 192.849L102.87 256.287C105.379 259.165 109.745 259.465 112.623 256.957L134.737 237.683L140.83 232.373L162.944 213.099C164.46 211.779 165.253 209.942 165.305 208.08C165.507 206.227 164.973 204.3 163.653 202.785L108.363 139.346L88.8187 114.732C86.1153 111.327 81.1162 110.869 77.8383 113.726Z" fill="white" stroke="#263238" stroke-miterlimit="10"/>
<path d="M104.938 141.058L86.688 118.109C85.0299 116.024 81.9666 115.744 79.9582 117.494L29.8527 161.163C27.8443 162.914 27.7028 165.986 29.542 167.913L49.7823 189.128L104.938 141.058Z" fill="#263238" stroke="#263238" stroke-miterlimit="10"/>
<path d="M85.2853 122.944L34.2856 167.389L49.3171 184.637L100.317 140.193L85.2853 122.944Z" fill="#696969"/>
<path d="M84.9616 127.655L38.9966 167.712L49.6405 179.926L95.6054 139.869L84.9616 127.655Z" fill="#C2C2C2"/>
<path d="M88.0119 181.424L66.7732 199.933C65.5324 201.014 63.65 200.885 62.5681 199.645L59.9025 196.586C58.8213 195.345 58.9502 193.463 60.1909 192.381L81.4291 173.871C82.6699 172.79 84.5523 172.919 85.6341 174.16L88.2998 177.218C89.3816 178.459 89.2527 180.342 88.0119 181.424Z" fill="#696969" stroke="#263238" stroke-miterlimit="10"/>
<path d="M63.4336 189.721L69.9343 197.179" stroke="#263238" stroke-miterlimit="10"/>
<path d="M68.623 185.197L75.1237 192.655" stroke="#263238" stroke-miterlimit="10"/>
<path d="M73.813 180.675L80.3131 188.133" stroke="#263238" stroke-miterlimit="10"/>
<path d="M79.002 176.152L85.502 183.611" stroke="#263238" stroke-miterlimit="10"/>
<path d="M106.066 170.137L101.093 174.472C99.9378 175.478 98.1861 175.358 97.1798 174.203L95.6578 172.457C94.6515 171.302 94.7714 169.55 95.9265 168.544L100.9 164.209C102.055 163.203 103.806 163.323 104.813 164.478L106.335 166.224C107.341 167.378 107.22 169.131 106.066 170.137Z" fill="#C2C2C2" stroke="#263238" stroke-miterlimit="10"/>
<path d="M81.9925 207.358L77.0193 211.692C75.8643 212.698 74.1126 212.579 73.1063 211.424L70.6685 208.627C69.6623 207.472 69.7822 205.72 70.9372 204.714L75.9105 200.379C77.0655 199.373 78.8172 199.493 79.8235 200.648L82.2612 203.445C83.2675 204.599 83.1476 206.351 81.9925 207.358Z" fill="#C2C2C2" stroke="#263238" stroke-miterlimit="10"/>
<path d="M92.7235 198.005L87.7502 202.34C86.5952 203.346 84.8435 203.226 83.8372 202.071L81.3995 199.274C80.3932 198.119 80.5131 196.367 81.6682 195.361L86.6414 191.026C87.7964 190.02 89.5481 190.14 90.5544 191.295L92.9922 194.092C93.9985 195.246 93.8779 196.999 92.7235 198.005Z" fill="#C2C2C2" stroke="#263238" stroke-miterlimit="10"/>
<path d="M103.454 188.654L98.4812 192.988C97.3262 193.994 95.5745 193.874 94.5682 192.719L92.1305 189.922C91.1242 188.767 91.2441 187.016 92.3991 186.009L97.3724 181.675C98.5274 180.669 100.279 180.789 101.285 181.944L103.723 184.741C104.729 185.895 104.609 187.647 103.454 188.654Z" fill="#C2C2C2" stroke="#263238" stroke-miterlimit="10"/>
<path d="M114.185 179.3L109.212 183.635C108.057 184.641 106.305 184.521 105.299 183.366L102.861 180.569C101.855 179.414 101.975 177.662 103.13 176.656L108.103 172.321C109.258 171.315 111.01 171.435 112.016 172.59L114.454 175.387C115.46 176.541 115.34 178.294 114.185 179.3Z" fill="#C2C2C2" stroke="#263238" stroke-miterlimit="10"/>
<path d="M124.916 169.949L119.943 174.284C118.788 175.29 117.036 175.17 116.03 174.015L113.592 171.218C112.586 170.063 112.706 168.312 113.861 167.305L118.834 162.971C119.989 161.964 121.741 162.084 122.747 163.239L125.185 166.036C126.191 167.191 126.071 168.943 124.916 169.949Z" fill="#C2C2C2" stroke="#263238" stroke-miterlimit="10"/>
<path d="M90.1678 216.738L85.1946 221.073C84.0396 222.079 82.2879 221.959 81.2816 220.804L78.8438 218.007C77.8375 216.852 77.9575 215.101 79.1125 214.094L84.0857 209.76C85.2408 208.754 86.9925 208.873 87.9987 210.029L90.4365 212.825C91.4428 213.98 91.3228 215.732 90.1678 216.738Z" fill="#C2C2C2" stroke="#263238" stroke-miterlimit="10"/>
<path d="M100.898 207.386L95.925 211.721C94.77 212.727 93.0183 212.607 92.0121 211.452L89.5743 208.655C88.568 207.5 88.688 205.748 89.843 204.742L94.8162 200.407C95.9712 199.401 97.7229 199.521 98.7292 200.676L101.167 203.473C102.173 204.627 102.053 206.379 100.898 207.386Z" fill="#696969" stroke="#263238" stroke-miterlimit="10"/>
<path d="M111.629 198.033L106.656 202.368C105.501 203.374 103.749 203.254 102.743 202.099L100.305 199.302C99.299 198.147 99.4189 196.396 100.574 195.389L105.547 191.055C106.702 190.048 108.454 190.168 109.46 191.323L111.898 194.12C112.905 195.275 112.784 197.027 111.629 198.033Z" fill="#696969" stroke="#263238" stroke-miterlimit="10"/>
<path d="M122.36 188.682L117.387 193.016C116.232 194.023 114.48 193.903 113.474 192.748L111.036 189.951C110.03 188.796 110.15 187.044 111.305 186.038L116.278 181.703C117.433 180.697 119.185 180.817 120.191 181.972L122.629 184.769C123.636 185.923 123.515 187.676 122.36 188.682Z" fill="#696969" stroke="#263238" stroke-miterlimit="10"/>
<path d="M133.091 179.329L128.118 183.664C126.963 184.67 125.211 184.55 124.205 183.395L121.767 180.598C120.761 179.443 120.881 177.692 122.036 176.685L127.009 172.351C128.164 171.344 129.916 171.464 130.922 172.619L133.36 175.416C134.367 176.571 134.246 178.322 133.091 179.329Z" fill="#C2C2C2" stroke="#263238" stroke-miterlimit="10"/>
<path d="M98.3426 226.118L93.3694 230.453C92.2144 231.459 90.4627 231.339 89.4564 230.184L87.0186 227.387C86.0123 226.232 86.1323 224.481 87.2873 223.474L92.2606 219.14C93.4156 218.133 95.1673 218.253 96.1736 219.408L98.6113 222.205C99.6182 223.36 99.4977 225.111 98.3426 226.118Z" fill="#C2C2C2" stroke="#263238" stroke-miterlimit="10"/>
<path d="M109.074 216.767L104.101 221.101C102.946 222.108 101.194 221.988 100.188 220.833L97.7501 218.036C96.7438 216.881 96.8637 215.129 98.0187 214.123L102.992 209.788C104.147 208.782 105.899 208.902 106.905 210.057L109.343 212.854C110.349 214.009 110.229 215.761 109.074 216.767Z" fill="#696969" stroke="#263238" stroke-miterlimit="10"/>
<path d="M119.805 207.414L114.832 211.749C113.677 212.755 111.925 212.635 110.919 211.48L108.481 208.683C107.475 207.528 107.595 205.776 108.75 204.77L113.723 200.436C114.878 199.429 116.63 199.549 117.636 200.704L120.074 203.501C121.08 204.656 120.959 206.408 119.805 207.414Z" fill="#696969" stroke="#263238" stroke-miterlimit="10"/>
<path d="M130.536 198.062L125.563 202.396C124.408 203.402 122.656 203.283 121.65 202.128L119.212 199.331C118.206 198.176 118.326 196.424 119.481 195.418L124.454 191.083C125.609 190.077 127.361 190.197 128.367 191.352L130.805 194.149C131.811 195.303 131.69 197.055 130.536 198.062Z" fill="#696969" stroke="#263238" stroke-miterlimit="10"/>
<path d="M141.267 188.709L136.294 193.044C135.139 194.05 133.387 193.93 132.381 192.775L129.943 189.978C128.937 188.823 129.057 187.071 130.212 186.065L135.185 181.73C136.34 180.724 138.092 180.844 139.098 181.999L141.536 184.796C142.542 185.951 142.421 187.703 141.267 188.709Z" fill="#C2C2C2" stroke="#263238" stroke-miterlimit="10"/>
<path d="M106.518 235.499L101.545 239.834C100.39 240.84 98.6385 240.72 97.6322 239.565L95.1944 236.768C94.1881 235.613 94.3081 233.861 95.4631 232.855L100.436 228.52C101.591 227.514 103.343 227.634 104.349 228.789L106.787 231.586C107.793 232.741 107.673 234.493 106.518 235.499Z" fill="#FF9736" stroke="#263238" stroke-miterlimit="10" stroke-linecap="round"/>
<path d="M117.249 226.147L112.276 230.481C111.121 231.488 109.369 231.368 108.363 230.213L105.925 227.416C104.919 226.261 105.039 224.509 106.194 223.503L111.167 219.168C112.322 218.162 114.074 218.282 115.08 219.437L117.518 222.234C118.524 223.388 118.403 225.14 117.249 226.147Z" fill="#696969" stroke="#263238" stroke-miterlimit="10"/>
<path d="M127.98 216.794L123.007 221.129C121.852 222.135 120.1 222.015 119.094 220.86L116.656 218.063C115.65 216.908 115.769 215.156 116.925 214.15L121.898 209.816C123.053 208.809 124.804 208.929 125.811 210.084L128.249 212.881C129.255 214.036 129.135 215.788 127.98 216.794Z" fill="#696969" stroke="#263238" stroke-miterlimit="10"/>
<path d="M138.711 207.441L133.738 211.776C132.583 212.782 130.831 212.662 129.825 211.507L127.387 208.71C126.381 207.555 126.5 205.804 127.655 204.797L132.629 200.463C133.784 199.456 135.535 199.576 136.542 200.731L138.979 203.528C139.986 204.683 139.866 206.435 138.711 207.441Z" fill="#696969" stroke="#263238" stroke-miterlimit="10"/>
<path d="M114.693 244.879L109.72 249.214C108.565 250.22 106.813 250.1 105.807 248.945L103.369 246.148C102.363 244.993 102.483 243.241 103.638 242.235L108.611 237.9C109.766 236.894 111.518 237.014 112.524 238.169L114.962 240.966C115.968 242.12 115.848 243.873 114.693 244.879Z" fill="#FF9736" stroke="#263238" stroke-miterlimit="10" stroke-linecap="round"/>
<path d="M125.424 235.527L120.451 239.861C119.296 240.867 117.544 240.747 116.538 239.592L114.1 236.796C113.094 235.64 113.214 233.889 114.369 232.883L119.342 228.548C120.497 227.542 122.249 227.662 123.255 228.817L125.693 231.614C126.699 232.768 126.579 234.52 125.424 235.527Z" fill="#696969" stroke="#263238" stroke-miterlimit="10"/>
<path d="M136.155 226.174L131.182 230.509C130.027 231.515 128.275 231.395 127.269 230.24L124.831 227.443C123.825 226.288 123.945 224.536 125.1 223.53L130.073 219.195C131.228 218.189 132.98 218.309 133.986 219.464L136.424 222.261C137.43 223.416 137.31 225.168 136.155 226.174Z" fill="#696969" stroke="#263238" stroke-miterlimit="10"/>
<path d="M146.886 216.821L141.913 221.156C140.758 222.162 139.006 222.042 138 220.887L135.562 218.09C134.556 216.935 134.676 215.184 135.831 214.177L140.804 209.843C141.959 208.837 143.711 208.957 144.717 210.112L147.155 212.908C148.161 214.063 148.041 215.815 146.886 216.821Z" fill="#C2C2C2" stroke="#263238" stroke-miterlimit="10"/>
<path d="M144.062 190.498L137.684 196.057C136.917 196.725 136.837 197.889 137.505 198.655L139.206 200.607L141.168 202.858L149.343 212.238C150.011 213.005 151.174 213.085 151.941 212.416L158.32 206.857C159.087 206.189 159.166 205.026 158.498 204.259L150.323 194.879L148.36 192.628L146.66 190.677C145.992 189.91 144.829 189.83 144.062 190.498Z" fill="#C2C2C2" stroke="#263238" stroke-miterlimit="10"/>
<path d="M116.872 160.718L111.898 165.053C110.743 166.059 108.992 165.939 107.985 164.784L106.463 163.038C105.457 161.883 105.577 160.131 106.732 159.125L111.705 154.79C112.86 153.784 114.612 153.904 115.618 155.059L117.14 156.805C118.147 157.96 118.027 159.712 116.872 160.718Z" fill="#FF9736" stroke="#263238" stroke-miterlimit="10" stroke-linecap="round"/>
<path d="M110.267 163.837C109.718 163.773 109.216 163.48 108.76 162.957C108.305 162.434 108.083 161.896 108.094 161.345C108.106 160.793 108.356 160.304 108.843 159.879C109.33 159.454 109.848 159.274 110.395 159.339C110.943 159.403 111.444 159.697 111.9 160.221C112.356 160.744 112.579 161.281 112.568 161.832C112.557 162.384 112.308 162.871 111.82 163.297C111.333 163.72 110.815 163.901 110.267 163.837ZM111.972 161.874C111.954 161.473 111.764 161.065 111.404 160.652C111.044 160.239 110.666 159.996 110.271 159.923C109.876 159.849 109.509 159.96 109.17 160.255C108.83 160.552 108.669 160.901 108.688 161.302C108.707 161.703 108.897 162.11 109.256 162.524C109.616 162.937 109.995 163.18 110.39 163.253C110.786 163.326 111.153 163.214 111.492 162.919C111.831 162.624 111.992 162.276 111.972 161.874Z" fill="white"/>
<path d="M114.053 161.164C113.979 161.164 113.913 161.133 113.857 161.067L111.407 158.256C111.326 158.163 111.288 158.069 111.291 157.972C111.295 157.874 111.335 157.793 111.411 157.727C111.465 157.68 111.534 157.646 111.619 157.627C111.704 157.607 111.794 157.609 111.889 157.633L115.722 158.621L113.598 156.184C113.542 156.119 113.519 156.05 113.529 155.977C113.538 155.904 113.574 155.841 113.634 155.789C113.691 155.739 113.758 155.713 113.833 155.712C113.908 155.711 113.974 155.743 114.03 155.807L116.48 158.618C116.56 158.709 116.596 158.806 116.588 158.908C116.58 159.011 116.536 159.097 116.455 159.166C116.402 159.212 116.339 159.245 116.263 159.264C116.188 159.284 116.111 159.284 116.034 159.263L112.193 158.282L114.291 160.689C114.347 160.754 114.37 160.823 114.359 160.897C114.347 160.972 114.312 161.034 114.253 161.086C114.194 161.137 114.127 161.163 114.053 161.164Z" fill="white"/>
<path d="M76.3963 209.447C76.3141 209.456 76.2296 209.44 76.142 209.399L72.9444 207.914L75.1471 210.442C75.1927 210.495 75.2071 210.554 75.1903 210.62C75.1735 210.687 75.1357 210.746 75.077 210.797C75.0194 210.847 74.9564 210.876 74.8875 210.884C74.8185 210.893 74.7609 210.871 74.7153 210.818L72.3202 208.069C72.2422 207.98 72.2116 207.874 72.2296 207.752C72.2476 207.63 72.3034 207.528 72.3981 207.446C72.4755 207.379 72.5684 207.338 72.677 207.324C72.7855 207.31 72.9013 207.331 73.0242 207.387L76.1168 208.808L75.1315 205.551C75.0907 205.423 75.0854 205.306 75.1141 205.2C75.1429 205.095 75.1963 205.008 75.2737 204.941C75.3684 204.859 75.477 204.816 75.6011 204.815C75.7252 204.813 75.826 204.857 75.9039 204.947L78.2991 207.695C78.3447 207.748 78.3591 207.808 78.3411 207.875C78.3237 207.942 78.2859 208.001 78.2289 208.051C78.1702 208.102 78.1066 208.131 78.0382 208.139C77.9699 208.147 77.9129 208.124 77.8673 208.072L75.6647 205.544L76.6991 208.914C76.7273 209.007 76.7321 209.092 76.7117 209.173C76.6913 209.253 76.6547 209.317 76.6008 209.364C76.5468 209.41 76.4784 209.438 76.3963 209.447Z" fill="white"/>
<path d="M79.7294 206.477C79.3618 206.531 79.0092 206.481 78.6697 206.33C78.3309 206.179 78.0221 205.943 77.7426 205.623C77.5351 205.385 77.3762 205.13 77.2658 204.859C77.1555 204.587 77.0985 204.316 77.0949 204.046C77.0907 203.776 77.1495 203.509 77.2706 203.245C77.3918 202.982 77.5741 202.744 77.817 202.532C78.1174 202.271 78.4592 202.099 78.843 202.018C78.9438 201.996 79.0241 202.02 79.0853 202.089C79.1285 202.138 79.1489 202.197 79.1477 202.264C79.1459 202.33 79.1213 202.385 79.0733 202.427C79.0499 202.447 79.0188 202.463 78.9804 202.475C78.9714 202.477 78.9438 202.484 78.8982 202.495C78.8526 202.507 78.8155 202.517 78.7879 202.526C78.7603 202.535 78.7195 202.55 78.6649 202.572C78.6104 202.594 78.56 202.617 78.5138 202.642C78.4682 202.667 78.4131 202.702 78.3495 202.747C78.2859 202.791 78.2236 202.84 78.1618 202.894C78.0119 203.025 77.8955 203.167 77.814 203.32C77.7324 203.473 77.6856 203.627 77.6736 203.782C77.661 203.937 77.676 204.095 77.7168 204.258C77.7582 204.421 77.823 204.579 77.9105 204.733C77.9975 204.887 78.106 205.037 78.2338 205.184C78.3615 205.331 78.4952 205.458 78.6355 205.565C78.7753 205.672 78.9222 205.757 79.0775 205.819C79.2328 205.881 79.3876 205.916 79.5417 205.923C79.6964 205.93 79.8559 205.903 80.0208 205.84C80.1864 205.778 80.3447 205.68 80.4982 205.546C80.6355 205.427 80.7405 205.303 80.8124 205.176C80.8844 205.05 80.9516 204.9 81.0127 204.727C81.0289 204.683 81.0511 204.649 81.0787 204.624C81.1267 204.582 81.183 204.564 81.2484 204.57C81.3132 204.576 81.3666 204.603 81.4085 204.651C81.4709 204.723 81.4847 204.817 81.4505 204.933C81.339 205.327 81.1075 205.677 80.7567 205.983C80.4388 206.259 80.097 206.424 79.7294 206.477Z" fill="white"/>
<path d="M109.238 245.116L107.641 246.508L107.982 247.452C108.033 247.588 108.005 247.702 107.9 247.794C107.84 247.846 107.77 247.874 107.688 247.876C107.607 247.879 107.541 247.851 107.49 247.792C107.468 247.767 107.449 247.733 107.434 247.69L106.151 243.992C106.089 243.815 106.07 243.678 106.094 243.582C106.118 243.487 106.176 243.399 106.267 243.319C106.358 243.239 106.453 243.194 106.551 243.183C106.649 243.172 106.782 243.21 106.949 243.296L110.437 245.072C110.478 245.093 110.508 245.117 110.531 245.141C110.582 245.2 110.6 245.27 110.586 245.35C110.571 245.43 110.534 245.497 110.474 245.55C110.37 245.64 110.255 245.651 110.128 245.583L109.238 245.116ZM106.652 243.76L107.48 246.056L108.812 244.895L106.652 243.76Z" fill="white"/>
<path d="M111.671 244.172C111.303 244.225 110.95 244.176 110.612 244.025C110.273 243.873 109.964 243.638 109.685 243.318C109.477 243.08 109.318 242.825 109.208 242.553C109.097 242.281 109.04 242.011 109.037 241.74C109.033 241.47 109.091 241.203 109.213 240.94C109.334 240.676 109.517 240.438 109.759 240.227C110.06 239.965 110.402 239.794 110.786 239.712C110.886 239.69 110.967 239.713 111.027 239.783C111.07 239.833 111.091 239.891 111.09 239.957C111.088 240.025 111.063 240.079 111.015 240.121C110.992 240.141 110.961 240.157 110.923 240.169C110.914 240.171 110.887 240.178 110.841 240.189C110.795 240.2 110.758 240.211 110.731 240.22C110.703 240.229 110.662 240.244 110.607 240.266C110.553 240.287 110.502 240.311 110.456 240.336C110.41 240.361 110.356 240.396 110.292 240.441C110.228 240.485 110.166 240.534 110.104 240.588C109.954 240.719 109.838 240.861 109.756 241.014C109.675 241.167 109.628 241.321 109.616 241.476C109.604 241.631 109.619 241.79 109.66 241.953C109.701 242.115 109.765 242.273 109.853 242.427C109.941 242.581 110.049 242.731 110.177 242.879C110.305 243.026 110.438 243.153 110.579 243.259C110.718 243.367 110.865 243.451 111.02 243.514C111.175 243.576 111.33 243.61 111.485 243.617C111.639 243.624 111.799 243.597 111.964 243.535C112.129 243.472 112.288 243.375 112.441 243.241C112.579 243.121 112.684 242.997 112.756 242.871C112.827 242.744 112.894 242.594 112.956 242.421C112.972 242.377 112.994 242.342 113.022 242.318C113.07 242.276 113.126 242.259 113.192 242.264C113.256 242.27 113.31 242.297 113.352 242.345C113.413 242.416 113.428 242.51 113.394 242.627C113.282 243.021 113.051 243.372 112.7 243.677C112.38 243.954 112.038 244.119 111.671 244.172Z" fill="white"/>
<path d="M101.586 236.307C101.219 236.36 100.865 236.311 100.527 236.16C100.188 236.009 99.8795 235.773 99.6 235.453C99.3925 235.215 99.2336 234.959 99.1233 234.688C99.0129 234.416 98.9566 234.146 98.9524 233.875C98.9482 233.605 99.0069 233.338 99.1287 233.075C99.2498 232.811 99.4321 232.573 99.675 232.362C99.9748 232.1 100.317 231.929 100.701 231.847C100.801 231.825 100.882 231.848 100.943 231.918C100.986 231.968 101.007 232.026 101.005 232.092C101.003 232.159 100.979 232.213 100.931 232.255C100.907 232.276 100.877 232.292 100.838 232.303C100.829 232.306 100.802 232.312 100.756 232.324C100.71 232.335 100.673 232.345 100.646 232.354C100.618 232.363 100.577 232.379 100.522 232.401C100.468 232.422 100.417 232.446 100.371 232.471C100.325 232.496 100.27 232.531 100.207 232.576C100.143 232.62 100.081 232.669 100.019 232.723C99.8693 232.854 99.753 232.996 99.6714 233.149C99.5898 233.302 99.5431 233.456 99.5311 233.611C99.5185 233.765 99.5335 233.924 99.5748 234.087C99.6162 234.25 99.6804 234.408 99.7679 234.562C99.8555 234.716 99.9634 234.866 100.092 235.013C100.22 235.16 100.354 235.287 100.494 235.394C100.633 235.501 100.78 235.586 100.935 235.648C101.09 235.711 101.245 235.745 101.4 235.752C101.554 235.759 101.714 235.732 101.879 235.669C102.044 235.607 102.203 235.509 102.356 235.376C102.494 235.256 102.598 235.132 102.67 235.006C102.742 234.879 102.809 234.729 102.871 234.556C102.887 234.512 102.909 234.477 102.937 234.453C102.985 234.411 103.041 234.394 103.106 234.399C103.171 234.405 103.225 234.432 103.267 234.48C103.328 234.551 103.343 234.645 103.309 234.762C103.197 235.156 102.966 235.506 102.615 235.812C102.296 236.089 101.953 236.254 101.586 236.307Z" fill="white"/>
<path d="M82.8591 217.194C82.57 217.148 82.3098 216.993 82.0789 216.728C81.8552 216.472 81.7389 216.194 81.7305 215.897C81.7215 215.599 81.8378 215.345 82.0795 215.135C82.2126 215.019 82.3541 214.941 82.5035 214.902C82.6528 214.863 82.7967 214.86 82.9353 214.893C83.0732 214.927 83.2039 214.982 83.3274 215.06C83.451 215.137 83.5625 215.233 83.6621 215.348C83.887 215.606 84.0027 215.885 84.0093 216.183C84.0159 216.481 83.8978 216.734 83.6567 216.945C83.4138 217.157 83.1481 217.24 82.8591 217.194ZM83.6087 216.363C83.6225 216.239 83.6021 216.119 83.5481 216.002C83.4942 215.886 83.4162 215.769 83.3137 215.651C83.2111 215.534 83.1062 215.441 82.9988 215.372C82.8915 215.303 82.7757 215.267 82.6522 215.265C82.5287 215.262 82.4147 215.307 82.3092 215.399C82.206 215.489 82.1467 215.595 82.1335 215.717C82.1203 215.839 82.1395 215.958 82.1928 216.073C82.2462 216.189 82.3242 216.306 82.4267 216.423C82.5293 216.541 82.6342 216.634 82.7421 216.703C82.8501 216.773 82.9658 216.809 83.0894 216.813C83.2129 216.817 83.3262 216.774 83.4294 216.683C83.5355 216.593 83.5955 216.486 83.6087 216.363ZM85.0768 218.504C85.0252 218.504 84.9832 218.485 84.9502 218.448C84.9316 218.427 84.9166 218.391 84.9076 218.343L83.9247 213.555C83.9062 213.465 83.9253 213.396 83.9805 213.348C84.0165 213.317 84.0591 213.303 84.1089 213.307C84.1586 213.311 84.2 213.332 84.2324 213.369C84.254 213.394 84.2726 213.435 84.287 213.493L85.2585 218.258C85.2771 218.345 85.2609 218.411 85.2105 218.455C85.1727 218.487 85.1283 218.503 85.0768 218.504ZM86.4333 216.782C86.1424 216.735 85.8827 216.58 85.6531 216.316C85.4294 216.06 85.3142 215.782 85.3076 215.484C85.301 215.186 85.418 214.933 85.6579 214.724C85.7892 214.609 85.9295 214.532 86.0794 214.493C86.2288 214.454 86.3721 214.451 86.5088 214.484C86.6456 214.518 86.7757 214.573 86.8986 214.65C87.0222 214.728 87.1337 214.824 87.2333 214.938C87.379 215.106 87.4803 215.284 87.5379 215.473C87.5955 215.663 87.5997 215.852 87.5505 216.04C87.5013 216.229 87.3964 216.394 87.2356 216.534C86.9916 216.748 86.7241 216.83 86.4333 216.782ZM87.1805 215.951C87.1943 215.829 87.1745 215.71 87.1211 215.594C87.0677 215.479 86.9892 215.362 86.8854 215.242C86.8099 215.155 86.7325 215.082 86.6527 215.022C86.573 214.962 86.4902 214.916 86.4027 214.883C86.3157 214.85 86.227 214.842 86.137 214.857C86.0471 214.873 85.9631 214.915 85.8839 214.984C85.7784 215.076 85.719 215.183 85.7058 215.306C85.692 215.43 85.7124 215.549 85.7658 215.664C85.8198 215.779 85.8983 215.895 86.0009 216.013C86.1034 216.13 86.2078 216.224 86.3145 216.293C86.4213 216.363 86.5364 216.399 86.6605 216.402C86.7847 216.405 86.8992 216.361 87.0048 216.269C87.1085 216.18 87.1673 216.073 87.1805 215.951Z" fill="white"/>
<path d="M96.4941 208.228C96.4101 208.228 96.3418 208.198 96.2872 208.136C96.2632 208.108 96.2416 208.068 96.2237 208.016L95.0848 204.414L93.5556 205.747C93.4956 205.799 93.4333 205.822 93.3685 205.813C93.3043 205.806 93.2504 205.776 93.2054 205.725C93.1622 205.675 93.1406 205.618 93.1406 205.552C93.1406 205.487 93.1712 205.428 93.2312 205.376L95.0093 203.826C95.0932 203.753 95.1742 203.717 95.2533 203.717C95.3325 203.717 95.4015 203.751 95.4596 203.818C95.519 203.886 95.5634 203.964 95.5922 204.053L96.8006 207.84C96.8389 207.959 96.8101 208.06 96.7142 208.144C96.6512 208.199 96.5775 208.227 96.4941 208.228Z" fill="white"/>
<path d="M107.162 198.941C106.93 199.019 106.701 199.031 106.474 198.975C106.247 198.92 106.048 198.794 105.877 198.597C105.695 198.388 105.595 198.159 105.578 197.908C105.561 197.657 105.639 197.419 105.812 197.192C105.569 197.319 105.338 197.361 105.12 197.314C104.902 197.269 104.71 197.15 104.542 196.958C104.378 196.769 104.286 196.564 104.266 196.341C104.247 196.119 104.29 195.904 104.395 195.698C104.501 195.491 104.656 195.299 104.861 195.121C105.014 194.987 105.173 194.882 105.337 194.805C105.502 194.729 105.665 194.683 105.828 194.667C105.991 194.652 106.15 194.677 106.307 194.742C106.464 194.806 106.605 194.91 106.729 195.052C106.898 195.247 106.99 195.456 107.002 195.68C107.014 195.903 106.944 196.123 106.791 196.338C107.059 196.208 107.309 196.166 107.543 196.211C107.776 196.257 107.984 196.386 108.169 196.598C108.341 196.795 108.438 197.01 108.461 197.242C108.485 197.475 108.441 197.701 108.332 197.921C108.222 198.14 108.057 198.346 107.838 198.537C107.62 198.728 107.394 198.863 107.162 198.941ZM107.894 197.613C107.937 197.405 107.873 197.205 107.703 197.01C107.527 196.807 107.327 196.707 107.103 196.71C106.88 196.713 106.671 196.799 106.476 196.969C106.279 197.14 106.164 197.337 106.13 197.558C106.095 197.78 106.167 197.993 106.344 198.195C106.458 198.327 106.587 198.409 106.728 198.444C106.87 198.478 107.007 198.471 107.141 198.423C107.274 198.374 107.405 198.294 107.534 198.182C107.731 198.011 107.851 197.82 107.894 197.613ZM106.465 195.995C106.498 195.8 106.435 195.611 106.278 195.43C106.117 195.246 105.937 195.164 105.736 195.184C105.535 195.203 105.342 195.294 105.157 195.456C105.07 195.531 104.998 195.612 104.94 195.698C104.883 195.783 104.841 195.874 104.814 195.969C104.787 196.065 104.787 196.164 104.815 196.267C104.841 196.37 104.896 196.469 104.979 196.564C105.137 196.745 105.315 196.832 105.514 196.826C105.713 196.82 105.913 196.73 106.114 196.554C106.315 196.377 106.433 196.191 106.465 195.995Z" fill="white"/>
<path d="M117.234 190.046C117.153 190.068 117.081 190.045 117.021 189.975C116.975 189.922 116.95 189.859 116.944 189.786C116.939 189.713 116.96 189.656 117.006 189.616C117.023 189.601 117.047 189.589 117.076 189.579C117.357 189.498 117.592 189.375 117.783 189.209C117.886 189.118 117.969 189.024 118.032 188.927C118.094 188.831 118.137 188.735 118.161 188.642C118.184 188.548 118.189 188.45 118.177 188.346C118.164 188.242 118.139 188.143 118.103 188.046C118.067 187.95 118.015 187.847 117.946 187.735C117.877 187.623 117.804 187.517 117.726 187.417C117.648 187.317 117.558 187.208 117.454 187.089C117.526 187.246 117.529 187.438 117.465 187.666C117.4 187.893 117.266 188.094 117.065 188.269C116.745 188.545 116.405 188.669 116.045 188.639C115.685 188.611 115.368 188.44 115.096 188.127C114.817 187.806 114.689 187.456 114.713 187.074C114.737 186.692 114.919 186.353 115.258 186.058C115.44 185.899 115.627 185.786 115.817 185.716C116.007 185.647 116.188 185.619 116.359 185.633C116.531 185.648 116.703 185.694 116.876 185.775C117.05 185.855 117.21 185.955 117.358 186.076C117.505 186.197 117.651 186.339 117.793 186.503C117.911 186.638 118.016 186.767 118.109 186.891C118.203 187.015 118.295 187.155 118.385 187.311C118.476 187.466 118.547 187.615 118.6 187.756C118.653 187.898 118.689 188.051 118.707 188.214C118.726 188.377 118.719 188.534 118.687 188.683C118.655 188.832 118.59 188.985 118.493 189.142C118.395 189.298 118.265 189.449 118.101 189.592C117.857 189.806 117.568 189.957 117.234 190.046ZM117.185 187.231C117.195 186.988 117.102 186.754 116.906 186.53C116.728 186.326 116.52 186.206 116.283 186.173C116.045 186.139 115.819 186.216 115.604 186.403C115.381 186.597 115.267 186.812 115.263 187.045C115.259 187.279 115.353 187.507 115.546 187.728C115.732 187.941 115.938 188.07 116.164 188.112C116.39 188.154 116.61 188.082 116.824 187.896C117.054 187.696 117.174 187.474 117.185 187.231Z" fill="white"/>
<path d="M105.436 216.576C105.357 216.579 105.29 216.548 105.233 216.484L104.785 215.971L103.462 217.124C103.391 217.186 103.312 217.212 103.227 217.203C103.141 217.193 103.069 217.156 103.013 217.091C102.969 217.04 102.942 216.979 102.932 216.909L102.463 213.813C102.429 213.584 102.491 213.4 102.649 213.263C102.742 213.182 102.843 213.142 102.952 213.142C103.061 213.142 103.162 213.196 103.255 213.302L104.942 215.238L105.279 214.945C105.333 214.897 105.389 214.878 105.448 214.886C105.506 214.893 105.556 214.92 105.597 214.966C105.637 215.013 105.657 215.065 105.657 215.125C105.656 215.184 105.629 215.236 105.574 215.284L105.236 215.579L105.683 216.091C105.739 216.156 105.761 216.227 105.749 216.303C105.737 216.379 105.701 216.444 105.642 216.494C105.583 216.545 105.515 216.572 105.436 216.576ZM104.491 215.632L102.938 213.849L103.382 216.599L104.491 215.632Z" fill="white"/>
<path d="M115.251 208.043C115.041 208.118 114.811 208.154 114.563 208.153C114.509 208.154 114.464 208.134 114.429 208.094C114.385 208.043 114.364 207.976 114.366 207.894C114.368 207.812 114.393 207.75 114.441 207.708C114.47 207.682 114.506 207.669 114.548 207.667C114.924 207.667 115.25 207.545 115.529 207.303C115.758 207.103 115.876 206.889 115.885 206.662C115.893 206.434 115.8 206.208 115.604 205.983C115.425 205.778 115.222 205.662 114.996 205.637C114.77 205.612 114.561 205.683 114.369 205.851C114.246 205.959 114.148 206.094 114.076 206.256C114.004 206.419 113.969 206.574 113.974 206.723C113.973 206.756 113.951 206.792 113.907 206.829C113.844 206.885 113.766 206.923 113.673 206.945C113.581 206.967 113.514 206.955 113.474 206.909L112.153 205.393C112.032 205.254 112.046 205.119 112.196 204.988L113.719 203.661C113.773 203.613 113.83 203.594 113.891 203.602C113.951 203.611 114.002 203.639 114.044 203.687C114.086 203.735 114.107 203.789 114.107 203.848C114.107 203.908 114.08 203.962 114.024 204.01L112.648 205.21L113.623 206.333L113.626 206.281C113.628 206.247 113.636 206.2 113.652 206.14C113.669 206.079 113.692 206.013 113.724 205.941C113.755 205.869 113.805 205.787 113.873 205.695C113.941 205.603 114.021 205.516 114.114 205.435C114.423 205.165 114.757 205.048 115.115 205.084C115.472 205.119 115.788 205.293 116.06 205.605C116.343 205.931 116.465 206.283 116.427 206.662C116.389 207.041 116.204 207.375 115.872 207.664C115.669 207.842 115.461 207.969 115.251 208.043Z" fill="white"/>
<path d="M125.78 198.885C125.59 198.953 125.41 198.981 125.238 198.966C125.067 198.953 124.895 198.906 124.721 198.825C124.548 198.745 124.387 198.644 124.24 198.523C124.092 198.403 123.947 198.26 123.805 198.096C123.687 197.962 123.582 197.832 123.489 197.708C123.395 197.584 123.303 197.444 123.213 197.289C123.123 197.133 123.051 196.984 122.998 196.843C122.945 196.701 122.91 196.548 122.891 196.385C122.872 196.221 122.879 196.065 122.911 195.916C122.943 195.767 123.008 195.614 123.105 195.457C123.202 195.3 123.333 195.15 123.498 195.007C123.742 194.794 124.031 194.643 124.365 194.554C124.446 194.532 124.517 194.556 124.578 194.625C124.623 194.678 124.649 194.741 124.654 194.814C124.66 194.887 124.639 194.944 124.593 194.984C124.576 194.999 124.552 195.011 124.522 195.021C124.24 195.104 124.005 195.227 123.816 195.392C123.712 195.482 123.629 195.576 123.566 195.672C123.504 195.769 123.461 195.864 123.438 195.958C123.414 196.052 123.409 196.15 123.421 196.254C123.434 196.357 123.459 196.457 123.495 196.554C123.531 196.65 123.583 196.754 123.652 196.866C123.721 196.977 123.794 197.083 123.872 197.183C123.949 197.283 124.04 197.392 124.144 197.512C124.07 197.355 124.066 197.164 124.131 196.936C124.196 196.71 124.329 196.508 124.53 196.333C124.85 196.057 125.191 195.933 125.552 195.962C125.913 195.99 126.23 196.16 126.502 196.473C126.78 196.792 126.907 197.142 126.883 197.525C126.86 197.907 126.678 198.247 126.338 198.544C126.155 198.703 125.969 198.816 125.78 198.885ZM124.413 197.37C124.402 197.614 124.495 197.848 124.69 198.072C124.868 198.277 125.077 198.395 125.315 198.428C125.553 198.461 125.78 198.384 125.995 198.196C126.216 198.003 126.329 197.79 126.335 197.555C126.34 197.321 126.247 197.093 126.053 196.872C125.868 196.658 125.661 196.53 125.435 196.488C125.208 196.445 124.988 196.517 124.775 196.703C124.545 196.904 124.424 197.127 124.413 197.37Z" fill="white"/>
<path d="M113.382 226.557C113.303 226.558 113.232 226.524 113.172 226.454L110.9 223.847L110.68 224.607C110.666 224.65 110.643 224.685 110.612 224.712C110.566 224.752 110.51 224.77 110.448 224.764C110.385 224.76 110.334 224.734 110.293 224.687C110.245 224.632 110.233 224.565 110.254 224.484L110.617 223.293C110.631 223.241 110.664 223.191 110.714 223.148C110.777 223.094 110.846 223.068 110.923 223.07C111 223.073 111.07 223.11 111.133 223.183L113.636 226.05C113.697 226.119 113.721 226.194 113.708 226.273C113.695 226.352 113.657 226.419 113.593 226.475C113.532 226.528 113.462 226.556 113.382 226.557Z" fill="white"/>
<path d="M123.431 214.56C123.486 214.795 123.495 215.088 123.456 215.441L123.296 217.399L124.693 216.181C124.75 216.131 124.81 216.109 124.873 216.116C124.935 216.122 124.988 216.15 125.029 216.198C125.071 216.246 125.091 216.301 125.089 216.364C125.086 216.428 125.057 216.484 125 216.534L123.403 217.926C123.312 218.005 123.218 218.047 123.123 218.049C123.028 218.052 122.95 218.02 122.891 217.951C122.822 217.872 122.793 217.765 122.802 217.629L122.942 215.354C122.956 215.116 122.945 214.918 122.91 214.759C122.875 214.601 122.811 214.467 122.716 214.359C122.557 214.176 122.369 214.08 122.153 214.071C121.937 214.062 121.743 214.132 121.572 214.282C121.47 214.371 121.383 214.463 121.311 214.558C121.241 214.653 121.193 214.724 121.17 214.771C121.148 214.818 121.119 214.894 121.083 214.999C121.049 215.105 121.028 215.167 121.02 215.187C121.008 215.216 120.99 215.241 120.967 215.262C120.919 215.304 120.859 215.321 120.787 215.315C120.714 215.309 120.656 215.281 120.613 215.231C120.562 215.172 120.55 215.098 120.579 215.009C120.65 214.782 120.736 214.584 120.833 214.413C120.931 214.242 121.082 214.067 121.286 213.89C121.576 213.636 121.898 213.516 122.247 213.529C122.598 213.542 122.887 213.679 123.113 213.939C123.271 214.118 123.376 214.325 123.431 214.56Z" fill="white"/>
<path d="M133.662 208.769C133.545 208.798 133.454 208.775 133.389 208.701C133.345 208.65 133.323 208.589 133.326 208.519C133.327 208.45 133.352 208.394 133.401 208.352C133.416 208.339 133.439 208.326 133.468 208.313C133.779 208.223 134.036 208.088 134.24 207.91C134.446 207.731 134.571 207.538 134.615 207.33C134.659 207.123 134.605 206.932 134.453 206.757C134.276 206.554 134.061 206.456 133.81 206.464C133.557 206.471 133.317 206.575 133.09 206.772L132.92 206.92C132.868 206.966 132.813 206.985 132.756 206.978C132.699 206.97 132.65 206.943 132.61 206.897C132.568 206.849 132.547 206.795 132.546 206.736C132.545 206.677 132.571 206.624 132.623 206.579L132.773 206.447C132.99 206.259 133.121 206.058 133.166 205.845C133.211 205.633 133.152 205.433 132.989 205.246C132.842 205.078 132.668 204.999 132.469 205.01C132.268 205.021 132.082 205.102 131.909 205.253C131.667 205.463 131.487 205.713 131.368 206.001C131.36 206.022 131.344 206.043 131.323 206.061C131.277 206.101 131.216 206.115 131.142 206.103C131.068 206.089 131.008 206.056 130.962 206.004C130.91 205.944 130.896 205.877 130.922 205.803C130.955 205.695 131.035 205.547 131.161 205.359C131.287 205.171 131.43 205.009 131.588 204.871C131.79 204.695 131.999 204.568 132.214 204.492C132.429 204.417 132.646 204.406 132.866 204.458C133.085 204.51 133.28 204.633 133.45 204.828C133.612 205.014 133.696 205.214 133.702 205.429C133.707 205.643 133.65 205.851 133.53 206.054C133.771 205.931 134.015 205.895 134.262 205.947C134.509 205.999 134.727 206.133 134.915 206.35C135.052 206.507 135.142 206.673 135.186 206.85C135.23 207.027 135.23 207.198 135.185 207.365C135.141 207.532 135.068 207.691 134.968 207.842C134.867 207.994 134.741 208.136 134.589 208.268C134.291 208.527 133.982 208.694 133.662 208.769Z" fill="white"/>
<path d="M120.782 236.008C120.59 236.065 120.405 236.079 120.228 236.05C120.051 236.02 119.87 235.954 119.684 235.852C119.498 235.75 119.325 235.629 119.167 235.49C119.008 235.351 118.846 235.188 118.683 235.001C117.689 233.86 117.582 232.951 118.36 232.273C119.137 231.596 120.022 231.827 121.016 232.968C121.178 233.154 121.317 233.334 121.433 233.511C121.55 233.686 121.646 233.873 121.722 234.072C121.798 234.27 121.839 234.458 121.844 234.638C121.848 234.817 121.81 234.999 121.728 235.182C121.645 235.366 121.515 235.535 121.337 235.689C121.159 235.845 120.975 235.951 120.782 236.008ZM121.201 235.067C121.244 234.977 121.268 234.887 121.272 234.797C121.277 234.707 121.265 234.611 121.236 234.507C121.207 234.404 121.171 234.307 121.126 234.215C121.082 234.124 121.024 234.026 120.954 233.922C120.884 233.818 120.817 233.725 120.753 233.644C120.689 233.563 120.617 233.476 120.537 233.385C120.453 233.289 120.374 233.202 120.299 233.124C120.225 233.047 120.14 232.966 120.046 232.883C119.952 232.801 119.863 232.73 119.778 232.674C119.694 232.617 119.602 232.569 119.506 232.528C119.409 232.487 119.316 232.463 119.227 232.456C119.138 232.449 119.047 232.462 118.954 232.492C118.861 232.523 118.772 232.576 118.687 232.65C118.602 232.724 118.537 232.805 118.494 232.892C118.451 232.981 118.427 233.068 118.422 233.156C118.416 233.244 118.426 233.338 118.453 233.441C118.48 233.542 118.516 233.64 118.561 233.73C118.606 233.821 118.664 233.919 118.734 234.025C118.804 234.13 118.872 234.225 118.939 234.309C119.006 234.394 119.081 234.485 119.165 234.581C119.244 234.672 119.321 234.756 119.393 234.831C119.466 234.906 119.549 234.986 119.642 235.069C119.735 235.153 119.824 235.223 119.909 235.28C119.993 235.336 120.085 235.386 120.184 235.428C120.282 235.471 120.375 235.496 120.463 235.503C120.551 235.511 120.643 235.5 120.738 235.47C120.833 235.44 120.924 235.388 121.009 235.314C121.095 235.24 121.159 235.157 121.201 235.067Z" fill="white"/>
<path d="M130.626 225.546C130.424 225.532 130.258 225.451 130.129 225.302C130.005 225.16 129.95 224.989 129.964 224.787C129.978 224.585 130.073 224.407 130.248 224.254C130.42 224.104 130.607 224.035 130.81 224.045C131.012 224.056 131.177 224.134 131.303 224.279C131.433 224.427 131.49 224.603 131.476 224.805C131.463 225.007 131.368 225.184 131.192 225.337C131.017 225.49 130.828 225.56 130.626 225.546Z" fill="white"/>
<path d="M118.146 167.871C117.949 167.857 117.788 167.778 117.662 167.634C117.541 167.496 117.488 167.329 117.502 167.132C117.515 166.935 117.607 166.763 117.778 166.614C117.945 166.468 118.128 166.4 118.325 166.41C118.522 166.421 118.682 166.497 118.805 166.638C118.931 166.782 118.987 166.953 118.973 167.149C118.959 167.346 118.868 167.519 118.697 167.667C118.526 167.816 118.342 167.885 118.146 167.871Z" fill="white"/>
<path d="M120.836 170.958C120.639 170.945 120.478 170.866 120.352 170.722C120.232 170.584 120.178 170.416 120.192 170.22C120.206 170.023 120.298 169.85 120.469 169.701C120.636 169.556 120.818 169.487 121.015 169.498C121.212 169.508 121.372 169.585 121.495 169.725C121.621 169.87 121.677 170.04 121.663 170.237C121.649 170.434 121.558 170.606 121.387 170.755C121.216 170.904 121.033 170.972 120.836 170.958Z" fill="white"/>
<path d="M139.361 216.781C139.258 216.775 139.174 216.736 139.11 216.662C139.038 216.579 139.008 216.486 139.022 216.384C139.036 216.283 139.086 216.194 139.172 216.119L142.464 213.25C142.548 213.176 142.642 213.14 142.746 213.139C142.849 213.137 142.937 213.179 143.01 213.262C143.078 213.341 143.106 213.432 143.092 213.536C143.077 213.639 143.029 213.728 142.945 213.801L139.633 216.687C139.556 216.756 139.465 216.788 139.361 216.781ZM140.686 218.3C140.583 218.296 140.5 218.257 140.436 218.183C140.365 218.102 140.337 218.011 140.35 217.907C140.363 217.805 140.412 217.716 140.499 217.641L143.802 214.761C143.883 214.691 143.974 214.656 144.076 214.657C144.177 214.658 144.264 214.7 144.337 214.784C144.406 214.863 144.433 214.953 144.419 215.054C144.405 215.156 144.356 215.243 144.272 215.316L140.957 218.205C140.878 218.273 140.787 218.305 140.686 218.3Z" fill="white"/>
<path d="M127.822 178.667L127.981 180.718C127.988 180.834 127.957 180.923 127.886 180.984C127.832 181.031 127.767 181.053 127.692 181.05C127.616 181.046 127.555 181.018 127.51 180.965C127.471 180.92 127.449 180.864 127.445 180.797L127.301 178.55L125.18 178.075C125.13 178.066 125.09 178.042 125.055 178.004C125.006 177.947 124.985 177.873 124.993 177.784C125.001 177.696 125.037 177.624 125.099 177.57C125.168 177.51 125.257 177.491 125.364 177.515L127.298 177.949L127.151 175.966C127.143 175.848 127.176 175.756 127.251 175.691C127.304 175.645 127.364 175.624 127.433 175.626C127.502 175.629 127.558 175.655 127.601 175.705C127.638 175.747 127.658 175.798 127.663 175.859L127.832 178.069L130.003 178.558C130.064 178.572 130.113 178.6 130.147 178.64C130.197 178.697 130.215 178.768 130.202 178.852C130.188 178.936 130.151 179.005 130.09 179.058C130.018 179.121 129.933 179.141 129.837 179.119L127.822 178.667Z" fill="white"/>
<path d="M150.227 204.528C150.111 204.517 150.011 204.463 149.926 204.366L148.588 202.831L146.992 204.223C146.897 204.305 146.788 204.346 146.666 204.346C146.544 204.346 146.443 204.301 146.362 204.209C146.28 204.114 146.247 204.009 146.263 203.894C146.28 203.778 146.338 203.676 146.439 203.588L148.036 202.196L146.687 200.649C146.604 200.554 146.565 200.447 146.567 200.328C146.569 200.208 146.619 200.106 146.717 200.021C146.812 199.939 146.918 199.903 147.037 199.914C147.156 199.925 147.258 199.979 147.343 200.077L148.692 201.625L150.293 200.229C150.388 200.147 150.495 200.104 150.615 200.101C150.734 200.098 150.836 200.144 150.918 200.238C150.997 200.33 151.03 200.436 151.015 200.556C151 200.676 150.943 200.778 150.846 200.863L149.245 202.259L150.582 203.793C150.662 203.885 150.7 203.991 150.696 204.112C150.692 204.232 150.642 204.334 150.548 204.416C150.451 204.502 150.343 204.539 150.227 204.528Z" fill="white"/>
<path d="M92.2297 227.504C92.1451 227.496 92.072 227.456 92.0102 227.385L91.0369 226.269L89.8753 227.281C89.8063 227.341 89.7272 227.371 89.6384 227.371C89.5497 227.371 89.4759 227.338 89.4177 227.271C89.3578 227.202 89.3338 227.126 89.3458 227.041C89.3578 226.957 89.3997 226.883 89.4729 226.819L90.6345 225.807L89.6528 224.681C89.5928 224.612 89.5635 224.534 89.5659 224.447C89.5677 224.36 89.6042 224.286 89.675 224.224C89.744 224.164 89.8213 224.138 89.9077 224.146C89.994 224.154 90.0684 224.193 90.1302 224.265L91.1113 225.391L92.2759 224.376C92.3448 224.316 92.4228 224.284 92.5104 224.283C92.5973 224.28 92.6711 224.314 92.7304 224.383C92.7886 224.449 92.8126 224.527 92.8012 224.614C92.7904 224.701 92.749 224.776 92.6783 224.837L91.5131 225.853L92.4864 226.969C92.5445 227.036 92.5721 227.113 92.5691 227.201C92.5661 227.288 92.5301 227.363 92.4612 227.423C92.3916 227.485 92.3143 227.512 92.2297 227.504Z" fill="white"/>
<path d="M134.191 189.267C134.114 189.273 134.053 189.252 134.01 189.202C133.968 189.154 133.956 189.092 133.972 189.015C133.989 188.937 134.04 188.862 134.125 188.788L137.311 186.011C137.397 185.936 137.479 185.897 137.557 185.891C137.636 185.886 137.697 185.908 137.739 185.956C137.781 186.004 137.794 186.066 137.776 186.142C137.759 186.218 137.707 186.294 137.622 186.368L134.436 189.145C134.351 189.219 134.269 189.26 134.191 189.267Z" fill="white"/>
<path d="M95.1189 226.095C95.0565 226.089 95.0038 226.06 94.9606 226.011C94.9186 225.963 94.8988 225.907 94.8994 225.843C94.9006 225.78 94.93 225.723 94.9876 225.673L97.1405 223.797C97.1981 223.747 97.2592 223.726 97.3222 223.734C97.3864 223.743 97.4385 223.771 97.4805 223.819C97.5225 223.867 97.5429 223.923 97.5405 223.985C97.5387 224.048 97.5093 224.104 97.4511 224.155L95.2982 226.03C95.2419 226.08 95.1819 226.102 95.1189 226.095Z" fill="white"/>
<path d="M94.4388 227.817C94.4118 227.918 94.3656 227.975 94.3009 227.987C94.2385 227.999 94.1749 227.963 94.1108 227.881C94.0466 227.797 93.9986 227.673 93.9662 227.508L92.7603 221.329C92.7279 221.163 92.7267 221.03 92.7555 220.928C92.7848 220.827 92.831 220.77 92.8934 220.758C92.9558 220.746 93.0187 220.782 93.0823 220.865C93.1459 220.948 93.1932 221.072 93.2256 221.238L94.4316 227.417C94.4634 227.583 94.4664 227.716 94.4388 227.817Z" fill="white"/>
<path d="M117.822 170.485C117.745 170.492 117.684 170.471 117.64 170.421C117.598 170.373 117.586 170.311 117.603 170.233C117.619 170.156 117.67 170.081 117.756 170.006L120.942 167.229C121.027 167.155 121.11 167.115 121.188 167.11C121.267 167.105 121.328 167.126 121.37 167.174C121.412 167.222 121.424 167.284 121.407 167.361C121.39 167.437 121.339 167.512 121.254 167.587L118.067 170.364C117.982 170.438 117.9 170.478 117.822 170.485Z" fill="white"/>
<path d="M87.2415 199.995C87.1593 200.004 87.0748 199.988 86.9872 199.947L83.7897 198.461L85.9923 200.989C86.0379 201.042 86.0523 201.101 86.0355 201.168C86.0187 201.234 85.9809 201.293 85.9222 201.344C85.8646 201.394 85.8016 201.423 85.7327 201.432C85.6637 201.44 85.6061 201.418 85.5606 201.365L83.1654 198.617C83.0874 198.527 83.0568 198.421 83.0748 198.3C83.0928 198.178 83.1486 198.076 83.2433 197.994C83.3207 197.927 83.4137 197.885 83.5222 197.871C83.6307 197.857 83.7465 197.878 83.8694 197.934L86.962 199.356L85.9767 196.098C85.936 195.97 85.9306 195.853 85.9594 195.748C85.9881 195.642 86.0421 195.555 86.1189 195.488C86.2136 195.406 86.3222 195.363 86.4463 195.362C86.5704 195.36 86.6712 195.405 86.7491 195.494L89.1443 198.243C89.1899 198.295 89.2043 198.355 89.1863 198.422C89.1689 198.49 89.1311 198.548 89.0742 198.598C89.0154 198.65 88.9518 198.679 88.8835 198.687C88.8151 198.695 88.7581 198.672 88.7125 198.62L86.5099 196.092L87.5443 199.462C87.5725 199.555 87.5773 199.64 87.5569 199.721C87.5365 199.801 87.5 199.865 87.446 199.912C87.392 199.958 87.3237 199.986 87.2415 199.995Z" fill="white"/>
<path d="M90.1639 197.586C90.0847 197.588 90.0139 197.553 89.9516 197.481L87.455 194.617C87.3999 194.554 87.3759 194.48 87.3831 194.397C87.3903 194.313 87.4263 194.242 87.4916 194.185L88.4991 193.308C88.6262 193.197 88.748 193.102 88.8655 193.023C88.9831 192.944 89.1114 192.876 89.2505 192.82C89.3897 192.764 89.5216 192.734 89.6463 192.731C89.7711 192.727 89.9006 192.756 90.0343 192.818C90.1681 192.879 90.2934 192.977 90.4091 193.11C90.5764 193.302 90.6604 193.516 90.6598 193.753C90.6598 193.99 90.5627 194.232 90.3684 194.477L90.3761 194.486C90.8085 194.248 91.2307 194.317 91.6427 194.693L92.3617 195.349C92.3695 195.355 92.3803 195.365 92.3923 195.379C92.4463 195.441 92.4685 195.51 92.4589 195.587C92.4493 195.664 92.4145 195.728 92.3539 195.781C92.2922 195.835 92.2202 195.865 92.1381 195.873C92.0565 195.881 91.9827 195.854 91.9192 195.793L91.2829 195.208C91.145 195.081 91.0304 194.987 90.9399 194.927C90.8493 194.867 90.757 194.831 90.6622 194.822C90.5681 194.812 90.4763 194.83 90.3881 194.875C90.3 194.921 90.1938 194.997 90.0697 195.105L89.2943 195.781L90.4211 197.074C90.4829 197.145 90.5075 197.221 90.4937 197.3C90.4805 197.38 90.4415 197.448 90.3786 197.503C90.315 197.557 90.243 197.585 90.1639 197.586ZM89.6559 194.831C89.7471 194.752 89.825 194.677 89.8892 194.607C89.954 194.538 90.0133 194.458 90.0673 194.371C90.1213 194.283 90.1555 194.197 90.1687 194.115C90.1824 194.032 90.1747 193.943 90.1453 193.847C90.1165 193.751 90.0607 193.656 89.978 193.562C89.9108 193.484 89.8412 193.426 89.7687 193.385C89.6961 193.344 89.6247 193.324 89.5534 193.323C89.4826 193.323 89.4148 193.33 89.3513 193.347C89.2877 193.362 89.2199 193.393 89.1474 193.438C89.0748 193.484 89.0136 193.526 88.9627 193.564C88.9123 193.603 88.8535 193.651 88.787 193.709L88.0487 194.353L88.9795 195.421L89.6559 194.831Z" fill="white"/>
<path d="M98.0872 190.543C98.0051 190.552 97.9205 190.536 97.8329 190.495L94.6354 189.009L96.838 191.537C96.8836 191.59 96.898 191.649 96.8812 191.716C96.8644 191.782 96.8266 191.841 96.7679 191.892C96.7103 191.943 96.6473 191.971 96.5784 191.98C96.5094 191.988 96.4518 191.966 96.4063 191.913L94.0111 189.165C93.9331 189.075 93.9025 188.969 93.9205 188.847C93.9385 188.726 93.9943 188.624 94.089 188.542C94.1664 188.474 94.2594 188.433 94.3679 188.419C94.4764 188.405 94.5922 188.426 94.7151 188.482L97.8078 189.904L96.8225 186.646C96.7817 186.518 96.7757 186.401 96.8051 186.296C96.8339 186.19 96.8872 186.103 96.9646 186.036C97.0593 185.954 97.1685 185.911 97.292 185.91C97.4162 185.908 97.5169 185.953 97.5949 186.042L99.99 188.79C100.036 188.843 100.05 188.903 100.033 188.97C100.015 189.037 99.9774 189.096 99.9205 189.146C99.8617 189.197 99.7981 189.227 99.7298 189.234C99.6614 189.242 99.6044 189.219 99.5589 189.167L97.3562 186.639L98.3907 190.009C98.4188 190.101 98.4236 190.187 98.4032 190.268C98.3829 190.348 98.3463 190.411 98.2923 190.458C98.2377 190.506 98.1694 190.534 98.0872 190.543Z" fill="white"/>
<path d="M99.7585 187.378C99.6985 187.38 99.6476 187.357 99.6074 187.311C99.5642 187.261 99.5462 187.206 99.554 187.146C99.5618 187.086 99.5936 187.032 99.6494 186.984L100.682 186.084C100.738 186.035 100.796 186.011 100.856 186.012C100.917 186.012 100.968 186.037 101.011 186.087C101.051 186.133 101.067 186.186 101.058 186.246C101.048 186.306 101.017 186.359 100.963 186.406L99.9306 187.306C99.8766 187.354 99.8191 187.378 99.7585 187.378Z" fill="white"/>
<path d="M108.933 181.09C108.851 181.099 108.766 181.083 108.679 181.042L105.481 179.557L107.684 182.085C107.73 182.137 107.744 182.197 107.727 182.263C107.71 182.33 107.673 182.389 107.614 182.44C107.556 182.49 107.493 182.519 107.424 182.527C107.355 182.536 107.298 182.513 107.252 182.461L104.857 179.712C104.779 179.623 104.749 179.517 104.767 179.395C104.784 179.273 104.84 179.171 104.935 179.089C105.012 179.022 105.105 178.981 105.214 178.967C105.322 178.953 105.438 178.973 105.561 179.03L108.654 180.451L107.668 177.194C107.628 177.066 107.622 176.949 107.651 176.843C107.68 176.738 107.733 176.651 107.811 176.584C107.905 176.502 108.014 176.459 108.138 176.458C108.262 176.456 108.363 176.5 108.441 176.59L110.836 179.338C110.882 179.391 110.896 179.451 110.878 179.518C110.861 179.585 110.823 179.644 110.766 179.694C110.707 179.745 110.643 179.775 110.575 179.782C110.507 179.79 110.45 179.767 110.404 179.715L108.202 177.188L109.236 180.558C109.264 180.65 109.269 180.736 109.249 180.816C109.228 180.897 109.192 180.96 109.138 181.007C109.083 181.054 109.015 181.081 108.933 181.09Z" fill="white"/>
<path d="M112.799 177.863C112.738 177.857 112.686 177.829 112.641 177.777L111.941 176.974L111.106 177.702C111.057 177.746 111 177.767 110.936 177.767C110.872 177.767 110.819 177.743 110.777 177.695C110.734 177.646 110.717 177.59 110.725 177.53C110.734 177.47 110.764 177.416 110.817 177.371L111.652 176.643L110.946 175.833C110.903 175.783 110.882 175.727 110.884 175.665C110.885 175.602 110.912 175.549 110.963 175.504C111.012 175.461 111.068 175.442 111.13 175.448C111.192 175.454 111.246 175.482 111.29 175.533L111.996 176.344L112.834 175.613C112.883 175.57 112.939 175.548 113.002 175.546C113.065 175.544 113.118 175.568 113.161 175.618C113.203 175.666 113.22 175.722 113.212 175.784C113.204 175.847 113.174 175.9 113.123 175.945L112.286 176.675L112.985 177.478C113.027 177.526 113.047 177.582 113.045 177.645C113.043 177.708 113.017 177.761 112.967 177.804C112.915 177.849 112.86 177.869 112.799 177.863Z" fill="white"/>
<path d="M99.2969 170.49L102.175 171.104L101.334 167.154L102.813 165.864" stroke="white" stroke-miterlimit="10"/>
<path d="M246.347 95.0908H120.061V268.901H246.347V95.0908Z" fill="white" stroke="#263238" stroke-miterlimit="10" stroke-linecap="round"/>
<path d="M196.836 95.0908H120.061V145.547H196.836V95.0908Z" fill="#263238" stroke="#263238" stroke-miterlimit="10" stroke-linecap="round"/>
<path d="M134.16 133.036V107.38H129.439V103.391H144.225V107.38H139.577V133.036H134.16Z" fill="white"/>
<path d="M144.702 133.036L150.631 103.391H156.414L162.343 133.036H157.329L156.158 126.192H150.997L149.789 133.036H144.702ZM151.545 122.752H155.571L153.559 110.307L151.545 122.752Z" fill="white"/>
<path d="M163.293 133.036L169.26 117.299L163.477 103.391H168.528L172.37 112.577L175.738 103.391H180.422L174.713 118.324L180.861 133.036H175.811L171.602 123.082L167.942 133.036H163.293Z" fill="white"/>
<path d="M228.368 165.545H239.368" stroke="#263238" stroke-miterlimit="10" stroke-linecap="round"/>
<path d="M211.325 165.545H226.535" stroke="#263238" stroke-miterlimit="10" stroke-linecap="round"/>
<path d="M179.804 165.545H208.759" stroke="#263238" stroke-miterlimit="10" stroke-linecap="round"/>
<path d="M138.205 165.545H177.971" stroke="#263238" stroke-miterlimit="10" stroke-linecap="round"/>
<path d="M127.704 165.545H136.006" stroke="#263238" stroke-miterlimit="10" stroke-linecap="round"/>
<path d="M214.624 173.853H239.368" stroke="#263238" stroke-miterlimit="10" stroke-linecap="round"/>
<path d="M168.809 173.853H212.424" stroke="#263238" stroke-miterlimit="10" stroke-linecap="round"/>
<path d="M148.1 173.853H165.876" stroke="#263238" stroke-miterlimit="10" stroke-linecap="round"/>
<path d="M127.704 173.853H145.168" stroke="#263238" stroke-miterlimit="10" stroke-linecap="round"/>
<path d="M185.852 182.162H239.368" stroke="#263238" stroke-miterlimit="10" stroke-linecap="round"/>
<path d="M165.327 182.162H183.204" stroke="#263238" stroke-miterlimit="10" stroke-linecap="round"/>
<path d="M139.074 182.162H163.677" stroke="#263238" stroke-miterlimit="10" stroke-linecap="round"/>
<path d="M127.704 182.162H137.471" stroke="#263238" stroke-miterlimit="10" stroke-linecap="round"/>
<path d="M238.704 188.808H127.04V260.592H238.704V188.808Z" stroke="#263238" stroke-miterlimit="10" stroke-linecap="round"/>
<path d="M157.08 202.435H238.371" stroke="#263238" stroke-miterlimit="10" stroke-linecap="round"/>
<path d="M127.372 202.435H154.331" stroke="#263238" stroke-miterlimit="10" stroke-linecap="round"/>
<path d="M127.372 212.071H238.371" stroke="#263238" stroke-miterlimit="10" stroke-linecap="round"/>
<path d="M223.603 221.709H238.371" stroke="#263238" stroke-miterlimit="10" stroke-linecap="round"/>
<path d="M127.372 221.709H222.32" stroke="#263238" stroke-miterlimit="10" stroke-linecap="round"/>
<path d="M172.84 231.348H238.371" stroke="#263238" stroke-miterlimit="10" stroke-linecap="round"/>
<path d="M127.372 231.348H171.191" stroke="#263238" stroke-miterlimit="10" stroke-linecap="round"/>
<path d="M154.331 240.984H238.371" stroke="#263238" stroke-miterlimit="10" stroke-linecap="round"/>
<path d="M127.372 240.984H150.849" stroke="#263238" stroke-miterlimit="10" stroke-linecap="round"/>
<path d="M174.856 250.622H238.371" stroke="#263238" stroke-miterlimit="10" stroke-linecap="round"/>
<path d="M127.372 250.622H172.657" stroke="#263238" stroke-miterlimit="10" stroke-linecap="round"/>
<path d="M214.111 248.484V260.259" stroke="#263238" stroke-miterlimit="10" stroke-linecap="round"/>
<path d="M214.111 197.539V246.469" stroke="#263238" stroke-miterlimit="10" stroke-linecap="round"/>
<path d="M214.111 189.474V194.424" stroke="#263238" stroke-miterlimit="10" stroke-linecap="round"/>
<path d="M243.619 269.889L241.46 271.489C241.46 271.489 237.702 273.008 237.142 273.327C236.583 273.647 235.623 273.727 235.863 274.447C236.103 275.167 237.702 275.167 239.621 275.327C241.54 275.487 242.099 275.327 244.178 275.007C246.257 274.688 247.856 275.247 248.656 274.847C249.455 274.447 249.535 274.847 249.695 273.888C249.855 272.928 249.855 271.649 249.855 271.649L243.619 269.889Z" fill="white" stroke="#263238" stroke-miterlimit="10" stroke-linecap="round"/>
<path d="M248.656 274.847C249.456 274.447 249.536 274.847 249.696 273.887C249.745 273.593 249.778 273.268 249.802 272.96C249.01 273.291 247.61 273.808 246.577 273.808C245.058 273.808 244.418 274.208 240.901 274.447C238.841 274.588 237.005 274.372 235.833 274.169C235.821 274.25 235.828 274.341 235.864 274.447C236.104 275.167 237.703 275.167 239.621 275.327C241.54 275.487 242.1 275.327 244.179 275.008C246.258 274.687 247.857 275.247 248.656 274.847Z" fill="white" stroke="#263238" stroke-miterlimit="10" stroke-linecap="round"/>
<path d="M281.598 269.89C281.598 269.89 281.119 271.01 280.719 271.969C280.319 272.929 278.799 274.928 278.56 275.487C278.32 276.047 278.72 276.607 279.839 276.687C280.958 276.766 282.877 276.607 283.197 276.526C283.517 276.447 287.035 272.289 287.195 269.81C287.355 267.331 285.135 267.435 285.135 267.435L281.598 269.89Z" fill="white" stroke="#263238" stroke-miterlimit="10" stroke-linecap="round"/>
<path d="M287.195 269.81C287.223 269.374 287.175 269.021 287.081 268.73C287.051 268.836 287.022 268.947 287 269.066C286.867 269.765 285.036 273.226 284.337 274.391C283.638 275.555 283.039 275.888 281.575 276.021C280.394 276.129 278.996 275.825 278.5 275.703C278.437 276.183 278.865 276.616 279.839 276.686C280.959 276.766 282.877 276.606 283.198 276.526C283.517 276.447 287.035 272.289 287.195 269.81Z" fill="white" stroke="#263238" stroke-miterlimit="10" stroke-linecap="round"/>
<path d="M254.573 220.957L254.413 226.634C254.413 226.634 244.418 248.781 244.178 250.061C243.938 251.34 245.538 269.25 245.538 269.25H243.059L242.979 270.21L249.856 272.129C249.856 272.129 251.135 264.373 251.215 263.893C251.295 263.413 252.654 249.741 252.654 249.741L262.329 236.708C262.329 236.708 267.207 252.22 267.446 252.3C267.686 252.38 281.119 268.771 281.119 268.771L280.719 269.491C280.719 269.491 280.559 270.131 281.438 270.61C282.318 271.09 283.038 271.41 283.917 270.531C284.797 269.651 285.721 268.448 285.801 267.569C285.881 266.69 285.036 265.334 284.397 264.134C283.757 262.935 282.558 261.016 282.558 261.016L275.122 248.063L274.002 226.795L273.683 222.797L254.573 220.957Z" fill="#263238" stroke="#263238" stroke-miterlimit="10" stroke-linecap="round"/>
<path d="M246.421 193.354C246.421 193.354 245.317 193.943 244.875 195.121C244.433 196.298 245.39 198.139 245.39 198.139C245.39 198.139 248.04 205.279 249.365 207.34C250.689 209.401 253.266 211.388 255.548 211.094C257.83 210.8 257.83 209.033 257.83 209.033C257.83 209.033 260.259 205.131 258.345 202.261C256.432 199.39 248.408 192.103 246.421 193.354Z" fill="white" stroke="#263238" stroke-miterlimit="10" stroke-linecap="round"/>
<path d="M261.5 192.528C261.5 192.528 257.907 202.166 257.662 204.29C257.416 206.413 253.823 220.134 253.66 220.788C253.497 221.441 255.212 222.176 255.783 222.34C256.355 222.503 270.811 224.463 272.363 223.81C273.915 223.157 274.323 223.239 274.323 222.503C274.323 221.768 277.182 197.838 275.794 194.816C274.406 191.794 272.891 188.657 272.056 188.552C271.219 188.445 261.5 192.528 261.5 192.528Z" fill="white" stroke="#263238" stroke-miterlimit="10" stroke-linecap="round"/>
<path d="M266.167 201.768C268.006 201.128 273.923 199.929 273.923 199.929C273.923 199.929 268.006 203.687 264.968 205.286" stroke="#263238" stroke-miterlimit="10" stroke-linecap="round"/>
<path d="M274.083 201.129L269.286 205.526" stroke="#263238" stroke-miterlimit="10" stroke-linecap="round"/>
<path d="M260.947 172.129C260.947 172.129 259.015 174.737 259.402 175.799C259.788 176.862 259.595 177.441 259.595 177.441C259.595 177.441 257.18 180.243 257.663 180.532C258.146 180.822 258.629 181.788 258.629 181.788C258.629 181.788 259.209 185.555 259.692 186.134C260.175 186.714 261.623 186.231 261.623 186.231L262.59 186.134L263.266 190.867L270.607 187.003V183.43C270.607 183.43 275.436 178.601 275.34 176.089C275.243 173.578 275.436 171.26 274.47 170.39C273.504 169.521 269.061 167.686 267.033 167.396C265.005 167.106 263.845 166.817 263.266 167.203C262.687 167.589 261.721 168.265 261.721 168.265C261.721 168.265 261.721 165.947 260.561 166.913C259.402 167.879 259.595 171.357 260.947 172.129Z" fill="white" stroke="#263238" stroke-miterlimit="10" stroke-linecap="round"/>
<path d="M274.47 170.392C273.504 169.523 269.06 167.687 267.032 167.398C265.004 167.108 263.845 166.819 263.266 167.205C262.686 167.591 261.72 168.267 261.72 168.267C261.72 168.267 261.72 165.949 260.561 166.915C259.402 167.881 259.595 171.358 260.947 172.131L265.487 172.517C265.487 172.517 264.908 173.579 264.811 174.545C264.714 175.511 266.453 176.283 266.453 176.283C266.453 176.283 265.97 178.988 265.97 179.471C265.97 179.954 267.033 180.05 267.226 179.664C267.419 179.278 266.936 178.119 268.482 177.732C270.027 177.346 270.8 178.602 270.703 179.761C270.606 180.92 269.93 181.596 269.351 181.886C268.771 182.175 268.771 182.175 268.771 182.175C268.771 182.175 270.027 182.658 270.606 183.431C270.606 183.431 275.436 178.602 275.339 176.09C275.243 173.579 275.436 171.262 274.47 170.392Z" fill="#263238" stroke="#263238" stroke-miterlimit="10" stroke-linecap="round"/>
<path d="M261.526 177.781C261.526 178.234 261.354 178.602 261.14 178.602C260.927 178.602 260.754 178.234 260.754 177.781C260.754 177.327 260.927 176.96 261.14 176.96C261.353 176.96 261.526 177.327 261.526 177.781Z" fill="#263238"/>
<path d="M260.851 191.544L261.333 194.442L272.055 188.55L270.8 185.942L260.851 191.544Z" fill="white" stroke="#263238" stroke-miterlimit="10" stroke-linecap="round"/>
<path d="M296.204 241.775C293.091 244.491 288.345 244.073 285.754 240.856L231.522 173.506L237.342 168.429L296.712 231.297C299.547 234.3 299.317 239.06 296.204 241.775Z" fill="#263238" stroke="#263238" stroke-miterlimit="10" stroke-linecap="round"/>
<path d="M244.164 174.093L236.598 180.694C235.58 181.582 234.035 181.476 233.147 180.458C232.259 179.441 232.365 177.896 233.382 177.008L240.948 170.408C241.966 169.519 243.511 169.625 244.399 170.643C245.287 171.66 245.181 173.205 244.164 174.093Z" fill="#FF9736" stroke="#263238" stroke-miterlimit="10" stroke-linecap="round"/>
<path d="M189.316 120.817C174.96 133.341 173.474 155.133 185.999 169.49C198.523 183.848 220.315 185.332 234.672 172.808C249.029 160.283 250.514 138.492 237.99 124.134C225.465 109.777 203.673 108.292 189.316 120.817ZM231.692 169.391C219.222 180.27 200.294 178.98 189.414 166.51C178.535 154.04 179.826 135.112 192.296 124.233C204.766 113.354 223.694 114.644 234.573 127.114C245.452 139.584 244.162 158.512 231.692 169.391Z" fill="#FF9736" stroke="#263238" stroke-miterlimit="10" stroke-linecap="round"/>
<path d="M266.809 196.203C266.809 196.203 269.096 191.221 269.749 190.65C270.402 190.078 271.546 190.16 272.608 190.241C273.67 190.323 281.837 197.51 281.837 197.51C281.837 197.51 288.371 202.411 288.289 203.472C288.208 204.534 279.877 219.154 279.877 219.154L276.447 217.03L278.243 205.106L268.361 199.552" fill="white"/>
<path d="M266.809 196.203C266.809 196.203 269.096 191.221 269.749 190.65C270.402 190.078 271.546 190.16 272.608 190.241C273.67 190.323 281.837 197.51 281.837 197.51C281.837 197.51 288.371 202.411 288.289 203.472C288.208 204.534 279.877 219.154 279.877 219.154L276.447 217.03L278.243 205.106L268.361 199.552" stroke="#263238" stroke-miterlimit="10" stroke-linecap="round"/>
<path d="M276.446 217.03L275.548 217.765C275.548 217.765 274.241 217.357 273.588 217.684C272.934 218.011 272.362 218.419 272.362 218.419C272.362 218.419 270.974 218.419 270.729 218.746C270.483 219.073 270.239 219.481 270.729 219.808C271.219 220.135 273.914 219.645 274.159 219.808C274.404 219.971 273.832 220.788 273.342 222.094C272.852 223.401 272.117 224.381 272.525 224.789C272.934 225.198 273.588 225.443 273.914 225.116C274.241 224.789 274.241 224.789 274.241 224.789C274.241 224.789 276.037 226.259 276.691 226.096C277.345 225.933 278.814 224.708 279.304 223.074C279.794 221.441 279.876 219.154 279.876 219.154L276.446 217.03Z" fill="white" stroke="#263238" stroke-miterlimit="10" stroke-linecap="round"/>
<path d="M243.403 189.747C243.403 189.747 243.403 189.494 242.985 188.2C242.566 186.906 241.963 186.468 242.642 186.201C243.319 185.933 243.888 186.577 244.087 187.159C244.286 187.74 244.539 188.247 244.539 188.247L243.643 190.336L243.403 189.747Z" fill="white" stroke="#263238" stroke-miterlimit="10" stroke-linecap="round"/>
<path d="M244.702 186.501C244.702 186.501 243.04 190.404 243.15 190.76C243.26 191.116 246.486 194.312 246.486 194.312L245.906 195.709C245.906 195.709 246.294 196.933 247.157 197.328C248.924 198.138 249.807 196.224 249.807 196.224L248.712 194.64C248.712 194.64 249.84 191.914 249.929 191.633C250.018 191.353 246.271 186.973 246.271 186.973C246.271 186.973 245.941 185.651 244.702 186.501Z" fill="white" stroke="#263238" stroke-miterlimit="10" stroke-linecap="round"/>
<path d="M246.27 186.973L244.143 191.896" stroke="#263238" stroke-miterlimit="10" stroke-linecap="round"/>
<path d="M247.415 188.471L245.609 193.238" stroke="#263238" stroke-miterlimit="10" stroke-linecap="round"/>
<path d="M248.798 190.306L247.02 193.894" stroke="#263238" stroke-miterlimit="10" stroke-linecap="round"/>
<path d="M246.486 194.311L248.499 195.406" stroke="#263238" stroke-miterlimit="10" stroke-linecap="round"/>
</svg>
