<svg width="338" height="311" viewBox="0 0 338 311" fill="none" xmlns="http://www.w3.org/2000/svg">
<rect y="178.592" width="318.665" height="118.268" rx="12" fill="#FFD8B3"/>
<path d="M273.312 284.876H320.584" stroke="#263238" stroke-miterlimit="10"/>
<path d="M100.396 284.876H267.714" stroke="#263238" stroke-miterlimit="10"/>
<path d="M46.9038 284.876H93.5538" stroke="#263238" stroke-miterlimit="10"/>
<path opacity="0.3" d="M265.979 53.3077H48.9014V213.784H265.979V53.3077Z" fill="black"/>
<path d="M273.692 47.088H54.2793V208.292H273.692V47.088Z" fill="white" stroke="#263238" stroke-miterlimit="10"/>
<path d="M90.4287 47.088H54.2793V208.292H90.4287V47.088Z" fill="#DBE6FC" stroke="#263238" stroke-miterlimit="10"/>
<path d="M273.692 47.088H54.2793V60.3236H273.692V47.088Z" fill="#263238" stroke="#263238" stroke-miterlimit="10" stroke-linecap="round" stroke-linejoin="round"/>
<path d="M64.4109 78.4241C64.4109 76.4119 62.78 74.7804 60.7672 74.7804C58.7544 74.7804 57.1235 76.4113 57.1235 78.4241C57.1235 80.4369 58.755 82.0677 60.7672 82.0677C62.7794 82.0677 64.4109 80.4362 64.4109 78.4241Z" fill="white" stroke="#263238" stroke-miterlimit="10" stroke-linecap="round" stroke-linejoin="round"/>
<path d="M67.4473 78.7277H85.3615" stroke="#263238" stroke-miterlimit="10" stroke-linecap="round" stroke-linejoin="round"/>
<path d="M64.4109 95.1223C64.4109 93.1101 62.78 91.4786 60.7672 91.4786C58.7544 91.4786 57.1235 93.1101 57.1235 95.1223C57.1235 97.1345 58.755 98.766 60.7672 98.766C62.7794 98.766 64.4109 97.1345 64.4109 95.1223Z" fill="white" stroke="#263238" stroke-miterlimit="10" stroke-linecap="round" stroke-linejoin="round"/>
<path d="M67.4473 95.4261H85.3615" stroke="#263238" stroke-miterlimit="10" stroke-linecap="round" stroke-linejoin="round"/>
<path d="M64.4109 111.823C64.4109 109.81 62.78 108.179 60.7672 108.179C58.7544 108.179 57.1235 109.81 57.1235 111.823C57.1235 113.835 58.755 115.466 60.7672 115.466C62.7794 115.466 64.4109 113.835 64.4109 111.823Z" fill="white" stroke="#263238" stroke-miterlimit="10" stroke-linecap="round" stroke-linejoin="round"/>
<path d="M67.4473 112.125H85.3615" stroke="#263238" stroke-miterlimit="10" stroke-linecap="round" stroke-linejoin="round"/>
<path d="M64.4109 128.521C64.4109 126.509 62.78 124.877 60.7672 124.877C58.7544 124.877 57.1235 126.509 57.1235 128.521C57.1235 130.533 58.755 132.165 60.7672 132.165C62.7794 132.165 64.4109 130.533 64.4109 128.521Z" fill="white" stroke="#263238" stroke-miterlimit="10" stroke-linecap="round" stroke-linejoin="round"/>
<path d="M67.4473 128.825H85.3615" stroke="#263238" stroke-miterlimit="10" stroke-linecap="round" stroke-linejoin="round"/>
<path d="M64.4109 145.22C64.4109 143.208 62.78 141.576 60.7672 141.576C58.7544 141.576 57.1235 143.208 57.1235 145.22C57.1235 147.232 58.755 148.864 60.7672 148.864C62.7794 148.864 64.4109 147.232 64.4109 145.22Z" fill="white" stroke="#263238" stroke-miterlimit="10" stroke-linecap="round" stroke-linejoin="round"/>
<path d="M67.4473 145.524H85.3615" stroke="#263238" stroke-miterlimit="10" stroke-linecap="round" stroke-linejoin="round"/>
<g opacity="0.05">
<path d="M238.603 157.131H94.9741V162.282H238.603V157.131Z" fill="black"/>
<path d="M238.603 166.222H94.9741V171.373H238.603V166.222Z" fill="black"/>
<path d="M238.603 175.311H94.9741V180.463H238.603V175.311Z" fill="black"/>
<path d="M238.603 184.402H94.9741V189.553H238.603V184.402Z" fill="black"/>
</g>
<path d="M162.992 170.348H154.757V194.401H162.992V170.348Z" fill="#849EFC"/>
<path d="M153.841 160.421H145.606V194.401H153.841V160.421Z" fill="#263238"/>
<path d="M144.691 172.639H136.456V194.402H144.691V172.639Z" fill="#849EFC"/>
<path d="M135.54 185.62H127.305V194.402H135.54V185.62Z" fill="#263238"/>
<path d="M126.39 168.439H118.154V194.401H126.39V168.439Z" fill="#849EFC"/>
<path d="M117.24 173.784H109.004V194.401H117.24V173.784Z" fill="#263238"/>
<path d="M108.089 186.765H99.854V194.4H108.089V186.765Z" fill="#849EFC"/>
<path d="M182.185 170.348H173.95V194.401H182.185V170.348Z" fill="#263238"/>
<path d="M191.336 160.421H183.101V194.401H191.336V160.421Z" fill="#849EFC"/>
<path d="M200.486 172.639H192.25V194.402H200.486V172.639Z" fill="#263238"/>
<path d="M209.637 185.62H201.401V194.402H209.637V185.62Z" fill="#849EFC"/>
<path d="M218.787 168.439H210.552V194.401H218.787V168.439Z" fill="#263238"/>
<path d="M227.937 173.784H219.702V194.401H227.937V173.784Z" fill="#849EFC"/>
<path d="M237.088 186.765H228.853V194.4H237.088V186.765Z" fill="#263238"/>
<path d="M59.1094 168.881H85.8249" stroke="#263238" stroke-miterlimit="10" stroke-linecap="round" stroke-linejoin="round"/>
<path d="M59.1094 173.676H85.8249" stroke="#263238" stroke-miterlimit="10" stroke-linecap="round" stroke-linejoin="round"/>
<path d="M59.1094 178.471H85.8249" stroke="#263238" stroke-miterlimit="10" stroke-linecap="round" stroke-linejoin="round"/>
<path d="M59.1094 183.267H85.8249" stroke="#263238" stroke-miterlimit="10" stroke-linecap="round" stroke-linejoin="round"/>
<path d="M59.1094 188.062H85.8249" stroke="#263238" stroke-miterlimit="10" stroke-linecap="round" stroke-linejoin="round"/>
<path d="M59.1094 192.857H85.8249" stroke="#263238" stroke-miterlimit="10" stroke-linecap="round" stroke-linejoin="round"/>
<path d="M63.957 51.3116H75.6824" stroke="white" stroke-miterlimit="10" stroke-linecap="round" stroke-linejoin="round"/>
<path d="M63.957 54.4963H75.6824" stroke="white" stroke-miterlimit="10" stroke-linecap="round" stroke-linejoin="round"/>
<path d="M63.957 57.6815H75.6824" stroke="white" stroke-miterlimit="10" stroke-linecap="round" stroke-linejoin="round"/>
<path opacity="0.05" d="M238.924 122.302H170.425V150.04H238.924V122.302Z" fill="black"/>
<path d="M238.924 145.246V150.04H170.425V134.629L181.382 131.55H196.793L202.963 139.423H213.919L222.483 145.246H238.924Z" fill="#849EFC"/>
<path d="M218.374 127.437H234.814" stroke="#263238" stroke-miterlimit="10" stroke-linecap="round" stroke-linejoin="round"/>
<path d="M222.628 138.249V139.653H221.871V138.249H219.621V137.542L221.783 132.682H222.629V137.542H223.187V138.249H222.628ZM220.338 137.542H221.871V134.136L220.338 137.542Z" fill="#263238"/>
<path d="M224.561 135.52C224.78 135.141 225.129 134.942 225.596 134.942C226.492 134.942 226.891 135.6 226.891 136.596V137.96C226.891 139.026 226.383 139.723 225.318 139.723C224.252 139.723 223.754 139.026 223.754 137.96V137.492H224.48V138.01C224.48 138.638 224.74 139.016 225.297 139.016C225.854 139.016 226.114 138.638 226.114 138.01V136.655C226.114 136.028 225.854 135.65 225.297 135.65C224.869 135.65 224.58 135.888 224.511 136.397V136.556H223.784L223.973 132.682H226.722V133.379H224.671L224.561 135.52Z" fill="#263238"/>
<path d="M229.589 133.767V135.968C229.589 136.646 229.27 137.094 228.593 137.094C227.916 137.094 227.598 136.646 227.598 135.968V133.767C227.598 133.1 227.916 132.642 228.593 132.642C229.27 132.642 229.589 133.1 229.589 133.767ZM228.095 133.737V136.008C228.095 136.387 228.234 136.636 228.593 136.636C228.942 136.636 229.09 136.387 229.09 136.008V133.737C229.09 133.359 228.941 133.1 228.593 133.1C228.235 133.1 228.095 133.359 228.095 133.737ZM231.889 132.682L229.14 139.653H228.672L231.421 132.682H231.889ZM233.015 136.366V138.558C233.015 139.235 232.706 139.683 232.019 139.683C231.341 139.683 231.024 139.235 231.024 138.558V136.366C231.024 135.699 231.342 135.251 232.019 135.251C232.706 135.251 233.015 135.699 233.015 136.366ZM231.521 136.337V138.598C231.521 138.976 231.671 139.235 232.018 139.235C232.367 139.235 232.516 138.976 232.516 138.598V136.337C232.516 135.958 232.367 135.709 232.018 135.709C231.671 135.71 231.521 135.958 231.521 136.337Z" fill="#263238"/>
<path d="M95.3973 72.8098V68.2381H94.46V67.7218H96.8951V68.2381H95.9577V72.8098H95.3973Z" fill="#263238"/>
<path d="M98.4152 67.7218C99.2144 67.7218 99.5491 68.1292 99.5491 68.8849V69.2992C99.5491 69.859 99.3531 70.2079 98.9165 70.346C99.3817 70.4841 99.5565 70.8623 99.5565 71.4072V72.1996C99.5565 72.4247 99.5634 72.6356 99.6579 72.8098H99.0838C99.0185 72.6648 98.9893 72.5336 98.9893 72.1921V71.3928C98.9893 70.8187 98.7206 70.6371 98.2478 70.6371H97.8479V72.8104H97.2812V67.7224H98.4152V67.7218ZM98.2696 70.1202C98.7206 70.1202 98.9893 69.9747 98.9893 69.4224V68.9353C98.9893 68.4775 98.8219 68.2374 98.4002 68.2374H97.8479V70.1202H98.2696Z" fill="#263238"/>
<path d="M101.957 69.9747V70.4835H100.714V72.2935H102.24V72.8098H100.147V67.7218H102.24V68.2381H100.714V69.9753L101.957 69.9747Z" fill="#263238"/>
<path d="M103.266 72.8098H102.757V67.7218H103.477L104.654 71.3997V67.7218H105.156V72.8098H104.567L103.265 68.6959V72.8098H103.266Z" fill="#263238"/>
<path d="M106.931 67.7214C107.723 67.7214 108.087 68.201 108.087 68.986V71.5517C108.087 72.3292 107.724 72.8088 106.931 72.8088H105.739V67.7208L106.931 67.7214ZM106.924 72.2932C107.331 72.2932 107.527 72.0387 107.527 71.5735V68.9574C107.527 68.4921 107.331 68.2377 106.917 68.2377H106.306V72.2938L106.924 72.2932Z" fill="#263238"/>
<g opacity="0.3">
<path d="M94.4033 110.51V108.057" stroke="black" stroke-width="0.5" stroke-miterlimit="10" stroke-linecap="round" stroke-linejoin="round"/>
<path opacity="0.3" d="M93.79 102.23H267.53" stroke="black" stroke-width="0.5" stroke-miterlimit="10" stroke-linecap="round" stroke-linejoin="round"/>
<path opacity="0.3" d="M93.79 107.904H267.53" stroke="black" stroke-width="0.5" stroke-miterlimit="10" stroke-linecap="round" stroke-linejoin="round"/>
<path opacity="0.3" d="M93.79 96.8633H267.53" stroke="black" stroke-width="0.5" stroke-miterlimit="10" stroke-linecap="round" stroke-linejoin="round"/>
<path opacity="0.3" d="M93.79 91.4963H267.53" stroke="black" stroke-width="0.5" stroke-miterlimit="10" stroke-linecap="round" stroke-linejoin="round"/>
<path opacity="0.3" d="M93.79 86.129H267.53" stroke="black" stroke-width="0.5" stroke-miterlimit="10" stroke-linecap="round" stroke-linejoin="round"/>
<path opacity="0.3" d="M93.79 80.7618H267.53" stroke="black" stroke-width="0.5" stroke-miterlimit="10" stroke-linecap="round" stroke-linejoin="round"/>
<path opacity="0.3" d="M93.79 75.3946H267.53" stroke="black" stroke-width="0.5" stroke-miterlimit="10" stroke-linecap="round" stroke-linejoin="round"/>
<path opacity="0.3" d="M108.716 110.51V108.057" stroke="black" stroke-width="0.5" stroke-miterlimit="10" stroke-linecap="round" stroke-linejoin="round"/>
<path d="M123.028 110.51V108.057" stroke="black" stroke-width="0.5" stroke-miterlimit="10" stroke-linecap="round" stroke-linejoin="round"/>
<path d="M137.34 110.51V108.057" stroke="black" stroke-width="0.5" stroke-miterlimit="10" stroke-linecap="round" stroke-linejoin="round"/>
<path d="M151.652 110.51V108.057" stroke="black" stroke-width="0.5" stroke-miterlimit="10" stroke-linecap="round" stroke-linejoin="round"/>
<path d="M165.964 110.51V108.057" stroke="black" stroke-width="0.5" stroke-miterlimit="10" stroke-linecap="round" stroke-linejoin="round"/>
<path d="M180.276 110.51V108.057" stroke="black" stroke-width="0.5" stroke-miterlimit="10" stroke-linecap="round" stroke-linejoin="round"/>
<path d="M194.589 110.51V108.057" stroke="black" stroke-width="0.5" stroke-miterlimit="10" stroke-linecap="round" stroke-linejoin="round"/>
<path d="M208.9 110.51V108.057" stroke="black" stroke-width="0.5" stroke-miterlimit="10" stroke-linecap="round" stroke-linejoin="round"/>
<path d="M223.213 110.51V108.057" stroke="black" stroke-width="0.5" stroke-miterlimit="10" stroke-linecap="round" stroke-linejoin="round"/>
<path d="M237.525 110.51V108.057" stroke="black" stroke-width="0.5" stroke-miterlimit="10" stroke-linecap="round" stroke-linejoin="round"/>
<path d="M251.837 110.51V108.057" stroke="black" stroke-width="0.5" stroke-miterlimit="10" stroke-linecap="round" stroke-linejoin="round"/>
<path d="M266.149 110.51V108.057" stroke="black" stroke-width="0.5" stroke-miterlimit="10" stroke-linecap="round" stroke-linejoin="round"/>
</g>
<path d="M265.269 107.014V76.4277L265.346 73.6847L256.182 75.5482L244.681 79.2286L230.727 80.7618L216.159 85.0555L202.358 83.3686L186.717 78.9219L171.689 85.8025L159.881 81.3751L144.087 83.3686L130.899 77.8484L115.719 99.1631L101.458 82.142L94.3687 89.1545V107.014H265.269Z" fill="#5B7EFB"/>
<path opacity="0.5" d="M265.269 107.014V76.4277L265.346 73.6847L256.182 75.5482L244.681 79.2286L230.727 80.7618L216.159 85.0555L202.358 83.3686L186.717 78.9219L171.689 85.8025L159.881 81.3751L144.087 83.3686L130.899 77.8484L115.719 99.1631L101.458 82.142L94.3687 89.1545V107.014H265.269Z" fill="white"/>
<path opacity="0.15" d="M265.39 107.013V96.7275L265.427 95.4692L256.182 91.7309L244.681 89.1241L230.727 90.658L216.159 93.2648L202.358 91.2713L186.717 89.7374L171.689 90.0441L159.881 93.4178L144.087 96.1782L130.899 93.4178L115.719 94.798L101.457 96.3313L94.5569 97.2512H94.231V107.013H265.39Z" fill="black"/>
<path d="M101.458 97.2512C101.966 97.2512 102.377 96.8393 102.377 96.3313C102.377 95.8232 101.966 95.4113 101.458 95.4113C100.949 95.4113 100.538 95.8232 100.538 96.3313C100.538 96.8393 100.949 97.2512 101.458 97.2512Z" fill="#263238"/>
<path d="M116.639 94.7981C116.639 94.2899 116.227 93.8781 115.719 93.8781C115.211 93.8781 114.799 94.2899 114.799 94.7981C114.799 95.3062 115.211 95.718 115.719 95.718C116.226 95.718 116.639 95.3062 116.639 94.7981Z" fill="#263238"/>
<path d="M130.899 94.338C131.407 94.338 131.819 93.9262 131.819 93.4181C131.819 92.91 131.407 92.4982 130.899 92.4982C130.391 92.4982 129.979 92.91 129.979 93.4181C129.979 93.9262 130.391 94.338 130.899 94.338Z" fill="#263238"/>
<path d="M144.087 97.0978C144.595 97.0978 145.007 96.6859 145.007 96.1779C145.007 95.6698 144.595 95.2579 144.087 95.2579C143.579 95.2579 143.167 95.6698 143.167 96.1779C143.167 96.6859 143.579 97.0978 144.087 97.0978Z" fill="#263238"/>
<path d="M159.881 94.338C160.389 94.338 160.801 93.9262 160.801 93.4181C160.801 92.91 160.389 92.4982 159.881 92.4982C159.373 92.4982 158.961 92.91 158.961 93.4181C158.961 93.9262 159.373 94.338 159.881 94.338Z" fill="#263238"/>
<path d="M171.689 90.9641C172.198 90.9641 172.609 90.5522 172.609 90.0441C172.609 89.536 172.198 89.1242 171.689 89.1242C171.181 89.1242 170.77 89.536 170.77 90.0441C170.77 90.5522 171.181 90.9641 171.689 90.9641Z" fill="#263238"/>
<path d="M186.717 90.6574C187.225 90.6574 187.637 90.2455 187.637 89.7374C187.637 89.2294 187.225 88.8175 186.717 88.8175C186.209 88.8175 185.797 89.2294 185.797 89.7374C185.797 90.2455 186.209 90.6574 186.717 90.6574Z" fill="#263238"/>
<path d="M203.278 91.2716C203.278 90.7635 202.867 90.3517 202.358 90.3517C201.85 90.3517 201.438 90.7635 201.438 91.2716C201.438 91.7798 201.85 92.1916 202.358 92.1916C202.867 92.1916 203.278 91.7798 203.278 91.2716Z" fill="#263238"/>
<path d="M216.159 94.1848C216.667 94.1848 217.079 93.7729 217.079 93.2648C217.079 92.7567 216.667 92.3449 216.159 92.3449C215.651 92.3449 215.239 92.7567 215.239 93.2648C215.239 93.7729 215.651 94.1848 216.159 94.1848Z" fill="#263238"/>
<path d="M230.727 91.5783C231.235 91.5783 231.647 91.1664 231.647 90.6583C231.647 90.1503 231.235 89.7384 230.727 89.7384C230.219 89.7384 229.807 90.1503 229.807 90.6583C229.807 91.1664 230.219 91.5783 230.727 91.5783Z" fill="#263238"/>
<path d="M244.681 90.0441C245.189 90.0441 245.601 89.6322 245.601 89.1242C245.601 88.6161 245.189 88.2042 244.681 88.2042C244.173 88.2042 243.761 88.6161 243.761 89.1242C243.761 89.6322 244.173 90.0441 244.681 90.0441Z" fill="#263238"/>
<path d="M257.103 91.7306C257.103 91.2224 256.691 90.8107 256.183 90.8107C255.674 90.8107 255.263 91.2224 255.263 91.7306C255.263 92.2388 255.674 92.6505 256.183 92.6505C256.69 92.6512 257.103 92.2388 257.103 91.7306Z" fill="#263238"/>
<g opacity="0.3">
<path d="M101.458 83.062C101.966 83.062 102.377 82.6501 102.377 82.142C102.377 81.6339 101.966 81.2221 101.458 81.2221C100.949 81.2221 100.538 81.6339 100.538 82.142C100.538 82.6501 100.949 83.062 101.458 83.062Z" fill="black"/>
<path d="M115.719 100.083C116.227 100.083 116.639 99.6715 116.639 99.1634C116.639 98.6554 116.227 98.2435 115.719 98.2435C115.211 98.2435 114.799 98.6554 114.799 99.1634C114.799 99.6715 115.211 100.083 115.719 100.083Z" fill="black"/>
<path d="M131.82 77.848C131.82 77.3398 131.408 76.9281 130.9 76.9281C130.392 76.9281 129.98 77.3398 129.98 77.848C129.98 78.3562 130.392 78.7679 130.9 78.7679C131.407 78.7679 131.82 78.3562 131.82 77.848Z" fill="black"/>
<path d="M144.087 84.2885C144.595 84.2885 145.007 83.8767 145.007 83.3686C145.007 82.8605 144.595 82.4487 144.087 82.4487C143.579 82.4487 143.167 82.8605 143.167 83.3686C143.167 83.8767 143.579 84.2885 144.087 84.2885Z" fill="black"/>
<path d="M160.802 81.3754C160.802 80.8672 160.39 80.4554 159.882 80.4554C159.374 80.4554 158.962 80.8672 158.962 81.3754C158.962 81.8835 159.374 82.2953 159.882 82.2953C160.39 82.2959 160.802 81.8835 160.802 81.3754Z" fill="black"/>
<path d="M171.689 86.3578C172.198 86.3578 172.609 85.9459 172.609 85.4378C172.609 84.9298 172.198 84.5179 171.689 84.5179C171.181 84.5179 170.77 84.9298 170.77 85.4378C170.77 85.9459 171.181 86.3578 171.689 86.3578Z" fill="black"/>
<path d="M186.717 79.8422C187.225 79.8422 187.637 79.4303 187.637 78.9222C187.637 78.4142 187.225 78.0023 186.717 78.0023C186.209 78.0023 185.797 78.4142 185.797 78.9222C185.797 79.4303 186.209 79.8422 186.717 79.8422Z" fill="black"/>
<path d="M202.358 84.2885C202.866 84.2885 203.278 83.8767 203.278 83.3686C203.278 82.8605 202.866 82.4487 202.358 82.4487C201.85 82.4487 201.438 82.8605 201.438 83.3686C201.438 83.8767 201.85 84.2885 202.358 84.2885Z" fill="black"/>
<path d="M216.159 85.975C216.667 85.975 217.079 85.5631 217.079 85.055C217.079 84.547 216.667 84.1351 216.159 84.1351C215.651 84.1351 215.239 84.547 215.239 85.055C215.239 85.5631 215.651 85.975 216.159 85.975Z" fill="black"/>
<path d="M230.727 81.682C231.235 81.682 231.647 81.2701 231.647 80.7621C231.647 80.254 231.235 79.8421 230.727 79.8421C230.219 79.8421 229.807 80.254 229.807 80.7621C229.807 81.2701 230.219 81.682 230.727 81.682Z" fill="black"/>
<path d="M244.681 80.1488C245.189 80.1488 245.601 79.7369 245.601 79.2289C245.601 78.7208 245.189 78.3089 244.681 78.3089C244.173 78.3089 243.761 78.7208 243.761 79.2289C243.761 79.7369 244.173 80.1488 244.681 80.1488Z" fill="black"/>
<path d="M256.182 76.4681C256.69 76.4681 257.102 76.0563 257.102 75.5482C257.102 75.0401 256.69 74.6283 256.182 74.6283C255.674 74.6283 255.262 75.0401 255.262 75.5482C255.262 76.0563 255.674 76.4681 256.182 76.4681Z" fill="black"/>
</g>
<path d="M254.139 71.4596V72.8641H253.382V71.4596H251.132V70.753L253.293 65.8927H254.14V70.753H254.698V71.4596H254.139ZM251.849 70.753H253.382V67.3463L251.849 70.753Z" fill="#263238"/>
<path d="M256.071 68.7306C256.29 68.3518 256.639 68.1528 257.107 68.1528C258.003 68.1528 258.402 68.8103 258.402 69.8061V71.1701C258.402 72.2362 257.893 72.9329 256.828 72.9329C255.762 72.9329 255.264 72.2356 255.264 71.1701V70.7024H255.991V71.2205C255.991 71.8481 256.25 72.2263 256.807 72.2263C257.365 72.2263 257.624 71.8481 257.624 71.2205V69.8658C257.624 69.2382 257.365 68.86 256.807 68.86C256.379 68.86 256.09 69.0989 256.021 69.607V69.7663H255.294L255.484 65.8925H258.232V66.5897H256.181L256.071 68.7306Z" fill="#263238"/>
<path d="M261.099 66.9779V69.1791C261.099 69.8565 260.781 70.3043 260.104 70.3043C259.426 70.3043 259.108 69.8565 259.108 69.1791V66.9779C259.108 66.3105 259.427 65.8527 260.104 65.8527C260.781 65.8527 261.099 66.3105 261.099 66.9779ZM259.605 66.948V69.2189C259.605 69.5971 259.745 69.8465 260.104 69.8465C260.452 69.8465 260.601 69.5977 260.601 69.2189V66.948C260.601 66.5698 260.452 66.3105 260.104 66.3105C259.745 66.3105 259.605 66.5698 259.605 66.948ZM263.4 65.8925L260.651 72.8638H260.183L262.932 65.8925H263.4ZM264.525 69.5772V71.7685C264.525 72.4459 264.217 72.8937 263.53 72.8937C262.852 72.8937 262.534 72.4452 262.534 71.7685V69.5772C262.534 68.9098 262.853 68.462 263.53 68.462C264.217 68.462 264.525 68.9098 264.525 69.5772ZM263.031 69.5473V71.8083C263.031 72.1865 263.181 72.4459 263.529 72.4459C263.877 72.4459 264.027 72.1871 264.027 71.8083V69.5473C264.027 69.1692 263.877 68.9197 263.529 68.9197C263.181 68.9197 263.031 69.1692 263.031 69.5473Z" fill="#263238"/>
<path d="M254.448 97.9105C254.448 100.012 252.088 100.769 252.078 102.372V102.482H254.368V103.189H251.311V102.591C251.311 100.34 253.672 99.9016 253.672 97.9398C253.672 97.2226 253.433 96.8444 252.855 96.8444C252.287 96.8444 252.039 97.2531 252.039 97.8701V98.4871H251.312V97.9192C251.312 96.8538 251.8 96.1465 252.875 96.1465C253.96 96.1478 254.448 96.8451 254.448 97.9105Z" fill="#263238"/>
<path d="M255.104 97.9003C255.104 96.8342 255.633 96.1475 256.698 96.1475C257.774 96.1475 258.302 96.8348 258.302 97.9003V101.495C258.302 102.562 257.774 103.258 256.698 103.258C255.632 103.258 255.104 102.561 255.104 101.495V97.9003ZM255.871 101.545C255.871 102.172 256.14 102.551 256.698 102.551C257.265 102.551 257.524 102.172 257.524 101.545V97.8605C257.524 97.223 257.265 96.8448 256.698 96.8448C256.14 96.8448 255.871 97.2236 255.871 97.8605V101.545Z" fill="#263238"/>
<path d="M260.99 97.3028V99.5041C260.99 100.181 260.672 100.629 259.995 100.629C259.317 100.629 258.999 100.181 258.999 99.5041V97.3028C258.999 96.6354 259.317 96.1776 259.995 96.1776C260.672 96.1776 260.99 96.6354 260.99 97.3028ZM259.496 97.273V99.5439C259.496 99.9221 259.636 100.171 259.994 100.171C260.343 100.171 260.492 99.9221 260.492 99.5439V97.273C260.492 96.8948 260.343 96.6354 259.994 96.6354C259.636 96.6354 259.496 96.8948 259.496 97.273ZM263.291 96.2175L260.542 103.189H260.073L262.822 96.2175H263.291ZM264.416 99.9022V102.093C264.416 102.771 264.107 103.219 263.421 103.219C262.743 103.219 262.425 102.77 262.425 102.093V99.9022C262.425 99.2348 262.743 98.7869 263.421 98.7869C264.107 98.7869 264.416 99.2348 264.416 99.9022ZM262.922 99.8723V102.133C262.922 102.511 263.072 102.771 263.42 102.771C263.769 102.771 263.918 102.512 263.918 102.133V99.8723C263.918 99.4942 263.768 99.2453 263.42 99.2453C263.072 99.2453 262.922 99.4942 262.922 99.8723Z" fill="#263238"/>
<path d="M142.951 126.302H138.444V130.809H142.951V126.302Z" fill="#263238"/>
<path d="M145.768 128.556H164.077" stroke="#263238" stroke-miterlimit="10" stroke-linejoin="round"/>
<path d="M142.951 134.471H138.444V138.978H142.951V134.471Z" fill="#849EFC"/>
<path d="M145.768 136.724H164.077" stroke="#263238" stroke-miterlimit="10" stroke-linejoin="round"/>
<path d="M142.951 142.64H138.444V147.147H142.951V142.64Z" fill="#7D7D7D"/>
<path d="M145.768 144.893H164.077" stroke="#263238" stroke-miterlimit="10" stroke-linejoin="round"/>
<path d="M119.536 150.117C125.298 147.679 129.342 141.973 129.342 135.322C129.342 131.493 128.002 127.978 125.766 125.219" stroke="#849EFC" stroke-width="7" stroke-miterlimit="10" stroke-linejoin="round"/>
<path d="M99.8408 144.103C102.708 148.484 107.659 151.379 113.286 151.379C115.503 151.379 117.615 150.93 119.536 150.117" stroke="#7D7D7D" stroke-width="7" stroke-miterlimit="10" stroke-linejoin="round"/>
<path d="M125.766 125.219C122.822 121.587 118.325 119.266 113.286 119.266C104.418 119.266 97.2295 126.454 97.2295 135.322C97.2295 138.562 98.1892 141.579 99.8406 144.102" stroke="#263238" stroke-width="7" stroke-miterlimit="10" stroke-linejoin="round"/>
<path d="M106.501 133.569H120.556" stroke="#263238" stroke-miterlimit="10" stroke-linejoin="round"/>
<path d="M106.501 137.723H120.556" stroke="#263238" stroke-miterlimit="10" stroke-linejoin="round"/>
<path d="M247.087 132.183H265.571" stroke="#263238" stroke-miterlimit="10" stroke-linecap="round" stroke-linejoin="round"/>
<path d="M247.087 134.304H265.571" stroke="#263238" stroke-miterlimit="10" stroke-linecap="round" stroke-linejoin="round"/>
<path d="M264.077 122.291C262.786 120.514 261.194 119.358 259.105 118.679C257.017 118 255.049 118 252.96 118.679C250.871 119.358 249.28 120.514 247.989 122.291C246.698 124.068 246.09 125.938 246.09 128.135H256.033H265.975C265.976 125.938 265.367 124.068 264.077 122.291Z" fill="#849EFC"/>
<path d="M256.033 128.135L264.077 122.291C265.368 124.068 265.976 125.938 265.976 128.135H256.033Z" stroke="white" stroke-width="0.5" stroke-miterlimit="10" stroke-linecap="round" stroke-linejoin="round"/>
<path d="M256.033 128.135L259.106 118.679C261.195 119.358 262.786 120.514 264.077 122.291L256.033 128.135Z" stroke="white" stroke-width="0.5" stroke-miterlimit="10" stroke-linecap="round" stroke-linejoin="round"/>
<path d="M256.033 128.135L252.96 118.679C255.049 118 257.017 118 259.105 118.679L256.033 128.135Z" stroke="white" stroke-width="0.5" stroke-miterlimit="10" stroke-linecap="round" stroke-linejoin="round"/>
<path d="M256.033 128.135L247.989 122.291C249.281 120.514 250.872 119.358 252.961 118.679L256.033 128.135Z" stroke="white" stroke-width="0.5" stroke-miterlimit="10" stroke-linecap="round" stroke-linejoin="round"/>
<path d="M256.033 128.135H246.09C246.09 125.939 246.698 124.068 247.989 122.291L256.033 128.135Z" stroke="white" stroke-width="0.5" stroke-miterlimit="10" stroke-linecap="round" stroke-linejoin="round"/>
<path d="M257.236 128.136C257.236 127.471 256.697 126.933 256.033 126.933C255.369 126.933 254.83 127.471 254.83 128.136C254.83 128.8 255.369 129.339 256.033 129.339C256.697 129.339 257.236 128.8 257.236 128.136Z" fill="#263238"/>
<path d="M256.033 128.136L260.117 122.184" stroke="#263238" stroke-miterlimit="10" stroke-linecap="round" stroke-linejoin="round"/>
<path d="M247.087 152.088H265.571" stroke="#263238" stroke-miterlimit="10" stroke-linecap="round" stroke-linejoin="round"/>
<path d="M247.087 154.209H265.571" stroke="#263238" stroke-miterlimit="10" stroke-linecap="round" stroke-linejoin="round"/>
<path d="M264.077 142.196C262.786 140.419 261.194 139.263 259.105 138.584C257.017 137.906 255.049 137.906 252.96 138.584C250.871 139.263 249.28 140.419 247.989 142.196C246.698 143.973 246.09 145.844 246.09 148.04H256.033H265.975C265.976 145.844 265.367 143.973 264.077 142.196Z" fill="#849EFC"/>
<path d="M256.033 148.04L264.077 142.196C265.368 143.973 265.976 145.844 265.976 148.04H256.033Z" stroke="white" stroke-width="0.5" stroke-miterlimit="10" stroke-linecap="round" stroke-linejoin="round"/>
<path d="M256.033 148.04L259.106 138.584C261.195 139.263 262.786 140.419 264.077 142.196L256.033 148.04Z" stroke="white" stroke-width="0.5" stroke-miterlimit="10" stroke-linecap="round" stroke-linejoin="round"/>
<path d="M256.033 148.04L252.96 138.584C255.049 137.906 257.017 137.906 259.105 138.584L256.033 148.04Z" stroke="white" stroke-width="0.5" stroke-miterlimit="10" stroke-linecap="round" stroke-linejoin="round"/>
<path d="M256.033 148.04L247.989 142.196C249.281 140.419 250.872 139.263 252.961 138.584L256.033 148.04Z" stroke="white" stroke-width="0.5" stroke-miterlimit="10" stroke-linecap="round" stroke-linejoin="round"/>
<path d="M256.033 148.04H246.09C246.09 145.844 246.698 143.973 247.989 142.196L256.033 148.04Z" stroke="white" stroke-width="0.5" stroke-miterlimit="10" stroke-linecap="round" stroke-linejoin="round"/>
<path d="M257.236 148.04C257.236 147.376 256.697 146.837 256.033 146.837C255.369 146.837 254.83 147.376 254.83 148.04C254.83 148.704 255.369 149.243 256.033 149.243C256.697 149.243 257.236 148.704 257.236 148.04Z" fill="#263238"/>
<path d="M256.033 148.04L252.037 142.384" stroke="#263238" stroke-miterlimit="10" stroke-linecap="round" stroke-linejoin="round"/>
<path d="M264.978 171.993H246.494" stroke="#263238" stroke-miterlimit="10" stroke-linecap="round" stroke-linejoin="round"/>
<path d="M264.978 174.114H246.494" stroke="#263238" stroke-miterlimit="10" stroke-linecap="round" stroke-linejoin="round"/>
<path d="M247.989 162.101C249.281 160.324 250.872 159.168 252.96 158.489C255.049 157.811 257.017 157.811 259.105 158.489C261.194 159.168 262.786 160.324 264.076 162.101C265.367 163.878 265.975 165.749 265.975 167.946H256.033H246.09C246.09 165.749 246.698 163.878 247.989 162.101Z" fill="#849EFC"/>
<path d="M256.033 167.946L247.989 162.101C246.698 163.878 246.09 165.749 246.09 167.946H256.033Z" stroke="white" stroke-width="0.5" stroke-miterlimit="10" stroke-linecap="round" stroke-linejoin="round"/>
<path d="M256.033 167.946L252.96 158.489C250.872 159.168 249.28 160.324 247.989 162.101L256.033 167.946Z" stroke="white" stroke-width="0.5" stroke-miterlimit="10" stroke-linecap="round" stroke-linejoin="round"/>
<path d="M256.033 167.946L259.106 158.489C257.016 157.811 255.05 157.811 252.961 158.489L256.033 167.946Z" stroke="white" stroke-width="0.5" stroke-miterlimit="10" stroke-linecap="round" stroke-linejoin="round"/>
<path d="M256.033 167.946L264.077 162.101C262.786 160.324 261.195 159.168 259.106 158.489L256.033 167.946Z" stroke="white" stroke-width="0.5" stroke-miterlimit="10" stroke-linecap="round" stroke-linejoin="round"/>
<path d="M256.033 167.946H265.976C265.976 165.749 265.368 163.878 264.077 162.101L256.033 167.946Z" stroke="white" stroke-width="0.5" stroke-miterlimit="10" stroke-linecap="round" stroke-linejoin="round"/>
<path d="M254.83 167.945C254.83 167.281 255.368 166.742 256.033 166.742C256.697 166.742 257.235 167.281 257.235 167.945C257.235 168.61 256.697 169.148 256.033 169.148C255.368 169.148 254.83 168.61 254.83 167.945Z" fill="#263238"/>
<path d="M256.033 167.945L248.717 165.009" stroke="#263238" stroke-miterlimit="10" stroke-linecap="round" stroke-linejoin="round"/>
<path d="M247.087 191.898H265.571" stroke="#263238" stroke-miterlimit="10" stroke-linecap="round" stroke-linejoin="round"/>
<path d="M247.087 194.019H265.571" stroke="#263238" stroke-miterlimit="10" stroke-linecap="round" stroke-linejoin="round"/>
<path d="M264.077 182.007C262.786 180.23 261.194 179.073 259.105 178.395C257.017 177.716 255.049 177.716 252.96 178.395C250.871 179.073 249.28 180.23 247.989 182.007C246.698 183.784 246.09 185.655 246.09 187.851H256.033H265.975C265.976 185.655 265.367 183.784 264.077 182.007Z" fill="#849EFC"/>
<path d="M256.033 187.851L264.077 182.007C265.368 183.784 265.976 185.655 265.976 187.851H256.033Z" stroke="white" stroke-width="0.5" stroke-miterlimit="10" stroke-linecap="round" stroke-linejoin="round"/>
<path d="M256.033 187.851L259.106 178.395C261.195 179.073 262.786 180.23 264.077 182.007L256.033 187.851Z" stroke="white" stroke-width="0.5" stroke-miterlimit="10" stroke-linecap="round" stroke-linejoin="round"/>
<path d="M256.033 187.851L252.96 178.395C255.049 177.716 257.017 177.716 259.105 178.395L256.033 187.851Z" stroke="white" stroke-width="0.5" stroke-miterlimit="10" stroke-linecap="round" stroke-linejoin="round"/>
<path d="M256.033 187.851L247.989 182.007C249.281 180.23 250.872 179.073 252.961 178.395L256.033 187.851Z" stroke="white" stroke-width="0.5" stroke-miterlimit="10" stroke-linecap="round" stroke-linejoin="round"/>
<path d="M256.033 187.851H246.09C246.09 185.655 246.698 183.784 247.989 182.007L256.033 187.851Z" stroke="white" stroke-width="0.5" stroke-miterlimit="10" stroke-linecap="round" stroke-linejoin="round"/>
<path d="M257.236 187.851C257.236 187.187 256.697 186.648 256.033 186.648C255.369 186.648 254.83 187.187 254.83 187.851C254.83 188.516 255.369 189.054 256.033 189.054C256.697 189.054 257.236 188.516 257.236 187.851Z" fill="#263238"/>
<path d="M256.033 187.852L246.987 187.837" stroke="#263238" stroke-miterlimit="10" stroke-linecap="round" stroke-linejoin="round"/>
<path d="M223.565 50.1087C224.373 50.2226 224.744 50.8502 224.744 51.744V51.925H224.05V51.6967C224.05 51.107 223.812 50.7463 223.28 50.7463C222.757 50.7463 222.519 51.1077 222.519 51.6967C222.519 53.1889 224.753 53.1982 224.753 55.071C224.753 55.9649 224.373 56.6018 223.565 56.7156V57.2194H222.956V56.7156C222.13 56.6012 221.758 55.9742 221.758 55.071V54.6624H222.452V55.1189C222.452 55.7179 222.699 56.06 223.232 56.06C223.774 56.06 224.011 55.7179 224.011 55.1189C224.011 53.6361 221.786 53.6168 221.786 51.744C221.786 50.8315 222.158 50.2325 222.956 50.1087V49.5763H223.564V50.1087H223.565Z" fill="white"/>
<path d="M228.434 51.6867V51.8578C228.434 52.542 228.159 53.0271 227.626 53.2268C228.187 53.4358 228.434 53.9396 228.434 54.6052V55.1183C228.434 56.1353 227.959 56.8008 226.932 56.8008C225.915 56.8008 225.439 56.1353 225.439 55.1183V54.6618H226.134V55.1656C226.134 55.7646 226.381 56.1259 226.913 56.1259C227.455 56.1259 227.692 55.7739 227.692 55.0996V54.5865C227.692 53.9303 227.417 53.6168 226.856 53.5975H226.457V52.932H226.894C227.388 52.9127 227.693 52.5992 227.693 52.0195V51.7153C227.693 51.0311 227.455 50.6791 226.914 50.6791C226.381 50.6791 226.134 51.0498 226.134 51.6488V51.9909H225.44V51.6867C225.44 50.6691 225.915 50.0135 226.933 50.0135C227.959 50.0142 228.434 50.6698 228.434 51.6867Z" fill="white"/>
<path d="M232.153 51.6963C232.153 53.7023 229.9 54.4244 229.89 55.9551V56.0596H232.077V56.7345H229.158V56.1641C229.158 54.0157 231.411 53.5971 231.411 51.7243C231.411 51.0401 231.183 50.6787 230.631 50.6787C230.089 50.6787 229.852 51.0687 229.852 51.6577V52.2474H229.158V51.7056C229.158 50.6887 229.624 50.0138 230.651 50.0138C231.687 50.0138 232.153 50.6787 232.153 51.6963Z" fill="white"/>
<path d="M233.163 56.7349H232.887V55.8125H233.6V56.6677L233.229 57.5709H232.925L233.163 56.7349Z" fill="white"/>
<path d="M235.102 52.7895C235.312 52.4282 235.644 52.2384 236.091 52.2384C236.947 52.2384 237.327 52.866 237.327 53.8165V55.1189C237.327 56.1359 236.842 56.8014 235.825 56.8014C234.807 56.8014 234.332 56.1359 234.332 55.1189V54.6723H235.026V55.1662C235.026 55.7652 235.273 56.1266 235.806 56.1266C236.338 56.1266 236.585 55.7652 236.585 55.1662V53.8731C236.585 53.2747 236.338 52.9133 235.806 52.9133C235.396 52.9133 235.121 53.1416 235.055 53.6261V53.7779H234.361L234.542 50.0801H237.165V50.745H235.207L235.102 52.7895Z" fill="white"/>
<path d="M241.026 51.677V51.8008H240.332V51.6297C240.332 51.0308 240.085 50.6787 239.543 50.6787C238.983 50.6787 238.735 51.0401 238.735 51.7535V53.2457C238.915 52.7892 239.277 52.5329 239.809 52.5329C240.665 52.5329 241.045 53.1505 241.045 54.1109V55.1185C241.045 56.1355 240.541 56.8011 239.524 56.8011C238.497 56.8011 237.994 56.1355 237.994 55.1185V51.7249C237.994 50.67 238.469 50.0138 239.524 50.0138C240.551 50.0138 241.026 50.6601 241.026 51.677ZM238.735 54.1675V55.1658C238.735 55.7648 238.983 56.1262 239.524 56.1262C240.056 56.1262 240.312 55.7648 240.312 55.1658V54.1675C240.312 53.5685 240.056 53.2078 239.524 53.2078C238.983 53.2078 238.735 53.5685 238.735 54.1675Z" fill="white"/>
<path d="M244.725 51.6867V55.0804C244.725 56.1353 244.25 56.8008 243.185 56.8008C242.168 56.8008 241.683 56.1446 241.683 55.1276V55.0039H242.377V55.1749C242.377 55.7739 242.634 56.126 243.166 56.126C243.737 56.126 243.983 55.7646 243.983 55.0611V53.5683C243.803 54.0248 243.442 54.2718 242.909 54.2718C242.054 54.2718 241.673 53.6635 241.673 52.7031V51.6861C241.673 50.6685 242.167 50.0129 243.194 50.0129C244.222 50.0142 244.725 50.6698 244.725 51.6867ZM242.406 51.6488V52.6471C242.406 53.2461 242.663 53.6075 243.195 53.6075C243.737 53.6075 243.983 53.2461 243.983 52.6471V51.6488C243.983 51.0405 243.737 50.6891 243.195 50.6891C242.663 50.6891 242.406 51.0405 242.406 51.6488Z" fill="white"/>
<path d="M245.764 56.7349H245.488V55.8125H246.201V56.6677L245.83 57.5709H245.526L245.764 56.7349Z" fill="white"/>
<path d="M250.013 51.6581V51.8671C250.013 52.542 249.775 53.0365 249.253 53.2361C249.804 53.4551 250.013 53.9776 250.013 54.6431V55.1376C250.013 56.1645 249.481 56.8014 248.445 56.8014C247.408 56.8014 246.876 56.1645 246.876 55.1376V54.6431C246.876 53.9682 247.085 53.4644 247.646 53.2361C247.104 53.0271 246.876 52.542 246.876 51.8671V51.6581C246.876 50.6318 247.418 50.0135 248.445 50.0135C249.472 50.0142 250.013 50.6318 250.013 51.6581ZM247.608 51.6774V52.0008C247.608 52.6471 247.922 52.9326 248.445 52.9326C248.968 52.9326 249.281 52.6471 249.281 52.0008V51.6774C249.281 50.9932 248.968 50.6791 248.445 50.6791C247.922 50.6791 247.608 50.9932 247.608 51.6774ZM247.608 54.5579V55.1189C247.608 55.8031 247.912 56.1266 248.445 56.1266C248.977 56.1266 249.272 55.8031 249.281 55.1189V54.5579C249.281 53.9116 248.996 53.5981 248.445 53.5981C247.894 53.5975 247.608 53.9116 247.608 54.5579Z" fill="white"/>
<path d="M253.674 51.6867V55.0804C253.674 56.1353 253.199 56.8008 252.134 56.8008C251.117 56.8008 250.632 56.1446 250.632 55.1276V55.0039H251.326V55.1749C251.326 55.7739 251.582 56.126 252.115 56.126C252.685 56.126 252.932 55.7646 252.932 55.0611V53.5683C252.752 54.0248 252.39 54.2718 251.858 54.2718C251.003 54.2718 250.622 53.6635 250.622 52.7031V51.6861C250.622 50.6685 251.116 50.0129 252.143 50.0129C253.171 50.0142 253.674 50.6698 253.674 51.6867ZM251.355 51.6488V52.6471C251.355 53.2461 251.612 53.6075 252.143 53.6075C252.686 53.6075 252.932 53.2461 252.932 52.6471V51.6488C252.932 51.0405 252.685 50.6891 252.143 50.6891C251.612 50.6891 251.355 51.0405 251.355 51.6488Z" fill="white"/>
<path d="M257.346 51.6867V51.8578C257.346 52.542 257.07 53.0271 256.538 53.2268C257.098 53.4358 257.346 53.9396 257.346 54.6052V55.1183C257.346 56.1353 256.87 56.8008 255.843 56.8008C254.826 56.8008 254.351 56.1353 254.351 55.1183V54.6618H255.045V55.1656C255.045 55.7646 255.292 56.1259 255.824 56.1259C256.366 56.1259 256.603 55.7739 256.603 55.0996V54.5865C256.603 53.9303 256.328 53.6168 255.768 53.5975H255.368V52.932H255.805C256.299 52.9127 256.604 52.5992 256.604 52.0195V51.7153C256.604 51.0311 256.367 50.6791 255.825 50.6791C255.292 50.6791 255.045 51.0498 255.045 51.6488V51.9909H254.351V51.6867C254.351 50.6691 254.826 50.0135 255.844 50.0135C256.87 50.0142 257.346 50.6698 257.346 51.6867Z" fill="white"/>
<path d="M258.783 55.8125V56.7349H258.07V55.8125H258.783Z" fill="white"/>
<path d="M259.487 51.6867C259.487 50.6691 259.991 50.0135 261.008 50.0135C262.035 50.0135 262.538 50.6691 262.538 51.6867V55.1183C262.538 56.1353 262.035 56.8008 261.008 56.8008C259.99 56.8008 259.487 56.1353 259.487 55.1183V51.6867ZM260.219 55.1662C260.219 55.7652 260.476 56.1266 261.008 56.1266C261.55 56.1266 261.796 55.7652 261.796 55.1662V51.6488C261.796 51.0405 261.549 50.6791 261.008 50.6791C260.476 50.6791 260.219 51.0405 260.219 51.6488V55.1662Z" fill="white"/>
<path d="M266.2 51.6867V51.8578C266.2 52.542 265.924 53.0271 265.392 53.2268C265.952 53.4358 266.2 53.9396 266.2 54.6052V55.1183C266.2 56.1353 265.724 56.8008 264.697 56.8008C263.68 56.8008 263.205 56.1353 263.205 55.1183V54.6618H263.899V55.1656C263.899 55.7646 264.146 56.1259 264.678 56.1259C265.22 56.1259 265.457 55.7739 265.457 55.0996V54.5865C265.457 53.9303 265.182 53.6168 264.621 53.5975H264.222V52.932H264.659C265.153 52.9127 265.458 52.5992 265.458 52.0195V51.7153C265.458 51.0311 265.22 50.6791 264.679 50.6791C264.146 50.6791 263.899 51.0498 263.899 51.6488V51.9909H263.205V51.6867C263.205 50.6691 263.68 50.0135 264.698 50.0135C265.724 50.0142 266.2 50.6698 266.2 51.6867Z" fill="white"/>
<path d="M246.462 149.232C246.462 149.232 248.214 149.097 247.675 150.58C247.136 152.063 246.192 153.006 245.518 153.14C244.845 153.275 244.44 153.275 244.44 153.275L246.462 149.232Z" stroke="#263238" stroke-miterlimit="10"/>
<path d="M231.907 148.558C231.907 148.558 230.29 148.827 230.559 150.04C230.828 151.253 231.772 153.274 232.311 153.409C232.851 153.544 233.659 152.736 233.659 152.736L231.907 148.558Z" fill="white" stroke="#263238" stroke-miterlimit="10"/>
<path d="M209.097 185.357C209.097 185.357 210.99 180.627 211.936 179.681C212.882 178.735 214.368 175.356 214.368 175.356L215.72 179.681L209.504 186.574C209.504 186.574 208.962 186.709 209.097 185.357Z" fill="white" stroke="#263238" stroke-miterlimit="10"/>
<path d="M210.679 166.465L214.04 180.137C214.236 180.937 215.068 181.406 215.854 181.159L224.033 178.595C224.752 178.369 225.173 177.623 224.992 176.89L221.709 163.556C221.517 162.778 220.724 162.31 219.95 162.519L211.694 164.744C210.945 164.947 210.493 165.711 210.679 166.465Z" fill="#263238" stroke="#263238" stroke-miterlimit="10"/>
<path d="M234.063 153.814L233.928 160.688L243.497 161.631L243.228 154.892L234.063 153.814Z" fill="white" stroke="#263238" stroke-miterlimit="10"/>
<path d="M235.141 135.889C235.141 135.889 231.367 138.585 230.559 141.415C229.75 144.245 231.098 148.019 231.637 149.097C232.176 150.176 233.928 154.893 234.602 155.701C235.275 156.51 238.375 157.858 239.453 157.588C240.531 157.318 243.901 156.914 244.305 155.566C244.709 154.218 246.866 149.097 247.135 148.288C247.404 147.48 248.214 141.684 247.404 140.472C246.596 139.259 244.035 136.698 244.035 136.698C244.035 136.698 242.822 134.811 240.261 134.272C237.702 133.733 235.141 135.889 235.141 135.889Z" fill="#263238" stroke="#263238" stroke-miterlimit="10"/>
<path d="M230.02 162.035C230.02 162.035 231.637 159.205 235.411 159.205C239.185 159.205 242.823 159.34 243.767 159.609C244.711 159.879 246.463 163.248 246.463 163.248C246.463 163.248 236.759 162.574 234.063 162.574C231.367 162.574 228.807 162.979 228.807 162.979L230.02 162.035Z" fill="white" stroke="#263238" stroke-miterlimit="10"/>
<path d="M250.236 154.758C250.236 154.758 248.349 152.601 247.944 151.793C247.54 150.984 247.809 149.906 248.214 149.636C248.618 149.367 249.291 149.232 249.291 149.232C249.291 149.232 249.696 145.458 249.561 144.919C249.426 144.38 249.965 144.245 250.639 144.38C251.312 144.515 251.582 147.614 251.582 147.614C251.582 147.614 252.526 147.883 253.334 148.692C254.143 149.501 254.278 151.253 254.278 151.792C254.278 152.331 254.278 153.948 254.278 153.948L254.547 155.835L250.774 156.779L250.236 154.758Z" fill="white" stroke="#263238" stroke-miterlimit="10"/>
<path d="M251.314 166.214C251.314 166.214 250.506 156.645 250.506 156.105C250.506 155.566 251.584 154.623 252.662 154.623C253.741 154.623 254.819 155.701 254.819 155.701C254.819 155.701 258.727 167.157 259.536 168.235C260.345 169.313 261.962 173.761 261.962 175.109C261.962 176.457 257.11 174.974 255.762 173.761C254.415 172.548 251.719 167.561 251.719 167.561L251.314 166.214Z" fill="white" stroke="#263238" stroke-miterlimit="10"/>
<path d="M223.828 203.196L222.612 216.575C222.612 216.575 221.396 247.792 221.396 249.955C221.396 252.117 221.801 267.658 222.342 271.713C222.882 275.767 222.747 283.065 222.747 283.065C222.747 283.065 221.126 283.876 221.126 284.686C221.126 285.497 221.126 286.173 221.126 286.173C221.126 286.173 219.099 287.39 218.423 288.065C217.748 288.741 216.937 290.227 217.883 291.038C218.829 291.849 225.586 294.552 226.532 294.552C227.478 294.552 229.91 294.146 230.451 293.2C230.991 292.254 230.586 287.929 230.586 287.929C230.586 287.929 231.802 286.037 231.802 285.362C231.802 284.686 231.668 283.74 231.668 282.659C231.668 281.578 232.208 269.01 232.208 269.01C232.208 269.01 234.1 242.657 234.37 242.252C234.64 241.847 235.857 223.467 235.857 223.467L238.154 223.737L241.262 246.306C241.262 246.306 245.452 267.388 245.587 268.063C245.722 268.739 247.749 279.956 247.749 279.956C247.749 279.956 247.749 282.389 247.749 283.47C247.749 284.551 249.101 286.713 249.101 286.713C249.101 286.713 248.83 290.092 249.506 291.308C250.182 292.524 252.885 292.66 254.912 291.984C256.939 291.308 256.534 288.605 256.534 287.254C256.534 285.903 256.399 284.551 256.399 284.551C256.399 284.551 256.264 282.524 256.399 281.173C256.534 279.821 255.318 275.902 255.318 275.226C255.318 274.551 255.723 258.198 255.453 254.685C255.182 251.171 252.885 240.09 252.885 240.09C252.885 240.09 251.534 219.277 251.534 218.737C251.534 218.196 251.586 203.815 251.586 203.815C251.586 203.815 246.128 205.223 236.938 204.277C227.749 203.331 223.695 202.52 223.695 202.52L223.828 203.196Z" fill="#263238" stroke="#263238" stroke-miterlimit="10"/>
<path d="M228.807 162.979C228.807 162.979 219.103 166.888 219.507 167.426C219.911 167.966 214.925 177.4 214.521 177.939C214.116 178.478 209.264 184.678 208.725 185.89C208.187 187.103 207.108 188.721 208.86 190.608C210.613 192.495 211.421 193.169 213.847 192.764C216.273 192.36 222.472 185.352 222.472 185.352C222.472 185.352 222.742 194.112 222.876 196.404C223.011 198.695 223.011 199.369 223.011 200.581C223.011 201.794 222.338 202.469 223.955 203.951C225.572 205.434 232.446 207.32 237.298 207.051C242.149 206.782 246.058 206.782 247.945 206.242C249.832 205.703 251.314 205.434 251.584 203.817C251.853 202.199 251.988 197.752 251.988 196.404C251.988 195.056 252.797 181.04 252.797 181.04C252.797 181.04 257.109 181.444 259.131 181.04C261.152 180.636 262.5 176.862 261.961 175.11C261.422 173.358 259.266 172.01 258.187 170.932C257.109 169.854 256.435 168.371 254.953 166.754C253.471 165.137 252.797 165.137 251.584 164.868C250.371 164.598 246.462 163.25 246.462 163.25C246.462 163.25 236.759 162.036 228.807 162.979Z" fill="white" stroke="#263238" stroke-miterlimit="10"/>
<path d="M237.721 202.694C239.784 201.014 242.407 198.779 243.703 197.267" stroke="#263238" stroke-miterlimit="10"/>
<path d="M234.809 205C234.809 205 235.225 204.682 235.885 204.163" stroke="#263238" stroke-miterlimit="10"/>
<path d="M241.383 203.067L244.477 200.36" stroke="#263238" stroke-miterlimit="10"/>
<path d="M222.473 185.352L220.182 171.874" stroke="#263238" stroke-miterlimit="10"/>
<path d="M218.025 173.896L221.394 178.613" stroke="#263238" stroke-miterlimit="10"/>
<path d="M230.154 164.597C230.154 164.597 235.141 169.853 237.567 176.861" stroke="#263238" stroke-miterlimit="10"/>
<path d="M235.276 168.909C235.276 168.909 238.241 174.166 239.05 176.052" stroke="#263238" stroke-miterlimit="10"/>
<path d="M253.875 166.483C253.875 166.483 254.819 170.796 254.953 171.336" stroke="#263238" stroke-miterlimit="10"/>
<path d="M255.223 175.108C254.953 176.456 252.797 181.039 252.797 181.039C252.797 181.039 256.166 177.13 256.436 176.726" stroke="#263238" stroke-miterlimit="10"/>
</svg>
