<svg width="447" height="303" viewBox="0 0 447 303" fill="none" xmlns="http://www.w3.org/2000/svg">
<path d="M367.413 3.18164H179.55V261.741H367.413V3.18164Z" fill="white" stroke="#263238" stroke-miterlimit="10" stroke-linecap="round"/>
<path d="M293.761 3.18164H179.55V78.2394H293.761V3.18164Z" fill="#263238" stroke="#263238" stroke-miterlimit="10" stroke-linecap="round"/>
<path d="M200.525 59.6293V21.4626H193.502V15.5283H215.498V21.4626H208.583V59.6293H200.525Z" fill="white"/>
<path d="M216.207 59.6293L225.027 15.5283H233.63L242.45 59.6293H234.991L233.249 49.4478H225.572L223.776 59.6293H216.207ZM226.388 44.3298H232.376L229.382 25.8178L226.388 44.3298Z" fill="white"/>
<path d="M243.864 59.6293L252.739 36.2179L244.137 15.5283H251.65L257.367 29.1944L262.376 15.5283H269.345L260.851 37.7425L269.998 59.6293H262.485L256.223 44.8204L250.778 59.6293H243.864Z" fill="white"/>
<path d="M340.668 107.989H357.032" stroke="#263238" stroke-miterlimit="10" stroke-linecap="round"/>
<path d="M315.314 107.989H337.942" stroke="#263238" stroke-miterlimit="10" stroke-linecap="round"/>
<path d="M268.425 107.989H311.498" stroke="#263238" stroke-miterlimit="10" stroke-linecap="round"/>
<path d="M206.542 107.989H265.698" stroke="#263238" stroke-miterlimit="10" stroke-linecap="round"/>
<path d="M190.921 107.989H203.27" stroke="#263238" stroke-miterlimit="10" stroke-linecap="round"/>
<path d="M320.222 120.35H357.032" stroke="#263238" stroke-miterlimit="10" stroke-linecap="round"/>
<path d="M252.068 120.35H316.95" stroke="#263238" stroke-miterlimit="10" stroke-linecap="round"/>
<path d="M221.262 120.35H247.706" stroke="#263238" stroke-miterlimit="10" stroke-linecap="round"/>
<path d="M190.921 120.35H216.901" stroke="#263238" stroke-miterlimit="10" stroke-linecap="round"/>
<path d="M277.421 132.708H357.032" stroke="#263238" stroke-miterlimit="10" stroke-linecap="round"/>
<path d="M246.889 132.708H273.482" stroke="#263238" stroke-miterlimit="10" stroke-linecap="round"/>
<path d="M207.834 132.708H244.435" stroke="#263238" stroke-miterlimit="10" stroke-linecap="round"/>
<path d="M190.921 132.708H205.451" stroke="#263238" stroke-miterlimit="10" stroke-linecap="round"/>
<path d="M356.043 142.595H189.933V249.38H356.043V142.595Z" stroke="#263238" stroke-miterlimit="10" stroke-linecap="round"/>
<path d="M234.621 162.864H355.548" stroke="#263238" stroke-miterlimit="10" stroke-linecap="round"/>
<path d="M190.427 162.864H230.531" stroke="#263238" stroke-miterlimit="10" stroke-linecap="round"/>
<path d="M190.427 177.202H355.548" stroke="#263238" stroke-miterlimit="10" stroke-linecap="round"/>
<path d="M333.58 191.539H355.548" stroke="#263238" stroke-miterlimit="10" stroke-linecap="round"/>
<path d="M190.427 191.539H331.671" stroke="#263238" stroke-miterlimit="10" stroke-linecap="round"/>
<path d="M258.066 205.876H355.548" stroke="#263238" stroke-miterlimit="10" stroke-linecap="round"/>
<path d="M190.427 205.876H255.612" stroke="#263238" stroke-miterlimit="10" stroke-linecap="round"/>
<path d="M230.531 220.213H355.548" stroke="#263238" stroke-miterlimit="10" stroke-linecap="round"/>
<path d="M190.427 220.213H225.352" stroke="#263238" stroke-miterlimit="10" stroke-linecap="round"/>
<path d="M261.064 234.55H355.549" stroke="#263238" stroke-miterlimit="10" stroke-linecap="round"/>
<path d="M190.427 234.55H257.793" stroke="#263238" stroke-miterlimit="10" stroke-linecap="round"/>
<path d="M319.459 231.37V248.887" stroke="#263238" stroke-miterlimit="10" stroke-linecap="round"/>
<path d="M319.459 155.584V228.371" stroke="#263238" stroke-miterlimit="10" stroke-linecap="round"/>
<path d="M319.459 143.585V150.949" stroke="#263238" stroke-miterlimit="10" stroke-linecap="round"/>
<path d="M442.589 221.585C437.958 225.624 430.897 225.003 427.043 220.217L346.369 120.027L355.027 112.475L443.344 205.997C447.562 210.465 447.22 217.545 442.589 221.585Z" fill="#263238" stroke="#263238" stroke-miterlimit="10" stroke-linecap="round"/>
<path d="M365.173 120.901L353.919 130.72C352.405 132.041 350.107 131.884 348.785 130.37C347.464 128.856 347.621 126.558 349.135 125.237L360.39 115.418C361.904 114.097 364.202 114.254 365.523 115.768C366.844 117.282 366.687 119.58 365.173 120.901Z" fill="#179AA2" stroke="#263238" stroke-miterlimit="10" stroke-linecap="round"/>
<path d="M283.583 41.6483C262.226 60.2798 260.016 92.697 278.648 114.055C297.279 135.413 329.696 137.621 351.054 118.99C372.412 100.358 374.621 67.9412 355.989 46.5834C337.358 25.2256 304.941 23.0159 283.583 41.6483ZM346.62 113.908C328.07 130.091 299.913 128.171 283.729 109.621C267.545 91.0707 269.465 62.9133 288.016 46.7297C306.566 30.5461 334.723 32.4659 350.907 51.0162C367.09 69.5666 365.171 97.7239 346.62 113.908Z" fill="#179AA2" stroke="#263238" stroke-miterlimit="10" stroke-linecap="round"/>
<path d="M370.009 142.293L367.323 149.383" stroke="#263238" stroke-miterlimit="10" stroke-linecap="round"/>
<path d="M202.155 54.8806L154.966 54.9409L147.861 54.9502L100.672 55.0104C97.3579 55.0145 94.3953 56.4427 92.3289 58.6974C90.0075 60.8851 88.6033 64.0262 88.7657 67.4782L90.9648 114.182L91.1253 239.364C91.133 245.044 95.7424 249.642 101.422 249.634L145.059 249.578L157.082 249.563L200.72 249.507C203.71 249.503 206.393 248.215 208.269 246.175C210.304 244.293 211.585 241.608 211.581 238.618L211.421 113.436L213.501 66.7267C213.789 60.2654 208.623 54.8722 202.155 54.8806Z" fill="white" stroke="#263238" stroke-miterlimit="10"/>
<path d="M205.905 112.013L207.813 68.4372C207.987 64.4779 204.82 61.1746 200.858 61.1792L101.985 61.306C98.022 61.3112 94.8648 64.6223 95.0486 68.5812L97.0679 112.153L205.905 112.013Z" fill="#263238" stroke="#263238" stroke-miterlimit="10"/>
<path d="M201.519 72.4981L100.886 72.623L100.928 106.658L201.561 106.533L201.519 72.4981Z" fill="#696969"/>
<path d="M196.558 77.4712L105.859 77.5837L105.889 101.684L196.588 101.571L196.558 77.4712Z" fill="#C2C2C2"/>
<path d="M147.507 140.815L105.598 140.868C103.15 140.871 101.162 138.889 101.159 136.44L101.151 130.405C101.148 127.957 103.13 125.969 105.578 125.965L147.488 125.911C149.936 125.908 151.923 127.89 151.927 130.339L151.935 136.374C151.938 138.824 149.956 140.811 147.507 140.815Z" fill="#696969" stroke="#263238" stroke-miterlimit="10"/>
<path d="M111.816 126.142L111.835 140.86" stroke="#263238" stroke-miterlimit="10"/>
<path d="M122.056 126.129L122.075 140.847" stroke="#263238" stroke-miterlimit="10"/>
<path d="M132.297 126.116L132.316 140.834" stroke="#263238" stroke-miterlimit="10"/>
<path d="M142.537 126.103L142.555 140.821" stroke="#263238" stroke-miterlimit="10"/>
<path d="M178.793 145.762L168.979 145.774C166.7 145.777 164.85 143.933 164.848 141.654L164.843 138.208C164.841 135.929 166.685 134.08 168.964 134.077L178.778 134.064C181.057 134.062 182.906 135.906 182.909 138.185L182.913 141.631C182.916 143.909 181.071 145.759 178.793 145.762Z" fill="#C2C2C2" stroke="#263238" stroke-miterlimit="10"/>
<path d="M115.438 164.057L105.625 164.07C103.346 164.072 101.496 162.228 101.494 159.949L101.486 154.43C101.484 152.151 103.328 150.301 105.607 150.299L115.421 150.286C117.7 150.284 119.549 152.128 119.552 154.407L119.559 159.926C119.562 162.204 117.717 164.054 115.438 164.057Z" fill="#C2C2C2" stroke="#263238" stroke-miterlimit="10"/>
<path d="M136.614 164.03L126.8 164.042C124.521 164.045 122.671 162.201 122.669 159.922L122.662 154.403C122.659 152.124 124.504 150.274 126.782 150.272L136.596 150.259C138.875 150.256 140.725 152.1 140.727 154.379L140.734 159.899C140.737 162.177 138.892 164.026 136.614 164.03Z" fill="#C2C2C2" stroke="#263238" stroke-miterlimit="10"/>
<path d="M157.789 164.003L147.975 164.016C145.696 164.018 143.846 162.174 143.844 159.895L143.837 154.376C143.834 152.097 145.678 150.248 147.957 150.245L157.771 150.232C160.05 150.23 161.899 152.074 161.902 154.353L161.909 159.872C161.912 162.15 160.068 164 157.789 164.003Z" fill="#C2C2C2" stroke="#263238" stroke-miterlimit="10"/>
<path d="M178.964 163.974L169.15 163.987C166.871 163.99 165.022 162.145 165.019 159.867L165.012 154.347C165.009 152.069 166.854 150.219 169.132 150.216L178.946 150.204C181.225 150.201 183.075 152.045 183.077 154.324L183.084 159.843C183.087 162.122 181.243 163.972 178.964 163.974Z" fill="#C2C2C2" stroke="#263238" stroke-miterlimit="10"/>
<path d="M200.139 163.948L190.325 163.961C188.046 163.963 186.196 162.119 186.194 159.84L186.187 154.321C186.184 152.042 188.028 150.193 190.307 150.19L200.121 150.177C202.4 150.175 204.249 152.019 204.252 154.298L204.259 159.817C204.262 162.095 202.417 163.945 200.139 163.948Z" fill="#C2C2C2" stroke="#263238" stroke-miterlimit="10"/>
<path d="M115.462 182.565L105.648 182.578C103.369 182.581 101.52 180.737 101.517 178.458L101.51 172.938C101.507 170.66 103.352 168.81 105.63 168.807L115.444 168.795C117.723 168.792 119.573 170.636 119.575 172.915L119.582 178.434C119.585 180.713 117.741 182.563 115.462 182.565Z" fill="#C2C2C2" stroke="#263238" stroke-miterlimit="10"/>
<path d="M136.637 182.539L126.823 182.552C124.544 182.554 122.694 180.71 122.692 178.431L122.685 172.912C122.682 170.633 124.526 168.784 126.805 168.781L136.619 168.768C138.898 168.766 140.747 170.61 140.75 172.889L140.757 178.408C140.76 180.686 138.916 182.536 136.637 182.539Z" fill="#696969" stroke="#263238" stroke-miterlimit="10"/>
<path d="M157.812 182.511L147.999 182.524C145.72 182.527 143.87 180.683 143.868 178.404L143.861 172.884C143.858 170.606 145.702 168.756 147.981 168.754L157.795 168.741C160.074 168.738 161.923 170.582 161.926 172.861L161.933 178.381C161.937 180.659 160.091 182.509 157.812 182.511Z" fill="#696969" stroke="#263238" stroke-miterlimit="10"/>
<path d="M178.987 182.485L169.173 182.498C166.895 182.5 165.045 180.656 165.043 178.377L165.035 172.858C165.033 170.579 166.877 168.73 169.156 168.727L178.97 168.714C181.248 168.712 183.098 170.556 183.101 172.835L183.108 178.354C183.112 180.633 181.266 182.483 178.987 182.485Z" fill="#696969" stroke="#263238" stroke-miterlimit="10"/>
<path d="M200.162 182.458L190.348 182.471C188.069 182.473 186.22 180.629 186.217 178.35L186.21 172.831C186.208 170.552 188.052 168.703 190.331 168.7L200.144 168.687C202.423 168.685 204.273 170.529 204.275 172.808L204.283 178.327C204.286 180.606 202.441 182.455 200.162 182.458Z" fill="#C2C2C2" stroke="#263238" stroke-miterlimit="10"/>
<path d="M115.485 201.076L105.671 201.089C103.393 201.092 101.543 199.247 101.541 196.968L101.533 191.449C101.531 189.17 103.375 187.321 105.654 187.318L115.468 187.305C117.747 187.303 119.596 189.147 119.599 191.426L119.606 196.945C119.61 199.224 117.765 201.073 115.485 201.076Z" fill="#C2C2C2" stroke="#263238" stroke-miterlimit="10"/>
<path d="M136.662 201.049L126.848 201.061C124.569 201.064 122.719 199.22 122.717 196.941L122.71 191.422C122.707 189.143 124.551 187.293 126.83 187.291L136.644 187.278C138.923 187.275 140.772 189.12 140.775 191.398L140.782 196.918C140.785 199.196 138.94 201.045 136.662 201.049Z" fill="#696969" stroke="#263238" stroke-miterlimit="10"/>
<path d="M157.836 201.022L148.023 201.035C145.744 201.038 143.894 199.193 143.892 196.914L143.884 191.395C143.882 189.116 145.726 187.267 148.005 187.264L157.819 187.251C160.098 187.249 161.947 189.093 161.95 191.372L161.957 196.891C161.96 199.169 160.115 201.019 157.836 201.022Z" fill="#696969" stroke="#263238" stroke-miterlimit="10"/>
<path d="M179.011 200.995L169.197 201.008C166.919 201.01 165.069 199.166 165.066 196.887L165.059 191.368C165.057 189.089 166.901 187.24 169.18 187.237L178.994 187.224C181.272 187.222 183.122 189.066 183.125 191.345L183.132 196.864C183.135 199.142 181.29 200.991 179.011 200.995Z" fill="#696969" stroke="#263238" stroke-miterlimit="10"/>
<path d="M200.186 200.967L190.373 200.98C188.094 200.982 186.244 199.138 186.242 196.859L186.235 191.34C186.232 189.061 188.076 187.211 190.355 187.209L200.169 187.196C202.448 187.194 204.297 189.038 204.3 191.317L204.307 196.836C204.31 199.115 202.465 200.964 200.186 200.967Z" fill="#C2C2C2" stroke="#263238" stroke-miterlimit="10"/>
<path d="M115.51 219.586L105.696 219.598C103.417 219.601 101.567 217.757 101.565 215.478L101.558 209.959C101.555 207.68 103.4 205.83 105.678 205.828L115.492 205.815C117.771 205.812 119.621 207.657 119.623 209.935L119.63 215.455C119.633 217.734 117.788 219.583 115.51 219.586Z" fill="#179AA2" stroke="#263238" stroke-miterlimit="10" stroke-linecap="round"/>
<path d="M136.685 219.559L126.871 219.571C124.592 219.574 122.742 217.73 122.74 215.451L122.733 209.932C122.73 207.653 124.574 205.803 126.853 205.801L136.667 205.788C138.946 205.785 140.795 207.63 140.798 209.908L140.805 215.428C140.808 217.706 138.963 219.555 136.685 219.559Z" fill="#696969" stroke="#263238" stroke-miterlimit="10"/>
<path d="M157.86 219.532L148.046 219.545C145.767 219.548 143.918 217.703 143.915 215.424L143.908 209.905C143.905 207.626 145.75 205.777 148.028 205.774L157.842 205.761C160.121 205.759 161.971 207.603 161.973 209.882L161.98 215.401C161.983 217.679 160.139 219.53 157.86 219.532Z" fill="#696969" stroke="#263238" stroke-miterlimit="10"/>
<path d="M179.035 219.504L169.221 219.517C166.942 219.519 165.093 217.675 165.09 215.396L165.083 209.877C165.081 207.598 166.925 205.748 169.204 205.746L179.018 205.733C181.296 205.731 183.146 207.575 183.148 209.854L183.156 215.373C183.158 217.652 181.314 219.501 179.035 219.504Z" fill="#696969" stroke="#263238" stroke-miterlimit="10"/>
<path d="M115.533 238.096L105.719 238.108C103.441 238.111 101.591 236.267 101.588 233.988L101.581 228.469C101.579 226.19 103.423 224.34 105.702 224.338L115.516 224.325C117.794 224.322 119.644 226.167 119.646 228.445L119.654 233.965C119.657 236.243 117.812 238.093 115.533 238.096Z" fill="#179AA2" stroke="#263238" stroke-miterlimit="10" stroke-linecap="round"/>
<path d="M136.708 238.069L126.894 238.082C124.615 238.085 122.766 236.24 122.763 233.962L122.756 228.442C122.754 226.163 124.598 224.314 126.877 224.311L136.69 224.299C138.969 224.296 140.819 226.14 140.821 228.419L140.828 233.938C140.832 236.217 138.987 238.067 136.708 238.069Z" fill="#696969" stroke="#263238" stroke-miterlimit="10"/>
<path d="M157.884 238.04L148.07 238.053C145.791 238.056 143.942 236.211 143.939 233.933L143.932 228.413C143.929 226.134 145.774 224.285 148.052 224.282L157.866 224.27C160.145 224.267 161.995 226.111 161.997 228.39L162.004 233.909C162.007 236.188 160.163 238.038 157.884 238.04Z" fill="#696969" stroke="#263238" stroke-miterlimit="10"/>
<path d="M179.059 238.014L169.245 238.027C166.966 238.029 165.116 236.185 165.114 233.906L165.107 228.387C165.104 226.108 166.948 224.258 169.227 224.256L179.041 224.243C181.32 224.241 183.169 226.085 183.172 228.364L183.179 233.883C183.182 236.161 181.337 238.011 179.059 238.014Z" fill="#C2C2C2" stroke="#263238" stroke-miterlimit="10"/>
<path d="M201.579 205.705L188.992 205.721C187.479 205.723 186.254 206.951 186.257 208.464L186.261 212.314L186.267 216.756L186.291 235.266C186.292 236.779 187.52 238.004 189.034 238.002L201.62 237.986C203.134 237.984 204.359 236.756 204.356 235.243L204.332 216.733L204.327 212.291L204.322 208.441C204.32 206.928 203.092 205.703 201.579 205.705Z" fill="#C2C2C2" stroke="#263238" stroke-miterlimit="10"/>
<path d="M200.116 145.733L190.302 145.746C188.023 145.749 186.174 143.904 186.171 141.626L186.167 138.18C186.164 135.901 188.008 134.051 190.287 134.049L200.101 134.036C202.38 134.033 204.229 135.878 204.232 138.156L204.236 141.602C204.239 143.881 202.395 145.731 200.116 145.733Z" fill="#179AA2" stroke="#263238" stroke-miterlimit="10" stroke-linecap="round"/>
<path d="M189.656 142.789C189.102 142.182 188.825 141.363 188.824 140.331C188.822 139.3 189.098 138.479 189.649 137.871C190.201 137.262 190.958 136.958 191.919 136.956C192.882 136.955 193.638 137.258 194.19 137.865C194.742 138.471 195.018 139.291 195.02 140.324C195.021 141.356 194.746 142.176 194.196 142.784C193.646 143.393 192.89 143.697 191.927 143.699C190.968 143.699 190.209 143.396 189.656 142.789ZM193.487 142.25C193.857 141.782 194.043 141.139 194.041 140.324C194.04 139.509 193.853 138.867 193.481 138.399C193.109 137.93 192.589 137.697 191.921 137.697C191.249 137.699 190.728 137.933 190.358 138.402C189.988 138.872 189.803 139.514 189.804 140.329C189.804 141.144 189.992 141.786 190.364 142.254C190.737 142.722 191.258 142.955 191.927 142.955C192.596 142.955 193.116 142.72 193.487 142.25Z" fill="white"/>
<path d="M196.515 143.482C196.432 143.411 196.389 143.311 196.389 143.182L196.382 137.636C196.382 137.453 196.431 137.309 196.53 137.203C196.629 137.098 196.754 137.045 196.903 137.045C197.011 137.045 197.121 137.075 197.235 137.136C197.35 137.197 197.448 137.287 197.531 137.406L200.871 142.257L200.865 137.448C200.865 137.32 200.906 137.22 200.989 137.148C201.07 137.075 201.172 137.039 201.291 137.039C201.404 137.039 201.504 137.075 201.589 137.147C201.674 137.218 201.717 137.319 201.717 137.446L201.725 142.993C201.725 143.173 201.671 143.316 201.562 143.424C201.454 143.531 201.32 143.584 201.162 143.584C201.058 143.584 200.955 143.559 200.851 143.507C200.747 143.455 200.661 143.38 200.595 143.282L197.24 138.432L197.246 143.181C197.246 143.309 197.204 143.409 197.119 143.482C197.033 143.554 196.933 143.59 196.816 143.59C196.7 143.589 196.599 143.554 196.515 143.482Z" fill="white"/>
<path d="M107.116 160.941C107.015 160.871 106.936 160.77 106.878 160.639L104.738 155.851L104.744 160.838C104.743 160.942 104.701 161.023 104.618 161.081C104.534 161.139 104.434 161.169 104.318 161.168C104.205 161.169 104.106 161.14 104.02 161.082C103.934 161.024 103.892 160.943 103.892 160.839L103.885 155.416C103.885 155.239 103.954 155.09 104.093 154.971C104.232 154.852 104.394 154.792 104.581 154.792C104.733 154.793 104.878 154.837 105.013 154.927C105.149 155.017 105.259 155.154 105.342 155.337L107.427 159.951L109.5 155.332C109.578 155.149 109.686 155.012 109.822 154.922C109.957 154.831 110.102 154.786 110.254 154.786C110.441 154.786 110.604 154.844 110.745 154.964C110.886 155.083 110.956 155.231 110.956 155.408L110.963 160.831C110.963 160.935 110.92 161.016 110.834 161.074C110.749 161.132 110.65 161.161 110.537 161.162C110.421 161.162 110.321 161.133 110.237 161.075C110.153 161.017 110.111 160.935 110.111 160.832L110.105 155.845L107.977 160.638C107.918 160.769 107.84 160.87 107.739 160.941C107.638 161.01 107.534 161.047 107.428 161.046C107.322 161.046 107.218 161.011 107.116 160.941Z" fill="white"/>
<path d="M113.757 160.859C113.292 160.56 112.945 160.161 112.711 159.66C112.478 159.16 112.361 158.594 112.36 157.961C112.359 157.492 112.43 157.05 112.571 156.638C112.712 156.225 112.913 155.865 113.172 155.559C113.431 155.251 113.757 155.009 114.151 154.831C114.544 154.653 114.981 154.565 115.46 154.564C116.053 154.564 116.604 154.705 117.114 154.988C117.249 155.061 117.316 155.166 117.317 155.304C117.317 155.402 117.283 155.487 117.216 155.561C117.149 155.634 117.068 155.671 116.974 155.672C116.927 155.672 116.877 155.659 116.822 155.635C116.81 155.629 116.773 155.609 116.71 155.577C116.648 155.546 116.596 155.521 116.557 155.504C116.516 155.488 116.456 155.465 116.373 155.436C116.291 155.407 116.212 155.384 116.135 155.367C116.06 155.351 115.964 155.336 115.849 155.324C115.734 155.312 115.616 155.306 115.494 155.307C115.198 155.307 114.929 155.353 114.688 155.445C114.447 155.537 114.244 155.665 114.08 155.827C113.914 155.989 113.777 156.181 113.663 156.404C113.551 156.627 113.469 156.868 113.417 157.126C113.365 157.383 113.34 157.658 113.34 157.948C113.34 158.238 113.366 158.511 113.419 158.768C113.472 159.024 113.554 159.263 113.667 159.484C113.782 159.705 113.921 159.895 114.087 160.054C114.254 160.213 114.46 160.338 114.706 160.429C114.953 160.52 115.226 160.565 115.529 160.565C115.8 160.564 116.038 160.528 116.243 160.456C116.447 160.384 116.669 160.281 116.906 160.146C116.967 160.113 117.026 160.096 117.081 160.096C117.175 160.095 117.256 160.13 117.324 160.201C117.391 160.271 117.424 160.353 117.425 160.448C117.425 160.589 117.349 160.708 117.197 160.805C116.687 161.139 116.085 161.306 115.393 161.307C114.767 161.307 114.222 161.158 113.757 160.859Z" fill="white"/>
<path d="M109.177 233.038L106.026 233.043L105.487 234.436C105.411 234.637 105.269 234.738 105.062 234.739C104.942 234.739 104.837 234.701 104.743 234.625C104.649 234.548 104.603 234.452 104.603 234.337C104.603 234.288 104.615 234.231 104.639 234.167L106.808 228.764C106.912 228.504 107.024 228.332 107.144 228.248C107.264 228.164 107.415 228.121 107.595 228.121C107.775 228.12 107.925 228.162 108.046 228.246C108.167 228.329 108.279 228.501 108.383 228.761L110.566 234.159C110.591 234.223 110.602 234.279 110.603 234.328C110.603 234.444 110.556 234.54 110.462 234.616C110.367 234.692 110.26 234.731 110.142 234.731C109.937 234.732 109.796 234.631 109.72 234.43L109.177 233.038ZM107.597 228.992L106.287 232.378L108.915 232.374L107.597 228.992Z" fill="white"/>
<path d="M112.829 234.354C112.364 234.055 112.016 233.655 111.784 233.155C111.551 232.654 111.434 232.089 111.433 231.456C111.432 230.987 111.503 230.545 111.644 230.132C111.785 229.719 111.985 229.36 112.245 229.053C112.504 228.746 112.831 228.503 113.225 228.326C113.618 228.148 114.055 228.059 114.534 228.059C115.126 228.058 115.678 228.2 116.188 228.483C116.322 228.555 116.39 228.661 116.39 228.798C116.39 228.896 116.357 228.982 116.29 229.055C116.222 229.128 116.142 229.165 116.047 229.165C116.001 229.165 115.951 229.154 115.897 229.129C115.884 229.123 115.848 229.104 115.785 229.072C115.722 229.039 115.671 229.015 115.632 228.999C115.592 228.982 115.53 228.959 115.448 228.93C115.366 228.901 115.286 228.878 115.209 228.862C115.133 228.845 115.038 228.831 114.923 228.819C114.808 228.807 114.69 228.801 114.568 228.801C114.272 228.802 114.003 228.848 113.762 228.94C113.521 229.032 113.318 229.159 113.154 229.321C112.989 229.484 112.85 229.676 112.738 229.899C112.626 230.122 112.543 230.363 112.492 230.62C112.439 230.879 112.414 231.153 112.414 231.443C112.415 231.734 112.441 232.006 112.494 232.263C112.546 232.52 112.628 232.758 112.741 232.979C112.855 233.201 112.995 233.39 113.162 233.549C113.328 233.707 113.534 233.833 113.781 233.924C114.027 234.015 114.3 234.06 114.603 234.06C114.874 234.059 115.113 234.023 115.317 233.951C115.521 233.879 115.743 233.775 115.981 233.642C116.042 233.608 116.1 233.59 116.155 233.591C116.25 233.591 116.33 233.626 116.398 233.696C116.465 233.766 116.499 233.848 116.499 233.943C116.499 234.083 116.424 234.203 116.271 234.301C115.761 234.634 115.16 234.801 114.467 234.802C113.839 234.801 113.293 234.652 112.829 234.354Z" fill="white"/>
<path d="M109.184 215.68C108.719 215.381 108.37 214.981 108.138 214.481C107.905 213.981 107.788 213.415 107.787 212.783C107.787 212.313 107.857 211.871 107.999 211.458C108.14 211.045 108.341 210.687 108.6 210.379C108.859 210.072 109.185 209.83 109.579 209.652C109.973 209.474 110.409 209.386 110.888 209.385C111.48 209.384 112.032 209.526 112.543 209.809C112.677 209.882 112.745 209.987 112.745 210.124C112.745 210.222 112.711 210.308 112.644 210.381C112.577 210.454 112.497 210.491 112.402 210.491C112.356 210.491 112.306 210.48 112.251 210.455C112.238 210.448 112.201 210.43 112.139 210.397C112.076 210.366 112.025 210.341 111.985 210.324C111.946 210.308 111.884 210.285 111.802 210.256C111.719 210.227 111.64 210.204 111.563 210.188C111.487 210.17 111.391 210.157 111.277 210.144C111.162 210.132 111.044 210.127 110.922 210.127C110.626 210.127 110.357 210.173 110.116 210.266C109.875 210.358 109.672 210.485 109.508 210.647C109.343 210.808 109.204 211.001 109.092 211.225C108.979 211.448 108.897 211.688 108.845 211.946C108.793 212.204 108.768 212.478 108.768 212.769C108.769 213.059 108.795 213.332 108.848 213.589C108.9 213.845 108.982 214.084 109.095 214.305C109.209 214.526 109.349 214.716 109.516 214.875C109.682 215.033 109.888 215.159 110.134 215.25C110.38 215.341 110.654 215.386 110.957 215.386C111.228 215.385 111.467 215.349 111.671 215.277C111.875 215.205 112.097 215.101 112.335 214.967C112.396 214.934 112.454 214.916 112.509 214.917C112.604 214.916 112.684 214.952 112.752 215.022C112.819 215.092 112.853 215.174 112.853 215.269C112.853 215.409 112.777 215.528 112.625 215.626C112.115 215.96 111.515 216.127 110.821 216.128C110.193 216.128 109.648 215.978 109.184 215.68Z" fill="white"/>
<path d="M106.811 175.944C106.532 175.61 106.391 175.182 106.39 174.66C106.389 174.153 106.53 173.728 106.811 173.386C107.091 173.043 107.469 172.872 107.946 172.871C108.209 172.871 108.443 172.922 108.649 173.023C108.855 173.125 109.02 173.262 109.142 173.435C109.265 173.608 109.357 173.797 109.42 174.005C109.483 174.213 109.515 174.429 109.515 174.655C109.515 175.165 109.373 175.59 109.09 175.931C108.806 176.272 108.426 176.442 107.95 176.443C107.47 176.444 107.091 176.278 106.811 175.944ZM108.465 175.742C108.601 175.617 108.695 175.462 108.748 175.278C108.801 175.095 108.828 174.888 108.828 174.656C108.827 174.424 108.8 174.217 108.747 174.035C108.693 173.853 108.598 173.7 108.462 173.576C108.326 173.453 108.154 173.392 107.946 173.392C107.743 173.392 107.572 173.453 107.439 173.577C107.304 173.702 107.21 173.854 107.157 174.036C107.104 174.218 107.078 174.424 107.078 174.656C107.079 174.889 107.105 175.096 107.159 175.279C107.213 175.462 107.307 175.616 107.442 175.741C107.577 175.866 107.746 175.928 107.95 175.927C108.157 175.93 108.329 175.868 108.465 175.742ZM108.023 179.579C107.965 179.529 107.936 179.467 107.935 179.393C107.935 179.351 107.953 179.296 107.99 179.233L111.559 172.899C111.626 172.78 111.715 172.72 111.824 172.72C111.895 172.72 111.956 172.747 112.008 172.8C112.06 172.853 112.086 172.917 112.086 172.99C112.086 173.039 112.067 173.104 112.027 173.182L108.467 179.48C108.403 179.596 108.32 179.654 108.22 179.655C108.147 179.654 108.081 179.629 108.023 179.579ZM111.226 178.97C110.946 178.633 110.806 178.205 110.805 177.685C110.804 177.179 110.946 176.755 111.229 176.414C111.513 176.073 111.891 175.903 112.365 175.902C112.624 175.901 112.856 175.952 113.063 176.055C113.269 176.156 113.432 176.293 113.554 176.464C113.674 176.635 113.767 176.824 113.829 177.031C113.892 177.238 113.923 177.455 113.924 177.68C113.924 178.01 113.864 178.309 113.744 178.578C113.624 178.847 113.444 179.063 113.204 179.227C112.965 179.392 112.687 179.474 112.369 179.474C111.887 179.476 111.506 179.308 111.226 178.97ZM112.876 178.766C113.011 178.642 113.105 178.49 113.158 178.308C113.211 178.125 113.237 177.918 113.237 177.682C113.237 177.511 113.221 177.353 113.19 177.208C113.159 177.063 113.111 176.93 113.045 176.808C112.98 176.686 112.888 176.59 112.772 176.52C112.656 176.449 112.521 176.415 112.365 176.415C112.157 176.415 111.985 176.477 111.85 176.603C111.714 176.728 111.62 176.882 111.568 177.063C111.516 177.245 111.491 177.452 111.492 177.684C111.492 177.916 111.518 178.123 111.57 178.305C111.622 178.487 111.716 178.64 111.853 178.764C111.989 178.889 112.16 178.952 112.369 178.951C112.572 178.952 112.743 178.89 112.876 178.766Z" fill="white"/>
<path d="M130.87 179.185C130.776 179.104 130.729 179.003 130.728 178.88C130.728 178.826 130.743 178.759 130.773 178.683L133.01 173.527L129.993 173.532C129.874 173.532 129.782 173.496 129.718 173.424C129.653 173.352 129.622 173.266 129.621 173.165C129.621 173.068 129.653 172.982 129.716 172.909C129.78 172.835 129.872 172.799 129.991 172.798L133.499 172.794C133.665 172.794 133.791 172.832 133.88 172.91C133.968 172.987 134.013 173.093 134.013 173.224C134.013 173.359 133.986 173.49 133.932 173.618L131.593 179.048C131.52 179.22 131.388 179.305 131.199 179.305C131.075 179.306 130.965 179.266 130.87 179.185Z" fill="white"/>
<path d="M151.911 179.172C151.573 179.033 151.305 178.822 151.104 178.539C150.903 178.256 150.803 177.919 150.803 177.531C150.802 177.119 150.914 176.764 151.14 176.466C151.366 176.168 151.686 175.976 152.101 175.89C151.705 175.796 151.405 175.617 151.206 175.353C151.005 175.089 150.905 174.767 150.904 174.389C150.904 174.016 151.001 173.695 151.197 173.427C151.392 173.158 151.65 172.959 151.97 172.83C152.29 172.701 152.652 172.637 153.055 172.637C153.358 172.636 153.638 172.673 153.897 172.747C154.157 172.823 154.386 172.931 154.583 173.072C154.781 173.213 154.935 173.397 155.049 173.623C155.162 173.849 155.219 174.102 155.219 174.383C155.219 174.767 155.118 175.092 154.913 175.355C154.709 175.617 154.416 175.795 154.034 175.887C154.462 176.003 154.784 176.2 155.001 176.479C155.219 176.757 155.327 177.106 155.327 177.525C155.328 177.913 155.227 178.249 155.027 178.533C154.826 178.817 154.557 179.028 154.219 179.168C153.882 179.307 153.496 179.377 153.063 179.378C152.632 179.379 152.247 179.311 151.911 179.172ZM154.028 178.395C154.278 178.204 154.403 177.916 154.403 177.532C154.403 177.132 154.275 176.824 154.021 176.609C153.768 176.395 153.449 176.287 153.064 176.288C152.676 176.288 152.355 176.396 152.101 176.612C151.846 176.828 151.719 177.136 151.72 177.535C151.72 177.795 151.783 178.013 151.909 178.19C152.034 178.367 152.195 178.493 152.392 178.569C152.59 178.645 152.814 178.683 153.068 178.682C153.457 178.682 153.778 178.586 154.028 178.395ZM154.003 175.184C154.231 174.997 154.344 174.724 154.344 174.367C154.343 174.003 154.221 173.735 153.977 173.562C153.732 173.388 153.426 173.301 153.06 173.302C152.889 173.302 152.73 173.322 152.582 173.362C152.433 173.402 152.298 173.463 152.174 173.544C152.051 173.624 151.954 173.736 151.884 173.879C151.814 174.021 151.779 174.185 151.779 174.372C151.78 174.729 151.895 175.002 152.124 175.189C152.353 175.376 152.666 175.47 153.063 175.469C153.462 175.466 153.776 175.373 154.003 175.184Z" fill="white"/>
<path d="M171.899 179.015C171.786 178.96 171.729 178.863 171.729 178.726C171.729 178.622 171.762 178.526 171.827 178.439C171.893 178.352 171.971 178.308 172.062 178.308C172.096 178.308 172.135 178.318 172.177 178.336C172.571 178.519 172.956 178.609 173.332 178.609C173.537 178.608 173.721 178.584 173.886 178.537C174.051 178.489 174.191 178.424 174.31 178.342C174.427 178.259 174.529 178.154 174.616 178.025C174.703 177.896 174.772 177.761 174.826 177.617C174.879 177.474 174.921 177.306 174.953 177.113C174.985 176.921 175.006 176.731 175.017 176.543C175.027 176.354 175.032 176.144 175.032 175.908C174.959 176.155 174.775 176.374 174.481 176.566C174.186 176.758 173.84 176.853 173.444 176.854C172.814 176.852 172.312 176.659 171.937 176.274C171.56 175.89 171.371 175.389 171.371 174.772C171.371 174.141 171.57 173.622 171.97 173.217C172.369 172.811 172.903 172.609 173.572 172.608C173.931 172.608 174.252 172.662 174.533 172.769C174.814 172.877 175.044 173.023 175.223 173.206C175.402 173.39 175.55 173.61 175.666 173.869C175.783 174.129 175.865 174.398 175.912 174.678C175.96 174.957 175.984 175.259 175.985 175.582C175.985 175.848 175.976 176.096 175.96 176.326C175.944 176.557 175.911 176.803 175.861 177.066C175.811 177.329 175.746 177.566 175.667 177.776C175.588 177.987 175.479 178.193 175.341 178.394C175.202 178.596 175.042 178.766 174.86 178.901C174.679 179.038 174.457 179.146 174.195 179.228C173.932 179.308 173.638 179.349 173.315 179.35C172.832 179.352 172.36 179.24 171.899 179.015ZM174.591 175.805C174.839 175.542 174.963 175.189 174.963 174.746C174.962 174.344 174.844 174.006 174.611 173.737C174.377 173.468 174.047 173.332 173.624 173.333C173.184 173.333 172.847 173.463 172.614 173.722C172.381 173.98 172.265 174.328 172.265 174.764C172.266 175.185 172.372 175.53 172.585 175.798C172.797 176.066 173.115 176.2 173.536 176.2C173.99 176.199 174.342 176.068 174.591 175.805Z" fill="white"/>
<path d="M132.761 197.285C132.67 197.212 132.624 197.112 132.623 196.983L132.621 195.971L130.011 195.975C129.87 195.974 129.756 195.927 129.669 195.833C129.583 195.738 129.539 195.627 129.539 195.499C129.539 195.399 129.568 195.304 129.625 195.215L132.121 191.282C132.306 190.991 132.555 190.846 132.866 190.846C133.05 190.846 133.202 190.899 133.325 191.005C133.446 191.113 133.508 191.271 133.508 191.482L133.513 195.302L134.177 195.301C134.284 195.301 134.366 195.334 134.425 195.399C134.482 195.465 134.512 195.544 134.513 195.635C134.513 195.726 134.483 195.805 134.426 195.871C134.367 195.937 134.286 195.97 134.178 195.97L133.51 195.97L133.512 196.983C133.512 197.11 133.468 197.211 133.379 197.285C133.291 197.358 133.188 197.395 133.073 197.395C132.957 197.395 132.854 197.359 132.761 197.285ZM132.622 195.303L132.618 191.786L130.433 195.306L132.622 195.303Z" fill="white"/>
<path d="M152.109 197.283C151.801 197.161 151.508 196.978 151.229 196.734C151.168 196.682 151.138 196.617 151.138 196.538C151.138 196.437 151.179 196.342 151.261 196.251C151.344 196.161 151.432 196.116 151.527 196.116C151.585 196.116 151.638 196.136 151.687 196.175C152.109 196.541 152.595 196.723 153.144 196.722C153.596 196.722 153.938 196.598 154.17 196.35C154.401 196.103 154.517 195.758 154.516 195.315C154.516 194.909 154.401 194.582 154.171 194.333C153.942 194.084 153.638 193.961 153.26 193.961C153.015 193.962 152.773 194.017 152.534 194.129C152.295 194.242 152.105 194.383 151.964 194.554C151.931 194.591 151.871 194.609 151.785 194.609C151.66 194.609 151.535 194.576 151.41 194.51C151.284 194.445 151.222 194.366 151.222 194.275L151.218 191.284C151.217 191.01 151.365 190.872 151.662 190.871L154.666 190.867C154.773 190.867 154.857 190.901 154.916 190.97C154.976 191.038 155.006 191.12 155.006 191.215C155.007 191.31 154.977 191.391 154.92 191.457C154.861 191.525 154.778 191.558 154.668 191.558L151.952 191.561L151.951 193.774L152.006 193.719C152.04 193.682 152.095 193.638 152.172 193.586C152.25 193.534 152.341 193.482 152.447 193.432C152.553 193.382 152.688 193.338 152.854 193.301C153.021 193.265 153.195 193.245 153.378 193.245C153.989 193.244 154.478 193.439 154.845 193.827C155.212 194.216 155.396 194.719 155.397 195.336C155.397 195.977 155.191 196.491 154.778 196.88C154.365 197.268 153.831 197.463 153.177 197.464C152.775 197.465 152.418 197.405 152.109 197.283Z" fill="white"/>
<path d="M172.868 197.277C172.588 197.169 172.359 197.024 172.18 196.84C172.001 196.658 171.854 196.437 171.737 196.177C171.621 195.917 171.539 195.648 171.492 195.368C171.444 195.089 171.42 194.787 171.42 194.464C171.419 194.199 171.427 193.951 171.444 193.719C171.46 193.489 171.494 193.242 171.544 192.98C171.594 192.717 171.659 192.48 171.737 192.27C171.816 192.059 171.926 191.853 172.064 191.651C172.203 191.449 172.363 191.28 172.545 191.144C172.725 191.008 172.947 190.9 173.211 190.819C173.473 190.737 173.766 190.696 174.09 190.696C174.572 190.696 175.044 190.808 175.506 191.034C175.619 191.088 175.675 191.184 175.675 191.322C175.675 191.425 175.642 191.521 175.577 191.609C175.512 191.696 175.433 191.739 175.341 191.74C175.308 191.74 175.269 191.73 175.227 191.712C174.829 191.529 174.445 191.439 174.072 191.439C173.867 191.439 173.682 191.463 173.518 191.51C173.353 191.557 173.212 191.623 173.094 191.706C172.977 191.788 172.875 191.893 172.787 192.022C172.701 192.15 172.631 192.286 172.577 192.43C172.524 192.574 172.481 192.741 172.45 192.934C172.418 193.126 172.397 193.316 172.387 193.504C172.376 193.692 172.371 193.903 172.371 194.139C172.441 193.891 172.623 193.672 172.918 193.48C173.213 193.29 173.558 193.193 173.955 193.193C174.584 193.196 175.087 193.389 175.465 193.773C175.842 194.157 176.032 194.658 176.032 195.274C176.033 195.903 175.834 196.421 175.434 196.827C175.034 197.234 174.499 197.438 173.827 197.439C173.467 197.439 173.148 197.385 172.868 197.277ZM172.812 194.243C172.562 194.506 172.437 194.859 172.438 195.302C172.438 195.705 172.556 196.041 172.791 196.31C173.027 196.58 173.357 196.715 173.781 196.714C174.218 196.713 174.553 196.584 174.788 196.326C175.023 196.068 175.141 195.721 175.14 195.284C175.139 194.863 175.032 194.518 174.819 194.249C174.607 193.981 174.29 193.847 173.869 193.847C173.414 193.848 173.062 193.98 172.812 194.243Z" fill="white"/>
<path d="M131.941 216.245C131.851 216.169 131.806 216.063 131.806 215.925L131.8 210.782L130.811 211.42C130.753 211.454 130.694 211.47 130.632 211.47C130.541 211.47 130.462 211.437 130.397 211.37C130.331 211.303 130.298 211.224 130.298 211.131C130.298 211.024 130.35 210.936 130.454 210.866L132.023 209.883C132.09 209.837 132.175 209.814 132.274 209.814C132.397 209.815 132.499 209.853 132.584 209.931C132.668 210.009 132.71 210.119 132.71 210.263L132.722 215.924C132.722 216.061 132.676 216.169 132.585 216.245C132.494 216.321 132.385 216.359 132.259 216.36C132.138 216.359 132.032 216.322 131.941 216.245Z" fill="white"/>
<path d="M154.933 212.584C154.765 212.902 154.488 213.239 154.1 213.597L152.01 215.639L154.768 215.635C154.88 215.635 154.968 215.669 155.033 215.738C155.096 215.806 155.129 215.888 155.128 215.983C155.129 216.077 155.097 216.159 155.033 216.227C154.968 216.296 154.88 216.331 154.768 216.331L151.616 216.335C151.436 216.336 151.291 216.291 151.181 216.2C151.071 216.111 151.016 215.999 151.016 215.864C151.016 215.708 151.088 215.559 151.231 215.415L153.609 212.999C153.856 212.744 154.037 212.512 154.153 212.299C154.268 212.087 154.326 211.874 154.326 211.66C154.325 211.3 154.208 211.009 153.975 210.788C153.742 210.567 153.455 210.456 153.116 210.457C152.915 210.457 152.727 210.476 152.555 210.513C152.383 210.55 152.26 210.584 152.189 210.614C152.117 210.645 152.01 210.702 151.868 210.786C151.726 210.87 151.642 210.92 151.614 210.935C151.571 210.956 151.527 210.967 151.481 210.967C151.386 210.967 151.302 210.928 151.226 210.851C151.151 210.773 151.114 210.685 151.114 210.587C151.113 210.471 151.173 210.376 151.292 210.304C151.594 210.119 151.883 209.98 152.159 209.883C152.435 209.787 152.776 209.738 153.178 209.737C153.752 209.736 154.23 209.916 154.609 210.272C154.99 210.627 155.181 211.063 155.181 211.576C155.184 211.93 155.1 212.266 154.933 212.584Z" fill="white"/>
<path d="M172.07 216.067C171.911 215.984 171.832 215.87 171.832 215.724C171.832 215.623 171.867 215.534 171.937 215.458C172.007 215.382 172.089 215.343 172.185 215.344C172.215 215.344 172.253 215.351 172.299 215.366C172.736 215.567 173.156 215.667 173.558 215.667C173.964 215.666 174.293 215.571 174.545 215.381C174.797 215.192 174.922 214.924 174.922 214.579C174.922 214.179 174.776 213.86 174.486 213.623C174.196 213.385 173.826 213.267 173.377 213.267L173.043 213.267C172.939 213.267 172.859 213.236 172.802 213.171C172.745 213.108 172.718 213.029 172.717 212.938C172.717 212.843 172.745 212.762 172.802 212.694C172.858 212.628 172.939 212.594 173.042 212.594L173.339 212.593C173.767 212.592 174.109 212.496 174.368 212.3C174.625 212.106 174.754 211.824 174.754 211.455C174.753 211.123 174.635 210.864 174.4 210.682C174.165 210.498 173.876 210.408 173.534 210.408C173.057 210.408 172.612 210.513 172.197 210.721C172.167 210.736 172.13 210.744 172.087 210.744C171.996 210.744 171.915 210.7 171.844 210.614C171.774 210.527 171.739 210.432 171.738 210.328C171.738 210.208 171.788 210.121 171.889 210.062C172.032 209.974 172.267 209.886 172.592 209.798C172.916 209.71 173.235 209.667 173.547 209.666C173.946 209.666 174.304 209.727 174.619 209.852C174.933 209.977 175.189 210.176 175.385 210.449C175.58 210.723 175.678 211.051 175.679 211.436C175.68 211.803 175.579 212.109 175.376 212.355C175.173 212.601 174.905 212.779 174.573 212.89C174.964 212.987 175.273 213.185 175.498 213.484C175.725 213.784 175.839 214.146 175.839 214.575C175.839 214.883 175.778 215.157 175.655 215.399C175.532 215.641 175.364 215.833 175.152 215.977C174.939 216.121 174.702 216.229 174.441 216.301C174.18 216.373 173.9 216.409 173.601 216.409C173.013 216.409 172.504 216.295 172.07 216.067Z" fill="white"/>
<path d="M131.025 234.079C130.754 233.955 130.533 233.79 130.363 233.585C130.193 233.378 130.054 233.128 129.945 232.832C129.836 232.536 129.76 232.231 129.717 231.92C129.674 231.609 129.653 231.269 129.652 230.899C129.65 228.649 130.416 227.523 131.952 227.521C133.484 227.519 134.253 228.643 134.255 230.894C134.255 231.26 134.236 231.599 134.194 231.91C134.154 232.222 134.079 232.525 133.97 232.822C133.862 233.119 133.724 233.37 133.554 233.576C133.385 233.782 133.165 233.948 132.893 234.074C132.621 234.199 132.31 234.262 131.96 234.263C131.608 234.263 131.297 234.203 131.025 234.079ZM132.414 233.432C132.55 233.372 132.665 233.294 132.758 233.197C132.851 233.101 132.931 232.981 133 232.837C133.068 232.693 133.123 232.549 133.162 232.402C133.201 232.255 133.232 232.09 133.255 231.905C133.277 231.72 133.292 231.55 133.299 231.396C133.307 231.242 133.31 231.075 133.31 230.895C133.31 230.706 133.306 230.531 133.298 230.37C133.29 230.21 133.274 230.037 133.249 229.852C133.224 229.668 133.192 229.502 133.152 229.356C133.113 229.209 133.058 229.066 132.989 228.926C132.92 228.785 132.839 228.668 132.746 228.574C132.653 228.479 132.539 228.404 132.404 228.347C132.27 228.291 132.118 228.263 131.951 228.263C131.783 228.263 131.632 228.292 131.498 228.348C131.363 228.405 131.251 228.479 131.159 228.573C131.067 228.666 130.987 228.782 130.917 228.923C130.847 229.064 130.793 229.208 130.755 229.353C130.717 229.5 130.686 229.666 130.661 229.852C130.637 230.039 130.621 230.213 130.614 230.372C130.607 230.533 130.602 230.708 130.603 230.897C130.604 231.078 130.607 231.246 130.615 231.401C130.623 231.557 130.639 231.728 130.662 231.912C130.685 232.096 130.717 232.262 130.756 232.409C130.796 232.555 130.85 232.7 130.919 232.844C130.988 232.988 131.068 233.107 131.16 233.201C131.251 233.295 131.365 233.372 131.502 233.432C131.637 233.49 131.79 233.52 131.957 233.52C132.126 233.521 132.279 233.491 132.414 233.432Z" fill="white"/>
<path d="M152.288 231.941C152.075 231.728 151.968 231.475 151.968 231.182C151.968 230.902 152.073 230.656 152.286 230.442C152.498 230.229 152.778 230.122 153.125 230.122C153.464 230.122 153.742 230.226 153.96 230.435C154.176 230.645 154.285 230.893 154.285 231.179C154.286 231.472 154.179 231.725 153.966 231.939C153.753 232.152 153.474 232.259 153.127 232.259C152.781 232.26 152.501 232.154 152.288 231.941Z" fill="white"/>
<path d="M194.565 155.008C194.358 154.8 194.253 154.555 194.253 154.269C194.252 153.997 194.355 153.757 194.563 153.55C194.77 153.342 195.042 153.238 195.379 153.238C195.709 153.237 195.98 153.339 196.191 153.543C196.402 153.747 196.508 153.988 196.508 154.267C196.508 154.552 196.406 154.798 196.198 155.005C195.991 155.213 195.719 155.317 195.382 155.317C195.045 155.317 194.772 155.215 194.565 155.008Z" fill="white"/>
<path d="M194.572 161.098C194.365 160.891 194.26 160.645 194.26 160.36C194.259 160.088 194.363 159.848 194.57 159.64C194.778 159.433 195.049 159.329 195.386 159.329C195.716 159.328 195.988 159.429 196.198 159.633C196.409 159.837 196.514 160.079 196.515 160.357C196.515 160.642 196.412 160.888 196.205 161.096C195.997 161.303 195.726 161.407 195.389 161.408C195.052 161.408 194.78 161.305 194.572 161.098Z" fill="white"/>
<path d="M170.65 230.625C170.539 230.517 170.484 230.392 170.484 230.246C170.484 230.082 170.541 229.948 170.656 229.848C170.771 229.748 170.914 229.698 171.083 229.697L177.58 229.689C177.746 229.688 177.886 229.739 178.004 229.839C178.122 229.938 178.18 230.071 178.18 230.235C178.181 230.39 178.123 230.52 178.005 230.622C177.888 230.724 177.747 230.777 177.582 230.776L171.047 230.785C170.893 230.787 170.759 230.733 170.65 230.625ZM170.654 233.623C170.543 233.518 170.488 233.394 170.488 233.248C170.488 233.088 170.545 232.957 170.66 232.854C170.775 232.752 170.918 232.7 171.088 232.7L177.607 232.692C177.767 232.691 177.903 232.741 178.016 232.841C178.128 232.942 178.185 233.074 178.185 233.239C178.185 233.394 178.128 233.522 178.013 233.622C177.898 233.723 177.758 233.773 177.593 233.772L171.051 233.781C170.896 233.779 170.763 233.727 170.654 233.623Z" fill="white"/>
<path d="M194.893 176.572L193.069 179.029C192.964 179.167 192.843 179.236 192.702 179.236C192.596 179.235 192.502 179.197 192.421 179.119C192.339 179.042 192.299 178.951 192.299 178.847C192.299 178.759 192.33 178.674 192.39 178.595L194.421 175.932L192.503 173.328C192.457 173.27 192.434 173.203 192.433 173.127C192.433 173.014 192.482 172.911 192.578 172.82C192.674 172.728 192.784 172.682 192.905 172.682C193.042 172.682 193.16 172.748 193.258 172.879L195.005 175.254L196.775 172.884C196.881 172.744 197.008 172.673 197.156 172.673C197.259 172.673 197.348 172.708 197.424 172.778C197.497 172.848 197.535 172.932 197.535 173.03C197.535 173.113 197.508 173.191 197.454 173.264L195.487 175.909L197.447 178.577C197.502 178.653 197.529 178.732 197.529 178.811C197.53 178.923 197.481 179.02 197.384 179.102C197.286 179.183 197.177 179.224 197.058 179.224C196.914 179.224 196.8 179.164 196.714 179.045L194.893 176.572Z" fill="white"/>
<path d="M194.808 227.473C194.688 227.347 194.628 227.189 194.628 226.996L194.624 223.968L191.472 223.972C191.286 223.972 191.124 223.912 190.986 223.793C190.849 223.674 190.78 223.524 190.78 223.343C190.78 223.156 190.845 223.006 190.976 222.892C191.108 222.778 191.272 222.721 191.471 222.72L194.622 222.716L194.619 219.662C194.618 219.475 194.678 219.317 194.797 219.185C194.916 219.053 195.072 218.987 195.265 218.987C195.452 218.987 195.606 219.051 195.729 219.179C195.852 219.307 195.913 219.468 195.913 219.661L195.917 222.715L199.076 222.711C199.263 222.71 199.425 222.767 199.563 222.881C199.7 222.994 199.769 223.145 199.769 223.331C199.769 223.512 199.703 223.662 199.568 223.782C199.435 223.902 199.271 223.962 199.078 223.962L195.919 223.966L195.922 226.994C195.922 227.175 195.862 227.332 195.74 227.463C195.617 227.594 195.463 227.661 195.276 227.66C195.084 227.661 194.927 227.598 194.808 227.473Z" fill="white"/>
<path d="M107.27 196.665C107.183 196.574 107.139 196.458 107.139 196.318L107.136 194.114L104.844 194.117C104.708 194.117 104.59 194.074 104.49 193.987C104.39 193.901 104.34 193.791 104.34 193.659C104.34 193.523 104.387 193.414 104.483 193.331C104.579 193.249 104.699 193.206 104.843 193.206L107.135 193.203L107.132 190.981C107.132 190.845 107.175 190.729 107.262 190.633C107.349 190.538 107.463 190.49 107.603 190.489C107.739 190.489 107.851 190.536 107.94 190.629C108.029 190.722 108.074 190.839 108.074 190.979L108.076 193.201L110.375 193.198C110.511 193.198 110.629 193.239 110.729 193.323C110.829 193.405 110.879 193.514 110.878 193.65C110.878 193.781 110.83 193.892 110.732 193.978C110.635 194.065 110.515 194.109 110.376 194.109L108.077 194.112L108.08 196.315C108.08 196.447 108.035 196.561 107.947 196.656C107.858 196.752 107.745 196.8 107.609 196.8C107.47 196.802 107.357 196.757 107.27 196.665Z" fill="white"/>
<path d="M191.697 194.688C191.604 194.62 191.556 194.536 191.556 194.438C191.556 194.344 191.603 194.262 191.697 194.191C191.791 194.12 191.921 194.086 192.09 194.086L198.377 194.077C198.546 194.077 198.677 194.113 198.77 194.184C198.864 194.255 198.911 194.338 198.912 194.433C198.912 194.528 198.865 194.61 198.771 194.678C198.678 194.747 198.546 194.782 198.378 194.782L192.09 194.791C191.923 194.79 191.791 194.757 191.697 194.688Z" fill="white"/>
<path d="M111.888 197.903C111.824 197.835 111.792 197.752 111.793 197.654C111.792 197.559 111.824 197.477 111.887 197.406C111.951 197.336 112.039 197.301 112.152 197.301L116.4 197.296C116.514 197.296 116.603 197.332 116.666 197.403C116.729 197.475 116.76 197.557 116.761 197.652C116.761 197.747 116.73 197.829 116.666 197.897C116.603 197.966 116.515 198.001 116.4 198L112.152 198.005C112.04 198.006 111.951 197.973 111.888 197.903Z" fill="white"/>
<path d="M109.444 199.173C109.316 199.259 109.208 199.278 109.123 199.229C109.042 199.182 109.005 199.079 109.014 198.924C109.023 198.768 109.091 198.582 109.216 198.364L113.892 190.25C114.018 190.032 114.146 189.882 114.278 189.796C114.409 189.711 114.517 189.692 114.599 189.739C114.68 189.787 114.716 189.888 114.707 190.044C114.697 190.198 114.629 190.385 114.503 190.602L109.827 198.716C109.701 198.933 109.574 199.086 109.444 199.173Z" fill="white"/>
<path d="M191.65 157.626C191.557 157.558 191.508 157.475 191.509 157.377C191.508 157.282 191.556 157.2 191.649 157.129C191.744 157.059 191.874 157.024 192.042 157.024L198.33 157.016C198.499 157.016 198.629 157.052 198.723 157.122C198.817 157.193 198.864 157.277 198.864 157.372C198.865 157.466 198.818 157.549 198.724 157.617C198.631 157.686 198.499 157.721 198.331 157.721L192.044 157.73C191.875 157.729 191.744 157.695 191.65 157.626Z" fill="white"/>
<path d="M128.517 160.913C128.416 160.843 128.337 160.742 128.279 160.611L126.138 155.823L126.144 160.81C126.144 160.914 126.102 160.995 126.019 161.053C125.935 161.111 125.835 161.141 125.719 161.14C125.606 161.14 125.507 161.112 125.421 161.054C125.335 160.996 125.292 160.915 125.293 160.811L125.286 155.388C125.286 155.211 125.355 155.062 125.494 154.943C125.633 154.824 125.795 154.764 125.982 154.764C126.134 154.764 126.279 154.809 126.414 154.899C126.55 154.989 126.659 155.125 126.742 155.309L128.827 159.923L130.9 155.304C130.979 155.121 131.087 154.984 131.223 154.894C131.358 154.803 131.503 154.758 131.655 154.758C131.842 154.758 132.005 154.816 132.146 154.936C132.287 155.055 132.357 155.203 132.357 155.38L132.364 160.803C132.363 160.907 132.321 160.988 132.235 161.046C132.15 161.104 132.05 161.133 131.938 161.134C131.822 161.134 131.722 161.105 131.637 161.047C131.553 160.989 131.511 160.908 131.511 160.805L131.505 155.817L129.377 160.611C129.318 160.742 129.24 160.843 129.139 160.913C129.038 160.984 128.934 161.019 128.828 161.019C128.723 161.018 128.618 160.983 128.517 160.913Z" fill="white"/>
<path d="M134.149 161.061C134.059 160.986 134.013 160.877 134.013 160.736L134.005 155.084C134.005 154.96 134.05 154.853 134.14 154.766C134.23 154.679 134.339 154.636 134.468 154.635L136.456 154.633C136.706 154.633 136.935 154.646 137.145 154.671C137.354 154.697 137.565 154.746 137.775 154.819C137.986 154.892 138.163 154.987 138.307 155.105C138.45 155.223 138.568 155.381 138.657 155.581C138.747 155.781 138.793 156.012 138.793 156.275C138.794 156.654 138.679 156.977 138.447 157.242C138.215 157.508 137.871 157.684 137.413 157.77L137.413 157.788C138.131 157.943 138.537 158.432 138.633 159.256L138.8 160.695C138.803 160.709 138.805 160.731 138.804 160.759C138.805 160.881 138.762 160.98 138.677 161.057C138.591 161.133 138.489 161.172 138.37 161.172C138.248 161.172 138.137 161.136 138.037 161.065C137.938 160.994 137.882 160.892 137.87 160.761L137.726 159.483C137.696 159.206 137.659 158.989 137.616 158.833C137.573 158.677 137.503 158.547 137.406 158.444C137.311 158.341 137.19 158.271 137.047 158.237C136.903 158.202 136.709 158.184 136.464 158.184L134.934 158.186L134.937 160.738C134.938 160.877 134.892 160.986 134.798 161.062C134.706 161.139 134.596 161.177 134.471 161.177C134.347 161.176 134.239 161.137 134.149 161.061ZM136.267 157.473C136.447 157.472 136.608 157.465 136.748 157.449C136.889 157.434 137.033 157.403 137.179 157.357C137.325 157.311 137.447 157.249 137.542 157.169C137.639 157.089 137.716 156.982 137.777 156.845C137.838 156.71 137.869 156.548 137.868 156.362C137.868 156.209 137.847 156.075 137.806 155.959C137.764 155.842 137.704 155.75 137.624 155.679C137.545 155.61 137.462 155.552 137.374 155.508C137.288 155.464 137.181 155.433 137.056 155.412C136.93 155.393 136.82 155.38 136.726 155.374C136.631 155.368 136.518 155.365 136.387 155.365L134.93 155.367L134.932 157.474L136.267 157.473Z" fill="white"/>
<path d="M149.919 160.885C149.818 160.815 149.738 160.714 149.68 160.583L147.54 155.794L147.546 160.782C147.545 160.886 147.504 160.966 147.42 161.025C147.336 161.083 147.236 161.112 147.121 161.112C147.007 161.112 146.908 161.083 146.822 161.025C146.737 160.968 146.694 160.886 146.694 160.783L146.687 155.359C146.687 155.183 146.756 155.034 146.895 154.915C147.034 154.796 147.196 154.736 147.383 154.736C147.535 154.736 147.68 154.78 147.815 154.871C147.951 154.961 148.061 155.097 148.144 155.28L150.229 159.894L152.302 155.275C152.381 155.092 152.488 154.955 152.624 154.865C152.759 154.775 152.904 154.729 153.057 154.729C153.243 154.73 153.407 154.788 153.547 154.908C153.688 155.027 153.758 155.175 153.758 155.351L153.766 160.774C153.765 160.878 153.723 160.959 153.638 161.017C153.553 161.076 153.453 161.105 153.341 161.105C153.224 161.106 153.124 161.077 153.04 161.019C152.956 160.96 152.914 160.88 152.914 160.776L152.908 155.788L150.78 160.582C150.722 160.713 150.643 160.814 150.542 160.884C150.441 160.954 150.338 160.99 150.231 160.99C150.123 160.991 150.02 160.955 149.919 160.885Z" fill="white"/>
<path d="M154.883 158.964C154.815 158.906 154.78 158.831 154.78 158.74C154.78 158.642 154.813 158.563 154.88 158.503C154.947 158.444 155.036 158.414 155.146 158.414L157.184 158.411C157.294 158.411 157.382 158.441 157.449 158.5C157.516 158.56 157.55 158.638 157.55 158.736C157.55 158.827 157.516 158.902 157.448 158.96C157.378 159.018 157.291 159.047 157.184 159.048L155.147 159.051C155.04 159.051 154.952 159.022 154.883 158.964Z" fill="white"/>
<path d="M171.32 160.858C171.219 160.788 171.14 160.687 171.082 160.556L168.941 155.768L168.947 160.755C168.947 160.859 168.905 160.94 168.821 160.998C168.738 161.056 168.638 161.086 168.522 161.085C168.408 161.086 168.31 161.057 168.224 160.999C168.138 160.941 168.095 160.86 168.096 160.756L168.089 155.333C168.089 155.157 168.159 155.008 168.297 154.888C168.436 154.769 168.598 154.709 168.785 154.709C168.937 154.71 169.082 154.754 169.217 154.844C169.352 154.935 169.462 155.071 169.545 155.254L171.63 159.868L173.703 155.249C173.782 155.066 173.89 154.929 174.026 154.839C174.161 154.748 174.306 154.703 174.458 154.703C174.645 154.703 174.808 154.761 174.949 154.881C175.09 155 175.16 155.148 175.16 155.325L175.167 160.748C175.167 160.852 175.124 160.933 175.038 160.991C174.953 161.049 174.853 161.078 174.741 161.079C174.625 161.079 174.524 161.05 174.44 160.992C174.356 160.934 174.314 160.853 174.314 160.75L174.308 155.762L172.18 160.556C172.121 160.687 172.043 160.788 171.942 160.858C171.841 160.929 171.737 160.964 171.631 160.964C171.524 160.963 171.421 160.928 171.32 160.858Z" fill="white"/>
<path d="M178.811 161.006C178.748 160.941 178.716 160.858 178.717 160.757L178.715 159.172L177.066 159.174C176.969 159.175 176.884 159.143 176.812 159.081C176.74 159.019 176.704 158.94 176.704 158.845C176.704 158.747 176.739 158.669 176.807 158.609C176.875 158.55 176.962 158.52 177.065 158.52L178.714 158.518L178.712 156.919C178.712 156.821 178.743 156.738 178.806 156.67C178.868 156.601 178.95 156.567 179.051 156.566C179.148 156.566 179.229 156.599 179.293 156.667C179.358 156.734 179.39 156.818 179.39 156.919L179.391 158.517L181.045 158.515C181.142 158.514 181.227 158.544 181.3 158.604C181.371 158.663 181.408 158.742 181.408 158.84C181.408 158.935 181.373 159.014 181.302 159.075C181.232 159.138 181.147 159.17 181.046 159.17L179.393 159.172L179.395 160.757C179.395 160.852 179.363 160.933 179.299 161.002C179.236 161.071 179.154 161.106 179.056 161.105C178.955 161.104 178.873 161.072 178.811 161.006Z" fill="white"/>
<path d="M170.847 139.552L173.478 143.051L176.39 137.795L179.309 137.791" stroke="white" stroke-miterlimit="10"/>
</svg>
