<svg width="92" height="122" viewBox="0 0 92 122" fill="none" xmlns="http://www.w3.org/2000/svg">
<path d="M45.2051 79.5214L52.8481 119.9L59.8326 106.995L73.0711 114.764L59.0184 75.4456L45.2051 79.5214Z" fill="#F766A1"/>
<g opacity="0.3">
<path d="M47.7747 93.1017C49.1874 93.3926 50.8365 92.893 51.839 91.8559C52.5353 91.1355 52.9998 90.1568 53.878 89.6743C54.6663 89.2412 55.6383 89.303 56.5051 89.5424C57.372 89.7818 58.1884 90.1836 59.0589 90.4093C60.7653 90.8522 62.6471 90.5726 64.1515 89.6533L61.9468 83.5308L51.7114 82.2524L46.8311 88.1148L47.7747 93.1017Z" fill="black"/>
</g>
<path d="M59.3351 105.391C59.2928 105.402 58.1545 101.209 56.7932 96.0256C55.4313 90.8407 54.3622 86.6299 54.4045 86.6189C54.4469 86.608 55.5849 90.8005 56.9467 95.9854C58.308 101.168 59.3774 105.38 59.3351 105.391Z" fill="#263238"/>
<path d="M46.3243 81.622L38.681 122L31.6965 109.095L18.458 116.865L32.5107 77.5461L46.3243 81.622Z" fill="#F766A1"/>
<g opacity="0.3">
<path d="M28.3066 89.3061C28.3066 89.3061 30.4803 91.0956 33.0739 90.2711C35.6673 89.4465 37.2774 89.2732 38.6804 90.2711C40.0834 91.2689 43.8817 94.5221 43.8817 94.5221L44.7635 89.8635L39.6627 82.858L34.3356 83.9336L30.5418 84.3125L29.1315 86.982L28.3066 89.3061Z" fill="black"/>
</g>
<path d="M91.1347 45.172C91.1347 48.069 87.4317 50.5646 86.8901 53.3027C86.3321 56.1239 88.7881 59.8427 87.7116 62.4385C86.6166 65.0797 82.2395 65.9676 80.6678 68.3152C79.0841 70.6807 79.9288 75.0624 77.923 77.0678C75.9175 79.0733 71.5359 78.2287 69.1703 79.8123C66.8228 81.384 65.9349 85.7608 63.2937 86.8561C60.6979 87.9326 56.979 85.4766 54.1578 86.0346C51.4198 86.5762 48.9242 90.2792 46.0272 90.2792C43.1301 90.2792 40.6345 86.5762 37.8965 86.0346C35.0753 85.4766 31.3564 87.9323 28.7606 86.8561C26.1195 85.7611 25.2315 81.384 22.884 79.8123C20.5185 78.2287 16.1368 79.0733 14.1313 77.0675C12.1258 75.0621 12.9705 70.6804 11.3869 68.3149C9.81545 65.9673 5.43835 65.0794 4.34301 62.4382C3.26656 59.8424 5.72255 56.1236 5.16452 53.3024C4.62294 50.5643 0.919922 48.0687 0.919922 45.1717C0.919922 42.2747 4.62294 39.7791 5.16452 37.041C5.72255 34.2198 3.26656 30.501 4.34301 27.9052C5.43805 25.264 9.81514 24.3761 11.3869 22.0285C12.9705 19.663 12.1258 15.2813 14.1316 13.2759C16.1371 11.2704 20.5188 12.115 22.8843 10.5314C25.2318 8.95968 26.1198 4.58288 28.7609 3.48754C31.3567 2.41109 35.0756 4.86708 37.8968 4.30905C40.6348 3.76747 43.1304 0.0644531 46.0275 0.0644531C48.9245 0.0644531 51.4201 3.76747 54.1582 4.30905C56.9794 4.86708 60.6982 2.41139 63.294 3.48754C65.9352 4.58258 66.8231 8.95968 69.1706 10.5314C71.5362 12.115 75.9178 11.2704 77.9233 13.2759C79.9288 15.2813 79.0841 19.663 80.6678 22.0285C82.2392 24.3761 86.6163 25.264 87.7116 27.9052C88.7881 30.501 86.3321 34.2198 86.8901 37.041C87.4317 39.7794 91.1347 42.275 91.1347 45.172Z" fill="#F766A1"/>
<path d="M35.4727 19.8885C35.4678 19.8909 35.4398 19.848 35.3907 19.7639C35.3344 19.6628 35.2658 19.5403 35.183 19.3926C35.0045 19.0691 34.7581 18.5946 34.4644 18.003C33.876 16.8203 33.1151 15.1593 32.3813 13.2808C31.649 11.4011 31.0837 9.6634 30.716 8.39474C30.5318 7.76056 30.3916 7.24457 30.3039 6.88576C30.2646 6.72097 30.232 6.58451 30.2052 6.47211C30.1845 6.37707 30.176 6.32651 30.1812 6.32499C30.1863 6.32346 30.2052 6.37129 30.236 6.46358C30.2707 6.57384 30.3127 6.70756 30.3633 6.86931C30.4794 7.24549 30.6347 7.7499 30.8233 8.36245C31.218 9.62076 31.7986 11.3484 32.529 13.2236C33.261 15.0975 34.0036 16.7615 34.5653 17.9549C34.8412 18.5333 35.0685 19.0097 35.2378 19.3649C35.3097 19.5181 35.3697 19.6451 35.4188 19.7496C35.4587 19.8379 35.4775 19.8858 35.4727 19.8885Z" fill="#263238"/>
<path d="M39.4866 18.3618C39.4759 18.3645 39.4351 18.2448 39.3702 18.0258C39.3047 17.8071 39.2185 17.4882 39.118 17.0928C38.917 16.3018 38.6678 15.2016 38.4424 13.9768C38.2176 12.7514 38.0595 11.6341 37.9666 10.8233C37.92 10.4178 37.8874 10.0892 37.871 9.86164C37.8539 9.63411 37.8496 9.5077 37.8603 9.50648C37.8713 9.50526 37.8962 9.62923 37.9322 9.85433C37.9718 10.1129 38.0202 10.4319 38.0778 10.8083C38.199 11.614 38.3742 12.7255 38.5983 13.9478C38.8231 15.1699 39.0543 16.271 39.227 17.0669C39.3072 17.4395 39.3751 17.7547 39.4299 18.0106C39.4765 18.2342 39.4972 18.3591 39.4866 18.3618Z" fill="#263238"/>
<path d="M46.5686 17.6581C46.5247 17.659 46.412 14.2424 46.3167 10.0276C46.2214 5.81134 46.1796 2.39374 46.2235 2.39282C46.2674 2.39191 46.3801 5.80799 46.4754 10.0243C46.5704 14.2387 46.6122 17.6572 46.5686 17.6581Z" fill="#263238"/>
<path d="M53.695 10.6378C53.7368 10.6509 53.2452 12.3594 52.597 14.4532C51.9485 16.5479 51.3889 18.2351 51.3472 18.2223C51.3055 18.2095 51.7971 16.5013 52.4456 14.4063C53.0938 12.3122 53.653 10.6247 53.695 10.6378Z" fill="#263238"/>
<path d="M56.6036 19.4669C56.5984 19.4651 56.6118 19.4154 56.642 19.3228C56.6798 19.2135 56.7258 19.081 56.7809 18.9211C56.9034 18.5726 57.0928 18.0734 57.3295 17.4572C57.8056 16.226 58.4903 14.5361 59.2695 12.6795C60.0486 10.8221 60.7727 9.14891 61.3066 7.94208C61.5698 7.35756 61.7864 6.87599 61.9481 6.51687C62.0206 6.36396 62.0809 6.23724 62.1306 6.13307C62.1738 6.04595 62.1991 6.00148 62.2043 6.00361C62.2095 6.00575 62.1939 6.05479 62.1598 6.14586C62.1178 6.25339 62.0666 6.38406 62.0048 6.54154C61.8549 6.90584 61.6539 7.39381 61.4099 7.98656C60.8909 9.22445 60.1903 10.8949 59.416 12.7411C58.6463 14.5881 57.95 16.2598 57.434 17.4989C57.19 18.0913 56.9889 18.5793 56.8388 18.9433C56.7724 19.099 56.7175 19.2281 56.6722 19.3344C56.632 19.4231 56.6085 19.4687 56.6036 19.4669Z" fill="#263238"/>
<path d="M60.411 21.4525C60.4019 21.4464 60.4643 21.3365 60.5847 21.1424C60.7047 20.9481 60.8856 20.6718 61.1144 20.334C61.5719 19.6581 62.2286 18.741 62.9943 17.7586C63.761 16.7763 64.4908 15.9161 65.0349 15.3078C65.3069 15.0035 65.5308 14.7611 65.6901 14.5972C65.8488 14.433 65.9404 14.3459 65.9487 14.3532C65.9569 14.3605 65.8807 14.4617 65.7364 14.638C65.5694 14.8394 65.3635 15.0876 65.1202 15.3809C64.5987 16.0069 63.8844 16.8762 63.1195 17.8561C62.3556 18.836 61.6864 19.7404 61.206 20.3986C60.9809 20.7059 60.7903 20.9664 60.6355 21.1772C60.4997 21.3602 60.4202 21.4586 60.411 21.4525Z" fill="#263238"/>
<path d="M65.9495 25.9927C65.9196 25.9607 68.3296 23.6698 71.3318 20.8769C74.3348 18.0831 76.7929 15.8449 76.8228 15.8769C76.8526 15.9089 74.4429 18.1992 71.4399 20.993C68.4378 23.7862 65.9793 26.0247 65.9495 25.9927Z" fill="#263238"/>
<path d="M75.6235 26.9387C75.6333 26.9606 75.2763 27.1394 74.7055 27.4388C74.134 27.7373 73.3552 28.168 72.4965 28.6502C71.6372 29.1327 70.8459 29.55 70.2595 29.8235C69.9665 29.9603 69.7271 30.0666 69.5586 30.133C69.3908 30.2006 69.2958 30.2332 69.2912 30.2232C69.2815 30.2016 69.6385 30.0224 70.2093 29.723C70.7807 29.4245 71.5596 28.9938 72.4188 28.5113C73.2778 28.0291 74.0692 27.6118 74.6552 27.338C74.9482 27.2012 75.1876 27.0949 75.3561 27.0285C75.5242 26.9612 75.619 26.9286 75.6235 26.9387Z" fill="#263238"/>
<path d="M84.5802 30.654C84.5948 30.6954 81.7257 31.7429 78.1732 32.9936C74.6194 34.2446 71.7276 35.2251 71.7129 35.184C71.6983 35.1426 74.5667 34.0953 78.1205 32.844C81.6734 31.5934 84.5655 30.6125 84.5802 30.654Z" fill="#263238"/>
<path d="M87.4309 46.9397C87.4266 46.9832 84.3091 46.7222 80.4681 46.3567C76.6258 45.9909 73.5156 45.6591 73.5195 45.6156C73.5238 45.572 76.6408 45.8331 80.483 46.1989C84.324 46.5644 87.4349 46.8961 87.4309 46.9397Z" fill="#263238"/>
<path d="M85.1381 61.5473C85.1196 61.5869 82.2045 60.2491 78.6282 58.5595C75.0507 56.8693 72.1668 55.4678 72.1856 55.4282C72.2042 55.3886 75.1186 56.7261 78.6962 58.4163C82.2722 60.1057 85.1567 61.5077 85.1381 61.5473Z" fill="#263238"/>
<path d="M75.5496 75.4456C75.5161 75.4739 73.4137 73.0353 70.8542 69.9996C68.294 66.9631 66.2462 64.4794 66.2797 64.4511C66.3132 64.4227 68.4152 66.8607 70.9754 69.8973C73.535 72.9332 75.5831 75.4176 75.5496 75.4456Z" fill="#263238"/>
<path d="M67.5466 77.2817C67.5374 77.2875 67.4473 77.1654 67.2925 76.9394C67.1372 76.7133 66.9191 76.3822 66.6544 75.9698C66.125 75.1453 65.415 73.9917 64.6675 72.6966C63.92 71.4008 63.277 70.2089 62.828 69.3378C62.6035 68.9022 62.4259 68.5476 62.3081 68.3C62.1899 68.0527 62.129 67.9138 62.1387 67.9086C62.1485 67.9037 62.2277 68.0332 62.3626 68.2714C62.5106 68.5373 62.7001 68.8775 62.9267 69.2848C63.4007 70.1416 64.0586 71.3231 64.8049 72.6174C65.5514 73.9107 66.245 75.0715 66.7497 75.9107C66.9888 76.311 67.1887 76.6451 67.3446 76.9061C67.4832 77.1425 67.5557 77.2759 67.5466 77.2817Z" fill="#263238"/>
<path d="M62.5735 84.2717C62.5686 84.2741 62.5415 84.2311 62.4943 84.1468C62.44 84.0453 62.3742 83.9226 62.2951 83.7745C62.1239 83.4505 61.8881 82.975 61.6079 82.3825C61.0465 81.1979 60.3252 79.5339 59.6389 77.6539C58.9545 75.7724 58.4361 74.0344 58.1038 72.7663C57.9372 72.1321 57.8117 71.6167 57.7343 71.2585C57.6999 71.0944 57.6712 70.9579 57.6475 70.8455C57.6292 70.7508 57.6225 70.7002 57.6277 70.699C57.6332 70.6978 57.6502 70.7456 57.6785 70.8379C57.7102 70.9485 57.7483 71.0822 57.7943 71.2436C57.8997 71.6201 58.0407 72.1245 58.2119 72.7365C58.5713 73.9948 59.105 75.7231 59.7879 77.5994C60.4723 79.4748 61.1753 81.141 61.7096 82.3356C61.9725 82.9144 62.1887 83.3914 62.3505 83.7474C62.419 83.9006 62.476 84.0277 62.5229 84.1324C62.5607 84.2214 62.5783 84.2692 62.5735 84.2717Z" fill="#263238"/>
<path d="M52.5031 79.3713C52.4797 79.3725 52.4422 78.9659 52.3715 78.3107C52.3012 77.6555 52.1906 76.7524 52.0252 75.7615C51.8589 74.7703 51.6694 73.8803 51.5229 73.2379C51.3764 72.5955 51.2795 72.1986 51.3021 72.1922C51.3127 72.1892 51.3499 72.2848 51.4084 72.4603C51.4675 72.6357 51.5442 72.8919 51.6317 73.2108C51.8068 73.8483 52.0145 74.7396 52.1818 75.7353C52.3478 76.7311 52.4413 77.6412 52.4833 78.301C52.5046 78.6308 52.5156 78.8983 52.5165 79.0832C52.518 79.2684 52.5141 79.3707 52.5031 79.3713Z" fill="#263238"/>
<path d="M45.9157 88.1395C45.9102 88.1395 45.9057 88.0856 45.9023 87.9832C45.9005 87.8626 45.898 87.7149 45.8953 87.5355C45.8913 87.1465 45.8938 86.5839 45.9066 85.8888C45.9297 84.4983 45.9934 82.5781 46.1049 80.4596C46.2148 78.3402 46.3513 76.424 46.4634 75.0381C46.52 74.3451 46.5706 73.7849 46.6102 73.3981C46.6303 73.2199 46.6467 73.0728 46.6601 72.9531C46.6732 72.8514 46.6833 72.7983 46.6888 72.799C46.6943 72.7993 46.6952 72.8535 46.6921 72.9558C46.6866 73.0761 46.6799 73.2239 46.6717 73.4033C46.6477 73.8151 46.6148 74.3707 46.5752 75.0466C46.4941 76.456 46.3845 78.3619 46.2632 80.4685C46.1521 82.5857 46.0707 84.5038 46.0187 85.8925C45.9934 86.569 45.9724 87.1249 45.9571 87.5373C45.948 87.7164 45.9407 87.8642 45.9346 87.9845C45.9276 88.0859 45.9212 88.1395 45.9157 88.1395Z" fill="#263238"/>
<path d="M40.56 72.7984C40.581 72.8023 40.5481 73.0993 40.4686 73.5757C40.3894 74.0518 40.2612 74.7067 40.0934 75.4237C39.9252 76.1411 39.7492 76.7847 39.6084 77.2464C39.468 77.7085 39.3654 77.9891 39.345 77.9833C39.3233 77.9772 39.3879 77.6854 39.5003 77.2172C39.6258 76.6942 39.7745 76.0737 39.9389 75.3878C40.0964 74.7003 40.2387 74.0786 40.3587 73.5541C40.4659 73.0844 40.5378 72.7944 40.56 72.7984Z" fill="#263238"/>
<path d="M30.8771 68.1461C30.9121 68.1726 30.3154 69.0182 29.5445 70.0347C28.7735 71.0514 28.1202 71.8537 28.0855 71.8272C28.0504 71.8007 28.6471 70.9555 29.4184 69.9387C30.1887 68.9223 30.8421 68.1196 30.8771 68.1461Z" fill="#263238"/>
<path d="M25.7977 64.7334C25.8306 64.7624 23.9406 66.982 21.5763 69.6905C19.2113 72.4002 17.2677 74.5726 17.2348 74.5437C17.2019 74.5147 19.0916 72.2957 21.4569 69.5863C23.8208 66.8775 25.7645 64.7045 25.7977 64.7334Z" fill="#263238"/>
<path d="M23.2562 60.9558C23.2839 60.9896 22.2325 61.9022 20.9075 62.9942C19.5821 64.0865 18.4856 64.9442 18.4576 64.9104C18.4298 64.8766 19.481 63.964 20.8063 62.8717C22.1313 61.7797 23.2282 60.922 23.2562 60.9558Z" fill="#263238"/>
<path d="M20.282 55.2555C20.3012 55.2951 17.6683 56.6031 14.4024 58.177C11.1352 59.7514 8.47211 60.9954 8.45323 60.9558C8.43434 60.9162 11.0664 59.6086 14.3335 58.0341C17.5994 56.4602 20.2632 55.2163 20.282 55.2555Z" fill="#263238"/>
<path d="M19.0871 52.4124C19.0892 52.4231 18.9917 52.4514 18.8135 52.4935C18.6357 52.5361 18.3764 52.5894 18.0548 52.6488C17.4118 52.7682 16.5175 52.9038 15.5242 53.0037C14.5303 53.1027 13.6268 53.1468 12.9729 53.1575C12.6457 53.163 12.3813 53.1621 12.1983 53.1554C12.0155 53.1496 11.9144 53.141 11.9141 53.1301C11.9138 53.1069 12.3174 53.0847 12.9683 53.0454C13.6195 53.0061 14.5181 52.9446 15.508 52.8459C16.4977 52.7466 17.3905 52.6287 18.0365 52.5382C18.6829 52.4478 19.0828 52.3896 19.0871 52.4124Z" fill="#263238"/>
<path d="M18.1235 45.8498C18.1226 45.8607 17.9328 45.8559 17.5904 45.8382C17.2222 45.8193 16.7336 45.794 16.1417 45.7639C14.9188 45.7045 13.2279 45.6487 11.3601 45.6579C9.49172 45.6685 7.8015 45.7425 6.57914 45.815C5.98791 45.8519 5.49964 45.882 5.13138 45.9049C4.78962 45.9265 4.59985 45.9332 4.59864 45.9223C4.59772 45.9113 4.78535 45.8839 5.12589 45.8434C5.46644 45.8019 5.9602 45.7532 6.57122 45.7029C7.79328 45.6018 9.48655 45.5098 11.3589 45.4989C13.2307 45.4894 14.9249 45.5634 16.1478 45.6515C16.7595 45.695 17.2538 45.7386 17.5947 45.7764C17.9364 45.8135 18.1244 45.8388 18.1235 45.8498Z" fill="#263238"/>
<path d="M18.7208 40.0858C18.7089 40.1282 16.7366 39.6146 14.316 38.939C11.8944 38.2634 9.9416 37.6816 9.95318 37.6393C9.96506 37.5969 11.937 38.1105 14.3586 38.7861C16.7793 39.4617 18.7327 40.0438 18.7208 40.0858Z" fill="#263238"/>
<path d="M19.9963 35.2534C19.9945 35.2586 19.9451 35.2473 19.8525 35.2211C19.7426 35.1879 19.6098 35.1474 19.4496 35.099C19.1002 34.9912 18.5994 34.8206 17.985 34.597C16.7563 34.1508 15.0813 33.4676 13.2899 32.5867C11.4992 31.7033 9.93631 30.792 8.83335 30.0899C8.28172 29.7393 7.84127 29.4462 7.54276 29.2351C7.40661 29.1377 7.2939 29.057 7.20039 28.9902C7.12302 28.933 7.08403 28.9004 7.08708 28.8958C7.09013 28.8913 7.1352 28.9147 7.21806 28.9637C7.31583 29.0238 7.43402 29.0962 7.57657 29.1837C7.88513 29.3789 8.33411 29.657 8.89214 29.9945C10.0079 30.6707 11.5744 31.5638 13.3597 32.4441C15.1456 33.3223 16.8084 34.0198 18.0243 34.4919C18.6323 34.7286 19.1264 34.915 19.4694 35.0405C19.6256 35.1002 19.7551 35.1499 19.8623 35.1907C19.9521 35.2269 19.9981 35.2482 19.9963 35.2534Z" fill="#263238"/>
<path d="M22.8633 30.3954C22.838 30.4313 21.2961 29.3887 19.4195 28.0673C17.5422 26.7453 16.0414 25.6451 16.0667 25.6092C16.092 25.5732 17.6336 26.6156 19.5108 27.9375C21.3875 29.2592 22.8885 30.3597 22.8633 30.3954Z" fill="#263238"/>
<path d="M16.803 15.5893C16.8067 15.5854 16.8463 15.6146 16.9185 15.6737C17.0034 15.7465 17.1055 15.8339 17.2282 15.939C17.5124 16.1909 17.891 16.5266 18.3501 16.9332C19.3123 17.7919 20.6078 18.9476 22.0397 20.225C23.4777 21.4964 24.7783 22.6469 25.7445 23.501C26.2027 23.9089 26.5807 24.2451 26.8642 24.4977C26.983 24.607 27.0817 24.6981 27.164 24.7739C27.2313 24.8385 27.2651 24.8745 27.2614 24.8784C27.2578 24.8827 27.2173 24.855 27.143 24.7983C27.0555 24.7285 26.9501 24.6451 26.8237 24.5446C26.5484 24.3216 26.1545 23.9945 25.6708 23.586C24.7034 22.7694 23.3787 21.6268 21.934 20.3438C20.4899 19.0609 19.199 17.8808 18.2739 17.0164C17.8115 16.5842 17.4396 16.2314 17.1859 15.9847C17.0711 15.8711 16.9757 15.7764 16.8962 15.6975C16.8316 15.6305 16.7994 15.5933 16.803 15.5893Z" fill="#263238"/>
<path d="M26.3056 15.8662C26.3141 15.8592 26.3875 15.9347 26.5127 16.077C26.6382 16.2189 26.8137 16.4297 27.0257 16.6941C27.4497 17.2226 28.0138 17.9706 28.5977 18.8241C29.1816 19.6782 29.6742 20.4754 30.0129 21.0623C30.1825 21.3557 30.315 21.5957 30.4019 21.7641C30.489 21.9326 30.5328 22.0282 30.5234 22.0334C30.5033 22.045 30.2797 21.6907 29.9172 21.1205C29.5548 20.5497 29.0488 19.765 28.467 18.9137C27.885 18.0629 27.3373 17.3069 26.9367 16.7623C26.5365 16.2174 26.2876 15.8808 26.3056 15.8662Z" fill="#263238"/>
<g opacity="0.2">
<path d="M14.1309 13.2762L27.3819 24.8787L30.6758 22.243L22.9862 10.4602C22.9862 10.4602 22.3971 10.8936 20.8659 11.3311C19.3828 11.7551 15.0154 11.8684 14.1309 13.2762Z" fill="black"/>
</g>
<g opacity="0.2">
<path d="M28.8809 3.46134L35.3521 19.6575L39.4864 18.3621L38.1087 4.31483C38.1087 4.31483 37.3966 4.48145 35.8169 4.28072C34.2866 4.08608 30.572 2.63375 28.8809 3.46134Z" fill="black"/>
</g>
<g opacity="0.3">
<path d="M46.1338 0.0699779L46.5678 17.6582L50.4439 17.8443L54.368 4.34534C54.2934 4.33864 53.2806 4.16349 52.0863 3.40017C50.7439 2.54272 48.011 -0.0698333 46.1338 0.0699779Z" fill="black"/>
</g>
<g opacity="0.2">
<path d="M63.0329 3.39282L56.6025 19.6073L60.1036 21.281L68.9525 10.3578C68.8861 10.3228 68.0476 9.62432 67.2721 8.38186C66.4289 7.03035 64.9918 3.9341 63.0329 3.39282Z" fill="black"/>
</g>
<g opacity="0.2">
<path d="M78.1357 13.5111L66.1582 25.9927L68.8277 29.59L80.5304 21.7792C80.5304 21.7792 80.0388 21 79.7607 19.5005C79.4789 17.9835 79.4381 15.2196 78.1357 13.5111Z" fill="black"/>
</g>
<g opacity="0.2">
<path d="M87.5895 27.6012L71.4609 34.2393L72.799 38.36L86.8313 36.8373C86.8313 36.8373 86.7436 36.4035 86.9279 34.8217C87.1067 33.2893 88.7159 29.8668 87.5895 27.6012Z" fill="black"/>
</g>
<g opacity="0.2">
<path d="M91.1596 45.1721L73.5769 45.7877L73.4307 49.6653L86.8437 53.5894C86.8495 53.5145 86.9692 52.757 87.3755 51.9884C88.363 50.1209 91.1596 47.488 91.1596 45.1721Z" fill="black"/>
</g>
<g opacity="0.2">
<path d="M87.9207 61.7984L71.7313 55.4883L70.0938 59.0064L81.1078 67.742C81.1422 67.6753 81.7855 67.0792 83.0197 66.2909C84.3627 65.4338 87.5482 64.0491 87.9207 61.7984Z" fill="black"/>
</g>
<g opacity="0.2">
<path d="M64.1076 61.5474L60.1006 64.9105C60.404 65.2278 65.7448 74.3043 69.0351 79.9156C69.0805 79.8824 69.1228 79.8437 69.1691 79.8124C71.3367 78.3613 75.1923 78.9431 77.3662 77.5081L64.1076 61.5474Z" fill="black"/>
<path d="M56.7447 67.9087L50.7617 69.9486L53.5945 86.1911C53.7812 86.1259 53.9689 86.0723 54.1577 86.0348C56.9789 85.4768 60.6978 87.9328 63.2936 86.8563C63.6505 86.7083 63.9731 86.4966 64.2741 86.2438L56.7447 67.9087Z" fill="black"/>
<path d="M45.8194 90.2712L46.7755 69.0525L41.6028 67.7421L37.7539 86.0113C37.8014 86.019 37.8492 86.0253 37.8965 86.0345C40.5687 86.5633 43.0104 90.1018 45.8194 90.2712Z" fill="black"/>
<path d="M32.8124 65.4502C32.8124 65.4502 25.9769 74.6056 22.4033 79.5364C22.5705 79.6196 22.7314 79.7106 22.8834 79.8124C25.2309 81.3841 26.1188 85.7612 28.76 86.8562C28.8812 86.9065 29.0055 86.9467 29.1313 86.9823L38.6802 68.9077L32.8124 65.4502Z" fill="black"/>
<path d="M25.7979 58.0784L11.2197 68.0982C11.2755 68.1704 11.3364 68.2398 11.3866 68.3151C12.9703 70.6806 12.1256 75.0622 14.1311 77.0677C14.3157 77.2523 14.5258 77.4058 14.7473 77.5463C19.8987 71.7397 29.1463 61.3181 29.4814 60.9559L25.7979 58.0784Z" fill="black"/>
<path d="M22.4576 50.9248L5.22186 53.7085C5.4963 56.4731 3.3172 59.9653 4.34278 62.4384C4.40553 62.5897 4.48168 62.7335 4.56484 62.8739C10.5965 59.8709 23.199 53.6239 23.7232 53.5894L22.4576 50.9248Z" fill="black"/>
<path d="M21.517 41.3241L5.22361 36.6219C5.2099 36.7636 5.19193 36.904 5.16452 37.0417C4.62294 39.7797 0.919922 42.2753 0.919922 45.1724C0.919922 45.3667 0.937892 45.5592 0.968961 45.7502H20.8572L21.517 41.3241Z" fill="black"/>
<path d="M4.40918 27.7761C10.4975 31.0393 22.4043 37.6397 22.4043 37.6397L25.3346 32.0749L11.5706 21.7122C11.5118 21.8197 11.4546 21.9287 11.3869 22.0292C9.84232 24.3366 5.59377 25.2379 4.40918 27.7761Z" fill="black"/>
</g>
<path d="M91.1339 45.1721C91.1339 45.1721 91.1263 45.1072 91.1147 44.9792C91.0983 44.8519 91.104 44.6579 91.0343 44.4127C90.9386 43.9156 90.6602 43.2013 90.1214 42.3707C89.5984 41.529 88.8055 40.59 87.9789 39.3981C87.5759 38.7989 87.1567 38.1224 86.9329 37.3103C86.7096 36.4971 86.7522 35.5814 86.9274 34.6582C87.0955 33.7295 87.3724 32.773 87.6146 31.7584C87.8384 30.7493 88.0797 29.6469 87.8546 28.5251C87.7349 27.971 87.4717 27.4425 87.0977 26.9835C86.7197 26.526 86.2448 26.1416 85.7431 25.7812C84.7321 25.0639 83.5707 24.4894 82.458 23.741C81.9048 23.3652 81.3553 22.9466 80.9036 22.4124C80.447 21.8796 80.1513 21.2153 79.9517 20.5281C79.56 19.1431 79.4738 17.6606 79.1762 16.18C79.0245 15.4431 78.8195 14.6941 78.426 14.0301C78.041 13.3606 77.4181 12.8428 76.691 12.529C75.9655 12.2071 75.168 12.0401 74.3617 11.9064C73.5533 11.7736 72.7269 11.6795 71.896 11.5321C71.0687 11.3834 70.2204 11.1873 69.4543 10.7633C68.6837 10.3423 68.0815 9.66548 67.5768 8.9448C67.0711 8.21833 66.6365 7.43856 66.1735 6.66883C65.7099 5.90155 65.2225 5.13 64.5902 4.47419C63.9587 3.82448 63.1165 3.35692 62.1878 3.296C61.263 3.22716 60.3261 3.40414 59.4025 3.62314C58.4766 3.8455 57.5497 4.11599 56.5893 4.29631C55.6371 4.48211 54.613 4.5476 53.6477 4.24118C52.6968 3.91099 51.8582 3.33438 51.0486 2.74041C50.2377 2.1437 49.4455 1.508 48.5768 0.980437C47.7126 0.469927 46.726 0.0444019 45.6998 0.159541L45.5094 0.17416C45.4467 0.184821 45.3846 0.201271 45.3221 0.214369C45.1978 0.243915 45.0714 0.266758 44.9484 0.301483C44.7071 0.390426 44.4595 0.462617 44.2292 0.582934C43.7562 0.793108 43.3157 1.07791 42.8789 1.36667C42.0114 1.9582 41.1936 2.63746 40.3051 3.24087C39.8655 3.54882 39.3949 3.819 38.9033 4.05141C38.4059 4.2756 37.8655 4.41084 37.3169 4.45226C36.2143 4.50618 35.1302 4.25732 34.0678 3.98927C33.0026 3.72244 31.9371 3.41662 30.8381 3.31123C30.2898 3.26524 29.7345 3.28839 29.2027 3.42119C28.6669 3.55004 28.1917 3.85433 27.7702 4.20828C26.9301 4.94145 26.3428 5.92774 25.7589 6.89759C25.1765 7.87292 24.6234 8.88997 23.8497 9.76539C23.4595 10.1952 23.0081 10.5872 22.4793 10.8525C21.9508 11.112 21.3873 11.2857 20.8171 11.4203C19.6721 11.6716 18.5024 11.7791 17.3498 11.9878C16.21 12.1949 15.0239 12.519 14.1786 13.338C13.772 13.7557 13.4872 14.2783 13.2782 14.8275C13.0647 15.3776 12.9423 15.9628 12.8341 16.5491C12.6206 17.7243 12.5222 18.9311 12.2374 20.1175C12.1019 20.7106 11.8981 21.2978 11.5892 21.8336C11.2798 22.3691 10.8509 22.8336 10.3684 23.215C9.40586 23.9887 8.31113 24.5613 7.26543 25.2016C6.74396 25.5242 6.22888 25.8598 5.75492 26.2476C5.28828 26.6408 4.86428 27.0922 4.57369 27.6253C4.27914 28.1553 4.14451 28.7669 4.14938 29.3807C4.14725 29.9948 4.23924 30.6098 4.36321 31.2187C4.6209 32.4361 5.00744 33.6353 5.21365 34.8873C5.32118 35.5108 5.35986 36.1559 5.2764 36.7931C5.19446 37.4325 4.94743 38.0402 4.64009 38.5991C4.00561 39.7124 3.1771 40.6884 2.44271 41.7249C2.07171 42.2406 1.72934 42.7782 1.46037 43.3502C1.19324 43.9205 1.00408 44.5351 0.999516 45.1651C1.00348 45.795 1.18837 46.4106 1.45459 46.9817C1.72172 47.5549 2.06501 48.0923 2.4354 48.6086C3.16918 49.646 3.99891 50.6213 4.6343 51.7347C4.94256 52.2933 5.19111 52.9001 5.27549 53.5397C5.36108 54.1769 5.323 54.8227 5.21548 55.4465C5.01079 56.699 4.62334 57.8988 4.36565 59.1166C4.24168 59.7255 4.14847 60.3405 4.14938 60.9549C4.14268 61.569 4.27823 62.1806 4.57034 62.7118C4.8594 63.2458 5.2831 63.6981 5.74945 64.092C6.22371 64.4794 6.73787 64.8163 7.25965 65.1389C8.30595 65.7794 9.40068 66.3524 10.3641 67.1252C10.8463 67.5068 11.2764 67.9701 11.5868 68.5053C11.8969 69.0408 12.1003 69.6284 12.2365 70.2211C12.5222 71.4075 12.6203 72.615 12.8335 73.7901C12.9413 74.3768 13.0641 74.9619 13.2773 75.5123C13.4863 76.0615 13.7696 76.5854 14.1768 77.003C15.0212 77.8236 16.2076 78.148 17.3474 78.3554C18.5003 78.5644 19.6703 78.6719 20.8155 78.9229C21.3861 79.0572 21.9493 79.2309 22.4781 79.4901C23.0068 79.7557 23.4586 80.1474 23.8491 80.5772C24.623 81.4526 25.1762 82.47 25.7589 83.4453C26.3431 84.4151 26.9304 85.4017 27.7705 86.1352C28.192 86.4892 28.6672 86.7935 29.2033 86.9226C29.7351 87.0554 30.2907 87.0786 30.839 87.0326C31.938 86.9269 33.0038 86.6211 34.069 86.3542C35.1317 86.0862 36.2158 85.8373 37.3188 85.8915C37.8673 85.9333 38.4077 86.0688 38.9051 86.293C39.3967 86.5257 39.8673 86.7959 40.3069 87.1039C41.1954 87.7076 42.0133 88.3868 42.8811 88.9784C43.3179 89.2671 43.7583 89.5519 44.2317 89.7618C44.4619 89.8824 44.7099 89.9543 44.9511 90.0432C45.0745 90.0777 45.2006 90.1008 45.3249 90.1304C45.3873 90.1434 45.4494 90.1602 45.5122 90.1706L45.7026 90.1852C46.7291 90.3 47.7154 89.8733 48.5795 89.3631C49.4482 88.8349 50.2405 88.1995 51.0513 87.6025C51.8613 87.0088 52.6995 86.4316 53.6511 86.1023C54.6167 85.7962 55.6404 85.8626 56.5929 86.0487C57.5533 86.229 58.4802 86.4998 59.4062 86.7222C60.33 86.9409 61.267 87.1176 62.1918 87.0484C63.1202 86.986 63.9624 86.5184 64.5932 85.8678C65.2253 85.2117 65.7126 84.4398 66.1759 83.6725C66.6389 82.9028 67.0736 82.1233 67.5792 81.3966C68.0845 80.6762 68.687 79.9997 69.4583 79.5793C70.2247 79.1559 71.0733 78.9607 71.9003 78.812C72.7312 78.6646 73.5576 78.5705 74.366 78.4377C75.1723 78.3037 75.9697 78.1367 76.695 77.8142C77.4217 77.4998 78.0443 76.9811 78.4287 76.3113C78.8217 75.6469 79.0264 74.8982 79.1778 74.1611C79.475 72.6805 79.5612 71.1977 79.9536 69.8133C80.1528 69.1261 80.4495 68.4621 80.9067 67.9296C81.3587 67.3956 81.9082 66.9774 82.4616 66.6019C83.5747 65.8538 84.7358 65.279 85.7464 64.5617C86.2481 64.2013 86.7224 63.8163 87.1004 63.3591C87.4741 62.8998 87.7367 62.371 87.8558 61.8169C87.9856 61.2625 87.9521 60.6969 87.9024 60.1571C87.8488 59.614 87.7273 59.0926 87.6149 58.5839C87.3724 57.5696 87.0958 56.6131 86.9277 55.6847C86.7528 54.7615 86.7108 53.8458 86.9341 53.0329C87.1583 52.2211 87.5774 51.5446 87.9804 50.9454C88.8071 49.7538 89.5999 48.8151 90.1226 47.9735C90.6615 47.1428 90.9399 46.4288 91.0352 45.9317C91.105 45.6865 91.0992 45.4925 91.1153 45.3655C91.1263 45.2369 91.1339 45.1721 91.1339 45.1721C91.1339 45.1721 91.1315 45.2369 91.1229 45.3652C91.1092 45.4928 91.1178 45.6877 91.0504 45.9345C90.96 46.4346 90.6849 47.1544 90.1491 47.9899C89.6292 48.8364 88.8391 49.7803 88.0188 50.9713C87.6191 51.5699 87.2046 52.2446 86.9862 53.0463C86.7684 53.8486 86.8113 54.7542 86.988 55.6731C87.1577 56.597 87.4361 57.5513 87.6813 58.5674C87.7949 59.0776 87.9179 59.6006 87.9737 60.1486C88.0249 60.6932 88.0605 61.2653 87.9295 61.8318C87.8092 62.3978 87.5408 62.9406 87.161 63.4084C86.7772 63.8745 86.2981 64.2644 85.7934 64.6281C84.7769 65.3518 83.6152 65.929 82.5104 66.6747C81.9612 67.0487 81.4184 67.4639 80.9764 67.9878C80.5302 68.509 80.2408 69.1584 80.0443 69.8388C79.6575 71.2092 79.5728 72.6899 79.2761 74.1806C79.1245 74.9229 78.9192 75.682 78.5174 76.3637C78.1248 77.0515 77.4787 77.5906 76.7379 77.911C75.998 78.2409 75.193 78.4097 74.3834 78.5452C73.5716 78.6798 72.7455 78.7749 71.9198 78.9223C71.0973 79.0706 70.2594 79.2662 69.5134 79.6798C68.7647 80.0886 68.1756 80.749 67.6752 81.4639C67.1747 82.184 66.7416 82.9619 66.2783 83.7341C65.8141 84.5041 65.3243 85.283 64.68 85.9534C64.0398 86.6186 63.1579 87.109 62.2024 87.1727C61.2527 87.2446 60.3048 87.0646 59.3763 86.8458C58.4464 86.6232 57.5204 86.3539 56.5692 86.176C55.624 85.9921 54.6249 85.9311 53.6919 86.2275C52.7668 86.5483 51.9368 87.1176 51.1305 87.7103C50.3224 88.3058 49.5286 88.9439 48.6493 89.4794C48.4226 89.6019 48.2064 89.7438 47.9673 89.8458C47.8494 89.8995 47.7336 89.9589 47.6136 90.0082L47.245 90.1389C46.7486 90.2897 46.2173 90.3911 45.6898 90.3223L45.4918 90.3067C45.4266 90.2964 45.3626 90.279 45.298 90.2656C45.1695 90.2354 45.0388 90.2114 44.9115 90.1757C44.6639 90.085 44.4083 90.0103 44.1735 89.8879C43.6895 89.6731 43.2438 89.385 42.8025 89.0938C41.9277 88.498 41.1083 87.8184 40.2274 87.2208C39.7912 86.9153 39.3279 86.6503 38.8469 86.4228C38.3608 86.2044 37.8421 86.0752 37.3093 86.0344C36.2371 85.982 35.164 86.2263 34.104 86.4947C33.0416 86.7609 31.9709 87.07 30.8512 87.1782C30.292 87.2251 29.7193 87.2028 29.1649 87.0646C28.6051 86.9296 28.108 86.6122 27.6736 86.247C26.8076 85.4904 26.2173 84.4934 25.6304 83.5214C25.0471 82.5449 24.4945 81.5333 23.737 80.6777C23.3544 80.2574 22.92 79.8815 22.4092 79.6247C21.8966 79.3737 21.3443 79.2031 20.7817 79.0706C19.6502 78.8227 18.482 78.7152 17.3194 78.5053C16.74 78.3932 16.1552 78.2735 15.5972 78.0527C15.0403 77.8373 14.503 77.5388 14.0671 77.1109C13.6401 76.6731 13.3468 76.1291 13.1323 75.5662C12.9139 75.0015 12.79 74.4088 12.6809 73.8172C12.4659 72.6326 12.3672 71.4273 12.0848 70.2574C11.9505 69.6722 11.7507 69.0993 11.4516 68.5833C11.1524 68.0679 10.7391 67.6207 10.2648 67.2455C9.31965 66.487 8.22889 65.915 7.1771 65.272C6.65197 64.9473 6.13202 64.6073 5.64832 64.2123C5.17223 63.8102 4.7336 63.3442 4.43114 62.7858C4.12501 62.2302 3.98429 61.5863 3.9913 60.9561C3.99008 60.3241 4.08542 59.6987 4.21061 59.0837C4.47104 57.8553 4.85727 56.6567 5.05892 55.4212C5.16492 54.8056 5.20055 54.1757 5.11831 53.561C5.03729 52.9457 4.79848 52.3606 4.49571 51.8114C3.87189 50.7176 3.04521 49.7441 2.30594 48.6996C1.93311 48.18 1.58465 47.6351 1.31082 47.0481C1.0382 46.4633 0.84478 45.8248 0.84082 45.1644C0.845694 44.5038 1.04307 43.8665 1.3166 43.2829C1.59196 42.6972 1.93982 42.1523 2.31325 41.6332C3.05313 40.59 3.87859 39.6162 4.5015 38.522C4.80336 37.9725 5.04064 37.3871 5.11953 36.7718C5.19994 36.1574 5.1637 35.5275 5.05739 34.9122C4.85453 33.6774 4.4686 32.4791 4.20878 31.2509C4.08389 30.636 3.98947 30.0106 3.9919 29.3789C3.98642 28.749 4.12654 28.1047 4.4351 27.5504C4.73909 26.9932 5.17832 26.5278 5.65471 26.1267C6.13811 25.7313 6.65867 25.3923 7.1835 25.0679C8.23467 24.4249 9.32544 23.8531 10.2697 23.0941C10.744 22.7191 11.1564 22.271 11.4546 21.7554C11.7525 21.2388 11.9526 20.6661 12.0863 20.081C12.3678 18.9113 12.4668 17.7063 12.6818 16.522C12.7912 15.9308 12.9152 15.338 13.1339 14.7736C13.3483 14.2107 13.6428 13.6676 14.0696 13.2299C14.5061 12.8026 15.0437 12.505 15.6005 12.2899C16.1585 12.0697 16.7431 11.9497 17.3224 11.8379C18.4848 11.628 19.6523 11.5208 20.7839 11.2726C21.3465 11.1401 21.8984 10.9695 22.4107 10.7182C22.9216 10.4617 23.3553 10.0852 23.7379 9.66518C24.4951 8.80987 25.0477 7.79829 25.6307 6.82174C26.2173 5.84977 26.8079 4.85312 27.6736 4.09679C28.108 3.73188 28.6051 3.41449 29.1649 3.27955C29.719 3.14127 30.2916 3.11903 30.8509 3.16594C31.9703 3.27407 33.041 3.58324 34.1031 3.84946C35.1631 4.11781 36.2359 4.3621 37.3081 4.31002C37.8405 4.2692 38.3593 4.14035 38.8454 3.92195C39.3261 3.69472 39.7894 3.42972 40.2259 3.12421C41.1068 2.52658 41.9258 1.84733 42.8006 1.25153C43.2417 0.960028 43.6873 0.672181 44.1713 0.457438C44.4062 0.334989 44.6614 0.260058 44.9091 0.169287C45.0361 0.133344 45.1668 0.109586 45.2953 0.0791263C45.3599 0.0654193 45.4242 0.0486658 45.489 0.0377002L45.687 0.0221649C46.2146 -0.0469792 46.7458 0.0544522 47.2423 0.20462L47.6109 0.335293C47.7312 0.384334 47.8466 0.443732 47.9648 0.497342C48.2039 0.599383 48.4205 0.74102 48.6468 0.863469C49.5265 1.39865 50.32 2.03679 51.1281 2.63228C51.9341 3.22533 52.7641 3.79433 53.6889 4.11568C54.6215 4.41236 55.6206 4.35235 56.5658 4.16838C57.5171 3.99049 58.443 3.72153 59.373 3.49856C60.3011 3.27986 61.249 3.09954 62.1988 3.17081C63.1543 3.23265 64.0361 3.72336 64.6773 4.38738C65.3218 5.0575 65.8119 5.83636 66.2761 6.60639C66.7394 7.37855 67.1726 8.1565 67.6727 8.87657C68.1726 9.59177 68.7617 10.2524 69.5098 10.6618C70.2554 11.0758 71.0934 11.2723 71.9155 11.4206C72.7413 11.568 73.5676 11.6631 74.3791 11.7974C75.1887 11.9329 75.9938 12.1014 76.734 12.4306C77.4747 12.7505 78.1217 13.289 78.515 13.9762C78.9173 14.6576 79.1229 15.4166 79.2746 16.1586C79.5719 17.6493 79.6563 19.1297 80.0425 20.5007C80.2393 21.1812 80.528 21.8309 80.9737 22.3524C81.4156 22.8766 81.9581 23.2921 82.507 23.6664C83.6115 24.4124 84.7736 24.9893 85.79 25.713C86.2947 26.0767 86.7742 26.466 87.158 26.9323C87.5381 27.3999 87.8071 27.9424 87.9277 28.5083C88.0593 29.0749 88.0236 29.6472 87.9728 30.1918C87.9173 30.7398 87.7946 31.2631 87.6806 31.773C87.4354 32.7895 87.157 33.7438 86.9874 34.6676C86.8107 35.5866 86.7672 36.4922 86.9849 37.2948C87.2033 38.0968 87.6176 38.7715 88.0172 39.3703C88.8375 40.5616 89.628 41.5056 90.1479 42.3524C90.6837 43.1879 90.9591 43.908 91.0495 44.4081C91.1169 44.6549 91.1083 44.8498 91.122 44.9774C91.1318 45.1072 91.1339 45.1721 91.1339 45.1721Z" fill="#263238"/>
<path d="M37.5659 87.0305C37.6082 87.0412 36.484 91.5998 35.0548 97.2109C33.6253 102.824 32.4322 107.364 32.3898 107.353C32.3475 107.342 33.4715 102.784 34.901 97.1716C36.3301 91.5608 37.5236 87.0199 37.5659 87.0305Z" fill="#263238"/>
<path d="M14.0705 72.9168L17.5373 62.0591C14.8383 56.6464 13.5561 50.4464 14.1413 43.9842C15.8221 25.3977 32.2731 11.6957 50.8842 13.3795C69.4971 15.0623 83.2217 31.4937 81.5409 50.0802C79.86 68.6656 63.409 82.3677 44.797 80.6849C37.0251 79.9819 30.6247 77.168 25.323 72.2394L14.0705 72.9168Z" fill="#FAFAFA"/>
<path d="M14.0708 72.9168C14.0708 72.9168 14.3319 72.8903 14.8199 72.854C15.3245 72.8177 16.0442 72.7656 16.9838 72.6989C18.8905 72.5683 21.6847 72.3769 25.3163 72.1285L25.3635 72.1255L25.3988 72.1579C28.5965 75.1102 33.479 78.3865 40.0826 79.7826C41.7203 80.1341 43.4472 80.408 45.2479 80.5199C46.1492 80.5543 47.0652 80.5886 47.9969 80.623C48.9277 80.6161 49.8722 80.5189 50.8324 80.4698C54.6565 80.1144 58.6681 79.0855 62.5177 77.2044C66.3644 75.3321 70.0413 72.6125 73.1153 69.1035C76.1815 65.6005 78.6733 61.3159 80.0615 56.5159C81.442 51.7237 81.7925 46.4701 80.8961 41.2881C80.741 39.9784 80.3276 38.7168 79.9987 37.4287C79.8554 36.7777 79.5795 36.1671 79.3547 35.5377C79.1151 34.9143 78.8952 34.28 78.6369 33.6615C77.4823 31.2423 76.2129 28.8202 74.4859 26.6888C73.7054 25.5636 72.7373 24.6015 71.8282 23.599C71.3922 23.0787 70.8483 22.6693 70.3584 22.2068C69.8508 21.765 69.3727 21.2889 68.8435 20.8785L67.2294 19.6875L66.4243 19.0955L65.5692 18.584L63.8658 17.5649C63.2924 17.2389 62.6797 16.9905 62.0916 16.6999C57.3427 14.4722 52.1902 13.3903 47.2085 13.4983C42.2239 13.5964 37.4357 14.8119 33.2473 16.8364C29.0501 18.8569 25.4528 21.6698 22.6233 24.8714C19.7859 28.0741 17.7202 31.6586 16.3633 35.2471C16.2013 35.6997 16.0403 36.1474 15.8812 36.5932C15.7114 37.036 15.5631 37.4797 15.4669 37.9372C15.2421 38.8405 15.0212 39.73 14.8032 40.6048C14.5627 42.3897 14.2348 44.1049 14.2004 45.7838C13.9294 52.5131 15.7035 58.0936 17.6367 62.009L17.6573 62.0503L17.6436 62.0925C16.4958 65.5906 15.6122 68.2808 15.0094 70.1167C14.709 71.021 14.4792 71.7132 14.3182 72.1982C14.1611 72.6684 14.0708 72.9168 14.0708 72.9168C14.0708 72.9168 14.1307 72.693 14.2701 72.2315C14.4174 71.7495 14.6284 71.0622 14.9043 70.1649C15.4826 68.3024 16.3299 65.573 17.4315 62.0247L17.4384 62.1082C15.4542 58.1869 13.6241 52.569 13.8617 45.771C13.8872 44.0755 14.2092 42.3406 14.4458 40.5351C14.6618 39.6505 14.8808 38.7502 15.1046 37.8351C15.1999 37.3727 15.3481 36.9221 15.518 36.4744C15.678 36.0237 15.839 35.5691 16.001 35.1106C17.3588 31.475 19.4373 27.8384 22.3022 24.5857C25.1583 21.335 28.7968 18.475 33.047 16.4172C37.2894 14.3564 42.1444 13.1134 47.2017 13.0083C52.255 12.8925 57.485 13.9833 62.3076 16.2424C62.9046 16.536 63.5261 16.7883 64.1083 17.1191L65.8392 18.152L66.7081 18.6714L67.5259 19.2713L69.1655 20.4798C69.7026 20.8961 70.1886 21.3792 70.704 21.8279C71.2008 22.2972 71.7526 22.7125 72.1963 23.2407C73.1192 24.2578 74.101 25.2357 74.8943 26.3775C76.6459 28.5424 77.9369 30.9998 79.1063 33.4573C79.3684 34.0856 79.5912 34.7297 79.8347 35.363C80.0635 36.0011 80.3423 36.6216 80.4876 37.2824C80.8215 38.5892 81.2387 39.8714 81.3968 41.2008C82.303 46.4622 81.9417 51.7924 80.5338 56.6533C79.118 61.5221 76.583 65.8646 73.4668 69.4098C70.3427 72.961 66.6089 75.7071 62.7082 77.5922C58.8036 79.4851 54.7389 80.514 50.8687 80.8576C49.8977 80.9038 48.9414 80.998 48.0009 81C47.0593 80.9607 46.1334 80.9215 45.2223 80.8832C43.405 80.7614 41.6643 80.4767 40.0119 80.1134C33.3494 78.6692 28.4385 75.3223 25.2506 72.3199L25.332 72.3494C21.663 72.5408 18.8404 72.6881 16.9141 72.7892C15.9873 72.8344 15.2764 72.8687 14.7787 72.8933C14.2995 72.9139 14.0708 72.9168 14.0708 72.9168Z" fill="#263238"/>
<path d="M28.6631 45.7563L34.2319 40.9346L43.611 50.5602L64.6382 33.0488L69.0887 38.5901L42.1491 60.5265L28.6631 45.7563Z" fill="#F766A1"/>
</svg>
