<svg width="32" height="32" viewBox="0 0 32 32" fill="none" xmlns="http://www.w3.org/2000/svg">
<path fill-rule="evenodd" clip-rule="evenodd" d="M16 5.00049C12.134 5.00049 9 8.13449 9 12.0005C9 15.8665 12.134 19.0005 16 19.0005C19.866 19.0005 23 15.8665 23 12.0005C23 8.13449 19.866 5.00049 16 5.00049ZM7 12.0005C7 7.02993 11.0294 3.00049 16 3.00049C20.9706 3.00049 25 7.02993 25 12.0005C25 16.9711 20.9706 21.0005 16 21.0005C11.0294 21.0005 7 16.9711 7 12.0005Z" fill="#508AFF"/>
<path fill-rule="evenodd" clip-rule="evenodd" d="M16 20.9994C13.7179 20.9994 11.4759 21.6002 9.49953 22.7414C7.52315 23.8825 5.88202 25.5239 4.74112 27.5004C4.46502 27.9787 3.85344 28.1427 3.37512 27.8666C2.89681 27.5905 2.73288 26.9789 3.00897 26.5006C4.32541 24.22 6.21902 22.3261 8.49945 21.0094C10.7799 19.6926 13.3668 18.9994 16 18.9994C18.6333 18.9994 21.2202 19.6926 23.5006 21.0094C25.7811 22.3261 27.6747 24.22 28.9911 26.5006C29.2672 26.9789 29.1033 27.5905 28.625 27.8666C28.1466 28.1427 27.5351 27.9787 27.259 27.5004C26.1181 25.5239 24.4769 23.8825 22.5006 22.7414C20.5242 21.6002 18.2822 20.9994 16 20.9994Z" fill="#508AFF"/>
</svg>
