<svg width="326" height="211" viewBox="0 0 326 211" fill="none" xmlns="http://www.w3.org/2000/svg">
<path d="M36.3521 126.25C36.3521 98.636 58.7378 76.2502 86.352 76.2502H254.115C281.729 76.2502 304.115 98.636 304.115 126.25V203.038H36.3521V126.25Z" fill="#FFD8B3"/>
<path d="M138.712 192.214L116.352 178.043L122.919 164.635L106.966 158.631L95.7563 183.73C95.7563 183.73 111.603 190.952 122.583 195.106C133.563 199.26 141.465 199.492 141.465 199.492L138.712 192.214Z" fill="#FFB6B6"/>
<path d="M207.314 179.01L210.883 203.038H138.597L144.041 183.523L207.314 179.01Z" fill="#0A2A6B"/>
<path d="M150.337 78.5712V104.472L144.041 107.584C144.041 107.584 155.416 127.658 165.259 121.278C175.102 114.897 174.947 103.849 174.947 103.849L167.322 103.538L166.699 94.5124L154.406 76.617L150.337 78.5712Z" fill="#FFB6B6"/>
<path d="M150.838 55.4771C149.56 59.3425 149.324 63.5419 149.445 67.6596C149.683 75.8207 152.394 84.0382 156.048 91.1146C157.003 92.9639 158.103 94.7443 159.513 96.1879C163.493 100.265 170.846 101.196 175.522 98.1743C177.197 97.0923 178.633 95.5998 179.921 93.9889C183.469 89.5527 184.411 83.5728 185.413 77.2998C186.417 71.0148 187.477 64.4351 186.556 58.5698C186.033 55.2377 184.439 53.8184 182.66 51.0786C180.103 47.1439 175.877 44.7932 171.554 44.1825C167.116 43.5551 162.659 44.7447 158.435 46.184C154.765 47.4344 152.107 51.6414 150.838 55.4771Z" fill="#FFB6B6"/>
<path d="M153.393 55.489C155.478 63.0867 154.72 71.4291 151.3 78.527C148.166 76.9866 145.288 74.4728 143.637 71.3963C141.986 68.3198 141.124 64.8693 140.713 61.4021C140.416 58.9023 140.366 56.2718 141.396 53.9754C142.427 51.6785 144.794 49.8228 147.297 50.0961C147.619 47.1143 149.802 44.2729 152.237 42.521C154.67 40.7686 157.62 39.855 160.582 39.3879C169.17 38.0337 178.277 40.3796 185.142 45.7143C186.901 47.0809 188.559 48.6929 189.427 50.7439C190.295 52.795 190.223 55.3631 188.77 57.0515C187.048 59.0535 184.076 59.265 181.436 59.3279C171.445 59.5641 162.427 59.7659 153.393 55.489Z" fill="#0A2A6B"/>
<path d="M142.995 74.2205C143.314 76.4523 144.63 78.5227 146.515 79.7581C147.106 80.1449 147.766 80.4575 148.47 80.5081C150.057 80.6222 151.492 79.3223 151.977 77.8066C152.461 76.2909 152.181 74.6343 151.7 73.1175C151.078 71.1563 149.885 69.0983 147.882 68.6297C144.653 67.8737 142.601 71.4555 142.995 74.2205Z" fill="#FFB6B6"/>
<path d="M150.337 78.5711C149.643 78.3602 149.011 77.9507 148.535 77.4035C148.439 77.2938 148.346 77.1716 148.323 77.028C148.278 76.753 148.491 76.5104 148.689 76.314C149.088 75.9169 149.488 75.5193 149.887 75.1222C149.967 75.0431 150.049 74.9587 150.08 74.8505C150.113 74.7316 150.078 74.6046 150.042 74.4863C149.59 72.976 149.055 71.3478 147.754 70.4574C147.402 70.2169 146.994 70.0393 146.569 70.0307C145.937 70.0189 145.345 70.3858 144.94 70.8711C144.534 71.3564 144.287 71.951 144.058 72.5396C144.058 72.5396 143.723 75.7733 145.968 77.721C148.214 79.6687 150.337 78.5711 150.337 78.5711Z" fill="#FFB6B6"/>
<path d="M144.059 72.5397C144.23 71.9102 144.452 71.2801 144.864 70.7259C145.278 70.1938 145.94 69.7472 146.711 69.7951C147.472 69.85 148.083 70.289 148.572 70.7733C149.062 71.2763 149.409 71.8832 149.681 72.4972C149.947 73.1181 150.141 73.753 150.321 74.3819C150.342 74.4599 150.373 74.5552 150.382 74.68C150.396 74.7995 150.362 74.9738 150.288 75.0846C150.134 75.3063 150.021 75.3687 149.904 75.493L149.189 76.1607C148.957 76.3856 148.677 76.6003 148.56 76.8048C148.502 76.9108 148.49 76.9931 148.537 77.1028C148.584 77.2121 148.694 77.339 148.794 77.4574C149.196 77.9433 149.736 78.3124 150.337 78.5706C149.691 78.4474 149.082 78.1197 148.574 77.6726C148.451 77.5553 148.327 77.4488 148.218 77.2702C148.101 77.0937 148.097 76.8134 148.188 76.6294C148.27 76.4367 148.394 76.2979 148.509 76.172L148.844 75.8131L149.516 75.1024C149.621 74.9894 149.77 74.8484 149.794 74.7941C149.812 74.7699 149.808 74.7204 149.752 74.5525C149.556 73.9348 149.363 73.3214 149.106 72.7479C148.862 72.1684 148.55 71.6271 148.142 71.1811C147.742 70.7356 147.219 70.3643 146.667 70.2809C146.116 70.2024 145.522 70.4886 145.094 70.9271C144.645 71.3635 144.359 71.9613 144.059 72.5397Z" fill="#0A2A6B"/>
<path d="M147.198 106.023C147.198 106.023 124.372 116.609 120.638 120.188C116.903 123.768 97.4517 155.201 97.4517 155.201C97.4517 155.201 103.561 162.204 110.699 165.005C117.837 167.806 125.617 167.962 125.617 167.962L134.021 150.066L144.041 183.523C144.041 183.523 160.164 195.349 181.016 192.549C201.868 189.748 207.314 179.01 207.314 179.01L203.268 150.281C203.268 150.281 211.049 148.355 216.184 144.309C221.319 140.262 227.388 132.638 227.388 132.638C227.388 132.638 202.646 109.14 200.001 106.184C197.355 103.227 172.455 103.748 172.455 103.748C172.455 103.748 173.39 113.031 165.921 114.587C158.452 116.142 147.198 106.023 147.198 106.023Z" fill="#55A3F3"/>
<path d="M167.061 99.7616C164.3 99.1945 161.763 97.809 159.603 95.9969C157.663 94.3677 156.112 92.3322 154.579 90.3146C155.144 91.5768 155.515 92.5238 156.256 93.6919C157.499 95.6509 158.929 97.5179 160.723 98.989C162.516 100.46 164.893 101.661 167.205 101.849" fill="#0A2A6B"/>
<path d="M144.041 107.584C144.041 107.584 156.071 119.453 167.205 116.955C178.354 114.454 175.852 103.712 175.852 103.712" stroke="#0A2A6B" stroke-miterlimit="10"/>
<path d="M203.518 151.372C203.232 148.588 202.939 145.809 202.592 143.037C202.244 140.265 201.88 137.496 201.426 134.74C201.015 131.978 200.518 129.229 200.001 126.484C199.744 125.111 199.471 123.74 199.189 122.371L198.337 118.263C198.736 119.605 199.089 120.959 199.446 122.313C199.781 123.672 200.1 125.035 200.407 126.401C201.009 129.136 201.503 131.893 201.957 134.657C202.368 137.427 202.741 140.203 203.002 142.991C203.264 145.78 203.453 148.574 203.518 151.372Z" fill="#0A2A6B"/>
<path d="M224.578 129.965C224.578 129.965 220.378 137.068 215.575 140.469C210.773 143.871 203.178 146.872 203.178 146.872" stroke="#0A2A6B" stroke-miterlimit="10"/>
<path d="M133.395 151.071C134.153 148.803 134.783 146.498 135.181 144.155C135.577 141.814 135.776 139.438 135.633 137.073C135.533 134.709 135.088 132.362 134.34 130.115C133.968 128.991 133.507 127.894 132.958 126.841C132.424 125.779 131.782 124.772 131.075 123.807C131.878 124.695 132.57 125.683 133.189 126.713C133.792 127.754 134.304 128.849 134.73 129.977C135.574 132.238 136.026 134.637 136.169 137.045C136.269 139.456 136.074 141.877 135.586 144.231C135.099 146.586 134.361 148.881 133.395 151.071Z" fill="#0A2A6B"/>
<path d="M99.1196 152.52C99.1196 152.52 102.811 157.579 110.816 161.481C118.82 165.383 127.151 164.695 127.151 164.695" stroke="#0A2A6B" stroke-miterlimit="10"/>
<g opacity="0.31">
<path d="M147.754 47.7132C148.587 48.1845 149.446 48.6042 150.335 48.948C151.229 49.2783 152.139 49.5641 153.07 49.7642C154.924 50.1876 156.826 50.3819 158.728 50.4125C162.537 50.4954 166.329 49.9789 170.14 49.584C172.048 49.4059 173.965 49.2617 175.891 49.2525C176.853 49.2504 177.817 49.2713 178.778 49.3521C179.739 49.4182 180.702 49.5452 181.647 49.7637C183.524 50.1871 185.402 50.9979 186.726 52.4566C187.373 53.1846 187.875 54.0417 188.153 54.9714C188.445 55.8952 188.462 56.9025 188.192 57.8209C188.632 55.9302 187.838 53.9637 186.533 52.6363C185.225 51.2734 183.398 50.5325 181.559 50.1683C177.83 49.4796 173.979 49.7351 170.193 50.1188C166.394 50.4669 162.57 50.9963 158.716 50.8242C156.794 50.7429 154.872 50.5002 153.008 50.0187C151.149 49.5221 149.351 48.7737 147.754 47.7132Z" fill="white"/>
<path d="M151.644 43.0322C152.268 43.2372 152.903 43.4002 153.543 43.5261C154.186 43.6413 154.834 43.7134 155.484 43.7505C156.785 43.8269 158.089 43.7585 159.381 43.5955C161.968 43.2743 164.502 42.6104 167.065 42.0239C169.63 41.4826 172.27 40.9978 174.93 41.1899C176.254 41.2889 177.57 41.5294 178.823 41.9663C180.067 42.4231 181.246 43.0704 182.227 43.9496C181.697 43.5611 181.138 43.2194 180.558 42.9235C179.971 42.6383 179.362 42.4059 178.741 42.217C177.497 41.8393 176.204 41.6505 174.908 41.6031C172.31 41.5004 169.727 41.969 167.181 42.549C164.623 43.0876 162.064 43.7672 159.425 44.005C158.108 44.1207 156.78 44.1443 155.463 44.012C154.15 43.8592 152.849 43.5605 151.644 43.0322Z" fill="white"/>
<path d="M150.854 55.0559C151.018 55.6956 150.996 56.3773 150.888 57.0354C150.763 57.6929 150.537 58.3278 150.265 58.9358C149.717 60.1517 148.943 61.258 148.051 62.248C147.139 63.2197 146.101 64.0811 144.942 64.7354C143.795 65.4068 142.542 65.8889 141.253 66.1472C141.863 65.8991 142.472 65.6689 143.045 65.3573C143.626 65.0689 144.191 64.7499 144.723 64.3835C145.798 63.6668 146.784 62.828 147.655 61.8837C148.525 60.9378 149.28 59.8854 149.896 58.7528C150.202 58.1873 150.46 57.595 150.632 56.9757C150.821 56.3607 150.898 55.7123 150.854 55.0559Z" fill="white"/>
<path d="M145.987 52.2161C145.764 53.6764 145.062 55.0607 144.098 56.1987C143.13 57.3351 141.875 58.2487 140.47 58.7227L140.296 58.7813L140.378 58.6323C140.467 58.4677 140.564 58.3057 140.664 58.1448C140.615 58.3272 140.563 58.5085 140.505 58.6872L140.412 58.5968C141.653 57.836 142.76 56.9267 143.695 55.8511C144.633 54.7783 145.383 53.5558 145.987 52.2161Z" fill="white"/>
</g>
<path d="M140.659 199.442C140.659 199.442 143.495 198.842 144.698 197.944C145.901 197.045 147.007 195.659 147.172 194.166C148.714 194.357 149.856 195.659 151.265 196.313C151.427 196.388 151.618 196.454 151.779 196.377C152.041 196.25 152.014 195.872 151.931 195.593C151.055 192.628 148.361 190.183 145.299 189.754C146.795 189.962 148.319 190.179 149.675 190.844C150.624 191.31 151.49 191.993 152.525 192.201C152.63 192.222 152.745 192.236 152.835 192.179C152.93 192.12 152.967 192 152.978 191.889C153.033 191.313 152.588 190.82 152.155 190.436C149.822 188.365 146.994 187.052 143.909 186.598C146.973 186.031 150.23 186.575 152.944 188.105C153.22 188.26 153.506 188.431 153.822 188.444C154.139 188.457 154.491 188.247 154.509 187.931C154.516 187.798 154.465 187.669 154.409 187.548C153.855 186.348 152.77 185.476 151.628 184.81C148.747 183.133 145.246 182.393 141.967 182.992C144.929 181.85 148.281 181.751 151.305 182.715C152.136 182.98 152.949 183.323 153.811 183.45C153.911 183.464 154.024 183.473 154.102 183.409C154.242 183.294 154.157 183.07 154.058 182.919C152.741 180.923 150.508 179.61 148.15 179.207C145.792 178.803 143.099 178.776 141.238 180.278C141.238 180.278 140.286 182.295 139.887 184.781C139.487 187.268 138.711 192.214 138.711 192.214L136.35 192.332L140.185 199.402L140.659 199.442Z" fill="#FFB6B6"/>
<path d="M221.725 139.113C221.725 139.113 219.794 141.376 215.992 144.174C213.485 146.019 209.828 147.981 209.828 147.981L223.152 165.82L212.901 183.361C212.901 183.361 211.17 178.749 210.291 176.433C209.412 174.116 208.094 172.362 208.094 172.362C206.002 171.284 203.412 171.845 201.221 172.703C199.029 173.561 197.138 175.269 196.266 177.454C196.2 177.62 196.162 177.853 196.32 177.935C196.346 177.948 196.373 177.955 196.401 177.957C196.844 177.994 197.266 177.769 197.626 177.509C200.567 175.388 204.362 174.528 207.932 175.121C204.016 175.21 200.175 177.203 197.654 180.154C197.15 180.744 196.788 181.482 196.812 182.258C196.813 182.297 196.818 182.336 196.828 182.373C196.909 182.675 197.29 182.807 197.592 182.732C197.894 182.656 198.136 182.435 198.371 182.23C200.682 180.216 203.713 179.045 206.777 178.982C203.895 180.033 201.431 181.861 199.595 184.319C199.254 184.776 198.922 185.339 199.09 185.883C199.122 185.988 199.182 186.096 199.285 186.135C199.383 186.171 199.492 186.135 199.588 186.094C200.545 185.688 201.243 184.857 202.065 184.22C203.239 183.31 204.665 182.797 206.065 182.299C203.199 183.322 201.09 186.213 200.835 189.245C200.811 189.53 200.86 189.9 201.138 189.97C201.308 190.012 201.478 189.911 201.619 189.806C202.847 188.896 203.689 187.414 205.136 186.924C205.593 188.329 206.934 189.445 208.272 190.072C209.609 190.699 210.946 190.694 210.946 190.694L210.967 190.692C213.53 190.591 215.973 189.573 217.851 187.825L240.665 162.62L221.725 139.113Z" fill="#FFB6B6"/>
<path d="M220.903 169.669C221.558 168.237 222.328 166.861 223.168 165.527C224.01 164.194 224.946 162.915 226.017 161.735C226.553 161.15 227.161 160.609 227.814 160.144C228.467 159.689 229.146 159.272 229.857 158.92C231.271 158.206 232.767 157.64 234.321 157.372C233.572 157.61 232.84 157.889 232.132 158.218C231.418 158.532 230.722 158.885 230.052 159.278C228.708 160.067 227.429 160.94 226.404 162.097C225.33 163.213 224.411 164.48 223.505 165.752C223.049 166.387 222.614 167.038 222.186 167.694C221.743 168.342 221.328 169.007 220.903 169.669Z" fill="#0A2A6B"/>
<path d="M120.203 180.484L118.618 179.582C118.093 179.277 117.566 178.978 117.034 178.687C116.494 178.4 115.987 178.084 115.44 177.868C114.895 177.639 114.334 177.439 113.755 177.292C112.607 176.97 111.418 176.783 110.224 176.665C109.027 176.554 107.82 176.548 106.607 176.667C107.192 176.493 107.799 176.399 108.408 176.317C109.018 176.266 109.633 176.238 110.247 176.251C111.477 176.274 112.704 176.451 113.899 176.773C114.495 176.936 115.081 177.146 115.648 177.404C116.22 177.666 116.745 178 117.247 178.334C118.267 179 119.271 179.695 120.203 180.484Z" fill="#0A2A6B"/>
<path d="M100.336 82.3517C106.164 61.6519 94.107 40.1471 73.4069 34.3194C52.7067 28.4917 31.2017 40.5479 25.3741 61.2478C19.5465 81.9476 31.6031 103.452 52.3032 109.28C73.0033 115.108 94.5083 103.052 100.336 82.3517Z" fill="#55A3F3"/>
<path d="M89.8954 99.8191C106.843 83.5733 108.518 57.8189 93.6373 42.2948C78.7563 26.7708 52.954 27.3558 36.0063 43.6016C19.0586 59.8473 17.3833 85.6018 32.2644 101.126C47.1454 116.65 72.9477 116.065 89.8954 99.8191Z" stroke="#55A3F3" stroke-width="1.0506" stroke-miterlimit="10"/>
<path d="M59.5068 108.889L75.5086 122.718L68.1858 103.622L59.5068 108.889Z" fill="#55A3F3"/>
<path d="M62.4404 85.0813L61.4829 81.484C60.8809 79.2213 60.6603 77.257 60.8229 75.5897C60.9848 73.9235 61.363 72.4297 61.9567 71.1084C62.5499 69.7877 63.1846 68.577 63.8612 67.4758C64.7823 66.0201 65.57 64.611 66.2251 63.2488C66.8808 61.8872 66.9671 60.3016 66.4855 58.4905C66.2207 57.496 65.7486 56.7242 65.0703 56.1775C64.3914 55.6313 63.6506 55.2592 62.8468 55.0608C62.0424 54.8634 61.3016 54.854 60.6227 55.0348C59.3098 55.3842 58.2942 55.9818 57.5744 56.8271C56.8546 57.6729 56.3377 58.6464 56.0254 59.7471C55.7119 60.8484 55.4913 61.9734 55.3609 63.1227L53.5122 63.6148L46.5791 61.5344C46.6338 60.6477 46.8323 59.4807 47.1739 58.0322C47.5156 56.5855 48.1392 55.0619 49.0475 53.4631C49.9547 51.8654 51.2329 50.386 52.8825 49.026C54.5311 47.6672 56.6683 46.6372 59.2937 45.9385C61.8732 45.2518 64.3096 45.076 66.6038 45.4105C68.8976 45.745 70.8999 46.666 72.6093 48.1741C74.3192 49.6817 75.5714 51.929 76.3663 54.9159C77.0286 57.4053 77.2254 59.51 76.9557 61.2287C76.6864 62.948 76.195 64.4728 75.4829 65.8007C74.7703 67.1297 74.0538 68.4465 73.3362 69.7523C72.7713 70.7275 72.2621 71.7713 71.8077 72.8852C71.3521 73.9997 71.0846 75.2221 71.0027 76.5522C70.9204 77.8823 71.1083 79.4081 71.5661 81.1274L71.9453 82.5526L62.4404 85.0813ZM71.0038 98.1403C69.3746 98.5738 67.9218 98.4881 66.6464 97.8827C65.3699 97.2774 64.5401 96.2507 64.1548 94.8023C63.7816 93.3998 63.9994 92.0813 64.8104 90.8479C65.6203 89.6145 66.8178 88.7869 68.4022 88.3657C69.9855 87.9444 71.414 88.0732 72.685 88.7527C73.956 89.4321 74.7786 90.4736 75.1518 91.8762C75.5376 93.3252 75.3486 94.6221 74.589 95.7698C73.8277 96.9169 72.633 97.7069 71.0038 98.1403Z" fill="#2C54AC"/>
<path d="M60.5909 85.5734L59.6334 81.9755C59.0314 79.7128 58.8108 77.7486 58.9733 76.0812C59.1353 74.415 59.5134 72.9212 60.1072 71.5999C60.7004 70.2792 61.335 69.0685 62.0117 67.9673C62.9327 66.5117 63.7205 65.1025 64.3756 63.7397C65.0313 62.3781 65.1175 60.7926 64.636 58.9821C64.3712 57.987 63.8991 57.2158 63.2207 56.669C62.5419 56.1228 61.8011 55.7507 60.9972 55.5523C60.1929 55.3549 59.4521 55.3455 58.7732 55.5263C57.4602 55.8757 56.4447 56.4727 55.7249 57.3186C55.0051 58.1644 54.4882 59.138 54.1758 60.2387C53.8624 61.3399 53.6418 62.4649 53.5113 63.6137L44.729 62.0254C44.7837 61.1387 44.9822 59.9716 45.3239 58.5232C45.6655 57.0764 46.2891 55.5534 47.1974 53.954C48.1046 52.3569 49.3828 50.8775 51.0324 49.517C52.681 48.1581 54.8182 47.1282 57.4436 46.4294C60.0231 45.7428 62.4595 45.5676 64.7543 45.9015C67.048 46.2359 69.0504 47.1569 70.7597 48.6651C72.4696 50.1727 73.7218 52.4199 74.5168 55.4069C75.1791 57.8963 75.3759 60.0009 75.1061 61.7197C74.8369 63.4396 74.3454 64.9643 73.6334 66.2916C72.9208 67.6206 72.2043 68.938 71.4867 70.2433C70.9217 71.2179 70.4125 72.2622 69.9581 73.3762C69.5026 74.4907 69.235 75.713 69.1532 77.0431C69.0708 78.3733 69.2588 79.8991 69.7165 81.6184L70.0958 83.0436L60.5909 85.5734ZM69.1549 98.6324C67.5257 99.0658 66.0728 98.9801 64.7974 98.3748C63.5209 97.7694 62.6911 96.7434 62.3058 95.2944C61.9326 93.8919 62.1504 92.5733 62.9615 91.34C63.7714 90.1072 64.9688 89.279 66.5532 88.8577C68.1365 88.4365 69.5645 88.5653 70.836 89.2447C72.107 89.9242 72.9296 90.9663 73.3028 92.3682C73.6886 93.8172 73.4996 95.1142 72.74 96.2619C71.9782 97.409 70.7841 98.199 69.1549 98.6324Z" fill="white"/>
<g opacity="0.4">
<path d="M309.724 138.324L308.984 134.654C308.518 132.345 308.418 130.36 308.684 128.696C308.949 127.033 309.421 125.556 310.098 124.266C310.775 122.977 311.487 121.8 312.233 120.736C313.248 119.332 314.125 117.965 314.867 116.638C315.609 115.312 315.793 113.725 315.421 111.878C315.216 110.863 314.789 110.06 314.142 109.469C313.494 108.879 312.773 108.46 311.979 108.212C311.183 107.964 310.44 107.909 309.747 108.049C308.407 108.319 307.351 108.856 306.577 109.661C305.802 110.466 305.223 111.411 304.841 112.497C304.459 113.583 304.168 114.699 303.966 115.845L295.248 113.71C295.357 112.823 295.628 111.663 296.06 110.231C296.492 108.799 297.212 107.308 298.222 105.759C299.231 104.21 300.605 102.804 302.345 101.54C304.083 100.277 306.293 99.3748 308.97 98.8348C311.602 98.3046 314.059 98.278 316.342 98.7541C318.624 99.2311 320.577 100.279 322.201 101.898C323.824 103.517 324.943 105.85 325.558 108.897C326.069 111.437 326.137 113.562 325.761 115.271C325.385 116.981 324.797 118.481 324.001 119.77C323.204 121.06 322.403 122.339 321.602 123.605C320.975 124.549 320.4 125.566 319.875 126.656C319.349 127.747 319.005 128.957 318.841 130.287C318.677 131.617 318.772 133.161 319.125 134.914L319.419 136.369L309.724 138.324ZM317.518 151.962C315.855 152.297 314.402 152.121 313.159 151.435C311.914 150.749 311.144 149.667 310.847 148.189C310.558 146.758 310.858 145.448 311.748 144.26C312.638 143.071 313.889 142.314 315.507 141.988C317.122 141.663 318.548 141.88 319.783 142.64C321.017 143.4 321.779 144.496 322.067 145.927C322.365 147.405 322.096 148.696 321.262 149.802C320.427 150.907 319.18 151.627 317.518 151.962Z" fill="#55A3F3" fill-opacity="0.7"/>
<path d="M18.0352 199.619L16.6139 196.517C15.7202 194.567 15.2166 192.827 15.1058 191.296C14.9941 189.767 15.1049 188.359 15.4365 187.073C15.7681 185.788 16.1538 184.597 16.5944 183.497C17.2009 182.04 17.6947 180.645 18.076 179.313C18.4572 177.982 18.2905 176.536 17.575 174.976C17.1823 174.118 16.6361 173.494 15.9392 173.106C15.2414 172.717 14.5144 172.496 13.7581 172.442C13.0009 172.388 12.3306 172.494 11.7454 172.762C10.6132 173.281 9.78864 173.977 9.26997 174.853C8.7504 175.728 8.43476 176.687 8.32216 177.73C8.20955 178.773 8.18384 179.823 8.24413 180.881L0.0667349 180.804C-0.0210416 179.995 -0.0219292 178.911 0.0623008 177.55C0.147417 176.19 0.474584 174.718 1.04735 173.132C1.61922 171.55 2.54487 170.016 3.82428 168.532C5.1028 167.049 6.87429 165.788 9.13697 164.751C11.3606 163.732 13.5338 163.197 15.6581 163.144C17.7816 163.091 19.7322 163.614 21.5099 164.71C23.2876 165.807 24.7656 167.643 25.9457 170.218C26.929 172.364 27.4326 174.235 27.4548 175.829C27.4778 177.424 27.2695 178.877 26.8315 180.186C26.3935 181.496 25.9502 182.797 25.5042 184.087C25.1442 185.055 24.8463 186.076 24.6078 187.153C24.3693 188.23 24.3161 189.376 24.4482 190.589C24.5794 191.803 24.9855 193.153 25.6647 194.634L26.2277 195.863L18.0352 199.619ZM27.7899 210.088C26.3855 210.732 25.06 210.879 23.8143 210.53C22.5677 210.18 21.6597 209.381 21.087 208.133C20.5328 206.925 20.5257 205.699 21.0675 204.46C21.6083 203.221 22.5614 202.288 23.9277 201.662C25.2932 201.036 26.6027 200.932 27.8555 201.349C29.1083 201.766 30.0127 202.579 30.5668 203.789C31.1396 205.038 31.1697 206.238 30.6608 207.393C30.151 208.546 29.1943 209.444 27.7899 210.088Z" fill="#55A3F3" fill-opacity="0.7"/>
<path d="M217.663 28.8203L218.09 25.984C218.359 24.2001 218.806 22.7442 219.432 21.6155C220.058 20.4877 220.784 19.5479 221.609 18.796C222.434 18.0442 223.254 17.3836 224.07 16.8135C225.168 16.067 226.158 15.3133 227.039 14.5517C227.92 13.791 228.468 12.6969 228.684 11.2685C228.801 10.4839 228.705 9.79407 228.393 9.19914C228.081 8.6051 227.671 8.11479 227.164 7.72733C226.656 7.34076 226.135 7.10669 225.6 7.02601C224.564 6.86996 223.663 6.98079 222.895 7.35761C222.126 7.73442 221.462 8.26374 220.903 8.94645C220.344 9.62827 219.843 10.3562 219.398 11.1284L213.678 7.31062C213.989 6.70061 214.488 5.93634 215.173 5.01779C215.859 4.10012 216.767 3.21527 217.899 2.36321C219.031 1.51294 220.388 0.859489 221.972 0.404647C223.554 -0.0493076 225.381 -0.122012 227.45 0.190082C229.484 0.496857 231.26 1.12016 232.779 2.06087C234.297 3.00159 235.43 4.26681 236.176 5.85743C236.921 7.44804 237.117 9.41991 236.762 11.7757C236.466 13.7387 235.959 15.2859 235.241 16.4181C234.523 17.5512 233.708 18.4777 232.797 19.1968C231.885 19.9176 230.975 20.6287 230.067 21.3309C229.368 21.8469 228.688 22.4286 228.025 23.0758C227.361 23.7239 226.797 24.505 226.33 25.4201C225.864 26.3351 225.529 27.4708 225.324 28.8265L225.155 29.9499L217.663 28.8203ZM219.707 40.6781C218.423 40.4848 217.422 39.9776 216.707 39.1584C215.991 38.3392 215.719 37.3585 215.891 36.2166C216.058 35.1109 216.617 34.2456 217.569 33.6232C218.519 32.9999 219.62 32.7826 220.869 32.9706C222.117 33.1586 223.087 33.6879 223.777 34.5586C224.467 35.4292 224.728 36.4178 224.562 37.5235C224.39 38.6654 223.858 39.5246 222.968 40.1027C222.078 40.6799 220.991 40.8723 219.707 40.6781Z" fill="#55A3F3" fill-opacity="0.7"/>
<path d="M106.33 35.4197L105.899 33.1322C105.629 31.6932 105.582 30.459 105.76 29.427C105.938 28.3958 106.242 27.4817 106.674 26.6846C107.105 25.8884 107.556 25.1631 108.03 24.5079C108.672 23.6426 109.228 22.8003 109.699 21.981C110.171 21.1627 110.298 20.1776 110.081 19.0268C109.963 18.3937 109.704 17.891 109.306 17.5195C108.907 17.1471 108.462 16.8811 107.971 16.7206C107.479 16.5602 107.017 16.5203 106.585 16.6018C105.75 16.7588 105.09 17.0842 104.602 17.5789C104.114 18.0728 103.747 18.6562 103.502 19.3282C103.255 20.0003 103.065 20.6919 102.932 21.4021L97.5293 20.0056C97.6047 19.455 97.782 18.7368 98.0622 17.8493C98.3423 16.9627 98.8016 16.0424 99.4418 15.0866C100.081 14.1326 100.946 13.269 102.038 12.4976C103.128 11.7263 104.509 11.1827 106.177 10.8689C107.818 10.5603 109.345 10.563 110.76 10.8777C112.175 11.1925 113.381 11.8592 114.377 12.878C115.374 13.8967 116.05 15.3561 116.408 17.2553C116.706 18.8379 116.732 20.1599 116.484 21.2185C116.236 22.278 115.859 23.2064 115.354 24.0008C114.848 24.797 114.341 25.5852 113.833 26.3654C113.435 26.947 113.069 27.5748 112.735 28.2486C112.4 28.9225 112.176 29.6717 112.064 30.498C111.951 31.3235 111.998 32.2837 112.204 33.3769L112.374 34.283L106.33 35.4197ZM111.066 43.958C110.031 44.153 109.128 44.0324 108.361 43.5962C107.593 43.16 107.124 42.4817 106.95 41.5605C106.782 40.6685 106.979 39.8564 107.541 39.1249C108.103 38.3935 108.888 37.9324 109.895 37.7427C110.902 37.5529 111.786 37.6992 112.548 38.1816C113.31 38.6639 113.774 39.3519 113.942 40.243C114.115 41.1642 113.938 41.9639 113.411 42.6448C112.883 43.3258 112.102 43.7629 111.066 43.958Z" fill="#55A3F3" fill-opacity="0.7"/>
<path d="M183.314 18.5796L183.731 16.9118C183.993 15.863 184.343 15.0198 184.781 14.3823C185.218 13.7448 185.705 13.2261 186.239 12.8245C186.774 12.4237 187.3 12.0762 187.82 11.7818C188.517 11.3997 189.151 11.006 189.719 10.6017C190.288 10.1983 190.678 9.57674 190.887 8.7371C191.002 8.27605 190.984 7.85845 190.832 7.48607C190.679 7.11368 190.463 6.79804 190.183 6.53826C189.902 6.27847 189.605 6.11002 189.29 6.03111C188.681 5.87949 188.137 5.89367 187.658 6.07455C187.178 6.25542 186.752 6.53382 186.379 6.90887C186.007 7.28391 185.666 7.68911 185.357 8.12444L182.162 5.52129C182.382 5.17462 182.724 4.74815 183.185 4.23922C183.646 3.73029 184.238 3.25417 184.962 2.81086C185.686 2.36754 186.533 2.05545 187.503 1.87458C188.473 1.6937 189.567 1.75488 190.784 2.059C191.98 2.35779 193.003 2.83125 193.856 3.47849C194.708 4.12573 195.312 4.94498 195.666 5.93623C196.02 6.92749 196.024 8.11468 195.678 9.4996C195.39 10.6531 194.999 11.5477 194.506 12.1825C194.013 12.8174 193.474 13.3236 192.89 13.7013C192.305 14.079 191.721 14.4514 191.14 14.8185C190.694 15.0863 190.255 15.3948 189.822 15.7433C189.389 16.0917 189.008 16.5262 188.677 17.0457C188.347 17.5653 188.082 18.2232 187.883 19.0202L187.718 19.6808L183.314 18.5796ZM183.859 25.7693C183.103 25.5804 182.535 25.2213 182.155 24.692C181.775 24.1618 181.669 23.5625 181.836 22.8904C181.998 22.2405 182.381 21.7564 182.984 21.439C183.587 21.1216 184.256 21.0542 184.991 21.2377C185.725 21.4212 186.273 21.7919 186.635 22.3504C186.997 22.909 187.097 23.5137 186.935 24.1636C186.768 24.8348 186.401 25.3171 185.838 25.6115C185.274 25.9049 184.614 25.9581 183.859 25.7693Z" fill="#55A3F3" fill-opacity="0.7"/>
<path d="M304.088 191.989L304.459 189.694C304.692 188.251 305.066 187.075 305.584 186.166C306.101 185.257 306.697 184.502 307.371 183.901C308.046 183.299 308.715 182.77 309.382 182.316C310.278 181.721 311.086 181.118 311.806 180.509C312.527 179.9 312.98 179.017 313.166 177.863C313.269 177.228 313.197 176.669 312.949 176.185C312.701 175.7 312.374 175.3 311.966 174.982C311.558 174.665 311.138 174.471 310.705 174.401C309.867 174.265 309.137 174.347 308.511 174.646C307.885 174.945 307.342 175.368 306.884 175.916C306.424 176.464 306.012 177.049 305.645 177.671L301.043 174.528C301.301 174.037 301.711 173.422 302.274 172.683C302.838 171.946 303.581 171.236 304.506 170.556C305.43 169.877 306.534 169.359 307.822 169.004C309.107 168.649 310.588 168.607 312.262 168.877C313.907 169.143 315.34 169.663 316.563 170.437C317.785 171.212 318.692 172.247 319.282 173.542C319.873 174.837 320.015 176.437 319.707 178.342C319.451 179.93 319.027 181.179 318.436 182.09C317.844 183.002 317.176 183.746 316.432 184.321C315.687 184.897 314.943 185.466 314.202 186.027C313.632 186.438 313.075 186.904 312.532 187.424C311.989 187.943 311.525 188.571 311.14 189.308C310.754 190.046 310.473 190.963 310.295 192.06L310.148 192.969L304.088 191.989ZM305.644 201.613C304.605 201.446 303.799 201.026 303.226 200.357C302.653 199.686 302.442 198.89 302.591 197.966C302.735 197.072 303.195 196.376 303.972 195.879C304.748 195.383 305.641 195.216 306.651 195.379C307.661 195.542 308.442 195.98 308.994 196.691C309.545 197.402 309.748 198.205 309.605 199.1C309.456 200.023 309.018 200.715 308.293 201.175C307.566 201.635 306.683 201.782 305.644 201.613Z" fill="#55A3F3" fill-opacity="0.7"/>
<path d="M31.8647 157.811L31.8044 155.516C31.7663 154.073 31.9144 152.864 32.2495 151.888C32.5847 150.911 33.0244 150.069 33.5688 149.361C34.1132 148.654 34.6665 148.018 35.2295 147.454C35.9902 146.712 36.6632 145.98 37.251 145.256C37.8389 144.534 38.1173 143.595 38.0862 142.44C38.0694 141.805 37.8965 141.275 37.5675 140.851C37.2386 140.426 36.8467 140.097 36.3936 139.864C35.9397 139.631 35.4964 139.519 35.0637 139.531C34.2258 139.553 33.5316 139.765 32.9792 140.171C32.4269 140.575 31.9773 141.086 31.6333 141.701C31.2884 142.316 30.9949 142.96 30.7529 143.63L25.7124 141.424C25.872 140.9 26.1575 140.228 26.5689 139.409C26.9803 138.59 27.5717 137.765 28.3448 136.936C29.1171 136.107 30.0941 135.402 31.2778 134.823C32.4606 134.243 33.8898 133.931 35.5638 133.886C37.2085 133.843 38.6953 134.085 40.0235 134.613C41.3517 135.142 42.421 135.98 43.2313 137.128C44.0417 138.276 44.4717 139.803 44.5223 141.707C44.5639 143.295 44.3813 144.585 43.9743 145.577C43.5674 146.57 43.0549 147.414 42.4387 148.109C41.8216 148.804 41.2036 149.492 40.5874 150.172C40.1095 150.676 39.6547 151.23 39.2229 151.833C38.7911 152.436 38.4559 153.131 38.2166 153.917C37.9772 154.703 37.8725 155.645 37.9018 156.742L37.9257 157.651L31.8647 157.811ZM35.1373 166.865C34.0982 166.893 33.239 166.634 32.5607 166.089C31.8816 165.543 31.5305 164.809 31.5056 163.885C31.4817 162.991 31.8009 162.231 32.4632 161.607C33.1246 160.983 33.9607 160.657 34.9715 160.631C35.9814 160.604 36.8192 160.885 37.4851 161.474C38.1501 162.062 38.495 162.805 38.5189 163.699C38.5437 164.623 38.2449 165.374 37.6252 165.954C37.0054 166.535 36.1755 166.838 35.1373 166.865Z" fill="#55A3F3" fill-opacity="0.7"/>
</g>
</svg>
